<svg clip-rule="evenodd" fill-rule="evenodd" height="1.707in" image-rendering="optimizeQuality" shape-rendering="geometricPrecision" text-rendering="geometricPrecision" viewBox="0 0 1707 1707" width="1.707in" xmlns="http://www.w3.org/2000/svg" xmlns:xlink="http://www.w3.org/1999/xlink"><linearGradient id="id0" gradientUnits="userSpaceOnUse" x1="408.264" x2="1298.39" y1="513.803" y2="513.803"><stop offset="0" stop-color="#000b1d"/><stop offset="1" stop-color="#263d4f"/></linearGradient><linearGradient id="id1" gradientUnits="userSpaceOnUse" x1="519.358" x2="601.287" y1="1061.74" y2="1061.74"><stop offset="0" stop-color="#e5a200"/><stop offset=".439216" stop-color="#f2bb15"/><stop offset="1" stop-color="#ffd42b"/></linearGradient><linearGradient id="id2" gradientUnits="userSpaceOnUse" x1="491.929" x2="576.295" y1="1387.96" y2="1387.96"><stop offset="0" stop-color="#ae0e1a"/><stop offset=".419608" stop-color="#c72733"/><stop offset="1" stop-color="#e0404c"/></linearGradient><linearGradient id="id3" gradientUnits="userSpaceOnUse" x1="543.311" x2="627.327" y1="1387.96" y2="1387.96"><stop offset="0" stop-color="#ae0e1a"/><stop offset=".388235" stop-color="#c72733"/><stop offset="1" stop-color="#e0404c"/></linearGradient><linearGradient id="id4" gradientUnits="userSpaceOnUse" x1="497.142" x2="561.02" y1="531.858" y2="531.858"><stop offset="0" stop-color="#da8264"/><stop offset="1" stop-color="#ffb496"/></linearGradient><linearGradient id="id5" gradientUnits="userSpaceOnUse" x1="547.13" x2="1138.7" y1="536.72" y2="536.72"><stop offset="0" stop-color="#d9ac8b"/><stop offset="1" stop-color="#ffdebd"/></linearGradient><linearGradient id="id6" gradientUnits="userSpaceOnUse" x1="1145.64" x2="1209.52" xlink:href="#id4" y1="531.858" y2="531.858"/><linearGradient id="id7" gradientUnits="userSpaceOnUse" x1="624.898" x2="724.882" y1="549.909" y2="549.909"><stop offset="0" stop-color="#0a1b28"/><stop offset=".341176" stop-color="#233441"/><stop offset="1" stop-color="#3c4d5a"/></linearGradient><linearGradient id="id8" gradientUnits="userSpaceOnUse" x1="696.535" x2="877.85" y1="749.02" y2="749.02"><stop offset="0" stop-color="#da8264"/><stop offset=".411765" stop-color="#ec9b7d"/><stop offset="1" stop-color="#ffb496"/></linearGradient><linearGradient id="id9" gradientUnits="userSpaceOnUse" x1="909.571" x2="1010.94" xlink:href="#id7" y1="548.52" y2="548.52"/><linearGradient id="id10" gradientUnits="userSpaceOnUse" x1="745.709" x2="962.339" y1="831.807" y2="831.807"><stop offset="0" stop-color="#da876a"/><stop offset="1" stop-color="#ffb99c"/></linearGradient><linearGradient id="id11" gradientUnits="userSpaceOnUse" x1="745.709" x2="962.339" y1="914.429" y2="914.429"><stop offset="0" stop-color="#d99978"/><stop offset="1" stop-color="#ffcbaa"/></linearGradient><linearGradient id="id12" gradientUnits="userSpaceOnUse" x1="1252.56" x2="1512.24" y1="1442.81" y2="1442.81"><stop offset="0" stop-color="#ae0e1a"/><stop offset="1" stop-color="#e0404c"/></linearGradient><linearGradient id="id13" gradientUnits="userSpaceOnUse" x1="601.287" x2="819.311" y1="511.031" y2="511.031"><stop offset="0" stop-color="#000413"/><stop offset="1" stop-color="#243645"/></linearGradient><linearGradient id="id14" gradientUnits="userSpaceOnUse" x1="476.311" x2="565.185" y1="531.165" y2="531.165"><stop offset="0" stop-color="#d99372"/><stop offset="1" stop-color="#ffc5a4"/></linearGradient><linearGradient id="id15" gradientUnits="userSpaceOnUse" x1="1080.37" x2="1212.29" y1="1061.63" y2="1061.63"><stop offset="0" stop-color="#9a0a15"/><stop offset=".439216" stop-color="#b3232e"/><stop offset="1" stop-color="#cc3c47"/></linearGradient><linearGradient id="id16" gradientUnits="userSpaceOnUse" x1="547.13" x2="1159.53" xlink:href="#id11" y1="544.354" y2="544.354"/><linearGradient id="id17" gradientUnits="userSpaceOnUse" x1="545.744" x2="1158.14" y1="511.028" y2="511.028"><stop offset="0" stop-color="#000b1d"/><stop offset=".819608" stop-color="#132436"/><stop offset="1" stop-color="#263d4f"/></linearGradient><linearGradient id="id18" gradientUnits="userSpaceOnUse" x1="541.579" x2="1122.03" y1="1623.34" y2="1623.34"><stop offset="0" stop-color="#e5a200"/><stop offset=".458824" stop-color="#f2bb15"/><stop offset="1" stop-color="#ffd42b"/></linearGradient><linearGradient id="id19" gradientUnits="userSpaceOnUse" x1="1224.8" x2="1278.95" y1="1176.19" y2="1176.19"><stop offset="0" stop-color="#9a0a15"/><stop offset=".329412" stop-color="#b3232e"/><stop offset="1" stop-color="#cc3c47"/></linearGradient><linearGradient id="id20" gradientUnits="userSpaceOnUse" x1="1138.7" x2="1216.46" y1="531.161" y2="531.161"><stop offset="0" stop-color="#dc654d"/><stop offset="1" stop-color="#ff977f"/></linearGradient><linearGradient id="id21" gradientUnits="userSpaceOnUse" x1="887.35" x2="1103.98" xlink:href="#id13" y1="511.031" y2="511.031"/><linearGradient id="id22" gradientUnits="userSpaceOnUse" x1="375.63" x2="1331.02" y1="1103.13" y2="1103.13"><stop offset="0" stop-color="#c41220"/><stop offset=".529412" stop-color="#dd2b39"/><stop offset="1" stop-color="#f64452"/></linearGradient><linearGradient id="id23" gradientUnits="userSpaceOnUse" x1="1104.49" x2="1185.91" y1="1061.97" y2="1061.97"><stop offset="0" stop-color="#e5a200"/><stop offset=".45098" stop-color="#f2bb15"/><stop offset="1" stop-color="#ffd42b"/></linearGradient><linearGradient id="id24" gradientUnits="userSpaceOnUse" x1="1127.93" x2="1213.34" y1="1387.96" y2="1387.96"><stop offset="0" stop-color="#ae0e1a"/><stop offset=".368627" stop-color="#c72733"/><stop offset="1" stop-color="#e0404c"/></linearGradient><linearGradient id="id25" gradientUnits="userSpaceOnUse" x1="1141.47" x2="1230.35" xlink:href="#id14" y1="531.165" y2="531.165"/><linearGradient id="id26" gradientUnits="userSpaceOnUse" x1="1128.98" x2="1162.31" xlink:href="#id12" y1="1397.68" y2="1397.68"/><linearGradient id="id27" gradientUnits="userSpaceOnUse" x1="1128.98" x2="1162.31" y1="1243.54" y2="1243.54"><stop offset="0" stop-color="#e6e6e6"/><stop offset="1" stop-color="#fff"/></linearGradient><linearGradient id="id28" gradientUnits="userSpaceOnUse" x1="960.953" x2="1298.39" xlink:href="#id13" y1="476.311" y2="476.311"/><linearGradient id="id29" gradientUnits="userSpaceOnUse" x1="344.386" x2="377.717" xlink:href="#id12" y1="1642.08" y2="1642.08"/><linearGradient id="id30" gradientUnits="userSpaceOnUse" x1="1328.94" x2="1362.27" xlink:href="#id12" y1="1642.08" y2="1642.08"/><linearGradient id="id31" gradientUnits="userSpaceOnUse" x1="541.579" x2="1165.08" y1="1623.34" y2="1623.34"><stop offset="0" stop-color="#e58f00"/><stop offset=".458824" stop-color="#f2a814"/><stop offset="1" stop-color="#ffc129"/></linearGradient><linearGradient id="id32" gradientUnits="userSpaceOnUse" x1="426.319" x2="1277.56" y1="1161.26" y2="1161.26"><stop offset="0" stop-color="#ae0e1a"/><stop offset=".490196" stop-color="#c72733"/><stop offset="1" stop-color="#e0404c"/></linearGradient><linearGradient id="id33" gradientUnits="userSpaceOnUse" x1="194.413" x2="1512.24" y1="1339.35" y2="1339.35"><stop offset="0" stop-color="#db1c2d"/><stop offset=".419608" stop-color="#ed3546"/><stop offset="1" stop-color="#ff4e5f"/></linearGradient><linearGradient id="id34" gradientUnits="userSpaceOnUse" x1="495.756" x2="627.677" y1="1061.63" y2="1061.63"><stop offset="0" stop-color="#9a0a15"/><stop offset=".45098" stop-color="#b3232e"/><stop offset="1" stop-color="#cc3c47"/></linearGradient><linearGradient id="id35" gradientUnits="userSpaceOnUse" x1="544.354" x2="577.685" xlink:href="#id12" y1="1397.68" y2="1397.68"/><linearGradient id="id36" gradientUnits="userSpaceOnUse" x1="544.354" x2="577.685" xlink:href="#id27" y1="1243.54" y2="1243.54"/><linearGradient id="id37" gradientUnits="userSpaceOnUse" x1="490.197" x2="567.961" xlink:href="#id20" y1="531.161" y2="531.161"/><linearGradient id="id38" gradientUnits="userSpaceOnUse" x1="1077.59" x2="1161.96" xlink:href="#id12" y1="1387.96" y2="1387.96"/><g id="Layer_x0020_1"><g id="_705839584"><g><g><path d="m447 1162c-154 121-253 310-253 520v25h1318v-25c0-210-100-399-254-520l-419-190z" fill="url(#id33)"/><path d="m447 1162c-7 6-14 11-21 17 50 31 113 49 164 69l250 100c8 3 17 3 25 0l249-100c51-19 114-37 164-69-6-6-13-11-20-17l-419-190z" fill="url(#id32)"/><g><path d="m1329 1707h33v-113c0-10-8-16-16-16-9 0-17 6-17 16z" fill="url(#id30)"/><path d="m344 1707h34v-113c0-10-9-16-17-16-10 0-17 6-17 16z" fill="url(#id29)"/></g><path d="m408 1028h890v-584c0-244-201-444-445-444-245 0-445 200-445 444z" fill="url(#id0)"/><path d="m1001 26c-51 77-37 186-37 186s18 94 196 175v182c0 131-82 242-199 288v65c201-49 294-33 337 4v-482c0-193-125-357-297-418z" fill="url(#id28)"/><g><g><path d="m565 605c-4 2-8 2-12 2-42 0-77-33-77-75s34-77 77-77h7z" fill="url(#id14)"/><path d="m562 593c-2 0-5 0-9 0-34 0-63-26-63-61s28-63 63-63h5c4 0 6 3 6 7l4 109c0 4-3 7-6 8z" fill="url(#id37)"/><path d="m561 586c-3 0-6 1-8 1-31 0-56-25-56-55 0-31 25-56 56-56h5z" fill="url(#id4)"/></g><g><path d="m1141 605c5 2 9 2 13 2 42 0 76-33 76-75s-33-77-76-77c-3 0-6 0-7 0z" fill="url(#id25)"/><path d="m1144 593h10c35 0 62-26 62-61s-26-63-62-63c-1 0-4 0-6 0-4 0-7 3-7 7l-2 110c0 3 1 6 5 7z" fill="url(#id20)"/><path d="m1146 586c1 0 5 1 8 1 31 0 56-25 56-55 0-31-24-56-56-56-1 0-3 0-6 0z" fill="url(#id6)"/></g></g><path d="m744 922c-376-92-375 42-366 129 8 103 134 129 226 165l249 99 250-99c91-37 218-62 226-165 8-87 10-219-368-129z" fill="url(#id22)"/><path d="m962 754v213c0 59-48 108-108 108s-108-49-108-108v-213z" fill="url(#id11)"/><path d="m962 754v138c-33 11-70 18-108 18-37 0-74-7-108-18v-138z" fill="url(#id10)"/><path d="m1165 1707v-84c0-45-37-83-83-83h-458c-45 0-82 38-82 83v84z" fill="url(#id31)"/><path d="m1040 1540h-416c-45 0-82 38-82 83v84h580v-84c0-45-37-83-82-83z" fill="url(#id18)"/><path d="m1129 1119c0-8 8-11 17-11 8 0 16 8 16 17v237c0 9-8 17-16 17-9 0-17-8-17-17z" fill="url(#id27)"/><path d="m1133 1351c7-7 17-7 24 0 7 6 7 17 0 24l-52 50c-5 7-16 7-23 0-6-6-6-17 0-24z" fill="url(#id38)"/><path d="m1133 1375c-7-7-7-18 0-24 7-7 17-7 24 0l51 50c7 7 7 18 0 24-7 7-18 7-23 0z" fill="url(#id24)"/><path d="m1129 1362c0-9 8-16 17-16 8 0 16 7 16 16v71c0 10-8 17-16 17-9 0-17-7-17-17z" fill="url(#id26)"/><path d="m544 1125c0-9 7-17 17-17 8 0 17 8 17 17v237c0 9-9 17-17 17-10 0-17-8-17-17z" fill="url(#id36)"/><path d="m549 1351c5-7 16-7 23 0 6 6 6 17 0 24l-51 50c-7 7-18 7-24 0-7-6-7-17 0-24z" fill="url(#id2)"/><path d="m549 1375c-7-7-7-18 0-24 5-7 16-7 23 0l50 50c7 7 7 18 0 24-5 7-17 7-23 0z" fill="url(#id3)"/><path d="m544 1362c0-9 7-16 17-16 8 0 17 7 17 16v71c0 10-7 17-17 17s-17-7-17-17z" fill="url(#id35)"/><path d="m1146 996c18 0 34 8 47 19 12 13 19 28 19 46 0 19-7 35-19 47l-2 2c-12 11-27 18-45 18s-34-7-46-20c-13-12-20-28-20-47 0-18 9-33 20-46 11-11 28-19 46-19zm26 40c-7-7-17-11-26-11-10 0-20 5-25 11-7 5-11 15-11 25s4 19 11 26c5 6 15 10 25 10 9 0 19-3 25-8l1-2c6-7 10-16 10-26s-4-18-10-25z" fill="url(#id15)"/><path d="m561 996c18 0 33 8 46 19 1 0 1 0 1 1 13 13 20 28 20 45 0 19-9 35-20 47-11 13-28 20-46 20-19 0-34-7-47-20-12-12-19-28-19-47 0-18 7-33 19-46 11-11 27-19 46-19zm25 40c-7-6-17-11-25-11-10 0-19 4-26 11-6 5-10 15-10 25s4 19 10 26c7 6 16 10 26 10 8 0 18-4 25-10 6-7 11-16 11-26 0-8-4-17-11-25z" fill="url(#id34)"/><path d="m964 212s18 94 196 175v182c0 170-138 307-307 307-168 0-306-137-306-307v-182c170-9 308-68 417-175z" fill="url(#id16)"/><path d="m994 268c25 31 68 71 145 108v170c0 169-138 307-307 307-85 0-163-35-218-92-42-53-67-119-67-190v-184c165-8 303-65 410-166 7 12 19 28 37 47z" fill="url(#id5)"/><path d="m1116 1033c-15 17-16 42 0 57 27 26 70 8 70-29 0-11-6-21-13-28-1-3-5-4-7-5-12-9-30-9-44 0 0 1-3 2-6 5z" fill="url(#id23)"/><path d="m539 1028c-11 7-20 19-20 33 0 12 5 22 13 29 12 13 30 15 44 8 2-1 3-1 6-1 12-7 19-19 19-36 0-10-4-21-12-28-2-3-4-4-7-5-13-9-31-9-43 0z" fill="url(#id1)"/><path d="m1248 1158c-8 4-16 8-23 13 10 7 19 15 28 23 8-5 18-9 26-15-6-6-13-11-19-17z" fill="url(#id19)"/><path d="m1279 1179c-8 6-17 10-26 15 133 121 216 295 216 488v25h43v-25c0-202-90-382-233-503z" fill="url(#id12)"/></g><g><path d="m954 397h83c38 0 67 31 67 67v94c0 38-31 67-67 67h-83c-37 0-67-31-67-67v-94c0-38 30-67 67-67z" fill="url(#id21)"/><g><path d="m858 767c9-2 17 4 20 12 1 8-5 18-13 19-33 7-67 2-96-11-29-14-54-37-71-65-4-8-1-18 6-24 8-4 18-1 22 6 14 24 34 42 57 51 21 13 47 17 75 12z" fill="url(#id8)"/><path d="m551 528c-1 0-4-2-5-2v-30c1 0 3-2 5-2h49c8 0 17 9 17 17s-7 17-16 17zm268 0c-8 0-16-7-16-17s8-17 16-17h67c8 0 17 9 17 17s-7 17-16 17zm285 0c-8 0-17-7-17-17s7-17 17-17h49c1 0 4 2 5 2v30c-1 0-4 2-5 2z" fill="url(#id17)"/><path d="m668 397h85c37 0 66 31 66 67v94c0 38-30 67-66 67h-85c-36 0-67-31-67-67v-94c0-38 31-67 67-67z" fill="url(#id13)"/><path d="m625 511c0-8 7-17 17-17 8 0 16 7 16 17v49c0 2 2 5 3 8 3 1 6 4 8 4h39c9 0 17 7 17 17 0 8-8 16-17 16h-40c-13 0-24-5-31-12-8-8-12-19-12-31z" fill="url(#id7)"/><path d="m910 508c0-8 7-16 16-16 10 0 17 8 17 16v52c0 2 1 5 4 8 1 1 6 4 8 4h39c9 0 17 7 17 17 0 8-7 16-17 16h-39c-12 0-23-5-30-12-8-8-13-19-13-31v-54z" fill="url(#id9)"/></g></g></g></g></g></svg>