<svg id="Layer_6" height="512" viewBox="0 0 64 64" width="512" xmlns="http://www.w3.org/2000/svg" xmlns:xlink="http://www.w3.org/1999/xlink" data-name="Layer 6"><linearGradient id="linear-gradient" gradientUnits="userSpaceOnUse" x1="14.14" x2="49.86" y1="13.74" y2="49.46"><stop offset="0" stop-color="#999"/><stop offset=".03" stop-color="#898989"/><stop offset=".1" stop-color="#6e6e6e"/><stop offset=".18" stop-color="#585858"/><stop offset=".28" stop-color="#474747"/><stop offset=".39" stop-color="#3c3c3c"/><stop offset=".55" stop-color="#353535"/><stop offset="1" stop-color="#333"/></linearGradient><linearGradient id="linear-gradient-2" gradientUnits="userSpaceOnUse" x1="19.28" x2="44.73" y1="42.82" y2="68.27"><stop offset="0" stop-color="#fddac5"/><stop offset="1" stop-color="#fbbc95"/></linearGradient><linearGradient id="linear-gradient-3" x1="23.61" x2="40.39" xlink:href="#linear-gradient-2" y1="19.39" y2="36.17"/><path d="m13.55 48.55s-.1.11-.16.16l-.79-5.54a78.87 78.87 0 0 1 0-22.34 19.6 19.6 0 0 1 38.8 0 79 79 0 0 1 .8 11.17 79 79 0 0 1 -.8 11.17l-.79 5.54" fill="url(#linear-gradient)"/><path d="m50.61 48.71a8.72 8.72 0 0 0 -6.33-2.71 8.69 8.69 0 0 1 -8.28-6v-2h-8v2a8.7 8.7 0 0 1 -8.27 6 8.88 8.88 0 0 0 -1.72.17 8.68 8.68 0 0 0 -4.45 2.38s-.1.11-.16.16a8.77 8.77 0 0 0 -2.39 6v5.29h41.99v-5.28a8.77 8.77 0 0 0 -2.39-6.01z" fill="url(#linear-gradient-2)"/><path d="m32 40a11 11 0 0 1 -11-11v-7h9a6 6 0 0 0 6-6 6 6 0 0 0 6 6h1v7a11 11 0 0 1 -11 11z" fill="url(#linear-gradient-3)"/><path d="m46 55v5h-28v-13.83a8.88 8.88 0 0 1 1.72-.17 8.72 8.72 0 0 0 5.55-2 25 25 0 0 0 20.73 11z" fill="#ffa5b0"/></svg>