<svg id="Smooth-Covid_Avatars" height="512" viewBox="0 0 512 512" width="512" xmlns="http://www.w3.org/2000/svg" xmlns:xlink="http://www.w3.org/1999/xlink"><linearGradient id="linear-gradient" gradientUnits="userSpaceOnUse" x1="4.861" x2="283.106" y1="95.12" y2="103.645"><stop offset=".2824" stop-color="#3d3c3b" stop-opacity="0"/><stop offset=".5137" stop-color="#393837" stop-opacity=".169"/><stop offset=".8257" stop-color="#2d2c2b" stop-opacity=".646"/><stop offset="1" stop-color="#242423"/></linearGradient><radialGradient id="radial-gradient" cx="98.167" cy="113.382" gradientUnits="userSpaceOnUse" r="256.748"><stop offset=".1863" stop-color="#ffd5b3" stop-opacity="0"/><stop offset=".259" stop-color="#fdd0ae" stop-opacity=".069"/><stop offset=".4007" stop-color="#f9c4a0" stop-opacity=".248"/><stop offset=".5973" stop-color="#f2b08a" stop-opacity=".538"/><stop offset=".8393" stop-color="#e8956c" stop-opacity=".934"/><stop offset=".8782" stop-color="#e69067"/></radialGradient><linearGradient id="linear-gradient-2" gradientUnits="userSpaceOnUse" x1="98.745" x2="256" y1="416.658" y2="416.658"><stop offset="0" stop-color="#daeef7" stop-opacity="0"/><stop offset="1" stop-color="#a9cbdb"/></linearGradient><linearGradient id="linear-gradient-3" gradientUnits="userSpaceOnUse" x1="256" x2="413.255" y1="416.658" y2="416.658"><stop offset="0" stop-color="#99c6db"/><stop offset=".1444" stop-color="#9ac7db" stop-opacity=".983"/><stop offset=".2806" stop-color="#9dc9dd" stop-opacity=".931"/><stop offset=".4136" stop-color="#a3ccdf" stop-opacity=".844"/><stop offset=".5446" stop-color="#abd1e3" stop-opacity=".721"/><stop offset=".6742" stop-color="#b5d7e7" stop-opacity=".563"/><stop offset=".8027" stop-color="#c2dfed" stop-opacity=".37"/><stop offset=".928" stop-color="#d1e8f3" stop-opacity=".145"/><stop offset="1" stop-color="#daeef7" stop-opacity="0"/></linearGradient><radialGradient id="radial-gradient-2" cx="110.239" cy="426.621" gradientUnits="userSpaceOnUse" r="46.662"><stop offset="0" stop-color="#9595a8"/><stop offset=".2864" stop-color="#9292a4"/><stop offset=".5401" stop-color="#88889a"/><stop offset=".7806" stop-color="#787888"/><stop offset="1" stop-color="#626270"/></radialGradient><linearGradient id="linear-gradient-4" gradientUnits="userSpaceOnUse" x1="256" x2="256" y1="480" y2="414.986"><stop offset="0" stop-color="#3d3c3b" stop-opacity="0"/><stop offset=".6205" stop-color="#302f2f" stop-opacity=".697"/><stop offset="1" stop-color="#2b2a2a"/></linearGradient><radialGradient id="radial-gradient-3" cx="235.406" cy="399.736" gradientUnits="userSpaceOnUse" r="35.384"><stop offset="0" stop-color="#3d3c3b" stop-opacity="0"/><stop offset=".3" stop-color="#3a3938" stop-opacity=".18"/><stop offset=".7584" stop-color="#313030" stop-opacity=".675"/><stop offset="1" stop-color="#2b2a2a"/></radialGradient><linearGradient id="linear-gradient-5" gradientUnits="userSpaceOnUse" x1="175.131" x2="225.89" y1="345.489" y2="460.85"><stop offset="0" stop-color="#eaf5fb" stop-opacity="0"/><stop offset=".0997" stop-color="#e9f4fa" stop-opacity=".027"/><stop offset=".2345" stop-color="#e5f2f9" stop-opacity=".103"/><stop offset=".3896" stop-color="#dfedf6" stop-opacity=".228"/><stop offset=".5597" stop-color="#d6e8f1" stop-opacity=".403"/><stop offset=".7421" stop-color="#cbe0ec" stop-opacity=".627"/><stop offset=".932" stop-color="#bdd7e6" stop-opacity=".896"/><stop offset="1" stop-color="#b8d4e3"/></linearGradient><linearGradient id="linear-gradient-6" x1="331.897" x2="286.575" xlink:href="#linear-gradient-5" y1="358.29" y2="452.594"/><linearGradient id="linear-gradient-7" gradientUnits="userSpaceOnUse" x1="127.709" x2="366.088" y1="373.847" y2="373.847"><stop offset="0" stop-color="#444241"/><stop offset="1" stop-color="#2b2a2a"/></linearGradient><linearGradient id="linear-gradient-8" gradientUnits="userSpaceOnUse" x1="340.202" x2="418.345" y1="419.707" y2="419.707"><stop offset="0" stop-color="#b8b8cf"/><stop offset="1" stop-color="#9797b8"/></linearGradient><linearGradient id="linear-gradient-9" gradientUnits="userSpaceOnUse" x1="256" x2="256" y1="400.547" y2="321.92"><stop offset=".1863" stop-color="#ffd5b3" stop-opacity="0"/><stop offset=".2911" stop-color="#f9c4a1" stop-opacity=".243"/><stop offset=".4188" stop-color="#f2b28c" stop-opacity=".51"/><stop offset=".5358" stop-color="#eda37c" stop-opacity=".721"/><stop offset=".6382" stop-color="#e99971" stop-opacity=".873"/><stop offset=".7219" stop-color="#e7926a" stop-opacity=".966"/><stop offset=".7765" stop-color="#e69067"/></linearGradient><radialGradient id="radial-gradient-4" cx="108.239" cy="189.189" gradientUnits="userSpaceOnUse" r="244.444"><stop offset="0" stop-color="#eaf5fb" stop-opacity="0"/><stop offset=".1804" stop-color="#e9f4fb" stop-opacity=".014"/><stop offset=".3188" stop-color="#e6f2f9" stop-opacity=".057"/><stop offset=".4434" stop-color="#e0eff7" stop-opacity=".13"/><stop offset=".5597" stop-color="#d8ebf5" stop-opacity=".234"/><stop offset=".6704" stop-color="#cee5f1" stop-opacity=".367"/><stop offset=".7768" stop-color="#c1deed" stop-opacity=".531"/><stop offset=".8799" stop-color="#b2d5e7" stop-opacity=".726"/><stop offset=".9778" stop-color="#a1cbe1" stop-opacity=".945"/><stop offset="1" stop-color="#9dc9e0"/></radialGradient><radialGradient id="radial-gradient-5" cx="186.695" cy="175.492" gradientTransform="matrix(.707 .707 -.707 .707 199.28 -89.479)" r="34.577" xlink:href="#linear-gradient"/><radialGradient id="radial-gradient-6" cx="283.4" cy="175.492" gradientTransform="matrix(.707 .707 -.707 .707 227.604 -157.86)" r="34.577" xlink:href="#linear-gradient"/><linearGradient id="linear-gradient-10" x1="127.709" x2="137.709" xlink:href="#linear-gradient-8" y1="430.096" y2="430.096"/><g id="Avatar_Man_Profession_Doctor_Medic_Health_Mask" data-name="Avatar Man Profession Doctor Medic Health Mask"><path d="m361.042 100.0911c9.0491-112.9455-306.899-94.796-212.3346 73.7517l222.9644-6.3306c38.8243-28.3937 17.744-87.8767-10.6298-67.4211z" fill="#3d3c3b"/><path d="m361.042 100.0911c9.0491-112.9455-306.899-94.796-212.3346 73.7517l222.9644-6.3306c38.8243-28.3937 17.744-87.8767-10.6298-67.4211z" fill="url(#linear-gradient)"/><path d="m364.8434 252.4372a7.93 7.93 0 0 1 6.51-6.5068 31.7307 31.7307 0 0 0 26.1766-30.9442v-23.5883a31.7363 31.7363 0 0 0 -26.3607-30.9763 8.0118 8.0118 0 0 1 -6.4761-6.1779 63.1137 63.1137 0 0 0 -61.5162-49.3361h-94.353a63.1137 63.1137 0 0 0 -61.5162 49.3361 8.0118 8.0118 0 0 1 -6.4761 6.1779 31.7363 31.7363 0 0 0 -26.3607 30.9763v23.5883a31.7307 31.7307 0 0 0 26.1758 30.9438 7.93 7.93 0 0 1 6.51 6.5068z" fill="#ffd5b3"/><path d="m364.8434 252.4372a7.93 7.93 0 0 1 6.51-6.5068 31.7307 31.7307 0 0 0 26.1766-30.9442v-23.5883a31.7363 31.7363 0 0 0 -26.3607-30.9763 8.0118 8.0118 0 0 1 -6.4761-6.1779 63.1137 63.1137 0 0 0 -61.5162-49.3361h-94.353a63.1137 63.1137 0 0 0 -61.5162 49.3361 8.0118 8.0118 0 0 1 -6.4761 6.1779 31.7363 31.7363 0 0 0 -26.3607 30.9763v23.5883a31.7307 31.7307 0 0 0 26.1758 30.9438 7.93 7.93 0 0 1 6.51 6.5068z" fill="url(#radial-gradient)"/><path d="m153.7749 250.002-14.9761-89.8892c-1.0864-6.5242 8.7757-8.1739 9.8643-1.6436l14.9761 89.8892z" fill="#b2c8ce"/><path d="m153.7749 250.002-14.9761-89.8892c-1.0864-6.5242 8.7757-8.1739 9.8643-1.6436l14.9761 89.8892z" fill="#eaf5fb"/><path d="m334.6276 353.3164h-157.2551a78.708 78.708 0 0 0 -78.6275 78.6817c0 17.3687 3.5052 25.504 31.451 31.451 0 0 94.0823 16.5509 125.804 16.5509s125.804-16.5509 125.804-16.5509c27.9458-5.947 31.451-14.0823 31.451-31.451a78.708 78.708 0 0 0 -78.6274-78.6817z" fill="#daeef7"/><path d="m177.3726 353.3706a78.6269 78.6269 0 0 0 -78.6275 78.6274c0 17.3687 3.5051 25.5041 31.4509 31.451 0 0 94.0823 16.551 125.804 16.551v-126.6836z" fill="url(#linear-gradient-2)"/><path d="m334.6274 353.3706-78.6274-.0542v126.6836c31.7219 0 125.804-16.551 125.804-16.551 27.9458-5.9469 31.4511-14.0823 31.4511-31.451a78.6271 78.6271 0 0 0 -78.6277-78.6274z" fill="url(#linear-gradient-3)"/><circle cx="132.709" cy="455.796" fill="url(#radial-gradient-2)" r="24.121"/><path d="m208.823 353.169h94.354v43.141l-47.177 83.656-47.177-79.419z" fill="#e8e8e8"/><path d="m261 414.9863h-10l-11.9888 48.2737 16.9888 16.74 16.9888-16.74z" fill="#3d3c3b"/><path d="m261 414.9863h-10l-11.9888 48.2737 16.9888 16.74 16.9888-16.74z" fill="url(#linear-gradient-4)"/><circle cx="256" cy="415.994" fill="#3d3c3b" r="15.447"/><circle cx="256" cy="415.994" fill="url(#radial-gradient-3)" r="15.447"/><path d="m208.8235 353.1694 47.1765 47.3777-29.3425 29.399s-34.5108-38.5671-17.834-76.7767z" fill="#f7f7f7"/><path d="m303.1766 353.1694-47.1766 47.3777 29.3426 29.399s34.5108-38.5671 17.834-76.7767z" fill="#f7f7f7"/><path d="m167.3208 389.7076c6.4054-10.8935 23.9346-29.0729 41.5027-36.337 0 30.6294 16.5448 61.2471 47.1765 126.5957l-.042.0335c-11.0609-.0052-29.67-2.0144-49.2292-4.6307-10.6292-20.7861-25.3179-47.5624-25.3179-53.9177-.2917-5.4514 7.24-8.2825 16.3115-13.6084l-26.729-8.5754a6.5609 6.5609 0 0 1 -3.6726-9.56z" fill="#eaf5fb"/><path d="m167.3208 389.7076c6.4054-10.8935 23.9346-29.0729 41.5027-36.337 0 30.6294 16.5448 61.2471 47.1765 126.5957l-.042.0335c-11.0609-.0052-29.67-2.0144-49.2292-4.6307-10.6292-20.7861-25.3179-47.5624-25.3179-53.9177-.2917-5.4514 7.24-8.2825 16.3115-13.6084l-26.729-8.5754a6.5609 6.5609 0 0 1 -3.6726-9.56z" fill="url(#linear-gradient-5)"/><path d="m344.6792 389.7076c-6.4054-10.8935-23.9346-29.0729-41.5027-36.337 0 30.6294-16.5448 61.2471-47.1765 126.5957l.042.0335c11.0609-.0052 29.67-2.0144 49.2292-4.6307 10.6292-20.7861 25.3179-47.5624 25.3179-53.9177.2917-5.4514-7.24-8.2825-16.3115-13.6084l26.729-8.5754a6.5609 6.5609 0 0 0 3.6726-9.56z" fill="#eaf5fb"/><path d="m344.6792 389.7076c-6.4054-10.8935-23.9346-29.0729-41.5027-36.337 0 30.6294-16.5448 61.2471-47.1765 126.5957l.042.0335c11.0609-.0052 29.67-2.0144 49.2292-4.6307 10.6292-20.7861 25.3179-47.5624 25.3179-53.9177.2917-5.4514-7.24-8.2825-16.3115-13.6084l26.729-8.5754a6.5609 6.5609 0 0 0 3.6726-9.56z" fill="url(#linear-gradient-6)"/><path d="m137.709 404.396h-10a61.1661 61.1661 0 0 1 61.0967-61.0972h134.3706a60.7352 60.7352 0 0 1 42.9116 17.6065l-7.0234 7.1181a50.7951 50.7951 0 0 0 -35.8882-14.7246h-134.3706a51.1547 51.1547 0 0 0 -51.0967 51.0972z" fill="url(#linear-gradient-7)"/><path d="m383.6484 395.6609a61.18 61.18 0 0 0 -17.6-34.7957c-4.7107-4.6381-11.7336 2.4793-7.0176 7.125a51.1577 51.1577 0 0 1 14.5154 27.8431 39.1293 39.1293 0 0 0 -33.344 38.6481v28.2433a18.2465 18.2465 0 0 0 11.4716 16.9224c6.119 2.4477 9.7022-6.7461 3.55-9.3522a8.2294 8.2294 0 0 1 -5.0218-7.57v-27.6249c0-15.8188 12.3791-29.2073 28.1909-29.6772a29.1031 29.1031 0 0 1 29.9521 29.0586v28.2433a8.23 8.23 0 0 1 -5.0215 7.57c-6.1525 2.6067-2.5662 11.7991 3.55 9.3523a18.2463 18.2463 0 0 0 11.4711-16.9224v-28.2432a39.123 39.123 0 0 0 -34.6962-38.8205z" fill="#b8b8cf"/><path d="m383.6484 395.6609a61.18 61.18 0 0 0 -17.6-34.7957c-4.7107-4.6381-11.7336 2.4793-7.0176 7.125a51.1577 51.1577 0 0 1 14.5154 27.8431 39.1293 39.1293 0 0 0 -33.344 38.6481v28.2433a18.2465 18.2465 0 0 0 11.4716 16.9224c6.119 2.4477 9.7022-6.7461 3.55-9.3522a8.2294 8.2294 0 0 1 -5.0218-7.57v-27.6249c0-15.8188 12.3791-29.2073 28.1909-29.6772a29.1031 29.1031 0 0 1 29.9521 29.0586v28.2433a8.23 8.23 0 0 1 -5.0215 7.57c-6.1525 2.6067-2.5662 11.7991 3.55 9.3523a18.2463 18.2463 0 0 0 11.4711-16.9224v-28.2432a39.123 39.123 0 0 0 -34.6962-38.8205z" fill="url(#linear-gradient-8)"/><path d="m256 400.5471s-47.1765-21.1216-47.1765-47.1765v-31.4506h94.353v31.451c0 26.0545-47.1765 47.1761-47.1765 47.1761z" fill="#ffd5b3"/><path d="m256 400.5471s-47.1765-21.1216-47.1765-47.1765v-31.4506h94.353v31.451c0 26.0545-47.1765 47.1761-47.1765 47.1761z" fill="url(#linear-gradient-9)"/><path d="m368.26 247.4658h-45.7225c-16.8937 0-33.129-5.5168-47.3083-14.7008-6.1972-4.0139-22.2286-10.5353-38.4943 0-14.1793 9.184-30.4146 14.7008-47.3084 14.7008h-45.6865c.8809 5.366 11.1939 101.4962 112.251 101.4962 82.5404 0 105.726-61.3683 112.269-101.4962z" fill="#eaf5fb"/><path d="m348.3608 248.3584 14.9761-89.8892c1.0882-6.5255 10.95-4.88 9.8643 1.6436l-14.9761 89.8892z" fill="#b2c8ce"/><path d="m368.26 247.4658h-45.7225c-16.8937 0-33.129-5.5168-47.3083-14.7008-6.1972-4.0139-22.2286-10.5353-38.4943 0-14.1793 9.184-30.4146 14.7008-47.3084 14.7008h-45.6865c.8809 5.366 11.1939 101.4962 112.251 101.4962 82.5404 0 105.726-61.3683 112.269-101.4962z" fill="url(#radial-gradient-4)"/><circle cx="207.651" cy="195.812" fill="#3d3c3b" r="15.664" transform="matrix(.707 -.707 .707 .707 -77.641 204.183)"/><circle cx="304.356" cy="195.812" fill="#3d3c3b" r="15.664" transform="matrix(.707 -.707 .707 .707 -49.316 272.564)"/><circle cx="207.651" cy="195.812" fill="url(#radial-gradient-5)" r="15.664" transform="matrix(.707 -.707 .707 .707 -77.641 204.183)"/><circle cx="304.356" cy="195.812" fill="url(#radial-gradient-6)" r="15.664" transform="matrix(.707 -.707 .707 .707 -49.316 272.564)"/><path d="m127.709 455.7959v-51.4c0-6.611 10-6.62 10 0v51.4c0 6.611-10 6.6195-10 0z" fill="url(#linear-gradient-10)"/></g></svg>