<svg clip-rule="evenodd" fill-rule="evenodd" height="1.707in" image-rendering="optimizeQuality" shape-rendering="geometricPrecision" text-rendering="geometricPrecision" viewBox="0 0 1707 1707" width="1.707in" xmlns="http://www.w3.org/2000/svg" xmlns:xlink="http://www.w3.org/1999/xlink"><linearGradient id="id0" gradientUnits="userSpaceOnUse" x1="246.043" x2="1460.62" y1="1431.24" y2="1431.24"><stop offset="0" stop-color="#0489c4"/><stop offset=".45098" stop-color="#1da2dd"/><stop offset="1" stop-color="#36bbf6"/></linearGradient><linearGradient id="id1" gradientUnits="userSpaceOnUse" x1="750.48" x2="940.209" y1="1085.97" y2="1085.97"><stop offset="0" stop-color="#e6866a"/><stop offset="1" stop-color="#ffb89c"/></linearGradient><linearGradient id="id2" gradientUnits="userSpaceOnUse" x1="965.343" x2="999.232" y1="629.445" y2="629.445"><stop offset="0" stop-color="#391414"/><stop offset="1" stop-color="#6b4646"/></linearGradient><linearGradient id="id3" gradientUnits="userSpaceOnUse" x1="691.594" x2="725.484" xlink:href="#id2" y1="629.445" y2="629.445"/><linearGradient id="id4" gradientUnits="userSpaceOnUse" x1="616.602" x2="805.571" y1="537.555" y2="537.555"><stop offset="0" stop-color="#632c2c"/><stop offset=".4" stop-color="#7c4545"/><stop offset="1" stop-color="#955e5e"/></linearGradient><linearGradient id="id5" gradientUnits="userSpaceOnUse" x1="426.457" x2="494.516" y1="1613.61" y2="1613.61"><stop offset="0" stop-color="#005da3"/><stop offset="1" stop-color="#2e8fd5"/></linearGradient><linearGradient id="id6" gradientUnits="userSpaceOnUse" x1="1212.29" x2="1280.35" xlink:href="#id5" y1="1613.61" y2="1613.61"/><linearGradient id="id7" gradientUnits="userSpaceOnUse" x1="454.602" x2="1237.69" y1="291.531" y2="291.531"><stop offset="0" stop-color="#632c2c"/><stop offset=".431373" stop-color="#7c4545"/><stop offset="1" stop-color="#955e5e"/></linearGradient><linearGradient id="id8" gradientUnits="userSpaceOnUse" x1="513.878" x2="1178.11" y1="669.201" y2="669.201"><stop offset="0" stop-color="#e69879"/><stop offset=".458824" stop-color="#f2b192"/><stop offset="1" stop-color="#ffcaab"/></linearGradient><linearGradient id="id9" gradientUnits="userSpaceOnUse" x1="1141.87" x2="1263.81" xlink:href="#id1" y1="651.669" y2="651.669"/><linearGradient id="id10" gradientUnits="userSpaceOnUse" x1="885.492" x2="1074.46" y1="537.555" y2="537.555"><stop offset="0" stop-color="#632c2c"/><stop offset=".411765" stop-color="#7c4545"/><stop offset="1" stop-color="#955e5e"/></linearGradient><linearGradient id="id11" gradientUnits="userSpaceOnUse" x1="427.012" x2="565.902" xlink:href="#id1" y1="651.677" y2="651.677"/><linearGradient id="id12" gradientUnits="userSpaceOnUse" x1="750.953" x2="939.921" y1="822.323" y2="822.323"><stop offset="0" stop-color="#c73932"/><stop offset="1" stop-color="#f96b64"/></linearGradient><linearGradient id="id13" gradientUnits="userSpaceOnUse" x1="828.398" x2="862.287" xlink:href="#id5" y1="1293.54" y2="1293.54"/><g id="Layer_x0020_1"><g id="_468686472"><g><path d="m853 1156h-99-167c-187 0-341 153-341 341v210h607 608v-210c0-188-154-341-342-341h-166z" fill="url(#id0)"/><path d="m828 1218c0-10 8-17 17-17 10 0 17 7 17 17v152c0 9-7 17-17 17-9 0-17-8-17-17z" fill="url(#id13)"/><path d="m751 947h189v184c0 52-42 94-95 94-52 0-95-42-95-94v-184z" fill="url(#id1)"/><path d="m1142 727 4-151h42c42 0 76 34 76 76s-34 76-76 76c-4 0-42-1-46-1z" fill="url(#id9)"/><path d="m561 576 5 151c-4 0-59 1-63 1-42 0-76-34-76-76s34-76 76-76z" fill="url(#id11)"/><path d="m515 727c12 136 108 249 236 287 30 9 62 14 95 14s64-5 94-14c128-38 224-151 236-287 1-10 2-20 2-30v-115s13-157-92-174c-39-6-51-12-86-7-42 7-117 6-205-46-185-110-266-12-281 228v114c0 10 0 20 1 30z" fill="url(#id8)"/><path d="m514 583s-167-302 59-436c0 0 103-251 488-97 0 0-61 42-63 66-1 23 385 31 179 466 0 0 13-140-91-157-39-6-52 5-86 10-42 7-117 6-206-46-185-110-265-46-280 194z" fill="url(#id7)"/><path d="m916 567c-6 8-16 9-24 4-7-6-9-16-3-24 10-14 24-26 40-34 15-8 33-12 51-12s36 4 51 12c16 8 30 20 40 34 6 8 4 19-4 24-7 6-18 4-23-4-7-10-17-18-28-24-11-5-23-8-36-8s-25 3-36 8c-11 6-21 14-28 24z" fill="url(#id10)"/><path d="m647 567c-5 8-16 9-23 4-8-6-10-16-4-24 10-14 24-26 40-34 15-8 33-12 51-12s36 4 51 12c16 8 30 20 40 34 6 8 4 19-3 24-8 6-19 4-24-4-7-10-17-18-28-24-11-5-23-8-36-8s-25 3-36 8c-11 6-20 14-28 24z" fill="url(#id4)"/><path d="m692 610c0-9 7-17 17-17 9 0 16 8 16 17v38c0 10-7 17-16 17-10 0-17-7-17-17z" fill="url(#id3)"/><path d="m965 610c0-9 8-17 17-17 10 0 17 8 17 17v38c0 10-7 17-17 17-9 0-17-7-17-17z" fill="url(#id2)"/><path d="m754 813c-5-8-4-19 4-24 7-6 18-4 24 4 7 10 17 18 28 24 10 5 23 8 35 8 13 0 25-3 36-8 11-6 21-14 28-24 6-8 16-10 24-4 7 5 9 16 4 24-11 14-25 26-40 34-16 8-33 12-52 12-18 0-35-4-51-12-15-8-29-20-40-34z" fill="url(#id12)"/><g><path d="m426 1707h69v-152c0-19-16-34-35-34-18 0-34 15-34 34z" fill="url(#id5)"/><path d="m1212 1707h68v-152c0-19-15-34-34-34-18 0-34 15-34 34z" fill="url(#id6)"/></g></g></g></g></svg>