<svg clip-rule="evenodd" fill-rule="evenodd" height="1.707in" image-rendering="optimizeQuality" shape-rendering="geometricPrecision" text-rendering="geometricPrecision" viewBox="0 0 1707 1707" width="1.707in" xmlns="http://www.w3.org/2000/svg" xmlns:xlink="http://www.w3.org/1999/xlink"><linearGradient id="id0" gradientUnits="userSpaceOnUse" x1="306.638" x2="970.819" y1="669.201" y2="669.201"><stop offset="0" stop-color="#e69879"/><stop offset=".45098" stop-color="#f2b192"/><stop offset="1" stop-color="#ffcaab"/></linearGradient><linearGradient id="id1" gradientUnits="userSpaceOnUse" x1="247.445" x2="1030.54" y1="291.531" y2="291.531"><stop offset="0" stop-color="#632c2c"/><stop offset=".431373" stop-color="#7c4545"/><stop offset="1" stop-color="#955e5e"/></linearGradient><linearGradient id="id2" gradientUnits="userSpaceOnUse" x1="758.193" x2="792.083" y1="629.445" y2="629.445"><stop offset="0" stop-color="#391414"/><stop offset="1" stop-color="#6b4646"/></linearGradient><linearGradient id="id3" gradientUnits="userSpaceOnUse" x1="807.496" x2="1667.77" y1="1276.53" y2="1276.53"><stop offset="0" stop-color="#031561"/><stop offset=".478431" stop-color="#1c2e7a"/><stop offset="1" stop-color="#354793"/></linearGradient><linearGradient id="id4" gradientUnits="userSpaceOnUse" x1="543.331" x2="733.055" y1="1085.97" y2="1085.97"><stop offset="0" stop-color="#e6866a"/><stop offset="1" stop-color="#ffb89c"/></linearGradient><linearGradient id="id5" gradientUnits="userSpaceOnUse" x1="219.862" x2="358.748" xlink:href="#id4" y1="651.677" y2="651.677"/><linearGradient id="id6" gradientUnits="userSpaceOnUse" x1="184.858" x2="252.917" y1="1613.61" y2="1613.61"><stop offset="0" stop-color="#005da3"/><stop offset="1" stop-color="#2e8fd5"/></linearGradient><linearGradient id="id7" gradientUnits="userSpaceOnUse" x1="621.248" x2="655.138" xlink:href="#id6" y1="1293.54" y2="1293.54"/><linearGradient id="id8" gradientUnits="userSpaceOnUse" x1="38.89" x2="1243.88" y1="1431.24" y2="1431.24"><stop offset="0" stop-color="#0489c4"/><stop offset=".431373" stop-color="#1da2dd"/><stop offset="1" stop-color="#36bbf6"/></linearGradient><linearGradient id="id9" gradientUnits="userSpaceOnUse" x1="934.72" x2="1056.67" xlink:href="#id4" y1="651.669" y2="651.669"/><linearGradient id="id10" gradientUnits="userSpaceOnUse" x1="409.453" x2="598.421" y1="537.555" y2="537.555"><stop offset="0" stop-color="#632c2c"/><stop offset=".4" stop-color="#7c4545"/><stop offset="1" stop-color="#955e5e"/></linearGradient><linearGradient id="id11" gradientUnits="userSpaceOnUse" x1="543.799" x2="732.764" y1="822.323" y2="822.323"><stop offset="0" stop-color="#c73932"/><stop offset=".490196" stop-color="#e0524b"/><stop offset="1" stop-color="#f96b64"/></linearGradient><linearGradient id="id12" gradientUnits="userSpaceOnUse" x1="678.201" x2="867.169" y1="537.555" y2="537.555"><stop offset="0" stop-color="#632c2c"/><stop offset=".411765" stop-color="#7c4545"/><stop offset="1" stop-color="#955e5e"/></linearGradient><linearGradient id="id13" gradientUnits="userSpaceOnUse" x1="484.445" x2="518.331" xlink:href="#id2" y1="629.445" y2="629.445"/><linearGradient id="id14" gradientUnits="userSpaceOnUse" x1="1049.57" x2="1410.69" y1="1268.33" y2="1268.33"><stop offset="0" stop-color="#e6e6e6"/><stop offset="1" stop-color="#fff"/></linearGradient><g id="Layer_x0020_1"><g id="_490767864"><g><g><path d="m730 1156h-183-167c-187 0-341 153-341 341v210h1205l-419-551z" fill="url(#id8)"/><path d="m621 1218c0-10 8-17 17-17 10 0 17 7 17 17v152c0 9-7 17-17 17-9 0-17-8-17-17z" fill="url(#id7)"/><path d="m185 1707h68v-152c0-19-15-34-34-34s-34 15-34 34z" fill="url(#id6)"/><path d="m543 947h190v184c0 52-43 94-95 94-52 0-95-42-95-94z" fill="url(#id4)"/><path d="m935 727 4-151h42c42 0 76 34 76 76s-34 76-76 76c-4 0-42-1-46-1z" fill="url(#id9)"/><path d="m354 576 5 151c-4 0-59 1-63 1-42 0-76-34-76-76s34-76 76-76z" fill="url(#id5)"/><path d="m308 727c12 136 108 249 235 287 30 9 62 14 95 14s65-5 95-14c128-38 224-151 236-287 1-10 1-20 1-30v-115s13-157-91-174c-39-6-52-12-86-7-42 7-117 6-206-46-185-110-265-12-280 228v114c0 10 0 20 1 30z" fill="url(#id0)"/><path d="m307 583s-167-302 59-436c0 0 103-251 488-97 0 0-62 42-63 66-1 23 385 31 179 466 0 0 13-140-92-157-39-6-51 5-86 10-42 7-116 6-205-46-185-110-265-46-280 194z" fill="url(#id1)"/><circle cx="1238" cy="1277" fill="url(#id3)" r="430"/><path d="m709 567c-6 8-16 9-24 4-7-6-9-16-4-24 11-14 25-26 41-34 15-8 32-12 51-12 18 0 35 4 51 12s29 20 40 34c5 8 4 19-4 24-7 6-18 4-23-4-8-10-17-18-29-24-10-5-22-8-35-8s-25 3-36 8c-11 6-21 14-28 24z" fill="url(#id12)"/><path d="m440 567c-6 8-16 9-24 4-7-6-9-16-3-24 10-14 24-26 40-34 15-8 33-12 51-12s36 4 51 12c16 8 30 20 40 34 6 8 4 19-4 24-7 6-18 4-23-4-7-10-17-18-28-24-11-5-23-8-36-8s-25 3-36 8c-11 6-21 14-28 24z" fill="url(#id10)"/><path d="m484 610c0-9 8-17 17-17 10 0 17 8 17 17v38c0 10-7 17-17 17-9 0-17-7-17-17z" fill="url(#id13)"/><path d="m758 610c0-9 8-17 17-17 10 0 17 8 17 17v38c0 10-8 17-17 17s-17-7-17-17z" fill="url(#id2)"/><path d="m547 813c-5-8-4-19 4-24 7-6 18-4 23 4 8 10 17 18 29 24 10 5 22 8 35 8s25-3 36-8c11-6 21-14 28-24 6-8 16-10 24-4 7 5 9 16 4 24-11 14-25 26-41 34-15 8-32 12-51 12-18 0-35-4-51-12s-29-20-40-34z" fill="url(#id11)"/></g><path d="m1197 1507c0-18 15-33 33-33 19 0 33 15 33 33v31c0 19-14 34-33 34-18 0-33-15-33-34zm33-248c32 0 60-12 81-33 20-20 33-49 33-80 0-32-13-60-33-81-21-21-49-33-81-33-31 0-60 12-80 33-21 21-34 49-34 81 0 18-15 33-33 33-19 0-33-15-33-33 0-50 20-95 52-128 33-33 78-53 128-53s95 20 128 53c32 33 53 78 53 128 0 49-21 95-53 127-26 25-58 43-95 50v82c0 18-14 33-33 33-18 0-33-15-33-33v-112c0-19 15-34 33-34z" fill="url(#id14)"/></g></g></g></svg>