<svg id="Capa_1" enable-background="new 0 0 502 502" height="512" viewBox="0 0 502 502" width="512" xmlns="http://www.w3.org/2000/svg" xmlns:xlink="http://www.w3.org/1999/xlink"><linearGradient id="lg1"><stop offset="0" stop-color="#ccd3d3"/><stop offset="1" stop-color="#ebebeb"/></linearGradient><linearGradient id="SVGID_1_" gradientUnits="userSpaceOnUse" x1="1.245" x2="184.403" xlink:href="#lg1" y1="113.09" y2="113.09"/><linearGradient id="SVGID_2_" gradientUnits="userSpaceOnUse" x1="317.597" x2="500.755" xlink:href="#lg1" y1="113.09" y2="113.09"/><linearGradient id="lg2"><stop offset="0" stop-color="#d6997f"/><stop offset=".9995" stop-color="#c3816a"/></linearGradient><linearGradient id="SVGID_3_" gradientUnits="userSpaceOnUse" x1="118.125" x2="118.125" xlink:href="#lg2" y1="502" y2="329.145"/><linearGradient id="SVGID_4_" gradientUnits="userSpaceOnUse" x1="381.079" x2="381.079" xlink:href="#lg2" y1="502" y2="329.465"/><linearGradient id="SVGID_5_" gradientUnits="userSpaceOnUse" x1="159.813" x2="342.193" y1="404.373" y2="404.373"><stop offset="0" stop-color="#02c09e"/><stop offset=".9794" stop-color="#77e2d1"/></linearGradient><linearGradient id="lg3"><stop offset="0" stop-color="#f7b695"/><stop offset="1" stop-color="#f7cbb5"/></linearGradient><linearGradient id="SVGID_6_" gradientUnits="userSpaceOnUse" x1="251.164" x2="251.164" xlink:href="#lg3" y1="445.103" y2="378.604"/><linearGradient id="lg4"><stop offset="0" stop-color="#f7cbb5"/><stop offset="1" stop-color="#f7b695"/></linearGradient><linearGradient id="SVGID_7_" gradientUnits="userSpaceOnUse" x1="443.048" x2="443.048" xlink:href="#lg4" y1="256.876" y2="160.41"/><linearGradient id="SVGID_8_" gradientUnits="userSpaceOnUse" x1="58.35" x2="58.35" xlink:href="#lg4" y1="256.876" y2="160.41"/><linearGradient id="SVGID_9_" gradientUnits="userSpaceOnUse" x1="250.699" x2="250.699" xlink:href="#lg3" y1="390.154" y2="3.699"/><linearGradient id="SVGID_10_" gradientUnits="userSpaceOnUse" x1="251" x2="251" y1="282.178" y2="198.149"><stop offset="0" stop-color="#746f80"/><stop offset=".9777" stop-color="#bfbdc3"/></linearGradient><g><path d="m184.403 15.434c-16.527-16.092-42.609-20.786-64.538-8.386l-.008.005-.009-.005c-30.663-17.341-69.46-1.266-78.875 32.679-33.946 9.416-50.02 48.213-32.679 78.876l.005.008-.005.009c-17.341 30.663-1.266 69.46 32.679 78.875 3.342 12.051 10.398 21.834 19.468 28.685z" fill="url(#SVGID_1_)"/><path d="m317.597 15.434c16.527-16.092 42.609-20.786 64.538-8.386l.008.005.009-.005c30.663-17.341 69.46-1.266 78.875 32.679 33.946 9.415 50.02 48.212 32.679 78.875l-.005.008.005.009c17.341 30.663 1.266 69.46-32.679 78.875-3.342 12.051-10.398 21.834-19.468 28.685z" fill="url(#SVGID_2_)"/><path d="m78.856 109.556c5.025-9.963-2.294-21.72-13.454-21.72-5.691 0-10.887 3.218-13.448 8.3-15.43 30.613-23.601 64.631-23.601 99.907v1.767c0 14.376 1.367 28.54 4.017 42.354h30.672c-3.063-13.628-4.689-27.8-4.689-42.354v-1.767c.001-31.107 7.39-60.488 20.503-86.487z" fill="#cfcdd4"/><path d="m159.812 329.145 20.992 86.428-20.992 86.427h-104.368c0-75.026 42.313-140.164 104.368-172.855z" fill="url(#SVGID_3_)"/><path d="m445.953 502h-103.76l-25.988-86.268 25.988-86.268c61.725 32.799 103.76 97.756 103.76 172.536z" fill="url(#SVGID_4_)"/><path d="m342.193 329.465v172.535h-182.38v-172.855c27.145-14.303 58.077-22.399 90.886-22.399 33.054 0 64.199 8.213 91.494 22.719z" fill="url(#SVGID_5_)"/><path d="m186.124 379.033 41.88 54.713c11.591 15.143 34.401 15.143 45.992 0l42.208-55.141z" fill="url(#SVGID_6_)"/><path d="m107.628 442.618c-4.661 0-8.44 3.779-8.44 8.44v50.942h16.88v-50.942c0-4.662-3.778-8.44-8.44-8.44z" fill="#ba7c63"/><path d="m394.372 442.618c4.661 0 8.44 3.779 8.44 8.44v50.942h-16.88v-50.942c0-4.662 3.778-8.44 8.44-8.44z" fill="#ba7c63"/><circle cx="443.048" cy="208.643" fill="url(#SVGID_7_)" r="48.233"/><circle cx="58.35" cy="208.643" fill="url(#SVGID_8_)" r="48.233"/><path d="m58.354 196.043c0-106.327 86.281-192.507 192.646-192.344 106.062.163 192.518 87.167 192.041 193.228.477 106.061-85.979 193.065-192.041 193.227-106.365.163-192.646-86.017-192.646-192.344z" fill="url(#SVGID_9_)"/><g><ellipse cx="139.258" cy="233.276" fill="#ff748f" rx="18.94" ry="15.22"/><ellipse cx="362.139" cy="233.276" fill="#ff748f" rx="18.94" ry="15.22"/><circle cx="171.728" cy="195.72" fill="#fff" r="37.556"/><circle cx="329.669" cy="195.72" fill="#fff" r="37.556"/><g fill="#383842"><path d="m184.132 206.935c-2.647.001-5.214-1.404-6.579-3.888-1.709-3.108-4.643-3.444-5.824-3.444s-4.115.336-5.824 3.444c-1.995 3.629-6.555 4.954-10.186 2.959-3.63-1.996-4.954-6.556-2.959-10.186 3.862-7.024 10.953-11.218 18.969-11.218s15.106 4.193 18.969 11.218c1.995 3.63.671 8.189-2.959 10.186-1.146.63-2.385.929-3.607.929z"/><path d="m342.072 206.935c-2.647.001-5.214-1.404-6.579-3.888-1.709-3.108-4.643-3.444-5.824-3.444s-4.115.336-5.824 3.444c-1.995 3.629-6.555 4.954-10.186 2.959-3.63-1.996-4.954-6.556-2.959-10.186 3.862-7.024 10.953-11.218 18.969-11.218s15.106 4.193 18.969 11.218c1.995 3.63.671 8.189-2.959 10.186-1.146.63-2.385.929-3.607.929z"/></g></g><g><path d="m303.384 110.314h-105.371c-4.418 0-8-3.582-8-8s3.582-8 8-8h105.372c4.419 0 8 3.582 8 8s-3.582 8-8.001 8z" fill="#edae7c"/></g><g><path d="m287.385 70.446h-73.373c-4.418 0-8-3.582-8-8s3.582-8 8-8h73.373c4.419 0 8 3.582 8 8s-3.581 8-8 8z" fill="#edae7c"/></g><path d="m313.895 216.126c-14.113-14.113-33.382-19.911-51.741-17.412-7.401 1.007-14.905 1.007-22.307 0-18.359-2.499-37.629 3.3-51.741 17.412-13.053 13.053-18.994 30.518-17.835 47.593.667 9.828 8.488 17.649 18.316 18.316 17.075 1.159 34.54-4.782 47.593-17.835 6.966-6.966 11.903-15.189 14.82-23.939 2.917 8.749 7.854 16.973 14.82 23.939 13.053 13.053 30.518 18.994 47.593 17.835 9.828-.667 17.649-8.488 18.316-18.316 1.159-17.075-4.781-34.54-17.834-47.593z" fill="url(#SVGID_10_)"/></g></svg>