<svg fill="none" height="483" viewBox="0 0 483 483" width="483" xmlns="http://www.w3.org/2000/svg" xmlns:xlink="http://www.w3.org/1999/xlink"><linearGradient id="paint0_linear_534_1606" gradientUnits="userSpaceOnUse" x1="241.867" x2="241.867" y1=".764" y2="482.764"><stop offset="0" stop-color="#0e4f5e"/><stop offset=".445" stop-color="#0b0b0d"/><stop offset=".91" stop-color="#470e0e"/></linearGradient><linearGradient id="paint1_linear_534_1606" gradientUnits="userSpaceOnUse" x1="114.406" x2="459.509" y1="170.899" y2="-161.553"><stop offset="0" stop-color="#7c00ff"/><stop offset=".52" stop-color="#ff6700"/><stop offset="1" stop-color="#ffd400"/></linearGradient><clipPath id="clip0_534_1606"><rect height="482" rx="241" width="482" x=".867" y=".764"/></clipPath><g clip-path="url(#clip0_534_1606)"><rect fill="url(#paint0_linear_534_1606)" height="482" rx="241" width="482" x=".867" y=".764"/><path d="m290.348 273.015v19.28c0 25.706 36.953 36.953 36.953 36.953s-42.576 32.133-86.76 32.133c-44.183 0-86.76-32.133-86.76-32.133s37.244-11.247 36.954-36.953c-.291-25.707-.097-40.81-.291-84.852-23.027-29.847-21.549-49.879-8.957-63.966 42.184-47.1956 157.061-31.129 157.061-31.129s10.72 115.669-13.657 149.42c-10.443 14.46-34.543 11.247-34.543 11.247z" fill="#ff947e"/><g fill="url(#paint1_linear_534_1606)"><path d="m358.466 89.9269c-16.189 39.1091-119.213 45.8881-139.441 42.0651-59.088 18.229-47.029 45.964-27.735 76.111-7.846-.426-16.307 7.489-32.108-71.069-12.641-62.8473 61.136-85.7489 113.235-88.4085 52.098-2.6597 74.38-16.0601 74.38-16.0601 19.462 12.6611 21.277 34.1512 11.669 57.3615z"/><path d="m339.115 160.533-5.834-57.585 12.008-7.3937c3.821 39.9227.168 61.9947-6.174 64.9787z"/><path d="m181.661 152.633-.027-.001-6.164-44.117 43.054-.84c.814-.1 1.667-.118 2.563-.05l-2.563.05c-19.641 2.411-15.83 52.275-4.183 74.775l-11.611-.081c-.468-28.81-11.294-29.297-21.069-29.736z"/><path d="m166.416 67.0187c9.886-2.8389 20.049 1.8072 23.895 4.4852l-14.882 12.9144c4.034-4.3706-4.328-13.4208-9.013-17.3996z"/><path d="m147.812 81.6096c13.15-4.7016 24.17-.1875 28.036 2.6573l-7.583 14.9497c.396-8.8035-13.47-15.4062-20.453-17.607z"/></g><path d="m290.358 273.014c-35.346-4.016-56.233-19.28-56.233-19.28 13.187 19.509 33.283 33.29 56.233 38.56z" fill="#230c0d" mix-blend-mode="multiply"/><path d="m419.944 382.24c16.156 32.473 25.455 107.365 25.455 107.365h-407.2896s9.3032-74.9 25.4556-107.365c16.1524-32.464 110.477-62.575 110.477-62.575 52.122 20.119 84.018 20.119 135.375-.012 0 0 94.371 30.115 110.527 62.587z" fill="#6486ef"/><path d="m419.944 382.241c16.156 32.473 25.455 107.365 25.455 107.365h-407.2896s9.3032-74.901 25.4556-107.365c16.1524-32.465 96.249-57.412 96.249-57.412 25.452 9.825 44.585 164.777 75.915 164.777 65.07 0 66.506-154.476 92.785-164.777 0 0 75.274 24.939 91.43 57.412z" fill="#3c3277"/><path d="m253.65 331.399 8.485 154.337h-40.729l8.485-154.337s7.921-8.388 11.88-8.388 11.879 8.388 11.879 8.388z" fill="#3c3277"/><path d="m255.592 362.756-26.686-15.243.995-16.114c5.28-5.592 9.24-8.388 11.879-8.388s6.599 2.796 11.879 8.388l1.935 31.357z" fill="#211a48"/><path d="m241.766 322.997-16.97 30.21-52.608-31.874 15.273-21.809 54.305 19.831 54.306-19.831 15.273 21.809-52.608 31.874z" fill="#fae3dc"/></g></svg>