<svg clip-rule="evenodd" fill-rule="evenodd" height="512" image-rendering="optimizeQuality" shape-rendering="geometricPrecision" text-rendering="geometricPrecision" viewBox="0 0 512 512" width="512" xmlns="http://www.w3.org/2000/svg" xmlns:xlink="http://www.w3.org/1999/xlink"><linearGradient id="id0" gradientUnits="userSpaceOnUse" x1="59.653" x2="452.347" y1="396.887" y2="396.887"><stop offset="0" stop-color="#6b2003"/><stop offset="1" stop-color="#bb7053"/></linearGradient><linearGradient id="id1" gradientUnits="userSpaceOnUse" x1="130.783" x2="375.856" y1="76.39" y2="76.39"><stop offset="0" stop-color="#24201e"/><stop offset="1" stop-color="#74706e"/></linearGradient><linearGradient id="id2" gradientUnits="userSpaceOnUse" x1="191.19" x2="322.058" y1="302.967" y2="302.967"><stop offset="0" stop-color="#c3a273"/><stop offset="1" stop-color="#fff2c3"/></linearGradient><linearGradient id="id3" gradientUnits="userSpaceOnUse" x1="154.232" x2="357.761" y1="140.364" y2="140.364"><stop offset="0" stop-color="#d4bb93"/><stop offset="1" stop-color="#ffffe3"/></linearGradient><g id="Layer_x0020_1"><g id="_308327152"><path id="_308327824" d="m445.849 511.871h-379.7c-3.5882 0-6.49608-2.90788-6.49608-6.50081l.00118111-108.486c0-63.4006 51.5801-114.979 114.979-114.979h139.673 3.38269 19.676c63.4041 0 114.982 51.5789 114.982 114.979v108.488c-.00236221 3.59056-2.91143 6.49845-6.49845 6.49845z" fill="url(#id0)"/><path id="_308327680" d="m255.999 377.959c-35.7344 0-64.8085-29.0753-64.8085-64.8085l1.25079-78.6747c0-3.5882 2.90906-6.49608 6.50081-6.49608 2.863 0 79.6172 1.84961 110.458 4.42442.862207-2.57481 3.29529-4.42915 6.16183-4.42915 3.58229 0 6.49608 2.90788 6.49608 6.49608l-1.25079 78.6782c-.00472442 35.7391-29.0753 64.8096-64.8085 64.8096z" fill="url(#id2)"/><path id="_308327488" d="m154.232 132.402v37.5001c0 56.112 45.6533 101.762 101.766 101.762 56.1108 0 101.762-45.6497 101.762-101.762v-39.7336c0-7.87916-11.5252-8.85829-12.8918-1.14213h-3.76182c-22.8579-119.964-172.903-86.1286-186.875 3.3756z" fill="url(#id3)"/><path id="_308327464" d="m160.733 152.65c-.380316 0-.759451-.033071-1.13741-.100394-2.4756-.43819-4.47521-2.26654-5.13427-4.69608-.969688-3.58229-23.6788-88.3361-11.0906-142.179.465356-2.00434 1.8626-3.67088 3.74883-4.4882 1.89213-.817325 4.05828-.687404 5.83821.347245.220867.128741 22.7115 13.05 39.8659 13.05 2.74135 0 5.15907-.347245 7.19175-1.02048 15.0508-5.01734 45.0911-13.4327 77.2077-13.4327 41.2171 0 70.6585 14.341 85.1412 41.4698 13.4918 25.2792.937798 86.1676-4.91104 104.309-.754727 2.33623-2.75906 4.05001-5.18269 4.42442-2.43308.379135-4.85907-.646065-6.28821-2.64095l-31.2792-43.7919c-15.4075 7.06301-39.6745 13.4882-64.1695 13.4882-22.2001 0-39.4702-5.37521-50.582-15.6331l-33.9107 48.1372c-1.22953 1.74567-3.22206 2.7567-5.30789 2.7567z" fill="url(#id1)"/></g></g></svg>