<svg id="Layer_6" height="512" viewBox="0 0 64 64" width="512" xmlns="http://www.w3.org/2000/svg" xmlns:xlink="http://www.w3.org/1999/xlink" data-name="Layer 6"><linearGradient id="linear-gradient" gradientUnits="userSpaceOnUse" x1="14.99" x2="49.01" y1="13.97" y2="47.99"><stop offset="0" stop-color="#999"/><stop offset=".03" stop-color="#898989"/><stop offset=".1" stop-color="#6e6e6e"/><stop offset=".18" stop-color="#585858"/><stop offset=".28" stop-color="#474747"/><stop offset=".39" stop-color="#3c3c3c"/><stop offset=".55" stop-color="#353535"/><stop offset="1" stop-color="#333"/></linearGradient><linearGradient id="linear-gradient-2" gradientUnits="userSpaceOnUse" x1="23.61" x2="40.39" y1="19.39" y2="36.17"><stop offset="0" stop-color="#fddac5"/><stop offset="1" stop-color="#fbbc95"/></linearGradient><path d="m32 4a17 17 0 0 0 -17 17v27h34v-27a17 17 0 0 0 -17-17z" fill="url(#linear-gradient)"/><path d="m49 47.39a8.66 8.66 0 0 0 -4.72-1.39 8.76 8.76 0 0 1 -5.1-1.64 3.93 3.93 0 0 1 -.32-.25 8.74 8.74 0 0 1 -2.86-4.11v-2h-8v2a8.72 8.72 0 0 1 -8.27 6 8.66 8.66 0 0 0 -4.73 1.39 8.11 8.11 0 0 0 -1.45 1.16 8.73 8.73 0 0 0 -2.55 6.17v5.28h42v-5.28a8.69 8.69 0 0 0 -4-7.33z" fill="#f4bd8c"/><path d="m32 40a11 11 0 0 1 -11-11v-7h5a6 6 0 0 0 6-6 6 6 0 0 0 6 6h5v7a11 11 0 0 1 -11 11z" fill="url(#linear-gradient-2)"/><path d="m53 54.72v5.28h-42v-5.28a8.73 8.73 0 0 1 2.55-6.17 8.11 8.11 0 0 1 1.45-1.16 8.66 8.66 0 0 1 4.72-1.39 8.68 8.68 0 0 0 5.42-1.89 8 8 0 0 0 13.72 0 3.93 3.93 0 0 0 .32.25 8.76 8.76 0 0 0 5.1 1.64 8.72 8.72 0 0 1 8.72 8.72z" fill="#b83b5e"/></svg>