<svg id="Layer_2" viewBox="0 0 512 512" xmlns="http://www.w3.org/2000/svg" xmlns:xlink="http://www.w3.org/1999/xlink" data-name="Layer 2"><linearGradient id="linear-gradient" gradientUnits="userSpaceOnUse" x1="43.93" x2="468.07" y1="43.93" y2="468.07"><stop offset="0" stop-color="#aa70ff"/><stop offset="1" stop-color="#580cc4"/></linearGradient><g id="Icon"><g id="_13" data-name="13"><rect fill="url(#linear-gradient)" height="512" rx="150" width="512"/><g id="_13-2" data-name="13"><path d="m168.52 334.62h174.96c29.9 0 54.18 24.28 54.18 54.18v47.2c0 6.9-5.6 12.5-12.5 12.5h-258.32c-6.9 0-12.5-5.6-12.5-12.5v-47.2c0-29.9 24.28-54.18 54.18-54.18z" fill="#dbf9fc"/><path d="m344.68 334.61c29.26 0 52.99 23.72 52.99 52.99v35.89h-52.78c-49.09 0-88.88-39.79-88.88-88.88s88.68 0 88.68 0z" fill="#f985a9"/><path d="m167.32 334.61c-29.26 0-52.99 23.72-52.99 52.99v35.89h52.78c49.09 0 88.88-39.79 88.88-88.88s-88.68 0-88.68 0z" fill="#f985a9"/><path d="m256 423.49c-81.43 0-113.73-82.59-113.73-82.59v-163.68c0-31.41 12.73-59.83 33.31-80.41s49-33.31 80.41-33.31 59.83 12.73 80.41 33.31 33.31 49 33.31 80.41v163.68s-32.29 82.59-113.72 82.59z" fill="#ffb1bf"/><path d="m369.73 340.91s-32.29 82.59-113.73 82.59-113.73-82.59-113.73-82.59 227.44 152.42 227.44-163.68v163.68z" fill="#fc97b2"/><rect fill="#ffe9c5" height="196.22" rx="90.66" width="181.32" x="165.34" y="144.3"/><path d="m344.22 213.94c-13.7-10.05-40-21.81-88.21-21.81s-74.53 11.75-88.21 21.81c9.48-39.94 45.38-69.64 88.21-69.64 25.04 0 47.7 10.14 64.11 26.55 11.67 11.66 20.16 26.49 24.11 43.09z" fill="#4b4b4b"/><path d="m319.51 314.55c-16.36 16.06-38.77 25.97-63.51 25.97-50.07 0-90.66-40.59-90.66-90.66 0 0 40.84 96.52 154.17 64.69z" fill="#ffdbb0"/></g></g></g></svg>