<svg id="Flat" height="512" viewBox="0 0 128 128" width="512" xmlns="http://www.w3.org/2000/svg" xmlns:xlink="http://www.w3.org/1999/xlink"><radialGradient id="radial-gradient" cx="26.332" cy="56.5" gradientUnits="userSpaceOnUse" r="81.392"><stop offset="0" stop-color="#866c62"/><stop offset=".0597" stop-color="#7c655c"/><stop offset=".2224" stop-color="#68554f"/><stop offset=".4072" stop-color="#5a4a46"/><stop offset=".6308" stop-color="#524441"/><stop offset="1" stop-color="#4f423f"/></radialGradient><radialGradient id="radial-gradient-2" cx="32.677" cy="7.797" r="79.953" xlink:href="#radial-gradient"/><linearGradient id="linear-gradient" gradientUnits="userSpaceOnUse" x1="64" x2="64" y1="120" y2="88.343"><stop offset="0" stop-color="#e0485a"/><stop offset="1" stop-color="#ec6a7f"/></linearGradient><linearGradient id="linear-gradient-2" gradientUnits="userSpaceOnUse" x1="64" x2="64" y1="102.637" y2="80"><stop offset="0" stop-color="#ffb8a6"/><stop offset=".1712" stop-color="#feb3a2"/><stop offset=".3657" stop-color="#fca695"/><stop offset=".5706" stop-color="#f78f80"/><stop offset=".7737" stop-color="#f27165"/></linearGradient><radialGradient id="radial-gradient-3" cx="30.202" cy="26.313" gradientUnits="userSpaceOnUse" r="80.826"><stop offset="0" stop-color="#ffb8a6"/><stop offset=".4432" stop-color="#ffb6a4"/><stop offset=".6343" stop-color="#ffaf9e"/><stop offset=".7769" stop-color="#fea292"/><stop offset=".8946" stop-color="#fd9182"/><stop offset=".9971" stop-color="#fc7a6e"/><stop offset="1" stop-color="#fc796d"/></radialGradient><linearGradient id="linear-gradient-3" gradientUnits="userSpaceOnUse" x1="46.554" x2="53.283" y1="45.804" y2="51.585"><stop offset="0" stop-color="#505354"/><stop offset="1" stop-color="#353738"/></linearGradient><linearGradient id="linear-gradient-4" x1="71.32" x2="77.838" xlink:href="#linear-gradient-3" y1="45.571" y2="51.778"/><g id="Man_12" data-name="Man 12"><path d="m34.03 59.8627s-3.87 8.82-4.3518 16.9353a1.2515 1.2515 0 0 0 1.704 1.25 26.469 26.469 0 0 1 3.6851-1.19 1.2469 1.2469 0 0 1 1.5146 1.233c-.0254 3.0959.1289 10.3914 1.95 15.3053h50.9357c1.8213-4.9139 1.9756-12.2094 1.95-15.3053a1.2469 1.2469 0 0 1 1.5146-1.233 26.469 26.469 0 0 1 3.6851 1.19 1.2515 1.2515 0 0 0 1.704-1.25c-.4813-8.115-4.3513-16.9353-4.3513-16.9353z" fill="url(#radial-gradient)"/><path d="m88.7776 16.0409a43.8669 43.8669 0 0 0 -24.7776-8.0409 43.8669 43.8669 0 0 0 -24.7776 8.0409 15.9928 15.9928 0 0 0 -6.8524 13.1827v22.0251l30.9855.2476 32.2745-.2476v-22.0251a15.9928 15.9928 0 0 0 -6.8524-13.1827z" fill="url(#radial-gradient-2)"/><path d="m83.6569 88.3426h-39.3138a19.6568 19.6568 0 0 0 -19.6569 19.6574c0 4.3422.8763 6.376 7.8628 7.8628 0-.0005 23.521 4.1372 31.451 4.1372s31.451-4.1377 31.451-4.1377c6.9865-1.4868 7.8628-3.5206 7.8628-7.8628a19.6568 19.6568 0 0 0 -19.6569-19.6569z" fill="url(#linear-gradient)"/><path d="m52.2059 80v10.8427a11.7941 11.7941 0 0 0 23.5882 0v-10.7827z" fill="url(#linear-gradient-2)"/><path d="m64 87.1632c21.6437 0 26.4169-17.3373 27.4142-25.4938h.0473c10.754-.3641 10.5819-16.559-.0408-16.559 0-2.3462-3.7462-15.5674-10.73-15.5109-4.2364.0342-12.4536 2.9346-16.69 2.9346s-12.4538-2.9-16.69-2.9346c-6.9842-.0565-10.73 13.1647-10.73 15.5109-10.6227 0-10.7948 16.1949-.0408 16.559h.0473c.996 8.1565 5.7691 25.4938 27.4128 25.4938z" fill="url(#radial-gradient-3)"/><circle cx="51.75" cy="50.268" fill="url(#linear-gradient-3)" r="3.75"/><circle cx="76.252" cy="50.268" fill="url(#linear-gradient-4)" r="3.75"/></g></svg>