<svg height="512" viewBox="0 0 512 512" width="512" xmlns="http://www.w3.org/2000/svg" xmlns:xlink="http://www.w3.org/1999/xlink"><radialGradient id="radial-gradient" cx="183.674" cy="18.984" gradientUnits="userSpaceOnUse" r="202.094"><stop offset="0" stop-color="#3d3c3b"/><stop offset=".5534" stop-color="#2e2d2c"/><stop offset="1" stop-color="#1e1e1d"/></radialGradient><linearGradient id="linear-gradient" gradientUnits="userSpaceOnUse" x1="256" x2="256" y1="480" y2="353.371"><stop offset="0" stop-color="#778bc4"/><stop offset=".2066" stop-color="#748dce"/><stop offset=".5587" stop-color="#728ed8"/><stop offset="1" stop-color="#718fdb"/></linearGradient><linearGradient id="linear-gradient-2" gradientUnits="userSpaceOnUse" x1="256" x2="256" y1="400.547" y2="321.92"><stop offset="0" stop-color="#ffd5b3"/><stop offset=".7336" stop-color="#e29e86"/></linearGradient><radialGradient id="radial-gradient-2" cx="205.93" cy="151.795" gradientUnits="userSpaceOnUse" r="166.911"><stop offset="0" stop-color="#ffd5b3"/><stop offset=".5522" stop-color="#fed3b2"/><stop offset=".7511" stop-color="#faccad"/><stop offset=".8924" stop-color="#f3c1a4"/><stop offset="1" stop-color="#eab198"/></radialGradient><linearGradient id="linear-gradient-3" gradientTransform="matrix(.707 .707 -.707 .707 199.28 -89.479)" x1="189.769" x2="213.27" xlink:href="#radial-gradient" y1="176.999" y2="201.724"/><linearGradient id="linear-gradient-4" gradientTransform="matrix(.707 .707 -.707 .707 227.604 -157.86)" x1="289.719" x2="307.199" xlink:href="#radial-gradient" y1="175.534" y2="199.751"/><g id="Smooth-Avatar"><g id="avatar_man_people_user_profile" data-name="avatar man people user profile"><path d="m367.2735 89.354v-25.903c0-17.37-15.3565-31.451-34.3-31.451h-116.4306c-39.9836 0-72.8636 27.8818-76.7813 63.5981a58.1772 58.1772 0 0 0 -8.7764 41.5733l4.9671 29.6554h240.0971l4.93-29.1553c3.0467-18.0129-2.5356-35.1961-13.7059-48.3175z" fill="url(#radial-gradient)"/><path d="m334.6275 353.3705h-157.255a78.6272 78.6272 0 0 0 -78.6275 78.6276c0 17.3687 3.5052 25.504 31.451 31.451 0 0 94.0823 16.5509 125.804 16.5509s125.804-16.5509 125.804-16.5509c27.9458-5.947 31.451-14.0823 31.451-31.451a78.6272 78.6272 0 0 0 -78.6275-78.6276z" fill="url(#linear-gradient)"/><path d="m256 400.5471a47.1765 47.1765 0 0 1 -47.1765-47.1765v-31.4506h94.353v31.451a47.1765 47.1765 0 0 1 -47.1765 47.1761z" fill="url(#linear-gradient-2)"/><path d="m364.8434 252.4372a7.93 7.93 0 0 1 6.51-6.5068 31.7307 31.7307 0 0 0 26.1766-30.9442v-23.5883a31.7363 31.7363 0 0 0 -26.3607-30.9763 8.0118 8.0118 0 0 1 -6.4761-6.1779 63.1137 63.1137 0 0 0 -61.5162-49.3361h-94.353a63.1137 63.1137 0 0 0 -61.5162 49.3361 8.0118 8.0118 0 0 1 -6.4761 6.1779 31.7363 31.7363 0 0 0 -26.3607 30.9763v23.5883a31.7307 31.7307 0 0 0 26.1758 30.9438 7.93 7.93 0 0 1 6.51 6.5068c5.5062 34.3591 27.0811 96.2157 108.8434 96.2157s103.337-61.8562 108.8432-96.2153z" fill="url(#radial-gradient-2)"/><circle cx="207.651" cy="195.812" fill="url(#linear-gradient-3)" r="15.664" transform="matrix(.707 -.707 .707 .707 -77.641 204.183)"/><circle cx="304.356" cy="195.812" fill="url(#linear-gradient-4)" r="15.664" transform="matrix(.707 -.707 .707 .707 -49.316 272.564)"/></g></g></svg>