<svg width="350" height="120" viewBox="0 0 350 120" fill="none" xmlns="http://www.w3.org/2000/svg">
<g clip-path="url(#clip0_11_110)">
<path d="M318 18H32C19.8497 18 10 27.8497 10 40V81C10 93.1503 19.8497 103 32 103H318C330.15 103 340 93.1503 340 81V40C340 27.8497 330.15 18 318 18Z" stroke="url(#paint0_linear_11_110)" stroke-width="4"/>
<path d="M108.469 36.4C106.869 36.4 105.589 35.92 104.629 34.96C103.669 34 103.189 32.6933 103.189 31.04C103.189 29.4933 103.669 28.24 104.629 27.28C105.589 26.32 106.869 25.84 108.469 25.84C110.069 25.84 111.322 26.32 112.229 27.28C113.189 28.1867 113.669 29.44 113.669 31.04C113.669 34.6133 111.935 36.4 108.469 36.4ZM119.749 70.32H126.949V80H118.789C116.975 80 115.295 79.76 113.749 79.28C113.055 84.4 111.002 88.4533 107.589 91.44C104.495 94.1067 100.789 95.44 96.4688 95.44C93.1088 95.44 89.8287 94.5867 86.6287 92.88V84.08C89.4021 85.6267 92.1221 86.4 94.7888 86.4C97.7221 86.4 99.9888 85.44 101.589 83.52C103.242 81.6533 104.069 79.04 104.069 75.68V49.76L110.629 46.32L114.069 44.48V44.56L114.149 44.48V64.56C114.149 66.64 114.575 68.1333 115.429 69.04C116.282 69.8933 117.722 70.32 119.749 70.32ZM174.338 70.32H181.058V80H174.258C170.045 80 166.658 79.5467 164.098 78.64C161.591 77.68 159.245 76.0267 157.058 73.68C150.391 77.8933 142.711 80 134.018 80H122.178V70.32H134.098C143.485 70.32 150.951 67.52 156.498 61.92C152.871 55.5733 148.471 52.4 143.298 52.4C139.031 52.4 134.365 54.72 129.298 59.36V50.48C133.778 45.5733 138.845 43.12 144.498 43.12C148.658 43.12 152.711 44.64 156.658 47.68C160.605 50.72 164.098 55.04 167.138 60.64V64.64C166.285 65.76 165.165 67.0133 163.778 68.4C165.911 69.68 169.431 70.32 174.338 70.32ZM152.178 87.28C153.778 87.28 155.031 87.7333 155.938 88.64C156.898 89.6 157.378 90.88 157.378 92.48C157.378 96.0533 155.645 97.84 152.178 97.84C150.578 97.84 149.298 97.36 148.338 96.4C147.378 95.44 146.898 94.1333 146.898 92.48C146.898 90.9333 147.378 89.68 148.338 88.72C149.298 87.76 150.578 87.28 152.178 87.28ZM191.921 36.4C190.321 36.4 189.041 35.92 188.081 34.96C187.121 34 186.641 32.6933 186.641 31.04C186.641 29.4933 187.121 28.24 188.081 27.28C189.041 26.32 190.321 25.84 191.921 25.84C193.521 25.84 194.774 26.32 195.681 27.28C196.641 28.1867 197.121 29.44 197.121 31.04C197.121 34.6133 195.387 36.4 191.921 36.4ZM204.721 70.32H211.921V80H203.761C199.867 80 196.641 78.96 194.081 76.88C191.521 78.96 188.294 80 184.401 80H176.241V70.32H183.441C185.467 70.32 186.907 69.8933 187.761 69.04C188.614 68.1333 189.041 66.64 189.041 64.56V49.76L199.121 44.48V64.56C199.121 66.64 199.547 68.1333 200.401 69.04C201.254 69.8933 202.694 70.32 204.721 70.32ZM219.9 57.92C219.9 53.12 221.393 49.36 224.38 46.64C226.993 44.2933 230.353 43.12 234.46 43.12C239.74 43.12 243.847 45.0667 246.78 48.96C249.287 52.2133 250.54 56.4 250.54 61.52C250.54 67.44 248.967 72.1067 245.82 75.52C242.993 78.5067 239.393 80 235.02 80C230.753 80 227.26 79.0667 224.54 77.2C221.98 79.0667 218.887 80 215.26 80H207.1V70.32H214.3C216.327 70.32 217.767 69.8933 218.62 69.04C219.473 68.1333 219.9 66.64 219.9 64.56V57.92ZM229.98 65.84C229.98 68.8267 231.553 70.32 234.7 70.32C238.647 70.32 240.62 67.28 240.62 61.2C240.62 55.3867 238.567 52.48 234.46 52.48C231.473 52.48 229.98 54.24 229.98 57.76V65.84Z" fill="#AFA0FD"/>
<path d="M104.629 34.96L105.407 34.1822V34.1822L104.629 34.96ZM104.629 27.28L105.407 28.0578L104.629 27.28ZM112.229 27.28L111.429 28.0353L111.451 28.0581L111.473 28.0797L112.229 27.28ZM126.949 70.32H128.049V69.22H126.949V70.32ZM126.949 80V81.1H128.049V80H126.949ZM113.749 79.28L114.075 78.2294L112.833 77.8441L112.659 79.1324L113.749 79.28ZM107.589 91.44L108.307 92.2732L108.313 92.2678L107.589 91.44ZM86.6287 92.88H85.5287V93.54L86.1111 93.8506L86.6287 92.88ZM86.6287 84.08L87.1645 83.1193L85.5287 82.207V84.08H86.6287ZM101.589 83.52L100.765 82.7907L100.754 82.8031L100.744 82.8158L101.589 83.52ZM104.069 49.76L103.558 48.7858L102.969 49.0948V49.76H104.069ZM110.629 46.32L111.14 47.2942L111.148 47.29L110.629 46.32ZM114.069 44.48H115.169V42.6442L113.55 43.51L114.069 44.48ZM114.069 44.56H112.969V47.2156L114.847 45.3378L114.069 44.56ZM114.149 44.48H115.249V41.8244L113.371 43.7022L114.149 44.48ZM115.429 69.04L114.628 69.7939L114.639 69.806L114.651 69.8178L115.429 69.04ZM108.469 36.4V35.3C107.104 35.3 106.124 34.8994 105.407 34.1822L104.629 34.96L103.851 35.7378C105.054 36.9406 106.633 37.5 108.469 37.5V36.4ZM104.629 34.96L105.407 34.1822C104.696 33.4719 104.289 32.4693 104.289 31.04H103.189H102.089C102.089 32.9174 102.641 34.5281 103.851 35.7378L104.629 34.96ZM103.189 31.04H104.289C104.289 29.7409 104.682 28.7823 105.407 28.0578L104.629 27.28L103.851 26.5022C102.655 27.6977 102.089 29.2458 102.089 31.04H103.189ZM104.629 27.28L105.407 28.0578C106.124 27.3406 107.104 26.94 108.469 26.94V25.84V24.74C106.633 24.74 105.054 25.2994 103.851 26.5022L104.629 27.28ZM108.469 25.84V26.94C109.835 26.94 110.773 27.3409 111.429 28.0353L112.229 27.28L113.028 26.5247C111.871 25.2991 110.302 24.74 108.469 24.74V25.84ZM112.229 27.28L111.473 28.0797C112.168 28.7355 112.569 29.6737 112.569 31.04H113.669H114.769C114.769 29.2063 114.21 27.6378 112.984 26.4803L112.229 27.28ZM113.669 31.04H112.569C112.569 32.6653 112.174 33.6808 111.579 34.2941C110.99 34.9012 110.024 35.3 108.469 35.3V36.4V37.5C110.38 37.5 112.014 37.0055 113.158 35.8259C114.297 34.6526 114.769 32.988 114.769 31.04H113.669ZM119.749 70.32V71.42H126.949V70.32V69.22H119.749V70.32ZM126.949 70.32H125.849V80H126.949H128.049V70.32H126.949ZM126.949 80V78.9H118.789V80V81.1H126.949V80ZM118.789 80V78.9C117.073 78.9 115.504 78.673 114.075 78.2294L113.749 79.28L113.423 80.3306C115.087 80.847 116.878 81.1 118.789 81.1V80ZM113.749 79.28L112.659 79.1324C111.996 84.028 110.05 87.8249 106.864 90.6122L107.589 91.44L108.313 92.2678C111.954 89.0817 114.115 84.772 114.839 79.4276L113.749 79.28ZM107.589 91.44L106.871 90.6068C103.989 93.0909 100.542 94.34 96.4688 94.34V95.44V96.54C101.036 96.54 105.002 95.1225 108.307 92.2732L107.589 91.44ZM96.4688 95.44V94.34C93.3035 94.34 90.2001 93.538 87.1464 91.9094L86.6287 92.88L86.1111 93.8506C89.4574 95.6353 92.914 96.54 96.4688 96.54V95.44ZM86.6287 92.88H87.7287V84.08H86.6287H85.5287V92.88H86.6287ZM86.6287 84.08L86.093 85.0407C88.9988 86.6613 91.9017 87.5 94.7888 87.5V86.4V85.3C92.3424 85.3 89.8053 84.5921 87.1645 83.1193L86.6287 84.08ZM94.7888 86.4V87.5C97.9856 87.5 100.588 86.4397 102.434 84.2242L101.589 83.52L100.744 82.8158C99.3899 84.4403 97.4586 85.3 94.7888 85.3V86.4ZM101.589 83.52L102.412 84.2493C104.298 82.1206 105.169 79.2143 105.169 75.68H104.069H102.969C102.969 78.8657 102.186 81.1861 100.765 82.7907L101.589 83.52ZM104.069 75.68H105.169V49.76H104.069H102.969V75.68H104.069ZM104.069 49.76L104.58 50.7342L111.14 47.2942L110.629 46.32L110.118 45.3458L103.558 48.7858L104.069 49.76ZM110.629 46.32L111.148 47.29L114.588 45.45L114.069 44.48L113.55 43.51L110.11 45.35L110.629 46.32ZM114.069 44.48H112.969V44.56H114.069H115.169V44.48H114.069ZM114.069 44.56L114.847 45.3378L114.927 45.2578L114.149 44.48L113.371 43.7022L113.291 43.7822L114.069 44.56ZM114.149 44.48H113.049V64.56H114.149H115.249V44.48H114.149ZM114.149 64.56H113.049C113.049 66.7443 113.489 68.5836 114.628 69.7939L115.429 69.04L116.23 68.2861C115.662 67.6831 115.249 66.5357 115.249 64.56H114.149ZM115.429 69.04L114.651 69.8178C115.813 70.9799 117.617 71.42 119.749 71.42V70.32V69.22C117.827 69.22 116.751 68.8068 116.207 68.2622L115.429 69.04ZM181.058 70.32H182.158V69.22H181.058V70.32ZM181.058 80V81.1H182.158V80H181.058ZM164.098 78.64L163.705 79.6672L163.718 79.6722L163.731 79.6769L164.098 78.64ZM157.058 73.68L157.863 72.9301L157.241 72.263L156.47 72.7501L157.058 73.68ZM122.178 80H121.078V81.1H122.178V80ZM122.178 70.32V69.22H121.078V70.32H122.178ZM156.498 61.92L157.28 62.6941L157.868 62.1001L157.453 61.3742L156.498 61.92ZM129.298 59.36H128.198V61.8589L130.041 60.1712L129.298 59.36ZM129.298 50.48L128.486 49.7383L128.198 50.0534V50.48H129.298ZM167.138 60.64H168.238V60.3607L168.105 60.1152L167.138 60.64ZM167.138 64.64L168.013 65.3066L168.238 65.0113V64.64H167.138ZM163.778 68.4L163 67.6222L162.004 68.6184L163.212 69.3432L163.778 68.4ZM155.938 88.64L155.16 89.4178L155.938 88.64ZM148.338 96.4L147.56 97.1778L148.338 96.4ZM174.338 70.32V71.42H181.058V70.32V69.22H174.338V70.32ZM181.058 70.32H179.958V80H181.058H182.158V70.32H181.058ZM181.058 80V78.9H174.258V80V81.1H181.058V80ZM174.258 80V78.9C170.109 78.9 166.861 78.4516 164.465 77.6031L164.098 78.64L163.731 79.6769C166.455 80.6418 169.981 81.1 174.258 81.1V80ZM164.098 78.64L164.492 77.6128C162.169 76.7233 159.957 75.1778 157.863 72.9301L157.058 73.68L156.253 74.4299C158.532 76.8755 161.014 78.6367 163.705 79.6672L164.098 78.64ZM157.058 73.68L156.47 72.7501C149.997 76.8411 142.525 78.9 134.018 78.9V80V81.1C142.897 81.1 150.786 78.9455 157.646 74.6099L157.058 73.68ZM134.018 80V78.9H122.178V80V81.1H134.018V80ZM122.178 80H123.278V70.32H122.178H121.078V80H122.178ZM122.178 70.32V71.42H134.098V70.32V69.22H122.178V70.32ZM134.098 70.32V71.42C143.718 71.42 151.488 68.5419 157.28 62.6941L156.498 61.92L155.717 61.1459C150.415 66.4981 143.251 69.22 134.098 69.22V70.32ZM156.498 61.92L157.453 61.3742C153.721 54.8428 149.019 51.3 143.298 51.3V52.4V53.5C147.923 53.5 152.022 56.3039 155.543 62.4658L156.498 61.92ZM143.298 52.4V51.3C138.631 51.3 133.707 53.8304 128.555 58.5488L129.298 59.36L130.041 60.1712C135.022 55.6096 139.432 53.5 143.298 53.5V52.4ZM129.298 59.36H130.398V50.48H129.298H128.198V59.36H129.298ZM129.298 50.48L130.11 51.2217C134.422 46.4995 139.209 44.22 144.498 44.22V43.12V42.02C138.481 42.02 133.134 44.6471 128.486 49.7383L129.298 50.48ZM144.498 43.12V44.22C148.37 44.22 152.193 45.6294 155.987 48.5514L156.658 47.68L157.329 46.8085C153.23 43.6506 148.946 42.02 144.498 42.02V43.12ZM156.658 47.68L155.987 48.5514C159.783 51.4755 163.185 55.6635 166.171 61.1648L167.138 60.64L168.105 60.1152C165.011 54.4165 161.427 49.9645 157.329 46.8085L156.658 47.68ZM167.138 60.64H166.038V64.64H167.138H168.238V60.64H167.138ZM167.138 64.64L166.263 63.9734C165.449 65.0423 164.365 66.2579 163 67.6222L163.778 68.4L164.556 69.1778C165.965 67.7687 167.121 66.4777 168.013 65.3066L167.138 64.64ZM163.778 68.4L163.212 69.3432C165.615 70.7849 169.392 71.42 174.338 71.42V70.32V69.22C169.471 69.22 166.208 68.5751 164.344 67.4568L163.778 68.4ZM152.178 87.28V88.38C153.563 88.38 154.508 88.7658 155.16 89.4178L155.938 88.64L156.716 87.8622C155.555 86.7008 153.993 86.18 152.178 86.18V87.28ZM155.938 88.64L155.16 89.4178C155.877 90.135 156.278 91.1157 156.278 92.48H157.378H158.478C158.478 90.6443 157.919 89.065 156.716 87.8622L155.938 88.64ZM157.378 92.48H156.278C156.278 94.1053 155.884 95.1208 155.289 95.7341C154.7 96.3412 153.733 96.74 152.178 96.74V97.84V98.94C154.09 98.94 155.723 98.4455 156.868 97.2659C158.006 96.0926 158.478 94.428 158.478 92.48H157.378ZM152.178 97.84V96.74C150.814 96.74 149.833 96.3394 149.116 95.6222L148.338 96.4L147.56 97.1778C148.763 98.3806 150.342 98.94 152.178 98.94V97.84ZM148.338 96.4L149.116 95.6222C148.406 94.9119 147.998 93.9093 147.998 92.48H146.898H145.798C145.798 94.3574 146.351 95.9681 147.56 97.1778L148.338 96.4ZM146.898 92.48H147.998C147.998 91.1809 148.391 90.2223 149.116 89.4978L148.338 88.72L147.56 87.9422C146.365 89.1377 145.798 90.6858 145.798 92.48H146.898ZM148.338 88.72L149.116 89.4978C149.833 88.7806 150.814 88.38 152.178 88.38V87.28V86.18C150.342 86.18 148.763 86.7394 147.56 87.9422L148.338 88.72ZM188.081 34.96L188.858 34.1822L188.081 34.96ZM188.081 27.28L188.858 28.0578L188.081 27.28ZM195.681 27.28L194.881 28.0353L194.902 28.0581L194.925 28.0797L195.681 27.28ZM211.921 70.32H213.021V69.22H211.921V70.32ZM211.921 80V81.1H213.021V80H211.921ZM194.081 76.88L194.774 76.0263L194.081 75.4627L193.387 76.0263L194.081 76.88ZM176.241 80H175.141V81.1H176.241V80ZM176.241 70.32V69.22H175.141V70.32H176.241ZM187.761 69.04L188.538 69.8178L188.55 69.806L188.562 69.7939L187.761 69.04ZM189.041 49.76L188.53 48.7856L187.941 49.0944V49.76H189.041ZM199.121 44.48H200.221V42.662L198.61 43.5056L199.121 44.48ZM200.401 69.04L199.6 69.7939L199.611 69.806L199.623 69.8178L200.401 69.04ZM191.921 36.4V35.3C190.556 35.3 189.576 34.8994 188.858 34.1822L188.081 34.96L187.303 35.7378C188.506 36.9406 190.085 37.5 191.921 37.5V36.4ZM188.081 34.96L188.858 34.1822C188.148 33.4719 187.741 32.4693 187.741 31.04H186.641H185.541C185.541 32.9174 186.093 34.5281 187.303 35.7378L188.081 34.96ZM186.641 31.04H187.741C187.741 29.7409 188.134 28.7823 188.858 28.0578L188.081 27.28L187.303 26.5022C186.107 27.6977 185.541 29.2458 185.541 31.04H186.641ZM188.081 27.28L188.858 28.0578C189.576 27.3406 190.556 26.94 191.921 26.94V25.84V24.74C190.085 24.74 188.506 25.2994 187.303 26.5022L188.081 27.28ZM191.921 25.84V26.94C193.287 26.94 194.225 27.3409 194.881 28.0353L195.681 27.28L196.48 26.5247C195.323 25.2991 193.754 24.74 191.921 24.74V25.84ZM195.681 27.28L194.925 28.0797C195.62 28.7355 196.021 29.6737 196.021 31.04H197.121H198.221C198.221 29.2063 197.662 27.6378 196.436 26.4803L195.681 27.28ZM197.121 31.04H196.021C196.021 32.6653 195.626 33.6808 195.031 34.2941C194.442 34.9012 193.476 35.3 191.921 35.3V36.4V37.5C193.832 37.5 195.466 37.0055 196.61 35.8259C197.748 34.6526 198.221 32.988 198.221 31.04H197.121ZM204.721 70.32V71.42H211.921V70.32V69.22H204.721V70.32ZM211.921 70.32H210.821V80H211.921H213.021V70.32H211.921ZM211.921 80V78.9H203.761V80V81.1H211.921V80ZM203.761 80V78.9C200.072 78.9 197.104 77.9193 194.774 76.0263L194.081 76.88L193.387 77.7337C196.177 80.0007 199.662 81.1 203.761 81.1V80ZM194.081 76.88L193.387 76.0263C191.057 77.9193 188.089 78.9 184.401 78.9V80V81.1C188.499 81.1 191.984 80.0007 194.774 77.7337L194.081 76.88ZM184.401 80V78.9H176.241V80V81.1H184.401V80ZM176.241 80H177.341V70.32H176.241H175.141V80H176.241ZM176.241 70.32V71.42H183.441V70.32V69.22H176.241V70.32ZM183.441 70.32V71.42C185.572 71.42 187.376 70.9799 188.538 69.8178L187.761 69.04L186.983 68.2622C186.438 68.8068 185.362 69.22 183.441 69.22V70.32ZM187.761 69.04L188.562 69.7939C189.701 68.5836 190.141 66.7443 190.141 64.56H189.041H187.941C187.941 66.5357 187.527 67.6831 186.96 68.2861L187.761 69.04ZM189.041 64.56H190.141V49.76H189.041H187.941V64.56H189.041ZM189.041 49.76L189.551 50.7344L199.631 45.4544L199.121 44.48L198.61 43.5056L188.53 48.7856L189.041 49.76ZM199.121 44.48H198.021V64.56H199.121H200.221V44.48H199.121ZM199.121 64.56H198.021C198.021 66.7443 198.46 68.5836 199.6 69.7939L200.401 69.04L201.202 68.2861C200.634 67.6831 200.221 66.5357 200.221 64.56H199.121ZM200.401 69.04L199.623 69.8178C200.785 70.9799 202.589 71.42 204.721 71.42V70.32V69.22C202.799 69.22 201.723 68.8068 201.178 68.2622L200.401 69.04ZM224.38 46.64L223.645 45.8215L223.639 45.8267L224.38 46.64ZM246.78 48.96L245.901 49.622L245.909 49.6314L246.78 48.96ZM245.82 75.52L246.619 76.2761L246.624 76.2709L246.629 76.2656L245.82 75.52ZM224.54 77.2L225.162 76.293L224.521 75.8527L223.892 76.3112L224.54 77.2ZM207.1 80H206V81.1H207.1V80ZM207.1 70.32V69.22H206V70.32H207.1ZM218.62 69.04L219.398 69.8178L219.41 69.806L219.421 69.7939L218.62 69.04ZM219.9 57.92H221C221 53.3661 222.406 49.9256 225.121 47.4533L224.38 46.64L223.639 45.8267C220.381 48.7944 218.8 52.8739 218.8 57.92H219.9ZM224.38 46.64L225.115 47.4585C227.493 45.3232 230.576 44.22 234.46 44.22V43.12V42.02C230.131 42.02 226.494 43.2635 223.645 45.8215L224.38 46.64ZM234.46 43.12V44.22C239.428 44.22 243.195 46.03 245.901 49.6219L246.78 48.96L247.659 48.2981C244.498 44.1034 240.052 42.02 234.46 42.02V43.12ZM246.78 48.96L245.909 49.6314C248.234 52.649 249.44 56.5818 249.44 61.52H250.54H251.64C251.64 56.2182 250.34 51.7777 247.651 48.2886L246.78 48.96ZM250.54 61.52H249.44C249.44 67.2425 247.923 71.6156 245.011 74.7744L245.82 75.52L246.629 76.2656C250.01 72.5978 251.64 67.6375 251.64 61.52H250.54ZM245.82 75.52L245.021 74.7639C242.416 77.5159 239.113 78.9 235.02 78.9V80V81.1C239.674 81.1 243.57 79.4974 246.619 76.2761L245.82 75.52ZM235.02 80V78.9C230.911 78.9 227.652 78.0017 225.162 76.293L224.54 77.2L223.918 78.107C226.868 80.1316 230.596 81.1 235.02 81.1V80ZM224.54 77.2L223.892 76.3112C221.547 78.0213 218.689 78.9 215.26 78.9V80V81.1C219.085 81.1 222.413 80.112 225.188 78.0888L224.54 77.2ZM215.26 80V78.9H207.1V80V81.1H215.26V80ZM207.1 80H208.2V70.32H207.1H206V80H207.1ZM207.1 70.32V71.42H214.3V70.32V69.22H207.1V70.32ZM214.3 70.32V71.42C216.432 71.42 218.236 70.9799 219.398 69.8178L218.62 69.04L217.842 68.2622C217.298 68.8068 216.222 69.22 214.3 69.22V70.32ZM218.62 69.04L219.421 69.7939C220.56 68.5836 221 66.7443 221 64.56H219.9H218.8C218.8 66.5357 218.387 67.6831 217.819 68.2861L218.62 69.04ZM219.9 64.56H221V57.92H219.9H218.8V64.56H219.9ZM229.98 65.84H228.88C228.88 67.518 229.325 68.9747 230.403 69.9978C231.47 71.0108 232.971 71.42 234.7 71.42V70.32V69.22C233.282 69.22 232.423 68.8826 231.917 68.4022C231.422 67.9319 231.08 67.1487 231.08 65.84H229.98ZM234.7 70.32V71.42C237.007 71.42 238.853 70.5031 240.063 68.6389C241.219 66.8569 241.72 64.3238 241.72 61.2H240.62H239.52C239.52 64.1562 239.034 66.1831 238.217 67.4411C237.454 68.6169 236.34 69.22 234.7 69.22V70.32ZM240.62 61.2H241.72C241.72 58.1973 241.196 55.7486 239.978 54.0253C238.712 52.2321 236.807 51.38 234.46 51.38V52.48V53.58C236.219 53.58 237.395 54.1813 238.182 55.2947C239.018 56.4781 239.52 58.3893 239.52 61.2H240.62ZM234.46 52.48V51.38C232.745 51.38 231.275 51.8937 230.261 53.0883C229.277 54.2484 228.88 55.8706 228.88 57.76H229.98H231.08C231.08 56.1294 231.43 55.1116 231.939 54.5117C232.418 53.9463 233.188 53.58 234.46 53.58V52.48ZM229.98 57.76H228.88V65.84H229.98H231.08V57.76H229.98Z" fill="white"/>
</g>
<defs>
<linearGradient id="paint0_linear_11_110" x1="3.52209e-06" y1="-1.04909e-05" x2="350" y2="120" gradientUnits="userSpaceOnUse">
<stop stop-color="#24E9CA"/>
<stop offset="0.0865385" stop-color="#6A6DF4"/>
<stop offset="0.961538" stop-color="#7C4DFF"/>
<stop offset="1" stop-color="#FFD166"/>
</linearGradient>
<clipPath id="clip0_11_110">
<rect width="350" height="120" fill="white"/>
</clipPath>
</defs>
</svg>
