<svg id="Layer_1" enable-background="new 0 0 100 100" viewBox="0 0 100 100" xmlns="http://www.w3.org/2000/svg" xmlns:xlink="http://www.w3.org/1999/xlink"><linearGradient id="SVGID_1_" gradientUnits="userSpaceOnUse" x1="-.028" x2="91.989" y1="-4.872" y2="95.969"><stop offset="0" stop-color="#97e0ff"/><stop offset="1" stop-color="#1075ff"/></linearGradient><path d="m72.3730774 2.5003314h-44.646698c-13.9145508 0-25.2263794 11.3118286-25.2263794 25.2263794v44.5465813c0 13.9145508 11.3118277 25.2263794 25.2263794 25.2263794h44.5465851c13.9145508 0 25.2263718-11.3118362 25.2263718-25.2263794v-44.5465808c.1001052-13.9145508-11.2117158-25.2263799-25.1262589-25.2263799zm4.7049103 36.9386296-31.9333916 31.9333992c-1.2012596 1.2012482-3.1032448 1.2012482-4.3045006 0l-17.8186321-17.8186416c-1.2012558-1.2012558-1.2012558-3.1032448 0-4.3045006l6.4066982-6.4067001c1.2012577-1.2012558 3.1032486-1.2012558 4.3045044 0l8.6090012 8.609005c.4004211.4004211 1.001049.4004211 1.4014664 0l22.7237701-22.7237644c1.2012558-1.2012577 3.103241-1.2012577 4.3045044 0l6.4067001 6.406702c1.1011353 1.2012519 1.1011353 3.1032409-.1001205 4.3045005z" fill="url(#SVGID_1_)"/></svg>