<svg id="Layer_1" enable-background="new 0 0 512 512" height="512" viewBox="0 0 512 512" width="512" xmlns="http://www.w3.org/2000/svg" xmlns:xlink="http://www.w3.org/1999/xlink"><linearGradient id="SVGID_1_" gradientUnits="userSpaceOnUse" x1="39.951" x2="411.842" y1="447.902" y2="76.011"><stop offset="0" stop-color="#fcc60e"/><stop offset="1" stop-color="#e92e29"/></linearGradient><path d="m164.061 227.457h39.065c10.175 0 18.452-8.277 18.452-18.452v-13.588c0-10.174-8.277-18.451-18.452-18.451h-39.065c-10.174 0-18.451 8.277-18.451 18.451v13.588c-.001 10.175 8.277 18.452 18.451 18.452zm-2.452-32.04c0-1.329 1.122-2.451 2.451-2.451h39.065c1.329 0 2.452 1.122 2.452 2.451v13.588c0 1.329-1.123 2.452-2.452 2.452h-39.065c-1.329 0-2.451-1.123-2.451-2.452zm-44.32 128.138h-39.065c-10.174 0-18.451 8.277-18.451 18.452v13.588c0 10.175 8.277 18.452 18.451 18.452h39.065c10.174 0 18.451-8.277 18.451-18.452v-13.588c0-10.175-8.277-18.452-18.451-18.452zm2.451 32.04c0 1.329-1.122 2.452-2.451 2.452h-39.065c-1.329 0-2.451-1.123-2.451-2.452v-13.588c0-1.329 1.122-2.452 2.451-2.452h39.065c1.329 0 2.451 1.123 2.451 2.452zm-2.451-105.335h-39.065c-10.174 0-18.451 8.277-18.451 18.452v13.588c0 10.175 8.277 18.452 18.451 18.452h39.065c10.174 0 18.451-8.277 18.451-18.452v-13.588c0-10.175-8.277-18.452-18.451-18.452zm2.451 32.04c0 1.329-1.122 2.452-2.451 2.452h-39.065c-1.329 0-2.451-1.123-2.451-2.452v-13.588c0-1.329 1.122-2.452 2.451-2.452h39.065c1.329 0 2.451 1.123 2.451 2.452zm101.838 59.707c0-10.175-8.277-18.452-18.452-18.452h-39.065c-10.174 0-18.451 8.277-18.451 18.452v13.588c0 10.175 8.277 18.452 18.451 18.452h39.065c10.175 0 18.452-8.277 18.452-18.452zm-16 13.588c0 1.329-1.123 2.452-2.452 2.452h-39.065c-1.329 0-2.451-1.123-2.451-2.452v-13.588c0-1.329 1.122-2.452 2.451-2.452h39.065c1.329 0 2.452 1.123 2.452 2.452zm-88.289-178.629h-39.065c-10.174 0-18.451 8.277-18.451 18.451v13.588c0 10.175 8.277 18.452 18.451 18.452h39.065c10.174 0 18.451-8.277 18.451-18.452v-13.588c0-10.174-8.277-18.451-18.451-18.451zm2.451 32.039c0 1.329-1.122 2.452-2.451 2.452h-39.065c-1.329 0-2.451-1.123-2.451-2.452v-13.588c0-1.329 1.122-2.451 2.451-2.451h39.065c1.329 0 2.451 1.122 2.451 2.451zm44.321 91.747h39.065c10.175 0 18.452-8.277 18.452-18.452v-13.588c0-10.175-8.277-18.452-18.452-18.452h-39.065c-10.174 0-18.451 8.277-18.451 18.452v13.588c-.001 10.175 8.277 18.452 18.451 18.452zm-2.452-32.04c0-1.329 1.122-2.452 2.451-2.452h39.065c1.329 0 2.452 1.123 2.452 2.452v13.588c0 1.329-1.123 2.452-2.452 2.452h-39.065c-1.329 0-2.451-1.123-2.451-2.452zm332.187 48.54c-14.604-25.641-36.873-54.622-69.617-90.536 9.085-4.746 15.304-14.255 15.304-25.195 0-14.578-11.04-26.622-25.196-28.225l19.949-19.95c11.298-11.299 11.298-29.682-.001-40.98-9.563-9.561-24.769-11.194-36.155-3.886-.859.554-1.625.623-2.571.229-.942-.39-1.438-.983-1.656-1.98-2.768-12.68-13.837-22-26.665-22.746v-30.516c-.001-29.482-23.986-53.467-53.467-53.467h-260.255c-29.482 0-53.466 23.985-53.466 53.467v332.373c0 29.481 23.984 53.466 53.466 53.466h180.119c.755 1.392 1.531 2.778 2.346 4.152 25.158 42.451 73.625 68.544 126.979 68.542h5.256c53.351 0 101.823-26.094 126.979-68.542 22.856-38.568 22.365-84.569-1.349-126.206zm-70.314-115.731c0 6.844-5.568 12.412-12.412 12.412h-91.064c-6.845 0-12.413-5.568-12.413-12.413 0-6.844 5.568-12.411 12.413-12.411h91.064c6.844 0 12.412 5.569 12.412 12.412zm-45.261-91.377c1.333 6.098 5.402 10.963 11.163 13.348 5.764 2.393 12.085 1.827 17.338-1.546 5.103-3.273 11.918-2.546 16.2 1.736 2.435 2.435 3.775 5.692 3.775 9.175s-1.341 6.741-3.776 9.176l-31.075 31.077h-52.614l-31.077-31.077c-2.436-2.435-3.776-5.693-3.776-9.176s1.341-6.74 3.776-9.175c4.28-4.283 11.093-5.014 16.201-1.736 5.253 3.371 11.571 3.934 17.335 1.548 5.765-2.388 9.834-7.254 11.165-13.352 1.295-5.927 6.629-10.229 12.683-10.23s11.387 4.302 12.682 10.232zm-89.294 17.044h-220.306c-1.329 0-2.452-1.123-2.452-2.452v-41.025c0-1.329 1.123-2.451 2.452-2.451h229.944c1.329 0 2.452 1.122 2.452 2.451v25.225c-1.478 1.001-2.882 2.137-4.177 3.432-4.101 4.1-6.817 9.23-7.913 14.82zm-235.461 296.118c-20.659 0-37.466-16.807-37.466-37.466v-332.373c0-20.659 16.807-37.467 37.466-37.467h260.255c20.659 0 37.466 16.808 37.466 37.467v34.31c-6.935 3.991-12.177 10.775-13.962 18.953-.219.998-.714 1.591-1.655 1.98-.943.394-1.712.322-2.573-.229-4.874-3.128-10.447-4.605-15.979-4.537v-20.233c0-10.174-8.277-18.451-18.452-18.451h-229.945c-10.175 0-18.452 8.277-18.452 18.451v41.024c0 10.175 8.277 18.452 18.452 18.452h221.644c1.431 3.772 3.646 7.229 6.575 10.159l19.951 19.95c-6.315.715-12.007 3.508-16.378 7.678-3.149-2.502-7.124-4.009-11.45-4.009h-39.064c-10.175 0-18.452 8.277-18.452 18.451v13.588c0 10.175 8.277 18.452 18.452 18.452h39.064c4.693 0 8.969-1.775 12.229-4.671 1.728 1.531 3.642 2.852 5.705 3.93-7.472 8.195-14.396 16.028-20.811 23.544h-36.188c-10.175 0-18.452 8.277-18.452 18.452v13.589c0 9.376 7.035 17.125 16.101 18.285-3.778 5.725-7.195 11.271-10.268 16.667-19.704 34.596-23.358 72.2-10.926 106.054zm237.949-227.889v13.588c0 1.329-1.123 2.452-2.452 2.452h-39.064c-1.329 0-2.452-1.123-2.452-2.452v-13.588c0-1.329 1.123-2.451 2.452-2.451h39.064c1.329 0 2.452 1.122 2.452 2.451zm-32.824 89.335h-8.692c-1.329 0-2.452-1.123-2.452-2.452v-13.588c0-1.329 1.123-2.452 2.452-2.452h22.92c-5.133 6.387-9.867 12.541-14.228 18.492zm222.79 150.549c-22.279 37.595-65.491 60.699-113.212 60.699-.877 0-4.385 0-5.262 0-47.717 0-90.934-23.106-113.212-60.699-20.137-33.979-19.608-73.09 1.486-110.131 15.008-26.349 38.717-56.668 74.49-95.236h79.731c35.773 38.568 59.482 68.888 74.49 95.236 21.096 37.04 21.625 76.152 1.489 110.131zm-73.053-47.454c1.065 8.775-1.291 16.789-6.813 23.174-6.284 7.266-16.603 12.191-28.366 13.718v8.11c0 4.418-3.582 8-8 8s-8-3.582-8-8v-8.23c-17.583-2.699-31.2-13.994-35.195-30.016-1.068-4.287 1.54-8.629 5.827-9.698 4.287-1.063 8.629 1.54 9.698 5.827 3.37 13.519 16.657 18.376 27.578 18.506.103-.004.207-.001.31.002.355 0 .693-.001 1.034-.011 9.621-.229 18.653-3.635 23.013-8.675 2.561-2.961 3.553-6.486 3.032-10.778-1.255-10.333-10.042-16.293-28.492-19.322-30.774-5.052-37.947-20.781-38.544-33.088-.828-17.043 11.066-31.318 29.597-35.521.705-.16 1.42-.304 2.143-.432v-8.348c0-4.418 3.582-8 8-8s8 3.582 8 8v8.279c12.906 2.143 25.521 9.788 31.893 24.963 1.711 4.073-.205 8.763-4.279 10.473-4.067 1.709-8.762-.204-10.473-4.279-4.722-11.244-14.837-15.815-24.614-15.841-.287.019-.579.022-.872.009-2.13.054-4.235.32-6.258.779-8.647 1.961-17.695 8.02-17.155 19.142.187 3.845.683 14.058 25.155 18.074 9.526 1.565 38.52 6.326 41.781 33.183z" fill="url(#SVGID_1_)"/></svg>