<svg id="Layer_1" enable-background="new 0 0 512 512" viewBox="0 0 512 512" xmlns="http://www.w3.org/2000/svg" xmlns:xlink="http://www.w3.org/1999/xlink"><linearGradient id="SVGID_1_" gradientUnits="userSpaceOnUse" x1="80.646" x2="432.854" y1="431.36" y2="79.152"><stop offset="0" stop-color="#fcc60e"/><stop offset="1" stop-color="#e92e29"/></linearGradient><path clip-rule="evenodd" d="m503.989 257.767c.03-4.418-3.526-8.025-7.944-8.056-.019 0-.038 0-.057 0-4.393 0-7.968 3.545-7.999 7.944-.137 19.513-2.717 38.463-7.434 56.569l-20.421-52.675c-1.441-3.719-4.252-6.656-7.912-8.272-3.661-1.615-7.725-1.712-11.444-.27l-14.211 5.509c-7.691 2.981-11.522 11.665-8.541 19.356l.896 2.312-4.745 2.54c-2.644 1.373-5.676.378-12.483-2.405-9.549-3.903-23.616-9.637-41.446.348-12.853-6.63-24.014-4.024-32.396-2.06-6.566 1.538-10.449 2.313-13.906.367-.187-.105-.378-.203-.572-.292l-5.495-2.535.808-1.827c3.333-7.544-.092-16.395-7.636-19.73l-13.94-6.161c-7.546-3.336-16.397.089-19.732 7.635l-32.007 72.416c-1.612 3.648-1.705 7.712-.261 11.444s4.249 6.675 7.896 8.287l13.941 6.162c1.961.866 4.009 1.276 6.025 1.276 5.68 0 11.105-3.255 13.614-8.724 2.429 1.071 3.643 1.587 4.329 1.867.391.891.773 2.95 1.013 4.236.319 1.716.667 3.551 1.243 5.38l-2.982 5.576c-5.006 9.361-1.463 21.05 7.898 26.057 1.683.9 3.459 1.528 5.272 1.89.102 1.43.365 2.859.792 4.266 1.494 4.93 4.809 8.978 9.332 11.397 4.688 2.507 9.96 2.865 14.688 1.418 1.66 2.25 3.819 4.155 6.385 5.527 4.111 2.2 8.725 2.75 13.026 1.849 1.736 2.748 4.182 5.072 7.195 6.683 2.823 1.51 5.911 2.276 9.032 2.276 1.882 0 3.774-.278 5.629-.84 2.926-.887 5.53-2.428 7.679-4.469l1.083.622c2.835 1.627 5.981 2.457 9.183 2.457 1.702 0 3.422-.235 5.115-.709 4.893-1.372 9.099-4.702 11.539-9.138.916-1.666 1.553-3.413 1.926-5.188 1.591-.043 3.191-.29 4.765-.743 4.89-1.407 8.927-4.627 11.367-9.066 1.05-1.907 1.73-3.924 2.067-5.966 1.162-.115 2.322-.338 3.468-.671 4.864-1.412 8.882-4.623 11.312-9.043 1.949-3.544 2.628-7.466 2.188-11.232 3.526-1.697 6.428-4.431 8.345-7.917 1.532-2.784 2.294-5.88 2.306-8.989l5.132-2.141c2.443 5.547 7.913 8.93 13.697 8.93.691 0 1.388-.064 2.084-.163-38.487 75.214-116.836 126.919-206.684 126.919-127.926 0-232-104.075-232-232s104.074-232 232-232c31.809 0 62.474 6.299 91.32 18.698l-5.346 2.095c-4.113 1.612-6.142 6.253-4.529 10.367 1.236 3.155 4.255 5.083 7.45 5.083.971 0 1.958-.178 2.917-.554l22.539-8.833c4.113-1.612 6.142-6.253 4.529-10.367l-8.833-22.539c-1.612-4.114-6.251-6.143-10.367-4.529-4.113 1.612-6.142 6.253-4.529 10.367l1.479 3.775c-30.554-12.975-62.998-19.563-96.63-19.563-66.243 0-128.522 25.796-175.363 72.638-46.84 46.841-72.637 109.119-72.637 175.362s25.797 128.521 72.638 175.362c46.84 46.842 109.119 72.638 175.362 72.638 65.934 0 128.003-25.591 174.773-72.06 23.453-23.301 41.679-50.483 54.082-80.104 1.521-1.386 2.76-3.079 3.617-5.022 1.054-2.388 1.449-4.947 1.205-7.471 9.202-25.857 14.104-53.345 14.301-81.576zm-108.348 37.364c7.705 3.15 16.438 6.72 26.003 1.745l3.105-1.662 16.356 42.191-5.988 2.498c-.922-.789-1.924-1.494-2.995-2.105l-37.797-21.542c-11.469-6.538-23.524-1.657-34.16 2.648-11.596 4.694-19.072 7.296-25.956 2.741 8.408-5.489 15.729-11.367 21.835-17.537 2.962-2.992 5.924-5.508 8.818-7.488.014-.009.027-.019.041-.029 12.817-8.786 21.121-5.391 30.738-1.46zm-133.177 44.189-12.039-5.321 31.166-70.515 12.04 5.321zm31.835 32.212 4.589-8.58c.161-.262.304-.533.433-.809l1.917-3.584c.831-1.554 2.852-2.166 4.411-1.333 1.426.761 2.057 2.538 1.48 4.039l-8.488 14.69c-.848.426-1.954.546-3.007-.018-1.556-.833-2.167-2.851-1.335-4.405zm16.731 21.956c-1.02-.545-1.419-1.443-1.566-1.93-.147-.486-.313-1.455.232-2.474l2.036-3.808 8.722-15.095c.947-.488 2.107-.514 3.053-.009 1.239.661 1.747 1.945 1.69 3.074l-9.739 18.86c-.863 1.608-2.849 2.229-4.428 1.382zm21.074 6.946c-1.035-.553-1.549-1.515-1.677-2.441l8.918-17.272c.995-.704 2.342-.825 3.436-.241 1.236.659 1.743 1.939 1.689 3.067l-8.413 16.17c-.98 1.089-2.646 1.416-3.953.717zm22.697 8.764c-.487.147-1.457.312-2.476-.232-.969-.518-1.591-1.522-1.688-2.605l7.97-15.319c.906-.641 2.227-.905 3.443-.255.426.228.781.534 1.059.912.754 1.025.861 2.396.275 3.492l-6.654 12.441c-.545 1.018-1.443 1.418-1.929 1.566zm25.22-3.637c-.384.697-1.054 1.224-1.839 1.443-.502.14-1.259.217-2.01-.216l-.647-.372 1.969-3.681c.275-.515.516-1.043.741-1.576.191.13.385.256.59.371 1.413.793 1.96 2.639 1.196 4.031zm45.437-49.826c-.51.927-1.34 1.281-1.79 1.41-.427.122-1.273.255-2.133-.225-8.004-4.484-17.078-9.566-25.947-14.644-3.838-2.194-8.723-.866-10.917 2.968-2.195 3.834-.866 8.722 2.968 10.917 8.93 5.112 18.032 10.211 26.065 14.71 1.443.813 1.991 2.613 1.221 4.014-.5.91-1.312 1.26-1.753 1.387-.438.128-1.31.267-2.221-.232l-34.171-19.227c-3.851-2.167-8.729-.801-10.895 3.049-2.167 3.851-.802 8.728 3.049 10.895l27.08 15.237c.267.198.544.387.842.554 1.444.813 1.992 2.614 1.222 4.015-.507.921-1.329 1.273-1.773 1.401-.433.125-1.29.26-2.17-.229l-19.29-10.919c-1.491-1.672-3.245-3.069-5.253-4.142-3.547-1.896-7.464-2.587-11.233-2.16-1.741-3.38-4.492-6.255-8.044-8.15-3.545-1.893-7.457-2.58-11.228-2.156-1.742-3.381-4.493-6.256-8.045-8.152-2.755-1.47-5.756-2.212-8.75-2.259-1.535-4.44-4.681-8.324-9.109-10.688-5.64-3.009-12.113-2.902-17.469-.313-1.435-3.505-3.904-6.933-8.549-8.736-.432-.168-1.538-.635-4.103-1.765l18.348-41.512 4.995 2.304c8.944 4.881 17.519 2.872 25.097 1.098 4.683-1.098 9.005-2.106 13.51-1.669-.113.113-.226.221-.339.335-6.85 6.922-15.573 13.496-25.923 19.537-2.326 1.355-3.949 3.648-4.454 6.288-.504 2.634.15 5.356 1.792 7.463 16.475 21.198 36.699 13.012 50.082 7.594 9.645-3.904 15.821-6.095 20.233-3.579l37.796 21.542c.716.408 1.1.974 1.295 1.376 0 .001 0 .001.001.002.2.417.6 1.505-.037 2.661zm35.729-10.793-27.866-71.883 12.272-4.757 27.193 70.143c-.301.786-.604 1.572-.913 2.354zm-79.678-269.84 41.156-2.355c2.405-.137 4.726.808 6.348 2.574 1.623 1.766 2.368 4.167 2.029 6.542l-5.821 40.812c-.625 4.374-4.669 7.416-9.05 6.791-4.374-.624-7.414-4.676-6.79-9.049l2.588-18.146-96.11 90.771c-1.939 1.832-4.665 2.574-7.266 1.985-2.602-.591-4.736-2.44-5.694-4.93l-8.227-21.39-33.227 85.621c-1.194 3.077-4.155 5.104-7.455 5.106-.001 0-.002 0-.003 0-3.3 0-6.26-2.025-7.456-5.101l-10.632-27.338-13.133 99.095c-.489 3.693-3.463 6.56-7.172 6.913-.256.024-.511.036-.764.036-3.412 0-6.487-2.18-7.585-5.47l-46.948-140.847-105.145 135.393c-2.711 3.489-7.733 4.123-11.226 1.412-3.489-2.71-4.121-7.736-1.411-11.225l114.322-147.209c1.811-2.33 4.755-3.474 7.666-2.979 2.909.498 5.309 2.556 6.242 5.356l40.715 122.146 12.671-95.61c.479-3.62 3.351-6.456 6.977-6.892 3.632-.436 7.088 1.641 8.41 5.043l14.461 37.185 33.268-85.728c1.194-3.078 4.157-5.106 7.458-5.106h.012c3.306.005 6.269 2.043 7.455 5.128l11.376 29.58 88.14-83.243-19.265 1.102c-4.396.259-8.19-3.118-8.444-7.53-.252-4.41 3.119-8.191 7.53-8.443zm-91.745 197.096c-.121 2.613-2.338 4.632-4.95 4.511-2.613-.121-4.632-2.337-4.512-4.95.121-2.613 2.338-4.632 4.95-4.511 2.613.121 4.632 2.337 4.512 4.95zm156.733 4.429c0 2.608-2.127 4.736-4.735 4.736s-4.735-2.128-4.735-4.736 2.127-4.736 4.735-4.736 4.735 2.128 4.735 4.736z" fill="url(#SVGID_1_)" fill-rule="evenodd"/></svg>