<svg id="Layer_1" viewBox="0 0 512 512" xmlns="http://www.w3.org/2000/svg" data-name="Layer 1"><path d="m442.59 247.368c0 10.365-8.402 18.767-18.767 18.767s-18.767-8.403-18.767-18.767 8.403-18.767 18.767-18.767 18.767 8.402 18.767 18.767z" fill="#f23353" fill-rule="evenodd"/><path d="m291.904 320.934c10.336 0 18.767-8.431 18.767-18.767s-8.43-18.767-18.767-18.767-18.767 8.431-18.767 18.767 8.431 18.767 18.767 18.767z" fill="#fdc72e" fill-rule="evenodd"/><path d="m285.809 319.921c-7.373-2.53-12.673-9.523-12.673-17.754s5.3-15.224 12.673-17.754c7.373 2.53 12.673 9.523 12.673 17.754s-5.3 15.224-12.673 17.754z" fill="#fcdb35" fill-rule="evenodd"/><path d="m259.794 194.017c10.336 0 18.767-8.43 18.767-18.767s-8.43-18.767-18.767-18.767-18.767 8.43-18.767 18.767 8.431 18.767 18.767 18.767z" fill="#f23353" fill-rule="evenodd"/><path d="m456.86 33.881 11.167-7.489 17.66 17.66-7.489 11.167 7.435 17.948 13.191 2.601v24.974l-13.191 2.601-7.435 17.948 7.489 11.167-17.66 17.66-11.168-7.489-17.947 7.435-2.601 13.191h-24.974l-2.602-13.191-17.947-7.435-11.167 7.489-17.66-17.66 7.489-11.167-7.436-17.948-13.19-2.601v-24.974l13.19-2.601 7.436-17.948-7.489-11.167 17.66-17.66 11.167 7.489 17.947-7.435 2.602-13.191h24.974l2.601 13.191z" fill="#e80941" fill-rule="evenodd"/><path d="m456.86 33.881 6.343-4.254 14.425 14.425-7.488 11.167 7.435 17.948 13.191 2.601v12.487 12.488l-13.191 2.601-7.435 17.947 7.488 11.168-14.425 14.424-6.344-4.254-6.529-4.378-18.672 7.736-3.405 17.268h-16.917l-2.6-13.191-17.948-7.435-6.68-2.767-8.825 5.918-13.322-13.322 7.489-11.167-7.436-17.948-13.19-2.601v-24.974l13.19-2.601 7.436-17.948-7.489-11.167 13.322-13.322 8.825 5.919 6.68-2.768 17.948-7.436 2.6-13.19h16.917l3.405 17.269 18.672 7.736z" fill="#ff5471" fill-rule="evenodd"/><circle cx="416.917" cy="88.255" fill="#e80941" r="38.462" transform="matrix(.895 -.445 .445 .895 4.33 194.934)"/><circle cx="423.824" cy="88.255" fill="#f3f3ff" r="38.462" transform="matrix(.895 -.445 .445 .895 5.053 198.01)"/><path d="m121.211 33.881 11.167-7.489 17.66 17.66-7.489 11.167 7.435 17.948 13.191 2.601v24.974l-13.191 2.601-7.435 17.948 7.489 11.167-17.66 17.66-11.168-7.489-17.947 7.435-2.601 13.191h-24.974l-2.602-13.191-17.947-7.435-11.167 7.489-17.66-17.66 7.489-11.167-7.436-17.948-13.19-2.601v-24.974l13.19-2.601 7.436-17.948-7.489-11.167 17.66-17.66 11.167 7.489 17.947-7.435 2.602-13.191h24.974l2.601 13.191z" fill="#2a92fa" fill-rule="evenodd"/><path d="m121.211 33.881 6.343-4.254 14.425 14.425-7.488 11.167 7.435 17.948 13.191 2.601v12.487 12.488l-13.191 2.601-7.435 17.947 7.488 11.168-14.425 14.424-6.344-4.254-6.529-4.378-18.672 7.736-3.405 17.268h-16.917l-2.6-13.191-17.948-7.435-6.68-2.767-8.825 5.918-13.322-13.322 7.489-11.167-7.436-17.948-13.19-2.601v-24.974l13.19-2.601 7.436-17.948-7.489-11.167 13.322-13.322 8.825 5.919 6.68-2.768 17.948-7.436 2.6-13.19h16.917l3.405 17.269 18.672 7.736z" fill="#6fbffc" fill-rule="evenodd"/><circle cx="81.268" cy="88.255" fill="#2a92fa" r="38.462" transform="matrix(.973 -.229 .229 .973 -18.046 20.949)"/><circle cx="88.175" cy="88.255" fill="#f3f3ff" r="38.462" transform="matrix(.973 -.229 .229 .973 -17.863 22.53)"/><path d="m456.86 369.53 11.167-7.489 17.66 17.66-7.489 11.167 7.435 17.948 13.191 2.601v24.974l-13.191 2.601-7.435 17.948 7.489 11.167-17.66 17.66-11.168-7.489-17.947 7.435-2.601 13.191h-24.974l-2.602-13.191-17.947-7.435-11.167 7.489-17.66-17.66 7.489-11.167-7.436-17.948-13.19-2.601v-24.974l13.19-2.601 7.436-17.948-7.489-11.167 17.66-17.66 11.167 7.489 17.947-7.435 2.602-13.191h24.974l2.601 13.191z" fill="#f9ac00" fill-rule="evenodd"/><path d="m456.86 369.53 6.343-4.254 14.425 14.425-7.488 11.167 7.435 17.948 13.191 2.601v12.487 12.488l-13.191 2.601-7.435 17.947 7.488 11.168-14.425 14.424-6.344-4.254-6.529-4.379-18.672 7.737-3.405 17.268h-16.917l-2.6-13.191-17.948-7.435-6.68-2.767-8.825 5.918-13.322-13.322 7.489-11.167-7.436-17.948-13.19-2.601v-24.974l13.19-2.601 7.436-17.948-7.489-11.167 13.322-13.322 8.825 5.919 6.68-2.768 17.948-7.436 2.6-13.19h16.917l3.405 17.269 18.672 7.736z" fill="#fcdb35" fill-rule="evenodd"/><circle cx="416.917" cy="423.904" fill="#f9ac00" r="38.462" transform="matrix(.788 -.615 .615 .788 -172.575 346.358)"/><circle cx="423.824" cy="423.904" fill="#f3f3ff" r="38.462" transform="matrix(.788 -.615 .615 .788 -171.112 350.608)"/><path d="m121.211 369.53 11.167-7.489 17.66 17.66-7.489 11.167 7.435 17.948 13.191 2.601v24.974l-13.191 2.601-7.435 17.948 7.489 11.167-17.66 17.66-11.168-7.489-17.947 7.435-2.601 13.191h-24.974l-2.602-13.191-17.947-7.435-11.167 7.489-17.66-17.66 7.489-11.167-7.436-17.948-13.19-2.601v-24.974l13.19-2.601 7.436-17.948-7.489-11.167 17.66-17.66 11.167 7.489 17.947-7.435 2.602-13.191h24.974l2.601 13.191z" fill="#25bf28" fill-rule="evenodd"/><path d="m121.211 369.53 6.343-4.254 14.425 14.425-7.488 11.167 7.435 17.948 13.191 2.601v12.487 12.488l-13.191 2.601-7.435 17.947 7.488 11.168-14.425 14.424-6.344-4.254-6.529-4.379-18.672 7.737-3.405 17.268h-16.917l-2.6-13.191-17.948-7.435-6.68-2.767-8.825 5.918-13.322-13.322 7.489-11.167-7.436-17.948-13.19-2.601v-24.974l13.19-2.601 7.436-17.948-7.489-11.167 13.322-13.322 8.825 5.919 6.68-2.768 17.948-7.436 2.6-13.19h16.917l3.405 17.269 18.672 7.736z" fill="#43f043" fill-rule="evenodd"/><circle cx="81.268" cy="423.904" fill="#25bf28" r="38.462" transform="matrix(.949 -.316 .316 .949 -129.88 47.453)"/><circle cx="88.175" cy="423.904" fill="#f3f3ff" r="38.462" transform="matrix(.949 -.316 .316 .949 -129.526 49.637)"/><g fill-rule="evenodd"><path d="m417.73 265.123c-7.373-2.53-12.673-9.523-12.673-17.754s5.3-15.224 12.673-17.754c7.373 2.53 12.673 9.523 12.673 17.754s-5.3 15.224-12.673 17.754z" fill="#ff5471"/><path d="m253.699 193.004c-7.373-2.53-12.673-9.523-12.673-17.754s5.3-15.224 12.673-17.754c7.373 2.53 12.673 9.523 12.673 17.754s-5.3 15.224-12.673 17.754z" fill="#ff5471"/><path d="m188.984 267.758c10.336 0 18.767-8.43 18.767-18.767s-8.43-18.767-18.767-18.767-18.767 8.431-18.767 18.767 8.431 18.767 18.767 18.767z" fill="#4eb1fc"/><path d="m182.889 266.745c-7.373-2.53-12.673-9.523-12.673-17.754s5.3-15.224 12.673-17.754c7.373 2.53 12.673 9.523 12.673 17.754s-5.3 15.224-12.673 17.754z" fill="#85caff"/><path d="m247.289 107.022c10.337 0 18.767-8.43 18.767-18.767s-8.43-18.767-18.767-18.767-18.767 8.43-18.767 18.767 8.431 18.767 18.767 18.767z" fill="#4eb1fc"/><path d="m241.194 106.009c-7.373-2.53-12.673-9.523-12.673-17.754s5.3-15.224 12.673-17.754c7.373 2.53 12.673 9.523 12.673 17.754s-5.3 15.224-12.673 17.754z" fill="#85caff"/><path d="m197.79 333.056c10.336 0 18.767-8.43 18.767-18.767s-8.43-18.767-18.767-18.767-18.767 8.431-18.767 18.767 8.431 18.767 18.767 18.767z" fill="#2dd62d"/><path d="m191.695 332.044c-7.373-2.53-12.673-9.523-12.673-17.754s5.3-15.224 12.673-17.754c7.373 2.53 12.673 9.523 12.673 17.754s-5.3 15.224-12.673 17.754z" fill="#43f043"/><path d="m88.175 276.729c10.337 0 18.767-8.43 18.767-18.767s-8.43-18.767-18.767-18.767-18.767 8.43-18.767 18.767 8.431 18.767 18.767 18.767z" fill="#2dd62d"/><path d="m82.081 275.716c-7.373-2.53-12.673-9.523-12.673-17.754s5.3-15.224 12.673-17.754c7.373 2.53 12.673 9.523 12.673 17.754s-5.3 15.224-12.673 17.754z" fill="#43f043"/><path d="m5.58 190.707c-2.453-2.998-2-7.408.998-9.847l20.124-16.403c1.827-1.499 4.28-1.971 6.526-1.248 2.251.709 3.991 2.511 4.632 4.777l6.97 24.886c1.041 3.726-1.128 7.587-4.849 8.628-3.721 1.051-7.592-1.133-8.633-4.849l-.8-2.839c-5.548 20.157-8.358 41.018-8.358 62.188 0 26.91 4.54 53.3 13.467 78.407 1.301 3.644-.598 7.654-4.237 8.941-.781.28-1.571.41-2.352.41-2.877 0-5.577-1.788-6.599-4.651-9.471-26.631-14.282-54.587-14.282-83.107 0-22.302 2.94-44.282 8.763-65.538l-1.533 1.248c-2.988 2.439-7.399 2-9.838-1.003zm337.769 289.882c1.301 3.639-.597 7.64-4.237 8.936-26.631 9.471-54.592 14.282-83.112 14.282-22.302 0-44.272-2.94-65.543-8.758l1.253 1.528c2.439 2.993 2 7.404-1.002 9.852-1.301 1.06-2.868 1.571-4.42 1.571-2.029 0-4.049-.882-5.427-2.574l-16.412-20.119c-1.49-1.831-1.957-4.29-1.239-6.541.708-2.246 2.511-3.991 4.781-4.627l24.876-6.97c3.721-1.041 7.592 1.128 8.633 4.849 1.051 3.721-1.133 7.592-4.849 8.628l-2.854.8c20.172 5.553 41.033 8.363 62.203 8.363 26.91 0 53.3-4.531 78.408-13.472 3.644-1.297 7.649.602 8.941 4.251zm162.069-149.45-20.119 16.412c-1.258 1.027-2.829 1.567-4.42 1.567-.708 0-1.417-.111-2.111-.328-2.251-.713-3.991-2.511-4.627-4.782l-6.97-24.881c-1.041-3.716 1.128-7.587 4.849-8.628 3.731-1.041 7.587 1.128 8.628 4.849l.8 2.849c5.553-20.167 8.363-41.028 8.363-62.198 0-26.91-4.531-53.291-13.472-78.413-1.301-3.639.598-7.64 4.251-8.936 3.639-1.301 7.64.598 8.941 4.246 9.467 26.621 14.277 54.592 14.277 83.102 0 22.297-2.94 44.282-8.758 65.538l1.528-1.249c2.988-2.439 7.404-1.99 9.852 1.003 2.439 2.998 1.99 7.409-1.012 9.847zm-336.771-299.72c-1.297-3.654.603-7.649 4.251-8.951 26.621-9.471 54.582-14.281 83.102-14.281 22.298 0 44.277 2.95 65.538 8.763l-1.248-1.533c-2.439-2.989-1.991-7.399.998-9.838 3.003-2.448 7.413-2 9.852.998l16.408 20.124c1.489 1.827 1.962 4.275 1.253 6.541-.723 2.246-2.521 3.977-4.791 4.618l-24.881 6.97c-.632.178-1.268.26-1.89.26-3.06 0-5.871-2.019-6.738-5.109-1.041-3.721 1.128-7.591 4.849-8.633l2.849-.8c-20.167-5.548-41.028-8.358-62.198-8.358-26.91 0-53.29 4.541-78.412 13.472-3.639 1.297-7.64-.603-8.941-4.242zm255.183 25.291c17.347 0 31.47 14.108 31.47 31.47s-14.123 31.47-31.47 31.47-31.48-14.123-31.48-31.47 14.118-31.47 31.48-31.47zm0 76.937c25.069 0 45.468-20.398 45.468-45.467s-20.398-45.472-45.468-45.472-45.477 20.394-45.477 45.472 20.398 45.467 45.477 45.467zm-335.649-76.937c17.347 0 31.47 14.108 31.47 31.47s-14.123 31.47-31.47 31.47-31.475-14.123-31.475-31.47 14.113-31.47 31.475-31.47zm0 76.937c25.069 0 45.468-20.398 45.468-45.467s-20.398-45.472-45.468-45.472-45.472 20.394-45.472 45.472 20.389 45.467 45.472 45.467zm-68.02-52.21v13.472l7.548 1.489c2.289.453 4.213 2.029 5.109 4.189l7.442 17.955c.887 2.159.651 4.627-.66 6.574l-4.28 6.392 9.52 9.529 6.391-4.29c1.947-1.297 4.42-1.547 6.579-.651l17.95 7.433c2.169.901 3.74 2.82 4.189 5.119l1.489 7.553h13.472l1.489-7.553c.448-2.299 2.029-4.218 4.189-5.119l17.95-7.433c2.164-.896 4.632-.646 6.579.651l6.391 4.29 9.529-9.529-4.29-6.392c-1.302-1.947-1.548-4.405-.646-6.574l7.428-17.955c.901-2.159 2.82-3.736 5.119-4.189l7.543-1.489v-13.472l-7.543-1.489c-2.299-.448-4.217-2.02-5.119-4.189l-7.428-17.95c-.901-2.159-.656-4.632.646-6.57l4.29-6.401-9.529-9.52-6.391 4.28c-1.947 1.311-4.415 1.552-6.579.66l-17.95-7.437c-2.159-.901-3.74-2.824-4.189-5.114l-1.489-7.548h-13.472l-1.489 7.548c-.448 2.289-2.02 4.212-4.189 5.114l-17.95 7.437c-2.159.892-4.632.651-6.579-.66l-6.391-4.28-9.52 9.52 4.28 6.392c1.311 1.947 1.548 4.42.66 6.579l-7.442 17.95c-.897 2.169-2.82 3.74-5.109 4.189zm227.13-5.027c6.488 0 11.771 5.278 11.771 11.77s-5.283 11.761-11.771 11.761-11.771-5.273-11.771-11.761 5.278-11.77 11.771-11.77zm-46.542 172.5c0 6.488-5.278 11.771-11.761 11.771s-11.771-5.283-11.771-11.771 5.283-11.761 11.771-11.761 11.761 5.283 11.761 11.761zm-188.951-141.373 9.52 1.87 4.57 11.033-5.399 8.05c-1.87 2.781-1.509 6.488.863 8.85l17.661 17.66c2.367 2.367 6.068 2.728 8.85.868l8.059-5.398 11.019 4.56 1.88 9.52c.65 3.278 3.519 5.649 6.868 5.649h24.982c3.34 0 6.218-2.372 6.859-5.649l1.88-9.52 11.028-4.56 8.054 5.398c2.776 1.861 6.488 1.499 8.85-.868l3.88-3.885 40.768 40.773v32.232c-10.821 3.061-18.769 13.009-18.769 24.79 0 14.209 11.558 25.768 25.768 25.768s25.763-11.558 25.763-25.768c0-11.78-7.948-21.729-18.76-24.79v-35.128c0-1.861-.742-3.644-2.063-4.95l-42.807-42.821 3.88-3.88c2.367-2.362 2.728-6.069.868-8.85l-5.399-8.05 4.56-11.033 9.52-1.87c3.278-.651 5.639-3.528 5.639-6.869v-5.49h52.312c3.056 10.811 13.009 18.76 24.79 18.76 14.21 0 25.768-11.549 25.768-25.758s-11.558-25.773-25.768-25.773c-11.78 0-21.734 7.953-24.79 18.769h-52.312v-5.49c0-3.35-2.361-6.218-5.639-6.869l-9.52-1.88-4.56-11.019 5.399-8.064c1.86-2.776 1.499-6.478-.868-8.845l-17.661-17.66c-2.362-2.371-6.073-2.733-8.85-.863l-8.054 5.403-11.028-4.569-1.88-9.51c-.641-3.292-3.519-5.654-6.859-5.654h-24.982c-3.35 0-6.218 2.362-6.868 5.654l-1.88 9.51-11.019 4.569-8.059-5.403c-2.781-1.87-6.483-1.509-8.85.863l-17.661 17.66c-2.371 2.367-2.733 6.068-.863 8.845l5.399 8.064-4.57 11.019-9.52 1.88c-3.278.651-5.639 3.519-5.639 6.869v24.982c0 3.34 2.362 6.218 5.639 6.869zm76.383 347.761c-17.362 0-31.475-14.118-31.475-31.47s14.113-31.48 31.475-31.48 31.47 14.118 31.47 31.48-14.123 31.47-31.47 31.47zm0-76.952c-25.084 0-45.472 20.403-45.472 45.482s20.389 45.472 45.472 45.472 45.468-20.403 45.468-45.472-20.398-45.482-45.468-45.482zm55.349 57.893c.901-2.159 2.82-3.74 5.119-4.193l7.543-1.489v-13.467l-7.543-1.489c-2.299-.453-4.217-2.025-5.119-4.193l-7.428-17.95c-.901-2.159-.656-4.627.646-6.579l4.29-6.387-9.529-9.524-6.391 4.28c-1.947 1.311-4.415 1.552-6.579.66l-17.95-7.437c-2.159-.901-3.74-2.82-4.189-5.109l-1.489-7.553h-13.472l-1.489 7.553c-.448 2.289-2.02 4.208-4.189 5.109l-17.95 7.437c-2.159.892-4.632.651-6.579-.66l-6.391-4.28-9.52 9.524 4.28 6.387c1.311 1.952 1.548 4.42.66 6.579l-7.442 17.95c-.897 2.169-2.82 3.74-5.109 4.193l-7.548 1.489v13.467l7.548 1.489c2.289.453 4.213 2.034 5.109 4.193l7.442 17.95c.887 2.159.651 4.627-.66 6.579l-4.28 6.386 9.52 9.534 6.391-4.29c1.947-1.311 4.42-1.552 6.579-.651l17.95 7.428c2.169.901 3.74 2.82 4.189 5.124l1.489 7.538h13.472l1.489-7.538c.448-2.304 2.029-4.222 4.189-5.124l17.95-7.428c2.164-.901 4.632-.66 6.579.651l6.391 4.29 9.529-9.534-4.29-6.386c-1.302-1.952-1.548-4.42-.646-6.579zm-67.119-178.361c0-6.478 5.278-11.761 11.771-11.761s11.761 5.283 11.761 11.761-5.273 11.771-11.761 11.771-11.771-5.283-11.771-11.771zm113.059 48.008c2.217-2.217 5.177-3.446 8.319-3.446s6.102 1.229 8.319 3.446c2.222 2.222 3.451 5.182 3.451 8.319s-1.229 6.102-3.451 8.324c-4.589 4.589-12.05 4.589-16.639 0-4.589-4.593-4.589-12.05 0-16.644zm-38.999 150.193 4.56-11.019 9.52-1.885c3.278-.636 5.639-3.519 5.639-6.859v-24.977c0-3.35-2.361-6.223-5.639-6.869l-9.52-1.885-4.56-11.019 5.399-8.059c1.86-2.781 1.499-6.478-.868-8.849l-3.88-3.88 34.087-34.092c3.89 2.179 8.242 3.283 12.58 3.283 6.603 0 13.202-2.521 18.22-7.538 4.873-4.863 7.553-11.342 7.553-18.225s-2.68-13.347-7.553-18.22c-4.868-4.859-11.342-7.548-18.22-7.548s-13.352 2.69-18.22 7.548c-8.329 8.329-9.751 20.991-4.261 30.805l-34.087 34.087-3.88-3.88c-2.362-2.371-6.073-2.728-8.85-.868l-8.054 5.408-11.028-4.569-1.88-9.52c-.641-3.283-3.519-5.64-6.859-5.64h-5.49v-59.132c10.811-3.061 18.759-13.009 18.759-24.799 0-14.2-11.563-25.758-25.758-25.758s-25.773 11.558-25.773 25.758c0 11.79 7.953 21.738 18.769 24.799v59.132h-5.49c-3.35 0-6.218 2.357-6.868 5.64l-1.88 9.52-11.019 4.569-8.059-5.408c-2.781-1.86-6.483-1.504-8.85.868l-17.661 17.661c-2.371 2.371-2.733 6.068-.863 8.849l5.399 8.059-4.57 11.019-9.52 1.885c-3.278.646-5.639 3.519-5.639 6.869v24.977c0 3.34 2.362 6.223 5.639 6.859l9.52 1.885 4.57 11.019-5.399 8.059c-1.87 2.781-1.509 6.478.863 8.85l17.661 17.661c2.367 2.371 6.068 2.728 8.85.868l8.059-5.399 11.019 4.56 1.88 9.52c.65 3.283 3.519 5.64 6.868 5.64h24.982c3.34 0 6.218-2.357 6.859-5.64l1.88-9.52 11.028-4.56 8.054 5.399c2.776 1.86 6.488 1.504 8.85-.868l17.661-17.661c2.367-2.372 2.728-6.068.868-8.85l-5.399-8.059zm273.359-.781c-17.362 0-31.48-14.118-31.48-31.47s14.118-31.48 31.48-31.48 31.47 14.118 31.47 31.48-14.123 31.47-31.47 31.47zm0-76.952c-25.079 0-45.477 20.403-45.477 45.482s20.398 45.472 45.477 45.472 45.468-20.403 45.468-45.472-20.398-45.482-45.468-45.482zm68.011 52.211v-13.467l-7.543-1.489c-2.299-.453-4.217-2.025-5.119-4.193l-7.428-17.95c-.901-2.159-.66-4.627.651-6.579l4.28-6.387-9.52-9.524-6.391 4.28c-1.952 1.311-4.42 1.552-6.579.66l-17.95-7.437c-2.174-.901-3.74-2.82-4.193-5.109l-1.489-7.553h-13.467l-1.489 7.553c-.453 2.289-2.02 4.208-4.194 5.109l-17.95 7.437c-2.159.892-4.627.651-6.579-.66l-6.392-4.28-9.52 9.524 4.28 6.387c1.311 1.952 1.552 4.42.66 6.579l-7.437 17.95c-.901 2.169-2.825 3.74-5.114 4.193l-7.548 1.489v13.467l7.548 1.489c2.289.453 4.213 2.034 5.114 4.193l7.437 17.95c.892 2.159.651 4.627-.66 6.579l-4.28 6.386 9.52 9.534 6.392-4.29c1.952-1.311 4.42-1.552 6.579-.651l17.95 7.428c2.174.901 3.74 2.82 4.194 5.124l1.489 7.538h13.467l1.489-7.538c.453-2.304 2.02-4.222 4.193-5.124l17.95-7.428c2.159-.901 4.627-.66 6.579.651l6.391 4.29 9.52-9.534-4.28-6.386c-1.311-1.952-1.552-4.42-.651-6.579l7.428-17.95c.901-2.159 2.82-3.74 5.119-4.193zm-211.701-128.469c0-6.492 5.278-11.77 11.761-11.77s11.771 5.278 11.771 11.77-5.283 11.771-11.771 11.771-11.761-5.283-11.761-11.771zm220.059 102.383-9.52-1.885-4.569-11.019 5.408-8.059c1.861-2.781 1.504-6.478-.868-8.849l-17.66-17.661c-2.362-2.371-6.068-2.728-8.85-.868l-8.049 5.408-11.033-4.569-1.875-9.52c-.641-3.283-3.523-5.64-6.864-5.64h-24.977c-3.35 0-6.232 2.357-6.874 5.64l-1.88 9.52-11.019 4.569-8.059-5.408c-2.781-1.86-6.483-1.504-8.85.868l-17.66 17.661c-2.371 2.371-2.733 6.068-.872 8.849l5.413 8.059-4.569 11.019-9.52 1.885c-3.283.646-5.64 3.519-5.64 6.869v5.49h-42.903v-89.951c10.811-3.061 18.76-13.009 18.76-24.79 0-14.209-11.559-25.773-25.768-25.773s-25.763 11.563-25.763 25.773c0 11.78 7.953 21.729 18.774 24.79v96.95c0 3.861 3.128 6.999 6.999 6.999h49.902v5.49c0 3.34 2.357 6.223 5.64 6.859l9.52 1.885 4.569 11.019-5.413 8.059c-1.861 2.781-1.499 6.478.872 8.85l17.66 17.661c2.367 2.371 6.069 2.728 8.85.868l8.059-5.399 11.019 4.56 1.88 9.52c.641 3.283 3.524 5.64 6.874 5.64h24.977c3.34 0 6.223-2.357 6.864-5.64l1.875-9.52 11.024-4.56 8.059 5.399c2.781 1.86 6.488 1.504 8.85-.868l17.66-17.661c2.372-2.372 2.728-6.068.868-8.85l-5.408-8.059 4.569-11.019 9.52-1.885c3.282-.636 5.639-3.519 5.639-6.859v-24.977c0-3.35-2.357-6.223-5.639-6.869zm-131.728-328.712c-.901 2.169-2.825 3.74-5.114 4.189l-7.548 1.489v13.472l7.548 1.489c2.289.453 4.213 2.029 5.114 4.189l7.437 17.955c.892 2.159.651 4.627-.66 6.574l-4.28 6.392 9.52 9.529 6.392-4.29c1.952-1.297 4.42-1.547 6.579-.651l17.95 7.433c2.174.901 3.74 2.82 4.194 5.119l1.489 7.553h13.467l1.489-7.553c.453-2.299 2.02-4.218 4.193-5.119l17.95-7.433c2.159-.896 4.627-.646 6.579.651l6.391 4.29 9.52-9.529-4.28-6.392c-1.311-1.947-1.552-4.415-.651-6.574l7.428-17.955c.901-2.159 2.82-3.736 5.119-4.189l7.543-1.489v-13.472l-7.543-1.489c-2.299-.448-4.217-2.02-5.119-4.189l-7.428-17.95c-.901-2.159-.66-4.632.651-6.579l4.28-6.392-9.52-9.52-6.391 4.28c-1.952 1.311-4.42 1.552-6.579.66l-17.95-7.437c-2.174-.901-3.74-2.824-4.193-5.114l-1.489-7.548h-13.467l-1.489 7.548c-.453 2.289-2.02 4.212-4.194 5.114l-17.95 7.437c-2.159.892-4.627.651-6.579-.66l-6.392-4.28-9.52 9.52 4.28 6.401c1.311 1.938 1.552 4.41.66 6.57zm67.119 171.531c0 6.488-5.283 11.77-11.761 11.77s-11.771-5.283-11.771-11.77 5.283-11.77 11.771-11.77 11.761 5.278 11.761 11.77zm-175.792-60.352c-6.488 0-11.77-5.278-11.77-11.771s5.283-11.761 11.77-11.761 11.761 5.273 11.761 11.761-5.283 11.771-11.761 11.771zm101.742-131.019-4.569 11.019-9.52 1.88c-3.283.651-5.64 3.519-5.64 6.869v24.982c0 3.34 2.357 6.218 5.64 6.869l9.52 1.87 4.569 11.033-5.413 8.05c-1.861 2.781-1.499 6.488.872 8.85l3.88 3.88-42.421 42.416-32.911-8.806c-.178-14.051-11.66-25.421-25.749-25.421-14.209 0-25.768 11.549-25.768 25.758s11.559 25.773 25.768 25.773c9.39 0 17.622-5.061 22.129-12.59l36.811 9.857c.602.164 1.21.241 1.812.241 1.827 0 3.62-.718 4.95-2.049l45.28-45.284 3.88 3.885c2.367 2.367 6.069 2.728 8.85.868l8.059-5.398 11.019 4.56 1.88 9.52c.641 3.278 3.524 5.649 6.874 5.649h5.49v52.302c-10.821 3.061-18.769 13.009-18.769 24.789 0 14.21 11.558 25.768 25.768 25.768s25.758-11.558 25.758-25.768c0-11.78-7.948-21.729-18.76-24.789v-52.302h5.49c3.34 0 6.223-2.372 6.864-5.649l1.875-9.52 11.024-4.56 8.059 5.398c2.781 1.861 6.488 1.499 8.85-.868l17.66-17.66c2.372-2.362 2.728-6.069.868-8.85l-5.408-8.05 4.569-11.033 9.52-1.87c3.282-.651 5.639-3.528 5.639-6.869v-24.982c0-3.35-2.357-6.218-5.639-6.869l-9.52-1.88-4.569-11.019 5.408-8.064c1.861-2.776 1.504-6.478-.868-8.845l-17.66-17.66c-2.362-2.371-6.068-2.733-8.85-.863l-8.049 5.403-11.033-4.569-1.875-9.51c-.641-3.292-3.523-5.654-6.864-5.654h-24.977c-3.35 0-6.232 2.362-6.874 5.654l-1.88 9.51-11.019 4.569-8.059-5.403c-2.781-1.87-6.483-1.509-8.85.863l-17.66 17.66c-2.371 2.367-2.733 6.068-.872 8.845l5.413 8.064z"/></g></svg>