<svg id="Layer_1" viewBox="0 0 512 512" xmlns="http://www.w3.org/2000/svg" data-name="Layer 1"><g fill-rule="evenodd"><path d="m72.503 83.824-7.062 107.962h49.403l-7.063-107.962z" fill="#fdc72e"/><path d="m72.503 83.824-7.062 107.962h37.703l-7.063-107.962z" fill="#fcdb35"/><path d="m177.862 142 46.855-27.904v132.14h-46.855z" fill="#85caff"/><path d="m213.207 120.95 11.51-6.854v132.14h-11.51z" fill="#2a93fc"/><path d="m133.46 170.348v75.888h44.402v-105.365l-44.402-25.635-40.812 23.563v11.511z" fill="#fdb0a0"/><path d="m133.46 170.348v75.888h32.102v-105.365l-38.252-22.085-34.662 20.013v11.511z" fill="#ffcec0"/><path d="m11.022 246.236h122.438v-75.888l-40.812-20.038h-42.115l-39.511 19.398z" fill="#2a93fc"/><path d="m11.022 246.236h110.138v-75.888l-40.812-20.038h-29.815l-39.511 19.398z" fill="#85caff"/><path d="m69.197 33.767h8.458c-1.064-1.9-1.673-4.085-1.673-6.407 0-19.477 35.315-23.389 39.196-1.708 12.622-10.673 28.473 2.512 20.93 16.032h10.364c5.286 0 9.611 4.325 9.611 9.612s-4.325 9.612-9.611 9.612h-38.004c-4.696 0-8.527 3.83-8.527 8.527v7.965h-19.596v-7.965c0-4.696-3.831-8.527-8.527-8.527h-2.621c-7.464 0-13.57-6.106-13.57-13.57s6.106-13.571 13.57-13.571z" fill="#b6dbff"/><path d="m69.197 33.767h8.458c-1.8-22.176 29.593-24.997 31.223-3.316 7.002-8.617 21.431-6.076 21.78 5.13h-10.983c-1.685 0-3.051 1.366-3.051 3.051s1.366 3.051 3.051 3.051h18.396c5.286 0 9.611 4.325 9.611 9.612s-4.325 9.612-9.611 9.612h-38.004c-4.696 0-8.527 3.83-8.527 8.527v7.965h-11.196v-7.965c0-4.696-3.831-8.527-8.527-8.527h-2.621c-7.464 0-13.57-6.106-13.57-13.57s6.106-13.571 13.57-13.571z" fill="#e3f1ff"/></g><rect fill="#f19a00" height="17.751" rx="3.312" width="42.925" x="68.68" y="77.4"/><rect fill="#f9ac00" height="17.751" rx="3.312" width="31.225" x="68.68" y="77.4"/><path d="m171.879 60.908h7.693c5.287 0 9.612-4.325 9.612-9.612 0-5.287-4.325-9.612-9.612-9.612h-7.693c-5.287 0-9.612 4.325-9.612 9.612 0 5.287 4.325 9.612 9.612 9.612z" fill="#b6dbff" fill-rule="evenodd"/><path d="m171.525 41.691c-5.124.188-9.258 4.436-9.258 9.605 0 5.168 4.134 9.417 9.258 9.605 5.125-.188 9.259-4.436 9.259-9.605 0-5.168-4.134-9.417-9.259-9.605z" fill="#e3f1ff" fill-rule="evenodd"/><path d="m58.285 372.322c-2.945 2.492-7.352 2.124-9.844-.82-2.492-2.945-2.124-7.352.82-9.844l86.857-73.5c2.721-2.302 6.69-2.164 9.244.194l74.706 61.418 109.295-205.58c1.812-3.413 6.048-4.71 9.461-2.898s4.71 6.048 2.898 9.461l-113.301 213.114c-2.044 3.844-7.229 4.885-10.609 2.106l-77.109-63.393-82.418 69.744z" fill="#7986bf" fill-rule="evenodd"/><path d="m27.154 423.24h53.239v77.76h-53.239z" fill="#ff5471"/><circle cx="53.773" cy="366.99" fill="#f23353" r="24" transform="matrix(.707 -.707 .707 .707 -243.751 145.512)"/><path d="m47.346 390.117c-10.133-2.81-17.572-12.1-17.572-23.128s7.439-20.318 17.572-23.128c10.133 2.81 17.572 12.1 17.572 23.128s-7.439 20.318-17.572 23.128z" fill="#ff5471" fill-rule="evenodd"/><circle cx="140.63" cy="293.49" fill="#2dd62d" r="24" transform="matrix(.707 -.707 .707 .707 -166.339 185.402)"/><path d="m134.202 316.618c-10.133-2.81-17.572-12.1-17.572-23.128s7.439-20.318 17.572-23.128c10.133 2.81 17.572 12.1 17.572 23.128s-7.439 20.318-17.572 23.128z" fill="#43f043" fill-rule="evenodd"/><path d="m222.242 380.089c10.743 0 19.505-8.762 19.505-19.505s-8.762-19.505-19.505-19.505-19.505 8.762-19.505 19.505 8.762 19.505 19.505 19.505z" fill="#fdc72e" fill-rule="evenodd"/><path d="m215.814 379.004c-7.614-2.657-13.077-9.899-13.077-18.419s5.463-15.762 13.077-18.419c7.614 2.657 13.077 9.899 13.077 18.419s-5.463 15.762-13.077 18.419z" fill="#fcdb35" fill-rule="evenodd"/><circle cx="354.451" cy="111.906" fill="#2a93fc" r="56.251"/><path d="m350.101 167.99c-29.034-2.22-51.901-26.482-51.901-56.085s22.867-53.864 51.901-56.085c29.034 2.22 51.901 26.482 51.901 56.085s-22.867 53.864-51.901 56.085z" fill="#6fbffc" fill-rule="evenodd"/><path d="m114.011 357.982h53.239v143.018h-53.239z" fill="#43f043"/><path d="m200.867 408.232h53.239v92.768h-53.239z" fill="#fcdb35"/><path d="m287.724 297.232h53.239v203.768h-53.239z" fill="#85caff"/><path d="m53.403 193.353h23.277c3.786 0 6.883 3.097 6.883 6.883v46.001h-37.043v-46.001c0-3.786 3.097-6.883 6.883-6.883z" fill="#2a93fc" fill-rule="evenodd"/><path d="m60.603 193.353h23.277c3.786 0 6.883 3.097 6.883 6.883v46.001h-37.043v-46.001c0-3.786 3.097-6.883 6.883-6.883z" fill="#f3f3ff" fill-rule="evenodd"/><path d="m62.305 423.24h18.088v77.76h-18.088z" fill="#f23353"/><path d="m149.162 357.982h18.088v143.018h-18.088z" fill="#2dd62d"/><path d="m236.018 408.232h18.088v92.768h-18.088z" fill="#fdc72e"/><path d="m322.875 297.232h18.088v203.768h-18.088z" fill="#4eb1fc"/><circle cx="348.151" cy="111.906" fill="#2a93fc" r="28.132" transform="matrix(.386 -.923 .923 .386 110.535 389.882)"/><circle cx="354.451" cy="111.906" fill="#f3f3ff" r="28.132" transform="matrix(.386 -.923 .923 .386 114.403 395.693)"/><path d="m343.955 194.113c8.806-2.359 17.941 2.915 20.301 11.72l-20.276-75.673c-2.115-7.892 2.612-16.079 10.504-18.194s16.079 2.612 18.194 10.504l16.104 60.099c-1.934-7.218 2.389-14.707 9.607-16.641 7.219-1.934 14.707 2.389 16.641 9.608l1.153 4.303c-1.856-6.927 2.293-14.113 9.219-15.968 6.927-1.856 14.113 2.292 15.969 9.219l2.767 10.327c-1.798-6.708 2.22-13.667 8.929-15.465 6.708-1.797 13.667 2.22 15.464 8.928l8.061 30.084 9.153 34.16c4.637 17.305 2.378 55.82-14.927 60.457l-75.248 17.306-1.375-5.131c-2.462-9.188-8.084-16.157-16.543-20.508l-15.364-7.901c-8.459-4.35-14.081-11.32-16.543-20.508l-13.512-50.427c-2.359-8.806 2.915-17.941 11.72-20.301z" fill="#fdb0a0" fill-rule="evenodd"/><path d="m362.043 200.946c.977 1.461 1.734 3.102 2.212 4.887l-20.276-75.673c-2.114-7.892 2.613-16.079 10.505-18.194 7.892-2.114 16.079 2.613 18.194 10.505l16.104 60.098c-1.934-7.218 2.389-14.706 9.607-16.641 7.218-1.934 14.707 2.389 16.641 9.607l1.153 4.303c-1.856-6.926 2.293-14.112 9.219-15.968 6.927-1.856 14.113 2.292 15.969 9.219l2.767 10.327c-1.798-6.708 2.22-13.667 8.929-15.465 6.708-1.797 13.667 2.22 15.464 8.928l8.061 30.084 9.153 34.16c4.637 17.305 2.378 55.82-14.927 60.457l-64.649 14.868-2.736-10.213c-2.462-9.188-8.084-16.158-16.543-20.508l-15.364-7.901c-8.459-4.35-14.081-11.32-16.543-20.508l-12.706-47.418c-1.404-5.241 1.141-10.623 6.083-12.862s10.667-.605 13.682 3.905z" fill="#ffcec0" fill-rule="evenodd"/><path d="m395.429 296.193h98.883c3.2 0 5.799 2.598 5.799 5.799v19.72c0 3.2-2.598 5.799-5.799 5.799h-98.883c-3.2 0-5.798-2.598-5.798-5.798v-19.721c0-3.2 2.598-5.798 5.798-5.798z" fill="#f2671f" transform="matrix(.966 -.259 .259 .966 -65.555 125.768)"/><path d="m416.06 293.477h77.895c3.2 0 5.798 2.598 5.798 5.798v19.72c0 3.2-2.598 5.799-5.799 5.799h-77.894c-3.2 0-5.798-2.598-5.798-5.798v-19.721c0-3.2 2.598-5.798 5.798-5.798z" fill="#ff8748" transform="matrix(.966 -.259 .259 .966 -64.506 128.298)"/><path d="m350.775 113.527 31.268 116.695c.774 2.886-.956 5.882-3.843 6.655s-5.882-.955-6.656-3.842l-27.565-102.875c-1.757-6.559 1.212-13.322 6.796-16.634z" fill="#fdb0a0" fill-rule="evenodd"/><path d="m395.834 166.898 8.105 30.246c.773 2.887-.956 5.882-3.843 6.656-2.887.773-5.882-.956-6.656-3.843l-4.659-17.388c-1.694-6.319 1.41-12.846 7.053-15.671z" fill="#fdb0a0" fill-rule="evenodd"/><path d="m423.355 164.609 7.136 26.633c.773 2.887-.956 5.882-3.843 6.656-2.887.773-5.882-.956-6.656-3.843l-3.809-14.216c-1.665-6.213 1.502-12.634 7.171-15.23z" fill="#fdb0a0" fill-rule="evenodd"/><path d="m451.401 168.527 5.958 22.233c.774 2.886-.956 5.882-3.843 6.656s-5.882-.955-6.656-3.843l-2.721-10.156c-1.644-6.132 1.574-12.473 7.263-14.89z" fill="#fdb0a0" fill-rule="evenodd"/></svg>