<svg id="Layer_1" viewBox="0 0 512 512" xmlns="http://www.w3.org/2000/svg" data-name="Layer 1"><path d="m92.985 433.206c0 6.533 5.346 11.879 11.879 11.879h43.741c6.534 0 11.879-5.346 11.879-11.879v-2.025c0-32.694 33.75-41.878 33.75-85.815 0-40.312-33.75-60.469-67.5-60.469s-67.5 20.156-67.5 60.469c0 43.937 33.75 53.121 33.75 85.815v2.025z" fill="#fcdb35" fill-rule="evenodd"/><path d="m92.985 433.206c0 6.533 5.346 11.879 11.879 11.879h30.327c6.533 0 11.879-5.346 11.879-11.879v-5.092c0-32.694 33.75-41.878 33.75-85.815 0-30.102-18.82-48.963-42.405-56.587-3.859-.541-7.769-.816-11.68-.816-33.75 0-67.5 20.156-67.5 60.469 0 43.937 33.75 53.121 33.75 85.815v2.025z" fill="#ffeb87" fill-rule="evenodd"/><path d="m451.289 469.784h-145.577c-7.394 0-13.742-3.665-17.439-10.068s-3.697-13.733 0-20.137l72.789-126.074c3.697-6.403 10.045-10.068 17.439-10.068s13.741 3.665 17.438 10.068l72.789 126.074c3.697 6.404 3.697 13.734 0 20.137s-10.044 10.068-17.438 10.068z" fill="#f23353" fill-rule="evenodd"/><path d="m430.722 469.784h-125.011c-7.394 0-13.742-3.665-17.439-10.068s-3.697-13.733 0-20.136l72.789-126.074c1.812-3.138 4.26-5.617 7.156-7.33 2.895 1.713 5.343 4.193 7.155 7.33l72.789 126.074c3.697 6.403 3.697 13.733 0 20.136s-10.045 10.068-17.439 10.068z" fill="#ff5471" fill-rule="evenodd"/><path d="m501 249c3.866 0 7 3.134 7 7s-3.134 7-7 7h-238v238c0 3.866-3.134 7-7 7s-7-3.134-7-7v-238h-238c-3.866 0-7-3.134-7-7s3.134-7 7-7h238v-238c0-3.866 3.134-7 7-7s7 3.134 7 7v238z" fill="#7986bf" fill-rule="evenodd"/><path d="m302 93.781h31.5v114.75h-31.5z" fill="#43f043"/><path d="m362.75 123.78h31.5v84.75h-31.5z" fill="#fcdb35"/><path d="m423.5 153.779h31.5v54.751h-31.5z" fill="#ff5471"/><path d="m114.09 484.275h25.288v7.038c0 5.327-4.362 9.688-9.688 9.688h-5.912c-5.327 0-9.688-4.36-9.688-9.688z" fill="#5d689e" fill-rule="evenodd"/><path d="m114.09 484.275h16.663v7.038c0 4.867-3.641 8.927-8.332 9.592-4.691-.665-8.332-4.724-8.332-9.592v-7.038z" fill="#7986bf" fill-rule="evenodd"/><path d="m101.789 486.95c-3.866 0-7-3.134-7-7s3.134-7 7-7h49.891c3.866 0 7 3.134 7 7s-3.134 7-7 7z" fill="#909cd1" fill-rule="evenodd"/><path d="m98.522 466.017c-3.866 0-7-3.134-7-7s3.134-7 7-7h56.424c3.866 0 7 3.134 7 7s-3.134 7-7 7z" fill="#909cd1" fill-rule="evenodd"/><path d="m214.433 286.676c3.337-1.918 7.598-.767 9.516 2.57s.767 7.598-2.57 9.516l-13.337 7.7c-3.337 1.918-7.598.767-9.516-2.57s-.767-7.598 2.57-9.516zm-182.343 12.086c-3.337-1.918-4.488-6.178-2.57-9.516 1.918-3.337 6.178-4.488 9.516-2.57l13.337 7.7c3.337 1.918 4.488 6.178 2.57 9.516-1.918 3.337-6.178 4.488-9.516 2.57zm-10.896 53.135c-3.866 0-7-3.134-7-7s3.134-7 7-7h15.4c3.866 0 7 3.134 7 7s-3.134 7-7 7zm14.352 48.141c-3.337 1.918-7.598.767-9.516-2.57s-.767-7.598 2.57-9.516l13.337-7.7c3.337-1.918 7.598-.767 9.516 2.57s.767 7.598-2.57 9.516zm196.727-62.113c3.851 0 6.973 3.122 6.973 6.973s-3.122 6.973-6.973 6.973h-15.4c-3.851 0-6.973-3.122-6.973-6.973s3.122-6.973 6.973-6.973zm-7.407 50.028c3.337 1.918 4.488 6.178 2.57 9.516s-6.178 4.488-9.516 2.57l-13.336-7.7c-3.337-1.918-4.488-6.178-2.57-9.516 1.918-3.337 6.178-4.488 9.516-2.57z" fill="#fcdb35" fill-rule="evenodd"/><path d="m367.557 349.711 3.532 58.077c.195 3.207 2.844 5.7 6.057 5.7h2.708c3.213 0 5.862-2.493 6.057-5.7l3.532-58.077c.123-2.021-.523-3.806-1.911-5.281s-3.131-2.228-5.156-2.228h-7.753c-2.025 0-3.768.753-5.156 2.228s-2.033 3.26-1.911 5.281zm10.943 80.996c5.107 0 9.246 4.139 9.246 9.246s-4.139 9.246-9.246 9.246-9.246-4.14-9.246-9.246 4.14-9.246 9.246-9.246z" fill="#f3f3ff" fill-rule="evenodd"/><path d="m324.924 93.781h8.576v114.75h-8.576z" fill="#2dd62d"/><path d="m385.674 123.78h8.576v84.75h-8.576z" fill="#fdc72e"/><path d="m446.424 153.779h8.576v54.751h-8.576z" fill="#f23353"/><g fill-rule="evenodd"><path d="m444.201 106.557c-1.842-3.383-.594-7.618 2.789-9.461 3.383-1.842 7.618-.594 9.461 2.789l13.618 24.878c2.551 4.684-.9 10.307-6.112 10.311l-28.23.643c-3.851.075-7.034-2.985-7.109-6.836s2.985-7.034 6.836-7.109l3.611-.082-133.265-76.941c-3.337-1.918-4.488-6.178-2.57-9.516 1.918-3.337 6.178-4.488 9.516-2.57l133.059 76.821-1.602-2.927z" fill="#7986bf"/><path d="m130.211 445.085v-49.433c-1.157.087-2.317.13-3.477.13s-2.319-.044-3.476-.13v49.433h-13.946v-52.726c-.545-.227-1.113-.484-1.648-.733-8.103-3.779-15.021-10.104-19.16-18.978-4.76-10.204-4.593-18.63-1.894-23.903 2.294-4.483 6.182-7.013 10.856-7.254 3.94-.203 8.207 1.368 12.079 4.973 5.898 5.492 11.585 16.779 13.251 35.082 1.304.158 2.62.238 3.937.238s2.634-.079 3.937-.238c1.665-18.302 7.353-29.589 13.251-35.081 3.872-3.606 8.139-5.177 12.079-4.974 4.674.241 8.561 2.771 10.856 7.254 2.7 5.274 2.866 13.699-1.894 23.903-4.139 8.874-11.057 15.199-19.16 18.978-.535.249-1.104.5-1.648.727v52.732s-13.945 0-13.945 0zm23.227-88.395c-3.17 2.952-6.249 8.943-7.935 18.747 2.793-2.28 5.134-5.179 6.774-8.695 2.476-5.309 3.025-9.021 2.404-11.06-.321.204-.736.538-1.242 1.009zm-52.246 10.051c1.64 3.516 3.98 6.415 6.774 8.695-1.686-9.804-4.765-15.795-7.935-18.747-.506-.471-.921-.805-1.242-1.009-.622 2.04-.073 5.751 2.404 11.06z" fill="#ff8748"/><path d="m79.262 163.846-.981 64.951h86.374l-.973-43.871c-.206-9.269 1.617-17.258 5.819-25.521 13.289-26.128 27.441-32.059 31.744-65.651 1.799-14.035.434-26.909-4.654-35.488-3.082-5.197-8.433-9.257-17.225-10.227-1.318-.146-2.713-.221-4.19-.221h-103.094c-2.579 8.842-3.208 12.934-4.215 18.787-10.648 86.574 11.82 68.986 11.394 97.241z" fill="#fdb0a0"/><path d="m79.262 163.846-.981 64.951h73.955l-.973-43.871c-.205-9.269 1.617-17.258 5.82-25.521 13.289-26.128 27.44-32.059 31.744-65.651 1.799-14.035.434-26.909-4.653-35.488-3.083-5.197-8.434-9.257-17.225-10.227-1.297-.143-2.67-.219-4.121-.221h-90.746c-2.579 8.842-3.208 12.934-4.215 18.787-10.648 86.574 11.82 68.986 11.394 97.241z" fill="#ffcec0"/><path d="m135.342 11c8.325 0 15.136 6.811 15.136 15.136v21.682h-11.829c-8.325 0-15.136 6.81-15.136 15.136 0 1.178.137 2.325.394 3.428-2.303-2.658-3.701-6.118-3.701-9.89v-30.357c0-8.325 6.811-15.136 15.135-15.136z" fill="#fdb0a0"/><path d="m135.342 48.184c-6.748 1.519-11.828 7.579-11.828 14.769 0 .283.008.565.024.845-1.013-.735-1.895-1.641-2.601-2.675-.473-1.461-.73-3.018-.73-4.631v-30.357c0-8.325 6.811-15.136 15.135-15.136z" fill="#ffcec0"/><path d="m164.922 15.972c7.944 0 14.445 6.5 14.445 14.444v20.092c-2.469-1.224-5.401-2.087-8.867-2.47-1.298-.143-2.67-.219-4.121-.221h-15.901v-17.401c0-7.944 6.5-14.444 14.444-14.444z" fill="#fdb0a0"/><path d="m164.922 47.817h-14.444v-17.401c0-7.944 6.5-14.444 14.444-14.444z" fill="#ffcec0"/><path d="m78.789 23.037c7.096 0 12.901 5.805 12.901 12.901v23.821c0 7.096-5.805 12.901-12.901 12.901s-12.901-5.805-12.901-12.901v-23.821c0-7.095 5.805-12.901 12.901-12.901z" fill="#fdb0a0"/><path d="m78.789 64.228c-1.508 1.299-3.467 2.087-5.602 2.087-2.839 0-5.367-1.394-6.937-3.53-.236-.972-.362-1.985-.362-3.026v-23.821c0-7.096 5.805-12.901 12.901-12.901z" fill="#ffcec0"/><path d="m105.948 15.316c7.843 0 14.259 6.416 14.259 14.258v28.596c0 7.842-6.416 14.258-14.259 14.258s-14.258-6.416-14.258-14.258v-28.595c0-7.843 6.416-14.258 14.258-14.258z" fill="#fdb0a0"/><path d="m105.948 63.603c-1.562 1.051-3.44 1.667-5.453 1.667-3.757 0-7.038-2.14-8.686-5.26-.078-.602-.119-1.216-.119-1.839v-28.596c0-7.843 6.416-14.258 14.258-14.258z" fill="#ffcec0"/><path d="m144.48 87.079h-3.002c-13.219 0-24.003-10.784-24.003-24.003s10.784-24.003 24.003-24.003h36.528c.455 0 .908.006 1.36.019v8.871c-.446-.015-.899-.022-1.36-.022h-36.528c-8.324 0-15.135 6.811-15.135 15.135s6.81 15.136 15.135 15.136h18.936c5.855 0 4.275 2.788 1.82 4.9-9.843 8.465-24.851 19.468-28.746 43.462-.335 2.11-.484 4.169-.466 6.169.035 3.825-4.434 5.869-7.313 3.414-1.012-.863-1.544-2.003-1.556-3.332-.023-2.53.169-5.089.581-7.656 1.902-11.851 6.451-22.357 13.972-31.708 1.856-2.309 3.784-4.402 5.775-6.38z" fill="#fdb0a0"/><path d="m159.448 183.635h-76.817c-6.946 0-12.631 5.684-12.631 12.63v32.532h102.078v-32.532c0-6.947-5.684-12.63-12.631-12.63z" fill="#4eb1fc"/><path d="m135.479 183.635h-52.848c-6.946 0-12.631 5.684-12.631 12.63v32.532h78.109v-32.532c0-6.947-5.684-12.63-12.631-12.63z" fill="#6fbffc"/></g></svg>