<svg id="Layer_1" viewBox="0 0 512 512" xmlns="http://www.w3.org/2000/svg" data-name="Layer 1"><path d="m244.421 87.346v23.159h-64.404l-1.218-23.159z" fill="#3f5163" fill-rule="evenodd"/><path d="m188.124 79.04v39.77h-71.518a19.961 19.961 0 0 1 -19.9-19.9 19.937 19.937 0 0 1 19.9-19.871z" fill="#ffab02" fill-rule="evenodd"/><path d="m55.661 283.191h63.185v221.811h-63.185z" fill="#45bf64"/><path d="m280.647 223.466h63.213v281.537h-63.213z" fill="#ffab02"/><path d="m168.169 319.305h63.184v185.698h-63.184z" fill="#69a7ff"/><path d="m393.155 351.053h63.184v153.949h-63.184z" fill="#fb4455"/><g fill-rule="evenodd"><path d="m199.746 265.9a20.622 20.622 0 1 0 -20.608-20.608 20.669 20.669 0 0 0 20.608 20.608z" fill="#fb4455"/><path d="m87.268 209.264a20.622 20.622 0 1 0 -20.636-20.608 20.645 20.645 0 0 0 20.636 20.608z" fill="#69a7ff"/><path d="m424.76 275.2a20.622 20.622 0 1 0 -20.636-20.637 20.669 20.669 0 0 0 20.636 20.637z" fill="#45bf64"/><path d="m404.124 101.689a91.912 91.912 0 1 0 -94.62 89.093 91.935 91.935 0 0 0 94.62-89.093z" fill="#69a7ff"/><path d="m312.254 167.283a68.372 68.372 0 1 0 -68.372-68.372 68.5 68.5 0 0 0 68.372 68.372z" fill="#d5e3f2"/><path d="m233.167 96.161c.085-2.976.34-5.924.68-8.815a91.986 91.986 0 0 1 84.753-80.136c-1.19-.056-2.381-.141-3.6-.17a91.94 91.94 0 0 0 -93.94 80.306c-.368 2.891-.595 5.839-.68 8.815a91.959 91.959 0 0 0 52.501 85.839 92.751 92.751 0 0 0 45.807 8.617 91.292 91.292 0 0 1 -41.5-13.209 88.672 88.672 0 0 1 -11.424-8.249 91.7 91.7 0 0 1 -32.6-72.993z" fill="#5f96e6"/><path d="m123.92 109.342a19.812 19.812 0 0 1 -18.652-26.73 19.864 19.864 0 0 0 11.338 36.2h71.518v-9.468h-64.2z" fill="#ed9e00"/></g><path d="m55.661 283.191h20.778v214.809h-20.778z" fill="#1ca63e"/><path d="m168.169 319.305h20.778v178.696h-20.778z" fill="#5f96e6"/><path d="m280.647 223.466h20.807v274.535h-20.807z" fill="#ed9e00"/><path d="m393.155 351.053h20.778v146.948h-20.778z" fill="#e82e41"/><path d="m87.271 216.266a27.532 27.532 0 0 0 20.131-8.743l64.862 35.162c-.08.859-.126 1.728-.126 2.607a27.624 27.624 0 1 0 52.521-11.964l43.185-45.969a98.52 98.52 0 0 0 41.448 10.422c1.01.032 2.014.046 3.019.046a98.437 98.437 0 0 0 62.231-22.142l31.42 58.652a27.58 27.58 0 1 0 12.34-6.621l-33.2-61.973a98.89 98.89 0 1 0 -170.023-85.4h-19.952v-1.3a7 7 0 0 0 -7-7h-71.519a26.887 26.887 0 1 0 0 53.773h71.518a7 7 0 0 0 7-7v-1.3h19.941a98.228 98.228 0 0 0 25.177 49.23 99.788 99.788 0 0 0 15.3 13.26l-40.032 42.613a27.554 27.554 0 0 0 -38.346 6.8l-63.082-34.2a27.624 27.624 0 1 0 -26.815 21.047zm337.458 24.69a13.62 13.62 0 1 1 -13.6 13.606 13.636 13.636 0 0 1 13.6-13.606zm-243.6-129.145h-64.521a12.883 12.883 0 1 1 0-25.766h64.516zm32.317-8.305h-18.319v-9.155h18.325c-.024.534-.051 1.068-.067 1.6q-.114 3.798.056 7.555zm37 53.632a84.911 84.911 0 0 1 61.721-143.138q1.308 0 2.624.039a84.91 84.91 0 0 1 -2.491 169.786c-.86 0-1.727-.014-2.593-.039a84.461 84.461 0 0 1 -39.415-11 6.9 6.9 0 0 0 -.716-.42 85.22 85.22 0 0 1 -19.138-15.228zm-50.69 74.521a13.613 13.613 0 0 1 10.5 4.948c.02.027.042.053.063.08a13.607 13.607 0 1 1 -10.563-5.028zm-112.485-56.636a13.62 13.62 0 0 1 12 20.04c-.013.022-.028.043-.04.065s-.022.048-.035.072a13.619 13.619 0 1 1 -11.922-20.177zm392.166 322.977h-16.1v-146.949a7 7 0 0 0 -7-7h-63.186a7 7 0 0 0 -7 7v146.949h-35.319v-274.534a7 7 0 0 0 -7-7h-63.186a7 7 0 0 0 -7 7v274.534h-35.292v-178.7a7 7 0 0 0 -7-7h-63.212a7 7 0 0 0 -7 7v178.7h-35.292v-214.8a7 7 0 0 0 -7-7h-63.185a7 7 0 0 0 -7 7v214.8h-16.1a7 7 0 0 0 0 14h446.872a7 7 0 0 0 0-14zm-367.591 0h-49.18v-207.8h49.18zm112.505 0h-49.207v-171.695h49.207zm112.477 0h-49.18v-267.532h49.18zm112.505 0h-49.18v-139.947h49.18zm-167.809-416.49c0-11.766 9.979-21.341 23.726-23.795v-5.968a7 7 0 0 1 14 0v5.976c9.8 1.771 17.924 7.217 21.634 14.862a7 7 0 0 1 -12.6 6.114c-1.774-3.657-7.55-7.592-16.038-7.592-9.856 0-16.724 5.482-16.724 10.4s6.868 10.4 16.724 10.4c17.23 0 30.727 10.733 30.727 24.435 0 11.766-9.977 21.341-23.725 23.8v5.968a7 7 0 0 1 -14 0v-5.978c-9.81-1.773-17.935-7.234-21.639-14.9a7 7 0 0 1 12.61-6.092c1.77 3.665 7.542 7.609 16.031 7.609 9.855 0 16.724-5.482 16.724-10.4 0-5.557-7.815-10.431-16.724-10.431-17.228-.002-30.726-10.718-30.726-24.408zm30.728 92.777a75.373 75.373 0 1 0 -75.372-75.373 75.458 75.458 0 0 0 75.372 75.373zm0-136.741a61.369 61.369 0 1 1 -61.369 61.368 61.437 61.437 0 0 1 61.369-61.368z"/></svg>