<svg height="512" viewBox="0 0 64 64" width="512" xmlns="http://www.w3.org/2000/svg"><g id="Artboard_01" data-name="Artboard 01"><path d="m8.477 62a23 23 0 0 1 29.432-35.038l4.933 4.523a22.993 22.993 0 0 1 2.876 4.515l-1.718 22.965a23.087 23.087 0 0 1 -2.477 3.035z" fill="#2d9739"/><path d="m45.718 36a22.993 22.993 0 0 0 -2.876-4.515l-4.933-4.524-.087-.059a17.692 17.692 0 0 0 -19.63 0 23 23 0 0 0 -3.715 35.098h27.046a23.087 23.087 0 0 0 2.477-3.035z" fill="#44bc59"/><path d="m44.473 33.761a23.078 23.078 0 0 0 -1.631-2.276l-2.207-2.024a14.871 14.871 0 0 1 -3.427 1.739l-4.372 1.49a1.248 1.248 0 0 0 -.836 1.188v6.87a1.222 1.222 0 0 0 1.86 1.067l4.393-2.746a28.882 28.882 0 0 0 6.22-5.308z" fill="#2d9739"/><rect fill="#ffc239" height="4" rx="2" width="14" x="18" y="19"/><circle cx="25" cy="43" fill="#abe4a3" r="12"/><path d="m25 31a11.927 11.927 0 0 0 -6.548 1.952 11.991 11.991 0 0 0 16.6 16.6 11.991 11.991 0 0 0 -10.052-18.552z" fill="#cdf8c8"/><path d="m20 19-2.78-5c-.685-1.662.249-4 1.78-4h12c1.531 0 2.465 2.338 1.78 4l-2.78 5z" fill="#2d9739"/><path d="m25 42a2 2 0 1 1 2-2h2a4 4 0 0 0 -3-3.858v-1.142h-2v1.142a3.992 3.992 0 0 0 1 7.858 2 2 0 1 1 -2 2h-2a4 4 0 0 0 3 3.858v1.142h2v-1.142a3.992 3.992 0 0 0 -1-7.858z" fill="#2d9739"/><path d="m37 43h4v16h-4z" fill="#ffc239"/><path d="m44 36h4v23h-4z" fill="#ffc239"/><path d="m51 29h4v30h-4z" fill="#ffc239"/><path d="m36.628 40.084a11.99 11.99 0 0 0 -4.5-6.724 1.246 1.246 0 0 0 -.125.518v6.87a1.222 1.222 0 0 0 1.86 1.067z" fill="#abe4a3"/><path d="m58 23h4v36h-4z" fill="#ffc239"/><path d="m30 47h4v12h-4z" fill="#ffc239"/><path d="m20 19a1.979 1.979 0 0 0 -.974.263 2 2 0 0 0 1.974 1.737h10a1.979 1.979 0 0 0 .974-.263 2 2 0 0 0 -1.974-1.737z" fill="#ffd55d"/><path d="m32.78 14c.685-1.662-.249-4-1.78-4h-10.363a1.49 1.49 0 0 0 -1.437 1.981l.008.019 1.481 2.664a4.545 4.545 0 0 0 3.976 2.336h6.447z" fill="#44bc59"/><g fill="#ffd55d"><path d="m32 47v9a2 2 0 0 0 2 2v-11z"/><path d="m39 43v13a2 2 0 0 0 2 2v-15z"/><path d="m46 36v20a2 2 0 0 0 2 2v-22z"/><path d="m53 29v27a2 2 0 0 0 2 2v-29z"/><path d="m60 23v33a2 2 0 0 0 2 2v-35z"/></g><path d="m59.505 14.269a1 1 0 0 1 -1.236 1.236l-5.269-1.505c-2.52 8.377-7.434 16.522-14.747 21.092l-4.393 2.746a1.222 1.222 0 0 1 -1.86-1.067v-6.871a1.248 1.248 0 0 1 .836-1.186l4.372-1.49c5.85-1.993 11.583-8.04 12.792-14.224l-4.459-2.229a1 1 0 0 1 -.107-1.727l9.425-6.284a1 1 0 0 1 1.516.557z" fill="#f3a606"/><path d="m33.86 35.246 4.393-2.746c6.793-4.245 11.516-11.576 14.174-19.312a1.986 1.986 0 0 1 2.429-1.25l3.413.975a.982.982 0 0 0 .814-.124l-2.708-9.472a1 1 0 0 0 -1.516-.557l-9.425 6.284a1 1 0 0 0 .107 1.727l4.459 2.229c-1.209 6.184-6.942 12.231-12.792 14.225l-4.372 1.49a1.248 1.248 0 0 0 -.836 1.185v4.28a1.222 1.222 0 0 0 1.86 1.066z" fill="#ffc239"/><path d="m25 38a2 2 0 0 1 2 2h2a4 4 0 0 0 -3-3.858v-1.142h-2v1.142a3.992 3.992 0 0 0 1 7.858 2 2 0 1 1 -2 2h-2a4 4 0 0 0 3 3.858v1.142h2v-1.142a3.992 3.992 0 0 0 -1-7.858 2 2 0 0 1 0-4z"/><path d="m51 28a1 1 0 0 0 -1 1v30a1 1 0 0 0 1 1h4a1 1 0 0 0 1-1v-30a1 1 0 0 0 -1-1zm3 30h-2v-28h2z"/><path d="m62 22h-4a1 1 0 0 0 -1 1v36a1 1 0 0 0 1 1h4a1 1 0 0 0 1-1v-36a1 1 0 0 0 -1-1zm-1 36h-2v-34h2z"/><path d="m44.474 60h3.526a1 1 0 0 0 1-1v-23a1 1 0 0 0 -1-1h-1.676a24.086 24.086 0 0 0 -2.156-3.428 41.262 41.262 0 0 0 9.5-16.343l4.332 1.239a2 2 0 0 0 2.467-2.468l-3.13-10.957a2 2 0 0 0 -3.032-1.115l-9.426 6.284a2 2 0 0 0 .215 3.453l3.758 1.879c-1.3 5.011-5.824 10.116-10.849 12.3a23.856 23.856 0 0 0 -5.854-2.755 2.977 2.977 0 0 0 -.673-4.682l2.178-3.918a1.017 1.017 0 0 0 .051-.105 4.5 4.5 0 0 0 -.419-4.055 2.774 2.774 0 0 0 -2.286-1.329h-12a2.774 2.774 0 0 0 -2.286 1.326 4.5 4.5 0 0 0 -.419 4.055 1.017 1.017 0 0 0 .051.105l2.178 3.914a2.977 2.977 0 0 0 -.672 4.683 24 24 0 0 0 -11.585 37.917h-4.267v2h60v-2h-18.274c.261-.325.505-.662.748-1zm2.526-2h-2v-21h2zm3.981-44.809a1 1 0 0 0 -.534-1.086l-4.459-2.229 9.425-6.284 3.13 10.952-5.269-1.506a1 1 0 0 0 -1.232.674c-2.768 9.2-7.854 16.491-14.319 20.533l-4.394 2.745a.187.187 0 0 1 -.2.006.244.244 0 0 1 -.129-.225v-6.871a.252.252 0 0 1 .158-.24l4.372-1.49c6.428-2.19 12.21-8.63 13.451-14.979zm-10.981 30.809v14h-2v-14zm-4-1a10.984 10.984 0 0 1 -1 4.564v-.564a1 1 0 0 0 -1-1h-4a1 1 0 0 0 -1 1v6.234a11 11 0 1 1 2-19.446v2.983a2.253 2.253 0 0 0 1.155 1.974 2.178 2.178 0 0 0 2.235-.059l.554-.347a10.994 10.994 0 0 1 1.056 4.661zm-3 5v10h-2v-10zm-14.624-36.561a.863.863 0 0 1 .624-.439h12a.863.863 0 0 1 .624.439 2.5 2.5 0 0 1 .251 2.132l-2.463 4.429h-8.824l-2.463-4.429a2.5 2.5 0 0 1 .251-2.132zm1.624 10.561a1 1 0 0 1 0-2h10a1 1 0 0 1 0 2zm-17 24a21.988 21.988 0 0 1 32.585-19.278l-3.071 1.047a2.244 2.244 0 0 0 -1.514 2.131v1.57a13 13 0 1 0 -2 23.9v3.63a1 1 0 0 0 1 1h4a1 1 0 0 0 1-1v-7.711a12.963 12.963 0 0 0 1-1.376v9.087a1 1 0 0 0 1 1h4a1 1 0 0 0 1-1v-16a1 1 0 0 0 -1-1h-3.042a13 13 0 0 0 -1.293-4.736l2.118-1.324a28.682 28.682 0 0 0 3.933-2.978 22.136 22.136 0 0 1 1.332 2.038h-.048a1 1 0 0 0 -1 1v22.633a22.129 22.129 0 0 1 -1.925 2.367h-32.147a21.87 21.87 0 0 1 -5.928-15z"/></g></svg>