<svg id="Layer_1" height="512" viewBox="0 0 24 24" width="512" xmlns="http://www.w3.org/2000/svg" data-name="Layer 1"><path d="m21.75 11a9.756 9.756 0 0 1 -9.75 9.75 9.946 9.946 0 0 1 -1.79-.17l-4.92 2.11a.717.717 0 0 1 -.29.06.738.738 0 0 1 -.45-.15.723.723 0 0 1 -.29-.69l.49-3.92.05-.42a9.747 9.747 0 0 1 7.2-16.32 9.607 9.607 0 0 1 5.94 2.03 9.711 9.711 0 0 1 3.81 7.72z" fill="#00aa41"/><path d="m18 4.5a13.48 13.48 0 0 1 -13.25 13.49l.05-.42a9.747 9.747 0 0 1 7.2-16.32 9.607 9.607 0 0 1 5.94 2.03c.04.4.06.81.06 1.22z" fill="#5cd95b"/><g fill="#e5f9f8"><path d="m13 9.75h-4a.75.75 0 0 1 0-1.5h4a.75.75 0 0 1 0 1.5z"/><path d="m15 13.75h-6a.75.75 0 0 1 0-1.5h6a.75.75 0 0 1 0 1.5z"/></g></svg>