<svg id="Layer_1" enable-background="new 0 0 100 100" viewBox="0 0 100 100" xmlns="http://www.w3.org/2000/svg"><g fill="#04de3b"><path d="m49.9026756 97.3431549c-4.6387215 0-9.2774467-.604866-13.9161682-2.016243-12.101017-3.6292343-21.9835129-11.8958435-28.0340195-22.9851837-12.1010174-23.1868057-3.4286232-52.0190964 19.7649899-64.1165619 11.0925999-5.8471083 24.000349-7.2584789 36.1013622-3.4276151 12.1010208 3.6292391 21.9835129 11.8958406 28.0340195 22.9851837 1.0084152 2.0162449.201683 4.2341156-1.6134644 5.2422371-2.0168381 1.0081215-4.2353516.2016258-5.2437744-1.6129971-5.0420914-9.2747211-13.3111115-16.1299515-23.395298-19.1543198s-20.7734108-2.0162439-30.0508537 2.8227415c-19.3616276 10.2828446-26.8239207 34.2761517-16.5380573 53.4304677 5.0420895 9.2747269 13.3111153 16.1299591 23.3952961 19.1543198 10.0841789 3.0243683 20.773407 2.0162506 30.0508499-2.8227386 12.907753-6.8552399 20.9750977-20.3640671 20.9750977-34.8810272 0-2.2178688 1.815155-4.032486 4.0336685-4.032486 2.2185211 0 4.0336761 1.8146172 4.0336761 4.032486 0 17.5413284-9.680809 33.6712799-25.2104492 41.9378815-7.0589218 3.6292341-14.7229004 5.4438551-22.3868752 5.4438551z"/><path d="m89.8360214 36.8558311c-.2016754 0-.6050491 0-.8067322 0l-14.3195343-3.2259903c-2.2185135-.4032478-3.4286194-2.6211166-3.0252533-4.6373615s2.6218872-3.4276142 4.6387177-3.0243664l10.4875488 2.4194927 2.4202042-10.2828445c.4033737-2.2178688 2.6218872-3.4276152 4.6387253-3.0243673 2.2185135.4032488 3.4286194 2.6211176 3.0252533 4.6373625l-3.2269363 14.1137104c-.201683 1.0081215-.8067398 1.814621-1.815155 2.4194908-.6050492.4032516-1.2100984.6048736-2.0168382.6048736z"/><path d="m48.0875206 61.8572578v3.6292381h-20.5717258c0-1.0081177.201683-1.8146172.4033661-2.6211128.605051-1.4113731 1.4117851-2.8227425 2.4202023-4.0324898 1.2101021-1.4113731 2.8235703-2.8227425 5.0420914-4.6373596 3.4286232-2.8227425 5.6471367-5.0406113 6.8572388-6.6536026 1.2101021-1.6129951 1.815155-3.2259941 1.815155-4.6373634s-.6050529-2.8227386-1.6134682-3.8308601c-1.008419-1.0081253-2.4202042-1.6129951-4.2353554-1.6129951-1.815155 0-3.2269402.6048698-4.4370422 1.6129951-1.0084152 1.0081215-1.6134682 2.6211128-1.6134682 4.6373596l-3.8319874-.4032516c.201685-2.8227425 1.2101021-5.2422371 3.0252552-6.6536026 1.8151512-1.6129951 4.0336723-2.2178688 7.0589256-2.2178688s5.2437744.8064957 7.0589256 2.4194946c1.8151512 1.6129913 2.6218834 3.6292343 2.6218834 6.0487289 0 1.2097473-.201683 2.4194946-.8067322 3.6292381-.6050491 1.2097473-1.4117851 2.4194946-2.6218834 3.830864-1.2101059 1.4113731-3.2269402 3.2259903-5.8488235 5.4438629-2.2185211 2.016243-3.8319893 3.2259903-4.4370422 3.8308601-.6050529.6048737-1.2101021 1.4113731-1.6134682 2.0162468h15.3279533z"/><path d="m64.2222061 65.4865036v-7.4601059h-13.5127945v-3.4276161l14.1178513-20.1624413h3.2269363v20.1624413h4.2353516v3.4276161h-4.2353516v7.4601059zm0-10.887722v-13.9120865l-9.6808128 13.9120865z"/></g></svg>