<svg id="Layer_1" height="512" viewBox="0 0 512 512" width="512" xmlns="http://www.w3.org/2000/svg" data-name="Layer 1"><path d="m366.092 8.134c-80.451 0-145.911 65.49-145.911 145.935s65.469 145.856 145.911 145.856 145.908-65.403 145.908-145.856-65.458-145.935-145.908-145.935zm-366.092 280.928h102.965v198.572h-102.965zm221.2 32.429 36.46 30.805a13.105 13.105 0 0 0 8.638 3.143h54.968a21.207 21.207 0 0 1 0 42.414h-74.5a13.42 13.42 0 0 0 0 26.839h74.5a48.027 48.027 0 0 0 29.434-10.092l.55-.426 130.27-47.445a21.25 21.25 0 0 1 27.161 12.655c4.285 11.746-3.659 22.73-13.959 27.757l-182.79 89.222c-19.882 9.705-40.416 9.993-60.563.853l-102.127-46.326a13.452 13.452 0 0 0 -5.541-1.2h-13.901v-128.2zm213.657-167.422a13.453 13.453 0 0 1 -13.419 13.42h-41.93v41.935a13.418 13.418 0 1 1 -26.835 0v-41.935h-41.93a13.42 13.42 0 0 1 0-26.839h41.93v-41.935a13.418 13.418 0 1 1 26.835 0v41.935h41.93a13.4 13.4 0 0 1 13.419 13.419z" fill="#5eac24" fill-rule="evenodd"/></svg>