<svg id="Layer_1" enable-background="new 0 0 512 512" viewBox="0 0 512 512" xmlns="http://www.w3.org/2000/svg" xmlns:xlink="http://www.w3.org/1999/xlink"><linearGradient id="SVGID_1_" gradientUnits="userSpaceOnUse" x1="21.872" x2="490.128" y1="256" y2="256"><stop offset="0" stop-color="#17a6d7"/><stop offset=".06173055" stop-color="#259adb"/><stop offset=".1856" stop-color="#3b87e2"/><stop offset=".2649" stop-color="#4380e4"/><stop offset="1" stop-color="#9735fd"/></linearGradient><path d="m409.1 123.6c-11.5 0-20.8-9.6-20.8-21.4v-26.4l46.9 47.8zm-92.4 224.3h-287.7c-4 0-7.2-3.4-7.2-7.5v-120.6c0-4.1 3.2-7.5 7.2-7.5h287.7c4 0 7.2 3.3 7.2 7.5v120.6c0 4.1-3.2 7.5-7.2 7.5zm-177.6-31.8-30.8-71.9h-11.5l-30.8 71.9h12.6l7.2-17.2h33.1l7.1 17.2zm66.1-47.6c0-3.6-.6-6.9-1.8-9.8s-3-5.4-5.3-7.6c-2.3-2.1-5.1-3.7-8.4-4.8s-7-1.7-11.1-1.7h-27.6v71.4h12.2v-23h13.9c3.9 0 7.5-.5 10.9-1.6 3.4-1 6.4-2.6 8.9-4.6s4.5-4.6 6-7.6 2.2-6.5 2.2-10.6v-.1zm74.5 47.6-30.4-40.7 29.1-30.7h-15.1l-33.3 35.8v-35.9h-12.2v71.4h12.2v-20.7l10.9-11.4 23.9 32.1h14.9zm-91.1-56.9c-2.8-2.2-6.4-3.2-11.1-3.2h-14.3v25.8h14.3c4.7 0 8.4-1.2 11.1-3.6s4.1-5.5 4.1-9.2v-.2c0-4.3-1.3-7.5-4.1-9.6zm183.7-157v-38h-247c-11.5 0-20.8 9.6-20.8 21.4v110.7h212.3c12.8 0 23.2 10.5 23.2 23.4v120.6c0 12.9-10.4 23.5-23.2 23.5h-212.3v110.7c0 11.8 9.3 21.4 20.8 21.4h300c11.5 0 20.8-9.6 20.8-21.4v-335h-37.1c-20.2.1-36.7-16.7-36.7-37.3zm80.8-26.8h26l-46.9-47.8v26.4c0 11.8 9.4 21.4 20.9 21.4zm0 16c-20.3 0-36.8-16.8-36.8-37.4v-38h-247c-11.5 0-20.8 9.6-20.8 21.4v10.8h231.8c2.1 0 4.2.9 5.7 2.4l73.9 75.4c1.5 1.5 2.3 3.5 2.3 5.6v315.9l7.3.3c11.4-.1 20.6-9.7 20.6-21.4v-335zm-362.8 196.3h24.1l-12.1-28.6z" fill="url(#SVGID_1_)"/></svg>