<svg id="Layer_1" enable-background="new 0 0 130 130" height="130" viewBox="0 0 130 130" width="130" xmlns="http://www.w3.org/2000/svg"><g><g><g><g><g><path d="m105.132 10.223-12.82-7.344c-.561-.408-1.162-.754-1.801-1.032l-.189-.108-.008.017c-3.449-1.404-7.904-.897-12.764 1.908l-39.486 22.796c-10.857 6.269-19.74 21.655-19.74 34.193v45.591c0 6.114 2.123 10.45 5.547 12.578l-.033.059 14.248 8.072 8.012-13.949 31.452-18.157c10.855-6.269 19.74-21.655 19.74-34.193v-36.778z" fill="#dcf1f9"/><path d="m105.132 10.223-13.722-3.218c-.561-.409-3.363-.398-4.002-.677l-1.018-.407-1.832-.341c-3.449-1.402-2.148-4.721-7.008-1.916l-39.486 22.796c-10.857 6.269-19.74 21.655-19.74 34.193v45.591c0 6.114 2.123 10.45 5.547 12.578l-.033.059 14.248 8.072 8.012-13.949 31.452-18.157c10.855-6.269 19.74-21.655 19.74-34.193v-36.778z" fill="#cce6f2"/><path d="m19.076 54.085c-.479 2.231-.752 4.442-.752 6.568v45.591c0 6.114 2.123 10.45 5.547 12.578l-.033.059 14.248 8.072 8.012-13.949 31.452-18.157c1.844-1.065 3.627-2.411 5.322-3.944z" fill="#bfd9e8"/><g><path d="m51.634 34.329c-10.857 6.269-19.742 21.655-19.742 34.193v45.591c0 12.539 8.885 17.666 19.742 11.398l39.484-22.796c10.857-6.269 19.742-21.655 19.742-34.193v-45.59c0-12.538-8.885-17.666-19.742-11.398z" fill="#fff"/><path d="m110.861 22.932c0-12.538-8.885-17.666-19.742-11.398l-39.485 22.795c-10.857 6.269-19.742 21.655-19.742 34.193v45.591c0 12.539 8.885 17.666 19.742 11.398" fill="#5bc0d8" opacity=".1"/><path d="m42.865 129h-.002c-7.158 0-11.783-5.844-11.783-14.887v-45.591c0-12.829 9.037-28.485 20.146-34.897l39.486-22.796c3.201-1.848 6.289-2.784 9.178-2.784 7.158 0 11.785 5.844 11.785 14.887v45.591c0 12.829-9.039 28.485-20.148 34.898l-39.486 22.795c-3.202 1.847-6.288 2.784-9.176 2.784zm57.025-119.326c-2.6 0-5.414.863-8.363 2.564l-39.486 22.795c-10.66 6.156-19.334 21.179-19.334 33.489v45.591c0 8.178 3.891 13.259 10.156 13.259h.002c2.6 0 5.412-.864 8.361-2.565l39.486-22.795c10.66-6.155 19.334-21.179 19.334-33.489v-45.591c0-8.178-3.89-13.258-10.156-13.258z" fill="#fff"/></g></g></g></g></g><g><g><g><path d="m55.492 74.057c.155 0 .311-.041.449-.12l32.449-18.734c.278-.16.449-.456.449-.775.002-3.744-.932-6.89-2.701-9.096-3.225-4.02-8.951-4.469-14.866-1.053-9.196 5.314-16.678 18.27-16.678 28.879 0 .321.171.617.448.778.139.08.295.121.45.121z" fill="#0a935f"/><path d="m86.896 60.451c-1.539 0-3.525 1.17-5.826 2.524l-17.998 10.403-1.234.703c-4.073 2.302-7.59 4.29-7.59 9.644v15.307c0 4.172 2.179 6.869 5.551 6.869h.002c1.323 0 2.727-.423 4.17-1.256l16.754-9.672c4.867-2.812 8.826-9.67 8.826-15.287v-15.305c-.001-3.249-1.444-3.93-2.655-3.93z" fill="#17bc52"/><path d="m86.896 60.451c-1.539 0-3.525 1.17-5.826 2.524l-17.998 10.403-1.234.703c-4.073 2.302-7.59 4.29-7.59 9.644v15.307c0 4.172 2.179 6.869 5.551 6.869h.002c.502 0 1.02-.08 1.543-.201l26.094-45.196c-.183-.036-.365-.053-.542-.053z" fill="#0a935f"/></g><g><g><path d="m78.875 45.447c-.341 0-.687-.086-1.003-.27-.962-.555-1.292-1.785-.736-2.746l4.645-8.045c.557-.961 1.785-1.292 2.746-.734.962.555 1.292 1.784.736 2.746l-4.645 8.043c-.372.647-1.047 1.006-1.743 1.006z" fill="#0a935f"/></g><g><path d="m64.945 53.491c-.342 0-.688-.087-1.004-.271l-4.671-2.696c-.962-.556-1.292-1.785-.735-2.747.555-.962 1.785-1.291 2.746-.735l4.671 2.696c.962.556 1.292 1.785.735 2.747-.372.646-1.048 1.006-1.742 1.006z" fill="#0a935f"/></g></g></g><g><g><path d="m63.451 63.506c0-1.051.742-2.339 1.652-2.863.91-.525 1.654-.097 1.654.954 0 1.05-.744 2.339-1.654 2.864-.91.524-1.652.096-1.652-.955z" fill="#fff"/></g><g><path d="m77.541 55.449c0-1.051.744-2.34 1.654-2.864.91-.525 1.652-.097 1.652.954s-.744 2.339-1.652 2.864c-.91.525-1.654.096-1.654-.954z" fill="#fff"/></g></g></g></g></svg>