<svg fill="none" viewBox="0 0 24 24" xmlns="http://www.w3.org/2000/svg"><rect fill="#64ef82" height="22" rx="6" width="22" x="1" y="1"/><g fill="#025e16"><path d="m11.542 10.167v-.459a.458.458 0 1 0 -.917 0v.459a.458.458 0 1 0 .917 0zm3.208-.917a.458.458 0 0 0 -.458.458v.459a.458.458 0 1 0 .916 0v-.459a.458.458 0 0 0 -.458-.458zm-.746 2.164c-.589.474-1.586.474-2.175 0a.46.46 0 0 0 -.575.714c.931.749 2.389.753 3.325 0a.459.459 0 0 0 -.575-.714z"/><path d="m17.5 16.125h-.714a1.827 1.827 0 0 0 -1.578-.917h-1.833v-.916h2.292a2.294 2.294 0 0 0 2.291-2.292v-2.75a2.294 2.294 0 0 0 -2.291-2.292h-2.292v-2.291a.458.458 0 1 0 -.917 0v2.291h-2.291a2.294 2.294 0 0 0 -2.292 2.292v2.75a2.294 2.294 0 0 0 2.292 2.292h2.291v.916h-1.833c-.675 0-1.26.372-1.578.917h-1.63a1.376 1.376 0 0 1 -1.375-1.375v-2.376c.532-.19.916-.694.916-1.29v-.917a.458.458 0 1 0 -.916 0v.916a.46.46 0 0 1 -.917 0v-.916a.458.458 0 1 0 -.917 0v.916c0 .597.385 1.101.917 1.29v2.377a2.294 2.294 0 0 0 2.292 2.292h1.375v1.604c0 .632.513 1.146 1.145 1.146h5.959c.632 0 1.146-.514 1.146-1.146v-1.604h.458c.758 0 1.375.616 1.375 1.375v.916a.458.458 0 1 0 .917 0v-.916a2.294 2.294 0 0 0 -2.292-2.292zm-5.042 2.75h-.916v-.458a.46.46 0 0 1 .458-.459h.458zm-2.291-5.5a1.376 1.376 0 0 1 -1.375-1.375v-2.75c0-.758.616-1.375 1.375-1.375h5.5c.758 0 1.375.617 1.375 1.375v2.75c0 .758-.617 1.375-1.375 1.375zm4.125 5.5h-.917v-.917h.458a.46.46 0 0 1 .459.459z"/></g></svg>