<svg height="512" viewBox="0 0 64 64" width="512" xmlns="http://www.w3.org/2000/svg"><g id="setting-mangement-marketing-tool-seo"><path d="m5 13h54a2 2 0 0 1 2 2v28a0 0 0 0 1 0 0h-58a0 0 0 0 1 0 0v-28a2 2 0 0 1 2-2z" fill="#2488ff"/><path d="m33 43h28v-28a28 28 0 0 1 -28 28z" fill="#006df0"/><path d="m3 43v4a2.006 2.006 0 0 0 2 2h54a2.006 2.006 0 0 0 2-2v-4z" fill="#a7a9ac"/><path d="m26 49h12v6h-12z" fill="#808285"/><path d="m21 55a2 2 0 0 0 -2 2v4h26v-4a2 2 0 0 0 -2-2z" fill="#939598"/><path d="m57 9v28a2.006 2.006 0 0 1 -2 2h-46a2.006 2.006 0 0 1 -2-2v-28z" fill="#ffcd00"/><path d="m27 39h28a2.006 2.006 0 0 0 2-2v-28a30.088 30.088 0 0 1 -30 30z" fill="#ebbf00"/><path d="m55 3h-46a2 2 0 0 0 -2 2v4h50v-4a2 2 0 0 0 -2-2z" fill="#006df0"/><path d="m26 49h12v2h-12z" fill="#6d6e71"/><path d="m37.106 22.079a2.052 2.052 0 0 1 .894 1.66v9.261a2.005 2.005 0 0 0 2.342 1.971 2.087 2.087 0 0 0 1.658-2.093v-9.139a2.052 2.052 0 0 1 .894-1.66 5.008 5.008 0 0 0 -.894-8.669v3.59l-2 2-2-2v-3.59a5.008 5.008 0 0 0 -.894 8.669z" fill="#ff9811"/><path d="m28.16 27.33v.01l3.03 3.02-2.83 2.83-3.03-3.03a7.031 7.031 0 0 1 -1.33.55v4.29h-4v-4.29a7.031 7.031 0 0 1 -1.33-.55l-3.03 3.03-2.83-2.83 3.03-3.02v-.01a7.031 7.031 0 0 1 -.55-1.33h-4.29v-4h4.29a7.031 7.031 0 0 1 .55-1.33l-3.03-3.03 2.83-2.83 3.02 3.03h.01a7.031 7.031 0 0 1 1.33-.55v-4.29h4v4.29a7.031 7.031 0 0 1 1.33.55h.01l3.02-3.03 2.83 2.83-3.03 3.03a7.031 7.031 0 0 1 .55 1.33h4.29v4h-4.29a7.031 7.031 0 0 1 -.55 1.33z" fill="#ed1c24"/><circle cx="22" cy="24" fill="#f1f2f2" r="3"/><path d="m52 29h1v-3h-3-3v3h1z" fill="#4e901e"/><path d="m48 33a2 2 0 0 0 4 0v-4h-4z" fill="#5eac24"/><path d="m51 13h-2l-1 4h2 2z" fill="#4e901e"/><g fill="#f1f2f2"><path d="m33 45h-2a1 1 0 0 0 0 2h2a1 1 0 0 0 0-2z"/><path d="m12 5h-1a1 1 0 0 0 0 2h1a1 1 0 0 0 0-2z"/><path d="m16 5h-1a1 1 0 0 0 0 2h1a1 1 0 0 0 0-2z"/><path d="m20 5h-1a1 1 0 0 0 0 2h1a1 1 0 0 0 0-2z"/><path d="m53 5h-29a1 1 0 0 0 0 2h29a1 1 0 0 0 0-2z"/></g><path d="m49 17h2v9h-2z" fill="#5eac24"/></g></svg>