<svg height="512" viewBox="0 0 60 60" width="512" xmlns="http://www.w3.org/2000/svg"><g id="Page-1" fill="none" fill-rule="evenodd"><g id="063---Course-Students" fill-rule="nonzero"><g id="Icons_copy" transform="translate(1 1)"><path id="Shape" d="m40 38c-.0032948 1.1032019-.8967981 1.9967052-2 2h-3.81c.53395-.9093493.8137062-1.9454836.81-3 .0007205-.3353876-.0294064-.6701307-.09-1h3.09c1.1011688.0081672 1.9918328.8988312 2 2z" fill="#9e9e9e"/><path id="Shape" d="m23.81 40h-3.81c-1.1011688-.0081672-1.9918328-.8988312-2-2 .0032948-1.1032019.8967981-1.9967052 2-2h3.09c-.0605936.3298693-.0907205.6646124-.09 1-.0050382 1.0546903.2748116 2.0911709.81 3z" fill="#9e9e9e"/><path id="Shape" d="m37 49v7c-.0081672 1.1011688-.8988312 1.9918328-2 2h-12c-1.1032019-.0032948-1.9967052-.8967981-2-2v-7c0-3.3137085 2.6862915-6 6-6h4c3.3137085 0 6 2.6862915 6 6z" fill="#ef314c"/><path id="Shape" d="m31 43h-3c3.3137085 0 6 2.6862915 6 6v7c-.0081672 1.1011688-.8988312 1.9918328-2 2h3c1.1011688-.0081672 1.9918328-.8988312 2-2v-7c0-3.3137085-2.6862915-6-6-6z" fill="#bb193b"/><path id="Shape" d="m35 37c.0037062 1.0545164-.27605 2.0906507-.81 3-1.0689456 1.8562997-3.0479231 3.0003513-5.19 3.0003513s-4.1210544-1.1440516-5.19-3.0003513c-.5351884-.9088291-.8150382-1.9453097-.81-3-.0007205-.3353876.0294064-.6701307.09-1 .4853307-2.8857455 2.9837271-4.9990438 5.91-4.9990438s5.4246693 2.1132983 5.91 4.9990438c.0605936.3298693.0907205.6646124.09 1z" fill="#ffe0b2"/><path id="Shape" d="m34.91 36c-.2678606-1.6611298-1.2266267-3.1311413-2.6388168-4.0459203-1.4121901-.9147791-3.1457126-1.1887602-4.7711832-.7540797.6445138.1615734 1.2566639.432137 1.81.8 1.3865762.9123947 2.3290929 2.3624203 2.6 4 .0605936.3298693.0907205.6646124.09 1 .0037062 1.0545164-.27605 2.0906507-.81 3-.8046731 1.3904686-2.1342413 2.399355-3.69 2.8 2.6065757.6865779 5.3495459-.4614515 6.69-2.8.53395-.9093493.8137062-1.9454836.81-3 .0007205-.3353876-.0294064-.6701307-.09-1z" fill="#dfc49c"/><path id="Shape" d="m16 49v7c-.0081672 1.1011688-.8988312 1.9918328-2 2h-12c-1.10320187-.0032948-1.9967052-.8967981-2-2v-7c0-3.3137085 2.6862915-6 6-6h4c3.3137085 0 6 2.6862915 6 6z" fill="#ff9801"/><path id="Shape" d="m10 43h-3c3.3137085 0 6 2.6862915 6 6v7c-.0081672 1.1011688-.8988312 1.9918328-2 2h3c1.1011688-.0081672 1.9918328-.8988312 2-2v-7c0-3.3137085-2.6862915-6-6-6z" fill="#f57c00"/><path id="Shape" d="m14 37c0 3.3137085-2.6862915 6-6 6s-6-2.6862915-6-6 2.6862915-6 6-6c.46148954-.0028583.9215887.0508759 1.37.16.6926231.1589182 1.350188.443637 1.94.84 1.6807334 1.1079845 2.6916006 2.9869198 2.69 5z" fill="#ffe0b2"/><path id="Shape" d="m11.31 32c-.589812-.396363-1.2473769-.6810818-1.94-.84-.4484113-.1091241-.90851046-.1628583-1.37-.16-.50947859.001928-1.01660953.0691422-1.509.2.64773693.1603424 1.26304954.4309581 1.819.8 1.9748368 1.3062372 2.9952821 3.6528877 2.6039229 5.9880695s-2.1211211 4.220918-4.4139229 4.8119305c2.83457963.7320599 5.7832659-.6906111 6.9743382-3.3649522 1.1910723-2.674341.2760099-5.8178111-2.1643382-7.4350478z" fill="#dfc49c"/><path id="Shape" d="m58 49v7c-.0081672 1.1011688-.8988312 1.9918328-2 2h-12c-1.1032019-.0032948-1.9967052-.8967981-2-2v-7c0-3.3137085 2.6862915-6 6-6h4c3.3137085 0 6 2.6862915 6 6z" fill="#673ab7"/><path id="Shape" d="m52 43h-3c3.3137085 0 6 2.6862915 6 6v7c-.0081672 1.1011688-.8988312 1.9918328-2 2h3c1.1011688-.0081672 1.9918328-.8988312 2-2v-7c0-3.3137085-2.6862915-6-6-6z" fill="#4527a0"/><path id="Shape" d="m56 37c.0020959 2.8665203-2.0237416 5.3341455-4.8357828 5.8903535-2.8120412.5562081-5.6247492-.9543762-6.7140849-3.6058458-1.0893357-2.6514695-.1509958-5.7031428 2.2398677-7.2845077.589812-.396363 1.2473769-.6810818 1.94-.84.4484113-.1091241.9085105-.1628583 1.37-.16 3.3137085 0 6 2.6862915 6 6z" fill="#ffe0b2"/><path id="Shape" d="m50 31c-.4614895-.0028583-.9215887.0508759-1.37.16-.042.009-.079.029-.121.04 2.643166.6860786 4.4879306 3.0727283 4.4858119 5.8034839s-1.8505844 5.1145397-4.4948119 5.7965161c2.2562168.5974295 4.6541441-.167743 6.1473104-1.961591s1.8105762-4.2908052.8137097-6.4011828-3.1270873-3.4511621-5.4610201-3.4372262z" fill="#dfc49c"/><path id="Shape" d="m49.0000586 27-.0000586 3c.0032195.4161835-.1263957.8225448-.37 1.16-.6926231.1589182-1.350188.443637-1.94.84h-14.38c-2.0052528-1.3333467-4.6147472-1.3333467-6.62 0h-14.38c-.589812-.396363-1.2473769-.6810818-1.94-.84-.24360427-.3374552-.3732195-.7438165-.37-1.16l-.00005856-3z" fill="#9e9e9e"/><path id="Shape" d="m46 27v3c.0032195.4161835-.1263957.8225448-.37 1.16-.6926231.1589182-1.350188.443637-1.94.84h3c.589812-.396363 1.2473769-.6810818 1.94-.84.2436043-.3374552.3732195-.7438165.37-1.16v-3z" fill="#707070"/><path id="Shape" d="m26 31c-1.1784422-.0047127-2.3312953.3435813-3.31 1h3c.5533361-.367863 1.1654862-.6384266 1.81-.8-.4895554-.1297053-.993563-.1969063-1.5-.2z" fill="#707070"/><path id="Shape" d="m49 2v25h-40v-25c.0032948-1.10320187.89679813-1.9967052 2-2h36c1.1032019.0032948 1.9967052.89679813 2 2z" fill="#00bcd4"/><path id="Shape" d="m47 0h-3c1.1032019.0032948 1.9967052.89679813 2 2v25h3v-25c-.0032948-1.10320187-.8967981-1.9967052-2-2z" fill="#00838f"/><path id="Shape" d="m29 17v-11c.0032948-1.10320187.8967981-1.9967052 2-2h8c.5522847 0 1 .44771525 1 1v15c0 .5522847-.4477153 1-1 1h-8c-.7342552-.0000402-1.4094945.4022627-1.759 1.048-.0495954.086253-.1415049.1394251-.241.1394251s-.1914046-.0531721-.241-.1394251c-.3495055-.6457373-1.0247448-1.0480402-1.759-1.048h-8c-.5522847 0-1-.4477153-1-1v-15c0-.55228475.4477153-1 1-1h8c1.1032019.0032948 1.9967052.89679813 2 2" fill="#ffe0b2"/><path id="Shape" d="m39 4h-3c.5522847 0 1 .44771525 1 1v15c0 .5522847-.4477153 1-1 1h3c.5522847 0 1-.4477153 1-1v-15c0-.55228475-.4477153-1-1-1z" fill="#dfc49c"/></g><g id="Icons" fill="#000"><path id="Shape" d="m55.4 43.433c2.3039816-1.8641123 3.1831815-4.9778218 2.1944438-7.77168s-3.6307896-4.6614076-6.5944438-4.66132v-28c0-1.65685425-1.3431458-3-3-3h-36c-1.6568542 0-3 1.34314575-3 3v28c-2.96365416-.0000876-5.60570608 1.8674618-6.5944438 4.66132s-.1095378 5.9075677 2.1944438 7.77168c-2.75796711 1.00878-4.59429485 3.6303374-4.6 6.567v7c0 1.6568542 1.34314575 3 3 3h12c1.6568542 0 3-1.3431458 3-3v-7c-.0061238-2.936296-1.8423761-5.5573465-4.6-6.566 2.8589231-2.3028965 3.4430789-6.427841 1.336-9.434h9.528c-.4280828.610436-.7552563 1.2857167-.969 2h-2.295c-1.6568542 0-3 1.3431458-3 3 .0092882 1.6529917 1.3470083 2.9907118 3 3h3.264c.3764986.537494.8261692 1.0198129 1.336 1.433-2.7579671 1.00878-4.5942948 3.6303374-4.6 6.567v7c0 1.6568542 1.3431458 3 3 3h12c1.6568542 0 3-1.3431458 3-3v-7c-.0061238-2.936296-1.8423761-5.5573465-4.6-6.566.5099008-.4134936.9595747-.8961526 1.336-1.434h3.264c1.6568542 0 3-1.3431458 3-3-.0092882-1.6529917-1.3470083-2.9907118-3-3h-2.3c-.2137437-.7142833-.5409172-1.389564-.969-2h9.528c-2.1053004 3.0072195-1.5189699 7.1316458 1.341 9.433-2.7579671 1.00878-4.5942948 3.6303374-4.6 6.567v7c0 1.6568542 1.3431458 3 3 3h12c1.6568542 0 3-1.3431458 3-3v-7c-.0057052-2.9366626-1.8420329-5.55822-4.6-6.567zm-44.4-12.433v-2h3c.5522847 0 1-.4477153 1-1s-.4477153-1-1-1h-3v-24c0-.55228475.4477153-1 1-1h36c.5522847 0 1 .44771525 1 1v24h-31c-.5522847 0-1 .4477153-1 1s.4477153 1 1 1h31v2c.0001571.1040617-.01535.2075543-.046.307-.5396187.1674781-1.0567765.4001991-1.54.693h-13.828c-2.2047774-1.3332654-4.9672226-1.3332654-7.172 0h-13.828c-.4832235-.2928009-1.0003813-.5255219-1.54-.693-.03065-.0994457-.0461571-.2029383-.046-.307zm24 7c.0000055 2.7575232-2.2324823 4.994485-4.99 5h-.02c-2.7601153-.0055202-4.9936739-2.246535-4.9899956-5.0066533.0036784-2.7601184 2.2432021-4.995172 5.0033223-4.9933356 2.7601201.0018364 4.9966678 2.2398681 4.9966733 4.9999889zm-24 7c2.7600532.0033061 4.9966939 2.2399468 5 5v7c0 .5522847-.4477153 1-1 1s-1-.4477153-1-1v-7c0-.5522847-.4477153-1-1-1s-1 .4477153-1 1v7c.0033144.3414397.0655622.679743.184 1h-6.368c.11843775-.320257.18068557-.6585603.184-1v-7c0-.5522847-.44771525-1-1-1s-1 .4477153-1 1v7c0 .5522847-.44771525 1-1 1s-1-.4477153-1-1v-7c.00330612-2.7600532 2.23994685-4.9966939 5-5zm-1.99-2h-.02c-2.75946581-.0055189-4.99275697-2.2455201-4.9899975-5.00499.00275947-2.75947 2.24052617-4.995 4.9999975-4.995 2.7594713 0 4.997238 2.23553 4.9999975 4.995.0027595 2.7594699-2.2305317 4.9994711-4.9899975 5.00499zm11.99-3c-.2693445.0003954-.526929-.110308-.712-.306-.1865985-.1823963-.2906276-.4330776-.288-.694 0-.5522847.4477153-1 1-1h2c.0025342.6776834.1035913 1.3513977.3 2.0000011zm11 5c2.7600532.0033061 4.9966939 2.2399468 5 5v7c0 .5522847-.4477153 1-1 1s-1-.4477153-1-1v-7c0-.5522847-.4477153-1-1-1s-1 .4477153-1 1v7c.0033144.3414397.0655622.679743.184 1h-6.368c.1184378-.320257.1806856-.6585603.184-1v-7c0-.5522847-.4477153-1-1-1s-1 .4477153-1 1v7c0 .5522847-.4477153 1-1 1s-1-.4477153-1-1v-7c.0033061-2.7600532 2.2399468-4.9966939 5-5zm7-7c.2693445-.0003954.526929.110308.712.306.1865985.1823963.2906276.4330776.288.694 0 .5522847-.4477153 1-1 1h-2.3c.1964087-.6486023.2974658-1.3223166.3-2zm7 0c.0000055-2.7601208 2.2365532-4.9981525 4.9966733-4.9999889 2.7601202-.0018364 4.9996439 2.2332172 5.0033223 4.9933356.0036783 2.7601183-2.2298803 5.0011331-4.9899956 5.0066533h-.02c-2.7575177-.005515-4.9900055-2.2424768-4.99-5zm12 19c0 .5522847-.4477153 1-1 1s-1-.4477153-1-1v-7c0-.5522847-.4477153-1-1-1s-1 .4477153-1 1v7c.0033144.3414397.0655622.679743.184 1h-6.368c.1184378-.320257.1806856-.6585603.184-1v-7c0-.5522847-.4477153-1-1-1s-1 .4477153-1 1v7c0 .5522847-.4477153 1-1 1s-1-.4477153-1-1v-7c.0033061-2.7600532 2.2399468-4.9966939 5-5h4c2.7600532.0033061 4.9966939 2.2399468 5 5z"/><path id="Shape" d="m20 23h8c.3673069-.0002037.705162.2009736.88.524.2241058.4091545.6534908.6635434 1.12.6635434s.8958942-.2543889 1.12-.6635434c.174838-.3230264.5126931-.5242037.88-.524h8c1.1045695 0 2-.8954305 2-2v-15c0-1.1045695-.8954305-2-2-2h-8c-.7384319-.00065968-1.4509351.27222905-2 .766-.5490649-.49377095-1.2615681-.76665968-2-.766h-8c-1.1045695 0-2 .8954305-2 2v15c0 1.1045695.8954305 2 2 2zm0-17h8c.5522847 0 1 .44771525 1 1v11c0 .5522847.4477153 1 1 1s1-.4477153 1-1v-11c0-.55228475.4477153-1 1-1h8v15h-8c-.7379413.0000187-1.4499877.2720204-2 .764-.5500123-.4919796-1.2620587-.7639813-2-.764h-8z"/><path id="Shape" d="m34 10h3c.5522847 0 1-.44771525 1-1s-.4477153-1-1-1h-3c-.5522847 0-1 .44771525-1 1s.4477153 1 1 1z"/><path id="Shape" d="m34 14h3c.5522847 0 1-.4477153 1-1s-.4477153-1-1-1h-3c-.5522847 0-1 .4477153-1 1s.4477153 1 1 1z"/><path id="Shape" d="m34 18h3c.5522847 0 1-.4477153 1-1s-.4477153-1-1-1h-3c-.5522847 0-1 .4477153-1 1s.4477153 1 1 1z"/><path id="Shape" d="m26 8h-3c-.5522847 0-1 .44771525-1 1s.4477153 1 1 1h3c.5522847 0 1-.44771525 1-1s-.4477153-1-1-1z"/><path id="Shape" d="m26 12h-3c-.5522847 0-1 .4477153-1 1s.4477153 1 1 1h3c.5522847 0 1-.4477153 1-1s-.4477153-1-1-1z"/><path id="Shape" d="m26 16h-3c-.5522847 0-1 .4477153-1 1s.4477153 1 1 1h3c.5522847 0 1-.4477153 1-1s-.4477153-1-1-1z"/></g></g></g></svg>