<svg id="Layer_1" height="512" viewBox="0 0 512 512" width="512" xmlns="http://www.w3.org/2000/svg" data-name="Layer 1"><path d="m256 0c141.385 0 256 114.615 256 256s-114.615 256-256 256-256-114.615-256-256 114.615-256 256-256zm155.965 224.739-24.377-3.852-.446-1.6a135.07 135.07 0 0 0 -12.459-30.055l-.814-1.443 14.524-19.981a7.762 7.762 0 0 0 -.789-10.02l-33.4-33.4a7.756 7.756 0 0 0 -10.024-.779l-19.972 14.52-1.443-.815a135.034 135.034 0 0 0 -30.054-12.459l-1.6-.445-3.851-24.387a7.736 7.736 0 0 0 -7.648-6.526h-47.231a7.736 7.736 0 0 0 -7.643 6.526l-3.856 24.387-1.6.445a134.99 134.99 0 0 0 -30.054 12.46l-1.443.813-19.971-14.519a7.76 7.76 0 0 0 -10.02.779l-33.4 33.4a7.761 7.761 0 0 0 -.792 10.02l14.524 19.981-.814 1.444a135.057 135.057 0 0 0 -12.46 30.054l-.445 1.6-24.382 3.852a7.733 7.733 0 0 0 -6.526 7.638v47.242a7.73 7.73 0 0 0 6.526 7.638l24.382 3.852.445 1.6a134.818 134.818 0 0 0 12.459 30.058l.815 1.444-14.526 19.973a7.754 7.754 0 0 0 .8 10.016l33.4 33.4a7.762 7.762 0 0 0 10.019.783l19.972-14.524 1.444.815a135.212 135.212 0 0 0 30.055 12.468l1.595.446 3.856 24.376a7.74 7.74 0 0 0 7.643 6.531h47.233a7.74 7.74 0 0 0 7.648-6.53l3.852-24.388 1.6-.444a134.611 134.611 0 0 0 30.052-12.459l1.444-.815 19.972 14.524a7.762 7.762 0 0 0 10.024-.783l33.4-33.4a7.761 7.761 0 0 0 .789-10.019l-14.524-19.977.814-1.443a134.951 134.951 0 0 0 12.459-30.058l.445-1.6 24.377-3.852a7.734 7.734 0 0 0 6.536-7.638v-47.236a7.738 7.738 0 0 0 -6.535-7.638zm-110.02-32.839a7.739 7.739 0 1 0 -13.4-7.741l-78.495 135.946a7.738 7.738 0 1 0 13.4 7.736zm48.222 58.749-37.856-37.852a7.738 7.738 0 1 0 -10.938 10.948l32.373 32.383-32.134 32.133a7.74 7.74 0 0 0 10.943 10.939l37.612-37.613a7.741 7.741 0 0 0 0-10.947zm-139.78 48.561a7.744 7.744 0 0 0 0-10.948l-32.143-32.135 32.387-32.383a7.741 7.741 0 1 0 -10.947-10.947l-37.852 37.852a7.739 7.739 0 0 0 0 10.948l37.609 37.603a7.753 7.753 0 0 0 10.946 0z" fill="#5eac24" fill-rule="evenodd"/></svg>