<svg id="OBJECT" height="512" viewBox="0 0 512 512" width="512" xmlns="http://www.w3.org/2000/svg"><path d="m446 118.5h-380a27.54 27.54 0 0 0 -27.5 27.5v240a7.5 7.5 0 0 0 7.5 7.5h420a7.5 7.5 0 0 0 7.5-7.5v-240a27.54 27.54 0 0 0 -27.5-27.5z" fill="#1a80d9"/><path d="m58.5 166a27.54 27.54 0 0 1 27.5-27.5h380a27.77 27.77 0 0 1 6.68.82 27.56 27.56 0 0 0 -26.68-20.82h-380a27.54 27.54 0 0 0 -27.5 27.5v240a7.5 7.5 0 0 0 7.5 7.5h12.5z" fill="#0433bf"/><path d="m504.5 378.5h-497a7.5 7.5 0 0 0 -7.5 7.5v35a17.52 17.52 0 0 0 17.5 17.5h477a17.52 17.52 0 0 0 17.5-17.5v-35a7.5 7.5 0 0 0 -7.5-7.5z" fill="#536473"/><path d="m20 438.5a40 40 0 0 1 40-40h452v-12.5a7.5 7.5 0 0 0 -7.5-7.5h-497a7.5 7.5 0 0 0 -7.5 7.5v35a17.51 17.51 0 0 0 17.5 17.5z" fill="#283540"/><path d="m116 358.5h300a17.52 17.52 0 0 0 17.5-17.5v-222.5h-335v222.5a17.52 17.52 0 0 0 17.5 17.5z" fill="#0433bf"/><rect fill="#d8e6f2" height="275" rx="17.5" width="335" x="88.5" y="73.5"/><path d="m108.5 111a17.52 17.52 0 0 1 17.5-17.5h297.5v-2.5a17.52 17.52 0 0 0 -17.5-17.5h-300a17.52 17.52 0 0 0 -17.5 17.5v240a17.52 17.52 0 0 0 17.5 17.5h2.5z" fill="#b8cad8"/><path d="m423.5 118.5v-27.5a17.52 17.52 0 0 0 -17.5-17.5h-300a17.52 17.52 0 0 0 -17.5 17.5v27.5z" fill="#05f283"/><path d="m108.5 111a17.52 17.52 0 0 1 17.5-17.5h297.5v-2.5a17.52 17.52 0 0 0 -17.5-17.5h-300a17.52 17.52 0 0 0 -17.5 17.5v27.5h20z" fill="#03a64a"/><path d="m346 263.68a7.5 7.5 0 0 1 -7.5-7.5v-94.91a7.5 7.5 0 1 1 15 0v94.91a7.5 7.5 0 0 1 -7.5 7.5z" fill="#05f283"/><path d="m269.64 263.68a7.5 7.5 0 0 1 -7.5-7.5v-94.91a7.5 7.5 0 0 1 7.5-7.5h23.18a32.32 32.32 0 1 1 0 64.64h-15.68v37.77a7.5 7.5 0 0 1 -7.5 7.5zm7.5-60.27h15.68a17.32 17.32 0 1 0 0-34.64h-15.68z" fill="#05f283"/><path d="m236.91 263.68a7.51 7.51 0 0 1 -7-4.87l-28.46-76.11-28.45 76.11a7.5 7.5 0 0 1 -14-5.25l35.46-94.91a7.5 7.5 0 0 1 14 0l35.46 94.91a7.5 7.5 0 0 1 -7 10.12z" fill="#05f283"/><path d="m222.83 226h-42.76a7.5 7.5 0 0 1 0-15h42.76a7.5 7.5 0 1 1 0 15z" fill="#05f283"/><g fill="#536473"><path d="m166 308.5h-20a7.5 7.5 0 0 1 0-15h20a7.5 7.5 0 0 1 0 15z"/><path d="m216 308.5h-20a7.5 7.5 0 0 1 0-15h20a7.5 7.5 0 0 1 0 15z"/><path d="m266 308.5h-20a7.5 7.5 0 0 1 0-15h20a7.5 7.5 0 0 1 0 15z"/><path d="m316 308.5h-20a7.5 7.5 0 0 1 0-15h20a7.5 7.5 0 0 1 0 15z"/><path d="m366 308.5h-20a7.5 7.5 0 0 1 0-15h20a7.5 7.5 0 0 1 0 15z"/></g></svg>