<svg id="Layer_1" enable-background="new 0 0 512 512" viewBox="0 0 512 512" xmlns="http://www.w3.org/2000/svg" xmlns:xlink="http://www.w3.org/1999/xlink"><linearGradient id="SVGID_1_" gradientUnits="userSpaceOnUse" x1="56.864" x2="455.136" y1="256" y2="256"><stop offset="0" stop-color="#4d62ff"/><stop offset=".193" stop-color="#466aff"/><stop offset=".492" stop-color="#3480ff"/><stop offset=".8579" stop-color="#17a3ff"/><stop offset="1" stop-color="#0ab3ff"/></linearGradient><path clip-rule="evenodd" d="m402.11 297.39-73.47 125.74c-.96 1.67-1.42 3.32-1.42 5.24v73.22c0 5.73-4.68 10.4-10.4 10.4h-121.64c-5.73 0-10.4-4.68-10.4-10.4v-73.22c0-1.93-.45-3.57-1.42-5.24l-73.45-125.74c-8.65-14.77-3.6-33.9 11.14-42.52 14.77-8.62 33.9-3.6 42.52 11.17l49.83 85.32c2.41 4.11 7.11 6.04 11.71 4.79 21.52-5.84 40.25-5.84 61.77 0 4.62 1.25 9.3-.68 11.71-4.79l49.83-85.32c8.62-14.77 27.75-19.79 42.52-11.17 14.77 8.61 19.79 27.75 11.17 42.52zm-196.81-22.94c0 27.92 22.79 50.71 50.71 50.71s50.68-22.79 50.68-50.71-22.76-50.68-50.68-50.68-50.71 22.76-50.71 50.68zm-21.82-201.91c0-39.97 32.57-72.54 72.53-72.54 39.94 0 72.51 32.57 72.51 72.54 0 39.94-32.57 72.51-72.51 72.51-39.96 0-72.53-32.57-72.53-72.51zm32.4-2.49 28.4 28.4c3.23 3.23 8.45 3.23 11.68 0l40.17-40.17c3.23-3.23 3.23-8.45 0-11.68-3.2-3.23-8.45-3.23-11.68 0l-34.33 34.33-22.56-22.56c-3.23-3.2-8.45-3.2-11.68 0-3.24 3.23-3.24 8.47 0 11.68zm238.98 57.14c-.77-2.3-2.83-3.8-5.27-3.8l-28.71.06c-2.44 0-4.51-1.5-5.24-3.83l-8.84-27.33c-.74-2.32-2.81-3.83-5.24-3.83s-4.48 1.5-5.24 3.83l-8.82 27.33c-.77 2.32-2.83 3.83-5.27 3.83l-28.72-.06c-2.44 0-4.51 1.5-5.24 3.8-.77 2.32.03 4.73 2.01 6.18l23.27 16.84c1.96 1.42 2.75 3.85 1.98 6.18l-8.93 27.3c-.74 2.32.06 4.73 2.01 6.18 1.96 1.42 4.54 1.42 6.49 0l23.22-16.95c1.96-1.42 4.51-1.42 6.49 0l23.22 16.95c1.96 1.42 4.51 1.42 6.46 0 1.98-1.45 2.78-3.85 2.01-6.18l-8.93-27.3c-.77-2.32.03-4.76 2.01-6.18l23.27-16.84c1.96-1.44 2.75-3.85 2.01-6.18zm-341.15 45.73 23.19 16.95c1.98 1.42 4.54 1.42 6.49 0 1.98-1.45 2.75-3.85 2.01-6.18l-8.93-27.3c-.77-2.32.03-4.76 2.01-6.18l23.27-16.84c1.96-1.45 2.75-3.85 2.01-6.18-.77-2.3-2.83-3.8-5.27-3.8l-28.72.06c-2.44 0-4.51-1.5-5.27-3.83l-8.8-27.32c-.74-2.32-2.81-3.83-5.24-3.83s-4.51 1.5-5.24 3.83l-8.82 27.33c-.77 2.32-2.83 3.83-5.27 3.83l-28.71-.06c-2.44 0-4.51 1.5-5.27 3.8-.74 2.32.06 4.73 2.01 6.18l23.27 16.84c1.98 1.42 2.78 3.85 2.01 6.18l-8.93 27.3c-.74 2.32.03 4.73 2.01 6.18 1.96 1.42 4.51 1.42 6.49 0l23.19-16.95c1.98-1.43 4.53-1.43 6.51-.01z" fill="url(#SVGID_1_)" fill-rule="evenodd"/></svg>