<svg id="Layer_1" enable-background="new 0 0 391.1 512" height="512" viewBox="0 0 391.1 512" width="512" xmlns="http://www.w3.org/2000/svg"><g><g><g><path d="m51.5 512c-26.6 0-48.2-21.6-48.2-48.2v-415.6c0-26.6 21.6-48.2 48.2-48.2h196.8c26.6 0 48.2 21.6 48.2 48.2v415.7c0 26.6-21.6 48.2-48.2 48.2h-196.8z" fill="#525293"/><path d="m248.4 0h-98.4v512h98.4c26.5 0 48.1-21.6 48.1-48.2v-415.6c0-26.6-21.6-48.2-48.1-48.2z" fill="#3d3973"/></g><g><path d="m276.7 463.8c0 15.7-12.7 28.3-28.3 28.3h-196.9c-15.7 0-28.3-12.7-28.3-28.3v-415.6c0-15.7 12.7-28.3 28.3-28.3h196.9c15.7 0 28.3 12.7 28.3 28.3z" fill="#e6eaff"/><path d="m248.4 19.8h-98.2v472.4h98.2c15.6 0 28.3-12.7 28.3-28.3v-415.7c0-15.7-12.7-28.4-28.3-28.4z" fill="#cad4ff"/></g><path d="m296.6 140-.1 59.7h.1c1.8 0 3.3-1.5 3.3-3.3v-53.1c0-1.8-1.5-3.3-3.3-3.3z" fill="#3d3973"/><path d="m3.3 162.8v-32.9c-1.8 0-3.3 1.5-3.3 3.3v26.2c0 1.9 1.5 3.4 3.3 3.4zm0 36.9v-32.9c-1.8 0-3.3 1.5-3.3 3.3v26.2c0 1.9 1.5 3.4 3.3 3.4z" fill="#3d3973"/><g><g fill="#525293"><path d="m197.4 476.5h-94.9c-3.5 0-6.3-2.8-6.3-6.3s2.8-6.3 6.3-6.3h94.9c3.5 0 6.3 2.8 6.3 6.3s-2.8 6.3-6.3 6.3z"/><path d="m183.2 53.6h-66.5c-6.4 0-11.5-5.2-11.5-11.5 0-6.4 5.2-11.5 11.5-11.5h66.5c6.4 0 11.5 5.2 11.5 11.5 0 6.4-5.2 11.5-11.5 11.5z"/></g><g><g><g><path d="m197.4 463.8h-47.5v12.7h47.5c3.5 0 6.3-2.8 6.3-6.3s-2.8-6.4-6.3-6.4z" fill="#3d3973"/></g><g><path d="m191.3 50.2c2.1-2.1 3.4-5 3.4-8.2 0-6.4-5.2-11.5-11.5-11.5h-33.2v23.1h33.2c3.1 0 6-1.3 8.1-3.4z" fill="#3d3973"/></g></g></g></g></g><g><path d="m255.3 428.9c-3 0-6.1-.7-8.8-2.1-21.2-10.7-127-68.9-127-164.1v-96.2c0-7.7 4.2-14.8 11-18.5l114.7-62.4c3.1-1.7 6.6-2.6 10.1-2.6s7 .9 10.1 2.6l114.7 62.4c6.8 3.7 11 10.8 11 18.5v96.2c0 95.1-105.8 153.4-127 164.1-2.7 1.4-5.7 2.1-8.8 2.1z" fill="#a1db33"/><path d="m380.1 148-114.7-62.3c-3.1-1.7-6.6-2.6-10.1-2.6s-7 .9-10.1 2.6l-95.1 51.7v211c33 44.3 82.6 71.4 96.4 78.4 2.7 1.4 5.8 2.1 8.8 2.1s6.1-.7 8.8-2.1c21.2-10.7 127-68.9 127-164.1v-96.2c0-7.7-4.2-14.8-11-18.5z" fill="#5eb206"/><path d="m259.7 96.2 114.7 62.4c2.9 1.6 4.7 4.6 4.7 8v96.2c0 88.2-100.5 143.3-120.4 153.4-2.1 1.1-4.6 1.1-6.8 0-19.9-10-120.4-65.1-120.4-153.4v-96.2c0-3.3 1.8-6.4 4.7-8l114.8-62.4c2.7-1.5 6-1.5 8.7 0z" fill="#5eb206"/><path d="m374.4 158.6-114.7-62.4c-2.7-1.5-6-1.5-8.7 0l-100.9 54.9v175.9c30 50.6 87.3 81.8 101.8 89.1 2.1 1.1 4.7 1.1 6.8 0 19.9-10 120.4-65.1 120.4-153.4v-96.2c0-3.3-1.8-6.3-4.7-7.9z" fill="#a1db33"/><path d="m305 218.5c-2.9-2.9-7.7-2.9-10.6 0l-59.1 59.1-19-19c-2.9-2.9-7.7-2.9-10.6 0s-2.9 7.7 0 10.6l24.3 24.3c1.5 1.5 3.4 2.2 5.3 2.2s3.8-.7 5.3-2.2l64.4-64.4c3-2.9 3-7.7 0-10.6z" fill="#e6eaff"/></g></g></svg>