<svg id="Flat_Gradient" viewBox="0 0 64 64" xmlns="http://www.w3.org/2000/svg" xmlns:xlink="http://www.w3.org/1999/xlink" data-name="Flat Gradient"><linearGradient id="linear-gradient" gradientUnits="userSpaceOnUse" x1="16" x2="48" y1="32" y2="32"><stop offset="0" stop-color="#00c0ff"/><stop offset="1" stop-color="#5558ff"/></linearGradient><path d="m45 4h-26c-1.65002 0-3 1.34998-3 3v50c0 1.64996 1.34998 3 3 3h26c1.65002 0 3-1.35004 3-3v-50c0-1.65002-1.34998-3-3-3zm-5 3c1.31367.02523 1.31348 1.97496-.00004 2-1.31363-.02523-1.31344-1.97496.00004-2zm-11 0h6c1.31185.02465 1.31499 1.97477-.00004 2h-5.99996c-1.31185-.02465-1.31499-1.97477 0-2zm2 36c0 1.09998-.90002 2-2 2h-6c-1.09998 0-2-.90002-2-2v-6c0-1.10004.90002-2 2-2h6c1.09998 0 2 .89996 2 2zm0-12c0 1.09998-.90002 2-2 2h-6c-1.09998 0-2-.90002-2-2v-6c0-1.10004.90002-2 2-2h6c1.09998 0 2 .89996 2 2zm12 12c0 1.09998-.90002 2-2 2h-6c-1.09998 0-2-.90002-2-2v-6c0-1.10004.90002-2 2-2h6c1.09998 0 2 .89996 2 2zm0-12c0 1.09998-.90002 2-2 2h-6c-1.09998 0-2-.90002-2-2v-6c0-1.10004.90002-2 2-2h6c1.09998 0 2 .89996 2 2zm-8-6h6v6h-6zm0 12h6v6h-6zm-12-12h6v6h-6zm0 12h6v6h-6z" fill="url(#linear-gradient)"/></svg>