<svg height="512" viewBox="0 0 64 64" width="512" xmlns="http://www.w3.org/2000/svg"><g id="Artboard_16" data-name="Artboard 16"><path d="m23 10h8v6.683h-8z" fill="#8cb351"/><path d="m34 62h-17a2 2 0 0 1 -2-2v-32a12 12 0 0 1 12-12 12 12 0 0 1 12 12v34z" fill="#8cb351"/><path d="m26.982 40.672-1.334-.764a11.466 11.466 0 0 0 -5.7-1.517h-4.948v21.609a2 2 0 0 0 2 2h22v-19.811h-6.318a11.469 11.469 0 0 1 -5.7-1.517z" fill="#d6da39"/><path d="m45.821 51.212a15.315 15.315 0 0 0 3.179-10.212 17.069 17.069 0 0 0 -6.182 1.116l-5.318 5.384v3.709z" fill="#53781c"/><path d="m42.818 42.116-5.318 5.384v3.709h.558l10.942-10.209a17.069 17.069 0 0 0 -6.182 1.116z" fill="#6fa025"/><path d="m31 6a2 2 0 0 1 2 2 2 2 0 0 1 -2 2h-8a2 2 0 0 1 -2-2 2 2 0 0 1 2-2z" fill="#1e1d1a"/><path d="m19 62v-34a8 8 0 0 1 8-8 8 8 0 0 1 8 8v34z" fill="#eaebef"/><path d="m35 61.1v-13.02a4.885 4.885 0 0 0 -3-1.08c-3.314 0-6 3.582-6 8a8.688 8.688 0 0 0 3.1 7h5.7z" fill="#b0b0b3" opacity=".2"/><path d="m34.069 46c-.309-3.751 1-8.356 7.93-11 0 0 3.765 7.155-3.1 14.377z" fill="#6fa025"/><path d="m32.069 47c-.309-3.751 1-8.356 7.93-11 0 0 3.765 7.155-3.1 14.377z" fill="#b0b0b3" opacity=".2"/><path d="m34.069 46c-.309-3.751 1-8.356 7.93-11 0 0 3.765 7.155-3.1 14.377z" fill="#53781c"/><path d="m34.069 46 2.244 1.569.451-.653 5.236-11.916c-6.935 2.645-8.24 7.25-7.931 11z" fill="#6fa025"/><path d="m36.774 61.1a4.823 4.823 0 0 1 -2.774.9c-3.314 0-6-3.582-6-8s2.686-8 6-8c2.265 0 4.237 1.673 5.258 4.143z" fill="#8cb351"/><path d="m32 57a6.317 6.317 0 0 0 2.64 4.948 4.932 4.932 0 0 0 2.134-.853l2.484-10.952v-.008c-4.134.634-7.258 3.47-7.258 6.865z" fill="#69863d"/><ellipse cx="41" cy="56" fill="#8cb351" rx="8" ry="6"/><path d="m31 11.636h-5.079a1.2 1.2 0 0 0 -1.2 1.2v1.272a1.2 1.2 0 0 0 1.2 1.2h5.079z" fill="#f3f5fc" opacity=".2"/><path d="m27 16a12 12 0 0 0 -12 12v29.332h6.21a4.8 4.8 0 0 0 4.714-3.776c.887-4.226 2.258-5.711 3.473-6.2a4.466 4.466 0 0 0 1.7-.913c1.561-1.462 1.05-3.682 1.435-5.282.369-1.531 1.8-4.5 6.473-6.158v-7.003a12 12 0 0 0 -12.005-12z" fill="#f3f5fc" opacity=".2"/><path d="m22 29h10v2h-10z" fill="#6f7072"/><path d="m24 33h6v2h-6z" fill="#6f7072"/><g opacity=".4"><path d="m37.5 33.826a1.5 1.5 0 0 1 -1.5-1.5v-4.326a9.01 9.01 0 0 0 -9-9 1.5 1.5 0 0 1 0-3 12.013 12.013 0 0 1 12 12v4.326a1.5 1.5 0 0 1 -1.5 1.5z" fill="#fff"/></g><path d="m23 10h8v1h-8z" fill="#69863d"/><path d="m31 6h-8a1.994 1.994 0 0 0 -1.9 1.418 1.993 1.993 0 0 0 1.9 1.419h8a1.993 1.993 0 0 0 1.9-1.419 1.994 1.994 0 0 0 -1.9-1.418z" fill="#f3f5fc" opacity=".1"/><path d="m31 2a2 2 0 0 1 2 2 2 2 0 0 1 -2 2h-8a2 2 0 0 1 -2-2 2 2 0 0 1 2-2z" fill="#1e1d1a"/><path d="m31 2h-8a1.994 1.994 0 0 0 -1.9 1.418 1.993 1.993 0 0 0 1.9 1.419h8a1.993 1.993 0 0 0 1.9-1.419 1.994 1.994 0 0 0 -1.9-1.418z" fill="#f3f5fc" opacity=".1"/><rect fill="#fff" height="4.5" rx="1.5" width="3" x="36" y="28"/><g opacity=".2"><path d="m19 28v34h2v-34a8 8 0 0 1 7-7.931 7.954 7.954 0 0 0 -9 7.931z" fill="#b0b0b3"/></g><path d="m41 50a9.185 9.185 0 0 0 -6.233 2.243c1.287 3.07 4.742 6.957 14 5.175a4.6 4.6 0 0 0 .233-1.418c0-3.314-3.582-6-8-6z" fill="#f3f5fc" opacity=".2"/><path d="m36.764 46.917a4.822 4.822 0 0 0 -2.764-.917c-3.314 0-6 3.582-6 8 0 .314.017.622.043.926a12.009 12.009 0 0 0 8.721-8.009z" fill="#f3f5fc" opacity=".2"/><g fill="#fff"><ellipse cx="43.491" cy="53.051" rx="1.565" ry="2.671" transform="matrix(.322 -.947 .947 .322 -20.736 77.148)"/><ellipse cx="39.975" cy="54.465" rx=".691" ry="1.18" transform="matrix(.322 -.947 .947 .322 -24.459 74.778)"/></g></g><g id="BG"><path d="m14 28v32a3 3 0 0 0 3 3h17a5.768 5.768 0 0 0 2.856-.793 11.03 11.03 0 0 0 4.144.793c4.963 0 9-3.141 9-7a6.361 6.361 0 0 0 -2.781-5.048 16.082 16.082 0 0 0 2.773-10.076 1 1 0 0 0 -.992-.876 18.532 18.532 0 0 0 -5.023.682 12.864 12.864 0 0 0 -1.093-6.148 1 1 0 0 0 -1.241-.469c-.589.225-1.128.468-1.643.718v-6.783a13.018 13.018 0 0 0 -8-12v-5.184a2.972 2.972 0 0 0 1.22-4.816 2.987 2.987 0 0 0 -2.22-5h-8a2.987 2.987 0 0 0 -2.22 5 2.972 2.972 0 0 0 1.22 4.816v5.184a13.018 13.018 0 0 0 -8 12zm6 33v-33a7 7 0 0 1 14 0v12.436a10.773 10.773 0 0 0 -.967 4.66c-3.403.609-6.033 4.364-6.033 8.904a10.119 10.119 0 0 0 2.61 7zm14 0c-2.757 0-5-3.141-5-7s2.243-7 5-7a4.609 4.609 0 0 1 3.786 2.469c-3.378 1.01-5.786 3.553-5.786 6.531a6.313 6.313 0 0 0 2.63 4.94 3.585 3.585 0 0 1 -.63.06zm14-5c0 2.757-3.141 5-7 5s-7-2.243-7-5 3.141-5 7-5 7 2.243 7 5zm.035-13.974a14.987 14.987 0 0 1 -2.559 7.91 10.953 10.953 0 0 0 -4.476-.936c-.155 0-.3.012-.458.018a14.908 14.908 0 0 0 3.115-6.138 15.938 15.938 0 0 1 4.378-.854zm-9.012 5.7a6.6 6.6 0 0 0 -3.994-2.626c-.039-3.949 2.12-6.9 6.43-8.8.641 1.856 1.6 6.5-2.436 11.424zm-1.023-19.726v7.916a12.591 12.591 0 0 0 -2 1.661v-9.577a9 9 0 0 0 -18 0v33h-1a1 1 0 0 1 -1-1v-32a11 11 0 0 1 22 0zm-7-19h-8a1 1 0 0 1 0-2h8a1 1 0 0 1 0 2zm-8-6h8a1 1 0 0 1 0 2h-8a1 1 0 0 1 0-2zm1 8h6v4.363a12.578 12.578 0 0 0 -6 0z"/><path d="m22 29h10v2h-10z"/><path d="m24 33h6v2h-6z"/></g></svg>