<svg id="Layer_1" enable-background="new 0 0 512 512" height="512" viewBox="0 0 512 512" width="512" xmlns="http://www.w3.org/2000/svg" xmlns:xlink="http://www.w3.org/1999/xlink"><linearGradient id="SVGID_1_" gradientUnits="userSpaceOnUse" x1="256" x2="256" y1="512" y2="0"><stop offset="0" stop-color="#009efb"/><stop offset="1" stop-color="#68c185"/></linearGradient><path d="m437.02 74.98c-48.353-48.351-112.64-74.98-181.02-74.98s-132.667 26.629-181.02 74.98-74.98 112.64-74.98 181.02 26.628 132.668 74.98 181.02 112.64 74.98 181.02 74.98 132.667-26.629 181.02-74.98 74.98-112.64 74.98-181.02-26.628-132.668-74.98-181.02zm-59.651 149.164c-3.124 3.124-7.219 4.687-11.313 4.687-4.095 0-8.189-1.562-11.314-4.687l-44.631-44.632v112.631c0 41.34-33.633 74.973-74.973 74.973h-109.195c-8.836 0-16-7.163-16-16s7.164-16 16-16h109.194c23.695 0 42.973-19.277 42.973-42.973v-112.631l-44.631 44.632c-6.249 6.248-16.379 6.248-22.627 0-6.249-6.248-6.249-16.379 0-22.627l71.945-71.946c3.001-3.001 7.07-4.687 11.314-4.687s8.313 1.686 11.314 4.687l71.945 71.946c6.247 6.248 6.247 16.379-.001 22.627z" fill="url(#SVGID_1_)"/></svg>