<svg height="512" viewBox="0 0 56 60" width="512" xmlns="http://www.w3.org/2000/svg"><g id="Page-1" fill="none" fill-rule="evenodd"><g id="008---Dekstop-Wordprocessing" fill-rule="nonzero"><path id="Shape" d="m51 41v5c0 1.6568542-1.3431458 3-3 3h-44c-1.65685425 0-3-1.3431458-3-3v-5z" fill="#9e9e9e"/><path id="Shape" d="m48 41v5c0 1.6568542-1.3431458 3-3 3h3c1.6568542 0 3-1.3431458 3-3v-5z" fill="#707070"/><path id="Shape" d="m51 17v24h-50v-24c0-1.6568542 1.34314575-3 3-3h44c1.6568542 0 3 1.3431458 3 3z" fill="#00bcd4"/><path id="Shape" d="m48 14h-3c1.6568542 0 3 1.3431458 3 3v24h3v-24c0-1.6568542-1.3431458-3-3-3z" fill="#00838f"/><path id="Shape" d="m6 37v-32c.0032948-1.10320187.89679813-1.9967052 2-2h37.89l.11 12.09v21.91z" fill="#f5f5f5"/><path id="Shape" d="m45.89 3h-3l.11 12.09v21.91h3v-21.91z" fill="#cfd8dc"/><path id="Rectangle-path" d="m18 49h16v5h-16z" fill="#607d8b"/><path id="Rectangle-path" d="m31 49h3v5h-3z" fill="#37474f"/><path id="Shape" d="m17 54h18c2.209139 0 4 1.790861 4 4 0 .5522847-.4477153 1-1 1h-24c-.5522847 0-1-.4477153-1-1 0-2.209139 1.790861-4 4-4z" fill="#9e9e9e"/><path id="Shape" d="m35 54h-3c2.209139 0 4 1.790861 4 4 0 .5522847-.4477153 1-1 1h3c.5522847 0 1-.4477153 1-1 0-2.209139-1.790861-4-4-4z" fill="#707070"/><path id="Shape" d="m53.859 9.761-5.76 3.98-5.69-8.23 5.76-3.98c1.3617329-.94001609 3.2274512-.59998111 4.17.76l2.28 3.29c.9410084 1.36487609.6012203 3.23371094-.76 4.18z" fill="#e91e63"/><path id="Shape" d="m54.619 5.581-2.28-3.29c-.8901716-1.27844124-2.6125748-1.65955395-3.959-.876.3805801.21739781.7081317.51660035.959.876l2.28 3.29c.9410084 1.36487609.6012203 3.23371094-.76 4.18l-3.73 2.578.97 1.4 5.76-3.98c1.3599741-.94618343 1.6996492-2.8135031.76-4.178z" fill="#ad1457"/><path id="Shape" d="m48.099 13.741-4.11 2.84-5.69-8.22 4.11-2.85z" fill="#ffdc00"/><path id="Shape" d="m42.409 5.511-2.028 1.407 4.718 6.823-2.08 1.438.97 1.402 4.11-2.84z" fill="#fec108"/><path id="Shape" d="m43.989 16.581-19.589 13.55c-.0692867.0504368-.1472461.0877218-.23.11l-.09-.25-5.35-7.74-.28-.09c.0710147-.1010201.1589799-.1889853.26-.26l19.59-13.54z" fill="#f44335"/><path id="Shape" d="m38.3 8.361-2.029 1.4 4.719 6.817-17.712 12.254.8 1.159.09.25c.0827539-.0222782.1607133-.0595632.23-.11l19.59-13.55z" fill="#c81e1e"/><path id="Shape" d="m17.929 31.771-4.69 1.13c-.4001172.094232-.8171417-.0659868-1.0512382-.4038807-.2340964-.337894-.2375722-.7846237-.0087618-1.1261193l2.71-3.98.17.11 2.82 4.07z" fill="#545c60"/><path id="Shape" d="m24.169 30.241c-.0306474.0192567-.0645266.0328083-.1.04l-6.14 1.49-.05-.2-2.82-4.07-.17-.11 3.56-5.23.28.09 5.35 7.74z" fill="#ffe0b2"/><path id="Shape" d="m24.079 29.991-5.35-7.74-.28-.09-1.38 2.028 4.01 5.8.09.25c-.0306474.0192567-.0645266.0328083-.1.04l-3.5.849.306.441.05.2 6.14-1.49c.0354734-.0071917.0693526-.0207433.1-.04z" fill="#dfc49c"/><g fill="#000"><path id="Shape" d="m4 50h13v3c-2.7600532.0033061-4.9966939 2.2399468-5 5 0 1.1045695.8954305 2 2 2h24c1.1045695 0 2-.8954305 2-2-.0033061-2.7600532-2.2399468-4.9966939-5-5v-3h13c2.209139 0 4-1.790861 4-4v-29c0-.5522847-.4477153-1-1-1s-1 .4477153-1 1v23h-48v-23c0-1.1045695.8954305-2 2-2h1v22c0 .5522847.44771525 1 1 1s1-.4477153 1-1v-32c0-.55228475.44771525-1 1-1h34.694l-5.113 3.536-19.713 13.633c-.11235.0715087-.2087004.1654758-.283.276l-6.385 9.36c-.4664184.6835825-.4636686 1.5838188.0069173 2.2645391.4705858.6807203 1.3118054 1.0013177 2.1160827.8064609l11.01-2.669c.1281288-.036611.2496388-.0933157.36-.168l20.307-14.045v20.006c0 .5522847.4477153 1 1 1s1-.4477153 1-1v-21.389l7.274-5.031c1.8169996-1.25645895 2.2714277-3.74797884 1.015-5.565l-2.274-3.29c-1.2583974-1.81399343-3.7472265-2.26793082-5.565-1.015l-1.864 1.29h-37.586c-1.65685425 0-3 1.34314575-3 3v8h-1c-2.209139 0-4 1.790861-4 4v29c0 2.209139 1.790861 4 4 4zm40.09-34.808-4.55-6.58 2.467-1.706 4.551 6.58zm-6.19-5.442 4.551 6.58-18.099 12.514-4.552-6.581zm-19.618 20.866-2.282-3.299 2.415-3.541 4.032 5.83zm-5.429 1.316 1.94-2.845 1.407 2.034zm35.735-29.577c.9085463-.6277716 2.1539545-.40035702 2.782.508l2.275 3.289c.6258458.90941508.3992646 2.15360071-.507 2.784l-4.938 3.412-4.551-6.58zm-10.588 55.645h-24c0-1.6568542 1.3431458-3 3-3h18c1.6568542 0 3 1.3431458 3 3zm-5-5h-14v-3h14zm17-11v4c0 1.1045695-.8954305 2-2 2h-44c-1.1045695 0-2-.8954305-2-2v-4z"/><path id="Shape" d="m25 46h3c.5522847 0 1-.4477153 1-1s-.4477153-1-1-1h-3c-.5522847 0-1 .4477153-1 1s.4477153 1 1 1z"/><path id="Shape" d="m11 9h20.64c.5522847 0 1-.44771525 1-1s-.4477153-1-1-1h-20.64c-.5522847 0-1 .44771525-1 1s.4477153 1 1 1z"/><path id="Shape" d="m11 14h13.41c.5522847 0 1-.4477153 1-1s-.4477153-1-1-1h-13.41c-.5522847 0-1 .4477153-1 1s.4477153 1 1 1z"/><path id="Shape" d="m11 19h6.18c.5522847 0 1-.4477153 1-1s-.4477153-1-1-1h-6.18c-.5522847 0-1 .4477153-1 1s.4477153 1 1 1z"/><path id="Shape" d="m41 32h-13.87c-.5522847 0-1 .4477153-1 1s.4477153 1 1 1h13.87c.5522847 0 1-.4477153 1-1s-.4477153-1-1-1z"/><path id="Shape" d="m41 27h-6.64c-.5522847 0-1 .4477153-1 1s.4477153 1 1 1h6.64c.5522847 0 1-.4477153 1-1s-.4477153-1-1-1z"/></g></g></g></svg>