<svg id="Layer_2_00000072972694178129683780000004074420784187567004_" enable-background="new 0 0 512 512" viewBox="0 0 512 512" xmlns="http://www.w3.org/2000/svg"><g id="Icon"><g id="_34"><g id="Envelope"><path d="m426.7 438h-375.5c-28.3 0-51.2-22.9-51.2-51.2v-227.5c0-28.3 22.9-51.2 51.2-51.2h375.5c28.3 0 51.2 22.9 51.2 51.2v227.6c0 28.2-22.9 51.1-51.2 51.1z" fill="#ff9d00"/><path d="m462.9 423c-9.3 9.3-22.1 15-36.2 15h-375.5c-14.1 0-26.9-5.7-36.2-15l187.7-187.7c20-20 52.4-20 72.4 0z" fill="#ffbe1d"/><path d="m462.9 123.1-187.8 187.7c-20 20-52.4 20-72.4 0l-187.7-187.7c9.3-9.3 22.1-15 36.2-15h375.5c14.1 0 26.9 5.7 36.2 15z" fill="#ffe000"/></g><g id="Badge"><circle cx="426.7" cy="159.3" fill="#00bf00" r="85.3"/><path d="m469.2 116.7c-5-5-11.5-7.5-18-7.5s-13 2.5-18 7.5l-14.6 14.6c-3.7 3.7-6 8.2-7 13-4.8.9-9.3 3.3-13 6.9l-14.6 14.6c-9.9 9.9-9.9 26.1 0 36 5 5 11.5 7.5 18 7.5s13-2.5 18-7.5l14.6-14.6c3.7-3.7 6-8.2 7-13 4.8-.9 9.3-3.3 13-6.9l14.6-14.6c9.9-9.9 9.9-26 0-36zm-59.7 74.5c-2 2-4.6 3.1-7.4 3.1s-5.4-1.1-7.4-3.1-3.1-4.6-3.1-7.4 1.1-5.4 3.1-7.4l14.6-14.6c1.1-1.1 2.5-2 3.9-2.5 1.2 2.9 3 5.6 5.4 7.9s5 4.1 7.9 5.4c-.5 1.4-1.3 2.8-2.5 3.9zm49.1-49.1-14.6 14.6c-1.1 1.1-2.5 2-3.9 2.5-1.2-2.9-3-5.6-5.4-7.9s-5-4.1-7.9-5.4c.5-1.5 1.3-2.8 2.5-3.9l14.6-14.6c2-2 4.6-3.1 7.4-3.1s5.4 1.1 7.4 3.1 3.1 4.6 3.1 7.4-1.2 5.4-3.2 7.3z" fill="#fff"/></g></g></g></svg>