<svg id="Layer_1" viewBox="0 0 512 512" xmlns="http://www.w3.org/2000/svg" data-name="Layer 1"><path d="m212.982 165.389h116.613v14h-116.613z" fill="#b3aab3"/><path d="m212.982 266.702h116.613v14h-116.613z" fill="#b3aab3"/><g fill-rule="evenodd"><path d="m123.119 277.29v90.726h207.193v14h-214.193c-3.866 0-7-3.134-7-7v-97.726z" fill="#b3aab3"/><path d="m162.446 20.255 56.834 56.833c3.374 3.257 5.339 7.293 5.34 12.051v198.34c0 2.477-2.02 4.498-4.498 4.497h-208.005c-2.477 0-4.498-2.02-4.498-4.497v-268.066c0-2.477 2.02-4.498 4.497-4.498h138.279c4.758 0 8.792 1.966 12.05 5.34z" fill="#eceff1"/><path d="m16.932 291.977h-4.816c-2.477 0-4.497-2.021-4.497-4.498v-268.066c0-2.477 2.02-4.498 4.497-4.498h4.816z" fill="#d1d1d6"/><path d="m162.67 20.479 55.96 55.959c-3.427-3.31-8.086-5.352-13.208-5.352h-32.901c-2.477 0-4.498-2.02-4.498-4.497v-32.901c0-5.122-2.042-9.781-5.352-13.208z" fill="#a79ba7"/><path d="m162.67 20.479 44.54 44.541c-2.495-1.206-5.29-1.882-8.238-1.882h-30.95v-29.45c0-5.122-2.042-9.781-5.352-13.208z" fill="#b3aab3"/></g><rect fill="#4eb1fc" height="64.728" rx="10.284" width="64.728" x="317.712" y="140.025"/><rect fill="#85caff" height="64.728" rx="10.284" width="53.327" x="317.712" y="140.025"/><path d="m327.996 342.652h44.16c5.676 0 10.284 4.608 10.284 10.284v44.161c0 5.675-4.608 10.283-10.283 10.283h-44.161c-5.676 0-10.284-4.608-10.284-10.284v-44.16c0-5.676 4.608-10.284 10.284-10.284z" fill="#fdc72e"/><path d="m327.996 241.338h44.16c5.676 0 10.284 4.608 10.284 10.284v44.161c0 5.675-4.608 10.283-10.283 10.283h-44.161c-5.676 0-10.284-4.608-10.284-10.284v-44.16c0-5.676 4.608-10.283 10.283-10.283z" fill="#2dd62d"/><path d="m152.238 112.94 9.557-6.409c1.557-1.044 3.585-.846 4.91.479l14.792 14.792c1.325 1.325 1.523 3.354.479 4.91l-6.409 9.558 8.13 19.623 11.288 2.226c1.839.363 3.133 1.936 3.133 3.811v20.919c0 1.874-1.294 3.449-3.133 3.811l-11.289 2.226-8.13 19.623 6.409 9.558c1.044 1.556.846 3.585-.479 4.91l-14.792 14.792c-1.325 1.325-3.353 1.524-4.91.48l-9.558-6.41-19.623 8.13-2.226 11.289c-.363 1.839-1.937 3.133-3.811 3.133h-20.919c-1.875 0-3.449-1.294-3.811-3.133l-2.226-11.289-19.623-8.129-9.558 6.41c-1.557 1.044-3.585.846-4.91-.48l-14.792-14.792c-1.325-1.325-1.524-3.354-.479-4.91l6.409-9.558-8.13-19.623-11.289-2.226c-1.839-.363-3.133-1.937-3.133-3.811v-20.919c0-1.875 1.294-3.448 3.133-3.811l11.288-2.226 8.13-19.623-6.409-9.558c-1.044-1.557-.846-3.585.479-4.91l14.792-14.792c1.325-1.325 3.353-1.523 4.91-.479l9.558 6.409 19.623-8.13 2.226-11.289c.363-1.839 1.937-3.133 3.811-3.133h20.919c1.874 0 3.449 1.294 3.811 3.133l2.226 11.289 19.623 8.13z" fill="#fdc72e" fill-rule="evenodd"/><path d="m152.238 112.94 6.935-4.651 15.772 15.771-8.188 12.21 8.13 19.622 14.422 2.844v27.306l-14.422 2.843-8.13 19.623 8.188 12.21-15.771 15.771-14.075-9.438-20.415 8.458-3.723 18.88h-15.302c-1.874 0-3.448-1.294-3.811-3.133l-2.226-11.289-26.926-11.155-9.649 6.471-12.307-12.307c-1.325-1.325-1.524-3.353-.48-4.91l6.41-9.558-8.13-19.623-11.289-2.226c-1.839-.362-3.133-1.937-3.133-3.811v-20.919c0-1.875 1.294-3.449 3.133-3.811l11.289-2.226 8.13-19.622-6.41-9.557c-1.044-1.557-.846-3.585.48-4.91l12.307-12.307 9.649 6.471 7.303-3.026 19.623-8.13 2.226-11.288c.363-1.839 1.937-3.133 3.811-3.133h15.302l3.723 18.881 20.415 8.458 7.139-4.787z" fill="#ffeb87" fill-rule="evenodd"/><circle cx="109.44" cy="172.389" fill="#fdc72e" r="42.052" transform="matrix(.707 -.707 .707 .707 -89.843 127.877)"/><circle cx="116.119" cy="172.389" fill="#fff" r="42.052" transform="matrix(.526 -.851 .851 .526 -91.571 180.535)"/><path d="m479.867 312.323c-.434 0-.867-.039-1.253-.12-3.808-.708-6.314-4.357-5.639-8.16 1.591-8.479 2.699-17.15 3.277-25.778.241-3.851 3.567-6.748 7.471-6.497 3.856.255 6.748 3.596 6.507 7.457-.626 9.163-1.832 18.369-3.47 27.368-.626 3.374-3.567 5.731-6.893 5.731zm-23.956 64.56c-1.157 0-2.313-.28-3.374-.877-3.374-1.88-4.627-6.141-2.748-9.52 4.434-7.972 8.435-16.311 11.857-24.78 1.494-3.581 5.543-5.302 9.158-3.842 3.567 1.451 5.302 5.528 3.856 9.119-3.663 8.989-7.905 17.839-12.628 26.298-1.253 2.304-3.663 3.601-6.122 3.601zm-204.582 120.202c-25.098 0-50.177-3.972-74.508-11.881-66.3-21.579-119.421-70.19-146.862-134.031l-5.5 20.461c-.998 3.731-4.839 5.948-8.57 4.941-3.741-.998-5.948-4.839-4.95-8.58l11.139-41.419c.554-2.063 2.01-3.75 3.962-4.603 1.952-.848 4.179-.766 6.059.222l37.76 19.892c3.422 1.798 4.733 6.039 2.93 9.457-1.798 3.422-6.039 4.729-9.462 2.931l-21.579-11.371c25.522 61.379 76.08 108.172 139.4 128.782 88.091 28.67 186.839-.164 245.73-71.732 2.458-2.989 6.869-3.413 9.852-.959 2.989 2.458 3.417 6.869.959 9.847-30.472 37.042-70.97 63.943-117.132 77.81-22.688 6.82-45.959 10.233-69.23 10.233z" fill="#85caff" fill-rule="evenodd"/><path d="m481.217 228.363c-1.398 0-2.796-.429-4.001-1.258l-35.017-24.38c-3.177-2.212-3.957-6.58-1.745-9.751 2.207-3.172 6.589-3.948 9.77-1.74l20.003 13.94c-17.786-64.049-62.198-116.717-122.496-144.967-38.45-18.012-81.001-24.9-123.032-19.921-3.837.448-7.317-2.29-7.779-6.131-.448-3.837 2.294-7.322 6.131-7.78 44.629-5.278 89.797 2.029 130.618 21.15 63.133 29.581 109.858 84.36 129.235 151.089l8.001-19.617c1.446-3.581 5.543-5.312 9.11-3.851 3.567 1.451 5.302 5.538 3.856 9.119l-16.147 39.741c-.82 1.971-2.458 3.47-4.531 4.068-.626.193-1.301.289-1.976.289z" fill="#85caff" fill-rule="evenodd"/><path d="m327.996 241.338h32.76c5.676 0 10.284 4.608 10.284 10.284v44.161c0 5.676-4.608 10.283-10.283 10.283h-32.76c-5.676 0-10.284-4.608-10.284-10.284v-44.161c0-5.676 4.608-10.283 10.283-10.283z" fill="#43f043"/><path d="m327.996 342.652h32.76c5.676 0 10.284 4.608 10.284 10.284v44.161c0 5.676-4.608 10.283-10.283 10.283h-32.76c-5.676 0-10.283-4.608-10.283-10.283v-44.161c0-5.676 4.608-10.284 10.284-10.284z" fill="#fcdb35"/></svg>