<svg id="Icons" height="512" viewBox="0 0 60 60" width="512" xmlns="http://www.w3.org/2000/svg"><g fill="#f4aa51"><path d="m9.23 10.47a.5.5 0 0 1 -.251-.933l5.773-3.332a.5.5 0 0 1 .675.7l-1.017 1.638.447-.258a.5.5 0 1 1 .5.865l-2.169 1.25a.5.5 0 0 1 -.675-.7l1.017-1.636-4.051 2.336a.489.489 0 0 1 -.249.07z"/><path d="m15.541 27.47a.5.5 0 0 1 -.389-.816l1.412-1.736-4.04 2.332a.5.5 0 0 1 -.624-.765l1.319-1.485-2.819 1.629a.5.5 0 0 1 -.667-.707l1.067-1.637-2.266 1.309a.5.5 0 0 1 -.641-.121.5.5 0 0 1 .025-.653l.451-.483-.816.471a.5.5 0 0 1 -.665-.711l1.037-1.548-1.6.923a.5.5 0 0 1 -.629-.759l.748-.869-.864.5a.5.5 0 0 1 -.649-.734l1.287-1.71-1.385.8a.5.5 0 0 1 -.614-.775l1.066-1.135-.829.479a.5.5 0 0 1 -.629-.76l1.835-2.125-1.382.8a.5.5 0 0 1 -.623-.766l1.861-2.081-1.238.714a.5.5 0 0 1 -.554-.83l4.8-3.671-4.246 2.45a.5.5 0 0 1 -.551-.832l2.178-1.641-1.627.939a.5.5 0 0 1 -.6-.794l2.24-2.135-1.64.946a.5.5 0 0 1 -.671-.7l.845-1.309a.5.5 0 0 1 -.387-.914l1.659-.96a.5.5 0 0 1 .67.7l-.826 1.284 3.46-2a.5.5 0 0 1 .6.794l-2.241 2.139 5.1-2.941a.5.5 0 0 1 .551.832l-2.18 1.639 3.872-2.235a.5.5 0 0 1 .554.83l-6.976 5.331a.579.579 0 0 1 .048.051.5.5 0 0 1 -.015.649l-1.862 2.083 1.239-.715a.5.5 0 0 1 .629.76l-1.834 2.124 1.205-.7a.5.5 0 0 1 .614.776l-1.065 1.139.58-.335a.5.5 0 0 1 .649.733l-1.288 1.708 1.28-.738a.5.5 0 0 1 .629.759l-.748.87.915-.529a.5.5 0 0 1 .666.711l-1.037 1.548 1.849-1.067a.5.5 0 0 1 .616.773l-.45.484 1.193-.689a.5.5 0 0 1 .668.707l-1.073 1.637 3.671-2.12a.5.5 0 0 1 .624.764l-1.313 1.487 3.712-2.143a.5.5 0 0 1 .638.748l-1.412 1.738 1.677-.968a.5.5 0 0 1 .72.6l-.378 1.031.469-.271a.5.5 0 1 1 .5.865l-1.662.959a.5.5 0 0 1 -.719-.6l.377-1.029-2.831 1.627a.5.5 0 0 1 -.25.07z"/><path d="m43.391 27.47a.5.5 0 0 1 -.343-.864l1.392-1.315-3.658 2.109a.5.5 0 0 1 -.616-.772l1.4-1.508-1.388.8a.5.5 0 0 1 -.642-.743l1.157-1.457v-.006a.5.5 0 0 1 .183-.684l.759-.437a.5.5 0 0 1 .641.744l-.32.4 1.982-1.137a.5.5 0 0 1 .617.772l-1.4 1.508 4.484-2.587a.5.5 0 0 1 .592.8l-1.39 1.307 8.423-4.862a.5.5 0 0 1 .56.824l-3.476 2.761 1.632-.942a.5.5 0 1 1 .5.865l-7.495 4.327a.5.5 0 0 1 -.56-.824l3.475-2.761-6.259 3.612a.493.493 0 0 1 -.25.07z"/><path d="m51.57 19.807a.5.5 0 0 1 -.358-.849l1.877-1.927-.813.469a.5.5 0 0 1 -.607-.782l1.4-1.433-.789.455a.5.5 0 0 1 -.585-.8l.467-.421a.5.5 0 0 1 -.508-.812l1.946-2.222-1.319.761a.5.5 0 0 1 -.613-.776l1.546-1.63-1.343.774a.5.5 0 0 1 -.647-.735l1.555-2.045-4.479 2.584a.5.5 0 0 1 -.585-.8l.863-.778-2.763 1.595a.5.5 0 0 1 -.609-.781l1.353-1.4-1.393.8a.5.5 0 0 1 -.736-.547l.4-1.719a.5.5 0 0 1 -.069-.9l.511-.3a.5.5 0 0 1 .737.547l-.339 1.479 3.493-2.014a.5.5 0 0 1 .609.78l-1.353 1.4 3.771-2.18a.5.5 0 0 1 .585.8l-.863.779 2.521-1.455a.5.5 0 0 1 .647.735l-1.556 2.046 2.17-1.252a.5.5 0 0 1 .614.776l-1.545 1.63.957-.553a.5.5 0 0 1 .626.762l-1.946 2.218 1.318-.761a.5.5 0 0 1 .585.8l-.469.423a.5.5 0 0 1 .491.831l-1.4 1.431.792-.457a.5.5 0 0 1 .608.782l-1.875 1.931 1.27-.732a.5.5 0 0 1 .5.865l-4.4 2.54a.49.49 0 0 1 -.25.068z"/><path d="m28.8 44.27a.5.5 0 0 1 -.321-.884l.186-.156-1.221.705a.5.5 0 0 1 -.577-.811l1.8-1.563-3.467 2a.5.5 0 0 1 -.572-.816l3.229-2.715-1.227.708a.5.5 0 0 1 -.584-.8l2.3-2.069-.905.523a.5.5 0 0 1 -.612-.778l2.471-2.587-1.351.781a.5.5 0 0 1 -.73-.574l.493-1.682a.5.5 0 0 1 -.034-.885l.527-.3a.5.5 0 0 1 .73.575l-.405 1.38 3.278-1.892a.5.5 0 0 1 .612.777l-2.461 2.583 2.05-1.19a.5.5 0 0 1 .584.8l-2.305 2.069 1.993-1.151a.5.5 0 0 1 .573.816l-3.231 2.716 3.08-1.778a.5.5 0 0 1 .577.811l-1.8 1.563 1.711-.987a.5.5 0 0 1 .57.816l-.186.155.058-.033a.5.5 0 0 1 .628.76l-.575.665.637-.367a.5.5 0 0 1 .749.467l-.027.391.095-.053a.5.5 0 0 1 .5.865l-.908.524a.493.493 0 0 1 -.514-.009.5.5 0 0 1 -.235-.458l.028-.392-2.389 1.378a.5.5 0 0 1 -.628-.76l.574-.664-2.518 1.456a.489.489 0 0 1 -.25.07z"/></g><path d="m31.357 33.366a.5.5 0 0 1 -.312-.89l4.975-3.986-8.034 4.638a.5.5 0 0 1 -.545-.837l7.65-5.566-9.523 5.5a.5.5 0 0 1 -.534-.844l8.488-5.858-9.7 5.6a.5.5 0 0 1 -.523-.851l5.461-3.559-6.05 3.487a.5.5 0 0 1 -.529-.847l10.893-7.353-11.751 6.787a.5.5 0 0 1 -.519-.854l5.3-3.381-5.6 3.234a.5.5 0 0 1 -.526-.849l12.022-7.974-12.587 7.268a.5.5 0 0 1 -.514-.857l.78-.485-.8.465a.5.5 0 0 1 -.524-.851l12.767-8.384-13.133 7.581a.5.5 0 0 1 -.525-.85l13.61-8.934-13.89 8.02a.5.5 0 0 1 -.513-.858l1.038-.642-.914.527a.5.5 0 0 1 -.518-.855l8.762-5.556-8.732 5.041a.5.5 0 0 1 -.525-.851l13.194-8.676-13.232 7.634a.5.5 0 0 1 -.523-.851l9.734-6.363-9.624 5.556a.5.5 0 0 1 -.531-.842l8.766-5.83-8.591 4.96a.5.5 0 0 1 -.535-.844l8.68-6.026-8.456 4.881a.5.5 0 0 1 -.522-.853l.58-.376-.193.112a.5.5 0 0 1 -.547-.835l6-4.411-5.612 3.24a.5.5 0 0 1 -.551-.832l3.747-2.821-3.266 1.882a.5.5 0 0 1 -.577-.81l2.946-2.55-2.369 1.367a.5.5 0 0 1 -.6-.791l1.225-1.19-.564.325a.5.5 0 0 1 -.632-.755l.5-.6a.492.492 0 0 1 -.241-.211.5.5 0 0 1 .183-.682l1.651-.95a.5.5 0 0 1 .633.754l-.13.155 1.575-.909a.5.5 0 0 1 .6.791l-1.222 1.187 3.431-1.978a.5.5 0 0 1 .578.81l-2.945 2.55 5.821-3.36a.5.5 0 0 1 .551.832l-3.747 2.819 6.333-3.651a.5.5 0 0 1 .546.835l-5.993 4.41 9.081-5.245a.5.5 0 0 1 .522.852l-.595.385 2.145-1.237a.5.5 0 0 1 .535.843l-8.678 6.024 11.899-6.867a.5.5 0 0 1 .526.848l-8.767 5.829 11.57-6.677a.5.5 0 0 1 .523.851l-9.727 6.356 12.488-7.207a.5.5 0 0 1 .524.85l-13.191 8.673 14.674-8.472a.5.5 0 0 1 .517.855l-8.767 5.56 8.52-4.919a.5.5 0 0 1 .513.858l-1.007.623.541-.312a.5.5 0 0 1 .525.851l-13.614 8.933 13.09-7.556a.5.5 0 0 1 .525.851l-12.77 8.385 12.153-7.015a.5.5 0 0 1 .514.857l-.785.488.163-.093a.5.5 0 0 1 .526.849l-12.026 7.975 11.2-6.468a.5.5 0 0 1 .519.855l-5.3 3.377 4.491-2.592a.5.5 0 0 1 .529.846l-10.884 7.352 9.774-5.644a.5.5 0 0 1 .524.852l-5.471 3.564 4.4-2.539a.5.5 0 0 1 .534.844l-8.482 5.855 6.966-4.021a.5.5 0 0 1 .544.837l-7.651 5.567 5.522-3.187a.5.5 0 0 1 .562.823l-4.977 3.986 1.628-.939a.5.5 0 0 1 .5.865l-7.321 4.226a.491.491 0 0 1 -.25.066z" fill="#f9c55d"/><path d="m24.278 23.127a.5.5 0 0 1 -.292-.906l6.321-4.531-5.874 3.392a.5.5 0 0 1 -.54-.84l4.3-3.051-3.424 1.977a.5.5 0 0 1 -.544-.838l2.675-1.942-1.839 1.061a.5.5 0 0 1 -.556-.828l2.518-1.953-2.9 1.672a.5.5 0 0 1 -.549-.834l1.759-1.31-2.126 1.228a.5.5 0 0 1 -.632-.755l1.6-1.9-2.29 1.331a.5.5 0 0 1 -.72-.6l.321-.891-.136.078a.5.5 0 0 1 -.5-.866l1.32-.761a.5.5 0 0 1 .72.6l-.321.892 3.575-2.064a.5.5 0 0 1 .632.755l-1.6 1.9 7.095-4.103a.5.5 0 0 1 .549.834l-1.76 1.311 1.81-1.045a.5.5 0 0 1 .557.828l-2.518 1.953 3.861-2.229a.5.5 0 0 1 .542.838l-2.676 1.94 4.286-2.47a.5.5 0 0 1 .539.84l-4.3 3.054 5.455-3.15a.5.5 0 0 1 .541.839l-6.317 4.523 3.337-1.926a.5.5 0 0 1 .556.828l-1.349 1.046a.5.5 0 0 1 .266.805l-1.523 1.831 1.221-.7a.5.5 0 0 1 .686.677l-.858 1.533.511-.294a.5.5 0 0 1 .5.866l-2.083 1.2a.5.5 0 0 1 -.687-.677l.858-1.534-2.074 1.2a.5.5 0 0 1 -.635-.752l1.523-1.83-2.751 1.588a.5.5 0 0 1 -.556-.828l.544-.422-5.8 3.348a.5.5 0 0 1 -.248.062z" fill="#f4aa51"/><path d="m27.794 9.407a.5.5 0 0 1 -.384-.82l1.216-1.456a.481.481 0 0 1 -.1-.125.5.5 0 0 1 .183-.683l1.226-.708a.5.5 0 0 1 .633.753l-.581.7.922-.532a.5.5 0 1 1 .5.865l-3.365 1.939a.491.491 0 0 1 -.25.067z" fill="#f4aa51"/><path d="m21.454 49.5a.5.5 0 0 1 -.34-.866l3.179-2.95-4.013 2.316a.5.5 0 0 1 -.57-.817l.936-.779-.366.212a.5.5 0 0 1 -.676-.7l.907-1.47a.5.5 0 0 1 -.445-.893l1.656-.956a.5.5 0 0 1 .675.7l-.9 1.464 3.741-2.161a.5.5 0 0 1 .57.817l-.938.779 2.766-1.6a.5.5 0 0 1 .59.8l-3.178 2.95 6.492-3.746a.5.5 0 0 1 .562.823l-2.255 1.8 4.54-2.62a.5.5 0 0 1 .565.821l-2.438 1.976 4.847-2.8a.5.5 0 0 1 .586.8l-3.1 2.822 4.6-2.656a.5.5 0 0 1 .562.825l-.987.784.706-.407a.5.5 0 0 1 .651.731l-1.369 1.832.727-.42a.5.5 0 0 1 .729.576l-.227.757a.5.5 0 0 1 .192.189.5.5 0 0 1 -.183.682l-.5.288a.5.5 0 0 1 -.728-.576l.125-.42-1.732 1a.5.5 0 0 1 -.651-.731l1.364-1.834-4.453 2.57a.5.5 0 0 1 -.562-.824l.983-.78-2.786 1.608a.5.5 0 0 1 -.587-.8l3.106-2.821-6.288 3.63a.5.5 0 0 1 -.565-.821l2.439-1.978-4.857 2.8a.5.5 0 0 1 -.556-.826l2.252-1.8-4.552 2.631a.494.494 0 0 1 -.246.069z" fill="#f9c55d"/><path d="m16.457 57.5a.5.5 0 0 1 -.276-.917l1.022-.675-.923.533a.5.5 0 0 1 -.542-.838l4.271-3.063-3.729 2.153a.5.5 0 0 1 -.567-.819l4.092-3.356-3.525 2.035a.5.5 0 0 1 -.611-.78l2.447-2.542-1.836 1.06a.5.5 0 0 1 -.662-.716l.748-1.089a.519.519 0 0 1 -.483-.248.5.5 0 0 1 .183-.682l1.656-.956a.5.5 0 0 1 .662.715l-.691 1.006 2.985-1.721a.5.5 0 0 1 .611.779l-2.447 2.541 5.758-3.32a.5.5 0 0 1 .567.819l-4.091 3.355 7.224-4.174a.5.5 0 0 1 .542.839l-4.271 3.061 6.761-3.9a.5.5 0 0 1 .525.849l-1.019.672 2.637-1.521a.5.5 0 0 1 .67.16.5.5 0 0 1 -.126.678l-5.944 4.307 8.913-5.145a.5.5 0 0 1 .531.846l-3.006 2.031 4.987-2.877a.5.5 0 0 1 .539.84l-5.343 3.793 7.781-4.491a.5.5 0 0 1 .528.848l-2.35 1.578 2.785-1.607a.5.5 0 0 1 .531.845l-2.137 1.457 1.89-1.09a.5.5 0 0 1 .538.84l-2.091 1.478 1.559-.9a.5.5 0 0 1 .57.817l-3.141 2.615 2.577-1.488a.5.5 0 0 1 .622.766l-1.858 2.065 1.245-.718a.5.5 0 0 1 .738.546l-.324 1.392a.5.5 0 0 1 .094.908l-.539.31a.5.5 0 0 1 -.737-.547l.271-1.168-2.976 1.718a.5.5 0 0 1 -.622-.766l1.85-2.067-4.913 2.837a.5.5 0 0 1 -.57-.817l3.144-2.617-5.951 3.437a.5.5 0 0 1 -.538-.841l2.085-1.473-4.014 2.317a.5.5 0 0 1 -.532-.846l2.133-1.453-3.989 2.3a.5.5 0 0 1 -.528-.848l2.357-1.583-4.214 2.435a.5.5 0 0 1 -.539-.84l5.342-3.793-8.033 4.637a.5.5 0 0 1 -.53-.847l3-2.03-4.988 2.88a.5.5 0 0 1 -.544-.838l5.943-4.308-8.92 5.15a.491.491 0 0 1 -.244.067z" fill="#416572"/><path d="m40.782 59.47a.5.5 0 0 1 -.318-.886l.141-.116-1.62.934a.5.5 0 0 1 -.618-.771l1.41-1.53-3.988 2.3a.5.5 0 0 1 -.614-.775l1.379-1.465-3.882 2.239a.5.5 0 0 1 -.639-.747l1.493-1.848-4.5 2.595a.5.5 0 0 1 -.623-.765l1.445-1.62-4.131 2.385a.5.5 0 0 1 -.646-.738l1.494-1.932-4.626 2.67a.5.5 0 0 1 -.587-.8l.936-.86-2.876 1.66a.5.5 0 0 1 -.631-.756l1.477-1.736-4.318 2.492a.5.5 0 0 1 -.6-.786l1.256-1.257-3.031 1.749a.5.5 0 0 1 -.618-.771l1.14-1.238-.8.464a.5.5 0 0 1 -.683-.683l.4-.688a.5.5 0 0 1 -.162-.925l1.158-.665a.5.5 0 0 1 .682.683l-.278.483 2.013-1.166a.5.5 0 0 1 .618.771l-1.135 1.236 3.477-2.007a.5.5 0 0 1 .6.786l-1.256 1.258 3.544-2.044a.5.5 0 0 1 .631.756l-1.477 1.734 4.318-2.49a.5.5 0 0 1 .588.8l-.937.86 2.876-1.66a.5.5 0 0 1 .646.738l-1.494 1.932 4.626-2.67a.5.5 0 0 1 .623.765l-1.444 1.62 4.133-2.385a.5.5 0 0 1 .629.107.5.5 0 0 1 .009.64l-1.492 1.846 4.5-2.593a.5.5 0 0 1 .614.775l-1.379 1.464 3.878-2.239a.5.5 0 0 1 .618.771l-1.409 1.529 3.989-2.3a.5.5 0 0 1 .568.818l-.143.117.83-.478a.5.5 0 0 1 .617.773l-.972 1.044.509-.293a.5.5 0 0 1 .675.7l-.338.545a.5.5 0 0 1 .11.913l-1.16.67a.5.5 0 0 1 -.675-.7l.166-.268-1.671.964a.5.5 0 0 1 -.616-.773l.973-1.045-3.152 1.813a.493.493 0 0 1 -.25.07z" fill="#324e56"/><path d="m21.744 14.771 2.329 2.33c.008 1.641-1.89 5.521.128 6.212 2.045.4 3.8-1.547 5.611-2.251 1.944.724 3.779 2.944 5.968 2.089 2.022-1.053.164-4.479.151-6.308 5.312-5.03 5.49-5.544-2.01-6.361-1.137-1.473-1.67-4.889-3.821-4.882-2.373.34-2.672 3.275-3.9 4.938-2.647.362-8.75.553-4.456 4.233zm.679-2.925c5.96-.652 4.506-.254 7.268-5.245.554-.41 1.461 1.827 1.64 2.159.669.842.809 2.648 2.079 2.567 2.16.49 7.323.02 3.477 3.152-1.288 1.336-3.066 2.115-2.137 4.266.117 1.427 1.692 5.18-1.1 3.056-.965-.519-1.92-1.118-2.919-1.568-.789-.355-1.549.245-2.237.615-1.093.5-2.157 1.323-3.244 1.742-1.334-.532.325-4.5.29-5.793-.225-.976-5.79-4.545-3.117-4.951z" fill="#262626"/><path d="m3.6 6.966c-.8 3.342-.165 7.066-.317 10.523.485 8.77 8.793 10.835 16.187 9.944a15.12 15.12 0 0 0 7.715 5.678c-.29 3.214-.6 7-3.028 9.365-2.87-.308-5.4.595-4.9 3.979-5.042-.581-3.882 4.657-3.985 7.938-1.909-.18-3.189.64-3 2.654 0 1.321.141 2.433 1.744 2.514 5.034.255 10.147 0 15.186 0q8.376 0 16.75 0c1.766-.264 1.962-1.926 1.792-3.568-.088-1.655-1.759-1.584-3-1.562-.219-3.345 1.329-8.782-3.986-7.943.519-3.407-1.535-4.3-4.548-4.012-2.739-2.2-3.008-6.186-3.358-9.44a14.975 14.975 0 0 0 7.609-5.6c11.788 1.2 17.659-4.233 16.276-16.151-.012-2.193.618-5.695-2.555-5.7-2.474-.085-4.962-.012-7.439 0 .019-2.027.192-4.792-2.412-5.033-3.021-.052-6.038-.005-9.05-.021-6.468.029-12.946-.055-19.408.027-2.651.356-2.582 2.907-2.6 5.011-2.908.419-7.71-1.169-9.673 1.397zm10.533 19.6a9.705 9.705 0 0 1 -9.144-7.466 51.271 51.271 0 0 1 -.038-12.081c.349-.582.73-.588 1.291-.588h7.04c.008 1.043.042 2.088.118 3.133-2.346.2-6.864-1.056-6.126 2.815-.683 7.51 1.39 11.951 9.7 11.061a25.678 25.678 0 0 0 1.864 3.136c-1.568.008-3.138.024-4.709-.009zm2.1-4.749c.107.254.221.508.337.761-8.37.8-8.137-5.546-7.818-11.841.011-.392.028-.3.44-.3h4.3a38.328 38.328 0 0 0 2.732 11.381zm29.46 33.744c.342.064.446.059.571.525.067.251.156 2.294-.208 2.353-10.544-.009-21.1.013-31.641 0-.935-.114-.679-1.17-.679-1.967 0-.776.091-.911.763-.911 10.392.016 20.821-.022 31.194 0zm-2.425-5.161v4.022c-8.848.011-17.688.073-26.536-.026.316-1.7-.971-6.654 1.253-6.884.485-.057.981-.084 1.482-.1a.982.982 0 0 0 .861.005c6.423.175 12.787.087 19.207.033a1.006 1.006 0 0 0 .682.009c2.402-.159 3.215.528 3.051 2.941zm-4.349-6.306a3.7 3.7 0 0 1 .368 2.4c-6.192-.014-12.373.042-18.567-.048-.749-4.194 3.1-2.67 5.72-2.925h10.8a1.8 1.8 0 0 1 1.679.572zm-5.953-3.5a7.206 7.206 0 0 0 1.249 1.885c-2.9 0-5.794-.021-8.691-.014 2.344-2.346 2.744-5.929 3.063-9.078a10.185 10.185 0 0 0 2.8-.034 20.031 20.031 0 0 0 1.579 7.247zm19.504-34.172c1.188 0 2.559-.052 2.787 1.5.095 3.039 0 6.112.018 9.164-.47 8.446-6.932 10.139-14.2 9.49a26.135 26.135 0 0 0 1.788-3.015c7.586.8 10.648-3.24 9.873-10.5.752-4.969-2.831-3.381-6.16-3.617.077-1.009.126-2.017.141-3.024zm-5.982 4.132h3.547c.539 0 1.12-.17 1.229.527.238 6.45.568 12.288-7.887 11.365a37.649 37.649 0 0 0 3.111-11.892zm-31.063-8.921c9.228-.467 18.654-.011 27.945-.164 2.319.082 1.893 2.941 1.9 4.6.938 13.531-10.66 37.731-24.638 20.657-4.3-5.981-5.851-13.541-5.9-20.8-.003-1.074-.367-3.602.693-4.293z" fill="#262626"/></svg>