<svg height="512" viewBox="0 0 56 60" width="512" xmlns="http://www.w3.org/2000/svg"><g id="Page-1" fill="none" fill-rule="evenodd"><g id="023---Rucksack" fill-rule="nonzero" transform="translate(-1)"><path id="Shape" d="m45 24v32c0 1.6568542-1.3431458 3-3 3h-6c-1.6568542 0-3-1.3431458-3-3v-32z" fill="#549414"/><path id="Shape" d="m45 19.98v4.02h-12v-4c0-1.6568542 1.3431458-3 3-3h6c1.6490751-.0000366 2.9890062 1.3309616 3 2.98z" fill="#007900"/><path id="Shape" d="m36 59h-28c-1.65685425 0-3-1.3431458-3-3v-10h8v1c0 .5522847.4477153 1 1 1h4c.5522847 0 1-.4477153 1-1v-1h8.87c.0875244-.0000993.1747529-.0101641.26-.03 4.87-1.11 4.87-8.97 4.87-8.97v19c0 1.6568542 1.3431458 3 3 3z" fill="#007900"/><path id="Shape" d="m39.5 1c-3.59 0-6.5 3.58-6.5 8s2.91 8 6.5 8 6.5-3.58 6.5-8-2.91-8-6.5-8zm0 11c-1.5128276-.1493641-2.6258895-1.4850383-2.5-3-.1258895-1.51496168.9871724-2.8506359 2.5-3 1.5128276.1493641 2.6258895 1.48503832 2.5 3 .1258895 1.5149617-.9871724 2.8506359-2.5 3z" fill="#c81e1e"/><path id="Shape" d="m16.5 17h-8c-3.59 0-6.5-3.58-6.5-8s2.91-8 6.5-8h8c-3.59 0-6.5 3.58-6.5 8s2.91 8 6.5 8z" fill="#f44335"/><path id="Shape" d="m31.5 17h-15c-3.59 0-6.5-3.58-6.5-8s2.91-8 6.5-8h15c-3.59 0-6.5 3.58-6.5 8s2.91 8 6.5 8z" fill="#ff9801"/><path id="Shape" d="m39.5 17h-8c-3.59 0-6.5-3.58-6.5-8s2.91-8 6.5-8h8c-3.59 0-6.5 3.58-6.5 8s2.91 8 6.5 8z" fill="#f44335"/><path id="Shape" d="m33 9c0-4.42 2.91-8 6.5-8h-3c-3.59 0-6.5 3.58-6.5 8s2.91 8 6.5 8h3c-3.59 0-6.5-3.58-6.5-8z" fill="#c81e1e"/><ellipse id="Oval" cx="39.5" cy="9" fill="#37474f" rx="2.5" ry="3"/><path id="Shape" d="m54.82 30h-3.82c-.0703842.0017036-.1405596.0083869-.21.02-1.07-6.81-5.79-6.02-5.79-6.02v-4.02c2.1957519-.1171626 4.3520812.6171356 6.02 2.05 2.09 1.76 3.36 4.43 3.8 7.97z" fill="#37474f"/><path id="Shape" d="m56 31v11c0 .5522847-.4477153 1-1 1h-4.04c-.5366039-.0214812-.9604298-.4629665-.96-1v-11c.0015643-.4712832.3297862-.8784445.79-.98.0694404-.0116131.1396158-.0182964.21-.02h4c.5522847 0 1 .4477153 1 1z" fill="#549414"/><path id="Shape" d="m54.97 43c-.28 6.63-3.39 13-9.97 13v-4c4.83 0 5.77-6.47 5.96-9z" fill="#37474f"/><path id="Shape" d="m36 17c-1.6568542 0-3 1.3431458-3 3v17s0 7.86-4.87 8.97c-.0852471.0198359-.1724756.0299007-.26.03h-8.87v-1c0-.5522847-.4477153-1-1-1h-4c-.5522847 0-1 .4477153-1 1v1h-9.5c-.39035302.0000257-.74503909-.2270897-.90834714-.5816401s-.10538233-.7717173.14834714-1.0683599c2.26-2.64 2.26-7.35 2.26-7.35v-17c0-1.6568542 1.34314575-3 3-3z" fill="#60a917"/><path id="Shape" d="m10 45v1h3v-1c0-.5522847.4477153-1 1-1h-3c-.5522847 0-1 .4477153-1 1z" fill="#549414"/><path id="Shape" d="m33 17c-1.6568542 0-3 1.3431458-3 3v17s0 7.86-4.87 8.97c-.0852471.0198359-.1724756.0299007-.26.03h3c.0875244-.0000993.1747529-.0101641.26-.03 4.87-1.11 4.87-8.97 4.87-8.97v-17c0-1.6568542 1.3431458-3 3-3z" fill="#549414"/><rect id="Rectangle-path" fill="#ffeb3a" height="4" rx="1" width="6" x="13" y="44"/><g fill="#000"><path id="Shape" d="m8 60h34c1.8404427-.0053051 3.4397411-1.2657586 3.875-3.054 6.739-.537 9.6-7.172 10.044-13.18.6607264-.341815 1.0771431-1.0221035 1.081-1.766v-11c-.0029651-.8346995-.5240032-1.5797801-1.307-1.869-.340272-3.0236446-1.7717285-5.8193582-4.026-7.863-1.6237601-1.3982781-3.6737443-2.2045229-5.815-2.287-.2985744-1.1205862-1.0687801-2.0564354-2.111-2.565 2.1264679-1.8706901 3.3190387-4.5844382 3.259-7.416 0-4.962-3.364-9-7.5-9h-31c-4.136 0-7.5 4.038-7.5 9-.10311185 3.2607513 1.51355933 6.3361473 4.258 8.1-.801799.7514774-1.25711448 1.8010918-1.258 2.9v17c0 .043-.032 4.379-2.023 6.7-.50781339.5936977-.62344409 1.4287344-.29606856 2.1380839s1.03781962 1.1631402 1.81906856 1.1619161h.5v9c0 2.209139 1.790861 4 4 4zm-2-4v-9h6c.002145.7113268.3832487 1.3675874 1 1.722v4.278c0 .5522847.4477153 1 1 1s1-.4477153 1-1v-4h2v4c0 .5522847.4477153 1 1 1s1-.4477153 1-1v-4.278c.6167513-.3544126.997855-1.0106732 1-1.722h7.87c.1622345.0000393.3239448-.0184131.482-.055 1.510783-.3589029 2.8205558-1.2959937 3.648-2.61v11.665c.0041446.7042532.1960759 1.3946535.556 2h-24.556c-1.1045695 0-2-.8954305-2-2zm8-9v-2h4v2zm28 11h-6c-1.1045695 0-2-.8954305-2-2v-31h10v31c0 1.1045695-.8954305 2-2 2zm13-27v11h-4v-11zm-5.107 12.664c-.264 2.4-1.125 6.4-3.893 7.186v-25.831c.561937.0874366 1.095165.3067591 1.556.64 1.162217.9749087 1.9185998 2.3485941 2.121 3.852-.4287511.3762849-.6753007.9185484-.677 1.489v11c.0005684.6691262.3357184 1.2936388.893 1.664zm-3.893 11.27v-2.027c3.186-.54 5.281-3.7 5.866-8.907h2.034c-.458 4.98-2.751 10.32-7.9 10.934zm7.65-25.934h-2.038c-.3082267-1.9570505-1.3377598-3.727876-2.886-4.964-.801851-.5775523-1.7424524-.9322618-2.726-1.028v-2.019c1.6143343.1135728 3.1489791.7448253 4.376 1.8 1.7830215 1.6245809 2.9412993 3.8219125 3.274 6.211zm-9.65-6h-10v-3c0-1.1045695.8954305-2 2-2h6c1.1045695 0 2 .8954305 2 2zm1-14c0 3.86-2.467 7-5.5 7s-5.5-3.14-5.5-7 2.467-7 5.5-7 5.5 3.14 5.5 7zm-10.2-7c-1.8343932 1.86336266-2.843276 4.38556966-2.8 7-.043276 2.6144303.9656068 5.1366373 2.8 7h-3.3c-3.033 0-5.5-3.14-5.5-7s2.467-7 5.5-7zm-8 0c-1.8343932 1.86336266-2.843276 4.38556966-2.8 7-.043276 2.6144303.9656068 5.1366373 2.8 7h-10.3c-3.033 0-5.5-3.14-5.5-7s2.467-7 5.5-7zm-23.8 7c0-3.86 2.467-7 5.5-7h3.3c-1.8343932 1.86336266-2.843276 4.38556966-2.8 7-.043276 2.6144303.9656068 5.1366373 2.8 7h-3.3c-3.033 0-5.5-3.14-5.5-7zm3 28v-17c0-1.1045695.8954305-2 2-2h24.556c-.3599241.6053465-.5518554 1.2957468-.556 2v17c0 .071-.047 7.073-4.13 8h-7.87c0-1.1045695-.8954305-2-2-2h-4c-1.1045695 0-2 .8954305-2 2h-8.5c2.472-2.887 2.5-7.792 2.5-8z"/><path id="Shape" d="m36 9c-.1264835 2.0671312 1.4343722 3.8509663 3.5 4 2.0656278-.1490337 3.6264835-1.9328688 3.5-4 .1264835-2.06713116-1.4343722-3.85096625-3.5-4-2.0656278.14903375-3.6264835 1.93286884-3.5 4zm5 0c0 1.084-.687 2-1.5 2s-1.5-.916-1.5-2 .687-2 1.5-2 1.5.916 1.5 2z"/><path id="Shape" d="m18.5 33.6 7.077 3.3c.3246524.1576822.7090822.1281887 1.0058819-.0771714s.4599106-.5547181.4267886-.9141145-.2573369-.6730585-.5866705-.8207141l-5.558-2.588 5.558-2.594c.3518615-.1643875.5767223-.5176319.5767223-.906s-.2248608-.7416125-.5767223-.906l-5.558-2.594 5.558-2.594c.4914115-.2386764.7003313-.8275519.4692161-1.3225645-.2311151-.4950126-.8167187-.7129351-1.3152161-.4894355l-7.077 3.306-7.077-3.3c-.4984974-.2234996-1.084101-.0055771-1.3152161.4894355-.23111519.4950126-.0221954 1.0838881.4692161 1.3225645l5.558 2.588-5.558 2.594c-.3518615.1643875-.5767223.5176319-.5767223.906s.2248608.7416125.5767223.906l5.558 2.594-5.558 2.594c-.3293336.1476556-.5535485.4613177-.58667047.8207141-.033122.3593964.12998887.7087544.42678857.9141145s.6812295.2348536 1.0058819.0771714zm-5.135-4.6 5.135-2.4 5.135 2.4-5.135 2.4z"/></g></g></g></svg>