<svg id="Layer_1" enable-background="new 0 0 48 48" viewBox="0 0 48 48" xmlns="http://www.w3.org/2000/svg"><g><g><path d="m41.3 22.6v20.7c0 1.5-1.2 2.8-2.7 2.8h-33.9c-1.5-.1-2.7-1.3-2.7-2.8v-20.7c0-1.3.9-2.4 2.1-2.7.2 0 .4-.1.6-.1h33.8c1.5 0 2.8 1.3 2.8 2.8z" fill="#50be9e"/><path d="m38.5 47.5h-33.8c-2.3 0-4.2-1.9-4.2-4.3v-20.6c0-2 1.3-3.7 3.2-4.1.3-.1.7-.1 1-.1h33.8c2.3 0 4.2 1.9 4.2 4.2v20.7c0 2.3-1.9 4.2-4.2 4.2zm-33.8-26.2c-.1 0-.2 0-.3 0-.5.1-.9.6-.9 1.2v20.7c0 .7.6 1.3 1.2 1.3h33.8c.7 0 1.2-.6 1.2-1.3v-20.6c0-.7-.6-1.2-1.2-1.2h-33.8z" fill="#0a806d"/></g><g><path d="m28.9 28.3c0 1.1.4 2 1.1 2.7-.7.7-1.7 1.1-2.7 1.1-2.1 0-3.9-1.7-3.9-3.9 0-2.1 1.7-3.9 3.9-3.9 1.1 0 2 .4 2.7 1.1-.7.8-1.1 1.8-1.1 2.9z" fill="#fff"/><path d="m27.3 33.6c-3 0-5.4-2.4-5.4-5.4s2.4-5.4 5.4-5.4c1.4 0 2.8.6 3.8 1.6l1.1 1.1-1.1 1.1c-.5.5-.7 1-.7 1.7 0 .6.2 1.2.7 1.7l1.1 1.1-1.2 1c-1 1-2.3 1.5-3.7 1.5zm0-7.7c-1.3 0-2.4 1.1-2.4 2.4s1.1 2.4 2.4 2.4c.2 0 .4 0 .6-.1-.3-.7-.5-1.5-.5-2.3s.2-1.6.5-2.3c-.2-.1-.4-.1-.6-.1z" fill="#0a806d"/></g><g><path d="m36.6 28.3c0 2.1-1.7 3.9-3.9 3.9-1.1 0-2-.4-2.7-1.1s-1.1-1.7-1.1-2.7c0-1.1.4-2 1.1-2.7s1.7-1.1 2.7-1.1c2.2-.2 3.9 1.5 3.9 3.7z" fill="#dbdee1"/><path d="m32.7 33.6c-1.4 0-2.8-.6-3.8-1.6s-1.6-2.4-1.6-3.8.6-2.8 1.6-3.8 2.4-1.6 3.8-1.6c3 0 5.4 2.4 5.4 5.4s-2.4 5.4-5.4 5.4zm0-7.7c-.6 0-1.2.2-1.7.7-.4.4-.7 1-.7 1.7 0 .6.2 1.2.7 1.7.4.4 1 .7 1.7.7 1.3 0 2.4-1.1 2.4-2.4s-1.1-2.4-2.4-2.4z" fill="#0a806d"/></g><g><path d="m7.8 38.5h4.6v3h-4.6z" fill="#0a806d"/></g><g><path d="m15.5 38.5h4.6v3h-4.6z" fill="#0a806d"/></g><g><path d="m23.1 38.5h4.6v3h-4.6z" fill="#0a806d"/></g><g><path d="m30.8 38.5h4.6v3h-4.6z" fill="#0a806d"/></g><g><path d="m45.8 16.4-4.6 13.2v-7c0-1.5-1.2-2.7-2.7-2.7h-33.8c-.2 0-.4 0-.6.1l5.6-16.2c.5-1.4 2-2.1 3.4-1.6l31.1 10.8c1.4.5 2.1 2 1.6 3.4z" fill="#dbdee1"/><path d="m39.7 38.4v-15.8c0-.7-.6-1.2-1.2-1.2h-33.8c-.1 0-.2 0-.3 0l-2.6.6 6.5-18.7c.6-1.7 2.2-2.8 3.9-2.8.5 0 .9.1 1.4.2l31.1 10.9c2.2.8 3.3 3.2 2.6 5.3zm-33.5-20.1h32.3c1.9 0 3.5 1.2 4 3l1.9-5.4c.2-.6-.1-1.3-.7-1.5l-31.1-10.8c-.6-.2-1.3.1-1.5.7z" fill="#0a806d"/></g><g><path d="m44.9 19.2-2.3 6.7-1.3-.5v-2.9c0-1.5-1.2-2.7-2.7-2.7h-13.5l-18.7-6.5 2.4-6.8z" fill="#50be9e"/><path d="m43.5 27.8-3.7-1.3v-4c0-.7-.6-1.2-1.2-1.2h-13.8l-20.3-7.1 3.4-9.6 39 13.6zm-2-8.2c.5.5.8 1 1 1.7l.4-1.2zm-16.2-1.3h12.6l-28.2-9.8-1.4 3.9z" fill="#0a806d"/></g></g></svg>