<svg clip-rule="evenodd" fill-rule="evenodd" height="2.833in" image-rendering="optimizeQuality" shape-rendering="geometricPrecision" text-rendering="geometricPrecision" viewBox="0 0 2.83333 2.83333" width="2.833in" xmlns="http://www.w3.org/2000/svg"><g id="Layer_x0020_1"><circle cx="1.417" cy="1.417" fill="#29af33" r="1.417"/><g id="_712099176"><g><path id="_712100616" d="m2.14131 2.24354h-1.4493c-.0709449 0-.128681-.0577205-.128681-.128681v-.061874c0-.0220984.0179134-.04.0399961-.04.0220866 0 .04.0179016.04.04v.061874c0 .0268425.0218346.0486811.048685.0486811h1.4493c.0268465 0 .048685-.0218307.048685-.0486811v-1.22307c0-.0220827.0178976-.04.04-.04.0220984 0 .0399961.0179173.0399961.04v1.22309c-.00001575.0709331-.0577362.128665-.128689.128665zm-1.53798-.280134c-.0220827 0-.0399961-.0179016-.0399961-.04v-1.20494c0-.0709449.0577205-.128681.128681-.128681h1.4493c.0709449 0 .128681.0577205.128681.128681v.0437362c0 .0220984-.0178976.04-.0399961.04-.0221024 0-.04-.0179016-.04-.04v-.0437362c0-.0268465-.0218346-.0486811-.048685-.0486811h-1.4493c-.0268465 0-.048685.0218307-.048685.0486811v1.20494c0 .0220984-.0179134.04-.04.04z" fill="#fefefe"/></g><g><path id="_712099776" d="m2.22998 1.06001h-1.62666c-.0220827 0-.0399961-.0179055-.0399961-.04s.0179134-.04.0399961-.04h1.62666c.0220984 0 .0399961.0179016.0399961.04 0 .0221024-.0178976.04-.0399961.04z" fill="#fefefe"/></g><g><path id="_712099944" d="m.834413.864898h-.103846c-.0220984 0-.04-.0179016-.04-.04s.0179016-.04.04-.04h.103846c.0220984 0 .04.0179016.04.04s-.0179055.04-.04.04z" fill="#fefefe"/></g><g><path id="_712100184" d="m1.08878.864898h-.103858c-.0220984 0-.04-.0179016-.04-.04s.0179016-.04.04-.04h.103858c.0220984 0 .04.0179016.04.04s-.0179173.04-.04.04z" fill="#fefefe"/></g><g><path id="_712100040" d="m1.34313.864898h-.103846c-.0221024 0-.04-.0179016-.04-.04s.0178976-.04.04-.04h.103846c.0220984 0 .04.0179016.04.04s-.0179016.04-.04.04z" fill="#fefefe"/></g><g><path id="_712100016" d="m2.06233.864898h-.494024c-.0220984 0-.04-.0179016-.04-.04s.0179016-.04.04-.04h.494012c.0221024 0 .04.0179016.04.04s-.0178898.04-.0399882.04z" fill="#fefefe"/></g><g><path id="_712099440" d="m1.11598 2.00643c-.217626 0-.394677-.177039-.394677-.394665s.177051-.394661.394677-.394661.394665.177035.394665.394661-.177043.394665-.394665.394665zm0-.709327c-.173512 0-.314681.141161-.314681.314661s.141165.314665.314681.314665c.173512 0 .314665-.141165.314665-.314665s-.141154-.314661-.314665-.314661z" fill="#fefefe"/></g><g><path id="_712099728" d="m1.11598 2.00643c-.133 0-.256209-.0663465-.329567-.177484-.00965354-.0146417-.00866535-.0338465.00244488-.0473898.0402638-.0491417.0995433-.0773189.162626-.0773189h.328953c.0630945 0 .122386.0281772.16265.0773346.0110945.0135669.0120827.0327638.00242913.0473898-.0733425.111122-.196539.177469-.329535.177469zm-.243472-.195307c.0595276.0727362.148362.115319.243469.115319.0951102 0 .183941-.0425669.243457-.115307-.0225394-.0173346-.0501378-.0269173-.0790039-.0269173l-.328937.00000394c-.0288425 0-.0564449.00958661-.0789843.0269016z" fill="#fefefe"/></g><g><path id="_712099032" d="m1.11598 1.66159c-.0832638 0-.151-.0677402-.151-.151004s.0677362-.151.151-.151.151.0677362.151.151c-.00000394.0832717-.0677402.151004-.151.151004zm0-.221984c-.0391535 0-.071.0318465-.071.0709843 0 .0391575.0318465.0710039.071.0710039s.0710039-.0318465.0710039-.0710039c-.00000787-.0391378-.0318661-.0709843-.0710039-.0709843z" fill="#fefefe"/></g><g><path id="_712098864" d="m2.0729 1.39496h-.445177c-.0220984 0-.04-.0178976-.04-.04v-.181728c0-.0221024.0179016-.04.04-.04h.445193c.0221024 0 .04.0178976.04.04v.181736c-.00001575.0220945-.0179213.0399921-.0400157.0399921zm-.405177-.0799961h.365193v-.10174l-.365193.00000787v.101732z" fill="#fefefe"/></g><g><path id="_712099368" d="m2.08869 1.60033h-.47676c-.0220984 0-.0399961-.0178976-.0399961-.04 0-.0220984.0178976-.04.0399961-.04h.47676c.0220984 0 .04.0179016.04.04 0 .0221024-.0179016.04-.04.04z" fill="#fefefe"/></g><g><path id="_712099056" d="m2.08869 1.80572h-.47676c-.0220984 0-.0399961-.0178976-.0399961-.04 0-.0220984.0178976-.04.0399961-.04h.47676c.0220984 0 .04.0179016.04.04 0 .0221024-.0179016.04-.04.04z" fill="#fefefe"/></g><g><path id="_712099392" d="m2.08869 2.0111h-.47676c-.0220984 0-.0399961-.0178976-.0399961-.04 0-.0220984.0178976-.04.0399961-.04h.47676c.0220984 0 .04.0179016.04.04 0 .0221024-.0179016.04-.04.04z" fill="#fefefe"/></g></g></g></svg>