<svg clip-rule="evenodd" fill-rule="evenodd" height="1.707in" image-rendering="optimizeQuality" shape-rendering="geometricPrecision" text-rendering="geometricPrecision" viewBox="0 0 1707 1707" width="1.707in" xmlns="http://www.w3.org/2000/svg" xmlns:xlink="http://www.w3.org/1999/xlink"><linearGradient id="id0" gradientUnits="userSpaceOnUse" x1="474.969" x2="1231.69" y1="853.402" y2="853.402"><stop offset="0" stop-color="#0489c4"/><stop offset=".490196" stop-color="#1da2dd"/><stop offset="1" stop-color="#36bbf6"/></linearGradient><linearGradient id="id1" gradientUnits="userSpaceOnUse" x1="564.976" x2="1141.69" y1="853.402" y2="853.402"><stop offset="0" stop-color="#e6e6e6"/><stop offset=".478431" stop-color="#f2f2f2"/><stop offset="1" stop-color="#fff"/></linearGradient><linearGradient id="id2" gradientUnits="userSpaceOnUse" x1="534.831" x2="1171.69" y1="1485.26" y2="1485.26"><stop offset="0" stop-color="#7cd0e2"/><stop offset=".478431" stop-color="#95e7f0"/><stop offset="1" stop-color="#aeffff"/></linearGradient><linearGradient id="id3" gradientUnits="userSpaceOnUse" x1="215.78" x2="301.898" y1="580.882" y2="580.882"><stop offset="0" stop-color="#0d2265"/><stop offset="1" stop-color="#3f5497"/></linearGradient><linearGradient id="id4" gradientUnits="userSpaceOnUse" x1="1404.76" x2="1490.88" xlink:href="#id3" y1="754.157" y2="754.157"/><linearGradient id="id5" gradientUnits="userSpaceOnUse" x1="1404.76" x2="1490.88" xlink:href="#id3" y1="501.776" y2="501.776"/><linearGradient id="id6" gradientUnits="userSpaceOnUse" x1="653.835" x2="1052.7" y1="853.331" y2="853.331"><stop offset="0" stop-color="#ddb13d"/><stop offset=".509804" stop-color="#eeca56"/><stop offset="1" stop-color="#ffe36f"/></linearGradient><linearGradient id="id7" gradientUnits="userSpaceOnUse" x1="858.886" x2="994.594" y1="172.512" y2="172.512"><stop offset="0" stop-color="#233f87"/><stop offset=".411765" stop-color="#3c58a0"/><stop offset="1" stop-color="#5571b9"/></linearGradient><linearGradient id="id8" gradientUnits="userSpaceOnUse" x1="374.122" x2="1332.26" y1="853.331" y2="853.331"><stop offset="0" stop-color="#44c3e0"/><stop offset="1" stop-color="#76f5ff"/></linearGradient><linearGradient id="id9" gradientUnits="userSpaceOnUse" x1="288.004" x2="1418.52" y1="853.331" y2="853.331"><stop offset="0" stop-color="#112973"/><stop offset="1" stop-color="#435ba5"/></linearGradient><linearGradient id="id10" gradientUnits="userSpaceOnUse" x1="729.012" x2="805.13" y1="172.512" y2="172.512"><stop offset="0" stop-color="#233f87"/><stop offset=".439216" stop-color="#3c58a0"/><stop offset="1" stop-color="#5571b9"/></linearGradient><g id="Layer_x0020_1"><g id="_468083872"><g><g><path d="m216 670h86v-178h-86z" fill="url(#id3)"/><path d="m1405 586h86v-168h-86z" fill="url(#id5)"/><path d="m1405 838h86v-168h-86z" fill="url(#id4)"/></g><path d="m538 0h630c138 0 251 113 251 250v1206c0 138-113 251-251 251h-630c-138 0-250-113-250-251v-1206c0-137 113-250 250-250z" fill="url(#id9)"/><path d="m538 86h43l35 74c23 49 44 99 98 99h278c54 0 76-50 99-99l34-74h43c90 0 164 74 164 164v1206c0 91-74 165-164 165h-630c-90 0-164-74-164-165v-1206c0-90 74-164 164-164z" fill="url(#id8)"/><path d="m552 1502c-10 0-17-7-17-17 0-9 7-17 17-17h603c9 0 17 8 17 17 0 10-8 17-17 17z" fill="url(#id2)"/><path d="m767 134c21 0 38 17 38 39 0 20-17 38-38 38s-38-17-38-38c0-22 17-39 38-39z" fill="url(#id10)"/><path d="m876 189c-10 0-17-7-17-16 0-10 8-17 17-17h102c9 0 17 7 17 17 0 9-8 16-17 16z" fill="url(#id7)"/></g><g><circle cx="853" cy="853" fill="url(#id0)" r="378"/><circle cx="853" cy="853" fill="url(#id1)" r="288"/><path d="m665 918c-15-14-15-37 0-52 14-14 37-14 51 0l57 57 217-217c14-14 38-14 52 0s14 37 0 52l-243 243c-14 14-37 14-52 0z" fill="url(#id6)"/></g></g></g></svg>