<svg id="Layer_1" enable-background="new 0 0 512 512" viewBox="0 0 512 512" xmlns="http://www.w3.org/2000/svg" xmlns:xlink="http://www.w3.org/1999/xlink"><linearGradient id="SVGID_1_" gradientUnits="userSpaceOnUse" x1="136.379" x2="417.314" y1="584.443" y2="97.849"><stop offset="0" stop-color="#57ffd9"/><stop offset="1" stop-color="#2a6eff"/></linearGradient><path d="m485.136 329.75c-4.9 0-9.486 1.37-13.396 3.746-4.493-7.668-12.821-12.829-22.333-12.829-5.31 0-10.256 1.615-14.371 4.38-4.663-6.812-12.497-11.29-21.357-11.29-3.491 0-6.823.695-9.864 1.955v-10.419-61.896c-.036-14.227-11.638-25.8-25.864-25.8-14.261 0-25.864 11.603-25.864 25.864v102.997l-17.673-22.551c-12.568-16.039-27.053-14.982-35.637-9.204-13.338 8.979-19.107 32.28-5.672 55.734 13.182 23.013 24.288 38.279 33.211 50.547 15.721 21.61 22.896 31.474 22.917 56.967l.019 23.716c.003 4.415 3.584 7.993 8 7.993h125.255c4.418 0 8-3.582 8-8v-28.183c18.461-30.983 20.492-73.238 20.493-90.237v-27.627c0-14.26-11.603-25.863-25.864-25.863zm-10.629 163.911h-109.261l-.012-14.365h109.273zm20.493-110.42c0 15.286-1.719 52.668-17.084 80.055h-113.57c-2.746-21.008-11.733-33.361-25.09-51.723-8.696-11.953-19.517-26.83-32.267-49.088-9.177-16.021-5.477-30.335.723-34.508 5.649-3.803 11.75 2.788 14.109 5.8l31.969 40.794c2.105 2.686 5.681 3.738 8.907 2.628 3.225-1.113 5.39-4.15 5.39-7.562v-126.175c0-5.439 4.425-9.864 9.864-9.864 5.425 0 9.851 4.414 9.864 9.819v107.198c0 4.418 3.582 8 8 8s8-3.582 8-8v-10.993c0-5.439 4.425-9.865 9.864-9.865s9.865 4.426 9.865 9.865v6.835c0 4.412 3.572 7.991 7.983 8h.017c4.403 0 7.981-3.562 8-7.967.022-5.417 4.447-9.823 9.863-9.823 5.439 0 9.864 4.425 9.864 9.864v9.083c0 4.418 3.582 8 8 8s8-3.582 8-8c0-5.439 4.425-9.864 9.864-9.864s9.864 4.425 9.864 9.864zm-233.584-49.264h-56.186c-4.418 0-8 3.582-8 8v159.685c0 4.418 3.582 8 8 8h56.186c4.418 0 8-3.582 8-8v-159.685c0-4.418-3.582-8-8-8zm-8 159.684h-40.186v-143.684h40.186zm-90.116-206.327h-56.185c-4.418 0-8 3.582-8 8v206.327c0 4.418 3.582 8 8 8h56.185c4.418 0 8-3.582 8-8v-206.327c0-4.418-3.582-8-8-8zm-8 206.327h-40.185v-190.327h40.185zm-90.115-97.868h-56.185c-4.418 0-8 3.582-8 8v97.868c0 4.418 3.582 8 8 8h56.185c4.418 0 8-3.582 8-8v-97.868c0-4.418-3.581-8-8-8zm-8 97.868h-40.185v-81.868h40.185zm-20.092-129.292c15.439 0 28-12.561 28-28 0-6.112-1.974-11.769-5.311-16.378l65.411-85.046c3.112 1.196 6.486 1.859 10.014 1.859 6.767 0 12.981-2.414 17.827-6.425l53.543 35.881c-.815 2.622-1.254 5.407-1.254 8.293 0 15.439 12.561 28 28 28s28-12.561 28-28c0-4.072-.881-7.94-2.451-11.434l105.326-90.651-2.524 20.565c-.538 4.386 2.581 8.377 6.966 8.915.331.041.659.061.985.061 3.983-.001 7.433-2.973 7.93-7.026l5.044-41.098c.281-2.289-.439-4.588-1.977-6.308-1.537-1.719-3.743-2.669-6.047-2.667l-41.404.436c-4.418.047-7.962 3.666-7.916 8.084.046 4.39 3.619 7.916 7.998 7.916h.085l19.493-.205-104.402 89.856c-4.362-2.807-9.545-4.443-15.106-4.443-6.767 0-12.98 2.414-17.826 6.424l-53.543-35.881c.814-2.621 1.254-5.406 1.254-8.292 0-15.439-12.561-28-28-28s-28 12.561-28 28c0 6.112 1.974 11.769 5.311 16.378l-65.412 85.046c-3.112-1.196-6.486-1.858-10.014-1.858-15.439 0-28 12.561-28 28s12.56 27.998 28 27.998zm196.23-101.816c6.617 0 12 5.383 12 12s-5.383 12-12 12-12-5.383-12-12 5.384-12 12-12zm-98.115-65.749c6.617 0 12 5.383 12 12s-5.383 12-12 12-12-5.383-12-12 5.383-12 12-12zm-98.115 127.565c6.617 0 12 5.383 12 12s-5.383 12-12 12-12-5.383-12-12 5.383-12 12-12zm187.235-116.03c56.794 0 103-46.206 103-103s-46.206-103-103-103-103 46.206-103 103 46.205 103 103 103zm0-190c47.972 0 87 39.028 87 87s-39.028 87-87 87-87-39.028-87-87 39.027-87 87-87zm0 164.27c42.607 0 77.271-34.663 77.271-77.271s-34.664-77.271-77.271-77.271-77.271 34.663-77.271 77.271 34.664 77.271 77.271 77.271zm0-138.541c33.785 0 61.271 27.485 61.271 61.271s-27.486 61.271-61.271 61.271-61.271-27.485-61.271-61.271 27.486-61.271 61.271-61.271zm-24.503 46.427c0-10.396 6.982-19.193 16.502-21.948v-2.619c0-4.418 3.582-8 8-8s8 3.582 8 8v2.281c5.378 1.216 10.229 4.368 13.531 8.934 2.589 3.58 1.787 8.581-1.793 11.17-3.58 2.591-8.581 1.787-11.17-1.793-1.299-1.796-3.375-2.868-5.553-2.868h-4.673c-3.773 0-6.843 3.07-6.843 6.844s3.07 6.844 6.843 6.844h3.318c12.596 0 22.844 10.248 22.844 22.844 0 10.396-6.982 19.193-16.503 21.948v2.619c0 4.418-3.582 8-8 8s-8-3.582-8-8v-2.281c-5.379-1.217-10.229-4.369-13.531-8.936-2.589-3.58-1.786-8.581 1.794-11.17 3.582-2.589 8.582-1.786 11.17 1.795 1.299 1.796 3.375 2.868 5.552 2.868h4.673c3.774 0 6.844-3.07 6.844-6.844s-3.07-6.844-6.844-6.844h-3.318c-12.595 0-22.843-10.248-22.843-22.844z" fill="url(#SVGID_1_)"/></svg>