<svg id="Layer_1" enable-background="new 0 0 512 512" viewBox="0 0 512 512" xmlns="http://www.w3.org/2000/svg" xmlns:xlink="http://www.w3.org/1999/xlink"><linearGradient id="SVGID_1_" gradientUnits="userSpaceOnUse" x1=".003" x2="511.997" y1="256" y2="256"><stop offset="0" stop-color="#a647fe"/><stop offset=".1488" stop-color="#a04cfc"/><stop offset=".3414" stop-color="#905af8"/><stop offset=".5582" stop-color="#7571f0"/><stop offset=".7908" stop-color="#5191e5"/><stop offset="1" stop-color="#29b4d9"/></linearGradient><path d="m96.55 174.38h-43.96c-8.5 0-15.42 6.92-15.42 15.42v43.97c0 8.5 6.92 15.42 15.42 15.42h43.96c8.5 0 15.42-6.92 15.42-15.42v-43.97c0-8.51-6.92-15.42-15.42-15.42zm-.57 58.82h-42.83v-42.83h42.83zm98.71-58.82h-43.97c-8.5 0-15.42 6.92-15.42 15.42v43.97c0 8.5 6.92 15.42 15.42 15.42h43.97c8.5 0 15.42-6.92 15.42-15.42v-43.97c0-8.51-6.92-15.42-15.42-15.42zm-.57 58.82h-42.83v-42.83h42.83zm98.73-58.82h-43.97c-8.5 0-15.42 6.92-15.42 15.42v43.97c0 8.5 6.92 15.42 15.42 15.42h43.97c8.5 0 15.42-6.92 15.42-15.42v-43.97c0-8.51-6.92-15.42-15.42-15.42zm-.57 58.82h-42.83v-42.83h42.83zm54.74 15.98h43.97c8.5 0 15.42-6.92 15.42-15.42v-43.96c0-8.5-6.92-15.42-15.42-15.42h-43.97c-8.5 0-15.42 6.92-15.42 15.42v43.97c0 8.5 6.92 15.41 15.42 15.41zm.57-58.82h42.83v42.83h-42.83zm-251.04 68.77h-43.96c-8.5 0-15.42 6.92-15.42 15.42v43.97c0 8.5 6.92 15.42 15.42 15.42h43.96c8.5 0 15.42-6.92 15.42-15.42v-43.97c0-8.5-6.92-15.42-15.42-15.42zm-.57 58.82h-42.83v-42.83h42.83zm98.71-58.82h-43.97c-8.5 0-15.42 6.92-15.42 15.42v43.97c0 8.5 6.92 15.42 15.42 15.42h43.97c8.5 0 15.42-6.92 15.42-15.42v-43.97c0-8.5-6.92-15.42-15.42-15.42zm-.57 58.82h-42.83v-42.83h42.83zm98.73-58.82h-43.97c-8.5 0-15.42 6.92-15.42 15.42v43.97c0 8.5 6.92 15.42 15.42 15.42h43.97c8.5 0 15.42-6.92 15.42-15.42v-43.97c0-8.5-6.92-15.42-15.42-15.42zm-.57 58.82h-42.83v-42.83h42.83zm-195.73 25.94h-43.96c-8.5 0-15.42 6.92-15.42 15.42v43.97c0 8.5 6.92 15.42 15.42 15.42h43.96c8.5 0 15.42-6.92 15.42-15.42v-43.97c0-8.5-6.92-15.42-15.42-15.42zm-.57 58.82h-42.83v-42.83h42.83zm98.71-58.82h-43.97c-8.5 0-15.42 6.92-15.42 15.42v43.97c0 8.5 6.92 15.42 15.42 15.42h43.97c8.5 0 15.42-6.92 15.42-15.42v-43.97c0-8.5-6.92-15.42-15.42-15.42zm-.57 58.82h-42.83v-42.83h42.83zm98.73-58.82h-43.97c-8.5 0-15.42 6.92-15.42 15.42v43.97c0 8.5 6.92 15.42 15.42 15.42h43.97c8.5 0 15.42-6.92 15.42-15.42v-43.97c0-8.5-6.92-15.42-15.42-15.42zm-.57 58.82h-42.83v-42.83h42.83zm151.29-102.04v-200.59c0-23.04-18.73-41.78-41.75-41.78h-47.93v-20.3c0-12.18-9.91-22.08-22.08-22.08-12.19 0-22.11 9.91-22.11 22.08v20.3h-175.8v-20.3c0-12.18-9.92-22.08-22.11-22.08-12.18 0-22.08 9.91-22.08 22.08v20.3h-47.95c-23.03 0-41.76 18.74-41.76 41.78v313.85c0 23.02 18.73 41.75 41.75 41.75h289.53c18.3 24.5 47.53 40.39 80.39 40.39 55.32 0 100.32-44.99 100.32-100.29.01-44.16-28.69-81.75-68.42-95.11zm-117.89-262.67c0-3.3 2.8-6.09 6.12-6.09 3.3 0 6.09 2.79 6.09 6.09v56.58c0 3.3-2.79 6.09-6.09 6.09-3.32 0-6.12-2.79-6.12-6.09zm-220 0c0-3.3 2.79-6.09 6.09-6.09 3.32 0 6.12 2.79 6.12 6.09v56.58c0 3.3-2.8 6.09-6.12 6.09-3.3 0-6.09-2.79-6.09-6.09zm-63.92 36.29h47.93v20.3c0 12.18 9.91 22.08 22.08 22.08 12.19 0 22.11-9.91 22.11-22.08v-20.3h175.8v20.3c0 12.18 9.92 22.08 22.11 22.08 12.18 0 22.08-9.91 22.08-22.08v-20.3h47.93c14.21 0 25.77 11.57 25.77 25.79v37.28h-411.58v-37.28c0-14.22 11.56-25.79 25.77-25.79zm0 365.41c-14.21 0-25.77-11.56-25.77-25.77v-260.59h411.59v143.39c-5.18-.83-10.49-1.27-15.9-1.27-1.77 0-3.53.05-5.27.14v-21.06c0-8.5-6.92-15.42-15.42-15.42h-43.97c-8.5 0-15.42 6.92-15.42 15.42v43.97c0 4.37 1.83 8.31 4.76 11.11-15.53 17.67-24.97 40.83-24.97 66.16 0 15.74 3.65 30.64 10.14 43.91h-279.77zm306.59-121.64c-.25-.04-.51-.07-.77-.09v-42.85h42.83v22.63c-15.69 3.4-30.03 10.49-42.06 20.31zm63.33 162.03c-46.48 0-84.3-37.82-84.3-84.3 0-46.5 37.82-84.33 84.3-84.33 46.5 0 84.33 37.83 84.33 84.33 0 46.48-37.83 84.3-84.33 84.3zm54.15-118.92c3.12 3.12 3.12 8.18 0 11.3l-57.94 57.91c-1.56 1.56-3.61 2.34-5.65 2.34-2.05 0-4.09-.78-5.65-2.34l-39.03-39.03c-3.12-3.12-3.12-8.18 0-11.3s8.18-3.12 11.3 0l33.38 33.38 52.29-52.26c3.12-3.13 8.18-3.12 11.3 0z" fill="url(#SVGID_1_)"/></svg>