<svg id="Layer_1" enable-background="new 0 0 512 512" viewBox="0 0 512 512" xmlns="http://www.w3.org/2000/svg" xmlns:xlink="http://www.w3.org/1999/xlink"><linearGradient id="SVGID_1_" gradientTransform="matrix(1 0 0 -1 0 512)" gradientUnits="userSpaceOnUse" x1="74.981" x2="437.019" y1="437.019" y2="74.981"><stop offset="0" stop-color="#fd7f60"/><stop offset="1" stop-color="#fa262a"/></linearGradient><linearGradient id="SVGID_00000011753461399656248860000001277160543672002184_" gradientTransform="matrix(.707 .707 .707 -.707 -23.289 160.219)" gradientUnits="userSpaceOnUse" x1="117.818" x2="412.611" y1="129.759" y2="129.759"><stop offset="0" stop-color="#ffece7"/><stop offset="1" stop-color="#fcbca3"/></linearGradient><g id="Layer_2_00000091017253724418459450000011803202042111884947_"><g id="Layer_2_copy"><g id="_139"><circle cx="256" cy="256" fill="url(#SVGID_1_)" r="256"/><path d="m374.5 308.7-52.7-52.7 52.7-52.7c10.3-10.3 10.3-26.9 0-37.2l-28.6-28.6c-10.3-10.3-26.9-10.3-37.2 0l-52.7 52.7-52.7-52.7c-10.3-10.3-26.9-10.3-37.2 0l-28.6 28.6c-10.3 10.3-10.3 26.9 0 37.2l52.7 52.7-52.7 52.7c-10.3 10.3-10.3 26.9 0 37.2l28.6 28.6c10.3 10.3 26.9 10.3 37.2 0l52.7-52.7 52.7 52.7c10.3 10.3 26.9 10.3 37.2 0l28.6-28.6c10.3-10.3 10.3-26.9 0-37.2z" fill="url(#SVGID_00000011753461399656248860000001277160543672002184_)"/></g></g></g></svg>