<svg clip-rule="evenodd" fill-rule="evenodd" image-rendering="optimizeQuality" shape-rendering="geometricPrecision" text-rendering="geometricPrecision" viewBox="0 0 21.0002 21.0002" xmlns="http://www.w3.org/2000/svg"><g id="&#x56FE;&#x5C42;_x0020_1"><path d="m0 0h27.487v27.487h-27.487z" fill="none" transform="matrix(0 -.764 .764 0 0 21)"/><g id="_205313712" fill="#00ba00"><path id="_205299936" d="m19.9479 6.07864c-.00045.02351-.00144.04663-.00372.06692l-.0002.00164h.0002l-.83091 7.25261c-.0502.43837-.2397.84326-.53104 1.1346-.28697.28697-.66894.46551-1.11342.46551h-8.53767c-.43044 0-.77689-.16921-1.04833-.44041l-.00084.00084c-.28464-.28464-.47434-.68263-.58377-1.1031l-1.88847-7.25261c-.00258-.00997-.00476-.01994-.0066-.02991-.01205-.05824-.01052-.09703-.00918-.13572l.00045-.00962c.00342-.2265.18726-.4101.41501-.41183h.00327v-.00164h13.7174c.23191 0 .41997.18806.41997.41997 0 .01444-.00079.02872-.00218.04276l.00001-.00001zm-1.66802 7.22602.78463-6.84882h-12.7242l1.76837 6.79137c.07416.28499.19451.54656.36719.71924l-.00084.00084.00084.00079c.11811.11811.26862.19188.45529.19188h8.53767c.20582 0 .38425-.08418.51953-.21946.15889-.15889.26291-.38579.29154-.63586zm-12.8858-7.26402c.00015.00179.0003.00501.00025 0zm14.5538.038c-.00228.02257-.0064.04465-.0121.06598" fill-rule="nonzero"/><path id="_205315320" d="m7.35677 10.3563c.05978.22377-.07317.45375-.29694.51353s-.45375-.07317-.51353-.29694l-2.03218-7.58438h-3.04405c-.23191 0-.41997-.18806-.41997-.41997s.18806-.41997.41997-.41997h3.36575v.00045c.18543-.0001.35513.12362.40524.31123l2.11572 7.89606z" fill-rule="nonzero"/><g><circle id="_204948064" cx="10.181" cy="17.172" r="1.26"/><circle id="_207756912" cx="15.665" cy="17.172" r="1.26"/></g><g fill-rule="nonzero"><path id="_207772224" d="m10.6187 10.7279c-.23191 0-.41997-.18806-.41997-.41997s.18806-.41997.41997-.41997h4.10459c.23191 0 .41997.18806.41997.41997s-.18806.41997-.41997.41997z"/><path id="_207766632" d="m13.091 12.3602c0 .23191-.18806.41997-.41997.41997s-.41997-.18806-.41997-.41997v-4.10459c0-.23191.18806-.41997.41997-.41997s.41997.18806.41997.41997z"/></g></g></g></svg>