<svg id="Capa_1" enable-background="new 0 0 512 512" height="512" viewBox="0 0 512 512" width="512" xmlns="http://www.w3.org/2000/svg"><g><path d="m485.925 76.277h-205.43c-152.51 21.587-205.222 400.612-7.057 428.223h169.314c34.107 0 61.749-27.641 61.749-61.748v-344.888z" fill="#edebfd"/><path d="m280.495 76.277h-249.4l-23.595 21.587v344.888c0 34.107 27.641 61.748 61.748 61.748h204.189c-66.018-119.893-57.194-299.415 7.058-428.223z" fill="#d1d1ef"/><path d="m271.613 97.864h-264.113v-28.616c0-34.107 27.641-61.748 61.748-61.748h126.258c65.553 10.04 90.922 40.162 76.107 90.364z" fill="#4e3a65"/><circle cx="143.045" cy="52.682" fill="#00da77" r="15.061"/><circle cx="75.273" cy="52.682" fill="#ff8c8a" r="15.061"/><path d="m271.613 97.864h232.887v-28.616c0-34.107-27.641-61.748-61.749-61.748h-118.729c-71.496 8.032-85.091 60.242-53.57 90.34.387.007.773.024 1.161.024z" fill="#fd5f5c"/><path d="m211.089 54.238c8.562 25.686 32.379 43.114 59.363 43.602 14.882-34.258 33.058-64.751 53.57-90.34h-128.515z" fill="#fd3644"/><path d="m362.73 301.192c58.828-.496 104.118-38.527 104.118-82.828 0-39.79-36.898-75.56-88.995-81.853-102.896 12.464-127.918 150.018-35.727 172.442 2.149-1.111 4.301-2.33 6.45-3.692 4.227-2.678 9.15-4.027 14.154-4.069z" fill="#00da77"/><path d="m377.854 136.511c-66.08-7.982-121.854 32.434-121.854 81.853 0 23.293 12.243 44.337 31.944 59.391 3.314 2.533 4.081 7.199 1.702 10.625-1.129 1.626-2.305 3.212-3.525 4.735-7.611 9.478-1.627 23.555 10.482 24.599 13.313 1.141 29.338-.398 45.523-8.761-24.816-55.221-8.07-136.166 35.728-172.442z" fill="#00c344"/><path d="m256 346.364c0-41.355-38.578-75.633-89.002-81.831-86.035 8.201-106.785 133.037-39.588 162.653 7.455 1.314 15.207 2.011 23.167 2.011 2.269 0 4.508-.06 6.747-.171 20.262 15.332 41.316 18.123 58.074 16.687 12.109-1.044 18.093-15.121 10.482-24.599-2.801-3.494-5.362-7.32-7.681-11.205 23.102-15.201 37.801-38.023 37.801-63.545z" fill="#59d5ff"/><path d="m166.998 264.533c-5.352-.658-10.835-1.002-16.422-1.002-58.224 0-105.424 37.089-105.424 82.833 0 39.49 35.179 72.526 82.258 80.822-18.923-54.61-1.683-128.463 39.588-162.653z" fill="#00c4fc"/><path d="m442.752 0h-373.504c-38.184 0-69.248 31.064-69.248 69.248v76.81c0 4.143 3.357 7.5 7.5 7.5s7.5-3.357 7.5-7.5v-40.694h482v337.389c0 29.911-24.336 54.247-54.248 54.247h-58.736c-4.143 0-7.5 3.357-7.5 7.5s3.357 7.5 7.5 7.5h58.736c38.184 0 69.248-31.064 69.248-69.248v-373.504c0-38.184-31.064-69.248-69.248-69.248zm-427.752 90.363v-21.115c0-29.912 24.336-54.248 54.248-54.248h120.853l13.872 41.61c4.572 13.716 13.01 25.313 23.862 33.753zm256.613 0c-24.27 0-45.733-15.471-53.409-38.497l-12.291-36.866h236.839c29.912 0 54.248 24.336 54.248 54.248v21.115z"/><path d="m348.874 497h-279.626c-29.912 0-54.248-24.336-54.248-54.248v-261.553c0-4.143-3.357-7.5-7.5-7.5s-7.5 3.357-7.5 7.5v261.553c0 38.184 31.064 69.248 69.248 69.248h279.626c4.143 0 7.5-3.357 7.5-7.5s-3.357-7.5-7.5-7.5z"/><path d="m143.046 30.121c-12.44 0-22.562 10.121-22.562 22.561s10.121 22.561 22.562 22.561c12.439 0 22.561-10.121 22.561-22.561s-10.122-22.561-22.561-22.561zm0 30.121c-4.169 0-7.562-3.392-7.562-7.561s3.393-7.561 7.562-7.561 7.561 3.392 7.561 7.561-3.392 7.561-7.561 7.561z"/><path d="m75.272 30.121c-12.439 0-22.561 10.121-22.561 22.561s10.121 22.561 22.561 22.561 22.561-10.121 22.561-22.561-10.121-22.561-22.561-22.561zm0 30.121c-4.169 0-7.561-3.392-7.561-7.561s3.392-7.561 7.561-7.561 7.561 3.392 7.561 7.561-3.392 7.561-7.561 7.561z"/><path d="m414.137 188.258h-105.425c-4.143 0-7.5 3.357-7.5 7.5s3.357 7.5 7.5 7.5h105.425c4.143 0 7.5-3.357 7.5-7.5s-3.358-7.5-7.5-7.5z"/><path d="m414.137 233.439h-105.425c-4.143 0-7.5 3.357-7.5 7.5s3.357 7.5 7.5 7.5h105.425c4.143 0 7.5-3.357 7.5-7.5s-3.358-7.5-7.5-7.5z"/><path d="m474.349 218.349c0-49.81-50.658-90.333-112.925-90.333s-112.924 40.523-112.924 90.333c0 24.979 12.708 48.519 35.127 65.533-1.119 1.621-2.239 3.133-3.354 4.521-11.352 14.138-2.383 35.209 15.689 36.768 22.064 1.891 43.123-3.79 61.035-16.56 1.496.047 2.96.07 4.426.07 62.267.001 112.926-40.523 112.926-90.332zm-112.925 75.333c-2.082 0-4.169-.053-6.378-.162-1.757-.088-3.492.447-4.895 1.511-15.54 11.759-33.34 16.869-52.903 15.195-6.132-.529-9.144-7.618-5.275-12.435 2.791-3.48 5.573-7.536 8.27-12.053 2.057-3.446 1.035-7.902-2.318-10.109-21.877-14.395-34.424-35.272-34.424-57.28 0-41.539 43.929-75.333 97.924-75.333 53.996 0 97.925 33.794 97.925 75.333s-43.93 75.333-97.926 75.333z"/><path d="m203.288 316.272h-105.425c-4.143 0-7.5 3.357-7.5 7.5s3.357 7.5 7.5 7.5h105.425c4.143 0 7.5-3.357 7.5-7.5s-3.357-7.5-7.5-7.5z"/><path d="m203.288 361.454h-105.425c-4.143 0-7.5 3.357-7.5 7.5s3.357 7.5 7.5 7.5h105.425c4.143 0 7.5-3.357 7.5-7.5s-3.357-7.5-7.5-7.5z"/><path d="m263.5 346.363c0-49.81-50.657-90.333-112.924-90.333s-112.925 40.524-112.925 90.333c0 49.811 50.658 90.334 112.925 90.334 1.466 0 2.93-.023 4.426-.07 17.801 12.691 38.811 18.458 61.039 16.56 18.051-1.559 27.046-22.618 15.689-36.764-1.116-1.392-2.237-2.904-3.357-4.526 22.419-17.015 35.127-40.554 35.127-65.534zm-49.424 57.281c-3.354 2.207-4.375 6.663-2.318 10.109 2.696 4.517 5.479 8.572 8.272 12.057 3.867 4.814.85 11.903-5.274 12.432-19.56 1.671-37.367-3.437-52.907-15.195-1.357-1.028-3.072-1.598-4.895-1.511-2.209.109-4.296.162-6.378.162-53.996 0-97.925-33.795-97.925-75.334s43.929-75.333 97.925-75.333c53.995 0 97.924 33.794 97.924 75.333 0 22.007-12.547 42.885-34.424 57.28z"/></g></svg>