<svg enable-background="new 0 0 492 492" viewBox="0 0 492 492" xmlns="http://www.w3.org/2000/svg"><g id="Master_Layer_2"/><g id="Layer_2"><path clip-rule="evenodd" d="m246.26.98c135.21 0 245.76 110.549 245.76 245.76 0 135.21-110.549 245.76-245.76 245.76-135.21 0-245.76-110.55-245.76-245.76s110.55-245.76 245.76-245.76z" fill="#43a047" fill-rule="evenodd"/></g><g id="Layer_1"><g><g clip-rule="evenodd" fill="#fffffe" fill-rule="evenodd"><path d="m238.804 199.27c0-11.398 6.7-21.828 17.069-26.571.914-.418 1.979-.343 2.825.201.846.543 1.357 1.48 1.357 2.485v20.157l7.955 4.46 7.954-4.46v-20.157c0-1.005.512-1.942 1.358-2.485.846-.544 1.911-.619 2.825-.201 10.37 4.743 17.069 15.173 17.069 26.571 0 10.753-5.963 20.644-15.344 25.713v25.2c22.336-6.153 38.195-26.705 38.195-50.19 0-28.704-23.353-52.057-52.057-52.057-28.705 0-52.059 23.353-52.059 52.057 0 23.484 15.859 44.036 38.195 50.189v-25.2c-9.38-5.069-15.342-14.96-15.342-25.712z"/><path d="m275.965 251.444v-28.287c0-1.155.674-2.205 1.725-2.686 8.273-3.786 13.619-12.107 13.619-21.201 0-7.451-3.589-14.383-9.436-18.726v16.728c0 1.068-.577 2.054-1.509 2.576l-10.908 6.117c-.897.503-1.992.503-2.889 0l-10.909-6.117c-.932-.522-1.509-1.508-1.509-2.576v-16.728c-5.847 4.343-9.436 11.276-9.436 18.726 0 9.092 5.346 17.414 13.62 21.201 1.051.481 1.725 1.53 1.725 2.686v28.287c5.246.8 10.662.8 15.907 0z"/><path d="m338.403 185.369c-1.834-8.872-5.293-17.217-10.282-24.802-.77-1.171-.612-2.721.379-3.712l10.167-10.167-17.351-17.351-10.167 10.167c-.991.991-2.541 1.149-3.711.379-7.588-4.989-15.933-8.448-24.802-10.282-1.372-.283-2.356-1.492-2.356-2.893v-14.369h-24.539v14.369c0 1.401-.984 2.609-2.356 2.893-8.87 1.834-17.215 5.293-24.802 10.282-1.171.77-2.721.611-3.712-.38l-10.166-10.166-17.351 17.351 10.167 10.167c.991.991 1.149 2.541.379 3.712-4.989 7.585-8.448 15.93-10.282 24.802-.283 1.372-1.492 2.356-2.893 2.356h-14.367v24.538h14.367c1.401 0 2.609.984 2.893 2.356 1.834 8.871 5.293 17.215 10.282 24.803.77 1.17.611 2.721-.38 3.712l-10.167 10.166 17.351 17.351 10.166-10.166c.99-.99 2.541-1.149 3.711-.38 7.592 4.99 15.936 8.449 24.803 10.282 1.372.284 2.356 1.492 2.356 2.893v14.367h24.539v-14.367c0-1.401.984-2.609 2.356-2.893 8.865-1.832 17.21-5.292 24.803-10.282 1.17-.769 2.721-.611 3.711.38l10.167 10.166 17.351-17.351-10.167-10.166c-.991-.991-1.149-2.541-.379-3.712 4.988-7.587 8.448-15.932 10.282-24.803.284-1.372 1.492-2.356 2.893-2.356h14.369v-24.539h-14.369c-1.401.001-2.609-.983-2.893-2.355zm-15.962 34.599c-2.266 6.173-5.55 11.882-9.762 16.968-8.454 10.211-20.226 17.268-33.148 19.875-.01.002-.02.004-.03.006-3.761.757-7.626 1.14-11.49 1.14-3.863 0-7.729-.384-11.492-1.14-.01-.002-.02-.004-.03-.006-12.923-2.607-24.694-9.664-33.148-19.875-4.212-5.086-7.496-10.796-9.762-16.968-2.345-6.389-3.534-13.109-3.534-19.975 0-15.483 6.03-30.039 16.978-40.987 10.949-10.948 25.505-16.978 40.988-16.978s30.039 6.029 40.987 16.978c10.948 10.948 16.978 25.504 16.978 40.987 0 6.866-1.189 13.586-3.535 19.975z"/><path d="m179.381 291.72-42.525-9.333v79.428h26.947z"/><path d="m211.035 370.987c18.572 9.505 40.007 12.465 60.355 8.334 21.661-4.397 51.62-13.733 71.331-33.233.443-.439.436-.95.392-1.217-.036-.22-.185-.762-.784-1.054l-3.752-1.836c-9.154-4.474-19.883-5.085-29.436-1.673-9.782 3.492-19.736 5.89-29.586 7.126-.001 0-.002 0-.003 0-5.56.696-10.842.99-15.795.99-13.15 0-23.978-2.065-31.505-4.125-11.314-3.096-17.779-6.8-18.048-6.956-1.412-.818-1.894-2.625-1.076-4.037.817-1.41 2.622-1.893 4.033-1.078.064.037 6.23 3.546 16.875 6.434 9.361 2.539 24.125 5.079 42.201 3.203-.58-10.945-8.796-20.215-19.981-22.077-23.786-3.96-59.525-11.833-73.723-15.019l-10.303 46.358z"/></g></g></g></svg>