<svg height="512pt" viewBox="0 0 512 512" width="512pt" xmlns="http://www.w3.org/2000/svg" xmlns:xlink="http://www.w3.org/1999/xlink"><linearGradient id="a" gradientTransform="matrix(1 0 0 -1 0 -15870)" gradientUnits="userSpaceOnUse" x1="0" x2="512" y1="-16126" y2="-16126"><stop offset="0" stop-color="#00f1ff"/><stop offset=".231" stop-color="#00d8ff"/><stop offset=".5138" stop-color="#00c0ff"/><stop offset=".7773" stop-color="#00b2ff"/><stop offset="1" stop-color="#00adff"/></linearGradient><path d="m512 256c0 141.386719-114.613281 256-256 256s-256-114.613281-256-256 114.613281-256 256-256 256 114.613281 256 256zm0 0" fill="url(#a)"/><g fill="#fff"><path d="m226.636719 196.28125c-7.371094 0-13.347657 5.976562-13.347657 13.347656s5.976563 13.347656 13.347657 13.347656c7.371093 0 13.347656-5.976562 13.347656-13.347656s-5.976563-13.347656-13.347656-13.347656zm0 0"/><path d="m280.023438 196.28125c-7.371094 0-13.34375 5.976562-13.34375 13.347656s5.972656 13.347656 13.34375 13.347656c7.375 0 13.347656-5.976562 13.347656-13.347656s-5.972656-13.347656-13.347656-13.347656zm0 0"/><path d="m333.414062 196.28125c-7.371093 0-13.347656 5.976562-13.347656 13.347656s5.976563 13.347656 13.347656 13.347656c7.371094 0 13.347657-5.976562 13.347657-13.347656s-5.976563-13.347656-13.347657-13.347656zm0 0"/><path d="m399.367188 278.132812c-3.105469-7.683593-11.847657-11.390624-19.527344-8.285156-7.679688 3.105469-11.390625 11.847656-8.285156 19.527344l14.191406 35.113281-42.960938-18.9375c-3.800781-1.675781-8.121094-1.703125-11.9375-.074219-15.75 6.71875-32.625 10.128907-50.15625 10.128907-70.46875 0-117.804687-55.097657-117.804687-106.554688 0-58.75 52.847656-106.550781 117.804687-106.550781 64.960938 0 117.808594 47.796875 117.808594 106.550781 0 4.578125-.425781 10.0625-1.171875 15.050781-1.222656 8.191407 4.429687 15.824219 12.625 17.046876 8.191406 1.214843 15.824219-4.429688 17.046875-12.621094.96875-6.480469 1.5-13.398438 1.5-19.476563 0-75.292969-66.304688-136.554687-147.808594-136.554687-76.964844 0-140.371094 54.636718-147.1875 124.128906-31.40625 21.089844-50.003906 54.640625-50.003906 90.769531 0 22.429688 6.96875 43.722657 20.246094 62.109375l-19.152344 47.375c-2.289062 5.65625-.917969 12.140625 3.464844 16.390625 2.859375 2.769531 6.625 4.230469 10.445312 4.230469 2.042969 0 4.101563-.417969 6.046875-1.273438l55.601563-24.511718c14.136718 5.179687 29.0625 7.800781 44.460937 7.800781.328125 0 .648438-.03125.96875-.050781 22.613281-.164063 44.605469-6.113282 63.652344-17.25 16.84375-9.847656 30.75-23.332032 40.574219-39.253906 9.097656-1.679688 18-4.152344 26.652344-7.414063l70.988281 31.292969c1.945312.855468 4.003906 1.273437 6.046875 1.273437 3.820312 0 7.585937-1.460937 10.445312-4.230469 4.382813-4.25 5.753906-10.730468 3.464844-16.390624zm-245.582032 83.601563-27.535156 12.136719 8.558594-21.167969c2.09375-5.183594 1.136718-11.097656-2.492188-15.351563-12.308594-14.445312-18.816406-31.71875-18.816406-49.957031 0-19.875 7.964844-38.761719 22-53.484375 5.421875 25.859375 19.105469 50.476563 39.355469 69.964844 25.28125 24.332031 58.433593 38.773438 94.335937 41.320312-16.875 15.226563-40.082031 24.285157-64.578125 24.285157-.179687 0-.351562.019531-.53125.027343-13.410156-.070312-26.3125-2.703124-38.359375-7.84375-3.820312-1.628906-8.140625-1.601562-11.9375.070313zm0 0"/></g></svg>