<svg id="Capa_1" enable-background="new 0 0 512 512" height="512" viewBox="0 0 512 512" width="512" xmlns="http://www.w3.org/2000/svg" xmlns:xlink="http://www.w3.org/1999/xlink"><linearGradient id="SVGID_1_" gradientUnits="userSpaceOnUse" x1="256" x2="256" y1="512" y2="0"><stop offset="0" stop-color="#ffbef9"/><stop offset="1" stop-color="#fff1ff"/></linearGradient><linearGradient id="SVGID_2_" gradientUnits="userSpaceOnUse" x1="256" x2="256" y1="406.998" y2="105"><stop offset="0" stop-color="#ff81ff"/><stop offset="1" stop-color="#a93aff"/></linearGradient><g><g><circle cx="256" cy="256" fill="url(#SVGID_1_)" r="256"/></g><g><g><path d="m402.01 390.136c-5.413-3.296-9.238-8.431-10.773-14.486-1.544-6.055-.616-12.361 2.68-17.869 8.683-15.093 13.081-31.409 13.081-48.488 0-51.056-39.379-93.022-89.352-97.282-4.449 56.799-49.889 101.323-105.634 105.643 4.264 49.967 46.229 89.344 97.281 89.344h88.823c4.137 0 7.72-2.854 8.657-6.887.928-4.025-1.05-8.163-4.763-9.975zm-128.246-71.961c-4.905 0-8.882-3.977-8.882-8.882 0-4.906 3.977-8.882 8.882-8.882s8.882 3.976 8.882 8.882c0 4.905-3.977 8.882-8.882 8.882zm35.529 0c-4.905 0-8.882-3.977-8.882-8.882 0-4.906 3.977-8.882 8.882-8.882s8.882 3.976 8.882 8.882c0 4.905-3.977 8.882-8.882 8.882zm35.529 0c-4.905 0-8.882-3.977-8.882-8.882 0-4.906 3.977-8.882 8.882-8.882s8.882 3.976 8.882 8.882c0 4.905-3.977 8.882-8.882 8.882zm-44.411-115.47c0-53.875-43.83-97.705-97.705-97.705s-97.706 43.83-97.706 97.705c0 17.01 4.476 33.673 12.942 48.185 6.688 11.441 2.836 26.248-8.579 32.988-3.444 2.038-5.1 6.133-4.051 9.993 1.058 3.86 4.563 6.54 8.57 6.54h88.823c53.644 0 97.706-43.871 97.706-97.706zm-133.235 8.883c-4.905 0-8.882-3.977-8.882-8.882 0-4.906 3.977-8.882 8.882-8.882s8.882 3.976 8.882 8.882c0 4.904-3.977 8.882-8.882 8.882zm35.529 0c-4.905 0-8.882-3.977-8.882-8.882 0-4.906 3.977-8.882 8.882-8.882s8.882 3.976 8.882 8.882c.001 4.904-3.976 8.882-8.882 8.882zm35.53 0c-4.905 0-8.882-3.977-8.882-8.882 0-4.906 3.977-8.882 8.882-8.882s8.882 3.976 8.882 8.882c0 4.904-3.977 8.882-8.882 8.882z" fill="url(#SVGID_2_)"/></g></g></g></svg>