<svg height="512pt" viewBox="0 -12 512 512" width="512pt" xmlns="http://www.w3.org/2000/svg"><path d="m205.484375 418.617188h101.03125v55.863281h-101.03125zm0 0" fill="#2c6a9b"/><path d="m205.488281 418.617188h101.023438v17.390624h-101.023438zm0 0" fill="#1a5a84"/><path d="m354.214844 488.25h-196.429688c-5.144531 0-9.316406-4.167969-9.316406-9.3125s4.171875-9.316406 9.316406-9.316406h196.429688c5.144531 0 9.3125 4.167968 9.3125 9.316406 0 5.140625-4.167969 9.3125-9.3125 9.3125zm0 0" fill="#dceeef"/><path d="m512 79.289062v331.789063c0 5.808594-4.707031 10.507813-10.519531 10.507813h-490.960938c-5.8125 0-10.519531-4.699219-10.519531-10.507813v-331.789063c0-8.707031 7.066406-15.761718 15.773438-15.761718h480.453124c8.714844 0 15.773438 7.054687 15.773438 15.761718zm0 0" fill="#dceeef"/><path d="m512 79.289062v331.789063c0 5.808594-4.707031 10.507813-10.519531 10.507813h-22.867188c5.808594 0 10.515625-4.699219 10.515625-10.507813v-331.789063c0-8.695312-7.066406-15.761718-15.769531-15.761718h22.867187c8.714844 0 15.773438 7.054687 15.773438 15.761718zm0 0" fill="#bcdde2"/><path d="m512 371.167969v39.910156c0 5.808594-4.707031 10.507813-10.507812 10.507813h-490.984376c-5.800781 0-10.507812-4.699219-10.507812-10.507813v-39.910156zm0 0" fill="#3b7ca8"/><path d="m512 371.167969v39.910156c0 5.808594-4.707031 10.507813-10.507812 10.507813h-22.878907c5.808594 0 10.515625-4.699219 10.515625-10.507813v-39.910156zm0 0" fill="#2c6a9b"/><path d="m512 79.285156v22.5h-512v-22.5c0-8.707031 7.066406-15.761718 15.773438-15.761718h480.453124c8.714844 0 15.773438 7.054687 15.773438 15.761718zm0 0" fill="#8bc1c6"/><path d="m222.980469 371.175781h-161.414063v-57.953125c0-5.691406 4.613282-10.304687 10.304688-10.304687h140.808594c5.6875 0 10.300781 4.613281 10.300781 10.304687zm0 0" fill="#40e464"/><path d="m61.566406 42.816406v134.464844c0 5.691406 4.613282 10.304688 10.304688 10.304688h103.40625l30.117187 30.113281c6.488281 6.492187 17.585938 1.894531 17.585938-7.285157v-167.597656c0-5.691406-4.613281-10.300781-10.300781-10.300781h-140.808594c-5.691406 0-10.304688 4.609375-10.304688 10.300781zm0 0" fill="#40e464"/><path d="m451.351562 186.324219v95.394531c0 5.691406-4.609374 10.300781-10.300781 10.300781h-103.40625l-30.117187 30.117188c-6.488282 6.492187-17.585938 1.894531-17.585938-7.285157v-128.527343c0-5.6875 4.613282-10.300781 10.300782-10.300781h140.8125c5.6875 0 10.296874 4.613281 10.296874 10.300781zm0 0" fill="#3bc3ff"/><path d="m406.699219 157.601562c-4.265625 0-7.726563-3.457031-7.726563-7.726562v-.519531c0-4.269531 3.460938-7.726563 7.726563-7.726563 4.269531 0 7.726562 3.460938 7.726562 7.726563v.519531c0 4.269531-3.457031 7.726562-7.726562 7.726562zm0 0" fill="#009af2"/><path d="m451.355469 157.710938h-21.949219c-4.265625 0-7.726562-3.460938-7.726562-7.726563 0-4.269531 3.460937-7.726563 7.726562-7.726563h21.949219c4.265625 0 7.722656 3.457032 7.722656 7.726563 0 4.265625-3.457031 7.726563-7.722656 7.726563zm0 0" fill="#009af2"/><path d="m146.507812 15.972656c-4.269531 0-7.726562-3.457031-7.726562-7.726562v-.519532c0-4.269531 3.457031-7.726562 7.726562-7.726562 4.265626 0 7.726563 3.460938 7.726563 7.726562v.519532c0 4.269531-3.460937 7.726562-7.726563 7.726562zm0 0" fill="#40e464"/><path d="m123.800781 16.078125h-63.15625c-4.265625 0-7.722656-3.457031-7.722656-7.722656 0-4.269531 3.457031-7.726563 7.722656-7.726563h63.15625c4.265625 0 7.726563 3.457032 7.726563 7.726563 0 4.265625-3.457032 7.722656-7.726563 7.722656zm0 0" fill="#40e464"/><path d="m146.507812 285.410156c-4.269531 0-7.726562-3.457031-7.726562-7.726562v-.519532c0-4.269531 3.457031-7.726562 7.726562-7.726562 4.265626 0 7.726563 3.460938 7.726563 7.726562v.519532c0 4.269531-3.460937 7.726562-7.726563 7.726562zm0 0" fill="#40e464"/><path d="m123.800781 285.519531h-63.15625c-4.265625 0-7.722656-3.460937-7.722656-7.726562 0-4.269531 3.457031-7.726563 7.722656-7.726563h63.15625c4.265625 0 7.726563 3.457032 7.726563 7.726563 0 4.265625-3.457032 7.726562-7.726563 7.726562zm0 0" fill="#40e464"/><path d="m324.222656 217.273438h-.472656c-4.265625 0-7.726562-3.460938-7.726562-7.726563 0-4.269531 3.460937-7.726563 7.726562-7.726563h.472656c4.265625 0 7.726563 3.457032 7.726563 7.726563 0 4.265625-3.460938 7.726563-7.726563 7.726563zm0 0" fill="#009af2"/><path d="m417.636719 217.035156h-68.925781c-4.265626 0-7.726563-3.457031-7.726563-7.726562 0-4.265625 3.460937-7.722656 7.726563-7.722656h68.925781c4.265625 0 7.726562 3.457031 7.726562 7.722656 0 4.269531-3.460937 7.726562-7.726562 7.726562zm0 0" fill="#009af2"/><path d="m324.222656 263.785156h-.472656c-4.265625 0-7.726562-3.457031-7.726562-7.722656 0-4.269531 3.460937-7.726562 7.726562-7.726562h.472656c4.265625 0 7.726563 3.457031 7.726563 7.726562 0 4.265625-3.460938 7.722656-7.726563 7.722656zm0 0" fill="#009af2"/><path d="m417.636719 263.550781h-68.925781c-4.265626 0-7.726563-3.457031-7.726563-7.726562 0-4.265625 3.460937-7.726563 7.726563-7.726563h68.925781c4.265625 0 7.726562 3.460938 7.726562 7.726563 0 4.269531-3.460937 7.726562-7.726562 7.726562zm0 0" fill="#009af2"/><path d="m417.636719 240.542969h-.472657c-4.265624 0-7.726562-3.460938-7.726562-7.726563s3.460938-7.726562 7.726562-7.726562h.472657c4.265625 0 7.726562 3.460937 7.726562 7.726562s-3.460937 7.726563-7.726562 7.726563zm0 0" fill="#009af2"/><path d="m392.675781 240.304688h-68.925781c-4.265625 0-7.726562-3.457032-7.726562-7.726563 0-4.265625 3.460937-7.726563 7.726562-7.726563h68.925781c4.265625 0 7.726563 3.460938 7.726563 7.726563 0 4.269531-3.460938 7.726563-7.726563 7.726563zm0 0" fill="#009af2"/><g fill="#1dbf30"><path d="m94.757812 71.476562h-.472656c-4.265625 0-7.726562-3.460937-7.726562-7.726562 0-4.269531 3.460937-7.726562 7.726562-7.726562h.472656c4.265626 0 7.726563 3.460937 7.726563 7.726562 0 4.269531-3.460937 7.726562-7.726563 7.726562zm0 0"/><path d="m188.171875 71.25h-68.925781c-4.269532 0-7.726563-3.460938-7.726563-7.726562 0-4.265626 3.457031-7.726563 7.726563-7.726563h68.925781c4.265625 0 7.722656 3.460937 7.722656 7.726563 0 4.265624-3.457031 7.726562-7.722656 7.726562zm0 0"/><path d="m188.171875 115.929688h-93.414063c-4.269531 0-7.726562-3.460938-7.726562-7.726563 0-4.269531 3.457031-7.726563 7.726562-7.726563h93.414063c4.265625 0 7.722656 3.460938 7.722656 7.726563s-3.457031 7.726563-7.722656 7.726563zm0 0"/><path d="m187.933594 93.601562h-93.648438c-4.265625 0-7.726562-3.460937-7.726562-7.726562 0-4.269531 3.460937-7.726562 7.726562-7.726562h93.648438c4.265625 0 7.726562 3.457031 7.726562 7.726562 0 4.265625-3.460937 7.726562-7.726562 7.726562zm0 0"/><path d="m94.757812 161.296875h-.472656c-4.265625 0-7.726562-3.457031-7.726562-7.726563 0-4.265624 3.460937-7.726562 7.726562-7.726562h.472656c4.265626 0 7.726563 3.460938 7.726563 7.726562 0 4.269532-3.460937 7.726563-7.726563 7.726563zm0 0"/><path d="m188.171875 161.070312h-68.925781c-4.269532 0-7.726563-3.460937-7.726563-7.726562s3.457031-7.726562 7.726563-7.726562h68.925781c4.265625 0 7.722656 3.460937 7.722656 7.726562s-3.457031 7.726562-7.722656 7.726562zm0 0"/><path d="m188.171875 138.96875h-.472656c-4.269531 0-7.726563-3.457031-7.726563-7.726562 0-4.265626 3.457032-7.726563 7.726563-7.726563h.472656c4.265625 0 7.722656 3.460937 7.722656 7.726563 0 4.269531-3.457031 7.726562-7.722656 7.726562zm0 0"/><path d="m163.210938 138.742188h-68.925782c-4.265625 0-7.726562-3.460938-7.726562-7.726563 0-4.269531 3.460937-7.726563 7.726562-7.726563h68.925782c4.265624 0 7.726562 3.460938 7.726562 7.726563s-3.460938 7.726563-7.726562 7.726563zm0 0"/><path d="m94.757812 349.078125h-.472656c-4.265625 0-7.726562-3.457031-7.726562-7.722656 0-4.269531 3.460937-7.726563 7.726562-7.726563h.472656c4.265626 0 7.726563 3.457032 7.726563 7.726563 0 4.265625-3.460937 7.722656-7.726563 7.722656zm0 0"/><path d="m188.171875 348.851562h-68.925781c-4.269532 0-7.726563-3.457031-7.726563-7.722656 0-4.269531 3.457031-7.726562 7.726563-7.726562h68.925781c4.265625 0 7.722656 3.457031 7.722656 7.726562 0 4.265625-3.457031 7.722656-7.722656 7.722656zm0 0"/></g></svg>