<svg id="Layer_1" height="512" viewBox="0 0 512 512" width="512" xmlns="http://www.w3.org/2000/svg" data-name="Layer 1"><path d="m256 0c140.791 0 255.986 115.2 255.986 256.014 0 140.791-115.195 255.986-255.986 255.986-140.791 0-255.986-115.195-255.986-255.986 0-140.814 115.195-256.014 255.986-256.014z" fill="#6edbbb" fill-rule="evenodd"/><path d="m82.074 70.183h194.618l56.69 56.69v254.682h-251.308z" fill="#eaf6ff" fill-rule="evenodd"/><path d="m276.692 70.183v45.437a11.256 11.256 0 0 0 11.225 11.253h45.465z" fill="#60b7ff" fill-rule="evenodd"/><path d="m112.516 344.111a6 6 0 0 1 0-11.99h95.552a6 6 0 0 1 0 11.99zm108.364-123.953a6 6 0 1 1 0-11.991h82.06a6 6 0 0 1 0 11.991zm0-41.328a5.981 5.981 0 1 1 0-11.962h82.06a5.981 5.981 0 0 1 0 11.962zm-108.364 82.655a6 6 0 0 1 0-11.99h190.424a6 6 0 0 1 0 11.99zm0 41.3a6 6 0 0 1 0-11.99h95.552a6 6 0 0 1 0 11.99z" fill="#60b7ff"/><g fill-rule="evenodd"><path d="m119.6 137.9h62.1a7.082 7.082 0 0 1 7.086 7.058v62.132a7.107 7.107 0 0 1 -7.086 7.087h-62.1a7.108 7.108 0 0 1 -7.087-7.087v-62.132a7.083 7.083 0 0 1 7.087-7.058z" fill="#60b7ff"/><path d="m150.669 181.5a32.644 32.644 0 0 1 32.654 32.483 7.377 7.377 0 0 1 -1.616.2h-62.107a7.377 7.377 0 0 1 -1.616-.2 32.65 32.65 0 0 1 32.685-32.483z" fill="#30933c"/><path d="m150.669 152.441a13.209 13.209 0 1 1 -13.237 13.209 13.222 13.222 0 0 1 13.237-13.209z" fill="#ffd18d"/><path d="m424.456 311.883v118.709a11.275 11.275 0 0 1 -11.256 11.225h-159.666a11.275 11.275 0 0 1 -11.253-11.225v-118.709z" fill="#006694"/><path d="m363.684 329.542v-48.017a9.285 9.285 0 0 0 -9.269-9.241h-42.093a9.261 9.261 0 0 0 -9.241 9.241v48.017h60.6z" fill="#cf9646"/></g><path d="m312.889 282.092h40.987v37.642h-40.987z" fill="#eaf6ff"/><path d="m287.01 411.97a6 6 0 1 1 0 11.99h-22.9a6 6 0 0 1 0-11.99z" fill="#004b6c"/><path d="m424.456 342.354-91.074 31.491-91.101-31.491v-30.471h182.175z" fill="#005c85" fill-rule="evenodd"/><path d="m429.926 294.422v29.989a11.071 11.071 0 0 1 -7.568 10.63l-88.976 30.783-89-30.783a11.072 11.072 0 0 1 -7.568-10.63v-29.989z" fill="#1a759f" fill-rule="evenodd"/><path d="m318.218 356.5h30.3a3.1 3.1 0 0 1 3.09 3.09v12.443a3.1 3.1 0 0 1 -3.09 3.09h-30.3a3.1 3.1 0 0 1 -3.09-3.09v-12.445a3.1 3.1 0 0 1 3.09-3.09z" fill="#ffba57" fill-rule="evenodd"/></svg>