<svg height="512pt" viewBox="0 0 512 512" width="512pt" xmlns="http://www.w3.org/2000/svg" xmlns:xlink="http://www.w3.org/1999/xlink"><linearGradient id="a" gradientUnits="userSpaceOnUse" x1="0" x2="512" y1="256" y2="256"><stop offset="0" stop-color="#00f1ff"/><stop offset=".231" stop-color="#00d8ff"/><stop offset=".5138" stop-color="#00c0ff"/><stop offset=".7773" stop-color="#00b2ff"/><stop offset="1" stop-color="#00adff"/></linearGradient><path d="m512 256c0 141.386719-114.613281 256-256 256s-256-114.613281-256-256 114.613281-256 256-256 256 114.613281 256 256zm0 0" fill="url(#a)"/><g fill="#fff"><path d="m312.449219 424.710938h-126.355469c-29.816406 0-54.078125-24.261719-54.078125-54.078126v-229.265624c0-29.816407 24.261719-54.078126 54.078125-54.078126h126.355469c29.820312 0 54.078125 24.261719 54.078125 54.078126v20.269531c0 8.285156-6.714844 15-15 15-8.28125 0-15-6.714844-15-15v-20.269531c0-13.277344-10.800782-24.078126-24.078125-24.078126h-126.355469c-13.277344 0-24.078125 10.800782-24.078125 24.078126v229.265624c0 13.277344 10.800781 24.078126 24.078125 24.078126h126.355469c13.277343 0 24.078125-10.800782 24.078125-24.078126v-24.671874c0-8.285157 6.71875-15 15-15 8.285156 0 15 6.714843 15 15v24.671874c0 29.816407-24.257813 54.078126-54.078125 54.078126zm0 0"/><path d="m249.273438 376.574219c-7.195313 0-13.027344-5.832031-13.027344-13.027344s5.832031-13.027344 13.027344-13.027344c7.195312 0 13.027343 5.832031 13.027343 13.027344s-5.832031 13.027344-13.027343 13.027344zm0 0"/><path d="m262.300781 163.613281h-26.054687c-8.285156 0-15-6.71875-15-15 0-8.285156 6.714844-15 15-15h26.054687c8.28125 0 15 6.714844 15 15 0 8.28125-6.71875 15-15 15zm0 0"/><path d="m293.097656 321.210938c5.914063 0 11.757813-3.898438 13.363282-9.539063l29.585937-104.082031c2.375-8.351563-3.957031-16.644532-12.710937-16.644532-5.914063 0-11.105469 3.898438-12.710938 9.542969l-29.585938 104.078125c-2.375 8.355469 3.304688 16.644532 12.058594 16.644532"/><path d="m249.265625 312.113281c-3.402344 0-6.820313-1.148437-9.628906-3.507812l-32.257813-27.042969c-7.355468-6.25-11.535156-15.277344-11.535156-24.832031 0-9.554688 4.179688-18.582031 11.460938-24.769531l32.332031-27.105469c6.347656-5.324219 15.808593-4.492188 21.128906 1.855469 5.324219 6.347656 4.492187 15.808593-1.855469 21.132812l-32.257812 27.046875c-.652344.554687-.808594 1.3125-.808594 1.839844 0 .527343.152344 1.285156.882812 1.902343l32.183594 26.984376c6.347656 5.324218 7.179688 14.785156 1.855469 21.132812-2.964844 3.539062-7.21875 5.363281-11.5 5.363281zm0 0"/><path d="m365.214844 312.113281c-4.234375 0-8.4375-1.78125-11.40625-5.25-5.382813-6.292969-4.648438-15.761719 1.648437-21.148437l31.605469-27.042969c.769531-.65625.921875-1.414063.921875-1.941406 0-.527344-.152344-1.285157-.878906-1.902344l-31.648438-27.082031c-6.296875-5.386719-7.03125-14.855469-1.648437-21.148438 5.390625-6.296875 14.859375-7.03125 21.152344-1.644531l31.605468 27.042969c7.238282 6.148437 11.417969 15.179687 11.417969 24.734375 0 9.554687-4.179687 18.582031-11.460937 24.769531l-31.5625 27.011719c-2.828126 2.417969-6.296876 3.601562-9.746094 3.601562zm0 0"/></g></svg>