<svg id="Layer_5" enable-background="new 0 0 64 64" height="512" viewBox="0 0 64 64" width="512" xmlns="http://www.w3.org/2000/svg" xmlns:xlink="http://www.w3.org/1999/xlink"><linearGradient id="SVGID_1_" gradientUnits="userSpaceOnUse" x1="32" x2="32" y1="63" y2="1"><stop offset="0" stop-color="#9f2fff"/><stop offset="1" stop-color="#0bb1d3"/></linearGradient><path d="m30 53h-10c-1.103 0-2 .897-2 2v2c0 1.103.897 2 2 2h10c1.103 0 2-.897 2-2v-2c0-1.103-.897-2-2-2zm-10 4v-2h10l.002 2zm-4-16c6.065 0 11-4.935 11-11s-4.935-11-11-11-11 4.935-11 11 4.935 11 11 11zm0-20c4.963 0 9 4.038 9 9 0 4.963-4.037 9-9 9s-9-4.037-9-9c0-4.962 4.037-9 9-9zm-10 20.149v16.851c0 2.757 2.243 5 5 5h28c2.206 0 4-1.794 4-4 0-.732-.212-1.409-.556-2h13.112c-.344.591-.556 1.268-.556 2 0 2.206 1.794 4 4 4s4-1.794 4-4-1.794-4-4-4h-22c-.552 0-1-.448-1-1v-1h23c1.654 0 3-1.346 3-3v-10.926l-18-1.385v-31.689c0-2.757-2.243-5-5-5h-28c-2.757 0-5 2.243-5 5v12.851c-3.061 2.748-5 6.722-5 11.149 0 4.428 1.939 8.401 5 11.149zm2 16.851v-15.333c.637.404 1.303.767 2 1.072v5.261c0 1.103.897 2 2 2h22v3c0 1.199.712 2.228 1.731 2.708-.457.65-.731 1.438-.731 2.292 0 .732.212 1.409.556 2h-24.556c-1.654 0-3-1.346-3-3zm51.874-7.54-2.46-2.46 2.586-2.586v4.586c0 .169-.052.32-.126.46zm-19.874-9.046 2.586 2.586-2.586 2.586-2.586-2.586zm8 0 2.586 2.586-2.586 2.586-2.586-2.586zm4 4 2.586 2.586-2.586 2.586-2.586-2.586zm-5.414 2.586-2.586 2.586-2.586-2.586 2.586-2.586zm-8 0-2.586 2.586v-5.172zm1.414 1.414 1.586 1.586h-3.172zm8 0 1.586 1.586h-3.172zm8 0 1.586 1.586h-3.172zm0-2.828-2.586-2.586 2.586-2.586 2.586 2.586zm-4-4-2.465-2.465 4.578.352zm-8 0-2.586-2.586.468-.468 4.802.369zm-8 0v-3.506l3.256.25zm2-5.358-2-.154v-5.074c0-1.654-1.346-3-3-3h-2.051c-.518-7.805-7.015-14-14.949-14-1.387 0-2.724.204-4 .558v-4.558h26zm-7.051-6.228h2.051c.552 0 1 .449 1 1v17h-22v-4.558c1.276.354 2.613.558 4 .558 7.934 0 14.431-6.195 14.949-14zm10.051 28c0 1.103-.897 2-2 2s-2-.897-2-2 .897-2 2-2 2 .897 2 2zm20 0c0 1.103-.897 2-2 2s-2-.897-2-2 .897-2 2-2 2 .897 2 2zm-1-16.414-1.798-1.798 1.798.138zm-29.618-39.586-1 2h-8.764l-1-2zm-22.382 3c0-1.654 1.346-3 3-3h6.382l2 4h11.236l2-4h6.382c1.654 0 3 1.346 3 3v31.536l-2-.154v-26.382c0-1.103-.897-2-2-2h-26c-1.103 0-2 .897-2 2v5.261c-.697.306-1.363.668-2 1.072zm8 11c7.168 0 13 5.832 13 13s-5.832 13-13 13-13-5.832-13-13 5.832-13 13-13zm-3 15.146v-1.146h2v1.146c0 .471.384.854.854.854h.291c.471 0 .855-.383.855-.854 0-.326-.181-.619-.473-.764l-1.949-.975c-.974-.487-1.578-1.465-1.578-2.553 0-1.274.845-2.343 2-2.709v-2.145h2v2.145c1.155.366 2 1.435 2 2.709v.146h-2v-.146c0-.471-.384-.854-.854-.854h-.291c-.471 0-.855.383-.855.854 0 .326.181.619.473.764l1.949.975c.974.487 1.578 1.465 1.578 2.553 0 1.274-.845 2.343-2 2.709v2.145h-2v-2.145c-1.155-.366-2-1.435-2-2.709z" fill="url(#SVGID_1_)"/></svg>