<svg height="512" viewBox="0 0 64 64" width="512" xmlns="http://www.w3.org/2000/svg"><g id="Ads"><path d="m3 17h52a0 0 0 0 1 0 0v42a2 2 0 0 1 -2 2h-48a2 2 0 0 1 -2-2v-42a0 0 0 0 1 0 0z" fill="#ffcd00"/><path d="m51 17v22a18 18 0 0 1 -18 18h-30v2a2 2 0 0 0 2 2h48a2 2 0 0 0 2-2v-42z" fill="#ebbf00"/><path d="m53 9h-48a2 2 0 0 0 -2 2v6h52v-6a2 2 0 0 0 -2-2z" fill="#006df0"/><path d="m57 38.858-2-.353v.005-.005l-10.021-1.768 2.122 12.02 2.828-2.828 7.071 7.071 4.243-4.243-7.071-7.071z" fill="#5eac24"/><path d="m27 3h34v26h-34z" fill="#ff5023"/><path d="m59 3v16a8 8 0 0 1 -8 8h-24v2h34v-26z" fill="#e54820"/><path d="m9 33h12v8h-12z" fill="#ed1c24"/><path d="m9 45h12v10h-12z" fill="#ed1c24"/><path d="m52 3h9v9h-9z" fill="#d80027"/><path d="m8 12h-1a1 1 0 0 0 0 2h1a1 1 0 0 0 0-2z" fill="#f1f2f2"/><path d="m13 12h-1a1 1 0 0 0 0 2h1a1 1 0 0 0 0-2z" fill="#f1f2f2"/><path d="m18 12h-1a1 1 0 0 0 0 2h1a1 1 0 0 0 0-2z" fill="#f1f2f2"/><path d="m32.757 23.97a1 1 0 0 0 1.213-.727l.561-2.243h2.938l.561 2.243a1 1 0 0 0 .97.757.976.976 0 0 0 .244-.03 1 1 0 0 0 .727-1.213l-2-8a1 1 0 0 0 -.971-.757h-2a1 1 0 0 0 -.97.757l-2 8a1 1 0 0 0 .727 1.213zm3.462-7.97.75 3h-1.938l.75-3z" fill="#f1f2f2"/><path d="m42 24h2a4 4 0 0 0 4-4v-2a4 4 0 0 0 -4-4h-2a1 1 0 0 0 -1 1v8a1 1 0 0 0 1 1zm1-8h1a2 2 0 0 1 2 2v2a2 2 0 0 1 -2 2h-1z" fill="#f1f2f2"/><path d="m50 22a1 1 0 0 0 0 2h4a2 2 0 0 0 2-2v-2a2 2 0 0 0 -2-2h-3v-2h4a1 1 0 0 0 0-2h-4a2 2 0 0 0 -2 2v2a2 2 0 0 0 2 2h3v2z" fill="#f1f2f2"/><path d="m55.086 7.5-.793.793a1 1 0 1 0 1.414 1.414l.793-.793.793.793a1 1 0 0 0 1.414-1.414l-.793-.793.793-.793a1 1 0 1 0 -1.414-1.414l-.793.793-.793-.793a1 1 0 0 0 -1.414 1.414z" fill="#f1f2f2"/><g fill="#ff5023"><path d="m27 32h-2a1 1 0 0 0 0 2h2a1 1 0 0 0 0-2z"/><path d="m21 22h-12a1 1 0 0 0 0 2h12a1 1 0 0 0 0-2z"/><path d="m21 26h-12a1 1 0 0 0 0 2h12a1 1 0 0 0 0-2z"/><path d="m31 34h16a1 1 0 0 0 0-2h-16a1 1 0 0 0 0 2z"/><path d="m27 36h-2a1 1 0 0 0 0 2h2a1 1 0 0 0 0-2z"/><path d="m31 38h10a1 1 0 0 0 0-2h-10a1 1 0 0 0 0 2z"/><path d="m27 40h-2a1 1 0 0 0 0 2h2a1 1 0 0 0 0-2z"/><path d="m31 42h10a1 1 0 0 0 0-2h-10a1 1 0 0 0 0 2z"/><path d="m27 45h-2a1 1 0 0 0 0 2h2a1 1 0 0 0 0-2z"/><path d="m31 47h10a1 1 0 0 0 0-2h-10a1 1 0 0 0 0 2z"/><path d="m27 49h-2a1 1 0 0 0 0 2h2a1 1 0 0 0 0-2z"/><path d="m31 51h13a1 1 0 0 0 0-2h-13a1 1 0 0 0 0 2z"/><path d="m27 53h-2a1 1 0 0 0 0 2h2a1 1 0 0 0 0-2z"/><path d="m47 53h-16a1 1 0 0 0 0 2h16a1 1 0 0 0 0-2z"/></g></g></svg>