<svg id="Layer_1" height="512" viewBox="0 0 512 512" width="512" xmlns="http://www.w3.org/2000/svg" data-name="Layer 1"><g><g fill-rule="evenodd"><g><path d="m222.634 284.295h66.731c25.079 0 45.598 20.52 45.598 45.598v88.589h-157.927v-88.589c0-25.079 20.519-45.598 45.598-45.598z" fill="#64b5f6"/><path d="m222.634 284.295h66.731c15.077 0 28.503 7.418 36.816 18.782-7.539-5.515-16.814-8.782-26.816-8.782h-66.731c-25.078 0-45.598 20.52-45.598 45.598v78.589h-10v-88.589c0-25.079 20.519-45.598 45.598-45.598z" fill="#42a5f5"/><path d="m256 283.284c24.32 0 44.155-19.835 44.155-44.155s-19.835-44.155-44.155-44.155-44.155 19.835-44.155 44.155 19.835 44.155 44.155 44.155z" fill="#ffd6bd"/><path d="m279.529 201.762c12.392 7.82 20.626 21.631 20.626 37.367 0 24.386-19.769 44.155-44.155 44.155-15.736 0-29.548-8.233-37.368-20.625 6.812 4.299 14.88 6.788 23.53 6.788 24.386 0 44.155-19.769 44.155-44.155 0-8.65-2.49-16.717-6.788-23.529z" fill="#f9c6aa"/><path d="m213.276 332.075h87.155c3.3 0 6 2.7 6 6v65.566h-99.155v-65.566c0-3.3 2.7-6 6-6z" fill="#b4d2d7"/><path d="m213.276 332.075h87.155c3.3 0 6 2.7 6 6v4h-83.155c-3.3 0-6 2.7-6 6v55.566h-10v-65.566c0-3.3 2.7-6 6-6z" fill="#a1c6cc"/><path d="m256.853 373.985c4.601 0 8.354-3.753 8.354-8.355s-3.753-8.355-8.354-8.355-8.355 3.753-8.355 8.355 3.753 8.355 8.355 8.355z" fill="#e6f8ff"/><path d="m256.853 357.275c.526 0 1.04.049 1.539.142-3.819.77-6.695 4.144-6.695 8.189 0 4.088 2.936 7.49 6.815 8.212-.536.108-1.092.165-1.66.165-4.614 0-8.355-3.741-8.355-8.355s3.741-8.355 8.355-8.355z" fill="#cbf0ff"/></g><g><path d="m244.614 63.285c-26.2-8.955-54.699 5.024-63.655 31.224s5.024 54.699 31.225 63.655c4.992 1.706 10.068 2.577 15.076 2.693l13.802 20.806c.314.473.852.697 1.409.588s.969-.521 1.081-1.078l4.895-24.498c12.445-5.433 22.655-15.873 27.393-29.735 8.956-26.2-5.024-54.699-31.225-63.654z" fill="#64b5f6"/><path d="m233.732 60.866c-22.786-2.458-45.049 11.046-52.772 33.643-8.956 26.2 5.024 54.699 31.225 63.655 4.992 1.706 10.068 2.577 15.076 2.693l13.802 20.806c.314.473.852.697 1.409.588s.969-.521 1.081-1.078l2.549-12.756-5.277-7.956c-5.008-.115-10.084-.986-15.076-2.693-26.2-8.955-40.18-37.454-31.224-63.655 6.171-18.055 21.624-30.305 39.21-33.247z" fill="#42a5f5"/></g><g><path d="m378.228 403.376v44.231c0 1.762 1.455 3.217 3.217 3.217h118.336c1.77 0 3.218-1.449 3.218-3.217v-91.601c0-29.191-23.887-53.078-53.077-53.078h-18.618c-13.482 0-26.209 5.149-35.866 14.032-13.057 12.008-14.759 34.09-19.011 50.825h-44.192c-9.827 0-17.796 7.968-17.796 17.796s7.968 17.795 17.796 17.795h45.992z" fill="#ffda2d"/><path d="m483.877 450.824h15.904c1.77 0 3.218-1.449 3.218-3.217v-91.601c0-29.191-23.887-53.078-53.077-53.078h-18.618c-8.413 0-16.533 2.005-23.796 5.671 1.545-.137 3.104-.208 4.673-.208h18.618c29.191 0 53.077 23.887 53.077 53.078v89.355zm-107.45-83.039h-44.192c-5.039 0-9.59 2.096-12.828 5.464h55.742c.449-1.768.869-3.595 1.278-5.464z" fill="#ffc700"/><path d="m440.613 306.387c23.778 0 43.171-19.155 43.171-42.642s-19.393-42.642-43.171-42.642-43.172 19.156-43.172 42.642 19.393 42.642 43.172 42.642z" fill="#ffd6bd"/><path d="m405.267 288.232c7.81 10.979 20.729 18.155 35.345 18.155 23.843 0 43.171-19.092 43.171-42.642 0-14.247-7.075-26.861-17.943-34.604 4.93 6.93 7.825 15.373 7.825 24.486 0 23.55-19.328 42.642-43.171 42.642-9.419 0-18.131-2.982-25.228-8.038z" fill="#f9c6aa"/></g><g><path d="m366.72 98.778h95.223c5.002 0 9.095 4.093 9.095 9.095v63.515c0 5.002-4.093 9.095-9.095 9.095h-42.891l-13.821 30-13.82-30h-24.691c-5.002 0-9.095-4.093-9.095-9.095v-63.515c0-5.002 4.093-9.095 9.095-9.095z" fill="#ffda2d"/><path d="m366.72 98.778h3.233c-.669 1.265-1.049 2.704-1.049 4.227v63.515c0 5.002 4.093 9.095 9.095 9.095h24.691l9.302 20.192-6.761 14.676-13.82-30h-24.691c-5.002 0-9.095-4.093-9.095-9.095v-63.515c0-5.002 4.093-9.095 9.095-9.095zm103.269 76.837c-1.529 2.888-4.567 4.868-8.046 4.868h-33.854l2.242-4.868z" fill="#ffc700"/></g><g><path d="m133.772 403.64v44.231c0 1.762-1.455 3.217-3.217 3.217h-118.336c-1.77 0-3.218-1.449-3.218-3.217v-91.601c0-29.191 23.887-53.078 53.077-53.078h18.618c13.482 0 26.21 5.149 35.866 14.032 13.058 12.008 14.759 34.09 19.011 50.825h44.192c9.827 0 17.796 7.968 17.796 17.796s-7.968 17.795-17.796 17.795h-45.992z" fill="#72d561"/><path d="m28.123 451.088h-15.904c-1.77 0-3.218-1.449-3.218-3.217v-91.601c0-29.191 23.887-53.078 53.077-53.078h18.618c8.413 0 16.533 2.005 23.796 5.671-1.545-.137-3.104-.208-4.673-.208h-18.618c-29.191 0-53.077 23.887-53.077 53.078v89.355zm107.449-83.039h44.192c5.04 0 9.59 2.096 12.828 5.464h-55.742c-.449-1.768-.869-3.595-1.278-5.464z" fill="#42c345"/><path d="m71.387 306.651c23.778 0 43.172-19.155 43.172-42.642s-19.394-42.642-43.172-42.642-43.171 19.156-43.171 42.642 19.393 42.642 43.171 42.642z" fill="#ffd6bd"/><path d="m106.732 288.496c-7.81 10.979-20.729 18.155-35.346 18.155-23.843 0-43.171-19.092-43.171-42.642 0-14.247 7.075-26.861 17.943-34.604-4.929 6.93-7.825 15.373-7.825 24.486 0 23.55 19.328 42.642 43.171 42.642 9.419 0 18.131-2.981 25.228-8.038z" fill="#f9c6aa"/></g><g><path d="m79.933 80.729c24.955-11.995 54.909-1.488 66.904 23.467 11.995 24.956 1.488 54.91-23.467 66.904-4.755 2.286-9.692 3.752-14.651 4.459l-11.241 22.294c-.255.507-.763.793-1.329.751s-1.024-.403-1.201-.942l-7.762-23.746c-13-3.921-24.374-13.079-30.721-26.283-11.995-24.955-1.488-54.909 23.467-66.904z" fill="#72d561"/><path d="m79.933 80.729c7.837-3.767 16.166-5.313 24.277-4.891-3.343.816-6.653 1.987-9.879 3.538-24.955 11.994-35.462 41.948-23.467 66.904 6.346 13.203 17.72 22.362 30.721 26.282l3.4 10.403-7.507 14.888c-.255.507-.763.793-1.329.751s-1.024-.403-1.201-.942l-7.762-23.746c-13-3.921-24.374-13.079-30.721-26.283-11.995-24.955-1.488-54.909 23.467-66.904z" fill="#42c345"/></g></g><g><rect fill="#da8c36" height="47.784" rx="4.013" width="331.59" x="90.204" y="403.64"/><path d="m94.217 403.64h323.565c2.207 0 4.013 1.805 4.013 4.013v5.987h-317.578c-2.207 0-4.013 1.805-4.013 4.013v33.771h-5.987c-2.207 0-4.013-1.805-4.013-4.013v-39.758c0-2.208 1.806-4.013 4.013-4.013z" fill="#cd7d25" fill-rule="evenodd"/></g></g><path d="m384.829 160.563h59.05c4.386 0 7.971-3.58 7.971-7.999s-3.584-7.999-7.971-7.999h-59.05c-4.433 0-7.971 3.579-7.971 7.999s3.537 7.999 7.971 7.999zm0-25.855h59.05c4.386 0 7.971-3.584 7.971-7.999s-3.584-7.999-7.971-7.999h-59.05c-4.433 0-7.971 3.58-7.971 7.999s3.537 7.999 7.971 7.999zm-19.196 36.684v-63.512c0-.585.519-1.099 1.085-1.099h95.225c.613 0 1.132.514 1.132 1.099v63.512c0 .585-.519 1.094-1.132 1.094h-42.872c-3.113 0-5.943 1.82-7.264 4.655l-6.556 14.225-6.556-14.225c-1.321-2.835-4.15-4.655-7.263-4.655h-24.714c-.566 0-1.085-.509-1.085-1.094zm-15.988 0v-63.512c0-9.428 7.641-17.097 17.073-17.097h95.225c9.433 0 17.121 7.669 17.121 17.097v63.512c0 9.428-7.688 17.097-17.121 17.097h-37.779l-11.65 25.346c-1.321 2.834-4.15 4.655-7.263 4.655s-5.943-1.821-7.264-4.655l-11.697-25.346h-19.573c-9.433 0-17.073-7.669-17.073-17.097zm-268.554-21.677h41.174c4.433 0 8.018-3.584 8.018-8.004s-3.584-7.999-8.018-7.999h-41.174c-4.434 0-8.018 3.584-8.018 7.999s3.584 8.004 8.018 8.004zm0-28.69h41.174c4.433 0 8.018-3.584 8.018-8.004s-3.584-7.999-8.018-7.999h-41.174c-4.434 0-8.018 3.58-8.018 7.999s3.584 8.004 8.018 8.004zm-17.404 23.149c-4.858-10.145-5.518-21.582-1.792-32.199 3.726-10.621 11.367-19.153 21.507-24.03 5.896-2.82 12.074-4.155 18.206-4.155 15.706 0 30.798 8.806 38.062 23.879 10.046 20.936 1.179 46.16-19.762 56.224-3.915 1.882-8.065 3.146-12.31 3.75-2.594.372-4.811 1.986-5.99 4.32l-4.009 7.956-2.782-8.485c-.802-2.485-2.783-4.419-5.283-5.174-11.319-3.405-20.705-11.461-25.846-22.087zm-14.432 6.928c-6.697-13.994-7.593-29.77-2.452-44.424s15.706-26.426 29.666-33.152c28.912-13.89 63.719-1.679 77.585 27.209 13.914 28.893 1.698 63.695-27.214 77.581-4.103 1.967-8.348 3.443-12.734 4.405l-9.48 18.738c-1.604 3.184-4.811 5.155-8.348 5.155-.236 0-.472-.009-.708-.028-3.82-.288-7.028-2.811-8.207-6.424l-6.509-19.974c-13.772-5.292-25.139-15.71-31.6-29.086zm156.444-16.281h41.174c4.434 0 8.018-3.58 8.018-7.999s-3.584-8.004-8.018-8.004h-41.174c-4.433 0-8.018 3.584-8.018 8.004s3.584 7.999 8.018 7.999zm0-28.69h41.174c4.434 0 8.018-3.584 8.018-7.999s-3.584-8.004-8.018-8.004h-41.174c-4.433 0-8.018 3.584-8.018 8.004s3.584 7.999 8.018 7.999zm9.103 44.471c-21.979-7.518-33.769-31.515-26.27-53.499 5.99-17.484 22.403-28.51 39.901-28.51 4.528 0 9.103.731 13.63 2.268 10.612 3.641 19.243 11.211 24.195 21.313 4.952 10.103 5.66 21.535 2.028 32.185-3.82 11.159-12.215 20.267-23.016 24.988-2.405 1.047-4.15 3.203-4.669 5.763l-1.745 8.754-4.905-7.424c-1.462-2.179-3.868-3.519-6.509-3.58-4.292-.094-8.537-.858-12.64-2.259zm-41.41-58.677c-10.376 30.336 5.895 63.446 36.222 73.812 4.292 1.471 8.725 2.429 13.206 2.868l11.602 17.484c1.745 2.66 4.669 4.198 7.782 4.198.613 0 1.226-.061 1.839-.179 3.726-.736 6.603-3.622 7.358-7.362l4.103-20.592c13.065-6.891 23.111-18.578 27.921-32.619 4.999-14.696 4.009-30.463-2.83-44.405s-18.677-24.384-33.392-29.407c-14.668-5.023-30.468-4.023-44.381 2.816-13.961 6.839-24.384 18.696-29.431 33.388zm321.613 264.351c0-22.011-16.036-40.802-37.543-44.443-5.282 1.82-10.942 2.82-16.838 2.82s-11.555-1-16.838-2.82c-8.537 1.453-16.46 5.329-22.922 11.282-8.348 7.697-11.272 21.7-14.055 35.241-.802 3.891-1.651 7.919-2.594 11.669-.943 3.552-4.103 6.032-7.782 6.032h-44.193c-5.377 0-9.763 4.391-9.763 9.796s4.386 9.791 9.763 9.791h58.012c4.622 0 8.631-3.24 9.575-7.711.047-.09.047-.189.094-.278l10.14-39.929c1.085-4.278 5.424-6.872 9.716-5.782 4.292 1.094 6.886 5.443 5.801 9.721l-10.14 39.802c-.283 1.448-.755 2.84-1.321 4.179h3.679c6.65 0 12.027 5.391 12.027 12.013v35.439h65.181v-86.82zm-478.01 86.82h65.228v-35.439c0-6.622 5.377-12.013 12.027-12.013h3.632c-.519-1.339-.99-2.731-1.321-4.179l-10.093-39.802c-1.085-4.278 1.51-8.626 5.801-9.721 4.245-1.089 8.631 1.505 9.716 5.782l10.14 39.929c0 .09.047.189.047.278.99 4.471 4.999 7.711 9.575 7.711h58.012c5.424 0 9.81-4.391 9.81-9.791s-4.386-9.796-9.81-9.796h-44.193c-3.631 0-6.839-2.481-7.735-6.032-.943-3.75-1.792-7.777-2.594-11.669-2.783-13.541-5.707-27.544-14.055-35.241-6.509-5.952-14.385-9.829-22.969-11.282-5.282 1.82-10.895 2.82-16.79 2.82s-11.555-1-16.838-2.82c-21.554 3.641-37.59 22.431-37.59 44.443v86.82zm19.243-179.083c0 19.102 15.753 34.642 35.185 34.642s35.137-15.541 35.137-34.642-15.753-34.642-35.137-34.642-35.185 15.541-35.185 34.642zm262.186 76.071h-83.151v55.56h83.151zm-200.212 71.558h315.576v31.793h-315.576zm86.829-81.745c0-20.733 16.885-37.59 37.59-37.59h12.451c6.414 2.806 13.489 4.377 20.941 4.377 7.405 0 14.479-1.571 20.894-4.377h12.451c20.753 0 37.59 16.856 37.59 37.59v30.699c-4.763 1.01-9.103 3.349-12.498 6.617v-29.129c0-7.721-6.273-13.998-14.008-13.998h-87.16c-7.735 0-14.008 6.277-14.008 13.998v30.921c-3.632-4.212-8.584-7.23-14.244-8.41v-30.699zm34.808-85.363c0 19.936 16.224 36.156 36.175 36.156s36.128-16.22 36.128-36.156-16.224-36.151-36.128-36.151-36.175 16.22-36.175 36.151zm185.591 19.479c0 19.102 15.8 34.642 35.185 34.642s35.184-15.541 35.184-34.642-15.8-34.642-35.184-34.642-35.185 15.541-35.185 34.642zm105.554 92.263c0-24.242-14.338-45.584-35.326-55.38 9.905-9.24 16.13-22.351 16.13-36.882 0-27.921-22.969-50.64-51.173-50.64s-51.173 22.719-51.173 50.64c0 14.526 6.226 27.629 16.13 36.873-5.612 2.641-10.848 6.136-15.564 10.456-12.121 11.183-15.753 28.492-18.913 43.773-.33 1.689-.66 3.339-1.038 4.938h-27.072v-30.157c0-26.992-20.092-49.381-46.079-53.055 7.027-8.891 11.272-20.111 11.272-32.308 0-28.756-23.393-52.149-52.164-52.149s-52.164 23.393-52.164 52.149c0 12.197 4.197 23.417 11.272 32.308-26.034 3.674-46.079 26.063-46.079 53.055v30.157h-27.12c-.33-1.599-.66-3.25-1.037-4.938-3.16-15.281-6.745-32.591-18.913-43.773-4.669-4.306-9.904-7.815-15.564-10.456 9.952-9.244 16.177-22.347 16.177-36.873 0-27.921-22.969-50.64-51.173-50.64s-51.173 22.719-51.173 50.64c0 14.531 6.226 27.643 16.13 36.882-21.035 9.796-35.373 31.138-35.373 55.38v91.598c0 6.193 5.047 11.22 11.225 11.22h79.236c.896.212 1.792.34 2.783.34h323.547c.943 0 1.887-.127 2.783-.34h79.236c6.179 0 11.178-5.028 11.178-11.22v-91.598zm-262.47 9.357c0-4.598 3.726-8.348 8.348-8.348s8.348 3.75 8.348 8.348-3.726 8.362-8.348 8.362-8.348-3.759-8.348-8.362z" fill-rule="evenodd"/></svg>