<svg fill="none" viewBox="0 0 24 24" xmlns="http://www.w3.org/2000/svg"><rect fill="#daffe2" height="22" rx="6" width="22" x="1" y="1"/><path d="m17.5 5.583h-11a1.84 1.84 0 0 0 -1.83 1.834h14.647c-.019-1.053-.85-1.834-1.818-1.834z" fill="#54da72"/><path d="m6.5 18.417a1.835 1.835 0 0 1 -1.833-1.834v-9.166h14.666v9.166a1.835 1.835 0 0 1 -1.833 1.834z" fill="#acf5bc"/><path d="m16.125 10.625.727-.727a.916.916 0 0 1 1.296 0l.537.537c.36.36.357.94 0 1.297l-.727.726z" fill="#54da72"/><path d="m12 16.583v-1.833l4.125-4.125 1.833 1.833-4.125 4.125z" fill="#54da72"/><g fill="#098d26"><path d="m17.5 18.875h-11a2.294 2.294 0 0 1 -2.292-2.292v-9.166a2.294 2.294 0 0 1 2.292-2.292h11a2.294 2.294 0 0 1 2.292 2.292v1.375a.458.458 0 1 1 -.917 0v-1.375c0-.759-.617-1.375-1.375-1.375h-11c-.758 0-1.375.616-1.375 1.375v9.166c0 .759.617 1.375 1.375 1.375h11c.758 0 1.375-.616 1.375-1.375v-2.75a.458.458 0 1 1 .917 0v2.75a2.294 2.294 0 0 1 -2.292 2.292z"/><path d="m19.333 7.875h-14.666a.458.458 0 1 1 0-.917h14.666a.458.458 0 1 1 0 .917zm-5.5 9.165h-1.833a.458.458 0 0 1 -.458-.457v-1.834c0-.122.048-.238.134-.324l4.852-4.852a1.376 1.376 0 0 1 1.944 0l.537.537a1.376 1.376 0 0 1 0 1.945l-4.852 4.852a.457.457 0 0 1 -.324.134zm-1.375-.916h1.186l4.717-4.717a.458.458 0 0 0 0-.649l-.537-.536a.458.458 0 0 0 -.648 0l-4.718 4.717z"/><path d="m17.958 12.917a.457.457 0 0 1 -.324-.135l-1.833-1.833a.458.458 0 1 1 .648-.648l1.833 1.833a.458.458 0 0 1 -.324.783zm-4.125-2.292h-7.333a.458.458 0 1 1 0-.917h7.333a.458.458 0 1 1 0 .917zm-2.75 2.75h-4.583a.458.458 0 1 1 0-.917h4.583a.458.458 0 1 1 0 .917zm-.916 2.75h-3.667a.458.458 0 1 1 0-.917h3.667a.458.458 0 1 1 0 .917z"/></g></svg>