<svg id="Layer_3" height="512" viewBox="0 0 64 64" width="512" xmlns="http://www.w3.org/2000/svg" data-name="Layer 3"><path d="m12 5h40v26h-40z" fill="#029149"/><path d="m14 11.474a17.526 17.526 0 0 0 17.526 17.526h20.474v-24h-38z" fill="#2daa65"/><path d="m32 31a7.237 7.237 0 0 1 6.472-4h9.528v-25h-9.528a7.237 7.237 0 0 0 -6.472 4 7.237 7.237 0 0 0 -6.472-4h-9.528v25h9.528a7.237 7.237 0 0 1 6.472 4z" fill="#ffe1ae"/><path d="m38.472 27h9.528v-25h-9.528a7.237 7.237 0 0 0 -6.472 4v25a7.237 7.237 0 0 1 6.472-4z" fill="#ffeacd"/><path d="m15 46h6v16h-6z" fill="#898989"/><path d="m15 60a6 6 0 0 1 -6-6 6 6 0 0 1 6-6z" fill="#798499"/><path d="m43 46h6v16h-6z" fill="#898989" transform="matrix(-1 0 0 -1 92 108)"/><path d="m49 60a6 6 0 0 0 6-6 6 6 0 0 0 -6-6z" fill="#798499"/><path d="m20 46a11 11 0 0 1 11-11h2a11 11 0 0 1 11 11h4a15 15 0 0 0 -15-15h-2a15 15 0 0 0 -15 15z" fill="#707070"/><path d="m27 47v12l10-6z" fill="#e73844"/><path d="m11 52a6 6 0 0 0 4 5.651v-9.651a5.968 5.968 0 0 0 -3.119.881 5.968 5.968 0 0 0 -.881 3.119z" fill="#8a96a8"/><path d="m49 57.91a5.977 5.977 0 0 0 4.77-7.539 5.982 5.982 0 0 0 -4.77-2.371z" fill="#8a96a8"/><g fill="#006bdb"><path d="m21 8h7v2h-7z"/><path d="m19 12h10v2h-10z"/><path d="m19 16h10v2h-10z"/><path d="m19 20h10v2h-10z"/><path d="m36 8h7v2h-7z"/><path d="m35 12h10v2h-10z"/><path d="m35 16h10v2h-10z"/><path d="m35 20h10v2h-10z"/></g></svg>