<svg id="Layer_1" viewBox="0 0 512 512" xmlns="http://www.w3.org/2000/svg" data-name="Layer 1"><g><path d="m94.652 20.285h393.109v263.282h-393.109z" fill="#cad1d8"/><path d="m111.15 20.285h376.611v263.282h-376.611z" fill="#e2e5e7"/><g fill-rule="evenodd"><path d="m90.683 30.546h401.046c5.641 0 10.261-4.621 10.261-10.261 0-5.669-4.621-10.29-10.261-10.29h-401.046c-5.641 0-10.261 4.621-10.261 10.29 0 5.641 4.62 10.261 10.261 10.261z" fill="#00ade6"/><path d="m107.181 30.546h384.548c5.641 0 10.261-4.621 10.261-10.261 0-5.669-4.621-10.29-10.261-10.29h-384.548c-5.641 0-10.261 4.621-10.261 10.29 0 5.641 4.62 10.261 10.261 10.261z" fill="#11bef7"/><path d="m161.578 434.03c-2.069-57.005-129.26-57.005-131.329 0v30.728h131.329z" fill="#cd212d"/><path d="m161.578 434.03c-.964-26.787-29.565-40.989-59.839-42.576-30.274 1.587-58.904 15.789-59.868 42.576v30.728h119.707z" fill="#ee2b39"/><path d="m95.927 326.597c-19.19 0-34.725 15.562-34.725 34.724s15.534 34.724 34.725 34.724 34.724-15.534 34.724-34.724-15.562-34.724-34.724-34.724z" fill="#e2b698"/><path d="m101.511 395.621c16.526-2.693 29.14-17.008 29.14-34.299s-12.614-31.578-29.14-34.271c-16.526 2.693-29.14 17.008-29.14 34.271s12.614 31.606 29.14 34.299z" fill="#efc9ae"/><path d="m321.678 434.03c-2.098-57.005-129.288-57.005-131.357 0v30.728h131.357z" fill="#f7b84e"/><path d="m321.678 434.03c-.992-26.787-29.594-40.989-59.868-42.576-30.274 1.587-58.875 15.789-59.868 42.576v30.728h119.735v-30.728z" fill="#ffcb5b"/><path d="m256 326.597c-19.19 0-34.724 15.562-34.724 34.724s15.534 34.724 34.724 34.724 34.725-15.534 34.725-34.724-15.562-34.724-34.725-34.724z" fill="#e2b698"/><path d="m261.584 395.621c16.526-2.693 29.14-17.008 29.14-34.299s-12.614-31.578-29.14-34.271c-16.526 2.693-29.14 17.008-29.14 34.271s12.614 31.606 29.14 34.299z" fill="#efc9ae"/><path d="m481.751 434.03c-2.069-57.005-129.26-57.005-131.357 0v30.728h131.357z" fill="#32a13f"/><path d="m481.751 434.03c-.964-26.787-29.594-40.989-59.868-42.576-30.274 1.587-58.876 15.789-59.868 42.576v30.728h119.736z" fill="#3cb54b"/><path d="m416.073 326.597c-19.163 0-34.725 15.562-34.725 34.724s15.562 34.724 34.725 34.724 34.724-15.534 34.724-34.724-15.534-34.724-34.724-34.724z" fill="#e2b698"/><path d="m421.656 395.621c16.526-2.693 29.14-17.008 29.14-34.299s-12.614-31.578-29.14-34.271c-16.498 2.693-29.112 17.008-29.112 34.271s12.614 31.606 29.112 34.299z" fill="#efc9ae"/><path d="m10.01 502.005h491.981v-23.216c0-11.112-9.099-20.239-20.239-20.239h-451.503c-11.14 0-20.239 9.127-20.239 20.239z" fill="#c97629"/><path d="m22.935 502.005h479.055v-23.216c0-11.112-9.099-20.239-20.239-20.239h-438.576c-11.14 0-20.239 9.127-20.239 20.239v23.216z" fill="#d6853a"/></g><path d="m130.141 75.561c-3.288 0-5.981-2.693-5.981-6.009s2.693-6.01 5.981-6.01h322.129c3.288 0 5.981 2.693 5.981 6.01s-2.693 6.009-5.981 6.009z" fill="#b0b7bd"/><path d="m156.249 110.569c-3.316 0-5.981-2.693-5.981-6.01s2.665-6.01 5.981-6.01h296.022c3.288 0 5.981 2.693 5.981 6.01s-2.693 6.01-5.981 6.01z" fill="#b0b7bd"/><path d="m156.249 145.548c-3.316 0-5.981-2.665-5.981-5.981s2.665-6.009 5.981-6.009h131.499c3.316 0 6.01 2.693 6.01 6.009s-2.693 5.981-6.01 5.981z" fill="#b0b7bd"/><path d="m329.758 180.556c-3.317 0-6.01-2.693-6.01-6.01s2.693-5.981 6.01-5.981h122.513c3.288 0 5.981 2.665 5.981 5.981s-2.693 6.01-5.981 6.01z" fill="#b0b7bd"/><path d="m230.431 209.016c-2.863 1.644-6.52.652-8.164-2.211s-.652-6.52 2.211-8.164l111.288-64.261c2.863-1.644 6.52-.652 8.164 2.211s.652 6.491-2.183 8.135z" fill="#b0b7bd"/><path d="m291.206 215.564c-3.317 0-6.01-2.693-6.01-6.01s2.693-6.01 6.01-6.01h161.064c3.288 0 5.981 2.693 5.981 6.01s-2.693 6.01-5.981 6.01z" fill="#b0b7bd"/><path d="m261.244 250.543c-3.288 0-5.981-2.665-5.981-5.981s2.693-6.01 5.981-6.01h191.027c3.288 0 5.981 2.693 5.981 6.01s-2.693 5.981-5.981 5.981z" fill="#b0b7bd"/><path d="m377.266 145.548c-3.316 0-6.009-2.665-6.009-5.981s2.693-6.009 6.009-6.009h75.005c3.288 0 5.981 2.693 5.981 6.009s-2.693 5.981-5.981 5.981z" fill="#b0b7bd"/><path d="m10.01 220.95c1.757-48.217 82.913-54.709 115.03-36.17l46.687 26.958c2.296 1.332 4.592 2.013 6.775 2.013 1.304.34 6.038-1.106 6.832-1.899l28.375-16.469c9.553-5.499 21.77-2.211 27.27 7.342 5.471 9.553 2.183 21.742-7.342 27.241l-28.375 16.356c-15.307 8.816-38.041 9.014-53.546.057l-.878-.51v54.028h-140.828v-78.945z" fill="#00ade6" fill-rule="evenodd"/><path d="m88.444 175.425c14.202.822 27.411 4.053 36.595 9.354l46.687 26.958c2.296 1.332 4.592 2.013 6.775 2.013 1.304.34 6.038-1.106 6.832-1.899l28.375-16.469c9.553-5.499 21.77-2.211 27.27 7.342 5.471 9.553 2.183 21.742-7.342 27.241l-28.375 16.356c-15.307 8.816-38.041 9.014-53.546.057l-.878-.51v54.028h-126.598v-78.945c1.105-29.877 32.684-43.739 64.205-45.524z" fill="#11bef7" fill-rule="evenodd"/><path d="m80.422 95.63c23.357 0 42.292 18.936 42.292 42.293s-18.935 42.321-42.292 42.321-42.321-18.936-42.321-42.321 18.935-42.293 42.321-42.293z" fill="#e2b698" fill-rule="evenodd"/><path d="m86.97 96.14c20.268 3.146 35.745 20.665 35.745 41.783s-15.477 38.665-35.745 41.811c-20.239-3.146-35.745-20.665-35.745-41.811s15.506-38.636 35.745-41.783z" fill="#efc9ae" fill-rule="evenodd"/></g><path d="m10.01 305.904h140.825c3.312 0 5.995-2.684 5.995-5.995v-10.361h330.931c3.312 0 5.995-2.684 5.995-5.995v-247.138c8.009-1.004 14.229-7.854 14.229-16.144 0-8.964-7.292-16.257-16.256-16.257h-401.045c-8.964 0-16.257 7.292-16.257 16.257 0 8.29 6.221 15.139 14.229 16.144v53.951c-2.678-.462-5.426-.717-8.234-.717-26.642 0-48.316 21.662-48.316 48.288 0 14.159 6.129 26.913 15.875 35.753-26.995 7.746-43.146 24.708-43.962 47.055-.003.073-.004.146-.004.219v78.945c0 3.311 2.684 5.995 5.995 5.995zm471.756-28.346h-324.936v-22.213c16.335 5.946 36.686 4.671 51.424-3.816l28.372-16.354c12.327-7.097 16.624-22.895 9.62-35.292l95.523-55.137c2.868-1.655 3.851-5.322 2.195-8.189s-5.319-3.85-8.189-2.195l-97.99 56.561c-7.918-5.111-18.357-5.735-27.083-.713l-28.375 16.441c-.181.105-.356.219-.525.342-.646.286-1.967.675-2.654.784-.214-.023-.43-.035-.646-.035-1.156 0-2.424-.396-3.777-1.181l-46.684-26.956c-4.251-2.458-9.29-4.536-14.921-6.172 9.578-8.83 15.591-21.471 15.591-35.495 0-19.407-11.514-36.165-28.063-43.832v-57.549h381.119v241.002zm-395.349-257.287c0-2.312 1.954-4.267 4.267-4.267h401.046c2.312 0 4.266 1.954 4.266 4.267 0 2.368-1.914 4.294-4.266 4.294h-401.046c-2.353 0-4.267-1.927-4.267-4.294zm-42.321 117.666c0-20.015 16.296-36.298 36.326-36.298s36.298 16.283 36.298 36.298-16.283 36.298-36.298 36.298-36.326-16.283-36.326-36.298zm-28.091 83.14c1.078-27.452 31.599-35.877 46.397-38.349 5.573 2.247 11.651 3.497 18.02 3.497 6.523 0 12.746-1.307 18.427-3.662 9.275 1.457 17.277 4.002 23.192 7.422l46.675 26.951c3.116 1.809 6.325 2.748 9.541 2.793 3.15.206 7.673-1.138 10.186-2.766l28.256-16.372c6.677-3.846 15.237-1.54 19.076 5.125 3.826 6.682 1.524 15.234-5.134 19.067l-28.373 16.355c-13.607 7.835-34.052 7.863-47.542.068l-.878-.51c-1.855-1.078-4.144-1.083-6.003-.013s-3.005 3.051-3.005 5.196v48.033h-128.835v-72.836zm471.741 232.191v-19.224c0-.073 0-.147-.004-.22-.771-20.959-16.559-37.306-42.086-44.552 6.895-7.298 11.136-17.128 11.136-27.936 0-22.453-18.267-40.72-40.72-40.72s-40.72 18.267-40.72 40.72c0 10.809 4.242 20.64 11.137 27.938-25.527 7.249-41.317 23.596-42.087 44.551-.003.073-.004.147-.004.22v18.525h-16.725v-18.525c0-.073 0-.147-.004-.22-.771-20.958-16.559-37.306-42.086-44.552 6.895-7.298 11.136-17.128 11.136-27.936 0-22.453-18.267-40.72-40.72-40.72s-40.72 18.267-40.72 40.72c0 10.808 4.241 20.638 11.136 27.936-25.526 7.247-41.315 23.593-42.086 44.552-.003.073-.004.147-.004.22v18.525h-16.753v-18.525c0-.071 0-.142-.004-.213-.746-20.958-16.525-37.307-42.06-44.558 6.896-7.298 11.137-17.129 11.137-27.937 0-22.453-18.267-40.72-40.719-40.72s-40.72 18.267-40.72 40.72c0 10.808 4.24 20.637 11.135 27.935-25.551 7.248-41.34 23.599-42.085 44.561-.003.071-.004.142-.004.213v19.224c-11.585 2.72-20.239 13.132-20.239 25.535v23.188c0 3.311 2.684 5.995 5.995 5.995h491.98c3.312 0 5.995-2.684 5.995-5.995v-23.188c0-12.403-8.654-22.815-20.239-25.535zm-71.674-120.662c15.842 0 28.729 12.888 28.729 28.729s-12.888 28.729-28.729 28.729-28.729-12.888-28.729-28.729 12.888-28.729 28.729-28.729zm-59.684 101.553c.849-21.106 22.598-32.123 43.307-35.554 5.015 2.212 10.553 3.45 16.376 3.45s11.361-1.238 16.376-3.45c20.709 3.427 42.458 14.443 43.307 35.554v18.41h-119.367v-18.41zm-100.389-101.553c15.842 0 28.729 12.888 28.729 28.729s-12.888 28.729-28.729 28.729-28.729-12.888-28.729-28.729 12.888-28.729 28.729-28.729zm-59.684 101.553c.849-21.111 22.598-32.127 43.307-35.554 5.015 2.212 10.553 3.45 16.376 3.45s11.361-1.238 16.376-3.45c20.709 3.427 42.458 14.443 43.307 35.554v18.41h-119.367v-18.41zm-100.389-101.553c15.841 0 28.729 12.888 28.729 28.729s-12.888 28.729-28.729 28.729-28.729-12.888-28.729-28.729 12.888-28.729 28.729-28.729zm-59.684 101.548c.82-21.105 22.58-32.12 43.307-35.55 5.015 2.212 10.553 3.45 16.376 3.45s11.361-1.238 16.376-3.45c20.714 3.431 42.458 14.447 43.279 35.55v18.414h-119.336v-18.415zm459.751 61.841h-479.988v-17.192c0-7.854 6.39-14.244 14.244-14.244h451.502c7.854 0 14.244 6.39 14.244 14.244v17.192zm-371.847-426.43c0-3.311 2.684-5.995 5.995-5.995h322.129c3.312 0 5.995 2.684 5.995 5.995s-2.684 5.995-5.995 5.995h-322.128c-3.312 0-5.995-2.684-5.995-5.995zm334.119 34.979c0 3.311-2.684 5.995-5.995 5.995h-296.021c-3.312 0-5.995-2.684-5.995-5.995s2.684-5.995 5.995-5.995h296.021c3.312 0 5.995 2.684 5.995 5.995zm-164.522 35.008c0 3.311-2.684 5.995-5.995 5.995h-131.499c-3.312 0-5.995-2.684-5.995-5.995s2.684-5.995 5.995-5.995h131.499c3.312 0 5.995 2.684 5.995 5.995zm164.522 35.008c0 3.311-2.684 5.995-5.995 5.995h-122.513c-3.312 0-5.995-2.684-5.995-5.995s2.684-5.995 5.995-5.995h122.513c3.312 0 5.995 2.684 5.995 5.995zm0 35.008c0 3.311-2.684 5.995-5.995 5.995h-161.064c-3.312 0-5.995-2.684-5.995-5.995s2.684-5.995 5.995-5.995h161.064c3.312 0 5.995 2.684 5.995 5.995zm0 34.979c0 3.311-2.684 5.995-5.995 5.995h-191.026c-3.312 0-5.995-2.684-5.995-5.995s2.684-5.995 5.995-5.995h191.026c3.312 0 5.995 2.684 5.995 5.995zm0-104.995c0 3.311-2.684 5.995-5.995 5.995h-75.005c-3.312 0-5.995-2.684-5.995-5.995s2.684-5.995 5.995-5.995h75.005c3.312 0 5.995 2.684 5.995 5.995z"/></svg>