<svg id="Layer_1" enable-background="new 0 0 800 800" viewBox="0 0 800 800" xmlns="http://www.w3.org/2000/svg" xmlns:xlink="http://www.w3.org/1999/xlink"><linearGradient id="SVGID_1_" gradientUnits="userSpaceOnUse" x1="41.7" x2="758.3" y1="400" y2="400"><stop offset=".00000011188" stop-color="#b64dff"/><stop offset="1" stop-color="#11bbe9"/></linearGradient><path d="m433.3 375h-18.1l19.5-27.2c8-11.3 5.4-26.9-5.8-34.9-11.3-8-26.9-5.4-34.9 5.8l-47.6 66.7c-5.5 7.6-6.2 17.7-1.9 26 4.3 8.4 12.8 13.6 22.2 13.6h18.1l-19.4 27.1c-8 11.3-5.4 26.9 5.8 34.9 4.4 3.2 9.5 4.7 14.5 4.7 7.8 0 15.5-3.7 20.3-10.4l47.6-66.7c5.5-7.6 6.2-17.7 1.9-26-4.3-8.4-12.8-13.6-22.2-13.6zm300 50c13.8 0 25-11.2 25-25s-11.2-25-25-25h-41.6c0-18.1-.1-34.7-.4-50h42c13.8 0 25-11.2 25-25s-11.2-25-25-25h-44.2c-.7-8.6-1.5-16.8-2.5-24.6-5.9-43.5-18.6-73-41.3-95.7s-52.2-35.5-95.7-41.3c-7.8-1-16-1.9-24.6-2.5v-44.2c0-13.8-11.2-25-25-25s-25 11.2-25 25v42c-15.3-.3-31.9-.4-50-.4v-41.6c0-13.8-11.2-25-25-25s-25 11.2-25 25v41.6c-18.1 0-34.7.1-50 .4v-42c0-13.8-11.2-25-25-25s-25 11.2-25 25v44.2c-8.6.7-16.8 1.5-24.6 2.5-43.5 5.9-73 18.6-95.7 41.3s-35.5 52.2-41.3 95.7c-1 7.8-1.9 16-2.5 24.6h-44.2c-13.8 0-25 11.2-25 25s11.2 25 25 25h42c-.3 15.3-.4 31.9-.4 50h-41.6c-13.8 0-25 11.2-25 25s11.2 25 25 25h41.6c0 18.1.1 34.7.4 50h-42c-13.8 0-25 11.2-25 25s11.2 25 25 25h44.2c.7 8.6 1.5 16.8 2.5 24.6 5.9 43.5 18.6 73 41.3 95.7s52.2 35.5 95.7 41.3c7.8 1 16 1.9 24.6 2.5v44.2c0 13.8 11.2 25 25 25s25-11.2 25-25v-42c15.3.3 31.9.4 50 .4v41.6c0 13.8 11.2 25 25 25s25-11.2 25-25v-41.6c18.1 0 34.7-.1 50-.4v42c0 13.8 11.2 25 25 25s25-11.2 25-25v-44.2c8.6-.7 16.8-1.5 24.6-2.5 43.5-5.9 73-18.6 95.7-41.3s35.5-52.2 41.3-95.7c1-7.8 1.9-16 2.5-24.6h44.2c13.8 0 25-11.2 25-25s-11.2-25-25-25h-42c.3-15.3.4-31.9.4-50zm-91.7-25c0 118.5 0 178.1-31.7 209.8s-91.2 31.7-209.9 31.7c-118.6 0-178.2 0-209.9-31.7s-31.7-91.2-31.7-209.9c0-118.6 0-178.2 31.7-209.9s91.2-31.7 209.9-31.7 178.2 0 209.9 31.7 31.7 91.2 31.7 210zm-72-169.7c-14.3-14.4-32.4-18.2-44.8-19.9-15.3-2.1-33.3-2.1-58.2-2.1h-133.3c-24.9 0-42.9 0-58.2 2.1-12.3 1.6-30.4 5.5-44.8 19.9-14.4 14.3-18.2 32.4-19.9 44.8-2.1 15.3-2.1 33.3-2.1 58.2v133.4c0 24.9 0 42.9 2.1 58.2 1.6 12.3 5.5 30.4 19.9 44.8 14.3 14.4 32.4 18.2 44.8 19.9 15.3 2.1 33.3 2.1 58.2 2.1h133.4c24.9 0 42.9 0 58.1-2.2 12.3-1.6 30.4-5.5 44.8-19.9 14.4-14.3 18.2-32.4 19.9-44.8 2.1-15.3 2.1-33.3 2.1-58.2v-133.3c0-24.9 0-42.9-2.1-58.2-1.6-12.3-5.5-30.4-19.9-44.8zm-28 236.3c0 37.7 0 60.4-7.3 67.7s-30.1 7.3-67.7 7.3h-133.3c-37.7 0-60.4 0-67.7-7.3s-7.3-30.1-7.3-67.7v-133.3c0-37.7 0-60.4 7.3-67.7s30.1-7.3 67.7-7.3h133.3c37.7 0 60.4 0 67.7 7.3s7.3 30.1 7.3 67.7z" fill="url(#SVGID_1_)"/></svg>