<?xml version="1.0" encoding="iso-8859-1"?>
<!-- Generator: Adobe Illustrator 19.0.0, SVG Export Plug-In . SVG Version: 6.00 Build 0)  -->
<svg version="1.1" id="Layer_1" xmlns="http://www.w3.org/2000/svg" xmlns:xlink="http://www.w3.org/1999/xlink" x="0px" y="0px"
	 viewBox="0 0 512 512" style="enable-background:new 0 0 512 512;" xml:space="preserve">
<rect x="17.655" y="185.379" style="fill:#81A4E3;" width="476.69" height="52.966"/>
<g>
	<path style="fill:#5ECB66;" d="M494.345,167.724v-35.397c0-14.556-11.901-26.396-26.526-26.396H44.181
		c-14.625,0-26.526,11.84-26.526,26.396v35.397H494.345z"/>
	<path style="fill:#5ECB66;" d="M17.655,256v123.672c0,14.556,11.901,26.396,26.526,26.396h423.638
		c14.625,0,26.526-11.84,26.526-26.396V256H17.655z M97.103,344.276H44.138v-17.655h52.966V344.276z M132.414,300.138H44.138
		v-17.655h88.276V300.138z M238.345,300.138h-88.276v-17.655h88.276V300.138z M344.276,300.138H256v-17.655h88.276V300.138z
		 M450.207,300.138h-88.276v-17.655h88.276V300.138z"/>
</g>
<g>
	<path style="fill:#314E55;" d="M467.819,88.276H44.181C19.819,88.276,0,108.039,0,132.327v44.224v70.621v132.5
		c0,24.289,19.819,44.052,44.181,44.052h423.638c24.362,0,44.181-19.763,44.181-44.052v-132.5v-70.621v-44.224
		C512,108.039,492.181,88.276,467.819,88.276z M44.181,105.931h423.638c14.625,0,26.526,11.84,26.526,26.396v35.397H17.655v-35.397
		C17.655,117.771,29.556,105.931,44.181,105.931z M494.345,238.345H17.655v-52.966h476.69V238.345z M467.819,406.069H44.181
		c-14.625,0-26.526-11.84-26.526-26.396V256h476.69v123.672C494.345,394.229,482.444,406.069,467.819,406.069z"/>
	<rect x="44.138" y="282.483" style="fill:#314E55;" width="88.276" height="17.655"/>
	<rect x="150.069" y="282.483" style="fill:#314E55;" width="88.276" height="17.655"/>
	<rect x="256" y="282.483" style="fill:#314E55;" width="88.276" height="17.655"/>
	<rect x="361.931" y="282.483" style="fill:#314E55;" width="88.276" height="17.655"/>
	<rect x="44.138" y="326.621" style="fill:#314E55;" width="52.966" height="17.655"/>
</g>
<g>
</g>
<g>
</g>
<g>
</g>
<g>
</g>
<g>
</g>
<g>
</g>
<g>
</g>
<g>
</g>
<g>
</g>
<g>
</g>
<g>
</g>
<g>
</g>
<g>
</g>
<g>
</g>
<g>
</g>
</svg>
