<svg id="&#x421;&#x43B;&#x43E;&#x439;_1" enable-background="new 0 0 500 500" height="500" viewBox="0 0 500 500" width="500" xmlns="http://www.w3.org/2000/svg"><g id="_x30_5"><path d="m500 392.856c0 59.173-47.97 107.144-107.143 107.144h-285.714c-59.173 0-107.143-47.971-107.143-107.144v-285.713c0-59.173 47.97-107.143 107.143-107.143h285.715c59.172 0 107.142 47.97 107.142 107.143z" fill="#59baaa"/><path d="m471.429 392.856c0 43.395-35.178 78.571-78.571 78.571h-285.715c-43.394 0-78.571-35.177-78.571-78.571v-285.713c0-43.395 35.177-78.571 78.571-78.571h285.715c43.394 0 78.571 35.177 78.571 78.571z" fill="#257269"/></g><g id="_x30_5_1_"><path d="m327.064 226.128-73.493-91.87-73.493 91.87-108.649-63.912 50 196.948c0 19.412 52.721 35.148 132.143 35.148 79.423 0 132.143-15.736 132.143-35.148l50-196.948z" fill="#fdd077"/><path d="m228.571 377.115c-48.786-8.869-97.565-116.87-127.539-197.485l-29.604-17.414 50 196.948c0 19.412 52.721 35.148 132.143 35.148 45.341 0 81.927-5.141 105.022-13.154-41.74 1.811-95.074 2.313-130.022-4.043z" fill="#f6ae3c"/><path d="m327.064 226.128-73.493-91.87-73.493 91.87-108.649-63.912 105.141 86.328 80.573-85.714 64.286 85.714 85.714-53.526-42.062 183.687c13.295-5.586 20.633-12.307 20.633-19.541l50-196.948z" fill="#ffdea6"/><g><circle cx="82.143" cy="166.401" fill="#fdd077" r="32.143"/><path d="m75 152.831c13.742 0 25.384 8.67 29.98 20.808 1.367-3.09 2.162-6.494 2.162-10.094 0-13.808-11.195-25-25-25-11.844 0-21.721 8.266-24.295 19.333 4.974-3.157 10.826-5.047 17.153-5.047z" fill="#ffdea6"/><path d="m82.143 184.258c-15.29 0-28.027-10.697-31.285-25-.523 2.305-.858 4.681-.858 7.143 0 17.753 14.391 32.143 32.143 32.143 17.753 0 32.143-14.39 32.143-32.143 0-2.462-.334-4.837-.858-7.143-3.258 14.304-15.995 25-31.285 25z" fill="#f6ae3c"/></g><g><circle cx="253.571" cy="137.83" fill="#fdd077" r="32.143"/><path d="m246.429 124.259c13.741 0 25.384 8.67 29.98 20.808 1.367-3.09 2.162-6.494 2.162-10.094 0-13.808-11.195-25-25-25-11.844 0-21.722 8.266-24.295 19.333 4.973-3.157 10.826-5.047 17.153-5.047z" fill="#ffdea6"/><path d="m253.571 155.687c-15.29 0-28.027-10.697-31.285-25-.522 2.305-.857 4.68-.857 7.143 0 17.752 14.391 32.143 32.143 32.143 17.753 0 32.143-14.391 32.143-32.143 0-2.462-.334-4.837-.857-7.143-3.259 14.303-15.997 25-31.287 25z" fill="#f6ae3c"/></g><g><circle cx="417.857" cy="166.401" fill="#fdd077" r="32.143"/><path d="m410.714 152.831c13.742 0 25.384 8.67 29.98 20.808 1.367-3.09 2.163-6.494 2.163-10.094 0-13.808-11.196-25-25-25-11.845 0-21.722 8.266-24.296 19.333 4.974-3.157 10.827-5.047 17.153-5.047z" fill="#ffdea6"/><path d="m417.857 184.258c-15.29 0-28.027-10.697-31.285-25-.523 2.305-.858 4.681-.858 7.143 0 17.753 14.391 32.143 32.144 32.143 17.752 0 32.143-14.39 32.143-32.143 0-2.462-.335-4.837-.858-7.143-3.258 14.304-15.996 25-31.286 25z" fill="#f6ae3c"/></g><path d="m384.961 306.043c-21.568 14.271-76.019 26.419-140.27 29.771-54.018 2.82-101.729-1.27-129.129-9.746 17.048 13.719 71.407 23.756 135.889 23.756 78.132 0 141.462-14.732 141.462-32.903 0-3.816-2.818-7.471-7.952-10.878z" fill="#ffdea6"/><path d="m114.216 330.75 4.255 16.754c25.983 13.379 76.737 22.469 135.101 22.469s109.117-9.09 135.101-22.469l4.255-16.754c-24.281 14.715-77.49 24.938-139.355 24.938s-115.075-10.223-139.357-24.938z" fill="#ffdea6"/><path d="m112.025 322.113 4.318 17.018c25.216 14.037 77.12 23.699 137.228 23.699s112.012-9.662 137.229-23.699l4.317-17.018c-23.082 15.504-77.63 26.432-141.546 26.432s-118.464-10.928-141.546-26.432z" fill="#f6ae3c"/></g></svg>