<svg id="Layer_1" viewBox="0 0 512 512" xmlns="http://www.w3.org/2000/svg" xmlns:xlink="http://www.w3.org/1999/xlink" data-name="Layer 1"><linearGradient id="New_Gradient_Swatch" gradientUnits="userSpaceOnUse" x1="3.291" x2="508.709" y1="256" y2="256"><stop offset="0" stop-color="#0056e9"/><stop offset=".008" stop-color="#0057e9"/><stop offset=".304" stop-color="#007de2"/><stop offset=".577" stop-color="#0098dc"/><stop offset=".818" stop-color="#00a9d9"/><stop offset="1" stop-color="#00afd8"/></linearGradient><path d="m500.549 101.738a27.88 27.88 0 0 0 -19.7-8.16h-72.173l16.124-60.178a26.448 26.448 0 1 0 -51.09-13.7l-19.855 74.1-322.7-.226a27.91 27.91 0 0 0 -27.864 27.836v288.673a27.911 27.911 0 0 0 27.862 27.833h178.624v44.532h-14.717a14.839 14.839 0 0 0 -14.806 14.776v14.776h151.491v-14.776a14.838 14.838 0 0 0 -14.805-14.776h-14.717v-44.532h178.624a27.862 27.862 0 0 0 27.862-27.833v-288.673a27.756 27.756 0 0 0 -8.16-19.672zm-234.407 307.562h-20.255a7.2 7.2 0 1 1 0-14.4h20.255a7.2 7.2 0 1 1 0 14.4zm228.17-43.017h-476.624v-244.873a13.533 13.533 0 0 1 13.465-13.464l318.847.254-36.382 135.761 51.09 13.7 40.118-149.713h76.021a13.533 13.533 0 0 1 13.465 13.464zm-180.957-107.483 44.154 11.832-33.9 38.237zm-76.036-45.815h-37.126c.023-.708.054-1.414.054-2.128a65.254 65.254 0 1 0 -71.373 64.958v45.585a7.2 7.2 0 0 0 7.2 7.2h101.245a7.2 7.2 0 0 0 7.2-7.2v-101.22a7.2 7.2 0 0 0 -7.2-7.199zm-108.445 7.2v41.149a50.837 50.837 0 1 1 56.976-50.476c0 .714-.025 1.422-.054 2.128h-49.724a7.2 7.2 0 0 0 -7.198 7.194zm54.205 7.2a51 51 0 0 1 -39.808 33.648v-33.655zm47.041 86.815h-86.849v-38.636a65.414 65.414 0 0 0 54.851-48.186h32z" fill="url(#New_Gradient_Swatch)"/></svg>