<svg viewBox="0 0 64 64" xmlns="http://www.w3.org/2000/svg"><g id="Flat"><path d="m26.008 61h25.992v-4h-21v-17h21v-9h-13v-12h13v-7l-9-9h-31v13h23v18h-23v4h15v12h-15v11h7.976 2 2.032z" fill="#0c84c1"/><path d="m52 12h-9v-9z" fill="#04779b"/><path d="m15 6h2v2h-2z" fill="#c1272d"/><path d="m19 6h2v2h-2z" fill="#f15a24"/><path d="m23 6h2v2h-2z" fill="#009245"/><path d="m15 11h25v2h-25z" fill="#023b5b"/><path d="m3 16h32v18h-32z" fill="#4ec1e5"/><path d="m37 18v18h-25v-2h23v-16z" fill="#056f99"/><path d="m5 38h22v12h-22z" fill="#ec4684"/><path d="m39 19h22v12h-22z" fill="#ec4684"/><path d="m39 31.031h13v1.953h-13z" fill="#056f99"/><path d="m12 50.031h15v1.953h-15z" fill="#056f99"/><path d="m31 40h30v17h-30z" fill="#4ec1e5"/><path d="m52 57v2h-23v-17h2v15z" fill="#056f99"/><g fill="#840344"><path d="m42 22h2v2h-2z"/><path d="m46 22h12v2h-12z"/><path d="m42 26h2v2h-2z"/><path d="m46 26h12v2h-12z"/><path d="m8 41h5v2h-5z"/><path d="m15 41h9v2h-9z"/><path d="m8 45h16v2h-16z"/></g><path d="m45 53-7-5-7 4v5h30v-5l-7-6z" fill="#009245"/><circle cx="45" cy="46" fill="#c1272d" r="2"/><path d="m12.293 30.778-5.071-5.071a1 1 0 0 1 0-1.414l5.071-5.071 1.414 1.414-4.364 4.364 4.364 4.364z" fill="#023b5b"/><path d="m25.707 30.778-1.414-1.414 4.364-4.364-4.364-4.364 1.414-1.414 5.071 5.071a1 1 0 0 1 0 1.414z" fill="#023b5b"/><path d="m12.292 24h13.416v2h-13.416z" fill="#023b5b" transform="matrix(.447 -.894 .894 .447 -11.858 30.814)"/></g></svg>