<svg id="Layer_1" viewBox="0 0 512 512" xmlns="http://www.w3.org/2000/svg" xmlns:xlink="http://www.w3.org/1999/xlink" data-name="Layer 1"><linearGradient id="linear-gradient" gradientUnits="userSpaceOnUse" x1="151.273" x2="370.959" y1="65.091" y2="445.598"><stop offset="0" stop-color="#ee3127"/><stop offset=".359" stop-color="#f35f25"/><stop offset="1" stop-color="#febc23"/></linearGradient><path d="m283.659 496v-74.272s64.322 37.136 64.322 37.136zm-200.756-339.795c-1.657-2.86-.681-6.523 2.18-8.18 2.86-1.657 6.523-.681 8.18 2.18l10.488 18.166c1.657 2.86.681 6.523-2.18 8.18s-6.523.681-8.18-2.18zm-59.39 63.773c-2.86-1.644-3.847-5.296-2.203-8.156s5.296-3.847 8.156-2.203l18.167 10.488c2.86 1.644 3.847 5.296 2.203 8.156s-5.296 3.847-8.156 2.203zm187.725 243.08c3.314 0 6 2.686 6 6s-2.686 6-6 6h-14.002v7.471c0 7.408-6.061 13.47-13.47 13.47h-23.09c-7.409 0-13.47-6.062-13.47-13.47v-7.471h-14.001c-3.314 0-6-2.686-6-6s2.686-6 6-6h78.034zm0-27.126c3.314 0 6 2.686 6 6s-2.686 6-6 6h-78.034c-3.314 0-6-2.686-6-6s2.686-6 6-6zm194.394-225.467 20.731-35.907c1.652-2.862 5.334-3.848 8.196-2.196l53.931 31.137c2.862 1.652 3.848 5.334 2.196 8.196l-20.731 35.907zm-111.632-167.721c8.267 2.244 16.107 5.527 23.373 9.694l15.846-12.093c2.394-1.827 5.588-1.846 8.004-.048 9.649 7.182 18.211 15.745 25.394 25.394 1.799 2.416 1.779 5.61-.048 8.004l-12.087 15.838c4.17 7.269 7.45 15.112 9.696 23.382l19.742 2.652c2.985.401 5.258 2.647 5.694 5.627 1.738 11.887 1.738 24.02 0 35.907-.436 2.981-2.709 5.227-5.694 5.628l-19.745 2.652c-2.245 8.268-5.527 16.108-9.695 23.376l12.092 15.844c1.827 2.394 1.846 5.588.048 8.004-7.183 9.65-15.746 18.211-25.395 25.394-2.416 1.798-5.609 1.779-8.004-.048l-15.845-12.092c-7.267 4.167-15.107 7.449-23.375 9.693l-2.653 19.748c-.401 2.985-2.647 5.258-5.627 5.694-11.887 1.738-24.02 1.737-35.907 0-2.98-.436-5.226-2.708-5.628-5.694l-2.653-19.747c-8.267-2.244-16.107-5.529-23.374-9.694l-15.846 12.093c-2.394 1.827-5.588 1.846-8.003.048-9.65-7.182-18.212-15.745-25.394-25.394-1.798-2.416-1.779-5.61.048-8.004l12.087-15.838c-4.17-7.269-7.451-15.112-9.696-23.382l-19.741-2.652c-2.986-.401-5.258-2.648-5.694-5.628-1.738-11.887-1.737-24.019 0-35.906.436-2.981 2.708-5.227 5.694-5.628l19.745-2.652c2.245-8.268 5.528-16.108 9.695-23.376l-12.091-15.844c-1.827-2.394-1.846-5.588-.048-8.004 7.182-9.65 15.745-18.211 25.395-25.394 2.416-1.798 5.61-1.779 8.004.048l15.845 12.092c7.266-4.167 15.106-7.449 23.374-9.694l2.653-19.748c.401-2.985 2.647-5.258 5.627-5.694 11.887-1.738 24.02-1.738 35.907 0 2.98.436 5.226 2.708 5.628 5.694l2.653 19.748zm-160.796 374.687h18.18v-104.007h-14.875c-14.794 0-26.875-12.081-26.875-26.875s12.081-26.875 26.875-26.875 26.875 12.081 26.875 26.875v14.875h16.239v-14.875c0-14.794 12.081-26.875 26.875-26.875s26.875 12.081 26.875 26.875-12.081 26.875-26.875 26.875h-14.875v104.007h19.615c3.249-9.707 11.693-39.498 19.113-57.387 13.258-31.965 37.945-33.113 37.945-83.53 0-.741-.012-1.479-.028-2.216-6.753.025-13.507-.452-20.191-1.429-8.279-1.21-14.671-7.678-15.785-15.97l-1.635-12.17c-3.85-1.354-7.623-2.92-11.301-4.688l-9.764 7.451c-6.649 5.074-15.738 5.128-22.448.135-10.581-7.875-19.981-17.275-27.856-27.856-4.994-6.71-4.94-15.799.135-22.449l7.445-9.756c-1.068-2.222-2.062-4.478-2.98-6.764-49.158 4.224-87.743 45.459-87.743 95.712s24.687 51.564 37.945 83.53c7.42 17.889 15.864 47.68 19.113 57.387zm30.18 0v-104.007h16.239v104.007zm-26.875-116.007c-4.084 0-7.803-1.675-10.501-4.374-9.402-9.402-2.594-25.376 10.501-25.376 8.171 0 14.875 6.704 14.875 14.875v14.875zm55.114 0v-14.875c0-8.171 6.704-14.875 14.875-14.875s14.875 6.705 14.875 14.875-6.705 14.875-14.875 14.875zm76.143-217.796c-30.663 0-55.521 24.857-55.521 55.52s24.858 55.521 55.521 55.521 55.52-24.858 55.52-55.521-24.857-55.52-55.52-55.52zm21.893 327.707 64.323 37.136 109.998-190.523-64.323-37.137-109.998 190.523zm55.19-9.371c-1.644 2.86-5.296 3.847-8.156 2.203s-3.847-5.296-2.203-8.156l74.3-128.692c1.644-2.86 5.296-3.847 8.156-2.203s3.847 5.296 2.203 8.156z" fill="url(#linear-gradient)" fill-rule="evenodd"/></svg>