<svg id="Capa_1" enable-background="new 0 0 512.002 512.002" height="512" viewBox="0 0 512.002 512.002" width="512" xmlns="http://www.w3.org/2000/svg"><g><g><path d="m117.857 398.992-37.114 33.172 30.496 13.489 19.487-20.917z" fill="#32db1f"/><path d="m431.259 79.838c-44.169-43.944-104.766-71.392-171.776-72.313-137.648-1.89-251.311 109.585-251.979 247.244-.281 57.887 19.242 111.199 52.172 153.575l-12.352 12.352c-2.413 2.413-1.036 6.546 2.343 7.029l62.867 8.981c5.467.781 10.153-3.905 9.372-9.372l-8.981-62.867c-.483-3.379-4.615-4.756-7.029-2.343l-7.277 7.277c-1.83 1.83-4.875 1.554-6.346-.576-21.594-31.274-34.467-69.032-35.082-109.766-1.644-108.92 85.59-199.54 194.499-201.847 55.375-1.173 105.728 20.306 142.456 55.797z" fill="#a2e62e"/><g><path d="m419.9 89.991 11.36-10.153c-44.17-43.944-104.768-71.392-171.778-72.313-4.667-.064-9.303.013-13.911.207 69.117 3.053 130.934 34.176 174.329 82.259z" fill="#32db1f"/></g><path d="m431.259 79.838c-10.182-10.13-21.248-19.371-33.053-27.625-9.033.019-17.613 3.949-23.548 10.792-5.942 6.851-8.614 15.933-7.331 24.916l.526 3.686c9.368 6.388 18.164 13.551 26.291 21.404z" fill="#32db1f"/><path d="m454.529 106.537c-1.25-1.657-1.108-3.974.36-5.442l9.789-9.789c2.413-2.413 1.036-6.546-2.343-7.028l-62.867-8.981c-5.467-.781-10.152 3.905-9.371 9.371l8.981 62.868c.483 3.379 4.615 4.756 7.029 2.343l7.277-7.277c1.83-1.83 4.875-1.554 6.346.576 21.593 31.273 34.466 69.028 35.082 109.76 1.647 108.92-85.585 199.542-194.493 201.852-55.376 1.174-105.732-20.305-142.461-55.797l4.049 28.342c.781 5.467-3.905 10.153-9.371 9.372l-31.791-4.542c44.17 43.944 104.766 71.393 171.776 72.313 137.648 1.891 251.311-109.584 251.979-247.243.272-56.585-18.375-108.798-49.971-150.698z" fill="#a2e62e"/><path d="m454.529 106.537c-1.25-1.657-1.108-3.974.36-5.442l9.789-9.789c2.413-2.413 1.036-6.546-2.343-7.028l-19.544-2.792c2.973.825 4.075 4.632 1.797 6.91l-12.699 12.699c-1.467 1.468-1.609 3.785-.36 5.442 31.596 41.9 50.243 94.113 49.969 150.698-.644 132.655-106.22 240.976-237.07 246.986 2.687.123 5.382.22 8.091.257 137.648 1.891 251.311-109.584 251.979-247.243.274-56.585-18.373-108.798-49.969-150.698z" fill="#32db1f"/><path d="m121.906 427.334c.781 5.467-3.905 10.153-9.371 9.372l-31.791-4.542c10.182 10.13 21.247 19.371 33.053 27.625 9.034-.019 17.614-3.949 23.548-10.792 5.942-6.851 8.614-15.932 7.331-24.915l-.527-3.685c-9.368-6.388-18.164-13.551-26.291-21.404z" fill="#32db1f"/><path d="m488.501 322.268h-465c-8.837 0-16-7.163-16-16v-100.533c0-8.837 7.163-16 16-16h465c8.837 0 16 7.163 16 16v100.533c0 8.837-7.164 16-16 16z" fill="#8ac9fe"/><path d="m488.501 189.734h-23c8.837 0 16 7.164 16 16v100.534c0 8.837-7.163 16-16 16h23c8.837 0 16-7.164 16-16v-100.534c0-8.836-7.164-16-16-16z" fill="#60b7ff"/></g><g><path d="m502.53 186.894c-8.334-29.804-21.861-57.551-40.282-82.552l7.733-7.732c3.138-3.139 4.216-7.704 2.812-11.914s-5.005-7.216-9.398-7.843l-28.663-4.095c-47.148-46.009-109.238-71.827-175.147-72.732-61.791-.876-121.899 20.837-169.173 61.068-3.154 2.685-3.536 7.418-.852 10.572 2.684 3.156 7.418 3.538 10.572.852 44.507-37.874 101.075-58.274 159.246-57.494 54.71.752 106.628 19.736 148.572 53.908l-7.421-1.06c-4.965-.709-9.845.918-13.393 4.463-3.547 3.547-5.175 8.429-4.466 13.395l1.187 8.31c-37.513-29.739-83.79-45.387-132.328-44.324-42.53.9-83.152 14.748-117.477 40.044-32.101 23.659-56.442 55.552-70.659 92.476h-36.773c10.229-31.546 27.129-61.101 49.339-86.067 2.753-3.096 2.476-7.836-.618-10.589-3.096-2.753-7.836-2.475-10.589.618-25.734 28.929-44.756 63.667-55.188 100.632-5.796 4.284-9.563 11.163-9.563 18.906v100.533c0 7.706 3.728 14.556 9.475 18.845 8.344 29.839 21.862 57.568 40.277 82.549l-7.732 7.731c-3.138 3.139-4.216 7.704-2.811 11.914 1.403 4.21 5.005 7.216 9.397 7.843l28.661 4.095c47.151 46.01 109.241 71.828 175.147 72.732 1.211.017 2.42.025 3.628.025 56.661 0 110.362-18.28 155.52-52.982 43.838-33.689 76.015-81.128 90.893-133.858 5.786-4.285 9.545-11.158 9.545-18.894v-100.535c0-7.703-3.726-14.552-9.471-18.84zm-105.653 127.874c-4.143 0-7.5 3.358-7.5 7.5 0 4.143 3.357 7.5 7.5 7.5h35.563c-29.124 69.148-97.052 115.928-172.282 117.523-50.571 1.067-98.516-17.368-135.247-51.955l-4.562-31.93c-.627-4.393-3.633-7.994-7.843-9.397-4.21-1.404-8.775-.326-11.914 2.812l-4.403 4.404c-6.562-9.946-12.165-20.484-16.756-31.457h282.443c4.142 0 7.5-3.357 7.5-7.5 0-4.142-3.358-7.5-7.5-7.5h-338.375c-4.687 0-8.5-3.813-8.5-8.5v-100.534c0-4.686 3.813-8.5 8.5-8.5h45.056c.016 0 .032.002.048.002.009 0 .017-.002.026-.002h419.87c4.687 0 8.5 3.814 8.5 8.5v100.533c0 4.687-3.813 8.5-8.5 8.5h-91.624zm.865-231.825c.276-.275.567-.235.665-.222l56.218 8.031-5.041 5.041c-4.076 4.079-4.525 10.639-1.043 15.259 16.337 21.666 28.732 45.564 36.947 71.183h-36.771c-5.853-15.276-13.503-29.83-22.815-43.318-1.969-2.852-5.077-4.667-8.529-4.981-3.45-.312-6.84.91-9.294 3.363l-2.527 2.527-8.031-56.217c-.014-.097-.056-.389.221-.666zm-145.893-18.232c50.603-1.052 98.515 17.371 135.242 51.956l4.561 31.928c.627 4.394 3.632 7.994 7.842 9.398 4.207 1.404 8.775.327 11.916-2.812l4.402-4.402c6.562 9.946 12.165 20.484 16.755 31.456h-353.005c29.124-69.151 97.055-115.93 172.287-117.524zm-186.251 339.032c-17.394-22.385-30.511-47.222-39.086-73.976h36.773c5.853 15.277 13.503 29.832 22.816 43.32 1.97 2.852 5.079 4.667 8.531 4.98 3.45.318 6.839-.913 9.291-3.363l2.527-2.528 8.031 56.217c.014.097.056.389-.222.666-.276.276-.568.234-.665.222l-56.218-8.031 7.603-7.602c2.673-2.673 2.939-6.919.619-9.905zm190.379 93.258c-1.116 0-2.236-.008-3.355-.022-54.708-.751-106.626-19.735-148.572-53.908l7.425 1.061c.764.109 1.524.163 2.28.163 4.153-.001 8.11-1.627 11.111-4.628 3.546-3.546 5.174-8.427 4.465-13.393l-1.188-8.318c36.352 28.814 80.925 44.38 127.829 44.38 1.499 0 3.001-.016 4.505-.048 42.529-.901 83.151-14.749 117.474-40.045 32.101-23.659 56.441-55.551 70.657-92.475h36.796c-32.017 99.424-124.419 167.233-229.427 167.233z"/><path d="m312.356 221.15c-.025-.068-.053-.138-.081-.205-1.394-3.389-4.661-5.577-8.324-5.577-.003 0-.006 0-.009.001-3.667.003-6.934 2.198-8.323 5.592-.024.057-.046.114-.067.172l-24.883 65.334c-1.475 3.87.469 8.203 4.34 9.678.878.335 1.78.493 2.668.493 3.022 0 5.87-1.84 7.01-4.833l4.357-11.44h29.627l4.31 11.42c1.462 3.875 5.79 5.833 9.665 4.368 3.875-1.462 5.831-5.789 4.368-9.665zm-17.601 44.213 9.168-24.073 9.085 24.073z"/><path d="m461.471 230.67c4.143 0 7.5-3.357 7.5-7.5s-3.357-7.5-7.5-7.5h-27.667c-4.143 0-7.5 3.357-7.5 7.5v65.662c0 4.143 3.357 7.5 7.5 7.5h27.667c4.143 0 7.5-3.357 7.5-7.5s-3.357-7.5-7.5-7.5h-20.167v-17.831h18.127c4.142 0 7.5-3.357 7.5-7.5s-3.358-7.5-7.5-7.5h-18.127v-17.831z"/><path d="m218.575 216.348h-18.213c-1.991 0-3.901.792-5.309 2.201-1.406 1.41-2.195 3.321-2.191 5.312v.052.002 63.194c0 .52.053 1.026.153 1.516.115 1.827.887 3.556 2.193 4.852 1.404 1.395 3.304 2.177 5.283 2.177h.028c.55-.002 13.533-.052 18.718-.142 19.009-.332 32.805-16.948 32.805-39.511.002-23.718-13.448-39.653-33.467-39.653zm.402 64.166c-2.52.044-7.058.079-11.01.103-.024-7.605-.059-19.028-.059-24.686 0-4.726-.019-16.673-.032-24.583h10.699c13.617 0 18.469 12.735 18.469 24.653 0 12.044-5.587 24.295-18.067 24.513z"/><path d="m96.577 215.368c-4.142 0-7.5 3.357-7.5 7.5v45.551c0 3.399-.95 7.779-8.363 11.513-2.243 1.13-4.779 1.703-7.535 1.703-.009 0-.018 0-.027 0-3.078-.004-5.756-.761-8.187-2.314-5.755-3.676-6.934-6.997-6.934-10.854v-45.599c0-4.143-3.357-7.5-7.5-7.5-4.142 0-7.5 3.357-7.5 7.5v45.599c0 9.852 4.533 17.537 13.857 23.493 4.841 3.094 10.306 4.667 16.244 4.675h.048c5.121 0 9.927-1.112 14.282-3.307 13.732-6.916 16.615-17.363 16.615-24.909v-45.551c0-4.142-3.357-7.5-7.5-7.5z"/><path d="m399.726 215.368h-36.596c-4.143 0-7.5 3.357-7.5 7.5s3.357 7.5 7.5 7.5h10.724v58.767c0 4.143 3.357 7.5 7.5 7.5s7.5-3.357 7.5-7.5v-58.767h10.872c4.143 0 7.5-3.357 7.5-7.5s-3.358-7.5-7.5-7.5z"/><path d="m148.162 215.368h-18.452c-4.142 0-7.5 3.357-7.5 7.5v66.267c0 4.143 3.357 7.5 7.5 7.5s7.5-3.357 7.5-7.5v-21.325c3.908-.02 8.42-.041 10.952-.041 14.648 0 26.566-11.753 26.566-26.2 0-14.448-11.918-26.201-26.566-26.201zm0 37.401c-2.515 0-6.971.02-10.865.04-.021-4.018-.041-8.66-.041-11.24 0-2.181-.012-6.998-.023-11.2h10.93c6.27 0 11.566 5.129 11.566 11.2-.001 6.071-5.297 11.2-11.567 11.2z"/></g></g></svg>