<svg id="Layer_1" height="512" viewBox="0 0 64 64" width="512" xmlns="http://www.w3.org/2000/svg" data-name="Layer 1"><g fill="#cfd2d3"><path d="m31 37h2v12h-2z"/><path d="m17 19h-10a1 1 0 0 1 -1-1v-11h2v10h9z"/><path d="m8 34h-2v-8a1 1 0 0 1 1-1h11v2h-10z"/><path d="m57 19h-10v-2h9v-10h2v11a1 1 0 0 1 -1 1z"/><path d="m58 35h-2v-8h-10v-2h11a1 1 0 0 1 1 1z"/></g><circle cx="57" cy="7" fill="#f43b3b" r="4"/><path d="m57 3a4 4 0 0 1 0 8" fill="#db3131"/><circle cx="7" cy="35" fill="#f43b3b" r="4"/><circle cx="57" cy="35" fill="#f43b3b" r="4"/><circle cx="7" cy="7" fill="#f43b3b" r="4"/><path d="m7 3a4 4 0 0 1 0 8" fill="#db3131"/><path d="m7 31a4 4 0 0 1 0 8" fill="#db3131"/><path d="m57 31a4 4 0 0 1 0 8" fill="#db3131"/><path d="m29 47h6a0 0 0 0 1 0 0v11a3 3 0 0 1 -3 3 3 3 0 0 1 -3-3v-11a0 0 0 0 1 0 0z" fill="#71c967"/><path d="m32 47v14a3 3 0 0 0 3-3v-11z" fill="#47b744"/><circle cx="32" cy="21" fill="#f7c23c" r="18"/><path d="m32 3a18 18 0 0 1 0 36" fill="#efaf22"/><circle cx="32" cy="21" fill="#f2f2f2" r="14"/><path d="m32 7a14 14 0 0 1 0 28" fill="#cfd2d3"/><path d="m20.73 29.3a7.48 7.48 0 0 1 6.77-4.3l4.5 2.55 4.5-2.55a7.47 7.47 0 0 1 5.3 2.2 7.3 7.3 0 0 1 1.47 2.1 14 14 0 0 1 -22.54 0" fill="#99aece"/><path d="m43.27 29.3a7.3 7.3 0 0 0 -1.47-2.1 7.47 7.47 0 0 0 -5.3-2.2l-4.5 2.55v7.45a14 14 0 0 0 11.27-5.7z" fill="#758daf"/><circle cx="32" cy="19" fill="#99aece" r="6"/><path d="m32 13a6 6 0 0 1 0 12" fill="#758daf"/></svg>