<svg id="Layer_1" enable-background="new 0 0 512 512" viewBox="0 0 512 512" xmlns="http://www.w3.org/2000/svg" xmlns:xlink="http://www.w3.org/1999/xlink"><linearGradient id="SVGID_1_" gradientUnits="userSpaceOnUse" x1="24.494" x2="414.02" y1="61.233" y2="450.759"><stop offset=".104" stop-color="#f26922"/><stop offset=".8861" stop-color="#febc20"/></linearGradient><path d="m270.5 459.6c0 3.9-3.1 7-7 7h-88.5c-3.9 0-7-3.1-7-7s3.1-7 7-7h88.5c3.9 0 7 3.1 7 7zm179.3-200.1c-.4 2.8-2.4 5.1-5.1 5.8l-19.8 5.5c-1.3 3.8-2.8 7.5-4.5 11l10.1 17.9c1.4 2.4 1.2 5.5-.5 7.7-11.1 14.5-18.8 22.2-33.3 33.3-2.2 1.7-5.3 1.9-7.7.5l-10.8-6.1v133.6c0 23.9-19.4 43.3-43.3 43.3h-231.3c-23.9 0-43.3-19.4-43.3-43.3v-127c0-3.9 3.1-7 7-7s7 3.1 7 7v65.6h289.9v-73.1c-1.3.5-2.7 1-4.1 1.5l-5.5 19.8c-.8 2.7-3 4.7-5.8 5.1-9.2 1.2-16.4 1.9-23.5 1.9s-14.3-.6-23.5-1.9c-2.8-.4-5.1-2.4-5.8-5.1l-5.5-19.8c-3.7-1.3-7.4-2.8-11-4.6l-17.9 10.1c-2.4 1.4-5.5 1.2-7.7-.5-14.1-10.7-22.5-19.1-33.3-33.3-1.7-2.2-1.9-5.3-.5-7.7l10.1-17.9c-1.7-3.6-3.3-7.3-4.5-11l-19.8-5.5c-2.7-.7-4.7-3-5.1-5.8-2.5-18.5-2.5-28.6 0-47.1.4-2.8 2.4-5.1 5.1-5.8l19.8-5.5c1.3-3.7 2.8-7.4 4.6-11l-10.3-17.9c-1.4-2.4-1.2-5.5.5-7.7 10.8-14.1 19.2-22.5 33.3-33.3 2.2-1.7 5.3-1.9 7.7-.5l17.9 10.1c3.6-1.7 7.2-3.3 11-4.6l5.5-19.8c.8-2.7 3-4.7 5.8-5.1 17.8-2.4 29.2-2.4 47.1 0 2.8.4 5.1 2.4 5.8 5.1l5.5 19.8c1.4.5 2.7 1 4.1 1.5v-94.4c0-16.2-13.2-29.3-29.3-29.3h-32.1v15.7c0 14.1-11.5 25.7-25.7 25.7h-115.7c-14.1 0-25.7-11.5-25.7-25.7v-15.7h-32.1c-16.2 0-29.3 13.1-29.3 29.3v243c0 3.9-3.1 7-7 7s-7-3.1-7-7v-243c0-23.9 19.5-43.3 43.3-43.3h231.2c23.9 0 43.3 19.4 43.3 43.3v93.5l10.8-6.1c2.4-1.4 5.5-1.2 7.7.5 14.5 11.1 22.2 18.8 33.3 33.3 1.7 2.2 1.9 5.3.5 7.7l-10.1 17.9c1.7 3.5 3.2 7.3 4.5 11l19.8 5.5c2.7.8 4.7 3 5.1 5.8 2.6 18.5 2.6 28.6.1 47.1zm-161-245.5h-139.1v15.7c0 6.4 5.2 11.6 11.7 11.6h115.8c6.4 0 11.7-5.2 11.7-11.6v-15.7zm75.4 454.7v-47.4h-289.9v47.4c0 16.2 13.1 29.3 29.3 29.3h231.2c16.2 0 29.4-13.2 29.4-29.3zm72.3-249.9-18.9-5.2c-2.3-.6-4.1-2.4-4.8-4.7-1.6-5.3-4-10.9-6.5-15.7-1.1-2.1-1.1-4.6.1-6.7l9.6-17.1c-7.9-10-14.2-16.3-24.2-24.2l-17.1 9.7c-2.1 1.2-4.6 1.2-6.7.1-5-2.7-10.3-4.9-15.7-6.5-2.3-.7-4-2.5-4.7-4.8l-5.2-18.9c-12.6-1.5-21.7-1.5-34.2 0l-5.3 18.9c-.6 2.3-2.4 4.1-4.7 4.8-5.4 1.7-10.7 3.9-15.7 6.5-2.1 1.1-4.6 1.1-6.7-.1l-17.1-9.7c-9.8 7.8-16.4 14.4-24.2 24.2l9.7 17.1c1.2 2.1 1.2 4.6.1 6.7-2.6 5-4.8 10.3-6.5 15.7-.7 2.3-2.5 4-4.8 4.7l-18.9 5.2c-1.5 12.9-1.5 21.3 0 34.2l18.9 5.2c2.3.6 4.1 2.4 4.8 4.7 1.6 5.4 3.8 10.7 6.5 15.7 1.1 2.1 1.1 4.6-.1 6.7l-9.7 17.1c7.8 9.8 14.4 16.4 24.2 24.2l17.1-9.7c2.1-1.2 4.6-1.2 6.7-.1 5.2 2.7 10.3 4.9 15.7 6.5 2.3.7 4 2.5 4.7 4.8l5.3 18.9c12.9 1.5 21.3 1.5 34.2 0l5.2-18.9c.6-2.3 2.4-4.1 4.7-4.8 5.5-1.7 10.8-3.9 15.7-6.5 2.1-1.1 4.7-1.1 6.7.1l17.1 9.7c10-7.9 16.3-14.2 24.2-24.2l-9.6-17.1c-1.2-2.1-1.2-4.6-.1-6.7 2.6-4.9 4.8-10.2 6.5-15.7.7-2.3 2.5-4 4.8-4.7l18.9-5.3c1.6-12.7 1.6-21.1 0-34.1zm-47.6 17.2c0 35.1-28.6 63.7-63.7 63.7s-63.7-28.6-63.7-63.7 28.6-63.7 63.7-63.7 63.7 28.6 63.7 63.7zm-14 0c0-27.4-22.3-49.7-49.7-49.7s-49.7 22.3-49.7 49.7 22.3 49.7 49.7 49.7 49.7-22.3 49.7-49.7z" fill="url(#SVGID_1_)"/></svg>