<svg height="512" viewBox="0 0 24 24" width="512" xmlns="http://www.w3.org/2000/svg"><g id="Layer_2" data-name="Layer 2"><path d="m8 19a7 7 0 0 1 0-14 6.79 6.79 0 0 1 2.93.65l1.94.92-1.95.89a5 5 0 0 0 0 9.08l1.95.89-1.94.92a6.79 6.79 0 0 1 -2.93.65zm0-12a5 5 0 1 0 .1 10 7 7 0 0 1 0-10z" fill="#6ca4ff"/><g fill="#0554f1"><path d="m13 19a6.79 6.79 0 0 1 -2.93-.65 7 7 0 1 1 5.85 0 6.85 6.85 0 0 1 -2.92.65zm0-12a4.78 4.78 0 0 0 -2.07.45 5 5 0 1 0 4.15 0 4.72 4.72 0 0 0 -2.08-.45z"/><rect height="2" rx="1" width="4" x="19" y="11"/><rect height="2" rx="1" transform="matrix(.707 -.707 .707 .707 1.03 14.49)" width="4" x="16" y="5"/><rect height="4" rx="1" width="2" x="12" y="2"/><rect height="4" rx="1" width="2" x="12" y="18"/><rect height="4" rx="1" transform="matrix(.707 -.707 .707 .707 -7.46 18)" width="2" x="17" y="16"/></g></g></svg>