<svg id="Layer_1" height="512" viewBox="0 0 512 512" width="512" xmlns="http://www.w3.org/2000/svg" data-name="Layer 1"><g><g><path d="m341.165 393.394-171.611 2.201-38.127 65.425c-1.675 2.874.59 6.026 3.463 6.026h242.22c2.873 0 5.138-3.152 3.463-6.026z" fill="#003748" fill-rule="evenodd"/><path d="m341.165 393.394-19.852.255 39.26 67.371c1.675 2.875-.59 6.026-3.463 6.026h20c2.873 0 5.138-3.152 3.463-6.026z" fill="#00242f" fill-rule="evenodd"/><path d="m34.789 44.954h442.421c14.234 0 25.79 11.556 25.79 25.79v300.45c0 14.234-11.556 25.789-25.789 25.789h-442.422c-14.234 0-25.79-11.556-25.79-25.79v-300.449c0-14.234 11.556-25.79 25.79-25.79z" fill="#e6f8ff"/><g fill-rule="evenodd"><path d="m477.21 44.954c14.184 0 25.79 11.606 25.79 25.79v300.45c0 14.184-11.607 25.79-25.79 25.79h-30c14.182 0 25.79-11.606 25.79-25.79v-300.45c0-14.184-11.606-25.79-25.79-25.79z" fill="#d0f1ff"/><path d="m503 363.802h-494v17.393c0 14.185 11.606 25.79 25.789 25.79h442.422c14.184 0 25.789-11.604 25.789-25.79z" fill="#004960"/><path d="m503 363.802h-30v17.393c0 14.185-11.606 25.79-25.789 25.79h30c14.184 0 25.789-11.604 25.789-25.79z" fill="#003748"/></g></g><g fill-rule="evenodd"><path d="m194.057 212.713c-15.734 20.755-40.655 34.162-68.71 34.162-46.141 0-83.812-36.263-86.069-81.843-.052-1.055.719-1.964 1.768-2.086 1.065-.123 2.035.614 2.203 1.673 6.54 41.109 42.151 72.529 85.101 72.529 24.687 0 46.948-10.382 62.658-27.017.734-.778 1.95-.841 2.76-.142.8.691.927 1.881.288 2.723zm-73.936-105.35v5.083c0 .998-.719 1.831-1.706 1.978-9.895 1.47-18.779 6.038-25.635 12.685-.741.719-1.896.758-2.684.091-.787-.666-.941-1.808-.358-2.658 6.498-9.472 16.392-16.433 27.927-19.127.615-.144 1.203-.011 1.698.381s.757.935.757 1.567z" fill="#42a5f5"/><path d="m210.099 176.37c-7.369 40.111-42.51 70.505-84.752 70.505-47.593 0-86.176-38.582-86.176-86.176 0-45.102 34.65-82.105 78.781-85.856.578-.049 1.095.127 1.522.52.428.393.647.892.647 1.473v35.61c0 .998-.719 1.831-1.706 1.978-22.553 3.35-39.857 22.79-39.857 46.276 0 25.841 20.948 46.789 46.789 46.789 20.712 0 38.278-13.459 44.436-32.108.275-.833 1.021-1.373 1.899-1.373h36.45c.615 0 1.144.248 1.537.721.393.472.542 1.037.431 1.641z" fill="#64b5f6"/><path d="m156.574 126.325c3.473 3.18 6.476 6.866 8.892 10.94.371.624.994.98 1.72.98h39.474c.656 0 1.219-.285 1.609-.812.389-.527.495-1.15.302-1.776-7.678-24.925-26.103-45.14-49.865-55.237-.637-.27-1.309-.209-1.886.173s-.897.977-.897 1.668v42.59c0 .581.22 1.082.649 1.475z" fill="#ffda2d"/><path d="m200.337 138.245h6.323c.656 0 1.22-.285 1.609-.812s.495-1.15.302-1.776c-7.678-24.925-26.103-45.14-49.865-55.237-.637-.27-1.309-.209-1.886.173s-.897.977-.897 1.668v6.862c0 .765.398 1.42 1.076 1.773 18.816 9.796 33.658 26.173 41.475 46.08.307.781 1.022 1.269 1.861 1.269z" fill="#ffc700"/></g><g><rect fill="#72d561" height="85.896" rx="2" width="29.004" x="358.904" y="215.844"/><path d="m360.904 215.844h6c1.102 0 2 .898 2 2v71.896c0 1.101.898 2 2 2h15.004c1.102 0 2 .898 2 2v6c0 1.102-.898 2-2 2h-25.004c-1.101 0-2-.898-2-2v-81.896c0-1.102.898-2 2-2z" fill="#42c345" fill-rule="evenodd"/><rect fill="#64b5f6" height="55.349" rx="2" width="29.003" x="417.372" y="246.391"/><path d="m419.372 246.391h6c1.102 0 2 .898 2 2v41.349c0 1.101.898 2 2 2h15.004c1.102 0 2 .898 2 2v6c0 1.102-.898 2-2 2h-25.004c-1.101 0-2-.898-2-2v-51.349c0-1.101.898-2 2-2z" fill="#42a5f5" fill-rule="evenodd"/><rect fill="#ffda2d" height="118.429" rx="2" width="29.004" x="300.435" y="183.312"/><g fill-rule="evenodd"><path d="m302.435 183.312h6c1.101 0 2 .898 2 2v104.429c0 1.101.898 2 2 2h15.004c1.101 0 2 .898 2 2v6c0 1.102-.898 2-2 2h-25.004c-1.102 0-2-.898-2-2v-114.429c0-1.102.898-2 2-2z" fill="#ffc700"/><path d="m431.874 221.552c8.35 0 15.161-6.811 15.161-15.161s-6.811-15.161-15.161-15.161-15.161 6.811-15.161 15.161 6.811 15.161 15.161 15.161z" fill="#64b5f6"/><path d="m447.034 206.483c-.05 8.33-6.817 15.069-15.16 15.069s-15.161-6.788-15.161-15.161c0-2.581.646-5.011 1.783-7.138v.092c-.001 8.373 6.787 15.161 15.16 15.161 5.792 0 10.825-3.249 13.378-8.023z" fill="#42a5f5"/><path d="m374.048 186.343c8.35 0 15.161-6.811 15.161-15.161s-6.81-15.161-15.161-15.161-15.161 6.81-15.161 15.161 6.811 15.161 15.161 15.161z" fill="#72d561"/><path d="m384.415 182.242c-2.712 2.543-6.357 4.101-10.368 4.101-8.373 0-15.161-6.788-15.161-15.161 0-7.796 5.886-14.217 13.456-15.065-2.95 2.766-4.793 6.698-4.793 11.06 0 8.373 6.788 15.161 15.161 15.161.576 0 1.145-.033 1.705-.096z" fill="#42c345"/></g></g></g><path d="m185.112 282.011c0 4.419-3.584 8.009-8.018 8.009h-104.516c-4.433 0-8.018-3.589-8.018-8.009s3.584-8.008 8.018-8.008h104.516c4.433 0 8.018 3.58 8.018 8.008zm0 33.671c0 4.428-3.584 8.008-8.018 8.008h-104.516c-4.433 0-8.018-3.58-8.018-8.008s3.584-7.999 8.018-7.999h104.516c4.433 0 8.018 3.58 8.018 7.999zm-20.8-222.743c14.621 8.423 26.176 21.412 32.874 36.892h-26.553c-1.887-2.731-3.962-5.282-6.32-7.65v-29.242zm-13.3 38.679c3.302 2.934 6.084 6.344 8.159 10.121 1.415 2.542 4.103 4.113 7.028 4.113h42.259c2.499 0 4.858-1.174 6.367-3.16 1.509-1.99 2.028-4.575 1.368-6.98-7.876-28.69-29.194-52.211-57.022-62.922-2.452-.948-5.235-.618-7.405.873-2.17 1.5-3.443 3.967-3.443 6.608v45.348c0 2.292.943 4.481 2.688 5.999zm-38.91-47.966c-37.024 6.329-64.898 38.665-64.898 77.057 0 43.104 35.043 78.17 78.151 78.17 34.996 0 65.794-23.87 75.227-56.857h-24.714c-8.49 19.969-28.487 33.468-50.513 33.468-30.232 0-54.805-24.573-54.805-54.782 0-25.511 17.451-47.24 41.552-53.196v-23.861zm13.253 171.239c22.592 0 44.476-8.131 61.549-22.912 16.932-14.616 28.11-34.77 31.506-56.739.377-2.311-.283-4.669-1.839-6.438-1.509-1.783-3.726-2.801-6.084-2.801h-40.278c-3.537 0-6.65 2.33-7.641 5.73-4.858 16.338-20.139 27.752-37.213 27.752-21.365 0-38.769-17.394-38.769-38.774 0-19.79 14.762-36.359 34.43-38.547 4.056-.462 7.122-3.882 7.122-7.961v-39.519c0-2.212-.943-4.32-2.547-5.829-1.604-1.514-3.726-2.302-5.943-2.16-49.617 2.99-88.48 44.287-88.48 94.017 0 51.933 42.259 94.182 94.187 94.182zm255.866-83.721c0 3.948-3.254 7.159-7.169 7.159-3.962 0-7.122-3.212-7.122-7.159s3.16-7.131 7.122-7.131c3.915 0 7.169 3.203 7.169 7.131zm50.654 28.082c3.962 0 7.169 3.198 7.169 7.127 0 3.952-3.207 7.16-7.169 7.16-3.915 0-7.122-3.207-7.122-7.16 0-3.929 3.207-7.127 7.122-7.127zm-118.004-36.901c.849 3.698 4.15 6.197 7.829 6.197.566 0 1.179-.057 1.792-.207 4.292-.99 6.98-5.301 5.99-9.598l-1.603-6.98 23.488 14.697c-.283 1.523-.472 3.103-.472 4.712 0 12.781 10.376 23.181 23.158 23.181 5.33 0 10.235-1.82 14.149-4.872l20.847 13.022c-.189 1.26-.33 2.556-.33 3.877 0 12.782 10.376 23.172 23.158 23.172s23.158-10.39 23.158-23.172-10.376-23.148-23.158-23.148c-5.66 0-10.801 2.028-14.809 5.382l-20.328-12.702c.33-1.528.471-3.108.471-4.74 0-12.758-10.376-23.139-23.158-23.139-5.329 0-10.235 1.811-14.149 4.849l-23.582-14.73 7.027-1.641c4.292-1 6.98-5.311 5.99-9.607-.99-4.311-5.329-6.99-9.621-5.99l-25.846 6.009c-4.292 1-6.98 5.301-5.943 9.608l5.943 25.823zm-5.425 28.958h13.018v102.422h-13.018zm-7.97 118.43c-4.433 0-8.018-3.58-8.018-7.999v-118.43c0-4.428 3.584-8.008 8.018-8.008h28.959c4.433 0 8.018 3.58 8.018 8.008v118.43c0 4.419-3.584 7.999-8.018 7.999zm137.908-16.008h-13.017v-39.321h13.017zm-20.988-55.328c-4.433 0-8.018 3.58-8.018 7.999v55.338c0 4.419 3.584 7.999 8.018 7.999h29.006c4.386 0 7.971-3.58 7.971-7.999v-55.338c0-4.419-3.584-7.999-7.971-7.999zm-37.495 55.328h-12.97v-69.883h12.97zm-20.988-85.891h29.006c4.434 0 7.971 3.58 7.971 8.008v85.891c0 4.419-3.537 7.999-7.971 7.999h-29.006c-4.434 0-8.018-3.58-8.018-7.999v-85.891c0-4.428 3.584-8.008 8.018-8.008zm-107.064 123.458c0 4.433 3.585 8.013 8.018 8.013h219.55c4.433 0 8.018-3.58 8.018-8.013s-3.584-8.008-8.018-8.008h-211.532v-168.9c0-4.419-3.584-8.008-8.018-8.008s-8.018 3.589-8.018 8.008v176.908zm225.399 67.681h-442.449c-9.81 0-17.781-7.976-17.781-17.786v-9.372h478.01v9.372c0 9.81-8.018 17.786-17.781 17.786zm-107.063 60.073h-228.37l25.704-44.061h176.96l25.705 44.061zm-335.386-406.099c-9.81 0-17.781 7.976-17.781 17.791v285.066h478.01v-285.067c0-9.815-8.018-17.791-17.781-17.791h-442.448zm442.449-16.012h-442.449c-18.629 0-33.816 15.158-33.816 33.802v310.45c0 18.639 15.187 33.798 33.817 33.798h114.185l-24.478 42.019c-2.217 3.773-2.217 8.263-.047 11.994 2.122 3.735 6.131 6.056 10.423 6.056h242.236c4.292 0 8.301-2.321 10.471-6.07 2.122-3.726 2.122-8.207-.094-12.008l-24.478-41.99h114.232c18.63 0 33.77-15.159 33.77-33.798v-310.451c0-18.644-15.14-33.803-33.77-33.803z" fill-rule="evenodd"/></svg>