<svg id="Layer_1" height="512" viewBox="0 0 512 512" width="512" xmlns="http://www.w3.org/2000/svg" data-name="Layer 1"><path d="m218.416 76.18c3.168-38.794 36.971-67.81 75.797-65.065s68.209 36.23 65.887 75.083c37.075 0 67.409 30.334 67.409 67.409s-30.334 67.41-67.409 67.41h-220.111c-26.837-.211-48.48-22.026-48.48-48.864s21.644-48.652 48.48-48.864c-6.528-25.876 10.405-52.994 34.577-58.702 14.627-3.454 31.6.472 43.849 11.592z" fill="#2a93fc" fill-rule="evenodd"/><path d="m360.1 86.198c37.075 0 67.409 30.334 67.409 67.409s-30.334 67.409-67.409 67.409h-196.711c-26.836-.211-48.48-22.026-48.48-48.863s21.644-48.652 48.48-48.864c-7.61-48.905 48.375-58.978 66.341-31.167 9.719-89.173 124.94-84.142 130.37-5.925z" fill="#5caeff" fill-rule="evenodd"/><path d="m361.079 274.703h-133.186l-8.204-14.21c-3.4-5.89-9.239-9.261-16.04-9.261h-52.582c-10.202 0-18.522 8.32-18.522 18.522v139.011h247.057v-115.54c0-10.202-8.32-18.522-18.522-18.522z" fill="#e37500" fill-rule="evenodd"/><path d="m279.246 337.63 5.64-9.769c5.936-10.281 16.461-16.357 28.332-16.357h61.833c1.544 0 3.063.11 4.55.318v96.943h-247.057v-70.817c1.488-.208 3.006-.318 4.55-.318h142.151z" fill="#c45b00" fill-rule="evenodd"/><path d="m157.015 295.847h198.035c1.509 0 2.733 1.225 2.733 2.733v125.3c0 1.509-1.225 2.733-2.733 2.733h-198.035c-1.509 0-2.734-1.225-2.734-2.734v-125.3c0-1.509 1.225-2.734 2.734-2.734z" fill="#e9e9ff"/><g fill-rule="evenodd"><path d="m450.796 348.768h24.141c3.733 0 6.777-3.045 6.777-6.777v-88.253h15.251c1.323 0 2.457-.706 3.041-1.893.584-1.188.451-2.516-.357-3.564l-34.099-44.251c-.663-.86-1.598-1.32-2.684-1.32s-2.021.46-2.684 1.32l-34.099 44.251c-.808 1.048-.941 2.377-.357 3.564s1.717 1.893 3.041 1.893h15.251v88.253c0 3.731 3.045 6.777 6.778 6.777z" fill="#29b933"/><path d="m460.775 348.768h14.162c3.733 0 6.777-3.045 6.777-6.777v-88.253h15.251c1.324 0 2.457-.706 3.041-1.893s.451-2.516-.357-3.564l-31.794-41.26-31.794 41.26c-.808 1.048-.941 2.377-.357 3.564s1.717 1.893 3.041 1.893h15.252v88.253c0 3.731 3.045 6.777 6.778 6.777z" fill="#2dd62d"/><path d="m137.095 351.823h150.345l9.737-16.865c3.4-5.89 9.239-9.261 16.04-9.261h61.834c10.201 0 18.522 8.321 18.522 18.522v138.307c0 10.201-8.32 18.522-18.522 18.522h-237.956c-10.202 0-18.522-8.321-18.522-18.522v-112.181c0-10.201 8.32-18.521 18.522-18.521z" fill="#e68207"/><path d="m154.446 351.823h150.346l9.737-16.865c3.401-5.89 9.24-9.261 16.04-9.261h44.482c10.201 0 18.522 8.321 18.522 18.522v138.307c0 10.201-8.32 18.522-18.522 18.522h-220.605c-10.201 0-18.522-8.321-18.522-18.522v-112.181c0-10.201 8.321-18.522 18.522-18.522z" fill="#fda02f"/><path d="m37.127 348.767h24.141c3.733 0 6.777-3.045 6.777-6.777v-88.253h15.251c1.323 0 2.457-.706 3.041-1.893.584-1.188.451-2.516-.357-3.564l-34.099-44.251c-.663-.86-1.598-1.32-2.684-1.32s-2.021.46-2.684 1.32l-34.099 44.251c-.808 1.048-.941 2.376-.357 3.564.584 1.187 1.717 1.893 3.041 1.893h15.251v88.253c0 3.731 3.045 6.777 6.778 6.777z" fill="#29b933"/><path d="m47.106 348.767h14.162c3.733 0 6.777-3.045 6.777-6.777v-88.253h15.251c1.324 0 2.457-.706 3.041-1.893s.451-2.516-.357-3.564l-31.794-41.26-31.794 41.26c-.808 1.048-.941 2.377-.357 3.564s1.718 1.893 3.041 1.893h15.252v88.253c0 3.731 3.045 6.777 6.778 6.777z" fill="#2dd62d"/><path d="m68.001 247.737c-3.312 0-5.999 2.682-5.999 6.001v88.28c0 .421-.355.77-.774.77h-24.126c-.419 0-.774-.35-.774-.77v-88.28c0-3.32-2.685-6.001-5.999-6.001h-9.929l28.765-37.33 28.765 37.33zm-11.401-47.338c-1.79-2.33-4.499-3.66-7.434-3.66h-.002c-2.934 0-5.644 1.33-7.435 3.66l-34.077 44.22c-2.201 2.86-2.583 6.639-.992 9.869 1.591 3.24 4.819 5.251 8.427 5.251h9.24v82.279c0 7.039 5.731 12.77 12.774 12.77h24.126c7.043 0 12.774-5.731 12.774-12.77v-82.279h9.243c3.606 0 6.836-2.012 8.425-5.251 1.591-3.23 1.211-7.01-.99-9.869zm425.07 47.338c-3.312 0-5.999 2.682-5.999 6.001v88.28c0 .421-.354.77-.772.77h-24.127c-.42 0-.774-.35-.774-.77v-88.28c0-3.32-2.685-6.001-5.999-6.001h-9.929l28.765-37.33 28.766 37.33h-9.932zm22.679-3.118-34.078-44.22c-1.792-2.33-4.503-3.66-7.437-3.66s-5.644 1.33-7.434 3.66l-34.079 44.22c-2.201 2.86-2.581 6.639-.992 9.869 1.591 3.24 4.819 5.251 8.427 5.251h9.242v82.279c0 7.039 5.731 12.77 12.774 12.77h24.127c7.043 0 12.773-5.731 12.773-12.77v-82.279h9.241c3.606 0 6.836-2.012 8.427-5.251 1.591-3.23 1.21-7.01-.991-9.869zm-116.893 237.87c0 6.899-5.616 12.51-12.516 12.51h-237.881c-6.901 0-12.515-5.61-12.515-12.51v-112.15c0-6.901 5.614-12.521 12.515-12.521h150.297c2.145 0 4.125-1.14 5.197-3l9.734-16.851c2.329-4.039 6.181-6.259 10.839-6.259h61.815c6.899 0 12.516 5.61 12.516 12.509v138.271zm-35.706-162.78v-17.829h-191.5v43.939h123.643l8.001-13.85c4.5-7.791 12.238-12.261 21.231-12.261h38.625zm-200.724-62.44c-6.9 0-12.515 5.61-12.515 12.51v76.041h9.737v-47.211c0-4.819 3.919-8.729 8.734-8.729h198.035c4.815 0 8.732 3.909 8.732 8.729v21.101h9.739v-26.47c0-6.899-5.615-12.51-12.517-12.51h-133.141c-2.143 0-4.125-1.14-5.197-2.999l-8.202-14.21c-2.328-4.03-6.178-6.25-10.839-6.25h-52.565zm234.463 64.83v-28.86c0-13.508-10.999-24.509-24.517-24.509h-129.679l-6.468-11.211c-4.499-7.789-12.236-12.249-21.233-12.249h-52.565c-13.516 0-24.515 10.989-24.515 24.509v78.432c-8.252 3.948-13.967 12.389-13.967 22.129v112.15c0 13.509 10.996 24.51 24.515 24.51h237.881c13.518 0 24.515-11.001 24.515-24.51v-138.271c0-9.739-5.714-18.169-13.967-22.12zm-39.76-247.54c.446 3.29-1.852 6.312-5.136 6.76-.274.041-.547.061-.817.061-2.954 0-5.528-2.19-5.937-5.201-1.719-12.61-8.234-23.579-18.339-30.89-10.642-7.691-24.353-10.48-38.612-7.839-3.26.608-6.39-1.55-6.992-4.81-.603-3.259 1.55-6.394 4.808-6.989 17.519-3.239 34.506.276 47.828 9.917 12.792 9.25 21.032 23.101 23.198 38.99zm14.262 140.451h-219.988c-23.44-.18-42.51-19.4-42.51-42.851s19.071-42.661 42.51-42.839c1.842-.021 3.574-.88 4.7-2.332 1.126-1.459 1.522-3.35 1.07-5.139-2.713-10.749-.808-22.619 5.227-32.55 5.833-9.599 14.908-16.46 24.9-18.819 3.044-.72 6.161-1.07 9.285-1.07 10.532 0 21.124 3.98 29.137 11.26 1.693 1.53 4.112 1.971 6.237 1.141 2.127-.841 3.59-2.821 3.776-5.101 2.886-35.329 33.999-62.071 69.37-59.537 35.361 2.496 62.412 33.318 60.297 68.707-.098 1.65.489 3.27 1.623 4.469 1.133 1.211 2.713 1.891 4.367 1.891 33.849 0 61.387 27.54 61.387 61.389s-27.539 61.381-61.387 61.381zm6.116-134.521c37.615 3.12 67.271 34.73 67.271 73.14 0 40.461-32.922 73.382-73.387 73.382h-220.034c-30.052-.24-54.463-24.841-54.463-54.851 0-27.62 20.693-50.67 47.395-54.341-1.303-11.84 1.434-24.18 7.856-34.749 7.491-12.331 19.299-21.18 32.399-24.269 13.717-3.242 28.57-.681 40.761 6.669 3.541-16.259 12.227-30.87 25.062-41.89 15.487-13.3 35.215-19.83 55.584-18.378 20.359 1.439 38.984 10.675 52.445 26.017 12.112 13.801 18.784 31.101 19.113 49.27z"/></g></svg>