<svg id="Layer_1" enable-background="new 0 0 512 512" height="512" viewBox="0 0 512 512" width="512" xmlns="http://www.w3.org/2000/svg"><g><g clip-rule="evenodd" fill-rule="evenodd"><path d="m208.962 407.825h94.077v43.891h-94.077z" fill="#445ea0"/><path d="m208.962 407.825h38.033v43.891h-38.033z" fill="#2e4c89"/><path d="m488.102 23.446h-464.204c-13.144 0-23.898 10.754-23.898 23.927v340.051c0 13.144 10.754 23.898 23.898 23.898h464.204c13.144 0 23.898-10.754 23.898-23.898v-340.051c0-13.173-10.754-23.927-23.898-23.927z" fill="#445ea0"/><path d="m33.923 57.399h444.153v320h-444.153z" fill="#70c1f9"/><path d="m133.8 503.942v-27.862c0-15.33 12.532-27.861 27.861-27.861h188.678c15.33 0 27.861 12.532 27.861 27.861v27.862z" fill="#293d7c"/><path d="m67.147 8.058h377.705v369.34h-377.705z" fill="#e9e9ff"/><path d="m67.147 8.058h377.705v49.341h-377.705z" fill="#ed524e"/></g><path d="m101.596 25.515h16.291v14.398h-16.291zm32.436 14.398h16.292v-14.398h-16.292zm32.437-14.398v14.398h16.292v-14.398z" fill="#e9e9ff"/><path clip-rule="evenodd" d="m367.613 252.164h36.416v131.184h-36.416z" fill="#293d7c" fill-rule="evenodd" transform="matrix(.866 -.5 .5 .866 -107.206 235.59)"/><path d="m341.188 73.953c15.388 4.138 29.261 11.133 41.18 20.255 12.357 9.501 22.616 21.304 30.31 34.623 7.665 13.29 12.765 28.066 14.776 43.512 1.982 14.922 1.107 30.426-3.002 45.785-4.139 15.388-11.133 29.26-20.285 41.18-9.472 12.357-21.275 22.616-34.594 30.28l.029.029c-13.289 7.665-28.095 12.765-43.57 14.776-14.892 1.982-30.397 1.107-45.785-3.002-15.388-4.138-29.231-11.133-41.151-20.284-12.357-9.472-22.615-21.275-30.309-34.565-7.665-13.29-12.765-28.095-14.805-43.57-1.952-14.893-1.078-30.397 3.031-45.756 4.139-15.388 11.133-29.26 20.255-41.18 9.501-12.386 21.304-22.645 34.594-30.31 13.289-7.665 28.065-12.765 43.541-14.805 14.921-1.952 30.426-1.078 45.785 3.032z" fill="#2e4c89"/><path d="m217.88 100.066h-116.284v-14.398h116.284zm-48.204 21.07h-68.081v14.398h68.081zm0 35.469h-68.081v14.398h68.081zm0 35.467h-68.081v14.398h68.081zm19.672 35.469h-87.753v14.398h87.753zm0 35.467h-87.753v14.398h87.753zm28.532 35.469h-116.284v14.398h116.284zm-116.284 35.468v14.398h243.527v-14.398z" fill="#cfcfff"/><path d="m373.654 105.632c-10.463-8.015-22.644-14.164-36.167-17.778-13.552-3.643-27.162-4.401-40.219-2.681-13.552 1.778-26.521 6.237-38.208 12.998-11.687 6.732-22.033 15.738-30.368 26.579-8.015 10.463-14.164 22.645-17.778 36.167-3.643 13.552-4.43 27.162-2.71 40.219 1.807 13.552 6.266 26.521 12.998 38.208v.029c6.733 11.628 15.738 22.004 26.608 30.339 10.463 8.015 22.616 14.164 36.168 17.778 13.552 3.643 27.162 4.401 40.219 2.681 13.551-1.778 26.521-6.237 38.208-12.998h.029c11.628-6.703 21.974-15.709 30.339-26.579 8.014-10.463 14.164-22.645 17.777-36.168 3.643-13.552 4.401-27.162 2.681-40.218-1.778-13.581-6.266-26.55-12.998-38.237-6.703-11.629-15.709-22.004-26.579-30.339z" fill="#cfcfff"/><path clip-rule="evenodd" d="m164.109 503.942v-27.862c0-15.33 12.532-27.861 27.862-27.861h188.706c15.33 0 27.862 12.532 27.862 27.861v27.862z" fill="#293d7c" fill-rule="evenodd"/><path clip-rule="evenodd" d="m133.8 503.942v-27.862c0-15.33 12.532-27.861 27.861-27.861h30.31c-15.33 0-27.862 12.532-27.862 27.861v27.862z" fill="#1a2b63" fill-rule="evenodd"/><path clip-rule="evenodd" d="m17.924 24.233c-10.288 2.652-17.924 12.037-17.924 23.14v340.051c0 13.144 10.754 23.898 23.898 23.898h464.204c10.259 0 19.06-6.557 22.441-15.679-1.924.495-3.934.758-6.004.758h-464.204c-13.144 0-23.898-10.754-23.898-23.898v-340.051c0-2.885.525-5.654 1.487-8.219z" fill="#2e4c89" fill-rule="evenodd"/><path clip-rule="evenodd" d="m358.178 324.357 47.184-27.249 60.095 104.102c7.49 12.969 3.002 29.697-9.967 37.187-12.969 7.49-29.727 3.002-37.217-9.967z" fill="#ed524e" fill-rule="evenodd"/><path d="m259.41 219.555h13.349v14.398h-13.349c-2.957 0-5.363 2.419-5.363 5.392v7.199h-14.398v-7.199c0-10.913 8.865-19.79 19.761-19.79zm100.867 0h-10.988v14.398h10.988c2.923 0 5.391 2.469 5.391 5.392v7.199h14.398v-7.199c0-10.913-8.878-19.79-19.789-19.79zm-12.387-25.763v14.398h35.265v-14.398zm-109.581 14.398h35.206v-14.398h-35.206zm49.122-74.034 2.585 6.718 13.436-5.171-2.585-6.718c-4.698-12.207-16.65-20.409-29.742-20.409h-7.199v14.398h7.199c7.18 0 13.732 4.493 16.306 11.182zm46.896-.791c2.815-6.313 9.076-10.392 15.953-10.392h7.199v-14.398h-7.199c-12.552 0-23.975 7.429-29.102 18.926l-2.932 6.574 13.149 5.864zm-74.917 45.361h100.867c10.911 0 19.789-8.878 19.789-19.79v-7.199h-14.398v7.199c0 2.923-2.468 5.392-5.391 5.392h-100.867c-2.957 0-5.363-2.419-5.363-5.392v-7.199h-14.398v7.199c0 10.912 8.865 19.79 19.761 19.79z" fill="#9c3633"/><path d="m271.708 178.725v-18.681c0-10.725 4.372-20.488 11.454-27.541 7.053-7.082 16.816-11.454 27.541-11.454 10.754 0 20.488 4.372 27.57 11.454 7.053 7.053 11.454 16.816 11.454 27.541v18.681z" fill="#c0433f"/><path d="m362.288 164.328v50.827c0 14.193-5.8 27.104-15.155 36.459-9.326 9.326-22.237 15.155-36.43 15.155s-27.075-5.829-36.43-15.155c-9.355-9.355-15.155-22.237-15.155-36.459v-50.827z" fill="#ed524e"/><path d="m317.902 164.328v101.916c-2.361.35-4.751.525-7.198.525-2.448 0-4.838-.175-7.198-.525v-101.916z" fill="#9c3633"/></g></svg>