<svg clip-rule="evenodd" fill-rule="evenodd" image-rendering="optimizeQuality" shape-rendering="geometricPrecision" text-rendering="geometricPrecision" viewBox="0 0 423334 423334" xmlns="http://www.w3.org/2000/svg"><g id="&#x56FE;&#x5C42;_x0020_1"><circle cx="211667" cy="211667" fill="#48b02c" r="211667"/><g id="_104702912" fill="#fff" fill-rule="nonzero"><path id="_104702072" d="m128100 165742h13787c2797 0 5079 2282 5079 5079v2c0 2797-2282 5079-5079 5079h-8707v12911c0 2797-2282 5079-5079 5079h-2c-2797 0-5079-2282-5079-5079v-17991c0-2805 2275-5080 5080-5080zm132433 0h37453c2602 0 4749 1959 5045 4482l7258 38126 18701 21992c806 953 1200 2117 1199 3274h11v36899c0 2805-2275 5080-5080 5080h-197020c-2805 0-5080-2275-5080-5080v-18130c0-2797 2282-5079 5079-5079h2c2797 0 5079 2282 5079 5079v13050h186860v-29968l-18348-21577 1-1c-550-649-944-1444-1112-2340l-6786-35647h-33262c-2797 0-5079-2282-5079-5079v-2c0-2797 2282-5079 5079-5079z"/><path id="_104702048" d="m138407 265435h186713c2805 0 5080 2275 5080 5080v22860c0 2805-2275 5080-5080 5080h-16825c-2805 0-5080-2275-5080-5080l7-268c-164-3465-1662-6590-3992-8874-2387-2339-5673-3783-9308-3783s-6922 1444-9309 3783c-2413 2364-3934 5630-4006 9241-53 2761-2311 4962-5060 4962v19h-79567c-2805 0-5080-2275-5080-5080l7-268c-164-3465-1662-6590-3993-8874-2387-2339-5674-3783-9309-3783s-6921 1444-9308 3783c-2412 2364-3933 5630-4005 9241-53 2761-2311 4962-5060 4962v19h-16825c-2805 0-5080-2275-5080-5080v-22860c0-2805 2275-5080 5080-5080zm181633 10160h-15284c547 448 1073 920 1578 1414 3093 3031 5350 6920 6388 11286h7318zm-44953 0h-86647c547 448 1073 920 1578 1414 3093 3031 5350 6921 6389 11286h70713c1039-4365 3296-8255 6389-11286 505-494 1031-966 1578-1414zm-116316 0h-15284v12700h7318c1038-4366 3295-8255 6388-11286 505-494 1031-966 1578-1414z"/><path id="_104702096" d="m274541 170822v99693h-10160v-99693z"/><g><path id="_101442264" d="m112905 210820c-2805 0-5080-2275-5080-5080s2275-5080 5080-5080h30515c2805 0 5080 2275 5080 5080s-2275 5080-5080 5080z"/><path id="_102186976" d="m105559 225749c-2805 0-5080-2275-5080-5080s2275-5080 5080-5080h37861c2805 0 5080 2275 5080 5080s-2275 5080-5080 5080z"/><path id="_104700200" d="m98214 240677c-2805 0-5080-2275-5080-5080s2275-5080 5080-5080h45206c2805 0 5080 2275 5080 5080s-2275 5080-5080 5080z"/></g><path id="_104702240" d="m173605 270289c6462 0 12322 2628 16568 6872h20c4244 4244 6872 10111 6872 16587s-2628 12343-6872 16587h-20c-4246 4244-10106 6872-16568 6872-6476 0-12343-2628-16587-6872s-6872-10111-6872-16587 2628-12343 6872-16587 10111-6872 16587-6872zm9414 14046c-2406-2400-5735-3886-9414-3886-3671 0-6997 1490-9403 3896s-3896 5732-3896 9403 1490 6997 3896 9403 5732 3896 9403 3896c3679 0 7008-1486 9414-3886l-10-10c2406-2406 3896-5732 3896-9403s-1490-6997-3896-9403z"/><path id="_104703944" d="m289922 270289c6476 0 12343 2628 16587 6872s6872 10111 6872 16587-2628 12343-6872 16587-10111 6872-16587 6872c-6462 0-12322-2628-16568-6872h-20c-4244-4244-6872-10111-6872-16587s2628-12343 6872-16587h20c4246-4244 10106-6872 16568-6872zm9403 14056c-2406-2406-5732-3896-9403-3896-3679 0-7008 1486-9414 3886l10 10c-2406 2406-3896 5732-3896 9403s1490 6997 3896 9403l-10 10c2406 2400 5735 3886 9414 3886 3671 0 6997-1490 9403-3896s3896-5732 3896-9403-1490-6997-3896-9403z"/><path id="_104703632" d="m201854 106127c13090 0 24945 5310 33525 13889 8579 8580 13889 20435 13889 33525s-5309 24944-13889 33525c-8580 8579-20435 13889-33525 13889s-24944-5309-33525-13889c-8580-8581-13889-20435-13889-33525s5310-24945 13889-33525c8581-8580 20435-13889 33525-13889zm26341 21073c-6742-6741-16056-10913-26341-10913s-19600 4172-26341 10913c-6741 6742-10913 16056-10913 26341s4172 19600 10913 26341 16056 10913 26341 10913 19599-4172 26341-10913c6741-6741 10913-16056 10913-26341s-4172-19599-10913-26341z"/><path id="_104701856" d="m209989 138223c1983-1983 5201-1983 7184 0s1983 5201 0 7184l-11727 11726c-1983 1983-5201 1983-7184 0l-16825-16825c-1983-1983-1983-5201 0-7184s5201-1983 7184 0l13233 13233z"/></g></g></svg>