<svg id="Layer_2" height="512" viewBox="0 0 64 64" width="512" xmlns="http://www.w3.org/2000/svg" xmlns:xlink="http://www.w3.org/1999/xlink" data-name="Layer 2"><linearGradient id="linear-gradient" gradientUnits="userSpaceOnUse" x1="44.191" x2="11.809" y1="13.885" y2="69.973"><stop offset="0" stop-color="#ea5a6b"/><stop offset=".1812" stop-color="#b9569b"/><stop offset=".3509" stop-color="#9052c1"/><stop offset=".4385" stop-color="#8151d0"/><stop offset=".4832" stop-color="#7d51d4"/><stop offset=".8058" stop-color="#634fed"/><stop offset="1" stop-color="#5a4ef6"/></linearGradient><path d="m55.7367 56h2.2633a6.0066 6.0066 0 0 0 6-6v-4a14.0157 14.0157 0 0 0 -14-14h-6v-6a6.0066 6.0066 0 0 0 -6-6h-3a2 2 0 0 0 0 4h3a2.0027 2.0027 0 0 1 2 2v26h-11.2633a7.988 7.988 0 0 0 -15.4734 0h-3.2633a2.0023 2.0023 0 0 1 -2-2v-14a2 2 0 0 0 -4 0v14a6.0066 6.0066 0 0 0 6 6h3.2633a7.999 7.999 0 0 0 2.463 4h-13.7263a2 2 0 0 0 0 4h60a2 2 0 0 0 0-4h-8.7263a7.999 7.999 0 0 0 2.463-4zm-5.7367-20a10.0117 10.0117 0 0 1 10 10v4a2.0027 2.0027 0 0 1 -2 2h-2.2633a7.9734 7.9734 0 0 0 -11.7367-4.9174v-11.0826zm2 18a4 4 0 1 1 -4-4 4.0039 4.0039 0 0 1 4 4zm-31-4a4 4 0 1 1 -4 4 4.0042 4.0042 0 0 1 4-4zm5.2737 10a7.999 7.999 0 0 0 2.463-4h11.5266a7.999 7.999 0 0 0 2.463 4zm-10.6658-28.0388a1.9906 1.9906 0 0 0 .7842 0c11.5079-2.3018 15.6079-13.8866 15.6079-23.9612a1.9983 1.9983 0 0 0 -1.2124-1.8378l-14-6a1.9888 1.9888 0 0 0 -1.5752 0l-14 6a1.9983 1.9983 0 0 0 -1.2124 1.8378c0 10.0746 4.1 21.6594 15.6079 23.9612zm.3921-27.785 11.9722 5.1309c-.2115 5.0761-1.8438 16.3475-11.9722 18.6483-10.1284-2.3008-11.7607-13.5722-11.9722-18.6483zm-2.4141 17.2382-4-4a2 2 0 0 1 2.8282-2.8281l2.69 2.69 5.5937-4.7949a2 2 0 1 1 2.6036 3.0371l-7 6a2 2 0 0 1 -2.7159-.1045z" fill="url(#linear-gradient)"/></svg>