<svg id="Layer_1" enable-background="new 0 0 24 24" viewBox="0 0 24 24" xmlns="http://www.w3.org/2000/svg"><g><g><g><path d="m24 4v16c0 2.2-1.8 4-4 4h-16c-2.2 0-4-1.8-4-4v-16c0-2.2 1.8-4 4-4h16c2.2 0 4 1.8 4 4z" fill="#b5d1ff"/></g><g><path d="m24 16.2v3.8c0 2.2-1.8 4-4 4h-16c-2.2 0-4-1.8-4-4v-3.8c0-.6.5-1.1 1.1-1.1h5.9c.6 0 1.1.5 1.1 1.1v.5c0 .6.5 1.1 1.1 1.1h5.7c.6 0 1.1-.5 1.1-1.1v-.5c0-.6.5-1.1 1.1-1.1h5.9c.5 0 1 .5 1 1.1z" fill="#69a1ff"/></g></g><g><g><g><path d="m9.4 8.2h1.6v-4.1c0-.6.5-1 1-1s1 .4 1 1v4.1h1.6c.6 0 1 .7.6 1.2l-2.6 3.2c-.3.4-.9.4-1.1 0l-2.6-3.3c-.4-.4-.1-1.1.5-1.1z" fill="#2979ff"/></g></g></g></g></svg>