<svg id="Capa_1" enable-background="new 0 0 512 512" height="512" viewBox="0 0 512 512" width="512" xmlns="http://www.w3.org/2000/svg"><g><g><g><g><path d="m320.24 343.69v104.47h-128.48v-104.47h39.44v34.57c0 13.697 11.103 24.8 24.8 24.8 13.697 0 24.8-11.103 24.8-24.8v-34.57z" fill="#7a6e79"/><g fill="#685e67"><path d="m286.8 343.69h33.44v104.47h-33.44z"/><path d="m280.8 343.69h39.44v33.479h-39.44z"/><path d="m191.76 343.69h39.44v33.479h-39.44z"/></g><path d="m484.5 353.662h-457c-11.046 0-20-8.954-20-20v-268.251c0-11.046 8.954-20 20-20h457c11.046 0 20 8.954 20 20v268.252c0 11.045-8.954 19.999-20 19.999z" fill="#f2eff2"/><path d="m151.212 45.411h-123.712c-11.046 0-20 8.954-20 20v268.252c0 11.046 8.954 20 20 20h123.712z" fill="#21c1f8"/><path d="m119.828 45.411h31.384v308.252h-31.384z" fill="#1faaee"/><path d="m504.5 65.41v268.25c0 11.05-8.95 20-20 20h-38.42c11.05 0 20-8.95 20-20v-268.25c0-11.04-8.95-20-20-20h38.42c11.05 0 20 8.959 20 20z" fill="#e1dde1"/><path d="m504.5 301.259v32.4c0 11.05-8.95 20-20 20h-457c-11.05 0-20-8.95-20-20v-32.4z" fill="#918291"/><path d="m504.5 301.259v32.4c0 11.05-8.95 20-20 20h-38.42c11.05 0 20-8.95 20-20v-32.4z" fill="#7a6e79"/><g><path d="m345.079 466.585h-178.158c-5.523 0-10-4.477-10-10v-13.825c0-5.523 4.477-10 10-10h178.159c5.523 0 10 4.477 10 10v13.825c-.001 5.522-4.478 10-10.001 10z" fill="#918291"/><path d="m355.08 442.759v13.83c0 5.52-4.48 10-10 10h-27.44c5.52 0 10-4.48 10-10v-13.83c0-5.52-4.48-10-10-10h27.44c5.52 0 10 4.48 10 10z" fill="#7a6e79"/></g></g><g><path d="m204.321 455.809-13.348-171.43c-.405-5.206-4.748-9.224-9.97-9.224h-119.453c-5.222 0-9.564 4.018-9.97 9.224l-13.348 171.43c-.452 5.811 4.141 10.776 9.97 10.776h146.15c5.828 0 10.422-4.965 9.969-10.776z" fill="#fee265"/><g fill="#fdd330"><path d="m107.862 456.543c-.463 5.402 3.797 10.042 9.218 10.042h63.949v-165.318h-51.363c-4.803 0-8.808 3.676-9.218 8.462"/><path d="m194.35 466.59h-30.7c5.83 0 10.42-4.97 9.97-10.78l-13.35-171.43c-.4-5.21-4.75-9.22-9.97-9.22h30.7c5.23 0 9.57 4.01 9.97 9.22l13.35 171.43c.45 5.809-4.14 10.78-9.97 10.78z"/></g></g><g><path d="m143.045 309.729-12.586 146.814c-.463 5.402 3.797 10.042 9.218 10.042h110.773c5.422 0 9.681-4.641 9.218-10.042l-12.585-146.814c-.41-4.786-4.415-8.462-9.218-8.462h-85.602c-4.803 0-8.808 3.676-9.218 8.462z" fill="#fb3a82"/><path d="m250.447 466.59h-32.281c5.422 0 9.687-4.645 9.215-10.048l-12.583-146.813c-.407-4.783-4.413-8.466-9.215-8.466h32.281c4.802 0 8.808 3.682 9.215 8.466l12.592 146.813c.463 5.403-3.802 10.048-9.224 10.048z" fill="#fb1466"/></g></g><g><g><g><g><path d="m450.01 178.637-6.838 32.551c-1.005 4.786-5.227 8.212-10.117 8.212h-58.214l-11.733-46.995h81.844c3.281.001 5.732 3.02 5.058 6.232z" fill="#fb3a82"/></g><g><path d="m450.006 178.64-6.833 32.553c-1.003 4.786-5.231 8.208-10.121 8.208h-24.149c4.89 0 9.107-3.422 10.11-8.208l6.844-32.553c.672-3.215-1.778-6.234-5.055-6.234h24.149c3.287 0 5.737 3.019 5.055 6.234z" fill="#fb1466"/></g></g></g><g><path d="m302.1 221.306h-93.54c-5.523 0-10-4.477-10-10v-25.906c0-5.523 4.477-10 10-10h93.54c5.523 0 10 4.477 10 10v25.906c0 5.523-4.478 10-10 10z" fill="#23f1a8"/><path d="m312.104 185.396v25.91c0 5.52-4.48 10-10 10h-25.91c5.53 0 10-4.48 10-10v-25.91c0-5.52-4.47-10-10-10h25.91c5.52 0 10 4.48 10 10z" fill="#26d192"/></g></g></g><g><g><circle cx="409.615" cy="109.194" fill="#23f1a8" r="36.184"/><path d="m445.798 109.195c0 19.978-16.201 36.179-36.188 36.179-4.786 0-9.361-.935-13.551-2.631 16.375-2.393 28.954-16.503 28.954-33.547 0-17.053-12.588-31.164-28.972-33.556 4.19-1.696 8.774-2.631 13.569-2.631 19.987-.002 36.188 16.199 36.188 36.186z" fill="#26d192"/></g><g><path d="m484.5 37.911h-244.44c-4.143 0-7.5 3.358-7.5 7.5s3.357 7.5 7.5 7.5h244.44c6.893 0 12.5 5.607 12.5 12.5v228.349l-297.773.008-.779-9.961c-.694-9.054-8.358-16.146-17.448-16.146h-22.288v-214.75h44.321c4.143 0 7.5-3.358 7.5-7.5s-3.357-7.5-7.5-7.5h-175.533c-15.163 0-27.5 12.336-27.5 27.5v130.309c0 4.142 3.357 7.5 7.5 7.5s7.5-3.358 7.5-7.5v-130.309c0-6.893 5.607-12.5 12.5-12.5h116.212v214.749h-82.162c-9.071 0-16.734 7.085-17.447 16.138l-.776 9.962h-28.327v-61.013c0-4.142-3.357-7.5-7.5-7.5s-7.5 3.358-7.5 7.5v100.913c0 15.164 12.337 27.5 27.5 27.5h10.578l-7.325 94.07c-.376 4.849 1.304 9.677 4.606 13.247 3.302 3.567 7.981 5.613 12.841 5.613h20.74c4.143 0 7.5-3.358 7.5-7.5s-3.357-7.5-7.5-7.5h-20.74c-.948 0-1.555-.502-1.832-.801-.278-.301-.733-.947-.66-1.896l13.349-171.424c.104-1.316 1.176-2.308 2.493-2.308h119.45c1.32 0 2.392.986 2.492 2.304l.688 8.803h-31.918c-8.767 0-15.941 6.587-16.69 15.321l-4.806 56.066c-1.493.205-3.002.316-4.523.316-18.082 0-32.792-14.71-32.792-32.791v-29.292c0-4.142-3.357-7.5-7.5-7.5s-7.5 3.358-7.5 7.5v29.292c0 26.352 21.439 47.791 47.792 47.791 1.076 0 2.15-.04 3.219-.111l-6.476 75.543c-.092 1.068-.066 2.134.046 3.187h-17.062c-4.143 0-7.5 3.358-7.5 7.5s3.357 7.5 7.5 7.5h239.11c9.649 0 17.5-7.851 17.5-17.5v-13.83c0-9.649-7.851-17.5-17.5-17.5h-17.34v-64.1h156.76c15.163 0 27.5-12.336 27.5-27.5v-268.249c0-15.164-12.337-27.5-27.5-27.5zm-457 308.249c-6.893 0-12.5-5.607-12.5-12.5v-24.9h27.159l-2.912 37.4zm231.52 15h14.28v17.1c0 4.619-1.8 8.966-5.057 12.23-1.831 1.827-4.004 3.176-6.364 4.027zm-106.757-52.393h85.603c.917 0 1.667.689 1.745 1.603l12.586 146.813c.055.634-.218 1.076-.455 1.335s-.654.567-1.291.567h-110.773c-.637 0-1.054-.309-1.291-.567s-.51-.701-.455-1.334l12.586-146.813c.078-.915.828-1.604 1.745-1.604zm195.317 133.992v13.83c0 1.378-1.121 2.5-2.5 2.5h-77.984c.112-1.053.137-2.119.046-3.188l-1.341-15.643h79.28c1.378.001 2.499 1.123 2.499 2.501zm-34.84-17.5h-48.226l-1.329-15.508c5.878-1.33 11.282-4.283 15.664-8.655 6.094-6.108 9.45-14.219 9.45-22.837v-17.1h24.44v64.1zm184.26-91.599c0 6.893-5.607 12.5-12.5 12.5h-226.766l-3.178-37.071c-.01-.112-.032-.218-.044-.329h242.488z"/><path d="m219.319 417.846c-3.712-1.838-8.211-.317-10.05 3.393-2.479 5.008-7.484 8.119-13.063 8.119-8.033 0-14.569-6.536-14.569-14.57s6.536-14.569 14.569-14.569c1.291 0 2.559.168 3.777.493l-9.457 10.682c-2.746 3.102-2.458 7.842.644 10.587 3.102 2.744 7.842 2.457 10.587-.644l15.425-17.423c2.658-3.002 2.484-7.564-.394-10.356-5.546-5.377-12.855-8.339-20.582-8.339-16.305 0-29.569 13.265-29.569 29.569s13.265 29.57 29.569 29.57c11.322 0 21.479-6.308 26.507-16.462 1.838-3.713.318-8.212-3.394-10.05z"/><path d="m195.064 372.49c17.791 0 32.265-14.474 32.265-32.265v-12.765c0-4.142-3.357-7.5-7.5-7.5s-7.5 3.358-7.5 7.5v12.765c0 9.52-7.745 17.265-17.266 17.265-9.52 0-17.265-7.745-17.265-17.265v-12.765c0-4.142-3.357-7.5-7.5-7.5s-7.5 3.358-7.5 7.5v12.765c.001 17.791 14.475 32.265 32.266 32.265z"/><path d="m358.366 145.902h-29.166c-4.143 0-7.5 3.358-7.5 7.5s3.357 7.5 7.5 7.5h23.309l14.837 59.416v16.155c0 2.329.596 4.521 1.642 6.433-2.854 3.575-4.573 8.096-4.573 13.016 0 11.53 9.38 20.91 20.909 20.91s20.909-9.38 20.909-20.91c0-2.085-.316-4.096-.886-5.997h9.671c-.571 1.901-.886 3.912-.886 5.997 0 11.53 9.38 20.91 20.909 20.91 11.53 0 20.91-9.38 20.91-20.91 0-2.338-.403-4.58-1.114-6.681 2.585-1.184 4.384-3.787 4.384-6.816 0-4.142-3.357-7.5-7.5-7.5h-69.375v-8.028h50.707c8.39 0 15.731-5.959 17.457-14.17l6.838-32.544c.788-3.752-.146-7.612-2.563-10.589-2.416-2.977-6.002-4.685-9.836-4.685h-75.979l-3.327-13.324c-.834-3.34-3.834-5.683-7.277-5.683zm26.957 115.93c-3.259 0-5.909-2.651-5.909-5.91s2.65-5.91 5.909-5.91 5.909 2.651 5.909 5.91-2.65 5.91-5.909 5.91zm49.717 0c-3.259 0-5.909-2.651-5.909-5.91s2.65-5.91 5.909-5.91 5.91 2.651 5.91 5.91-2.651 5.91-5.91 5.91zm7.037-81.923-6.247 29.733c-.274 1.306-1.442 2.254-2.777 2.254h-52.35l-7.987-31.987z"/><path d="m294.5 274.635c1.465 1.464 3.385 2.197 5.304 2.197s3.839-.732 5.304-2.197l12.301-12.301c2.929-2.929 2.929-7.678 0-10.606l-12.301-12.301c-2.93-2.929-7.678-2.929-10.607 0-2.767 2.767-2.916 7.158-.454 10.104h-30.548c-4.143 0-7.5 3.358-7.5 7.5s3.357 7.5 7.5 7.5h30.548c-2.463 2.946-2.314 7.336.453 10.104z"/><path d="m302.1 167.9h-93.54c-9.649 0-17.5 7.851-17.5 17.5v25.906c0 9.649 7.851 17.5 17.5 17.5h93.54c9.649 0 17.5-7.851 17.5-17.5v-25.906c0-9.649-7.851-17.5-17.5-17.5zm2.5 43.407c0 1.378-1.121 2.5-2.5 2.5h-93.54c-1.379 0-2.5-1.122-2.5-2.5v-25.907c0-1.378 1.121-2.5 2.5-2.5h93.54c1.379 0 2.5 1.122 2.5 2.5z"/><path d="m39.853 177.399c0 4.142 3.357 7.5 7.5 7.5h61.099c4.143 0 7.5-3.358 7.5-7.5s-3.357-7.5-7.5-7.5h-61.099c-4.143 0-7.5 3.358-7.5 7.5z"/><path d="m47.353 213.082h61.099c4.143 0 7.5-3.358 7.5-7.5s-3.357-7.5-7.5-7.5h-61.099c-4.143 0-7.5 3.358-7.5 7.5s3.357 7.5 7.5 7.5z"/><path d="m47.353 241.264h61.099c4.143 0 7.5-3.358 7.5-7.5s-3.357-7.5-7.5-7.5h-61.099c-4.143 0-7.5 3.358-7.5 7.5s3.357 7.5 7.5 7.5z"/><path d="m74.095 121.1c3.102 2.746 7.842 2.457 10.587-.645l16.653-18.812c2.658-3.002 2.484-7.563-.394-10.355-5.876-5.698-13.62-8.836-21.807-8.836-17.274 0-31.328 14.054-31.328 31.329s14.054 31.329 31.328 31.329c11.995 0 22.756-6.683 28.083-17.442 1.839-3.711.319-8.211-3.393-10.049-3.711-1.839-8.211-.32-10.049 3.393-2.779 5.612-8.39 9.098-14.642 9.098-9.003 0-16.328-7.325-16.328-16.329s7.325-16.329 16.328-16.329c1.773 0 3.507.283 5.147.826l-10.831 12.235c-2.744 3.102-2.456 7.841.646 10.587z"/><path d="m191.644 79.875c0 4.142 3.357 7.5 7.5 7.5h19.359c4.143 0 7.5-3.358 7.5-7.5s-3.357-7.5-7.5-7.5h-19.359c-4.143 0-7.5 3.357-7.5 7.5z"/><path d="m287.503 101.781h-88.359c-4.143 0-7.5 3.358-7.5 7.5s3.357 7.5 7.5 7.5h88.359c4.143 0 7.5-3.358 7.5-7.5s-3.357-7.5-7.5-7.5z"/><path d="m287.503 140.187c4.143 0 7.5-3.358 7.5-7.5s-3.357-7.5-7.5-7.5h-88.359c-4.143 0-7.5 3.358-7.5 7.5s3.357 7.5 7.5 7.5z"/><path d="m409.614 152.877c24.087 0 43.684-19.596 43.684-43.684s-19.597-43.683-43.684-43.683-43.684 19.596-43.684 43.684 19.597 43.683 43.684 43.683zm0-72.367c15.816 0 28.684 12.867 28.684 28.684s-12.867 28.684-28.684 28.684-28.684-12.867-28.684-28.684 12.868-28.684 28.684-28.684z"/><path d="m399.325 122.982c1.465 1.464 3.385 2.197 5.304 2.197s3.839-.732 5.304-2.197l16.973-16.973c2.929-2.929 2.929-7.678 0-10.606-2.93-2.929-7.678-2.929-10.607 0l-11.669 11.669-1.697-1.698c-2.93-2.929-7.678-2.929-10.607 0s-2.929 7.678 0 10.606z"/></g></g></g></svg>