<svg height="512" viewBox="0 0 24 24" width="512" xmlns="http://www.w3.org/2000/svg"><g id="Layer_2" data-name="Layer 2"><path d="m11.76 15.24a3 3 0 0 1 -2.12-.88 3 3 0 0 1 0-4.24l8.48-8.48a3 3 0 1 1 4.24 4.24l-8.48 8.48a3 3 0 0 1 -2.12.88zm-.71-2.24a1 1 0 0 0 1.41 0l8.54-8.54a1 1 0 0 0 -1.41-1.41l-8.49 8.49a1 1 0 0 0 -.05 1.46z" fill="#6ca4ff"/><path d="m16 23h-11a4 4 0 0 1 -4-4v-11a4 4 0 0 1 4-4h6a1 1 0 0 1 1 1 1 1 0 0 1 -1 1h-6a2 2 0 0 0 -2 2v11a2 2 0 0 0 2 2h11a2 2 0 0 0 2-2v-6a1 1 0 0 1 1-1 1 1 0 0 1 1 1v6a4 4 0 0 1 -4 4z" fill="#0554f1"/></g></svg>