<svg viewBox="0 0 512 512" xmlns="http://www.w3.org/2000/svg" xmlns:xlink="http://www.w3.org/1999/xlink"><linearGradient id="linear-gradient" gradientUnits="userSpaceOnUse" x1="74.98" x2="437.02" y1="74.98" y2="437.02"><stop offset="0" stop-color="#f5b236"/><stop offset="1" stop-color="#fb541a"/></linearGradient><g id="Layer_2" data-name="Layer 2"><g id="Layer_2_copy_11" data-name="Layer 2 copy 11"><g id="_147" data-name="147"><circle cx="256" cy="256" fill="url(#linear-gradient)" r="256"/><path d="m400.06 202.74-122.51-68.29a30.36 30.36 0 0 0 -29.52 0l-122.52 68.29a11.57 11.57 0 0 0 0 20.21l2.47 1.37v102.61a16.32 16.32 0 0 0 -6 6l-13.75 23.82a16.4 16.4 0 0 0 14.2 24.6h27.51a16.4 16.4 0 0 0 14.2-24.6l-13.76-23.75a16.19 16.19 0 0 0 -6-6v-93.54l10.7 6v62.49a52.46 52.46 0 0 0 52.46 52.46h110.46a52.46 52.46 0 0 0 52.46-52.46v-62.52l29.6-16.43a11.57 11.57 0 0 0 0-20.26zm-250.14 162.26h-27.48l13.74-23.8zm204.16-63.05a36.1 36.1 0 0 1 -36.08 36.05h-110.46a36.1 36.1 0 0 1 -36-36.06v-53.37l76.46 42.65a30.29 30.29 0 0 0 29.52 0l76.53-42.65zm-84.52-25a13.92 13.92 0 0 1 -13.55 0l-111.63-62.27-3.3-1.84 3.3-1.84 111.62-62.21a13.92 13.92 0 0 1 13.55 0l114.93 64.05z" fill="#fff"/></g></g></g></svg>