<svg id="Layer_1" height="512" viewBox="-6 -6 36 36" width="512" xmlns="http://www.w3.org/2000/svg" xmlns:xlink="http://www.w3.org/1999/xlink"><linearGradient id="SVGID_1_" gradientTransform="matrix(1 0 0 -1 -618 -1026)" gradientUnits="userSpaceOnUse" x1="617.273" x2="642.729" y1="-1050.728" y2="-1025.272"><stop offset="0" stop-color="#09f"/><stop offset="1" stop-color="#009"/></linearGradient><circle cx="12" cy="12" fill="url(#SVGID_1_)" r="18"/><g fill="#fff"><path d="m6 12v3.5c0 1.4 2.7 2.5 6 2.5s6-1.1 6-2.5c0-.1 0-3.5 0-3.5l-6 2z"/><path d="m12.2 8.5-6.7 2.3 6.5 2.2 12-4-12-4-12 4 4 1.3 7.8-2.8c.3-.1.5 0 .6.3.2.3 0 .6-.2.7z"/><path d="m5 16.5c0-.7-.4-1.2-1-1.4v-3.6c0-.3-.2-.5-.5-.5s-.5.2-.5.5v3.6c-.6.2-1 .801-1 1.4s.3 1.1.8 1.3l-.8 3.2h3l-.8-3.2c.5-.2.8-.7.8-1.3z"/></g></svg>