<svg height="512" viewBox="0 0 48 48" width="512" xmlns="http://www.w3.org/2000/svg"><g id="_30-money" data-name="30-money"><circle cx="24" cy="24" fill="#ffd364" r="23"/><path d="m24 4c12.15 0 22 8.507 22 19h.975a23 23 0 0 0 -45.95 0h.975c0-10.493 9.85-19 22-19z" fill="#ffeb95"/><path d="m46 23c0 10.493-9.85 19-22 19s-22-8.507-22-19h-.975c-.014.332-.025.665-.025 1a23 23 0 0 0 46 0c0-.335-.011-.668-.025-1z" fill="#ffb839"/><ellipse cx="37" cy="9" fill="#f6fafd" rx=".825" ry="1.148" transform="matrix(.707 -.707 .707 .707 4.48 28.81)"/><ellipse cx="30.746" cy="4.5" fill="#f6fafd" rx=".413" ry=".574" transform="matrix(.707 -.707 .707 .707 5.829 23.067)"/><ellipse cx="34" cy="7" fill="#f6fafd" rx="1.65" ry="2.297" transform="matrix(.707 -.707 .707 .707 5.015 26.102)"/><path d="m28 30h-8a2.006 2.006 0 0 0 -2 2v6a6.007 6.007 0 0 0 5.95 6h.05a6 6 0 0 0 6-6v-6a2.006 2.006 0 0 0 -2-2z" fill="#78b300"/><path d="m40 25a12.6 12.6 0 0 1 -2.99 8.24 16.288 16.288 0 0 1 -7.01 4.76v-6a2.006 2.006 0 0 0 -2-2h-8a2.006 2.006 0 0 0 -2 2v6c-5.34-1.92-10-6.43-10-13 .47 0 2.26.25 5.04.5s6.54.5 10.96.5a129.033 129.033 0 0 0 16-1z" fill="#273941"/><path d="m33 15a1 1 0 1 1 1-1h2a3 3 0 0 0 -2-2.816v-1.184h-2v1.184a2.993 2.993 0 0 0 1 5.816 1 1 0 1 1 -1 1h-2a3 3 0 0 0 2 2.816v1.184h2v-1.184a2.993 2.993 0 0 0 -1-5.816z" fill="#4f813b"/><path d="m15 15a1 1 0 1 1 1-1h2a3 3 0 0 0 -2-2.816v-1.184h-2v1.184a2.993 2.993 0 0 0 1 5.816 1 1 0 1 1 -1 1h-2a3 3 0 0 0 2 2.816v1.184h2v-1.184a2.993 2.993 0 0 0 -1-5.816z" fill="#4f813b"/><g fill="#78b300"><path d="m33 15v2a1 1 0 0 1 0 2v3h1v-1.184a2.993 2.993 0 0 0 -1-5.816z"/><path d="m34 14h2a3 3 0 0 0 -2-2.816v-1.184h-1v3a1 1 0 0 1 1 1z"/><path d="m16 18a1 1 0 0 1 -1 1v3h1v-1.184a2.993 2.993 0 0 0 -1-5.816v2a1 1 0 0 1 1 1z"/><path d="m16 14h2a3 3 0 0 0 -2-2.816v-1.184h-1v3a1 1 0 0 1 1 1z"/><path d="m28 30h-8a2.006 2.006 0 0 0 -2 2v6a6.007 6.007 0 0 0 5.95 6h.05a6 6 0 0 0 6-6v-6a2.006 2.006 0 0 0 -2-2z"/></g><path d="m24 42h-.05a6.007 6.007 0 0 1 -5.95-6v2a6.007 6.007 0 0 0 5.95 6h.05a6 6 0 0 0 6-6v-2a6 6 0 0 1 -6 6z" fill="#426704"/><path d="m28 30h-8a2.006 2.006 0 0 0 -2 2v2a2.006 2.006 0 0 1 2-2h8a2.006 2.006 0 0 1 2 2v-2a2.006 2.006 0 0 0 -2-2z" fill="#4f813b"/><path d="m24 36a1 1 0 1 1 1-1h2a3 3 0 0 0 -2-2.816v-1.184h-2v1.184a2.993 2.993 0 0 0 1 5.816 1 1 0 1 1 -1 1h-2a3 3 0 0 0 2 2.816v1.184h2v-1.184a2.993 2.993 0 0 0 -1-5.816z" fill="#ededed"/><path d="m24 28a130.231 130.231 0 0 0 15.836-.978 13.148 13.148 0 0 0 .164-2.022 129.033 129.033 0 0 1 -16 1c-4.42 0-8.18-.25-10.96-.5s-4.57-.5-5.04-.5a13.23 13.23 0 0 0 .162 2.008c.634.037 2.335.263 4.878.492 2.78.25 6.54.5 10.96.5z" fill="#14242c"/><path d="m30 31h-.279a1.975 1.975 0 0 1 .279 1v6a17.855 17.855 0 0 0 2-.858v-4.142a2.006 2.006 0 0 0 -2-2z" fill="#14242c"/><path d="m18 32a1.975 1.975 0 0 1 .279-1h-.279a2.006 2.006 0 0 0 -2 2v4.14a18.056 18.056 0 0 0 2 .86z" fill="#14242c"/><path d="m24 0a24 24 0 1 0 24 24 24.028 24.028 0 0 0 -24-24zm0 46a22 22 0 1 1 22-22 22.025 22.025 0 0 1 -22 22z" fill="#141e21"/><path d="m40.656 24.246a.983.983 0 0 0 -.8-.236 129.279 129.279 0 0 1 -15.856.99c-3.6 0-7.159-.162-10.87-.5-1.406-.126-2.559-.253-3.412-.347-.993-.105-1.444-.153-1.718-.153a1 1 0 0 0 -1 1c0 7.151 5.071 11.7 10.035 13.7a7 7 0 0 0 13.93 0 17.025 17.025 0 0 0 6.81-4.811 13.646 13.646 0 0 0 3.225-8.889 1 1 0 0 0 -.344-.754zm-21.656 13.754v-6a1 1 0 0 1 1-1h3v1.2a2.717 2.717 0 0 0 -1.107.67 2.937 2.937 0 0 0 -.893 2.13 3 3 0 0 0 3 3 1 1 0 0 1 1 1 .977.977 0 0 1 -.307.713.993.993 0 0 1 -1.406-.02.959.959 0 0 1 -.287-.693h-2a2.994 2.994 0 0 0 2 2.818v1.076a5.019 5.019 0 0 1 -4-4.894zm10 0a5 5 0 0 1 -4 4.892v-1.073a2.844 2.844 0 0 0 1.107-.692 2.937 2.937 0 0 0 .893-2.127 3 3 0 0 0 -3-3 1 1 0 0 1 -1-1 .977.977 0 0 1 .307-.713.993.993 0 0 1 1.406.02.959.959 0 0 1 .287.693h2a2.92 2.92 0 0 0 -.873-2.107 2.784 2.784 0 0 0 -1.127-.687v-1.206h3a1 1 0 0 1 1 1zm7.242-5.4a14.8 14.8 0 0 1 -5.242 3.907v-4.507a3 3 0 0 0 -3-3h-8a3 3 0 0 0 -3 3v4.5c-3.816-1.763-7.493-5.23-7.952-10.4l.452.05c.863.094 2.028.222 3.45.35 3.773.339 7.387.5 11.05.5a135.373 135.373 0 0 0 14.947-.861 11.628 11.628 0 0 1 -2.705 6.461z" fill="#141e21"/><path d="m32.287 18.693a.959.959 0 0 1 -.287-.693h-2a2.994 2.994 0 0 0 2 2.818v1.182h2v-1.181a2.844 2.844 0 0 0 1.107-.692 2.937 2.937 0 0 0 .893-2.127 3 3 0 0 0 -3-3 1 1 0 0 1 -1-1 .977.977 0 0 1 .307-.713.993.993 0 0 1 1.406.02.959.959 0 0 1 .287.693h2a2.92 2.92 0 0 0 -.873-2.107 2.784 2.784 0 0 0 -1.127-.687v-1.206h-2v1.2a2.717 2.717 0 0 0 -1.107.67 2.937 2.937 0 0 0 -.893 2.13 3 3 0 0 0 3 3 1 1 0 0 1 1 1 .977.977 0 0 1 -.307.713.993.993 0 0 1 -1.406-.02z" fill="#141e21"/><path d="m14.287 18.693a.959.959 0 0 1 -.287-.693h-2a2.994 2.994 0 0 0 2 2.818v1.182h2v-1.181a2.844 2.844 0 0 0 1.107-.692 2.937 2.937 0 0 0 .893-2.127 3 3 0 0 0 -3-3 1 1 0 0 1 -1-1 .977.977 0 0 1 .307-.713.993.993 0 0 1 1.406.02.959.959 0 0 1 .287.693h2a2.92 2.92 0 0 0 -.873-2.107 2.784 2.784 0 0 0 -1.127-.687v-1.206h-2v1.2a2.717 2.717 0 0 0 -1.107.67 2.937 2.937 0 0 0 -.893 2.13 3 3 0 0 0 3 3 1 1 0 0 1 1 1 .977.977 0 0 1 -.307.713.993.993 0 0 1 -1.406-.02z" fill="#141e21"/></g></svg>