<svg id="Layer_1" enable-background="new 0 0 68 68" viewBox="0 0 68 68" xmlns="http://www.w3.org/2000/svg"><g><g><g><path d="m13.88661 65.05848c.26001.08002.53003.14001.81006.17004-.28003-.03003-.55005-.08001-.81006-.17004z" fill="#f93"/></g></g><g><g><g><g><path d="m52.94797 48.60846v12.47004c0 2.31-1.85999 4.16999-4.17004 4.16999h-37.75c-2.30994 0-4.16992-1.85999-4.16992-4.16999v-4.34003c.10999-2.20996 1.93994-3.95996 4.16992-3.95996h37.75c2.30004 0 4.17004-1.87 4.17004-4.17005z" fill="#77e244"/></g></g><g><g><path d="m52.94797 48.60846v3.17305c0 2.30688-1.8701 4.17699-4.17699 4.17699h-31.24306c-3.25843 0-5.8999 2.64148-5.8999 5.8999v3.39008h-.6001c-2.30298 0-4.16992-1.86694-4.16992-4.16993v-4.34009c.10999-2.20996 1.93994-3.95996 4.16992-3.95996h37.75c2.30005.00001 4.17005-1.86999 4.17005-4.17004z" fill="#62d333"/></g></g><g><g><path d="m52.95068 6.92395v41.68538c0 2.30404-1.8678 4.17184-4.17184 4.17184h-37.7551c-2.29446 0-4.17184 1.8565-4.17184 4.17184v-50.02906c0-2.31534 1.87738-4.17184 4.17184-4.17184h37.7551c2.30405 0 4.17184 1.86779 4.17184 4.17184z" fill="#c9eaf5"/></g></g><g><g><path d="m48.7789 2.75208h-3.42224v23.03208c0 11.69605-9.48152 21.17757-21.17757 21.17757h-17.32719v9.99127c0-2.31537 1.87744-4.17188 4.17187-4.17188h37.75513c2.30406 0 4.17188-1.86781 4.17188-4.17188v-41.68528c0-2.30407-1.86782-4.17188-4.17188-4.17188z" fill="#a9dcea"/></g></g><g><g><path d="m18.8877 2.75211v50.02906h-7.86396c-2.29446 0-4.17184 1.8565-4.17184 4.17184v-50.02906c0-2.31534 1.87738-4.17184 4.17184-4.17184z" fill="#666"/></g></g><g><g><path d="m10.84814 30.22754c-.20703 0-.375-.16797-.375-.375v-13.10938c0-.20703.16797-.375.375-.375s.375.16797.375.375v13.10938c0 .20703-.16796.375-.375.375z" fill="#fff"/></g></g><g><g><path d="m10.84814 13.53711c-.20703 0-.375-.16797-.375-.375v-1.69238c0-.20703.16797-.375.375-.375s.375.16797.375.375v1.69238c0 .20703-.16796.375-.375.375z" fill="#fff"/></g></g></g><g><g><g><path d="m61.14804 27.7646c0 9.66843-7.83621 17.50481-17.49126 17.50481-9.66843 0-17.50497-7.83638-17.50497-17.50481 0-9.66851 7.83654-17.50489 17.50497-17.50489 9.65505 0 17.49126 7.83638 17.49126 17.50489z" fill="#6cf"/></g></g><g><g><path d="m61.14458 27.7634c0 9.67393-7.83348 17.50747-17.4889 17.50747-5.76182 0-10.87629-2.78382-14.06699-7.08441 2.9132 2.17344 6.52952 3.459 10.44163 3.459 9.65542 0 17.4889-7.8428 17.4889-17.50753 0-3.91211-1.28545-7.52826-3.45895-10.44158 4.30049 3.19077 7.08431 8.30518 7.08431 14.06705z" fill="#42c1f4"/></g></g><g><g><path d="m31.81751 22.32526c-.58278 1.51677.1479 3.43117-.82302 4.73524-.57352.76764-1.56295 1.0636-2.4878 1.31328-.7677.2035-1.5354.4162-2.31213.59192-.03703-.39768-.04651-.79536-.04651-1.2023 0-6.81617 3.90308-12.72599 9.6001-15.61153.64735.87862 1.20235 1.84045 2.21978 2.12715.64735.17572 1.36877.01852 1.97909.29596.81399.36071 1.14681 1.44277.86931 2.29362-.26825.86011-1.00817 1.49826-1.81268 1.89594-1.23938.61043-2.65421.75839-3.98617 1.13761-1.33175.38842-2.70051 1.12829-3.19997 2.42311z" fill="#77e244"/></g></g><g><g><path d="m49.47305 44.27202c-1.82216.64741-3.77348.99886-5.81737.99886-2.20104 0-4.31899-.40694-6.26128-1.15607.49946-1.09132 1.03594-2.16418 1.7201-3.14452.91582-1.30402 2.14573-2.45083 3.6441-2.99652.58255-.2127 1.28545-.32368 1.80342.01852.25899.17572.45317.43465.72141.58266.49946.26819 1.10052.07395 1.66478.03698.54552-.04623 1.11904.07401 1.5722.37922.45317.30516.78599.80462.84154 1.35025.0648.59192-.19418 1.17458-.28676 1.7665-.12012.73986.03704 1.50751.39786 2.16412z" fill="#77e244"/></g></g><g><g><path d="m49.47305 44.27202c-1.82216.64741-3.77348.99886-5.81737.99886-2.20104 0-4.31899-.40694-6.26128-1.15607.39762-.8601.81376-1.71101 1.31322-2.51563.43488.02777.87879.04629 1.3227.04629 3.20922 0 6.22425-.86937 8.81366-2.38614.28676.29596.48095.67513.51797 1.08206.0648.59192-.19418 1.17458-.28676 1.7665-.12012.73987.03704 1.50752.39786 2.16413z" fill="#62d333"/></g></g><g><g><path d="m52.00714 30.76918c.33282.72136.36985 1.58146.0648 2.32139-.30527.73061-.93434 1.32254-1.69255 1.56301-.96188.2959-2.00686.01846-2.93171-.36996-.92485-.39768-1.80365-.9156-2.78405-1.13755-1.75713-.38848-3.70845.29596-4.82748 1.7017-.45339.56414-.78621 1.23007-1.34122 1.6925-.8045.65667-1.97909.74913-2.95949.39768-.97114-.36071-1.76639-1.10058-2.35842-1.95143-.82302-1.17458-1.28545-2.79308-.53649-4.00463.75845-1.22081 2.37694-1.50752 3.60707-2.2659 1.30396-.81388 2.19178-2.25665 2.33065-3.79188.09235-1.11909-.1479-2.36762.53626-3.2555.96188-1.23927 3.13538-.93411 4.06949-2.1919.32356-.43465.53626-1.07281 1.07275-1.14681.23121-.03697.46243.05549.67513.15721 1.60946.73067 3.07983 1.78496 4.3007 3.07978.44391.47168 1.5074 1.415 1.31322 2.05315-.12035.39774-.41614.75839-.53626 1.17458-.12035.39768-.18515.81388-.20367 1.23007-.02755.96183.22195 1.93291.74918 2.73753.46243.68442 1.10052 1.25783 1.45209 2.00696z" fill="#77e244"/></g></g><g><g><path d="m61.05223 25.95067c-.26825.24047-.51797.4902-.73993.76764-.44391.54563-.84154 1.18378-1.49837 1.44277-.43465.18498-.92485.16647-1.38728.07401-.93411-.19424-1.79416-.65667-2.62644-1.10984-.94337-.50866-1.9608-1.11909-2.26585-2.14567-.22218-.7769.0368-1.63701.53626-2.27516.4902-.63815 1.1931-1.09132 1.91451-1.45203.62884-.31442 1.31322-.59186 1.75713-1.14681.56426-.7121.59203-1.72021.4254-2.6081-.07383-.39768-.18493-.7861-.28653-1.17452 2.28437 2.63582 3.79177 5.96527 4.1711 9.62771z" fill="#77e244"/></g></g><g><g><path d="m61.05223 25.95067c-.26825.24047-.51797.4902-.73993.76764-.44391.54563-.84154 1.18378-1.49837 1.44277-.43465.18498-.92485.16647-1.38728.07401-.12012-.02777-.2495-.05549-.36985-.09252.30505-1.28556.46243-2.62655.46243-4.00463 0-1.51672-.19418-2.978-.555-4.37454.3423-.67513.3423-1.51677.20344-2.2659-.07383-.39768-.18493-.7861-.28653-1.17452 2.28436 2.6358 3.79176 5.96525 4.17109 9.62769z" fill="#62d333"/></g></g><g fill="#1a1d1f"><path d="m52.68604 30.45117c-.39847-.85148-1.07957-1.47455-1.50391-2.10059-.42773-.65234-.65039-1.4707-.62744-2.29297.06114-1.36309.46178-1.40469.70898-2.21973.29639-.97656-.61572-1.90137-1.28174-2.57617-.19218-.1694-1.81395-2.1302-4.72656-3.45117-.31055-.14844-.6875-.29004-1.10107-.22363-.93544.13007-1.27826 1.0463-1.57227 1.44238-.70971.95559-2.92965.72321-4.06104 2.18164-.65869.85449-.6626 1.88965-.66602 2.80371-.00146.28516-.00146.57031-.02393.8418-.11719 1.29883-.87598 2.53418-1.97705 3.2207-1.18854.73462-2.94237 1.04691-3.85156 2.50977-.97559 1.5791-.3501 3.53027.55908 4.82813 1.90324 2.7356 4.73905 3.07005 6.41357 1.70117.6545-.54493 1.01097-1.25724 1.44775-1.80176.93164-1.16895 2.60986-1.76172 4.0752-1.43652 1.77972.40242 3.78578 2.20563 6.10791 1.49023 1.97902-.6274 3.01316-2.89317 2.08252-4.91309-.00096-.00097-.00145-.00292-.00242-.0039zm-2.52735 3.48535c-1.62629.49646-3.43153-1.09302-5.33301-1.52246-2.0376-.44922-4.28027.33887-5.57471 1.96387-.43565.54361-.80095 1.223-1.23047 1.58105-.98388.80688-2.83008.60977-4.229-1.40332-.60742-.86621-1.10645-2.21973-.51367-3.17871.58949-.94853 2.13614-1.26714 3.3667-2.02441 1.49463-.93262 2.52197-2.60352 2.68115-4.36719.02588-.31543.02783-.63965.0293-.96484.00293-.77344.00537-1.44141.35254-1.8916.73413-.94776 2.97666-.72136 4.07813-2.20508.09814-.13086.18799-.27832.27734-.42578.08789-.14551.23535-.38867.2998-.42676.26871.01535 2.53598 1.11452 4.32324 3.00879.27156.27625 1.09716 1.09653 1.14209 1.32227-.15232.4996-.69691.90348-.77197 2.60059-.08515 2.96107 1.68223 3.83081 2.27148 5.08398.55063 1.19785-.06077 2.49902-1.16894 2.8496z"/><path d="m61.89795 27.76465c0-6.07229-3.07464-11.82651-8.19727-15.22278v-5.61804c0-2.71387-2.20801-4.92188-4.92188-4.92188-22.73766 0-23.58588 0-37.75488 0-2.71387 0-4.92188 2.20801-4.92188 4.92188v50.0293c0 .01031.00537.0188.00586.02899v4.09601c0 2.71289 2.20703 4.91992 4.91992 4.91992h37.75c2.71289 0 4.91992-2.20703 4.91992-4.91992.0003-1.84977-.00108 6.70087.00293-18.0907 4.93336-3.27088 8.19728-8.87006 8.19728-15.22278zm-3.94531-8.67365c1.24616 2.0471 2.00877 4.25428 2.30029 6.58142-1.61898 1.59241-1.22257 2.9014-5.09668.79242-.84229-.4541-1.68359-.95996-1.90088-1.69141-.14063-.49121.01514-1.10742.41016-1.6123 1.28945-1.67718 3.85671-1.37236 4.28711-4.07013zm-50.35059-12.16717c0-1.88672 1.53516-3.42188 3.42188-3.42188h7.11377v48.52637h-7.10986c-2.15388 0-3.3247 1.32365-3.42578 1.39063 0 0 0-46.49512-.00001-46.49512zm41.17578 57.57422h-37.75c-1.88574 0-3.41992-1.53418-3.41992-3.41992l-.00098-4.17358c.02562-1.8297 1.52392-3.37329 3.41699-3.37329h37.75488c1.14794 0 2.46144-.4628 3.41895-1.38867v4.19824h-33.31005c-.41406 0-.75.33594-.75.75s.33594.75.75.75h33.31006v2.3457h-33.31006c-.41406 0-.75.33594-.75.75s.33594.75.75.75h33.24854c-.28871 1.59545-1.68092 2.81152-3.35841 2.81152zm3.42285-15.90418c-.00012.00513-.00293.0094-.00293.01453 0 1.88574-1.53418 3.41992-3.41992 3.41992h-29.14013v-48.52637h29.14111c1.88672 0 3.42188 1.53516 3.42188 3.42188v4.72314c-2.55103-1.35992-5.45752-2.13721-8.54395-2.13721-9.74081 0-18.25879 7.85389-18.25879 18.25391 0 9.84888 8.04912 18.25684 18.25781 18.25684 3.02057 0 6.04404-.80491 8.54492-2.13818zm-14.4292-33.59094c.70864.19231 1.4528.06715 1.87207.25781.41504.18457.63428.83887.45703 1.38379-.55799 1.78602-3.46244 2.01618-5.29297 2.53809-1.90332.55469-3.1792 1.54883-3.68994 2.87305 0 0-.00049 0-.00049.00098-.62673 1.63151.03528 3.53605-.72314 4.55469-.5423.72478-1.77995.97034-3.47925 1.40808-.00134-.08569-.01294-.16876-.01294-.25476 0-6.02517 3.25364-11.64269 8.62366-14.63757.54895.76384 1.18811 1.57781 2.24597 1.87584zm10.56348 26.98437c-.09692.59772-.04895 1.22241.13269 1.8194-3.17002.95399-6.66443.97584-10.03674-.133 1.01864-2.10017 2.37995-4.19137 4.58521-4.99597.91606-.3349 1.12985-.07597 1.35547.13184.61079.56319 1.024.75498 2.23926.59473.12939-.01758.2583-.03516.40186-.04492.87768-.07999 1.54053.44052 1.60352 1.06445.04289.38616-.19632 1.02267-.28127 1.56347zm1.55615 1.31458c-.09937-.35846-.13208-.72595-.0752-1.07825.08954-.56504.37454-1.20778.29199-1.95703-.14732-1.4636-1.57331-2.55767-3.20752-2.40234-.16064.00977-.32422.03125-.4873.05273-1.03459.14028-.66807-.02938-1.43799-.55078-.63818-.42188-1.49365-.4541-2.47314-.09766-1.49902.54688-2.88281 1.67773-4.00195 3.27246-.59424.85059-1.07385 1.75946-1.47778 2.60223-5.42957-2.35162-9.37866-7.49231-10.02441-13.60736 2.05237-.51098 3.71176-.84121 4.59839-2.0271 1.18302-1.58955.39131-3.53509.92139-4.91406.86842-2.24991 4.53403-2.03435 6.81787-3.15723 1.1167-.55176 1.89697-1.38477 2.19385-2.33691.41602-1.27441-.1582-2.71484-1.27197-3.20801-.77124-.35049-1.56906-.19435-2.08594-.33496-.50854-.14374-.88867-.5766-1.28149-1.10785 2.07202-.91919 4.35815-1.44 6.76685-1.44 5 0 9.48242 2.2168 12.55273 5.70642.7089 2.76233.13086 3.04153-1.56006 3.86487-2.62254 1.31386-3.24546 3.17686-2.83398 4.6123.3833 1.29004 1.55811 2.01465 2.62598 2.58984 2.35867 1.28605 4.29797 2.04859 5.95361.03833-.0237 7.0077-4.37087 13.00612-10.50393 15.48036z"/></g><g><g><path d="m43.37256 14.43359c-.19775 0-.36328-.15527-.37402-.35547-.01074-.20605.14795-.38281.35449-.39355.26465-.01465.52979-.02148.79736-.02148.20703 0 .375.16797.375.375s-.16797.375-.375.375c-.25391 0-.50635.00684-.75732.01953-.00684.00097-.01368.00097-.02051.00097z" fill="#fff"/></g></g><g><g><path d="m33.52979 18.92578c-.09375 0-.1875-.03516-.26025-.10547-.14893-.14355-.15332-.38086-.00977-.53027 2.24414-2.32617 5.10547-3.84863 8.27441-4.40137.20508-.03711.39844.10059.43408.30469s-.10107.39844-.30518.43359c-3.01123.52637-5.73047 1.97266-7.86328 4.18457-.07373.07618-.17187.11426-.27001.11426z" fill="#fff"/></g></g><g><g><path d="m38.55127 32.89648c-.1001 0-.19971-.04004-.27344-.11816-.1416-.15137-.13428-.38867.0166-.53027 1.97314-1.85254 5.00732-2.47949 7.55371-1.55566.19434.07031.29541.28516.22461.48047-.07031.19434-.28467.2959-.48047.22461-2.28516-.8291-5.01221-.2666-6.78418 1.39746-.07226.06835-.16455.10155-.25683.10155z" fill="#fff"/></g></g></g></g></g></svg>