<svg enable-background="new 0 0 512 512" height="512" viewBox="0 0 512 512" width="512" xmlns="http://www.w3.org/2000/svg"><g id="_x32_1_Website_Optimization"><g><path d="m423.504 80.744v281.305c0 14.626-11.827 26.4-26.4 26.4h-339.016c-14.573 0-26.4-11.774-26.4-26.4v-281.305z" fill="#e8f1f8"/><path d="m423.511 80.736v281.292c0 14.658-11.823 26.428-26.428 26.428h-339.015c-14.551 0-26.374-11.769-26.374-26.428v-46.918c35.309 26.749 79.391 42.638 127.164 42.638 116.465 0 210.888-94.423 210.888-210.888 0-23.111-3.691-45.312-10.592-66.124z" opacity=".12"/><path d="m380.706 200.348v-60.758c0-8.864-7.186-16.049-16.049-16.049h-274.121c-8.864 0-16.049 7.186-16.049 16.049v60.758c0 8.864 7.186 16.049 16.049 16.049h274.121c8.863.001 16.049-7.185 16.049-16.049z" fill="#475da9"/><path d="m380.713 139.584v60.774c0 8.88-7.169 16.049-16.049 16.049h-274.123c-8.88 0-16.049-7.169-16.049-16.049v-41.675c31.885 23.325 71.205 37.074 113.683 37.074 60.827 0 115.127-28.193 150.489-72.222h26c8.881 0 16.049 7.169 16.049 16.049z" opacity=".12"/><path d="m423.515 80.722v-48c0-14.58-11.82-26.4-26.4-26.4h-339.038c-14.58 0-26.4 11.82-26.4 26.4v48.001h391.838z" fill="#f14f4a"/><g><path d="m196.129 48.833h-126.212c-2.934 0-5.312-2.379-5.312-5.312 0-2.934 2.379-5.312 5.312-5.312h126.211c2.934 0 5.312 2.379 5.312 5.312.001 2.933-2.378 5.312-5.311 5.312z" fill="#e8f1f8"/></g><g><path d="m318.937 48.833h-4.423c-2.934 0-5.312-2.379-5.312-5.312 0-2.934 2.379-5.312 5.312-5.312h4.423c2.934 0 5.312 2.379 5.312 5.312s-2.379 5.312-5.312 5.312z" fill="#e8f1f8"/></g><g><path d="m352.105 48.833h-4.423c-2.934 0-5.312-2.379-5.312-5.312 0-2.934 2.379-5.312 5.312-5.312h4.423c2.934 0 5.312 2.379 5.312 5.312s-2.378 5.312-5.312 5.312z" fill="#e8f1f8"/></g><g><path d="m385.276 48.833h-4.423c-2.934 0-5.312-2.379-5.312-5.312 0-2.934 2.379-5.312 5.312-5.312h4.423c2.934 0 5.312 2.379 5.312 5.312s-2.379 5.312-5.312 5.312z" fill="#e8f1f8"/></g><path d="m344.805 381.579v13.752c0 4.638-3.677 8.315-8.315 8.315h-15.51c-1.039 6.316-2.719 12.473-4.957 18.469l13.512 7.755c3.918 2.239 5.277 7.356 3.038 11.274l-6.876 11.913c-2.239 3.918-7.356 5.277-11.354 3.038l-13.432-7.835c-4.078 4.957-8.555 9.434-13.512 13.511l7.835 13.511c2.239 3.919.88 9.036-3.038 11.274l-11.993 6.875c-3.918 2.319-8.955.96-11.273-3.037l-7.755-13.512c-5.917 2.239-12.073 3.918-18.469 4.957v15.59c0 4.558-3.678 8.235-8.235 8.235h-13.751c-4.557 0-8.315-3.677-8.315-8.235v-15.59c-6.316-1.039-12.472-2.718-18.389-4.957l-7.835 13.512c-2.239 3.998-7.276 5.356-11.273 3.037l-11.913-6.875c-3.918-2.239-5.277-7.356-3.038-11.274l7.836-13.511c-4.957-4.078-9.435-8.554-13.512-13.511l-13.512 7.835c-3.918 2.239-8.955.879-11.273-3.038l-6.876-11.913c-2.239-3.918-.879-9.035 3.038-11.274l13.512-7.755c-2.239-5.996-3.918-12.153-4.957-18.469h-15.591c-4.557 0-8.235-3.677-8.235-8.315v-13.752c0-4.557 3.678-8.235 8.235-8.235h15.591c1.039-6.396 2.718-12.552 4.957-18.468l-13.512-7.755c-3.918-2.239-5.277-7.356-3.038-11.273l6.876-11.993c2.319-3.918 7.355-5.276 11.273-3.038l13.512 7.836c3.998-4.878 8.554-9.435 13.512-13.432l-7.836-13.512c-2.238-3.998-.879-9.034 3.038-11.353l11.913-6.877c3.998-2.238 9.035-.878 11.273 3.039l7.835 13.591c5.916-2.319 12.073-3.998 18.389-5.037v-15.512c0-4.637 3.758-8.314 8.315-8.314h13.752c4.557 0 8.235 3.677 8.235 8.314v15.511c6.396 1.039 12.552 2.718 18.469 5.037l7.755-13.591c2.318-3.918 7.355-5.277 11.273-3.039l11.993 6.877c3.918 2.319 5.277 7.355 3.038 11.353l-7.835 13.512c4.957 3.998 9.434 8.554 13.512 13.432l13.432-7.836c3.998-2.238 9.115-.879 11.354 3.038l6.876 11.993c2.238 3.918.879 9.035-3.038 11.273l-13.512 7.755c2.238 5.916 3.918 12.073 4.957 18.468h15.511c4.636.001 8.313 3.679 8.313 8.236z" fill="#f78721"/><path d="m344.796 381.574v13.776c0 4.592-3.65 8.301-8.301 8.301h-15.543c-1.001 6.3-2.708 12.481-4.945 18.486l13.541 7.712c3.885 2.238 5.239 7.359 3.003 11.304l-6.829 11.892c-2.237 3.945-7.359 5.299-11.362 3.061l-13.423-7.829c-4.121 4.944-8.595 9.419-13.541 13.481l7.83 13.54c2.237 3.887.883 9.008-3.003 11.246l-12.01 6.888c-3.945 2.296-8.949.941-11.304-3.061l-7.712-13.482c-5.946 2.238-12.069 3.886-18.486 4.946v15.601c0 4.533-3.709 8.243-8.242 8.243h-13.776c-4.533 0-8.301-3.71-8.301-8.243v-15.601c-6.299-1.06-12.481-2.708-18.368-4.946l-7.83 13.482c-2.237 4.003-7.3 5.358-11.304 3.061l-11.892-6.888c-3.944-2.238-5.298-7.359-3.061-11.246l4.357-7.535c4.945.589 9.95.883 15.013.883 70.176 0 127.048-56.872 127.048-127.048 0-5.239-.294-10.421-1.001-15.542l9.008-5.24c4.003-2.237 9.125-.883 11.362 3.061l6.829 11.951c2.237 3.945.883 9.067-3.003 11.304l-13.541 7.771c2.237 5.887 3.945 12.069 4.945 18.427h15.543c4.649.001 8.299 3.71 8.299 8.244z" opacity=".12"/><path d="m269.207 388.464c0 22.989-18.623 41.612-41.6 41.612s-41.611-18.623-41.611-41.612c0-22.977 18.634-41.599 41.611-41.599s41.6 18.622 41.6 41.599z" fill="#e8f1f8"/><g><path d="m309.936 248.327h-164.674c-2.934 0-5.312-2.379-5.312-5.312s2.379-5.312 5.312-5.312h164.674c2.934 0 5.312 2.379 5.312 5.312s-2.378 5.312-5.312 5.312z" fill="#474747"/></g><path d="m480.324 283.864c0 31.404-25.437 56.842-56.842 56.842-31.359 0-56.797-25.438-56.797-56.842 0-31.359 25.437-56.797 56.797-56.797 31.404 0 56.842 25.438 56.842 56.797z" fill="#0e9c4a"/><g><path d="m411.855 300.283-9.496-9.494c-2.075-2.073-2.075-5.437 0-7.512s5.437-2.075 7.512 0l5.74 5.738 21.524-21.524c2.075-2.075 5.437-2.075 7.512 0s2.075 5.437 0 7.512l-25.28 25.28c-2.075 2.075-5.436 2.075-7.512 0z" fill="#e8f1f8"/></g></g></g></svg>