<svg id="Layer_1" viewBox="0 0 512 512" xmlns="http://www.w3.org/2000/svg" data-name="Layer 1"><path d="m340.373 136.505h108.539v249.08h-108.539z" fill="#3589c9"/><path d="m340.373 164.994h18.652v218.098h-18.652z" fill="#1b6fab"/><path d="m171.627 66.972h168.747v288.227h-168.747z" fill="#11bef7"/><path d="m171.627 66.972h18.652v308.579h-18.652z" fill="#00ade6"/><path d="m63.088 164.994h108.539v218.098h-108.539z" fill="#3589c9"/><path d="m63.088 164.994h18.652v218.098h-18.652z" fill="#1b6fab"/><path d="m49.284 136.505h122.343v28.488h-122.343z" fill="#ffcb5b"/><path d="m340.373 136.505h122.343v28.488h-122.343z" fill="#ffcb5b"/><path d="m191.611 9.995h128.778v42.718h-128.778z" fill="#11bef7"/><path d="m154.364 38.484h203.272v28.488h-203.272z" fill="#ffcb5b"/><path d="m206.011 99.995h100.12v41.244h-100.12z" fill="#e2e5e7"/><g fill-rule="evenodd"><path d="m502.005 379.775c-2.268-62.277-141.222-62.277-143.49 0v33.534h143.49z" fill="#f2992c"/><path d="m502.005 379.775c-1.02-27.581-28.828-42.945-59.698-46.091-30.869 3.146-58.677 18.51-59.669 46.091v33.534h119.367z" fill="#faa845"/><path d="m153.485 379.775c-2.268-62.277-141.222-62.277-143.49 0v33.534h143.49z" fill="#cd212d"/><path d="m153.485 379.775c-.992-27.581-28.8-42.945-59.669-46.091-30.869 3.146-58.677 18.51-59.698 46.091v33.534h119.367z" fill="#ee2b39"/><path d="m327.731 379.775c-2.268-62.277-141.222-62.277-143.49 0v33.534h143.49z" fill="#32a13f"/><path d="m327.731 379.775c-.992-27.581-28.8-42.945-59.669-46.091-30.869 3.146-58.677 18.51-59.698 46.091v33.534h119.367z" fill="#3cb54b"/><path d="m399.504 468.443c-2.296-62.277-141.222-62.277-143.518 0v33.562h143.518z" fill="#00ade6"/><path d="m399.504 468.443c-1.021-27.581-28.828-42.945-59.698-46.091-30.869 3.146-58.677 18.51-59.698 46.091v33.562h119.395v-33.562z" fill="#11bef7"/><path d="m255.986 468.443c-2.268-62.277-141.222-62.277-143.49 0v33.562h143.49z" fill="#f7b84e"/><path d="m255.986 468.443c-.992-27.581-28.8-42.945-59.669-46.091-30.869 3.146-58.677 18.51-59.698 46.091v33.562h119.367z" fill="#ffcb5b"/></g><path d="m365.29 257.403c-3.317 0-6.01-2.693-6.01-6.01s2.693-5.981 6.01-5.981h17.263c3.317 0 5.981 2.665 5.981 5.981s-2.665 6.01-5.981 6.01zm41.443-58.139c-3.317 0-6.01-2.665-6.01-5.981s2.693-6.01 6.01-6.01h17.235c3.316 0 6.009 2.693 6.009 6.01s-2.693 5.981-6.009 5.981zm0 29.083c-3.317 0-6.01-2.693-6.01-6.009s2.693-6.01 6.01-6.01h17.235c3.316 0 6.009 2.693 6.009 6.01s-2.693 6.009-6.009 6.009zm-41.443 0c-3.317 0-6.01-2.693-6.01-6.009s2.693-6.01 6.01-6.01h17.263c3.317 0 5.981 2.693 5.981 6.01s-2.665 6.009-5.981 6.009zm-235.843-29.083c-3.317 0-6.01-2.665-6.01-5.981s2.693-6.01 6.01-6.01h17.263c3.317 0 5.981 2.693 5.981 6.01s-2.665 5.981-5.981 5.981zm0 29.083c-3.317 0-6.01-2.693-6.01-6.009s2.693-6.01 6.01-6.01h17.263c3.317 0 5.981 2.693 5.981 6.01s-2.665 6.009-5.981 6.009zm-41.443 0c-3.316 0-5.981-2.693-5.981-6.009s2.665-6.01 5.981-6.01h17.263c3.316 0 6.009 2.693 6.009 6.01s-2.693 6.009-6.009 6.009zm0-29.083c-3.316 0-5.981-2.665-5.981-5.981s2.665-6.01 5.981-6.01h17.263c3.316 0 6.009 2.693 6.009 6.01s-2.693 5.981-6.009 5.981zm159.449-15.449c-3.317 0-6.01-2.693-6.01-6.01s2.693-6.009 6.01-6.009h17.235c3.316 0 6.01 2.693 6.01 6.009s-2.693 6.01-6.01 6.01zm41.442 0c-3.316 0-6.009-2.693-6.009-6.01s2.693-6.009 6.009-6.009h17.235c3.317 0 6.01 2.693 6.01 6.009s-2.693 6.01-6.01 6.01zm-41.442 31.294c-3.317 0-6.01-2.665-6.01-5.981s2.693-6.01 6.01-6.01h17.235c3.316 0 6.01 2.693 6.01 6.01s-2.693 5.981-6.01 5.981zm41.442 0c-3.316 0-6.009-2.665-6.009-5.981s2.693-6.01 6.009-6.01h17.235c3.317 0 6.01 2.693 6.01 6.01s-2.693 5.981-6.01 5.981zm-82.885 0c-3.316 0-6.01-2.665-6.01-5.981s2.693-6.01 6.01-6.01h17.235c3.317 0 6.01 2.693 6.01 6.01s-2.693 5.981-6.01 5.981zm0-31.294c-3.316 0-6.01-2.693-6.01-6.01s2.693-6.009 6.01-6.009h17.235c3.317 0 6.01 2.693 6.01 6.009s-2.693 6.01-6.01 6.01zm159.279 15.449c-3.317 0-6.01-2.665-6.01-5.981s2.693-6.01 6.01-6.01h17.263c3.317 0 5.981 2.693 5.981 6.01s-2.665 5.981-5.981 5.981zm-235.843 58.139c-3.317 0-6.01-2.693-6.01-6.01s2.693-5.981 6.01-5.981h17.263c3.317 0 5.981 2.665 5.981 5.981s-2.665 6.01-5.981 6.01z" fill="#e2e5e7"/><path d="m154.364 38.484h18.652v28.488h-18.652z" fill="#f7b84e"/><path d="m49.284 136.505h18.652v28.488h-18.652z" fill="#f7b84e"/><path d="m340.373 136.505h18.652v28.488h-18.652z" fill="#f7b84e"/><path d="m191.611 9.995h18.652v28.488h-18.652z" fill="#00ade6"/><path d="m206.011 99.995h18.652v41.244h-18.652z" fill="#cad1d8"/><path d="m430.26 262.392c-20.948 0-37.956 17.008-37.956 37.956s17.008 37.928 37.956 37.928 37.928-16.98 37.928-37.928-16.979-37.956-37.928-37.956zm-348.52 0c-20.948 0-37.928 17.008-37.928 37.956s16.98 37.928 37.928 37.928 37.927-16.98 37.927-37.928-16.979-37.956-37.927-37.956zm174.246 0c-20.948 0-37.927 17.008-37.927 37.956s16.979 37.928 37.927 37.928 37.956-16.98 37.956-37.928-17.008-37.956-37.956-37.956zm-71.745 88.696c-20.948 0-37.927 16.979-37.927 37.927s16.979 37.928 37.927 37.928 37.956-16.979 37.956-37.928-17.008-37.927-37.956-37.927zm143.49 0c-20.948 0-37.927 16.979-37.927 37.927s16.979 37.928 37.927 37.928 37.956-16.979 37.956-37.928-16.979-37.927-37.956-37.927z" fill="#e2b698" fill-rule="evenodd"/><path d="m437.006 337.68c17.717-3.203 31.181-18.708 31.181-37.332s-13.465-34.157-31.181-37.332c-17.745 3.175-31.181 18.68-31.181 37.332s13.436 34.129 31.181 37.332zm-348.52-74.665c-17.717 3.175-31.181 18.68-31.181 37.332s13.465 34.129 31.181 37.332c17.745-3.203 31.181-18.708 31.181-37.332s-13.436-34.157-31.181-37.332zm174.274 0c-17.745 3.175-31.209 18.68-31.209 37.332s13.465 34.129 31.209 37.332c17.717-3.203 31.181-18.708 31.181-37.332s-13.464-34.157-31.181-37.332zm-71.773 88.668c-17.717 3.175-31.181 18.68-31.181 37.332s13.464 34.157 31.181 37.332c17.745-3.175 31.209-18.68 31.209-37.332s-13.465-34.157-31.209-37.332zm143.518 0c-17.745 3.175-31.209 18.68-31.209 37.332s13.465 34.157 31.209 37.332c17.717-3.175 31.181-18.68 31.181-37.332s-13.464-34.157-31.181-37.332z" fill="#efc9ae" fill-rule="evenodd"/></svg>