<svg id="Layer_1" enable-background="new 0 0 512 512" height="512" viewBox="0 0 512 512" width="512" xmlns="http://www.w3.org/2000/svg" xmlns:xlink="http://www.w3.org/1999/xlink"><linearGradient id="SVGID_1_" gradientUnits="userSpaceOnUse" x1="256" x2="256" y1="36.442" y2="475.558"><stop offset="0" stop-color="#233e92"/><stop offset="1" stop-color="#00aeef"/></linearGradient><path d="m354.33 311.15c-19.49-19.49-53.15-5.55-53.15 22.09 0 27.76 33.66 41.69 53.15 22.09 12.16-12.17 12.16-31.9 0-44.18zm-100.28-27.88c-19.61-19.61-53.27-5.67-53.27 22.09 0 27.64 33.66 41.57 53.27 21.97 12.17-12.17 12.17-31.89 0-44.06zm-179.53-203.38c.35 9.45 14.17 13.82 17.6.24v-34.85c0-11.57-17.6-11.57-17.6 0zm74.65 0c.35 9.45 14.17 13.82 17.72.24v-34.85c0-11.57-17.72-11.57-17.72 0zm74.64 0c.35 9.45 14.17 14.06 17.72.24v-34.85c0-11.57-17.72-11.57-17.72 0zm74.77 0c.35 12.05 17.36 11.34 17.6.24v-34.85c0-2.36-1.06-4.61-2.6-6.26-5.55-5.55-15-1.54-15 6.26zm108.07-5.32c0 11.22-1.18 19.84-11.81 26.46-16.06 9.92-37.32-1.89-37.56-20.79v-5.67h-25.28c0 8.15.24 13.35-5.2 20.55-4.72 5.91-11.81 9.45-19.49 9.45 0 1.65-24.45-2.72-24.68-24.33v-5.67h-25.28c0 11.22-1.3 19.84-11.93 26.46-15.94 9.92-37.2-1.89-37.44-20.79v-5.67h-25.28c0 11.22-1.3 19.84-11.93 26.46-15.94 9.92-37.32-1.89-37.44-20.79v-5.67h-25.28c0 11.22-1.3 19.84-11.93 26.46-15.94 9.92-37.32-1.89-37.44-20.79v-5.67h-19.83c-7.09 0-12.87 5.79-12.87 12.76v40.51h413.39v-40.51c0-6.97-5.79-12.76-12.76-12.76zm-33.43 5.32c.24 8.39 10.51 12.64 16.65 4.02l.94-3.78v-34.85c0-11.57-17.6-11.57-17.6 0v34.61zm-91.53 309.45c-13.82-35.67-59.76-46.06-87.4-18.54-9.57 9.69-15.59 23.03-15.59 37.68v67.09h84.45v-39.09c0-18.21 7.08-34.74 18.54-47.14zm150.94 21.73c-29.29 0-53.27 23.98-53.27 53.27v11.22h106.65c0-19.02-.24-33.43-15.71-48.9-9.67-9.69-23.02-15.59-37.67-15.59zm-50.55 6.14c-5.31-13.23-15.59-24.09-28.7-29.76-34.61-14.88-74.41 10.28-74.41 49.02v39.09h84.57v-11.22c0-18.19 6.97-34.73 18.54-47.13zm50.55-103.11 6.73.47v-170.78h-413.38v248.5c0 3.54 1.54 6.73 3.78 9.09 2.36 2.36 5.55 3.78 9.09 3.78h124.02c1.3-27.17 18.54-50.67 42.99-60.71-38.5-25.75-20.2-86.22 26.1-86.22s64.72 60.47 26.1 86.22c15.83 6.5 28.82 18.78 36.26 34.25 3.78-2.48 7.68-4.61 11.93-6.38-38.62-25.75-20.2-86.1 26.1-86.1s64.61 60.35 26.1 86.22c15.35 6.5 27.87 17.6 35.55 32.72 5.55 0 3.66-1.18 12.52-4.84-10.04-9.57-15.94-13.7-19.49-27.4-7.43-29.65 14.54-58.58 45.6-58.82zm11.82 18.19c-10.51-2.01-16.77-4.25-27.28 1.89l-11.93 12.17c-5.08 9.69-4.96 23.62.95 31.3l11.57 10.98c4.72 2.36 9.33 3.66 14.53 3.66 34.71.12 43.45-47.24 12.16-60zm-358.47-40.75 24.09-9.57c10.51-4.25 15-2.95 25.39 1.18l21.02 8.39c-.71-5.67-4.37-31.06-3.19-34.84s17.72-22.44 21.26-26.81c-6.14-1.18-30.71-5.43-34.13-7.8-3.31-2.24-16.18-24.09-19.13-28.94-2.48 3.9-11.34 18.78-16.42 25.63-2.72 3.78-3.66 4.25-7.91 5.2l-29.06 5.91c3.54 4.37 20.08 23.03 21.26 26.81 1.19 3.78-2.47 29.17-3.18 34.84zm41.46 5.32c-3.31-1.18-5.79-2.48-11.93 0l-32.83 13.11c-6.85 2.72-14.41-2.83-13.46-10.63l4.25-38.03-24.09-28.94c-4.96-6.02-.95-14.65 5.67-15.94l37.68-7.8 20.08-31.77c3.78-6.02 12.87-6.38 16.89 0l20.08 31.77 37.68 7.8c7.32 1.42 10.39 10.28 5.67 15.94l-24.09 28.94 4.25 38.27c.59 6.14-2.48 10.04-8.5 10.98-6.41.82-25.31-9.69-37.35-13.7z" fill="url(#SVGID_1_)"/></svg>