<svg viewBox="0 0 64 64" xmlns="http://www.w3.org/2000/svg"><g id="_10-fingerprint" data-name="10-fingerprint"><g id="color"><rect fill="#24be60" height="62" rx="4" width="38" x="4" y="1"/><path d="m23 1v62h-15a4 4 0 0 1 -4-4v-54a4 4 0 0 1 4-4z" fill="#1a8f48"/><path d="m24 60h-2a1 1 0 0 1 0-2h2a1 1 0 0 1 0 2z" fill="#1a8f48"/><path d="m42 5h-9a2.015 2.015 0 0 0 -2 2 2.006 2.006 0 0 1 -2 2h-12a2.015 2.015 0 0 1 -2-2 2.006 2.006 0 0 0 -2-2h-9a4 4 0 0 1 4-4h30a4 4 0 0 1 4 4z" fill="#283640"/><path d="m23 1v8h-6a2.015 2.015 0 0 1 -2-2 2.006 2.006 0 0 0 -2-2h-9a4 4 0 0 1 4-4z" fill="#202d35"/><g fill="#e6e4df"><path d="m23 41a8.009 8.009 0 0 1 -8-8 2 2 0 0 1 4 0 4 4 0 0 0 8 0v-3a2 2 0 0 1 4 0v3a8.009 8.009 0 0 1 -8 8z"/><path d="m17 32a2 2 0 0 1 -2-2v-3a8 8 0 0 1 16 0 2 2 0 0 1 -4 0 4 4 0 0 0 -8 0v3a2 2 0 0 1 -2 2z"/><path d="m25 32a2 2 0 0 1 -2-2v-3a2 2 0 0 1 -4 0 4 4 0 0 1 8 0v3a2 2 0 0 1 -2 2z"/><path d="m23 37a4 4 0 0 1 -4-4 2 2 0 0 1 4 0 2 2 0 0 1 4 0 4 4 0 0 1 -4 4z"/><path d="m21 32a2 2 0 0 1 -2-2v-1a2 2 0 0 1 4 0v1a2 2 0 0 1 -2 2z"/></g><path d="m12 22a2 2 0 0 1 -2-2 4 4 0 0 1 4-4 2 2 0 0 1 0 4 2 2 0 0 1 -2 2z" fill="#fdc42e"/><path d="m34 22a2 2 0 0 1 -2-2 2 2 0 1 1 0-4 4 4 0 0 1 4 4 2 2 0 0 1 -2 2z" fill="#fdc42e"/><path d="m14 44a4 4 0 0 1 -4-4 2 2 0 0 1 4 0 2 2 0 1 1 0 4z" fill="#fdc42e"/><path d="m32 44a2 2 0 0 1 0-4 2 2 0 0 1 4 0 4 4 0 0 1 -4 4z" fill="#fdc42e"/><path d="m60 26v20a7.005 7.005 0 0 1 -6 7c-5 1-7 4-7 4s-2-3-7-4a7.005 7.005 0 0 1 -6-7v-20c3.31 0 6-1.34 6-3h14c0 1.66 2.69 3 6 3z" fill="#1caec9"/><path d="m47 23v34s-2-3-7-4a7.005 7.005 0 0 1 -6-7v-20c3.31 0 6-1.34 6-3z" fill="#128297"/><circle cx="47" cy="39" fill="#fdc42e" r="9"/><path d="m47 30v18a9 9 0 0 1 0-18z" fill="#ef8825"/><path d="m46 44a1.992 1.992 0 0 1 -1.414-.586l-3-3a2 2 0 0 1 2.828-2.828l1.586 1.585 7.586-7.585a2 2 0 0 1 2.828 2.828l-9 9a1.992 1.992 0 0 1 -1.414.586z" fill="#1a8f48"/></g><g id="line" fill="#222325"><path d="m47 58a1 1 0 0 1 -.828-.443c-.071-.1-1.876-2.677-6.364-3.575a8 8 0 0 1 -6.808-7.982v-20a1 1 0 0 1 1-1c3.052 0 5-1.185 5-2a1 1 0 0 1 1-1h14a1 1 0 0 1 1 1c0 .815 1.948 2 5 2a1 1 0 0 1 1 1v20a8 8 0 0 1 -6.8 7.98c-4.488.9-6.293 3.471-6.367 3.58a1.006 1.006 0 0 1 -.833.44zm-12-31.037v19.037a6.027 6.027 0 0 0 5.2 6.02 13.133 13.133 0 0 1 6.8 3.455 13.133 13.133 0 0 1 6.8-3.455 6.027 6.027 0 0 0 5.2-6.02v-19.037c-2.9-.217-5.134-1.376-5.8-2.963h-12.4c-.666 1.587-2.9 2.746-5.8 2.963z"/><path d="m47 49a10 10 0 1 1 6.285-17.778 1 1 0 1 1 -1.258 1.555 7.975 7.975 0 1 0 2.518 3.556 1 1 0 0 1 1.887-.666 10.009 10.009 0 0 1 -9.432 13.333z"/><path d="m46 45a2.978 2.978 0 0 1 -2.121-.879l-3-3a3 3 0 0 1 0-4.243 3.072 3.072 0 0 1 4.242 0l.879.878 6.879-6.878a3 3 0 1 1 4.242 4.243l-9 9a2.978 2.978 0 0 1 -2.121.879zm-3-7a1 1 0 0 0 -.707 1.707l3 3a1.023 1.023 0 0 0 1.414 0l9-9a1 1 0 0 0 -1.414-1.414l-7.586 7.585a1 1 0 0 1 -1.414 0l-1.586-1.585a1 1 0 0 0 -.707-.293z"/><path d="m38 64h-30a5.006 5.006 0 0 1 -5-5v-54a5.006 5.006 0 0 1 5-5h30a5.006 5.006 0 0 1 5 5v18a1 1 0 0 1 -2 0v-18a3 3 0 0 0 -3-3h-30a3 3 0 0 0 -3 3v54a3 3 0 0 0 3 3h30a3 3 0 0 0 3-3v-5a1 1 0 0 1 2 0v5a5.006 5.006 0 0 1 -5 5z"/><path d="m29 10h-12a3 3 0 0 1 -3-3 1 1 0 0 0 -1-1h-9v-2h9a3 3 0 0 1 3 3 1 1 0 0 0 1 1h12a1 1 0 0 0 1-1 3 3 0 0 1 3-3h9v2h-9a1 1 0 0 0 -1 1 3 3 0 0 1 -3 3z"/><path d="m24 59h-2a1 1 0 0 1 0-2h2a1 1 0 0 1 0 2z"/><path d="m23 40a7.008 7.008 0 0 1 -7-7 1 1 0 0 1 2 0 5 5 0 0 0 10 0v-3a1 1 0 0 1 2 0v3a7.008 7.008 0 0 1 -7 7z"/><path d="m17 31a1 1 0 0 1 -1-1v-3a7 7 0 0 1 14 0 1 1 0 0 1 -2 0 5 5 0 0 0 -10 0v3a1 1 0 0 1 -1 1z"/><path d="m25 31a1 1 0 0 1 -1-1v-3a1 1 0 0 0 -2 0 1 1 0 0 1 -2 0 3 3 0 0 1 6 0v3a1 1 0 0 1 -1 1z"/><path d="m23 36a3 3 0 0 1 -3-3 1 1 0 0 1 2 0 1 1 0 0 0 2 0 1 1 0 0 1 2 0 3 3 0 0 1 -3 3z"/><path d="m21 31a1 1 0 0 1 -1-1v-1a1 1 0 0 1 2 0v1a1 1 0 0 1 -1 1z"/><path d="m12 21a1 1 0 0 1 -1-1 3 3 0 0 1 3-3 1 1 0 0 1 0 2 1 1 0 0 0 -1 1 1 1 0 0 1 -1 1z"/><path d="m34 21a1 1 0 0 1 -1-1 1 1 0 0 0 -1-1 1 1 0 0 1 0-2 3 3 0 0 1 3 3 1 1 0 0 1 -1 1z"/><path d="m14 43a3 3 0 0 1 -3-3 1 1 0 0 1 2 0 1 1 0 0 0 1 1 1 1 0 0 1 0 2z"/><path d="m32 43a1 1 0 0 1 0-2 1 1 0 0 0 1-1 1 1 0 0 1 2 0 3 3 0 0 1 -3 3z"/></g></g></svg>