<svg id="Capa_1" enable-background="new 0 0 512 512" height="512" viewBox="0 0 512 512" width="512" xmlns="http://www.w3.org/2000/svg" xmlns:xlink="http://www.w3.org/1999/xlink"><linearGradient id="SVGID_1_" gradientUnits="userSpaceOnUse" x1="256" x2="256" y1="405.5" y2="15.5"><stop offset="0" stop-color="#a93aff"/><stop offset="1" stop-color="#ff81ff"/></linearGradient><linearGradient id="SVGID_2_" gradientUnits="userSpaceOnUse" x1="218" x2="218" y1="285.917" y2="135.5"><stop offset="0" stop-color="#ffbef9"/><stop offset="1" stop-color="#fff1ff"/></linearGradient><g><g><g><path d="m481 126.433v-5.933c0-57.891-47.109-105-105-105-21.445 0-42.363 6.738-60 19.189-35.273-24.902-84.727-24.902-120 0-17.637-12.451-38.555-19.189-60-19.189-57.891 0-105 47.109-105 105v5.933c-19.395 24.111-31 53.745-31 84.067s11.605 59.956 31 84.067v5.933c0 57.891 47.109 105 105 105 21.445 0 42.363-6.738 60-19.189 35.273 24.902 84.727 24.902 120 0 17.637 12.451 38.555 19.189 60 19.189 57.891 0 105-47.109 105-105v-5.933c19.395-24.111 31-53.745 31-84.067s-11.605-59.956-31-84.067z" fill="url(#SVGID_1_)"/></g></g><g><g><path d="m45 406.5c-24.814 0-45 20.186-45 45s20.186 45 45 45 45-20.186 45-45-20.186-45-45-45zm391-211c0-33.091-26.924-60-60-60s-60 26.909-60 60v30c0 33.091 26.924 60 60 60 11.093 0 21.361-3.234 30.286-8.503l4.109 4.109c5.859 5.859 15.351 5.859 21.211 0 5.859-5.859 5.859-15.352 0-21.211l-4.107-4.107c5.27-8.923 8.501-19.193 8.501-30.287zm-30 30c0 2.591-.859 4.909-1.479 7.31l-17.915-17.915c-5.859-5.859-15.352-5.859-21.211 0s-5.859 15.352 0 21.211l17.915 17.915c-2.4.621-4.719 1.479-7.31 1.479-16.553 0-30-13.462-30-30v-30c0-16.538 13.447-30 30-30s30 13.462 30 30zm-151.207-80.656c-1.938-4.751-7.496-9.188-13.773-9.223-5.264 0-11.563 3.711-13.813 9.221l-45.24 120.385c-2.93 7.764.996 16.406 8.76 19.321 7.747 2.889 16.396-1.005 19.307-8.774l7.603-20.273h46.729l7.603 20.273c2.913 7.773 11.564 11.662 19.307 8.774 7.764-2.915 11.689-11.558 8.76-19.321zm-25.907 80.656 12.114-32.305 12.114 32.305zm-62.886-60c8.291 0 15-6.709 15-15s-6.709-15-15-15h-75c-8.291 0-15 6.709-15 15v120c0 8.291 6.709 15 15 15s15-6.709 15-15v-45h60c8.291 0 15-6.709 15-15s-6.709-15-15-15h-60v-30z" fill="url(#SVGID_2_)"/></g></g></g></svg>