<svg id="Layer_1" viewBox="0 0 512 512" xmlns="http://www.w3.org/2000/svg" data-name="Layer 1"><path d="m60.152 140.712a7.1 7.1 0 1 1 0-14.2h19.888a7.1 7.1 0 0 1 0 14.2zm40.953 0a7.1 7.1 0 0 1 0-14.2h117.516a7.1 7.1 0 1 1 0 14.2zm-75.211 261.988a7.1 7.1 0 0 1 0-14.2h42.736a7.1 7.1 0 0 1 0 14.2zm63.8 0a7.1 7.1 0 1 1 0-14.2h128.927a7.1 7.1 0 0 1 0 14.2zm-26.841-43.655a7.1 7.1 0 0 1 0-14.2h122.947a7.1 7.1 0 0 1 0 14.2zm-35.608-43.684a7.1 7.1 0 1 1 0-14.2h95.846a7.1 7.1 0 1 1 0 14.2zm-20.175-43.655a7.1 7.1 0 0 1 0-14.2h37.361a7.1 7.1 0 1 1 0 14.2zm58.456 0a7.1 7.1 0 1 1 0-14.2h98.145a7.1 7.1 0 1 1 0 14.2zm-18.135-43.655a7.1 7.1 0 0 1 0-14.2h39.374a7.1 7.1 0 0 1 0 14.2zm60.439 0a7.1 7.1 0 0 1 0-14.2h61.158a7.1 7.1 0 0 1 0 14.2zm-81.936-43.684a7.085 7.085 0 1 1 0-14.169h97.2a7.085 7.085 0 1 1 0 14.169z" fill="#3a6584"/><path d="m488.255 104.672a18.874 18.874 0 0 1 0 26.671l-138.9 138.9 13.91 51.9-42.1-11.266-2.615-9.8-7.185 7.156-42.074-11.266 37.964-37.993-50.842-189.737a18.933 18.933 0 0 1 13.364-23.107 18.892 18.892 0 0 1 23.107 13.335l45.207 168.672 123.493-123.465a18.874 18.874 0 0 1 26.671 0z" fill="#3a6584" fill-rule="evenodd"/><path d="m333.406 318.523c-6.437 24-42.735 13.708-36.441-9.772 21.985-82.137 48.135-179.736 70.153-261.873a18.878 18.878 0 0 1 36.47 9.771c-22.014 82.137-48.167 179.736-70.182 261.874z" fill="#3a6584" fill-rule="evenodd"/><path d="m505.7 312.142c-26.267 97.944-126.942 156.084-224.914 129.845-97.945-26.268-156.086-126.942-129.846-224.915 26.268-97.944 126.942-156.083 224.915-129.844 97.945 26.272 156.084 126.942 129.845 224.914z" fill="#ff5876" fill-rule="evenodd"/><path d="m478.914 304.958a155.907 155.907 0 1 1 -110.244-190.945 155.923 155.923 0 0 1 110.244 190.945z" fill="#ffe6eb" fill-rule="evenodd"/><path d="m342.89 182.844a7.093 7.093 0 1 1 13.709 3.65l-20.376 75.987 29.688 29.688a7.1 7.1 0 0 1 -10.059 10.03l-32.562-32.562v-.029a7.03 7.03 0 0 1 -1.811-6.84z" fill="#3a6584"/><g fill-rule="evenodd"><path d="m332.544 248.8a16.379 16.379 0 1 1 -20.06 11.582 16.362 16.362 0 0 1 20.06-11.582z" fill="#eb9c2c"/><path d="m351.225 12.304 83.402 22.359-8.737 32.504-83.373-22.33z" fill="#ffba57"/><path d="m503.285 408.477a91.219 91.219 0 1 1 -91.219-91.219 91.217 91.217 0 0 1 91.219 91.219z" fill="#4bd16d"/><path d="m391.345 425.692-17.5-17.531a11.574 11.574 0 0 0 -16.382 16.353l25.722 25.693a11.518 11.518 0 0 0 16.353 0l67.104-67.107a11.563 11.563 0 1 0 -16.352-16.352z" fill="#eaf6ff"/><path d="m444.571 175.055a183.187 183.187 0 0 1 17.042 137.087q-2.285 8.493-5.288 16.554a96.161 96.161 0 0 1 10.777 7.013 156.172 156.172 0 0 0 -42.678-193.9q-5.475-4.268-11.352-8.1 4.914 4.872 9.427 10.03a183.958 183.958 0 0 1 22.072 31.326z" fill="#e6cfd4"/><path d="m451.094 168.531a156.12 156.12 0 0 1 16.006 167.178 91.259 91.259 0 0 1 20.089 21.037 183.769 183.769 0 0 0 -43.023-234.657 181.949 181.949 0 0 0 -50.351-29.027 181.557 181.557 0 0 0 -36.442-9.772 182.3 182.3 0 0 0 -51.185-1.005 184.011 184.011 0 0 1 48.081 12.559 183.177 183.177 0 0 1 58.8 38.855q5.863 3.837 11.352 8.1a156.452 156.452 0 0 1 26.67 26.727z" fill="#e84362"/></g><path d="m194.509 236.1a7.093 7.093 0 1 1 3.65-13.709l18.163 4.886a7.079 7.079 0 1 1 -3.65 13.68zm32.159-63.083a7.113 7.113 0 0 1 10.059-10.059l13.278 13.307a7.092 7.092 0 1 1 -10.03 10.03zm59.432-38.57a7.093 7.093 0 1 1 13.709-3.65l4.857 18.134a7.1 7.1 0 0 1 -13.709 3.679zm70.728-3.65a7.093 7.093 0 1 1 13.709 3.65l-4.886 18.163a7.079 7.079 0 1 1 -13.68-3.65zm63.083 32.188a7.092 7.092 0 1 1 10.03 10.03l-13.277 13.278a7.092 7.092 0 1 1 -10.03-10.03zm38.568 59.4a7.093 7.093 0 1 1 3.65 13.709l-18.129 4.861a7.1 7.1 0 0 1 -3.679-13.709zm3.65 70.728a7.093 7.093 0 1 1 -3.65 13.709l-18.163-4.857a7.093 7.093 0 0 1 3.65-13.709zm-162.32 105.3a7.093 7.093 0 1 1 -13.709-3.65l4.857-18.163a7.093 7.093 0 0 1 13.709 3.65zm-63.083-32.159a7.113 7.113 0 1 1 -10.058-10.054l13.307-13.278a7.093 7.093 0 1 1 10.03 10.031zm-38.568-59.433a7.093 7.093 0 1 1 -3.65-13.709l18.134-4.857a7.1 7.1 0 0 1 3.679 13.709z" fill="#3a6584"/><path d="m482.765 408.477a91.252 91.252 0 0 1 -80.959 90.673 92.783 92.783 0 0 0 10.26.546 91.253 91.253 0 0 0 55.034-163.987 96.161 96.161 0 0 0 -10.777-7.013 90.959 90.959 0 0 0 -44.259-11.438 92.747 92.747 0 0 0 -10.26.575 91.2 91.2 0 0 1 80.959 90.644z" fill="#20b345" fill-rule="evenodd"/><path d="m376.171 87.343a178.1 178.1 0 0 1 17.646 5.719c2.931-10.921 5.805-21.67 8.622-32.159l-17.905-4.8q-4.1 15.3-8.363 31.24z" fill="#345b77" fill-rule="evenodd"/><path d="m348.006 24.375 33.395 8.966 16.583 4.426 16.266 4.369-5.489 20.462 17.129 4.569 8.737-32.504-83.402-22.359z" fill="#eb9c2c" fill-rule="evenodd"/><path d="m321.537 249.692a16.376 16.376 0 0 1 0 29.831 16.382 16.382 0 0 1 0-29.831z" fill="#ffba57" fill-rule="evenodd"/></svg>