<svg id="Layer_1" enable-background="new 0 0 512 512" viewBox="0 0 512 512" xmlns="http://www.w3.org/2000/svg" xmlns:xlink="http://www.w3.org/1999/xlink"><linearGradient id="SVGID_1_" gradientUnits="userSpaceOnUse" x1="91.543" x2="497.294" y1="510.666" y2="104.915"><stop offset="0" stop-color="#fcc60e"/><stop offset="1" stop-color="#e92e29"/></linearGradient><path d="m278.333 352.837-58.325 33.971c-.788.459-1.58.878-2.379 1.258.069-.232.135-.466.198-.702 3.37-12.581-4.06-25.7-16.915-29.868-.343-.11-.692-.198-1.047-.263-16.528-2.98-32.948-8.917-46.142-13.688-4.641-1.678-9.024-3.263-12.778-4.479-15.99-5.188-30.179 1.083-41.953 7.9l-40.923 23.694-2.687-4.747c-2.177-3.848-5.731-6.619-10.007-7.805-4.274-1.186-8.75-.639-12.598 1.539l-16.365 9.262c-7.959 4.504-10.77 14.645-6.265 22.605l48.11 85.008c2.177 3.848 5.731 6.619 10.008 7.805 1.479.41 2.979.612 4.472.612 2.822 0 5.608-.727 8.126-2.151l16.364-9.262c3.848-2.177 6.619-5.731 7.805-10.008 1.186-4.275.639-8.75-1.539-12.598l-3.581-6.327 6.453-3.725 73.57 19.714c4.371 1.171 8.722 1.754 13.001 1.754 8.664-.001 17.037-2.388 24.694-7.101l105.845-65.175c10.893-6.707 14.402-23.517 7.364-35.268-3.389-5.658-17.192-22.521-52.506-1.955zm-188.986 106.766-16.364 9.262c-.13.073-.277.092-.443.044-.162-.045-.282-.135-.357-.267l-48.11-85.008c-.151-.268-.046-.649.222-.801l16.365-9.262c.082-.046.171-.069.266-.069.057 0 .116.008.177.025.162.045.282.135.357.267l48.111 85.008c.147.262.038.651-.224.801zm225.74-83.167-105.844 65.174c-7.706 4.742-16.173 5.928-25.166 3.517l-76.771-20.571c-2.047-.549-4.232-.262-6.07.799l-9.204 5.314-26.082-46.083 41.06-23.773c12.529-7.255 20.932-9.143 28.999-6.527 3.501 1.136 7.567 2.605 12.275 4.308 13.603 4.918 30.493 11.024 48.13 14.275 4.559 1.689 7.107 6.066 5.958 10.355-.459 1.71-1.858 6.864-10.332 5.932-8.431-1.741-16.5-4.039-25.032-6.476-4.106-1.173-8.353-2.386-12.728-3.558-4.266-1.142-8.653 1.39-9.798 5.657-1.144 4.268 1.39 8.654 5.657 9.798 4.248 1.138 8.431 2.332 12.475 3.487 8.957 2.558 17.417 4.974 26.578 6.847.052.01.104.014.156.024.055.01.107.026.162.035l7.26 1.181c11.52 1.844 21.754.038 31.29-5.516l58.325-33.971c15.049-8.766 26.824-10.165 30.728-3.649 2.744 4.58 1.185 11.444-2.026 13.421zm-271.072 11.095c.467 3.193-1.743 6.16-4.936 6.626-3.193.467-6.159-1.743-6.626-4.936s1.743-6.16 4.936-6.627c3.192-.465 6.159 1.745 6.626 4.937zm436.282-22.339c2.614-3.759 4.112-8.277 4.112-13.008v-10.895c0-5.659-2.069-10.845-5.491-14.839 3.422-3.995 5.491-9.18 5.491-14.84v-10.895c0-5.66-2.069-10.845-5.491-14.84 3.422-3.994 5.491-9.18 5.491-14.839v-10.895c0-5.66-2.069-10.845-5.491-14.84 3.422-3.994 5.491-9.179 5.491-14.839v-10.895c0-12.594-10.245-22.839-22.839-22.839h-38.636v-7.331c.656.019 1.311.041 1.965.041 17.358 0 33.932-6.488 46.667-18.269 12.661-11.712 20.416-27.597 21.837-44.729.345-4.153-2.558-7.876-6.67-8.554-3.719-.614-7.509-.925-11.268-.925-17.358 0-33.932 6.488-46.667 18.269-2.096 1.939-4.043 4.002-5.864 6.156v-17.925c12.177-11.4 19.446-26.253 20.564-42.217 1.179-16.822-4.649-33.299-16.409-46.394-2.554-2.845-5.393-5.524-8.438-7.963-2.977-2.385-7.227-2.337-10.151.121-13.896 11.686-22.212 27.582-23.415 44.758-1.179 16.822 4.648 33.299 16.409 46.396 1.692 1.885 3.52 3.688 5.439 5.406v17.819c-1.82-2.154-3.768-4.217-5.864-6.156-12.735-11.781-29.309-18.269-46.667-18.269-3.759 0-7.55.311-11.269.925-4.112.678-7.015 4.401-6.67 8.554 1.421 17.132 9.176 33.017 21.837 44.729 12.735 11.781 29.309 18.269 46.667 18.269.654 0 1.31-.022 1.966-.041v7.331h-38.636c-12.594 0-22.839 10.246-22.839 22.839v10.895c0 5.66 2.069 10.845 5.491 14.839-3.422 3.995-5.491 9.18-5.491 14.84v10.895c0 5.659 2.069 10.845 5.491 14.839-3.422 3.995-5.491 9.18-5.491 14.84v10.895c0 5.66 2.069 10.845 5.491 14.84-3.422 3.994-5.491 9.18-5.491 14.839v10.895c0 5.659 2.069 10.845 5.491 14.839-3.422 3.995-5.491 9.18-5.491 14.84v10.895c0 11.509 8.558 21.052 19.643 22.612-.02.674-.052 1.345-.052 2.024 0 38.309 31.166 69.475 69.475 69.475s69.475-31.166 69.475-69.475c.002-20.79-9.187-39.46-23.702-52.203zm-4.1-232.223c-4.168 17.32-16.996 31.301-33.418 37.3l11.942-8.682c3.574-2.598 4.364-7.601 1.767-11.175-2.599-3.575-7.602-4.365-11.175-1.767l-15.986 11.622c9.186-16.481 26.96-27.555 46.87-27.298zm-75.15-60.083c.744-10.633 5.213-20.667 12.738-28.843.479.493.945.993 1.399 1.5h.001c8.839 9.842 13.226 22.125 12.353 34.585-.415 5.927-1.99 11.667-4.604 17.004v-20.624c0-4.418-3.582-8-8-8s-8 3.582-8 8v21.959c-4.441-7.89-6.51-16.687-5.887-25.581zm-47.376 60.083c.244-.003.488-.005.732-.005 19.609 0 37.062 11.018 46.137 27.302l-15.985-11.621c-3.574-2.599-8.577-1.806-11.175 1.767-2.598 3.574-1.808 8.577 1.767 11.175l11.944 8.683c-16.423-5.999-29.252-19.981-33.42-37.301zm7.789 86.6c0-3.771 3.068-6.839 6.839-6.839h93.271c3.771 0 6.839 3.068 6.839 6.839v10.895c0 3.771-3.068 6.839-6.839 6.839h-93.271c-3.771 0-6.839-3.068-6.839-6.839zm0 40.574c0-3.771 3.068-6.84 6.839-6.84h93.271c3.771 0 6.839 3.068 6.839 6.84v10.895c0 3.771-3.068 6.839-6.839 6.839h-93.271c-3.771 0-6.839-3.068-6.839-6.839zm0 40.573c0-3.771 3.068-6.84 6.839-6.84h93.271c3.771 0 6.839 3.068 6.839 6.84v10.895c0 3.771-3.068 6.84-6.839 6.84h-93.271c-3.771 0-6.839-3.068-6.839-6.84zm0 40.573c0-3.771 3.068-6.839 6.839-6.839h93.271c3.771 0 6.839 3.068 6.839 6.839v10.895c0 1.417-.461 2.767-1.252 3.896-9.736-5.203-20.842-8.163-32.631-8.163-13.852 0-26.759 4.091-37.607 11.105h-28.62c-3.771 0-6.839-3.068-6.839-6.839zm0 51.468v-10.895c0-3.771 3.068-6.84 6.839-6.84h11.224c-5.552 7.19-9.73 15.487-12.132 24.507-3.342-.446-5.931-3.309-5.931-6.772zm73.066 78.11c-29.486 0-53.475-23.988-53.475-53.475s23.988-53.476 53.475-53.476 53.475 23.989 53.475 53.476-23.988 53.475-53.475 53.475zm27.555-40.048c.717 5.904-.884 11.314-4.631 15.646-3.482 4.026-8.804 6.935-14.923 8.289v1.54c0 4.418-3.582 8-8 8s-8-3.582-8-8v-1.68c-9.736-2.462-17.139-9.342-19.484-18.751-1.068-4.287 1.541-8.628 5.828-9.697 4.286-1.062 8.628 1.541 9.697 5.828 1.445 5.801 7.672 7.734 12.571 7.606 4.265-.102 8.463-1.583 10.209-3.602.566-.655 1.062-1.503.85-3.252-.206-1.698-.688-5.676-12.911-7.682-20.494-3.364-24.098-15.068-24.422-21.745-.523-10.768 6.516-19.836 17.662-23.002v-1.828c0-4.418 3.582-8 8-8s8 3.582 8 8v1.756c7.178 1.964 13.871 6.792 17.474 15.374 1.711 4.073-.205 8.763-4.279 10.473-4.067 1.71-8.763-.205-10.473-4.279-2.838-6.758-9.888-7.135-13.612-6.292-1.655.375-7.035 1.991-6.791 7.023.06 1.227.241 4.96 11.033 6.731 15.97 2.623 24.786 9.871 26.202 21.544zm-132.418-124.173h-34.924c.003-32.849.021-65.698.042-98.547.021-32.853.041-65.705.045-98.558h13.982c4.509 0 8.607-2.629 10.442-6.697 1.834-4.065 1.133-8.676-1.829-12.03l-47.2-53.499c-2.17-2.46-5.308-3.871-8.61-3.872-.001 0-.001 0-.002 0-3.303 0-6.441 1.41-8.612 3.871l-47.199 53.499c-2.963 3.357-3.663 7.967-1.829 12.033 1.835 4.068 5.934 6.696 10.44 6.696h13.983c.004 32.853.024 65.705.045 98.558.021 32.849.039 65.698.042 98.547h-17.249v-153.055c0-4.418-3.582-8-8-8h-50.253c-4.418 0-8 3.582-8 8v153.054h-17.255v-110.509c0-4.418-3.582-8-8-8h-50.252c-4.418 0-8 3.582-8 8v110.509h-16.623c-4.418 0-8 3.582-8 8s3.582 8 8 8h284.816c4.418 0 8-3.582 8-8s-3.582-8-8-8zm-85.226-98.558c-.022-35.516-.045-71.032-.045-106.547 0-4.418-3.582-8-8-8h-11.665l36.882-41.804 36.882 41.804h-11.665c-4.418 0-8 3.582-8 8 0 35.516-.022 71.032-.045 106.547-.021 32.852-.038 65.705-.042 98.557h-34.26c-.004-32.852-.021-65.704-.042-98.557zm-83.459-46.496h34.253v145.054h-34.253zm-83.508 42.545h34.253v102.509h-34.253z" fill="url(#SVGID_1_)"/></svg>