<svg id="Слой_1" enable-background="new 0 0 512 512" height="512" viewBox="0 0 512 512" width="512" xmlns="http://www.w3.org/2000/svg" xmlns:xlink="http://www.w3.org/1999/xlink"><linearGradient id="SVGID_1_" gradientTransform="matrix(1 0 0 -1 0 510)" gradientUnits="userSpaceOnUse" x1="-19.928" x2="458.391" y1="444.982" y2="-33.337"><stop offset="0" stop-color="#21a3ff"/><stop offset="1" stop-color="#46c91e"/></linearGradient><g><path d="m201.006 267.418c-13.72 22.374-37.558 35.732-63.769 35.732-38.403 0-70.124-29.088-74.327-66.385l-6.374 6.374c-.799.799-1.847 1.199-2.894 1.199s-2.095-.4-2.894-1.199c-1.599-1.599-1.599-4.191 0-5.789l12.882-12.882c.768-.768 1.808-1.199 2.894-1.199s2.128.432 2.896 1.2l12.875 12.882c1.598 1.599 1.598 4.191-.001 5.789s-4.191 1.598-5.79-.001l-5.192-5.195c4.672 32.201 32.45 57.02 65.925 57.02 23.341 0 44.57-11.897 56.789-31.824 1.182-1.929 3.702-2.532 5.63-1.35 1.927 1.18 2.532 3.701 1.35 5.628zm16.92-54.856-6.485 6.489c-4.591-36.878-36.107-65.518-74.208-65.518-28.776 0-55.33 16.814-67.648 42.837-.967 2.043-.095 4.484 1.949 5.451 2.039.966 4.485.096 5.451-1.949 10.97-23.177 34.618-38.152 60.247-38.152 33.066 0 60.571 24.22 65.734 55.85l-5.008-5.009c-1.599-1.599-4.19-1.598-5.789 0-1.599 1.599-1.599 4.191 0 5.789l12.864 12.865c.195.197.409.374.64.528.011.007.023.011.033.018.211.138.433.259.668.357.049.02.101.029.151.047.2.074.4.143.612.185.218.044.444.06.67.068.045.001.089.014.136.014h.001.001c.275 0 .546-.028.81-.082.131-.026.25-.076.376-.114.131-.04.267-.069.392-.122.117-.049.222-.119.335-.178.124-.066.253-.123.372-.202.055-.037.1-.086.153-.126.159-.118.317-.235.458-.376l12.875-12.882c1.598-1.599 1.598-4.191-.001-5.789-1.598-1.598-4.19-1.598-5.789.001zm-217.901 236.51v-30.135c-.001-.04-.012-.077-.012-.118s.011-.079.012-.12v-334.323c-.005-.084-.025-.165-.025-.251s.02-.167.025-.251v-21.018c0-23.701 19.258-42.982 42.928-42.982h188.523c23.686 0 42.956 19.282 42.956 42.982v21.242c0 .009.003.018.003.027s-.003.017-.003.027v147.753l31.388-29.879c4.267-4.063 9.864-6.301 15.759-6.301h31.115c.2 0 .4.015.598.044 20.376 3.01 34.957 21.982 33.194 43.192l-8.32 101.327 68.574-.104c14.486 0 26.303 11.744 26.347 26.18l.282 77.999c21.958 2.619 38.631 21.095 38.631 43.67 0 2.261-1.832 4.094-4.094 4.094h-82.89c-2.256 0-4.088-1.826-4.094-4.083l-.249-95.395-75.302.103-51.208 51.026c-5.501 5.466-12.486 8.834-20.011 9.79-2.255 21.503-20.652 38.432-42.675 38.432h-60.823c-.909.055-1.814.126-2.736.126-.333 0-.653-.051-.963-.126h-124.002c-23.67 0-42.928-19.257-42.928-42.928zm265.842 4.799-54.307-.098c-1.574 12.417-8.251 23.117-17.84 30.04h37.756c17.429 0 32.043-13.098 34.391-29.942zm111.502-105.396c-2.095 14.217-9.272 26.969-20.064 36.072l67.447-.092h.005c2.256 0 4.088 1.826 4.094 4.083l.249 95.401h74.485c-1.96-17.529-16.376-31.129-34.422-31.689-2.205-.068-3.959-1.871-3.967-4.077l-.296-81.783c-.031-9.937-8.174-18.02-18.153-18.02zm-104.06-104.199c-.073.078-.152.149-.231.22l-34.562 32.899c-2.999 2.773-4.468 6.779-3.971 10.756.472 3.997 2.868 7.533 6.414 9.487l65.324 35.873c.052.027.103.055.153.084l10.455 5.723c2.084 1.122 4.484 1.647 6.88 1.5 4.265-.288 8.07-2.718 10.147-6.497 3.297-6.04 1.053-13.758-5.009-17.194l-23.523-12.855c-.085-.041-.165-.088-.246-.134l-31.831-17.395c-1.157-.632-1.938-1.782-2.099-3.09s.317-2.613 1.283-3.507l35.769-33.055c.059-.056.116-.114.179-.166l22.998-21.253c1.664-1.534 4.251-1.43 5.785.231s1.431 4.251-.231 5.785l-21.991 20.322-3.552 46.248 21.439 11.715c9.983 5.659 13.64 18.331 8.208 28.282-3.434 6.246-9.714 10.255-16.805 10.734-3.952.242-7.858-.618-11.309-2.475l-4.99-2.732-1.847 24.272c-.075.98-.5 1.901-1.197 2.594l-31.647 31.429c-.052.055-.105.108-.161.16l-5.85 5.81c-.768.762-1.804 1.189-2.885 1.189h-92.396v74.475c17.402-1.957 30.991-16.256 31.688-34.162v-.135c0-2.261 1.832-4.094 4.094-4.094.493 0 .961.101 1.398.261l60.436.109h.122c7.017 0 13.628-2.737 18.64-7.717l52.4-52.214c.371-.37.805-.661 1.277-.863l1.473-.798c14.938-8.085 24.696-23.057 26.103-40.05l8.686-105.763c1.398-16.82-9.979-31.857-25.943-34.374h-30.804c-3.783 0-7.374 1.436-10.114 4.044zm1.123 81.085v64.056l23.667-23.504 2.012-26.449zm29.138-31.409 2.594-33.774-23.931 22.115zm-37.325-54.254v-151.479h-258.032v326.507h41.443v-20.13c0-4.453 2.277-8.482 6.092-10.778 3.815-2.295 8.439-2.422 12.377-.336l45.718 24.231c4.124 2.186 6.688 6.445 6.688 11.114s-2.564 8.927-6.688 11.114l-45.718 24.231c-1.864.988-3.883 1.48-5.896 1.48-2.239 0-4.472-.607-6.48-1.816-3.815-2.296-6.092-6.325-6.092-10.778v-20.145h-41.444v26.159c0 19.156 15.584 34.741 34.741 34.741h120.871v-60.885h-25.3c-2.261 0-4.094-1.833-4.094-4.094s1.832-4.094 4.094-4.094h25.3v-9.599c0-2.261 1.832-4.094 4.094-4.094h94.803l3.525-3.5v-76.683l-29.233-16.053c-5.858-3.229-9.817-9.087-10.594-15.673-.82-6.561 1.608-13.194 6.497-17.713zm-206.275 207.123c.641.384 2.343 1.164 4.32.117l45.718-24.231c1.462-.775 2.336-2.225 2.336-3.88s-.874-3.105-2.336-3.88l-45.718-24.231c-.732-.388-1.426-.525-2.041-.525-1.05 0-1.875.4-2.279.643-.64.385-2.127 1.522-2.127 3.763v48.462c0 2.24 1.487 3.377 2.127 3.762zm-51.757-383.964v17.175h258.033v-17.175c0-19.186-15.597-34.795-34.769-34.795h-188.524c-19.156-.001-34.74 15.608-34.74 34.795zm398.636 68.807c0 28.964-23.565 52.529-52.529 52.529s-52.528-23.564-52.528-52.529 23.563-52.529 52.528-52.529c28.964 0 52.529 23.564 52.529 52.529zm-8.188 0c0-24.45-19.892-44.342-44.342-44.342-24.449 0-44.341 19.892-44.341 44.342s19.891 44.342 44.341 44.342c24.45-.001 44.342-19.893 44.342-44.342z" fill="url(#SVGID_1_)"/></g></svg>