<svg id="Layer_1" height="512" viewBox="0 0 512 512" width="512" xmlns="http://www.w3.org/2000/svg" data-name="Layer 1"><path d="m416.292 295.662h38.957v171.483h-38.957z" fill="#5caeff"/><path d="m416.292 295.662h10.263v171.483h-10.263z" fill="#2a92fa"/><path d="m50.22 70.643h70.341v19.122h-70.341z" fill="#0062d9"/><path d="m29.487 87.402h123.028v316.207h-123.028z" fill="#2a92fa"/><path d="m85.379 87.402h55.916v316.207h-55.916z" fill="#0e82f5"/><path d="m298.413 70.643h70.341v19.122h-70.341z" fill="#0062d9"/><path d="m266.459 87.402h123.028v188.501c-36.257 35.856-77.818 65.637-123.028 88.401z" fill="#2a92fa" fill-rule="evenodd"/><path d="m277.679 87.402h55.904v235.981c-17.827 12.958-36.507 24.677-55.904 35.086z" fill="#0e82f5" fill-rule="evenodd"/><path d="m200.764 10.984h17.446v28.744h-17.446z" fill="#fdc72e"/><path d="m141.295 70.643h136.385v287.827c-37.597 20.174-77.888 35.408-119.883 45.139h-16.502z" fill="#70c1f9" fill-rule="evenodd"/><path d="m141.295 70.643h68.193v317.922c-16.885 5.949-34.139 10.975-51.69 15.044h-16.502v-332.966z" fill="#4eb1fc" fill-rule="evenodd"/><path d="m158.765 32.865h101.445v21.463h-101.445z" fill="#004cbd"/><path d="m170.928 92.274h77.118v19.122h-77.118z" fill="#f0f0ff"/><path d="m136.118 50.311h146.738v20.333h-146.738z" fill="#0062d9"/><path d="m170.928 155.21h33.332v27.956h-33.332zm43.277 0h33.332v27.956h-33.332zm33.332 37.9v22.983h-33.332v-22.983zm0 32.927v22.983h-33.332v-22.983zm0 32.928v27.955h-33.332v-27.955zm-43.276 27.955h-33.332v-27.955h33.332zm-33.332-37.899v-22.983h33.332v22.983zm0-32.928v-22.983h33.332v22.983z" fill="#f0f0ff" fill-rule="evenodd"/><path d="m321.132 133.012c2.761 0 5 2.239 5 5s-2.239 5-5 5h-14.412v14.411c0 2.761-2.239 5-5 5s-5-2.239-5-5v-19.411c0-2.761 2.239-5 5-5zm44.119 0c2.761 0 5 2.239 5 5s-2.239 5-5 5h-14.411v14.411c0 2.761-2.239 5-5 5s-5-2.239-5-5v-19.411c0-2.761 2.239-5 5-5zm-44.119 48.864c2.761 0 5 2.239 5 5s-2.239 5-5 5h-14.412v14.412c0 2.761-2.239 5-5 5s-5-2.239-5-5v-19.412c0-2.761 2.239-5 5-5zm44.119 0c2.761 0 5 2.239 5 5s-2.239 5-5 5h-14.411v14.412c0 2.761-2.239 5-5 5s-5-2.239-5-5v-19.412c0-2.761 2.239-5 5-5zm-44.119 48.864c2.761 0 5 2.239 5 5s-2.239 5-5 5h-14.412v14.411c0 2.761-2.239 5-5 5s-5-2.239-5-5v-19.411c0-2.761 2.239-5 5-5zm44.119 0c2.761 0 5 2.239 5 5s-2.239 5-5 5h-14.411v14.411c0 2.761-2.239 5-5 5s-5-2.239-5-5v-19.411c0-2.761 2.239-5 5-5zm-44.119 48.864c2.761 0 5 2.239 5 5s-2.239 5-5 5h-14.412v14.412c0 2.761-2.239 5-5 5s-5-2.239-5-5v-19.412c0-2.761 2.239-5 5-5z" fill="#f0f0ff" fill-rule="evenodd"/><path d="m279.839 390.91h38.957v76.235h-38.957z" fill="#2dd62d"/><path d="m211.612 417.564h38.957v49.581h-38.957z" fill="#fb545c"/><path d="m348.065 351.208h38.957v115.937h-38.957z" fill="#fdc72e"/><g fill-rule="evenodd"><path d="m78.552 402.751c147.934-9.244 283.311-85.581 367.828-206.858l-14.475-9.608 50.608-22.319-1.783 54.727-14.467-9.603c-88.651 127.499-230.836 207.761-386.223 217.472-16.914 1.057-33.603.744-50.547.744v-23.81c16.463 0 32.623.283 49.059-.744z" fill="#f9ac00"/><path d="m482.366 168.496-1.636 50.197-14.467-9.603c-88.651 127.499-230.836 207.761-386.223 217.472-9.084.568-18.103.74-27.131.778-4.418-.013-18.97-.034-23.415-.034v-17.038c3.968.012 18.05.021 22.005.005 12.403.033 24.712.008 37.179-.771 147.934-9.244 283.311-92.331 367.828-213.608l-14.475-9.608 40.335-17.789z" fill="#fdc72e"/><path d="m117.144 328.468c2.761 0 5 2.239 5 5s-2.239 5-5 5h-14.412v14.412c0 2.761-2.239 5-5 5s-5-2.239-5-5v-19.412c0-2.761 2.239-5 5-5zm-44.119-195.455c2.761 0 5 2.239 5 5s-2.239 5-5 5h-14.412v14.411c0 2.761-2.239 5-5 5s-5-2.239-5-5v-19.411c0-2.761 2.239-5 5-5zm44.119 0c2.761 0 5 2.239 5 5s-2.239 5-5 5h-14.412v14.411c0 2.761-2.239 5-5 5s-5-2.239-5-5v-19.411c0-2.761 2.239-5 5-5zm-44.119 48.864c2.761 0 5 2.239 5 5s-2.239 5-5 5h-14.412v14.412c0 2.761-2.239 5-5 5s-5-2.239-5-5v-19.412c0-2.761 2.239-5 5-5zm44.119 0c2.761 0 5 2.239 5 5s-2.239 5-5 5h-14.412v14.412c0 2.761-2.239 5-5 5s-5-2.239-5-5v-19.412c0-2.761 2.239-5 5-5zm-44.119 146.591c2.761 0 5 2.239 5 5s-2.239 5-5 5h-14.412v14.412c0 2.761-2.239 5-5 5s-5-2.239-5-5v-19.412c0-2.761 2.239-5 5-5zm0-97.728c2.761 0 5 2.239 5 5s-2.239 5-5 5h-14.412v14.411c0 2.761-2.239 5-5 5s-5-2.239-5-5v-19.411c0-2.761 2.239-5 5-5zm44.119 0c2.761 0 5 2.239 5 5s-2.239 5-5 5h-14.412v14.411c0 2.761-2.239 5-5 5s-5-2.239-5-5v-19.411c0-2.761 2.239-5 5-5zm-44.119 48.864c2.761 0 5 2.239 5 5s-2.239 5-5 5h-14.412v14.412c0 2.761-2.239 5-5 5s-5-2.239-5-5v-19.412c0-2.761 2.239-5 5-5zm44.119 0c2.761 0 5 2.239 5 5s-2.239 5-5 5h-14.412v14.412c0 2.761-2.239 5-5 5s-5-2.239-5-5v-19.412c0-2.761 2.239-5 5-5z" fill="#f0f0ff"/><path d="m416.511 500.785c27.814 0 50.5-22.686 50.5-50.5s-22.686-50.5-50.5-50.5-50.5 22.686-50.5 50.5 22.686 50.5 50.5 50.5z" fill="#29b933"/><path d="m421.588 400.038c25.506 2.547 45.423 24.07 45.423 50.247s-19.917 47.701-45.423 50.247c-25.506-2.547-45.423-24.07-45.423-50.247s19.916-47.7 45.423-50.247z" fill="#2dd62d"/></g><path d="m348.065 351.208h10.263v115.937h-10.263z" fill="#f9ac00"/><path d="m279.839 390.91h10.263v76.235h-10.263z" fill="#29b933"/><path d="m211.612 417.564h10.263v49.581h-10.263z" fill="#f0414a"/><path d="m426.887 466.961c-.572 2.32-2.857 3.88-5.572 4.639v-13.97c7 3.332 6 7.461 5.572 9.331zm-18.382-25.129c-3.238-3.101-2.857-7.37-.809-9.991.857-1.07 2.095-1.92 3.619-2.5v14.26c-1.095-.51-2.048-1.079-2.809-1.769zm13.429 5.279c-.19-.071-.428-.13-.619-.21v-17.65c2.286.809 5.19 2.539 5.857 6.17.476 2.72 3.095 4.52 5.81 4.009 2.714-.499 4.524-3.108 4-5.83-1.333-7.129-6.81-12.54-14.667-14.459-.333-.09-.666-.151-1-.219v-5.631c0-2.76-2.238-5-5-5-2.81 0-5 2.24-5 5v5.631c-4.667.969-8.81 3.3-11.477 6.76-5.524 7.08-4.762 17.129 1.81 23.379 2.714 2.63 6.191 4.12 9.667 5.24v16.71c-2.857-1.179-5.286-3.35-6-6.87-.476-2.71-3.095-4.49-5.81-3.981-2.715.521-4.524 3.131-4 5.85 1.667 8.741 8.477 13.721 15.81 15.442v5.819c0 2.77 2.191 5 5 5 2.762 0 5-2.23 5-5v-5.439c7.81-1.211 13.715-5.91 15.286-12.56 2.381-9.991-2.952-18.07-14.667-22.16zm54.097-237.54-7-4.65c-2.286-1.5-5.334-.921-6.858 1.31-88.432 127.191-227.819 205.68-382.444 215.34-13.62.85-26.811.811-40.764.761-1.524-.011-3-.011-4.476-.02v-13.81c1.238 0 2.476.009 3.714.009 13.286.041 27.001.082 40.668-.768 73.289-4.58 145.863-26.041 209.818-62.051 63.907-35.971 119.862-86.78 161.816-146.94.762-1.1 1.048-2.471.81-3.789-.286-1.33-1.048-2.491-2.191-3.231l-6.857-4.56 35.001-15.419-1.238 37.82zm-339.775-117.17h-101.766v306.099c1.238.011 2.524.011 3.762.011 13.715.05 26.62.08 40.002-.749 19.62-1.231 39.002-3.631 58.003-7.141v-298.22zm-81.051-16.761h60.336v6.76h-60.336zm217.39 0h-126.338v313.031c44.43-9.16 86.861-24.45 126.338-45.281v-267.749zm-131.529-20.321h136.72v10.32h-136.72zm22.668-17.439h91.385v7.441h-91.385zm42.002-21.881h7.429v11.881h-7.429v-11.88zm178.626 76.402h-101.766v245.559c37.002-20.659 71.241-46.269 101.766-76.32zm-81.051-16.761h60.336v6.76h-60.336zm182.007 84.18c-1.429-.96-3.238-1.12-4.81-.43l-50.621 22.321c-1.667.74-2.81 2.329-2.953 4.15-.191 1.819.667 3.579 2.191 4.589l10.191 6.76c-13.762 19.35-28.811 37.47-44.954 54.31v-164.119c0-2.77-2.238-5-5-5h-15.715v-11.76c0-2.761-2.238-5-5-5h-70.336c-2.762 0-5 2.24-5 5v11.76h-10.715v-6.76h.19c2.762 0 5-2.239 5-5v-20.321c0-2.769-2.238-4.998-5-4.998h-17.667v-12.441c0-2.77-2.238-4.999-5-4.999h-36.954v-16.882c0-2.757-2.238-5-5-5h-17.429c-2.762 0-5 2.243-5 5v16.881h-37.002c-2.762 0-5 2.23-5 4.999v12.441h-17.667c-2.762 0-5 2.229-5 4.998v20.321c0 2.761 2.238 5 5 5h.19v6.76h-10.715v-11.76c0-2.761-2.238-5-5-5h-70.337c-2.762 0-5 2.24-5 5v11.76h-15.715c-2.762 0-5 2.23-5 5v339.901c0 2.77 2.238 4.998 5 4.998 3.143 0 6.286.02 9.429.032 3.048.009 6.143.019 9.286.019 10.572 0 21.382-.129 32.144-.8 76.956-4.809 153.102-27.349 220.295-65.2 65.669-36.999 123.291-88.94 166.912-150.399l10.429 6.909c1.476 1.001 3.429 1.101 5.048.281 1.619-.841 2.619-2.471 2.714-4.29l1.762-54.721c.048-1.719-.762-3.351-2.19-4.31zm-69.003 336.18c25.191 0 45.716-20.511 45.716-45.72s-20.524-45.72-45.716-45.72-45.716 20.511-45.716 45.72 20.477 45.72 45.716 45.72zm-63.241-33.859h8.762c-.81-3.821-1.238-7.79-1.238-11.861 0-17.8 8.382-33.678 21.43-43.88v-50.19h-28.954zm97.147-161.48h-28.906v94.139c10.81.971 20.763 5.051 28.906 11.351zm10.001-5c0-2.761-2.191-5-5-5h-38.906c-2.81 0-5 2.24-5 5v99.139c-6.857.611-13.381 2.461-19.286 5.341v-48.93c0-2.77-2.238-5-5-5h-38.954c-2.762 0-5 2.231-5 5v115.931c0 2.759 2.238 5 5 5h16.953c8.524 19.889 28.287 33.859 51.288 33.859 30.716 0 55.717-24.99 55.717-55.72 0-12.869-4.429-24.73-11.81-34.179v-120.44zm-214.676 166.48h-28.954v-39.581h28.954zm5-49.58h-38.954c-2.714 0-5 2.24-5 5v49.58c0 2.759 2.286 5 5 5h38.954c2.81 0 5-2.242 5-5v-49.58c0-2.761-2.19-5-5-5zm63.241 49.58v-66.231h-28.954v66.231zm5-76.231h-38.954c-2.762 0-5 2.24-5 5v76.231c0 2.759 2.238 5 5 5h38.954c2.762 0 5-2.242 5-5v-76.231c0-2.761-2.238-5-5-5zm-270.154-130.759c0 2.759 2.238 4.998 5 4.998s5-2.24 5-4.998v-14.41h14.382c2.762 0 5-2.24 5-5s-2.238-5-5-5h-19.382c-2.762 0-5 2.24-5 5v19.411zm44.097 48.86c0 2.77 2.238 4.998 5 4.998s5-2.229 5-4.998v-14.411h14.429c2.762 0 5-2.24 5-5s-2.238-5-5-5h-19.429c-2.762 0-5 2.241-5 5zm0 48.869c0 2.761 2.238 5 5 5s5-2.24 5-5v-14.409h14.429c2.762 0 5-2.242 5-5s-2.238-5-5-5h-19.429c-2.762 0-5 2.231-5 5zm-44.097-146.59c0 2.76 2.238 5 5 5s5-2.24 5-5v-14.419h14.382c2.762 0 5-2.23 5-5s-2.238-5-5-5h-19.382c-2.762 0-5 2.24-5 5zm44.097-48.869v-19.409c0-2.76 2.238-5 5-5h19.429c2.762 0 5 2.24 5 5s-2.238 5-5 5h-14.429v14.409c0 2.761-2.238 5-5 5s-5-2.24-5-5zm0 48.869c0 2.76 2.238 5 5 5s5-2.24 5-5v-14.419h14.429c2.762 0 5-2.23 5-5s-2.238-5-5-5h-19.429c-2.762 0-5 2.24-5 5zm-44.097 97.722c0 2.77 2.238 4.998 5 4.998s5-2.229 5-4.998v-14.411h14.382c2.762 0 5-2.24 5-5s-2.238-5-5-5h-19.382c-2.762 0-5 2.241-5 5zm0-146.591v-19.409c0-2.76 2.238-5 5-5h19.382c2.762 0 5 2.24 5 5s-2.238 5-5 5h-14.382v14.409c0 2.761-2.238 5-5 5s-5-2.24-5-5zm0 195.46c0 2.761 2.238 5 5 5s5-2.24 5-5v-14.409h14.382c2.762 0 5-2.242 5-5s-2.238-5-5-5h-19.382c-2.762 0-5 2.231-5 5zm44.097-97.729c0 2.759 2.238 4.998 5 4.998s5-2.24 5-4.998v-14.41h14.429c2.762 0 5-2.24 5-5s-2.238-5-5-5h-19.429c-2.762 0-5 2.24-5 5v19.411zm204.008 0c0 2.759 2.238 4.998 5 4.998s5-2.24 5-4.998v-14.41h14.382c2.762 0 5-2.24 5-5s-2.238-5-5-5h-19.382c-2.762 0-5 2.24-5 5v19.411zm0 48.86c0 2.77 2.238 4.998 5 4.998s5-2.229 5-4.998v-14.411h14.382c2.762 0 5-2.24 5-5s-2.238-5-5-5h-19.382c-2.762 0-5 2.241-5 5zm44.097-48.86c0 2.759 2.238 4.998 5 4.998s5-2.24 5-4.998v-14.41h14.429c2.762 0 5-2.24 5-5s-2.238-5-5-5h-19.429c-2.762 0-5 2.24-5 5v19.411zm0-48.861c0 2.76 2.238 5 5 5s5-2.24 5-5v-14.419h14.429c2.762 0 5-2.23 5-5s-2.238-5-5-5h-19.429c-2.762 0-5 2.24-5 5zm0-48.869v-19.409c0-2.76 2.238-5 5-5h19.429c2.762 0 5 2.24 5 5s-2.238 5-5 5h-14.429v14.409c0 2.761-2.238 5-5 5s-5-2.24-5-5zm-44.097 0v-19.409c0-2.76 2.238-5 5-5h19.382c2.762 0 5 2.24 5 5s-2.238 5-5 5h-14.382v14.409c0 2.761-2.238 5-5 5s-5-2.24-5-5zm0 48.869c0 2.76 2.238 5 5 5s5-2.24 5-5v-14.419h14.382c2.762 0 5-2.23 5-5s-2.238-5-5-5h-19.382c-2.762 0-5 2.24-5 5zm-92.575-46.109h-28.287v22.919h28.287zm38.287 22.919v-22.919h-28.287v22.919zm-28.287 98.751h28.287v-22.919h-28.287zm-10.001-55.839h-28.287v22.92h28.287zm0-10.001v-22.91h-28.287v22.91zm38.287 10.001h-28.287v22.92h28.287zm-28.287-10.001h28.287v-22.91h-28.287zm-38.287 42.921v22.919h28.287v-22.919zm-5 32.92h76.575c2.762 0 5-2.24 5-5v-131.672c0-2.76-2.238-5-5-5h-76.575c-2.762 0-5 2.24-5 5v131.67c0 2.761 2.238 5 5 5zm5-194.58h67.098v9.109h-67.098zm-5 19.11c-2.762 0-5-2.24-5-5v-19.11c0-2.77 2.238-5 5-5h77.098c2.762 0 5 2.23 5 5v19.11c0 2.761-2.238 5-5 5z" fill-rule="evenodd"/></svg>