<svg id="Layer_1" viewBox="0 0 64 64" xmlns="http://www.w3.org/2000/svg" data-name="Layer 1"><rect fill="#49b24e" height="22" rx="2" width="26" x="2" y="40"/><rect fill="#ffba33" height="28" rx="3" width="32" x="30" y="2"/><rect fill="#3d7bcb" height="12" rx="1" width="14" x="38" y="40"/><rect fill="#e55c62" height="10" rx="1" width="11" x="10" y="22"/><path d="m42.46 10h-2c-.45 0-.85.31-.97.75l-2.96 11.25h2.07l1.05-4h3.62l1.05 4h2.07l-2.96-11.25c-.12-.44-.51-.75-.97-.75zm-2.28 6 1.05-4h.46l1.05 4z" fill="#805d1a"/><path d="m55.46 12v-2h-7v2h2.5v8h-2.5v2h7v-2h-2.5v-8z" fill="#805d1a"/><path d="m22.3 48.5v-2h-5v2h1.5v5h-1.5v2h5v-2h-1.5v-5z" fill="#255927"/><path d="m12.5 46.5h-2c-.47 0-.87.33-.98.78l-1.83 8.22h2.05l.44-2h2.62l.44 2h2.05l-1.83-8.22c-.1-.46-.51-.78-.98-.78zm-1.86 5 .67-3h.4l.67 3h-1.73z" fill="#255927"/><g fill="#798899"><path d="m6 12h2v2h-2z"/><path d="m1 29h2v2h-2z"/><path d="m23 14h2v2h-2z"/><path d="m30 35h2v2h-2z"/><path d="m41 58h2v2h-2z"/><path d="m58 44h2v2h-2z"/></g></svg>