<svg id="Layer_1" viewBox="0 0 128 128" xmlns="http://www.w3.org/2000/svg" data-name="Layer 1"><path d="m.315 35.063h126.144v76.937h-126.144z" fill="#e1ebf4"/><path d="m108 91a6 6 0 1 0 6 6 6.00476 6.00476 0 0 0 -6-6zm0 8a2 2 0 1 1 2-2 2.00591 2.00591 0 0 1 -2 2z" fill="#9fa5aa" opacity=".5"/><circle cx="118" cy="105" fill="#9fa5aa" opacity=".5" r="2"/><path d="m20 91a6 6 0 1 0 6 6 6.00476 6.00476 0 0 0 -6-6zm0 8a2 2 0 1 1 2-2 2.00591 2.00591 0 0 1 -2 2z" fill="#9fa5aa" opacity=".5"/><circle cx="10" cy="105" fill="#9fa5aa" opacity=".5" r="2"/><path d="m123.63 26h-1.85a21.37308 21.37308 0 0 0 -1.55-3.74l1.31-1.31a4.534 4.534 0 0 0 -.21-6.39l-1.89-1.89a4.53415 4.53415 0 0 0 -6.39-.21l-1.31 1.31a21.38139 21.38139 0 0 0 -3.74-1.55v-1.85a4.52921 4.52921 0 0 0 -4.67-4.37h-2.66a4.52921 4.52921 0 0 0 -4.67 4.37v1.85a21.38139 21.38139 0 0 0 -3.74 1.55l-1.31-1.31a4.53415 4.53415 0 0 0 -6.39.21l-1.89 1.89a4.53383 4.53383 0 0 0 -.21 6.39l1.31 1.31a21.37308 21.37308 0 0 0 -1.55 3.74h-1.85a4.52921 4.52921 0 0 0 -4.37 4.67v2.66a4.52926 4.52926 0 0 0 4.37 4.67h1.85a21.377 21.377 0 0 0 1.55 3.74l-1.31 1.31a4.543 4.543 0 0 0 .21 6.39l1.89 1.89a4.5431 4.5431 0 0 0 6.39.21l1.31-1.31a21.05853 21.05853 0 0 0 3.74 1.55v1.85a4.52925 4.52925 0 0 0 4.67 4.37h2.66a4.52925 4.52925 0 0 0 4.67-4.37v-1.85a20.09188 20.09188 0 0 0 3.74-1.56l1.32 1.32a4.54335 4.54335 0 0 0 6.39-.21l1.88-1.89a4.534 4.534 0 0 0 .21-6.39l-1.31-1.31a21.377 21.377 0 0 0 1.55-3.74h1.85a4.52926 4.52926 0 0 0 4.37-4.67v-2.66a4.52921 4.52921 0 0 0 -4.37-4.67zm.37 7.33c0 .42-.24.67-.37.67h-5.01l-.34 1.57a16.9113 16.9113 0 0 1 -2.24 5.42l-.87 1.35 3.54 3.54c.09.09.08.44-.21.74l-1.88 1.88c-.3.29-.65.3-.74.21l-3.54-3.55-1.36.87a16.38971 16.38971 0 0 1 -5.41 2.25l-1.57.34v5.01c0 .13-.25.37-.67.37h-2.66c-.42 0-.67-.24-.67-.37v-5.01l-1.57-.34a16.38971 16.38971 0 0 1 -5.41-2.25l-1.36-.87-3.53 3.55c-.09.09-.44.1-.74-.21l-1.89-1.88c-.29-.3-.3-.65-.21-.74l3.54-3.54-.86-1.35a16.53341 16.53341 0 0 1 -2.25-5.41l-.34-1.58h-5.01c-.13 0-.37-.25-.37-.67v-2.66c0-.42.24-.67.37-.67h5.01l.34-1.58a16.39457 16.39457 0 0 1 2.25-5.4l.86-1.36-3.54-3.54c-.09-.09-.08-.44.21-.73l1.88-1.89c.29-.28.64-.31.74-.21l3.54 3.54 1.36-.87a16.58646 16.58646 0 0 1 5.4-2.24l1.58-.34v-5.01c0-.13.25-.37.67-.37h2.66c.42 0 .67.24.67.37v5.01l1.58.34a16.58646 16.58646 0 0 1 5.4 2.24l1.36.87 3.54-3.54c.09-.09.44-.08.74.21l1.88 1.89c.29.29.3.64.21.73l-3.54 3.54.87 1.36a16.76717 16.76717 0 0 1 2.24 5.41l.34 1.57h5.01c.13 0 .37.25.37.67z" fill="#2d4356"/><path d="m124 30.67v2.66c0 .42-.24.67-.37.67h-5.01l-.34 1.57a16.9113 16.9113 0 0 1 -2.24 5.42l-.87 1.35 3.54 3.54c.09.09.08.44-.21.74l-1.88 1.88c-.3.29-.65.3-.74.21l-3.54-3.55-1.36.87a16.38971 16.38971 0 0 1 -5.41 2.25l-1.57.34v5.01c0 .13-.25.37-.67.37h-2.66c-.42 0-.67-.24-.67-.37v-5.01l-1.57-.34a16.38971 16.38971 0 0 1 -5.41-2.25l-1.36-.87-3.53 3.55c-.09.09-.44.1-.74-.21l-1.89-1.88c-.29-.3-.3-.65-.21-.74l3.54-3.54-.86-1.35a16.53341 16.53341 0 0 1 -2.25-5.41l-.34-1.58h-5.01c-.13 0-.37-.25-.37-.67v-2.66c0-.42.24-.67.37-.67h5.01l.34-1.58a16.39457 16.39457 0 0 1 2.25-5.4l.86-1.36-3.54-3.54c-.09-.09-.08-.44.21-.73l1.88-1.89c.29-.28.64-.31.74-.21l3.54 3.54 1.36-.87a16.58646 16.58646 0 0 1 5.4-2.24l1.58-.34v-5.01c0-.13.25-.37.67-.37h2.66c.42 0 .67.24.67.37v5.01l1.58.34a16.58646 16.58646 0 0 1 5.4 2.24l1.36.87 3.54-3.54c.09-.09.44-.08.74.21l1.88 1.89c.29.29.3.64.21.73l-3.54 3.54.87 1.36a16.76717 16.76717 0 0 1 2.24 5.41l.34 1.57h5.01c.13 0 .37.25.37.67z" fill="#94e1e4"/><path d="m102 21.39a10.61 10.61 0 1 0 10.61 10.61 10.60966 10.60966 0 0 0 -10.61-10.61zm0 17.22a6.61 6.61 0 1 1 6.61-6.61 6.62358 6.62358 0 0 1 -6.61 6.61z" fill="#2d4356"/><path d="m108.61 32a6.61 6.61 0 1 1 -6.61-6.61 6.62358 6.62358 0 0 1 6.61 6.61z" fill="#fff"/><path d="m47.63 26h-1.85a21.37308 21.37308 0 0 0 -1.55-3.74l1.31-1.31a4.534 4.534 0 0 0 -.21-6.39l-1.89-1.89a4.53415 4.53415 0 0 0 -6.39-.21l-1.31 1.31a21.38139 21.38139 0 0 0 -3.74-1.55v-1.85a4.52921 4.52921 0 0 0 -4.67-4.37h-2.66a4.52921 4.52921 0 0 0 -4.67 4.37v1.85a21.38139 21.38139 0 0 0 -3.74 1.55l-1.31-1.31a4.53415 4.53415 0 0 0 -6.39.21l-1.89 1.89a4.53383 4.53383 0 0 0 -.21 6.39l1.31 1.31a21.37308 21.37308 0 0 0 -1.55 3.74h-1.85a4.52921 4.52921 0 0 0 -4.37 4.67v2.66a4.52926 4.52926 0 0 0 4.37 4.67h1.85a21.377 21.377 0 0 0 1.55 3.74l-1.31 1.31a4.543 4.543 0 0 0 .21 6.39l1.89 1.89a4.5431 4.5431 0 0 0 6.39.21l1.31-1.31a21.05853 21.05853 0 0 0 3.74 1.55v1.85a4.52925 4.52925 0 0 0 4.67 4.37h2.66a4.52925 4.52925 0 0 0 4.67-4.37v-1.85a20.09188 20.09188 0 0 0 3.74-1.56l1.32 1.32a4.54335 4.54335 0 0 0 6.39-.21l1.88-1.89a4.534 4.534 0 0 0 .21-6.39l-1.31-1.31a21.377 21.377 0 0 0 1.55-3.74h1.85a4.52926 4.52926 0 0 0 4.37-4.67v-2.66a4.52921 4.52921 0 0 0 -4.37-4.67zm.37 7.33c0 .42-.24.67-.37.67h-5.01l-.34 1.57a16.9113 16.9113 0 0 1 -2.24 5.42l-.87 1.35 3.54 3.54c.09.09.08.44-.21.74l-1.88 1.88c-.3.29-.65.3-.74.21l-3.54-3.55-1.36.87a16.38971 16.38971 0 0 1 -5.41 2.25l-1.57.34v5.01c0 .13-.25.37-.67.37h-2.66c-.42 0-.67-.24-.67-.37v-5.01l-1.57-.34a16.38971 16.38971 0 0 1 -5.41-2.25l-1.36-.87-3.53 3.55c-.09.09-.44.1-.74-.21l-1.89-1.88c-.29-.3-.3-.65-.21-.74l3.54-3.54-.86-1.35a16.53341 16.53341 0 0 1 -2.25-5.41l-.34-1.58h-5.01c-.13 0-.37-.25-.37-.67v-2.66c0-.42.24-.67.37-.67h5.01l.34-1.58a16.39457 16.39457 0 0 1 2.25-5.4l.86-1.36-3.54-3.54c-.09-.09-.08-.44.21-.73l1.88-1.89c.29-.28.64-.31.74-.21l3.54 3.54 1.36-.87a16.58646 16.58646 0 0 1 5.4-2.24l1.58-.34v-5.01c0-.13.25-.37.67-.37h2.66c.42 0 .67.24.67.37v5.01l1.58.34a16.58646 16.58646 0 0 1 5.4 2.24l1.36.87 3.54-3.54c.09-.09.44-.08.74.21l1.88 1.89c.29.29.3.64.21.73l-3.54 3.54.87 1.36a16.76718 16.76718 0 0 1 2.24 5.41l.34 1.57h5.01c.13 0 .37.25.37.67z" fill="#2d4356"/><path d="m48 30.67v2.66c0 .42-.24.67-.37.67h-5.01l-.34 1.57a16.9113 16.9113 0 0 1 -2.24 5.42l-.87 1.35 3.54 3.54c.09.09.08.44-.21.74l-1.88 1.88c-.3.29-.65.3-.74.21l-3.54-3.55-1.36.87a16.38971 16.38971 0 0 1 -5.41 2.25l-1.57.34v5.01c0 .13-.25.37-.67.37h-2.66c-.42 0-.67-.24-.67-.37v-5.01l-1.57-.34a16.38971 16.38971 0 0 1 -5.41-2.25l-1.36-.87-3.53 3.55c-.09.09-.44.1-.74-.21l-1.89-1.88c-.29-.3-.3-.65-.21-.74l3.54-3.54-.86-1.35a16.53341 16.53341 0 0 1 -2.25-5.41l-.34-1.58h-5.01c-.13 0-.37-.25-.37-.67v-2.66c0-.42.24-.67.37-.67h5.01l.34-1.58a16.39457 16.39457 0 0 1 2.25-5.4l.86-1.36-3.54-3.54c-.09-.09-.08-.44.21-.73l1.88-1.89c.29-.28.64-.31.74-.21l3.54 3.54 1.36-.87a16.58646 16.58646 0 0 1 5.4-2.24l1.58-.34v-5.01c0-.13.25-.37.67-.37h2.66c.42 0 .67.24.67.37v5.01l1.58.34a16.58646 16.58646 0 0 1 5.4 2.24l1.36.87 3.54-3.54c.09-.09.44-.08.74.21l1.88 1.89c.29.29.3.64.21.73l-3.54 3.54.87 1.36a16.76718 16.76718 0 0 1 2.24 5.41l.34 1.57h5.01c.13 0 .37.25.37.67z" fill="#94e1e4"/><path d="m26 21.39a10.61 10.61 0 1 0 10.61 10.61 10.60966 10.60966 0 0 0 -10.61-10.61zm0 17.22a6.61 6.61 0 1 1 6.61-6.61 6.62358 6.62358 0 0 1 -6.61 6.61z" fill="#2d4356"/><path d="m32.61 32a6.61 6.61 0 1 1 -6.61-6.61 6.62358 6.62358 0 0 1 6.61 6.61z" fill="#fff"/><path d="m101 76.75a2.00928 2.00928 0 0 0 -1-1.78l-4.11-2.38 4.04-2.11a2.023 2.023 0 0 0 1.07-1.79 1.99034 1.99034 0 0 0 -1.1-1.77l-34.96-17.7a2.00165 2.00165 0 0 0 -1.8-.01l-35.04 17.71a1.99034 1.99034 0 0 0 -1.1 1.77 2.023 2.023 0 0 0 1.07 1.79l4.17 2.17-4.2 2.3a1.98745 1.98745 0 0 0 -1.04 1.77 2.01535 2.01535 0 0 0 1.07 1.76l4.17 2.17-4.2 2.3a1.98745 1.98745 0 0 0 -1.04 1.77 2.01535 2.01535 0 0 0 1.07 1.76l35.06 18.29a1.97464 1.97464 0 0 0 1.85 0l34.95-18.29a2.00575 2.00575 0 0 0 .07-3.51l-4.11-2.38 4.04-2.11a2.0204 2.0204 0 0 0 1.07-1.73zm-36.96-23.51 30.59 15.49-30.58 16.01-30.67-16.01zm.01 47.5-30.81-16.08 3.27-1.78 26.62 13.89a1.97464 1.97464 0 0 0 1.85 0l26.72-13.99 3.16 1.83zm0-8-30.81-16.08 3.27-1.78 26.62 13.89a1.97464 1.97464 0 0 0 1.85 0l26.72-13.99 3.16 1.83z" fill="#2d4356"/><path d="m94.86 84.61-30.81 16.13-30.81-16.08 3.27-1.78 26.62 13.89a1.97464 1.97464 0 0 0 1.85 0l26.72-13.99z" fill="#d68751"/><path d="m94.86 76.61-30.81 16.13-30.81-16.08 3.27-1.78 26.62 13.89a1.97464 1.97464 0 0 0 1.85 0l26.72-13.99z" fill="#d68751"/><path d="m94.63 68.73-30.58 16.01-30.67-16.01 30.66-15.49z" fill="#d68751"/><path d="m108 89a6 6 0 1 0 6 6 6.00476 6.00476 0 0 0 -6-6zm0 8a2 2 0 1 1 2-2 2.00591 2.00591 0 0 1 -2 2z" fill="#2d4356"/><circle cx="108" cy="95" fill="#94e1e4" r="2"/><circle cx="118" cy="103" fill="#2d4356" r="2"/><path d="m20 89a6 6 0 1 0 6 6 6.00476 6.00476 0 0 0 -6-6zm0 8a2 2 0 1 1 2-2 2.00591 2.00591 0 0 1 -2 2z" fill="#2d4356"/><circle cx="20" cy="95" fill="#94e1e4" r="2"/><circle cx="10" cy="103" fill="#2d4356" r="2"/><path d="m72.028 34h-16.056a8.8102 8.8102 0 0 1 -1.29926 4h18.65441a8.81129 8.81129 0 0 1 -1.29915-4z" fill="#2d4356"/><path d="m124.16406 52.26563-.16406.16412v55.57025a2.00261 2.00261 0 0 1 -2 2h-116a2.00261 2.00261 0 0 1 -2-2v-55.5722l-.15723-.15729a8.63519 8.63519 0 0 1 -1.417-10.50684 8.16075 8.16075 0 0 1 -2.42577-1.04761v67.28394a6.00656 6.00656 0 0 0 6 6h50v4h-9a2 2 0 0 0 0 4h34a2 2 0 0 0 0-4h-9v-4h50a6.00656 6.00656 0 0 0 6-6v-67.28448a8.16274 8.16274 0 0 1 -2.42871 1.04816 8.636 8.636 0 0 1 -1.40723 10.50195zm-56.16406 65.73437h-8v-4h8z" fill="#2d4356"/><path d="m42.71 18.12-.74005.74-1.34995-1.36c-.3-.29-.65-.3-.74-.21l-3.54 3.54-1.36-.87a16.58646 16.58646 0 0 0 -5.4-2.24l-1.58-.34v-2l1.58.34a16.58646 16.58646 0 0 1 5.4 2.24l1.36.87 3.54-3.54c.09-.09.44-.08.74.21l1.88 1.89c.29.29.3.64.21.73z" fill="#f5ffff" opacity=".3"/><path d="m94.86 76.61-30.81 16.13-30.81-16.08 1.88-1.02 28.93 15.1 29-15.18z" fill="#72492d" opacity=".4"/><path d="m100 15.38v2l-1.58.34a16.58646 16.58646 0 0 0 -5.4 2.24l-1.36.87-3.54-3.54c-.1-.1-.45-.07-.74.21l-1.35 1.36-.74-.74c-.09-.09-.08-.44.21-.73l1.88-1.89c.29-.28.64-.31.74-.21l3.54 3.54 1.36-.87a16.58646 16.58646 0 0 1 5.4-2.24z" fill="#f5ffff" opacity=".3"/><path d="m104 10.37v2c0-.13-.25-.37-.67-.37h-2.66c-.42 0-.67.24-.67.37v-2c0-.13.25-.37.67-.37h2.66c.42 0 .67.24.67.37z" fill="#f5ffff" opacity=".3"/><path d="m118.71 18.12-.74.74-1.35-1.36c-.29993-.29-.65-.3-.74-.21l-3.54 3.54-1.36-.87a16.58646 16.58646 0 0 0 -5.4-2.24l-1.58-.34v-2l1.58.34a16.58646 16.58646 0 0 1 5.4 2.24l1.36.87 3.54-3.54c.09-.09.44006-.08.74.21l1.88 1.89c.29.29.3.64.21.73z" fill="#f5ffff" opacity=".3"/><g fill="#426666"><path d="m124 31.33v2c0 .42-.24.67-.37.67h-5.01l-.34 1.57a16.91253 16.91253 0 0 1 -2.24 5.42l-.09009.13-.78-.78.87012-1.35a16.91253 16.91253 0 0 0 2.24-5.42l.34-1.57h5.01c.12997 0 .36997-.25.36997-.67z" opacity=".3"/><path d="m88.83 40.34-.78.78-.08-.13a16.53341 16.53341 0 0 1 -2.25-5.41l-.34-1.58h-5.01c-.13 0-.37-.25-.37-.67v-2c0 .42.24.67.37.67h5.01l.34 1.58a16.53341 16.53341 0 0 0 2.25 5.41z" opacity=".3"/><path d="m12.83 40.34-.78.78-.08-.13a16.53341 16.53341 0 0 1 -2.25-5.41l-.34-1.58h-5.01c-.13 0-.37-.25-.37-.67v-2c0 .42.24.67.37.67h5.01l.34 1.58a16.53341 16.53341 0 0 0 2.25 5.41z" opacity=".3"/><path d="m100 46.62v2l-1.57-.34a16.38971 16.38971 0 0 1 -5.41-2.25l-1.36-.87-3.53 3.55c-.09.09-.44.1-.74-.21l-1.89-1.88c-.29-.3-.3-.65-.21-.74l.74005-.74 1.36 1.36c.3.31.65.3.74.21l3.53-3.55 1.36.87a16.38971 16.38971 0 0 0 5.41 2.25z" opacity=".3"/><path d="m104 51.63v2c0 .13-.25.37-.67.37h-2.66c-.42 0-.67-.24-.67-.37v-2c0 .13.25.37.67.37h2.66c.42 0 .67-.24.67-.37z" opacity=".3"/><path d="m118.5 46.62-1.88 1.88c-.29993.29-.65.3-.74.21l-3.54-3.55-1.36.87a16.38971 16.38971 0 0 1 -5.41 2.25l-1.57.34v-2l1.57-.34a16.38971 16.38971 0 0 0 5.41-2.25l1.36-.87 3.54 3.55c.09.09.44006.08.74-.21l1.36-1.35.73.73c.09.09.08.44-.21.74z" opacity=".3"/><path d="m24 46.62v2l-1.57-.34a16.38971 16.38971 0 0 1 -5.41-2.25l-1.36-.87-3.53 3.55c-.09.09-.44.1-.74-.21l-1.89-1.88c-.29-.3-.3-.65-.21-.74l.74005-.74 1.36 1.36c.3.31.65.3.74.21l3.53-3.55 1.36.87a16.38971 16.38971 0 0 0 5.41 2.25z" opacity=".3"/></g><path d="m28 10.37v2c0-.13-.25-.37-.67-.37h-2.66c-.42 0-.67.24-.67.37v-2c0-.13.25-.37.67-.37h2.66c.42 0 .67.24.67.37z" fill="#f5ffff" opacity=".3"/><path d="m24 15.38v2l-1.58.34a16.58646 16.58646 0 0 0 -5.4 2.24l-1.36.87-3.54-3.54c-.1-.1-.45-.07-.74.21l-1.35 1.36-.74-.74c-.09-.09-.08-.44.21-.73l1.88-1.89c.29-.28.64-.31.74-.21l3.54 3.54 1.36-.87a16.58646 16.58646 0 0 1 5.4-2.24z" fill="#f5ffff" opacity=".3"/><path d="m48 31.33v2c0 .42-.24.67-.37.67h-5.01l-.34 1.57a16.9113 16.9113 0 0 1 -2.24 5.42l-.09.13-.78-.78.87-1.35a16.9113 16.9113 0 0 0 2.24-5.42l.34-1.57h5.01c.13 0 .37-.25.37-.67z" fill="#426666" opacity=".3"/><path d="m42.5 46.62-1.88 1.88c-.3.29-.65.3-.74.21l-3.54-3.55-1.36.87a16.38971 16.38971 0 0 1 -5.41 2.25l-1.57.34v-2l1.57-.34a16.38971 16.38971 0 0 0 5.41-2.25l1.36-.87 3.54 3.55c.09.09.44.08.74-.21l1.36-1.35.73.73c.09.09.08.44-.21.74z" fill="#426666" opacity=".3"/><path d="m28 51.63v2c0 .13-.25.37-.67.37h-2.66c-.42 0-.67-.24-.67-.37v-2c0 .13.25.37.67.37h2.66c.42 0 .67-.24.67-.37z" fill="#426666" opacity=".3"/><path d="m94.63 68.73-1.94 1.02-28.65-14.51-28.71 14.51-1.95-1.02 30.66-15.49z" fill="#e5d0c3" opacity=".3"/><path d="m94.63 68.73-30.58 16.01-30.67-16.01 1.95-.98 28.72 14.99 28.64-14.99z" fill="#72492d" opacity=".4"/><path d="m94.86 84.61-30.81 16.13-30.81-16.08 1.88-1.02 28.93 15.1 29-15.18z" fill="#72492d" opacity=".4"/><path d="m124 106v2a2.00591 2.00591 0 0 1 -2 2h-116a2.00591 2.00591 0 0 1 -2-2v-2a2.00591 2.00591 0 0 0 2 2h116a2.00591 2.00591 0 0 0 2-2z" fill="#9fa5aa" opacity=".5"/></svg>