<svg height="512" viewBox="0 0 512 512" width="512" xmlns="http://www.w3.org/2000/svg"><g id="Blue"><g fill="#6498f6"><path d="m104 72h48a24 24 0 0 0 24-24 24 24 0 0 0 -24-24h-104a24 24 0 0 0 -24 24v104a24 24 0 0 0 48 0v-48l116 116a22.627 22.627 0 0 0 32 0 22.627 22.627 0 0 0 0-32z"/><path d="m220 292a22.627 22.627 0 0 0 -32 0l-116 116v-48a24 24 0 0 0 -48 0v104a24 24 0 0 0 24 24h104a24 24 0 0 0 24-24 24 24 0 0 0 -24-24h-48l116-116a22.627 22.627 0 0 0 0-32z"/><path d="m464 24h-104a24 24 0 0 0 -24 24 24 24 0 0 0 24 24h48l-116 116a22.627 22.627 0 0 0 0 32 22.627 22.627 0 0 0 32 0l116-116v48a24 24 0 0 0 48 0v-104a24 24 0 0 0 -24-24z"/><path d="m464 336a24 24 0 0 0 -24 24v48l-116-116a22.627 22.627 0 0 0 -32 0 22.627 22.627 0 0 0 0 32l116 116h-48a24 24 0 0 0 -24 24 24 24 0 0 0 24 24h104a24 24 0 0 0 24-24v-104a24 24 0 0 0 -24-24z"/></g><path d="m123.313 80h28.687a32 32 0 0 0 0-64h-104a32.036 32.036 0 0 0 -32 32v104a32 32 0 0 0 64 0v-28.687l102.343 102.344a30.628 30.628 0 0 0 43.314-43.314zm91.03 134.343a14.644 14.644 0 0 1 -20.686 0l-116-116a8 8 0 0 0 -13.657 5.657v48a16 16 0 0 1 -32 0v-104a16.019 16.019 0 0 1 16-16h104a16 16 0 0 1 0 32h-48a8 8 0 0 0 -5.657 13.657l116 116a14.644 14.644 0 0 1 0 20.686z" fill="#0444b7"/><path d="m204 277.373a30.43 30.43 0 0 0 -21.657 8.97l-102.343 102.344v-28.687a32 32 0 0 0 -64 0v104a32.036 32.036 0 0 0 32 32h104a32 32 0 0 0 0-64h-28.687l102.344-102.343a30.627 30.627 0 0 0 -21.657-52.284zm10.343 40.97-116 116a8 8 0 0 0 5.657 13.657h48a16 16 0 0 1 0 32h-104a16.019 16.019 0 0 1 -16-16v-104a16 16 0 0 1 32 0v48a8 8 0 0 0 13.657 5.657l116-116a14.627 14.627 0 0 1 20.686 20.686z" fill="#0444b7"/><path d="m464 16h-104a32 32 0 0 0 0 64h28.687l-102.344 102.343a30.628 30.628 0 0 0 43.314 43.314l102.343-102.344v28.687a32 32 0 0 0 64 0v-104a32.036 32.036 0 0 0 -32-32zm16 136a16 16 0 0 1 -32 0v-48a8 8 0 0 0 -13.657-5.657l-116 116a14.627 14.627 0 0 1 -20.686-20.686l116-116a8 8 0 0 0 -5.657-13.657h-48a16 16 0 0 1 0-32h104a16.019 16.019 0 0 1 16 16z" fill="#0444b7"/><path d="m464 328a32.036 32.036 0 0 0 -32 32v28.687l-102.343-102.344a30.628 30.628 0 0 0 -43.314 43.314l102.344 102.343h-28.687a32 32 0 0 0 0 64h104a32.036 32.036 0 0 0 32-32v-104a32.036 32.036 0 0 0 -32-32zm16 136a16.019 16.019 0 0 1 -16 16h-104a16 16 0 0 1 0-32h48a8 8 0 0 0 5.657-13.657l-116-116a14.627 14.627 0 0 1 20.686-20.686l116 116a8 8 0 0 0 13.657-5.657v-48a16 16 0 0 1 32 0z" fill="#0444b7"/></g></svg>