<svg enable-background="new 0 0 512 512" height="512" viewBox="0 0 512 512" width="512" xmlns="http://www.w3.org/2000/svg"><g id="_x34_0_Customer_Review"><g><path d="m382.266 459.767c0 17.034-13.796 30.83-30.831 30.83h-190.87c-8.535 0-16.225-3.458-21.817-9.014-5.555-5.592-9.014-13.282-9.014-21.817 0-34.877 14.128-66.444 36.975-89.291 14.164-14.165 31.713-25.018 51.323-31.162 11.994-3.789 24.723-5.812 37.968-5.812s25.974 2.024 37.968 5.812c51.176 16.115 88.298 63.943 88.298 120.454z" fill="#0e9c4a"/><path d="m382.258 459.752c0 17.018-13.805 30.822-30.824 30.822h-190.868c-8.509 0-16.204-3.439-21.816-9.052-4.073-4.073-7.016-9.323-8.283-15.207 2.082.497 4.3.724 6.563.724h116.595c64.317 0 94.19-70.382 65.947-116.323 37.521 21.862 62.686 62.507 62.686 109.036z" opacity=".12"/><path d="m282.92 317.663v25.303c0 14.867-12.052 26.919-26.919 26.919-14.867 0-26.919-12.052-26.919-26.919v-25.303z" fill="#e77c6a"/><path d="m79.379 182.223 2.928 17.128c1.105 6.462-5.679 11.385-11.48 8.333l-15.358-8.081c-2.306-1.213-5.061-1.213-7.367 0l-15.358 8.081c-5.801 3.053-12.585-1.871-11.48-8.333l2.928-17.129c.438-2.564-.412-5.18-2.275-6.996l-12.412-12.102c-4.692-4.575-2.105-12.544 4.38-13.49l17.179-2.507c2.574-.376 4.799-1.993 5.951-4.326l7.679-15.558c2.901-5.879 11.285-5.879 14.186 0l7.678 15.558c1.151 2.333 3.377 3.951 5.951 4.326l17.179 2.507c6.485.946 9.072 8.916 4.38 13.491l-12.413 12.102c-1.863 1.815-2.714 4.431-2.276 6.996z" fill="#fdcf17"/><path d="m81.645 175.24c-1.859 1.819-2.689 4.43-2.254 7l2.927 17.125c1.107 6.446-5.695 11.39-11.509 8.305l-15.345-8.068c-2.294-1.226-5.062-1.226-7.357 0l-15.345 8.068c-5.814 3.085-12.616-1.859-11.509-8.305l1.898-11.114h12.696c17.6 0 31.876-14.277 31.876-31.877v-11.824c1.226 1.385 2.927 2.294 4.786 2.571l17.164 2.531c6.486.91 9.096 8.899 4.39 13.486z" opacity=".1"/><path d="m176.771 131.382 2.928 17.128c1.105 6.462-5.679 11.385-11.48 8.333l-15.358-8.081c-2.306-1.213-5.061-1.213-7.367 0l-15.358 8.081c-5.801 3.053-12.585-1.871-11.48-8.333l2.928-17.129c.438-2.564-.412-5.18-2.275-6.996l-12.413-12.102c-4.692-4.575-2.105-12.544 4.38-13.491l17.179-2.507c2.574-.376 4.799-1.993 5.951-4.326l7.679-15.558c2.901-5.879 11.285-5.879 14.186 0l7.678 15.558c1.151 2.333 3.377 3.951 5.951 4.326l17.179 2.507c6.485.946 9.072 8.916 4.38 13.491l-12.413 12.102c-1.862 1.817-2.713 4.433-2.275 6.997z" fill="#fdcf17"/><path d="m179.037 124.4c-1.859 1.819-2.689 4.43-2.254 7l2.927 17.125c1.107 6.446-5.695 11.39-11.509 8.305l-15.345-8.068c-2.294-1.226-5.062-1.226-7.357 0l-15.345 8.068c-5.814 3.085-12.616-1.859-11.509-8.305l1.898-11.114h12.696c17.6 0 31.876-14.277 31.876-31.877v-11.825c1.226 1.385 2.927 2.294 4.786 2.571l17.164 2.531c6.486.91 9.096 8.899 4.39 13.486z" opacity=".1"/><path d="m283.594 80.8 2.928 17.128c1.105 6.462-5.679 11.385-11.48 8.333l-15.358-8.081c-2.306-1.213-5.061-1.213-7.367 0l-15.358 8.081c-5.801 3.053-12.585-1.871-11.48-8.333l2.928-17.129c.438-2.564-.412-5.18-2.275-6.996l-12.413-12.102c-4.692-4.575-2.105-12.544 4.38-13.49l17.179-2.507c2.574-.376 4.799-1.993 5.951-4.326l7.679-15.558c2.901-5.879 11.285-5.879 14.186 0l7.678 15.558c1.151 2.333 3.377 3.951 5.951 4.326l17.179 2.507c6.485.946 9.072 8.916 4.38 13.491l-12.413 12.102c-1.863 1.815-2.714 4.431-2.275 6.996z" fill="#fdcf17"/><path d="m285.86 73.817c-1.859 1.819-2.689 4.43-2.254 7l2.927 17.125c1.107 6.446-5.695 11.39-11.509 8.305l-15.345-8.068c-2.294-1.226-5.062-1.226-7.357 0l-15.345 8.068c-5.814 3.085-12.616-1.859-11.509-8.305l1.898-11.114h12.696c17.6 0 31.876-14.277 31.876-31.877v-11.824c1.226 1.385 2.927 2.294 4.786 2.571l17.164 2.531c6.486.91 9.096 8.899 4.39 13.486z" opacity=".1"/><path d="m390.416 131.382 2.928 17.128c1.105 6.462-5.679 11.385-11.48 8.333l-15.358-8.081c-2.306-1.213-5.061-1.213-7.367 0l-15.358 8.081c-5.801 3.053-12.585-1.871-11.48-8.333l2.928-17.129c.438-2.564-.412-5.18-2.275-6.996l-12.413-12.102c-4.692-4.575-2.105-12.544 4.38-13.491l17.179-2.507c2.574-.376 4.799-1.993 5.951-4.326l7.679-15.558c2.901-5.879 11.285-5.879 14.186 0l7.678 15.558c1.151 2.333 3.377 3.951 5.951 4.326l17.179 2.507c6.485.946 9.072 8.916 4.38 13.491l-12.413 12.102c-1.863 1.817-2.714 4.433-2.275 6.997z" fill="#fdcf17"/><path d="m392.682 124.4c-1.859 1.819-2.689 4.43-2.254 7l2.927 17.125c1.107 6.446-5.695 11.39-11.509 8.305l-15.345-8.068c-2.294-1.226-5.062-1.226-7.357 0l-15.345 8.068c-5.814 3.085-12.616-1.859-11.509-8.305l1.898-11.114h12.696c17.6 0 31.876-14.277 31.876-31.877v-11.825c1.226 1.385 2.927 2.294 4.786 2.571l17.164 2.531c6.486.91 9.096 8.899 4.39 13.486z" opacity=".1"/><path d="m487.808 182.223 2.928 17.128c1.105 6.462-5.679 11.385-11.48 8.333l-15.358-8.081c-2.306-1.213-5.061-1.213-7.367 0l-15.358 8.081c-5.801 3.053-12.585-1.871-11.48-8.333l2.928-17.129c.438-2.564-.412-5.18-2.275-6.996l-12.413-12.102c-4.692-4.575-2.105-12.544 4.38-13.49l17.179-2.507c2.574-.376 4.799-1.993 5.951-4.326l7.679-15.558c2.901-5.879 11.285-5.879 14.186 0l7.678 15.558c1.151 2.333 3.377 3.951 5.951 4.326l17.179 2.507c6.485.946 9.072 8.916 4.38 13.491l-12.413 12.102c-1.863 1.815-2.714 4.431-2.275 6.996z" fill="#fdcf17"/><path d="m490.074 175.24c-1.859 1.819-2.689 4.43-2.254 7l2.927 17.125c1.107 6.446-5.695 11.39-11.509 8.305l-15.345-8.068c-2.294-1.226-5.062-1.226-7.357 0l-15.345 8.068c-5.814 3.085-12.616-1.859-11.509-8.305l1.898-11.114h12.696c17.6 0 31.876-14.277 31.876-31.877v-11.824c1.226 1.385 2.927 2.294 4.786 2.571l17.164 2.531c6.486.91 9.096 8.899 4.39 13.486z" opacity=".1"/><path d="m360.648 349.632c-12.954 0-21.916-13.608-16.112-25.189 9.244-18.444 28.322-31.105 50.358-31.105 22.035 0 41.114 12.661 50.358 31.105 5.804 11.581-3.158 25.189-16.112 25.189z" fill="#f14f4a"/><path d="m429.136 349.645h-68.477c-11.208 0-19.437-10.203-17.65-20.443 7.596 2.309 15.676 3.575 24.055 3.575 24.65 0 46.769-10.836 61.775-28.039 6.889 5.176 12.512 11.916 16.421 19.698 5.808 11.581-3.166 25.209-16.124 25.209z" opacity=".12"/><path d="m82.852 349.632c-12.954 0-21.916-13.608-16.112-25.189 9.244-18.444 28.322-31.105 50.358-31.105 22.035 0 41.114 12.661 50.358 31.105 5.804 11.581-3.158 25.189-16.112 25.189z" fill="#475da9"/><path d="m151.341 349.645h-68.478c-11.208 0-19.437-10.203-17.65-20.443 7.596 2.309 15.676 3.575 24.055 3.575 24.65 0 46.769-10.836 61.775-28.039 6.889 5.176 12.512 11.916 16.421 19.698 5.809 11.581-3.165 25.209-16.123 25.209z" opacity=".12"/><path d="m326.539 200.514v51.66h-141.109v-51.66c0-33.796 27.397-61.193 61.193-61.193h18.723c33.796 0 61.193 27.397 61.193 61.193z" fill="#474747"/><path d="m332.736 253.21c-1.601 10.477-8.003 18.286-14.261 17.316-.145 0-.291-.049-.34-.097v10.186c0 17.123-15.619 31.577-31.043 41.86-.243.049-.34.146-.534.243-9.264 6.063-19.887 9.119-30.559 9.119s-21.294-3.056-30.559-9.119c-.242-.097-.34-.194-.533-.243-15.522-10.283-31.044-24.738-31.044-41.86v-10.186c-.097.049-.242.097-.34.097-6.257.97-12.66-6.839-14.261-17.316-1.552-10.478 2.328-19.791 8.586-20.712 2.134-.291 4.22.291 6.16 1.698 1.309-16.201 14.309-29.055 30.51-30.365h62.864c16.249 1.309 29.297 14.164 30.607 30.365 1.892-1.407 4.026-1.989 6.16-1.698 6.259.921 10.14 10.234 8.587 20.712z" fill="#f1b2a3"/><path d="m283.756 334.445-27.747 34.476 15.814 12.009c7.259 5.512 17.745 3.017 21.744-5.174l13.918-28.511c1.737-3.559.177-7.848-3.44-9.46l-11.991-5.344c-2.9-1.293-6.307-.47-8.298 2.004z" fill="#e8f1f8"/><path d="m228.245 334.445 27.747 34.476-15.814 12.009c-7.259 5.512-17.745 3.017-21.744-5.174l-13.918-28.511c-1.737-3.559-.177-7.848 3.44-9.46l11.991-5.344c2.899-1.293 6.307-.47 8.298 2.004z" fill="#e8f1f8"/><path d="m422.714 261.055v14.865c0 15.365-12.456 27.821-27.821 27.821-15.365 0-27.821-12.456-27.821-27.821v-14.865c0-15.365 12.456-27.821 27.821-27.821 15.365 0 27.821 12.456 27.821 27.821z" fill="#ebd8ae"/><path d="m144.918 261.055v14.865c0 15.365-12.456 27.821-27.821 27.821-15.365 0-27.821-12.456-27.821-27.821v-14.865c0-15.365 12.456-27.821 27.821-27.821 15.366 0 27.821 12.456 27.821 27.821z" fill="#ebd8ae"/><path d="m180.112 200.496v30.302c-1.77 1.666-3.284 3.811-4.375 6.441-1.991 4.799-2.601 10.746-1.707 16.774 1.246 8.145 5.053 15.253 10.188 19.015 1.396 1.021 2.855 1.779 4.349 2.257v5.329c0 15.913 11.126 31.384 33.02 45.994-1.286.127-2.568.447-3.796.994l-11.993 5.345c-3.294 1.47-5.868 4.226-6.879 8.336-44.853 21.586-74.468 66.833-74.468 118.483 0 19.961 16.107 36.115 36.118 36.115h190.853c19.915 0 36.117-16.202 36.117-36.115 0-50.463-29.15-96.59-74.455-118.475-.997-4.078-3.554-6.861-6.882-8.345l-11.993-5.345c-1.23-.546-2.513-.866-3.8-.992 21.899-14.7 33.024-30.173 33.024-45.996v-5.329c1.495-.478 2.953-1.236 4.349-2.257 5.135-3.762 8.941-10.87 10.188-19.015 0-.008.005-.018.005-.026.889-6.001.279-11.949-1.712-16.748-1.103-2.659-2.635-4.831-4.437-6.505v-30.238c0-36.648-29.814-66.461-66.458-66.461h-18.747c-36.675.001-66.509 29.814-66.509 66.462zm30 142.127 11.993-5.347c.702-.31 1.528-.111 2.012.489l24.337 30.232-11.475 8.717c-4.577 3.47-11.23 1.944-13.787-3.279l-13.916-28.515c-.413-.844-.06-1.901.836-2.297zm24.28-8.987v-.46c6.869 2.603 14.17 3.957 21.606 3.957 7.434 0 14.735-1.352 21.601-3.953v.463l-21.599 26.839zm76.622 18.452c40.209 20.601 65.935 62.225 65.935 107.68 0 14.074-11.45 25.524-25.526 25.524h-190.854c-14.209 0-25.526-11.456-25.526-25.524 0-46.402 25.963-87.256 65.952-107.67l12.68 25.981c5.482 11.236 19.818 14.569 29.705 7.069l12.621-9.585 12.621 9.585c9.92 7.532 24.243 4.116 29.705-7.069zm-9.124-9.465c.895.394 1.25 1.451.838 2.299l-13.916 28.51c-2.564 5.243-9.235 6.738-13.787 3.281l-11.475-8.717 24.332-30.232c.481-.605 1.308-.807 2.017-.486zm24.59-101.322c1.246 3.002 1.619 7.051 1.024 11.113-.983 6.392-3.837 10.495-5.983 12.07-.538.396-1.257.853-2.027.825-3.33-.889-6.651 1.629-6.651 5.12v10.185c0 15.618-16.178 29-29.188 37.674-16.497 10.793-38.807 10.801-55.314-.003-13.017-8.384-29.183-22.16-29.183-37.672v-10.185c0-3.469-3.283-6.003-6.651-5.12-.527.047-1.489-.429-2.027-.825-2.151-1.575-5.006-5.681-5.978-12.05-.605-4.07-.233-8.127 1.019-11.134 1.2-2.909 2.829-4.674 5.378-2.818 3.372 2.436 8.056.224 8.388-3.858 1.107-13.673 11.9-24.404 25.232-25.498l62.44-.018c13.818 1.114 24.647 11.843 25.749 25.513.334 4.132 5.091 6.303 8.44 3.824 2.458-1.816 4.172.046 5.332 2.857zm-79.858-96.675h18.747c30.806 0 55.867 25.064 55.867 55.87v24.007c-4.857-14.252-17.746-24.684-33.852-25.967l-63.288.018c-15.765 1.272-28.596 11.772-33.392 26.106v-24.164c-.001-30.807 25.086-55.87 55.918-55.87z"/><path d="m5.808 166.915 12.412 12.099c.615.605.9 1.469.755 2.317l-2.927 17.125c-1.851 10.761 9.484 19.011 19.165 13.914l15.364-8.083c.76-.401 1.665-.398 2.425.003l15.359 8.083c9.685 5.087 21.008-3.127 19.165-13.916l-2.927-17.12c-.145-.851.134-1.72.75-2.317l12.417-12.104c7.817-7.617 3.527-20.937-7.312-22.522l-17.18-2.508c-.853-.122-1.588-.659-1.97-1.427l-7.68-15.561c-4.842-9.812-18.844-9.805-23.68.003l-7.685 15.564c-.378.768-1.112 1.301-1.96 1.422l-17.18 2.508c-10.816 1.578-15.143 14.894-7.311 22.52zm8.843-12.039 17.18-2.508c4.303-.628 8.016-3.33 9.929-7.225l7.68-15.556c.963-1.946 3.725-1.95 4.691-.003l7.68 15.564c1.924 3.894 5.642 6.594 9.934 7.219l17.18 2.508c2.142.309 3.005 2.94 1.448 4.455l-12.417 12.106c-3.103 3.028-4.525 7.39-3.801 11.669 0 .003.005.005.005.01l2.932 17.123c.357 2.122-1.848 3.775-3.796 2.759l-15.359-8.08c-3.848-2.032-8.45-2.038-12.298 0l-15.359 8.078c-1.908 1.016-4.164-.61-3.796-2.754l2.927-17.125c.734-4.277-.683-8.644-3.796-11.682l-12.412-12.104c-1.572-1.529-.675-4.145 1.448-4.454z"/><path d="m187.843 93.552-17.174-2.503c-.853-.127-1.588-.659-1.97-1.432l-7.68-15.558c-4.833-9.799-18.834-9.826-23.68 0l-7.68 15.556c-.383.773-1.122 1.308-1.97 1.432l-17.18 2.506c-10.82 1.581-15.143 14.889-7.312 22.524l12.417 12.101c.615.6.895 1.466.755 2.309l-2.932 17.136c-1.836 10.739 9.472 19.01 19.165 13.906l15.359-8.078c.755-.403 1.67-.401 2.436-.003l15.354 8.08c9.664 5.089 21.023-3.117 19.165-13.911l-2.927-17.128v-.003c-.145-.846.14-1.709.755-2.312l12.412-12.099c7.826-7.624 3.511-20.942-7.313-22.523zm-.082 14.941-12.412 12.104c-3.113 3.036-4.53 7.4-3.796 11.677l2.927 17.13c.365 2.123-1.857 3.766-3.796 2.754l-15.354-8.083c-3.853-2.019-8.437-2.029-12.303.003l-15.359 8.08c-1.925 1.02-4.154-.629-3.796-2.751l2.937-17.141c.724-4.279-.698-8.644-3.801-11.672l-12.417-12.101c-1.549-1.511-.706-4.148 1.448-4.458l17.185-2.508c4.292-.628 8.005-3.328 9.929-7.225l7.68-15.556c.963-1.944 3.725-1.95 4.691-.003l7.674 15.553c1.919 3.894 5.627 6.599 9.934 7.232l17.18 2.506c2.14.313 3.011 2.935 1.449 4.459z"/><path d="m289.566 77.593 12.412-12.099c7.826-7.625 3.511-20.944-7.312-22.524l-17.18-2.508c-.848-.122-1.582-.654-1.965-1.427l-7.68-15.561c-4.842-9.812-18.844-9.805-23.68.003l-7.68 15.553c-.383.773-1.117 1.311-1.97 1.432l-17.18 2.508c-10.82 1.581-15.143 14.889-7.312 22.524l12.417 12.096c.615.602.895 1.471.755 2.314l-2.932 17.133c-1.844 10.778 9.487 18.999 19.165 13.909l15.359-8.08c.755-.403 1.67-.401 2.436-.003l15.354 8.086c9.756 5.11 21.008-3.207 19.165-13.914l-2.927-17.128v-.003c-.145-.845.14-1.708.755-2.311zm-7.395-7.579c-3.113 3.036-4.53 7.4-3.796 11.677l2.927 17.13c.368 2.139-1.875 3.756-3.796 2.754l-15.354-8.086c-3.853-2.019-8.437-2.029-12.303.003l-15.359 8.083c-1.908 1.003-4.158-.61-3.796-2.754l2.937-17.138c.724-4.279-.698-8.642-3.801-11.675l-12.417-12.099c-1.549-1.511-.706-4.148 1.448-4.458l17.18-2.508c4.292-.626 8.011-3.325 9.934-7.225l7.68-15.556c.963-1.944 3.725-1.95 4.691-.003l7.674 15.553c1.919 3.899 5.632 6.601 9.934 7.23l17.18 2.508c2.14.312 3.01 2.934 1.448 4.458z"/><path d="m396.388 128.175 12.412-12.099c7.826-7.625 3.511-20.944-7.312-22.524l-17.169-2.503c-.858-.127-1.593-.659-1.976-1.432l-7.68-15.558c-4.833-9.799-18.834-9.826-23.68 0l-7.68 15.556c-.383.773-1.122 1.308-1.97 1.432l-17.18 2.506c-10.863 1.588-15.114 14.922-7.307 22.522l12.412 12.104c.615.6.895 1.466.755 2.312l-2.927 17.128c-1.851 10.763 9.484 19.006 19.16 13.911l15.359-8.078c.755-.403 1.67-.401 2.436-.003l15.354 8.08c9.681 5.091 21.022-3.127 19.165-13.911l-2.927-17.128v-.003c-.145-.846.14-1.709.755-2.312zm-7.395-7.578c-3.113 3.036-4.53 7.4-3.796 11.677l2.927 17.13c.365 2.123-1.858 3.769-3.796 2.754l-15.354-8.083c-3.868-2.027-8.455-2.025-12.303.003l-15.359 8.08c-1.926 1.02-4.155-.632-3.791-2.754l2.932-17.138c.724-4.279-.698-8.644-3.801-11.669l-12.412-12.106c-1.563-1.521-.689-4.147 1.443-4.455l17.185-2.508c4.292-.628 8.005-3.328 9.929-7.225l7.68-15.556c.963-1.944 3.725-1.95 4.691-.003l7.674 15.553c1.919 3.897 5.632 6.599 9.94 7.232l17.174 2.506c2.14.312 3.01 2.934 1.448 4.458z"/><path d="m498.881 144.393-17.18-2.508c-.853-.122-1.588-.659-1.97-1.427l-7.674-15.561c-4.843-9.811-18.837-9.813-23.685.003l-7.674 15.553c-.383.773-1.117 1.311-1.97 1.432l-17.18 2.508c-10.837 1.584-15.13 14.904-7.312 22.522l12.417 12.104c.615.6.895 1.464.75 2.312l-2.927 17.13c-1.844 10.781 9.49 19.004 19.165 13.909l15.359-8.08c.765-.398 1.665-.398 2.431 0l15.359 8.083c9.756 5.11 21.008-3.207 19.165-13.914l-2.927-17.128v-.003c-.145-.846.134-1.709.755-2.312l12.412-12.101c7.815-7.617 3.526-20.938-7.314-22.522zm-.082 14.94-12.406 12.099c-3.113 3.03-4.535 7.398-3.801 11.682l2.927 17.13c.367 2.132-1.873 3.761-3.796 2.754l-15.359-8.08c-3.851-2.029-8.442-2.031-12.298 0l-15.359 8.078c-1.889 1.006-4.159-.593-3.796-2.754l2.927-17.125c.734-4.285-.683-8.654-3.796-11.682l-12.412-12.101c-1.549-1.511-.706-4.148 1.448-4.458l17.18-2.508c4.292-.626 8.011-3.325 9.934-7.225l7.674-15.553c.961-1.944 3.73-1.951 4.696-.005l7.674 15.564c1.924 3.894 5.642 6.594 9.934 7.219l17.18 2.508c2.158.311 2.995 2.95 1.449 4.457z"/><path d="m61.996 322.095c-7.486 14.967 3.86 32.818 20.836 32.818h68.522c16.987 0 28.381-17.869 20.826-32.839-5.867-11.593-15.119-21.318-27.683-27.577 3.607-5.301 5.72-11.697 5.72-18.578v-14.863c0-18.26-14.858-33.118-33.118-33.118s-33.119 14.858-33.119 33.118v14.863c0 6.892 2.122 13.296 5.738 18.602-11.829 5.907-21.727 15.625-27.722 27.574zm32.575-61.039c0-12.422 10.105-22.527 22.527-22.527s22.527 10.105 22.527 22.527v14.863c0 12.422-10.105 22.527-22.527 22.527s-22.527-10.105-22.527-22.527zm2.968 41.527c5.488 4.038 12.238 6.454 19.558 6.454 7.314 0 14.06-2.412 19.546-6.444 11.845 4.886 20.661 13.536 26.082 24.257 4.052 8.029-2.385 17.472-11.372 17.472h-68.521c-9 0-15.375-9.456-11.367-17.482 5.487-10.934 14.907-19.611 26.074-24.257z"/><path d="m428.012 261.056c0-18.26-14.858-33.118-33.118-33.118s-33.118 14.858-33.118 33.118v14.863c0 6.894 2.122 13.298 5.74 18.606-11.825 5.908-21.719 15.621-27.704 27.552-7.558 14.969 3.842 32.836 20.826 32.836h68.522c16.934 0 28.344-17.809 20.826-32.839-5.985-11.825-15.328-21.419-27.691-27.582 3.604-5.301 5.717-11.694 5.717-18.573zm-55.645 0c0-12.422 10.105-22.527 22.527-22.527s22.527 10.105 22.527 22.527v14.863c0 12.422-10.105 22.527-22.527 22.527s-22.527-10.105-22.527-22.527zm68.154 65.776c4.02 8.046-2.372 17.49-11.362 17.49h-68.522c-9.011 0-15.416-9.459-11.367-17.482 5.487-10.932 14.903-19.608 26.068-24.254 5.488 4.036 12.237 6.451 19.555 6.451 7.315 0 14.063-2.414 19.549-6.446 11.754 4.843 20.622 13.446 26.079 24.241z"/><path d="m233.032 249.568v-3.84c0-2.924-2.369-5.296-5.296-5.296s-5.296 2.371-5.296 5.296v3.84c0 2.924 2.369 5.296 5.296 5.296s5.296-2.372 5.296-5.296z"/><path d="m284.26 240.432c-2.927 0-5.296 2.371-5.296 5.296v3.84c0 2.924 2.369 5.296 5.296 5.296s5.296-2.371 5.296-5.296v-3.84c0-2.925-2.369-5.296-5.296-5.296z"/><path d="m272.237 287.705c-8.957 8.952-23.525 8.952-32.472 0-2.069-2.069-5.42-2.069-7.488 0-2.069 2.069-2.069 5.42 0 7.488 13.079 13.079 34.362 13.081 47.448 0 2.069-2.066 2.069-5.42 0-7.488-2.069-2.069-5.42-2.069-7.488 0z"/></g></g></svg>