<svg id="svg58" clip-rule="evenodd" fill-rule="evenodd" height="512" stroke-linejoin="round" stroke-miterlimit="2" viewBox="0 0 32 32" width="512" xmlns="http://www.w3.org/2000/svg" xmlns:xlink="http://www.w3.org/1999/xlink" xmlns:svg="http://www.w3.org/2000/svg"><linearGradient id="_Linear1" gradientTransform="matrix(17 -15 15 17 4 19)" gradientUnits="userSpaceOnUse" x1="0" x2="1" y1="0" y2="0"><stop id="stop31" offset="0" stop-color="#7f3af9"/><stop id="stop33" offset="1" stop-color="#b560ff"/></linearGradient><linearGradient id="_Linear2" gradientTransform="matrix(19 -16 16 19 8 19)" gradientUnits="userSpaceOnUse" x1="0" x2="1" y1="0" y2="0"><stop id="stop36" offset="0" stop-color="#18aefa"/><stop id="stop38" offset="1" stop-color="#83e1ff"/></linearGradient><linearGradient id="_Linear3" gradientTransform="matrix(-2 -3 -3 2 8 14)" gradientUnits="userSpaceOnUse" x1="0" x2="1" y1="0" y2="0"><stop id="stop41" offset="0" stop-color="#82e3ff"/><stop id="stop43" offset="1" stop-color="#fff"/></linearGradient><g id="g122"><g id="g6" transform="translate(0 5)"><path id="path4" d="m5 20.874c-1.725-.444-3-2.01-3-3.874 0-3.097 0-7.903 0-11 0-2.209 1.791-4 4-4h12c2.209 0 4 1.791 4 4v11c0 1.061-.421 2.078-1.172 2.828-.75.751-1.767 1.172-2.828 1.172h-6.649s-4.726 3.781-4.726 3.781c-.3.24-.712.287-1.058.12-.347-.166-.567-.517-.567-.901z" fill="url(#_Linear1)"/></g><path id="path8" d="m27 20.874v3.126c0 .384-.22.735-.567.901-.346.167-.758.12-1.058-.12l-4.726-3.781h-10.649c-2.209 0-4-1.791-4-4 0-3.097 0-7.903 0-11 0-2.209 1.791-4 4-4h16c2.209 0 4 1.791 4 4v11c0 1.864-1.275 3.43-3 3.874z" fill="url(#_Linear2)"/><g id="g14" transform="translate(-220 -33)"><path id="path12" d="m237 44c-1.104 0-2 .896-2 2s.896 2 2 2 2-.896 2-2-.896-2-2-2zm-6 0c-1.104 0-2 .896-2 2s.896 2 2 2 2-.896 2-2-.896-2-2-2zm12 0c-1.104 0-2 .896-2 2s.896 2 2 2 2-.896 2-2-.896-2-2-2z" fill-opacity=".1"/></g><g id="g18" transform="matrix(-1 0 0 1 25 0)"><path id="circle16" d="m9 12a2 2 0 0 1 -2 2 2 2 0 0 1 -2-2 2 2 0 0 1 2-2 2 2 0 0 1 2 2z" fill="url(#_Linear3)"/></g><g id="g22" transform="matrix(-1 0 0 1 19 0)"><path id="circle20" d="m9 12a2 2 0 0 1 -2 2 2 2 0 0 1 -2-2 2 2 0 0 1 2-2 2 2 0 0 1 2 2z" fill="url(#_Linear3)"/></g><g id="g26" transform="matrix(-1 0 0 1 31 0)"><path id="circle24" d="m9 12a2 2 0 0 1 -2 2 2 2 0 0 1 -2-2 2 2 0 0 1 2-2 2 2 0 0 1 2 2z" fill="url(#_Linear3)"/></g></g></svg>