<svg id="Layer_1" enable-background="new 0 0 96 96" height="96" viewBox="0 0 96 96" width="96" xmlns="http://www.w3.org/2000/svg" xmlns:xlink="http://www.w3.org/1999/xlink"><linearGradient id="SVGID_1_" gradientUnits="userSpaceOnUse" x1="2.871" x2="88.151" y1="71.431" y2="22.195"><stop offset="0" stop-color="#a238ff"/><stop offset="1" stop-color="#29a5f2"/></linearGradient><path d="m61.059 35.543c-3.184 0-5.773-2.592-5.773-5.775s2.59-5.773 5.773-5.773 5.775 2.59 5.775 5.773-2.592 5.775-5.775 5.775zm0 2c-4.525 0-8.396 3.109-9.414 7.465 2.563 2.107 5.844 3.377 9.414 3.377 3.582 0 6.871-1.275 9.438-3.396-1.022-4.28-4.979-7.446-9.438-7.446zm-21.827.523h-7.107v-9.056h7.107c.459 0 .857-.313.969-.756.518-2.066 1.311-3.996 2.355-5.738.236-.393.174-.896-.15-1.221l-5.02-5.02 6.434-6.408 4.992 5.016c.324.326.826.387 1.217.156 1.83-1.082 3.764-1.885 5.746-2.387.445-.111.756-.512.756-.969v-7.08h9.084v7.08c0 .457.311.857.754.969 2 .506 3.922 1.309 5.711 2.383.395.234.898.176 1.223-.15l5.02-5.02 6.41 6.41-5.02 5.02c-.324.324-.387.828-.15 1.221 1.076 1.793 1.877 3.725 2.381 5.738.111.443.512.756.971.756h7.078v9.057h-7.078c-.459 0-.859.313-.971.756-.504 2.014-1.305 3.945-2.381 5.738-.238.395-.174.902.154 1.227l1.145 1.127-6.838 5.982-.729-.713c-.324-.316-.822-.375-1.215-.143-1.789 1.074-3.711 1.877-5.711 2.383-.443.111-.754.512-.754.969v2.57c-1.404-2.48-4.068-4.137-7.051-4.137h-4.713c-1.314-.475-2.602-1.072-3.824-1.789-.393-.232-.896-.166-1.219.16l-1.578 1.602c-1.305-.063-2.475-.318-3.705-.832-1.775-.732-3.602-1.217-5.439-1.492l-.693-.68 5.014-5.014c.324-.324.387-.828.15-1.221-1.045-1.742-1.838-3.672-2.355-5.738-.112-.443-.511-.756-.97-.756zm4.981-4.527c0 9.289 7.557 16.846 16.846 16.846 4.238 0 8.105-1.586 11.068-4.178.078-.049.141-.117.201-.184 3.414-3.086 5.576-7.531 5.576-12.484 0-9.289-7.557-16.846-16.846-16.846s-16.845 7.557-16.845 16.846zm12.668 2.775c-2.158-1.383-3.596-3.797-3.596-6.547 0-4.287 3.486-7.773 7.773-7.773s7.775 3.486 7.775 7.773c0 2.748-1.438 5.16-3.594 6.545 3.199 1.215 5.742 3.793 6.879 7.094 2.346-2.627 3.785-6.078 3.785-9.867 0-8.186-6.66-14.846-14.846-14.846s-14.846 6.66-14.846 14.846c0 3.801 1.447 7.262 3.805 9.891 1.132-3.311 3.672-5.897 6.865-7.116zm-53.68 35.69 19.418 19.393 7.092-7.117-19.393-19.393zm88.713-25.135c-2.281-1.963-5.729-1.951-8.002.035l-16.566 14.49c-.029.031-.063.057-.096.084l-.684.598c-.117.861-.467 1.662-1.076 2.346-.854.996-2.068 1.553-3.41 1.553h-21.176c-.553 0-1-.447-1-1s.447-1 1-1h21.176c.758 0 1.418-.301 1.904-.869.52-.582.723-1.256.617-2.021-.416-2.996-3.012-5.258-6.037-5.258h-10.714c-.063 0-.121-.008-.182-.008-.035.002-.068-.002-.104-.004-1.719-.031-3.219-.338-4.807-1-7.463-3.076-15.885-1.674-21.973 3.654l-7.014 7.043 15.521 15.521.102-.1c.576-.563.709-.689.82-.771 4.137-3.555 8.855-5.303 14.375-5.303h13.492c4.225 0 7.828-1.357 11.021-4.146l22.819-19.983c.59-.525.879-1.162.879-1.941 0-.75-.299-1.396-.885-1.92zm-24.299 11.633 4.896-4.283-.074-.074c-1.533.854-3.15 1.529-4.822 2.014z" fill="url(#SVGID_1_)"/></svg>