<svg id="Layer_2" height="512" viewBox="0 0 512 512" width="512" xmlns="http://www.w3.org/2000/svg" xmlns:xlink="http://www.w3.org/1999/xlink" data-name="Layer 2"><linearGradient id="linear-gradient" gradientTransform="matrix(0 1 -1 0 512 0)" gradientUnits="userSpaceOnUse" x1="43.93" x2="468.07" y1="43.93" y2="468.07"><stop offset="0" stop-color="#2492ff"/><stop offset="1" stop-color="#0043ae"/></linearGradient><g id="Icon"><g id="_65" data-name="65"><rect id="Background" fill="url(#linear-gradient)" height="512" rx="150" transform="matrix(0 -1 1 0 0 512)" width="512"/><g fill="#fff"><path d="m210.73 361h-57.5c-1.38 0-2.5-1.12-2.5-2.5v-205c0-1.38 1.12-2.5 2.5-2.5h57.5c19.3 0 35-15.7 35-35s-15.7-35-35-35h-70c-33.08 0-60 26.92-60 60v230c0 33.08 26.92 60 60 60h70c19.3 0 35-15.7 35-35s-15.7-35-35-35zm25 35c0 13.81-11.19 25-25 25h-70c-27.61 0-50-22.39-50-50v-230c0-27.61 22.39-50 50-50h70c13.81 0 25 11.19 25 25 0 13.81-11.19 25-25 25h-57.5c-6.9 0-12.5 5.6-12.5 12.5v205c0 6.9 5.6 12.5 12.5 12.5h57.5c13.81 0 25 11.19 25 25z"/><path d="m396.27 221h-105.37l30.46-30.46c13.65-13.65 13.65-35.85 0-49.5-6.61-6.61-15.4-10.25-24.75-10.25s-18.14 3.64-24.75 10.25l-90.21 90.21c-6.61 6.61-10.25 15.4-10.25 24.75s3.64 18.14 10.25 24.75l90.21 90.21c6.61 6.61 15.4 10.25 24.75 10.25s18.14-3.64 24.75-10.25c13.65-13.65 13.65-35.85 0-49.5l-30.46-30.46h105.37c19.3 0 35-15.7 35-35s-15.7-35-35-35zm0 60h-129.51l47.53 47.53c9.76 9.76 9.76 25.59 0 35.36-9.76 9.76-25.59 9.76-35.36 0l-90.21-90.21c-9.76-9.76-9.76-25.59 0-35.36l90.21-90.21c9.76-9.76 25.59-9.76 35.36 0 9.76 9.76 9.76 25.59 0 35.36l-47.53 47.53h129.51c13.81 0 25 11.19 25 25 0 13.81-11.19 25-25 25z"/></g></g></g></svg>