<svg id="Capa_1" enable-background="new 0 0 512 512" height="512" viewBox="0 0 512 512" width="512" xmlns="http://www.w3.org/2000/svg" xmlns:xlink="http://www.w3.org/1999/xlink"><linearGradient id="SVGID_1_" gradientUnits="userSpaceOnUse" x1="32.777" x2="489.931" y1="470.082" y2="12.929"><stop offset="0" stop-color="#d1ddff" stop-opacity="0"/><stop offset="1" stop-color="#b6c4ff"/></linearGradient><g><g><g><path d="m250.151 428.957c5.183-63.657 96.582-69.506 140.26-82.462 56.896-16.876 87.14-75.533 77.608-137.591-2.701-17.582-9.062-34.548-10.412-52.286-3.496-45.942 27.779-58.883 42.588-94.36 21.148-50.662-42.894-77.673-84.817-53.003-21.68 12.758-38.645 31.88-56.197 49.902-17.553 18.022-37.772 35.35-62.448 40.248-37.681 7.478-75.956-15.702-113.997-10.349-32.639 4.593-60.642 32.316-65.562 64.908-3.517 23.297 3.491 48.496-6.423 69.869-8.238 17.76-26.173 28.497-41.383 40.823-27.82 22.544-49.025 53.745-57.456 88.546-11.369 46.929-1.664 117.624 48.34 135.439 28.892 10.293 61.429-16.398 90.46-6.51 17.427 5.936 29.332 23.937 47.341 27.757 23.54 4.995 44.814 8.538 52.098-80.931z" fill="url(#SVGID_1_)"/></g></g><g><g><path d="m469.807 301.623-11.527-8.488c.509-2.973.795-6.026.795-9.143 0-3.101-.286-6.154-.795-9.127l11.529-8.49c1.698-1.251 2.366-3.466 1.671-5.458-2.909-8.342-7.362-15.962-13.019-22.529-1.375-1.596-3.626-2.122-5.557-1.279l-13.117 5.731c-4.659-3.896-10.001-7.028-15.821-9.159l-1.589-14.2c-.234-2.095-1.815-3.783-3.886-4.174-4.217-.797-8.569-1.215-13.017-1.215s-8.79.418-13.002 1.215c-2.071.392-3.65 2.08-3.885 4.174l-1.589 14.201c-5.82 2.131-11.162 5.247-15.837 9.159l-13.09-5.731c-1.928-.844-4.178-.321-5.555 1.272-1.635 1.891-3.156 3.88-4.581 5.94h-75.581l43.644-91.848 31.479 42.839c2.804 3.815 7.245 6.084 11.979 6.118h.108c4.694 0 9.121-2.198 11.958-5.944l39.666-52.377 16.845 20.773c2.606 3.273 7.839 2.088 8.782-1.988l23.418-101.209c.979-4.229-3.526-7.61-7.313-5.49l-90.652 50.733c-3.651 2.043-3.328 7.399.542 8.988l24.336 10.247-27.401 36.182-34.437-46.863c-3.126-4.253-8.252-6.543-13.512-6.051-5.255.501-9.859 3.728-12.124 8.495l-60.532 127.395h-134.475l-32.081-71.825c-3.379-7.563-12.252-10.955-19.813-7.579-7.564 3.379-10.957 12.25-7.579 19.813l26.617 59.591h-26.56c-2.761 0-5 2.239-5 5v69.356c0 2.761 2.239 5 5 5h62.005l48.452 108.476c2.388 5.345 7.666 8.812 13.52 8.882.06.001.118.001.178.001 5.784 0 11.061-3.328 13.547-8.562l51.697-108.797h61.047c-19.107 14.012-31.524 36.605-31.524 62.118 0 42.542 34.488 77.03 77.03 77.03s77.03-34.487 77.03-77.03c0-11.474-2.528-22.352-7.027-32.136 2.467-.201 4.902-.516 7.289-.968 2.071-.392 3.651-2.08 3.886-4.174l1.589-14.2c5.82-2.147 11.146-5.263 15.821-9.159l13.103 5.731c1.93.844 4.18.319 5.556-1.275 5.657-6.557 10.111-14.178 13.03-22.53.695-1.993.028-4.211-1.671-5.462zm-299.985 88.577-29.712-66.522h61.322zm235.652-80.508c-14.191 0-25.685-11.509-25.685-25.7 0-14.176 11.494-25.685 25.685-25.685s25.685 11.509 25.685 25.685c0 14.192-11.494 25.7-25.685 25.7z" fill="#0000cb" opacity=".1"/><path d="m452.923 31.195-90.652 50.733c-3.651 2.043-3.328 7.399.542 8.988l24.336 10.247-27.401 36.182-34.437-46.863c-3.126-4.253-8.252-6.543-13.512-6.051-5.255.501-9.859 3.728-12.124 8.495l-129.853 273.274-97.238-217.703c-3.379-7.563-12.252-10.955-19.813-7.579-7.564 3.379-10.957 12.25-7.579 19.813l110.514 247.423c2.388 5.345 7.666 8.812 13.52 8.882.06.001.118.001.178.001 5.784 0 11.061-3.328 13.547-8.562l133.049-280.001 31.479 42.839c2.804 3.815 7.245 6.084 11.979 6.118h.108c4.694 0 9.121-2.198 11.958-5.944l39.666-52.377 16.845 20.773c2.606 3.273 7.839 2.088 8.782-1.988l23.418-101.209c.98-4.229-3.525-7.611-7.312-5.491z" fill="#6582fd"/><g><path d="m135.883 220.32h221.207v79.36h-221.207z" fill="#fff"/><path d="m135.883 299.678h-90.635c-2.761 0-5-2.239-5-5v-69.356c0-2.761 2.239-5 5-5h90.635c2.761 0 5 2.239 5 5v69.356c0 2.761-2.239 5-5 5z" fill="#6582fd"/><g><g><g><g><path d="m341.2 284.77c21.27 0 40.53 8.62 54.47 22.56l-54.47 131.5c-42.54 0-77.03-34.49-77.03-77.03 0-42.55 34.49-77.03 77.03-77.03z" fill="#6582fd"/><path d="m395.668 416.261c-13.942 13.942-33.196 22.565-54.465 22.565v-77.031z" fill="#fff"/><path d="m418.225 361.795c0 21.269-8.623 40.523-22.557 54.465l-54.465-54.465 54.465-54.465c13.934 13.942 22.557 33.196 22.557 54.465z" fill="#6582fd"/></g></g></g><g><g><path d="m327.706 361.892-7.958-7.958c3.32-6.337 2.321-14.364-2.998-19.683-6.55-6.549-17.206-6.549-23.756 0-6.549 6.549-6.549 17.207 0 23.756 3.275 3.274 7.576 4.912 11.878 4.912 2.685 0 5.369-.638 7.805-1.914l7.958 7.958c.977.976 2.256 1.464 3.536 1.464s2.559-.488 3.536-1.464c1.952-1.952 1.952-5.118-.001-7.071zm-27.64-10.955c-2.65-2.65-2.65-6.963 0-9.613 1.325-1.325 3.066-1.988 4.807-1.988s3.481.663 4.807 1.988c2.65 2.65 2.65 6.963 0 9.613s-6.964 2.65-9.614 0z" fill="#fff"/></g></g></g><g fill="#fff"><path d="m459.075 259.992c0-3.101-.286-6.154-.795-9.127l11.529-8.49c1.698-1.251 2.366-3.467 1.671-5.458-2.909-8.342-7.362-15.962-13.019-22.529-1.375-1.596-3.626-2.122-5.557-1.279l-13.117 5.731c-4.659-3.896-10.001-7.028-15.821-9.159l-1.589-14.2c-.234-2.095-1.815-3.783-3.886-4.174-4.217-.797-8.569-1.215-13.018-1.215-4.448 0-8.79.418-13.002 1.215-2.071.392-3.651 2.08-3.885 4.174l-1.589 14.201c-5.82 2.131-11.162 5.247-15.837 9.159l-13.09-5.731c-1.929-.844-4.178-.321-5.555 1.272-5.668 6.557-10.124 14.177-13.043 22.52-.697 1.991-.031 4.209 1.667 5.461l11.529 8.503c-.509 2.973-.779 6.01-.779 9.127 0 3.116.27 6.169.779 9.143l-11.529 8.503c-1.698 1.252-2.364 3.469-1.667 5.46 2.918 8.34 7.369 15.957 13.015 22.513 1.375 1.597 3.627 2.123 5.557 1.279l13.116-5.731c4.675 3.896 10.017 7.012 15.837 9.159l1.589 14.214c.234 2.097 1.817 3.786 3.891 4.176 4.215.792 8.562 1.2 12.997 1.2 4.449 0 8.801-.418 13.018-1.215 2.071-.392 3.651-2.08 3.886-4.174l1.589-14.2c5.82-2.147 11.146-5.263 15.821-9.159l13.103 5.731c1.93.844 4.18.319 5.556-1.275 5.657-6.558 10.111-14.178 13.03-22.53.696-1.992.029-4.21-1.67-5.461l-11.527-8.488c.509-2.977.795-6.029.795-9.146zm-53.601 25.7c-14.191 0-25.685-11.509-25.685-25.7 0-14.176 11.494-25.685 25.685-25.685s25.685 11.509 25.685 25.685c0 14.192-11.494 25.7-25.685 25.7z"/><path d="m405.47 234.31c-14.19 0-25.68 11.51-25.68 25.68 0 14.19 11.49 25.7 25.68 25.7 14.2 0 25.69-11.51 25.69-25.7 0-14.17-11.49-25.68-25.69-25.68zm0 0c-14.19 0-25.68 11.51-25.68 25.68 0 14.19 11.49 25.7 25.68 25.7 14.2 0 25.69-11.51 25.69-25.7 0-14.17-11.49-25.68-25.69-25.68z"/></g></g><g><g><path d="m112.01 272.008-7.958-7.958c3.32-6.337 2.321-14.364-2.998-19.683-6.55-6.549-17.206-6.549-23.756 0-6.549 6.549-6.549 17.207 0 23.756 3.275 3.274 7.576 4.912 11.878 4.912 2.685 0 5.369-.638 7.805-1.914l7.958 7.958c.977.976 2.256 1.464 3.536 1.464s2.559-.488 3.536-1.464c1.952-1.952 1.952-5.118-.001-7.071zm-27.64-10.956c-2.65-2.65-2.65-6.963 0-9.613 1.325-1.325 3.066-1.988 4.807-1.988s3.481.663 4.807 1.988c2.65 2.65 2.65 6.963 0 9.613s-6.964 2.651-9.614 0z" fill="#fff"/></g></g><path d="m178.277 281.658h-15.396c-1.657 0-3-1.343-3-3v-38.544c0-1.657 1.343-3 3-3h15.396c1.657 0 3 1.343 3 3v38.544c0 1.657-1.343 3-3 3z" fill="#6582fd"/><path d="m217.182 336.432 71.984-151.489h-33.215l-71.984 151.489z" fill="#6582fd"/><g fill="#0000cb"><path d="m472.771 273.597-9.113-6.711c.277-2.322.417-4.631.417-6.894 0-2.255-.14-4.559-.417-6.878l9.114-6.713c3.479-2.561 4.857-7.033 3.429-11.131-3.091-8.863-7.785-16.987-13.952-24.146-2.829-3.283-7.389-4.326-11.347-2.597l-10.366 4.529c-3.709-2.783-7.704-5.097-11.934-6.912l-1.257-11.219c-.48-4.298-3.666-7.727-7.926-8.532-9.138-1.726-18.74-1.728-27.878 0-4.259.806-7.443 4.234-7.924 8.53l-1.256 11.221c-4.243 1.818-8.244 4.132-11.949 6.911l-10.338-4.527c-3.954-1.729-8.511-.691-11.343 2.583-1.178 1.364-2.286 2.774-3.357 4.208h-65.11l36.659-77.147 26.522 36.093c3.719 5.073 9.692 8.125 16.013 8.164h.11c6.227 0 12.185-2.962 15.936-7.921l35.82-47.296 12.8 15.778c2.407 3.027 6.246 4.38 10.015 3.529 3.777-.851 6.671-3.723 7.551-7.504l23.423-101.209c.896-3.91-.54-7.836-3.748-10.244-3.206-2.407-7.374-2.692-10.889-.736l-90.646 50.739c-3.379 1.889-5.333 5.463-5.101 9.328.231 3.865 2.6 7.18 6.142 8.635l18.408 7.745-19.47 25.714-30.474-41.472c-4.141-5.623-11.038-8.709-18.01-8.063-6.963.662-13.159 5.003-16.172 11.332l-96.884 203.896h-153.019v-69.36h163.24c2.762 0 5-2.238 5-5s-2.238-5-5-5h-100.587l-30.756-68.854c-2.172-4.879-6.115-8.618-11.104-10.529-4.994-1.914-10.434-1.766-15.314.418-4.875 2.18-8.611 6.127-10.521 11.114-1.911 4.991-1.763 10.426.417 15.301l23.478 52.55h-18.853c-5.514 0-10 4.486-10 10v69.359c0 5.514 4.486 10 10 10h91.617l28.387 63.56c.796 1.781 2.556 2.938 4.507 2.961h.059c1.929 0 3.688-1.109 4.516-2.854l129.849-273.267c1.508-3.168 4.607-5.341 8.078-5.671 3.498-.318 6.948 1.223 9.018 4.033l34.44 46.869c.935 1.271 2.415 2.027 3.993 2.039h.036c1.565 0 3.041-.733 3.986-1.981l27.4-36.189c.932-1.231 1.243-2.824.843-4.314-.4-1.491-1.467-2.714-2.891-3.312l-24.377-10.259 90.657-50.729-23.446 101.166-16.85-20.77c-.968-1.192-2.451-1.906-3.966-1.849-1.536.025-2.976.756-3.903 1.98l-39.672 52.382c-1.874 2.478-4.851 3.956-7.962 3.956h-.079c-3.14-.02-6.122-1.543-7.981-4.081l-31.48-42.84c-1.042-1.418-2.748-2.179-4.504-2.017-1.752.167-3.286 1.242-4.041 2.832l-133.05 279.999c-1.65 3.473-5.196 5.717-9.034 5.717h-.12c-3.889-.046-7.422-2.371-9.005-5.93l-36.44-81.561c-1.127-2.521-4.081-3.65-6.605-2.525-2.521 1.127-3.651 4.084-2.525 6.605l36.438 81.553c3.163 7.109 10.235 11.764 18.078 11.857h.181c7.677 0 14.768-4.484 18.065-11.425l50.339-105.936h44.539c-14.942 15.388-23.173 35.639-23.173 57.12 0 45.231 36.799 82.03 82.03 82.03s82.03-36.799 82.03-82.03c0-9.682-1.648-19.077-4.905-28.014.364-.063.731-.112 1.094-.18 4.26-.806 7.445-4.234 7.926-8.531l1.257-11.227c4.229-1.821 8.223-4.134 11.928-6.907l10.357 4.53c3.956 1.731 8.517.688 11.344-2.59 6.163-7.143 10.862-15.268 13.965-24.147 1.431-4.097.054-8.573-3.427-11.135zm-423.016-114.908c-1.089-2.436-1.163-5.15-.208-7.645s2.824-4.47 5.264-5.561 5.159-1.164 7.655-.208c2.492.954 4.462 2.821 5.549 5.263l28.936 64.781h-21.894zm120.206 195.565-22.141-49.574h45.698zm105.553-128.934h63.55c-1.668 3.19-3.112 6.502-4.312 9.932-1.432 4.096-.058 8.569 3.419 11.135l9.123 6.728c-.27 2.291-.405 4.594-.405 6.878 0 2.292.136 4.6.405 6.894l-9.123 6.729c-2.17 1.6-3.52 3.944-3.881 6.476-14.593 1.209-28.399 6.237-40.244 14.59h-51.49zm-6.344 136.48c0-38.039 30.042-69.599 67.631-71.878 2.989 6.862 6.965 13.224 11.897 18.951 2.829 3.284 7.39 4.329 11.348 2.599l10.37-4.532c3.647 2.728 7.584 5.008 11.752 6.82l-44.5 44.5c-.938.938-1.465 2.209-1.465 3.535v71.842c-37.393-2.577-67.033-33.801-67.033-71.837zm144.06 0c0 38.034-29.637 69.257-67.027 71.837v-69.771l37.622-37.622c.875 3.75 3.854 6.649 7.729 7.377 4.542.854 9.226 1.286 13.92 1.286.845 0 1.691-.031 2.536-.059 3.458 8.542 5.22 17.589 5.22 26.952zm41.519-59.555-12.958-5.668c-1.734-.758-3.751-.472-5.205.74-4.308 3.59-9.135 6.386-14.35 8.309-1.774.655-3.028 2.255-3.238 4.135l-1.572 14.044c-7.847 1.466-16.117 1.457-23.888.014l-1.572-14.057c-.21-1.88-1.464-3.48-3.238-4.136-5.234-1.931-10.067-4.726-14.366-8.309-1.453-1.212-3.469-1.497-5.203-.741l-12.971 5.668c-5.261-6.134-9.281-13.089-11.954-20.677l11.402-8.408c1.521-1.122 2.279-3.005 1.961-4.867-.47-2.745-.708-5.537-.708-8.3 0-2.752.238-5.539.708-8.284.318-1.862-.44-3.745-1.961-4.867l-11.402-8.409c2.677-7.598 6.705-14.554 11.977-20.678l12.944 5.668c1.742.763 3.759.474 5.215-.746 4.293-3.592 9.12-6.384 14.347-8.298 1.781-.652 3.039-2.255 3.25-4.139l1.572-14.045c7.83-1.462 16.06-1.461 23.888.001l1.572 14.044c.211 1.884 1.469 3.486 3.25 4.139 5.204 1.905 10.025 4.698 14.331 8.299 1.454 1.217 3.474 1.505 5.21.747l12.973-5.669c5.272 6.146 9.294 13.105 11.955 20.688l-11.401 8.396c-1.522 1.122-2.282 3.006-1.964 4.869.48 2.806.724 5.593.724 8.284 0 2.702-.243 5.494-.724 8.3-.318 1.863.441 3.748 1.964 4.869l11.398 8.395c-2.673 7.598-6.697 14.558-11.966 20.689z"/><path d="m405.474 229.308c-16.92 0-30.685 13.765-30.685 30.685 0 16.928 13.765 30.7 30.685 30.7s30.686-13.772 30.686-30.7c-.001-16.921-13.766-30.685-30.686-30.685zm0 51.384c-11.405 0-20.685-9.286-20.685-20.7 0-11.405 9.279-20.685 20.685-20.685s20.686 9.279 20.686 20.685c-.001 11.414-9.28 20.7-20.686 20.7z"/></g></g><g><path d="m329.171 59.889c-2.762 0-5-2.238-5-5 0-3.032-2.468-5.5-5.5-5.5-2.762 0-5-2.238-5-5s2.238-5 5-5c3.032 0 5.5-2.468 5.5-5.5 0-2.762 2.238-5 5-5s5 2.238 5 5c0 3.032 2.468 5.5 5.5 5.5 2.762 0 5 2.238 5 5s-2.238 5-5 5c-3.032 0-5.5 2.468-5.5 5.5 0 2.761-2.238 5-5 5z" fill="#6582fd"/></g><g><path d="m248.3 467.94c-2.762 0-5-2.238-5-5 0-3.032-2.468-5.5-5.5-5.5-2.762 0-5-2.238-5-5s2.238-5 5-5c3.032 0 5.5-2.468 5.5-5.5 0-2.762 2.238-5 5-5s5 2.238 5 5c0 3.032 2.468 5.5 5.5 5.5 2.762 0 5 2.238 5 5s-2.238 5-5 5c-3.032 0-5.5 2.468-5.5 5.5 0 2.762-2.238 5-5 5z" fill="#6582fd"/></g><g><path d="m72.387 446.157c-2.762 0-5-2.238-5-5 0-3.032-2.468-5.5-5.5-5.5-2.762 0-5-2.238-5-5s2.238-5 5-5c3.032 0 5.5-2.468 5.5-5.5 0-2.762 2.238-5 5-5s5 2.238 5 5c0 3.032 2.468 5.5 5.5 5.5 2.762 0 5 2.238 5 5s-2.238 5-5 5c-3.032 0-5.5 2.468-5.5 5.5 0 2.762-2.239 5-5 5z" fill="#6582fd"/></g><g><path d="m91.309 391.674c-1.279 0-2.56-.488-3.535-1.465l-10.5-10.5c-1.953-1.952-1.953-5.118 0-7.07l10.5-10.5c1.951-1.953 5.119-1.953 7.07 0l10.5 10.5c1.953 1.952 1.953 5.118 0 7.07l-10.5 10.5c-.976.977-2.256 1.465-3.535 1.465zm-3.429-15.5 3.429 3.429 3.429-3.429-3.429-3.429z" fill="#6582fd"/></g><g><path d="m237.8 135.51c-1.279 0-2.56-.488-3.535-1.465l-10.5-10.5c-1.953-1.952-1.953-5.118 0-7.07l10.5-10.5c1.951-1.953 5.119-1.953 7.07 0l10.5 10.5c1.953 1.952 1.953 5.118 0 7.07l-10.5 10.5c-.976.976-2.256 1.465-3.535 1.465zm-3.429-15.5 3.429 3.429 3.429-3.429-3.429-3.429z" fill="#6582fd"/></g></g></g></svg>