<svg viewBox="0 0 24 24" xmlns="http://www.w3.org/2000/svg"><g id="Layer_2" data-name="Layer 2"><g fill="#0db561"><path d="m20 19.75h-13a2.75 2.75 0 0 1 0-5.5h11a.75.75 0 0 1 0 1.5h-11a1.25 1.25 0 0 0 0 2.5h13a.75.75 0 0 1 0 1.5z"/><circle cx="8.5" cy="21.25" r="1.5"/><circle cx="17.5" cy="21.25" r="1.5"/><path d="m6.999 15.75a.7511.7511 0 0 1 -.7373-.61572l-1.92381-10.58252a.2494.2494 0 0 0 -.10742-.16309l-2.64647-1.76467a.75.75 0 1 1 .832-1.248l2.6465 1.76463a1.75988 1.75988 0 0 1 .751 1.1416l1.9248 10.58349a.75037.75037 0 0 1 -.60449.87207.73989.73989 0 0 1 -.13481.01221z"/><path d="m22.07813 5.94189a1.73581 1.73581 0 0 0 -1.39356-.69189h-14.12598a1.75053 1.75053 0 0 0 -1.72168 2.06348l1.27637 7.00052a1.74823 1.74823 0 0 0 1.72072 1.436h10.90623a1.75426 1.75426 0 0 0 1.68555-1.28174l1.94434-7a1.73718 1.73718 0 0 0 -.29199-1.52637z"/></g><path d="m13.5 12.75a.7502.7502 0 0 1 -.75-.75v-4a.75.75 0 0 1 1.5 0v4a.7502.7502 0 0 1 -.75.75z" fill="#1c5e3f"/><path d="m15.5 10.75h-4a.75.75 0 0 1 0-1.5h4a.75.75 0 0 1 0 1.5z" fill="#1c5e3f"/></g></svg>