<svg id="Layer_1" viewBox="0 0 512 512" xmlns="http://www.w3.org/2000/svg" data-name="Layer 1"><g fill="#a3b7ff"><path d="m131.78 87.007c0-3.866 3.134-7 7-7h65.448v-14.181h-65.616c-11.587 0-21.013 9.426-21.013 21.012v92.069h14.181z"/><path d="m351.352 311.027h53.809c2.282 0 4.21-1.928 4.21-4.21v-53.808c0-2.282-1.928-4.209-4.21-4.209h-53.809c-2.281 0-4.209 1.928-4.209 4.209v53.808c0 2.282 1.928 4.21 4.209 4.21zm5.889-40.723c3.35-1.933 7.63-.786 9.562 2.562l4.875 8.445 19.146-19.145c2.734-2.734 7.168-2.732 9.898 0 2.734 2.734 2.734 7.166 0 9.899l-25.596 25.595c-1.32 1.321-3.105 2.05-4.949 2.05-.304 0-.608-.02-.914-.06-2.157-.284-4.06-1.556-5.148-3.44l-9.437-16.345c-1.933-3.348-.785-7.629 2.562-9.562z"/><path d="m351.352 417.344h53.809c2.282 0 4.21-1.928 4.21-4.209v-53.808c0-2.282-1.928-4.21-4.21-4.21h-53.809c-2.281 0-4.209 1.928-4.209 4.21v53.808c0 2.282 1.928 4.209 4.209 4.209zm5.889-40.723c3.35-1.932 7.63-.786 9.562 2.562l4.875 8.445 19.146-19.145c2.734-2.733 7.168-2.732 9.898 0 2.734 2.734 2.734 7.166 0 9.899l-25.596 25.595c-1.32 1.321-3.105 2.05-4.949 2.05-.304 0-.608-.02-.914-.06-2.157-.284-4.06-1.556-5.148-3.44l-9.437-16.345c-1.933-3.348-.785-7.629 2.562-9.562z"/><path d="m136.734 356.032c.452-2.298 2.024-4.217 4.188-5.113l22.495-9.32c2.165-.896 4.634-.652 6.578.653l9.22 6.182 13.996-13.997-6.182-9.218c-1.305-1.945-1.55-4.415-.653-6.578l9.32-22.496c.896-2.164 2.815-3.735 5.113-4.188l10.886-2.146v-19.795l-10.887-2.147c-2.297-.453-4.216-2.025-5.112-4.188l-9.32-22.496c-.896-2.164-.651-4.633.653-6.578l6.182-9.218-13.997-13.997-9.218 6.182c-1.945 1.304-4.416 1.55-6.577.653l-22.496-9.32c-2.164-.896-3.736-2.815-4.188-5.113l-2.146-10.887h-19.795l-2.147 10.888c-.453 2.297-2.024 4.216-4.188 5.112l-22.495 9.32c-2.165.896-4.634.652-6.578-.653l-9.219-6.182-13.997 13.997 6.182 9.218c1.305 1.945 1.55 4.414.653 6.578l-9.319 22.496c-.896 2.163-2.814 3.735-5.112 4.188l-10.888 2.147v19.795l10.887 2.146c2.298.453 4.217 2.025 5.113 4.188l9.319 22.496c.896 2.164.651 4.632-.653 6.578l-6.181 9.219 13.996 13.997 9.219-6.182c1.943-1.305 4.414-1.55 6.577-.653l22.495 9.319c2.164.896 3.736 2.815 4.188 5.113l2.147 10.888h19.795l2.146-10.887zm-67.253-76.119c0-30.442 24.767-55.209 55.209-55.209s55.209 24.767 55.209 55.209-24.767 55.208-55.209 55.208-55.209-24.767-55.209-55.208z"/><path d="m453.304 65.826h-65.616v14.181h65.447c3.866 0 7 3.134 7 7v385.813c0 3.866-3.134 7-7 7h-314.355c-3.866 0-7-3.134-7-7v-91.9h-14.181v92.069c0 11.586 9.426 21.012 21.013 21.012h314.69c11.586 0 21.012-9.426 21.013-21.012v-386.15c0-11.586-9.426-21.012-21.012-21.012z"/><path d="m351.352 204.711h53.809c2.282 0 4.21-1.928 4.21-4.21v-53.808c0-2.282-1.928-4.209-4.21-4.209h-53.809c-2.281 0-4.209 1.928-4.209 4.209v53.808c0 2.282 1.928 4.21 4.209 4.21zm5.889-40.723c3.35-1.933 7.63-.786 9.562 2.562l4.875 8.445 19.146-19.145c2.734-2.733 7.167-2.732 9.899 0 2.733 2.734 2.733 7.166 0 9.899l-25.596 25.595c-1.32 1.321-3.105 2.05-4.949 2.05-.304 0-.608-.02-.914-.06-2.157-.284-4.06-1.556-5.148-3.44l-9.437-16.345c-1.933-3.348-.785-7.629 2.562-9.562z"/></g><path d="m453.304 51.826h-66.669c-1.295-4.177-3.76-7.901-7.259-10.84-5.438-4.57-12.009-6.338-19.005-5.115l-24.639 4.307c-1.907-20.267-19.018-36.178-39.774-36.178s-37.867 15.912-39.774 36.178l-24.639-4.307c-6.898-1.204-13.646.612-19.005 5.114-3.558 2.989-6.01 6.668-7.286 10.841h-66.642c-19.306 0-35.013 15.707-35.013 35.012v96.591c-1.039 1.359-1.791 2.958-2.138 4.721l-1.826 9.257-15.568 6.45-7.84-5.257c-4.536-3.039-10.626-2.442-14.484 1.416l-16.948 16.947c-3.861 3.861-4.457 9.955-1.415 14.488l5.256 7.838-6.45 15.569-9.255 1.825c-5.357 1.055-9.246 5.784-9.246 11.244v23.969c0 5.459 3.888 10.188 9.244 11.245l9.257 1.825 6.45 15.568-5.255 7.837c-3.043 4.535-2.447 10.628 1.414 14.488l16.947 16.948c3.859 3.861 9.952 4.454 14.487 1.416l7.838-5.256 15.568 6.45 1.825 9.257c.348 1.764 1.1 3.363 2.139 4.722v96.592c0 19.305 15.707 35.012 35.013 35.012h314.69c19.305 0 35.012-15.706 35.013-35.012v-386.149c0-19.306-15.706-35.012-35.012-35.012zm-235.075 7c0-2.917 1.085-5.247 3.318-7.123 2.232-1.876 4.711-2.546 7.588-2.042l32.667 5.71c2.035.354 4.125-.207 5.708-1.537s2.497-3.292 2.497-5.359v-4.526c0-14.31 11.642-25.951 25.951-25.951s25.951 11.642 25.951 25.951v4.526c0 2.067.914 4.029 2.497 5.359 1.582 1.33 3.674 1.89 5.708 1.537l32.667-5.71c2.876-.504 5.355.166 7.589 2.042 2.232 1.876 3.317 4.206 3.317 7.123v28.461h-155.459v-28.461zm162.459 42.461c3.866 0 7-3.134 7-7v-.28h58.447v371.813h-300.355v-89.423c1.039-1.359 1.791-2.958 2.14-4.721l1.824-9.257 15.568-6.45 7.839 5.256c4.533 3.041 10.625 2.445 14.487-1.415l16.948-16.95c3.86-3.861 4.455-9.954 1.414-14.487l-5.256-7.837 6.45-15.568 9.257-1.825c5.355-1.056 9.243-5.785 9.243-11.245v-23.969c0-5.46-3.888-10.189-9.243-11.244l-9.257-1.825-6.45-15.569 5.257-7.839c3.039-4.534 2.444-10.625-1.416-14.486l-16.948-16.949c-3.861-3.859-9.953-4.453-14.487-1.414l-7.838 5.256-15.568-6.45-1.825-9.259c-.348-1.763-1.1-3.361-2.139-4.719v-89.423h58.448v.28c0 3.866 3.134 7 7 7h169.459zm-242.075-35.461h65.616v14.181h-65.448c-3.866 0-7 3.134-7 7v91.9h-14.181v-92.069c0-11.586 9.426-21.012 21.013-21.012zm-52.65 275.773c-2.163-.896-4.634-.652-6.577.653l-9.219 6.182-13.996-13.997 6.181-9.219c1.305-1.945 1.55-4.414.653-6.578l-9.319-22.496c-.896-2.164-2.815-3.735-5.113-4.188l-10.887-2.146v-19.795l10.888-2.147c2.298-.453 4.216-2.025 5.112-4.188l9.319-22.496c.896-2.164.651-4.632-.653-6.578l-6.182-9.218 13.997-13.997 9.219 6.182c1.944 1.305 4.413 1.549 6.578.653l22.495-9.32c2.163-.896 3.734-2.815 4.188-5.112l2.147-10.888h19.795l2.146 10.887c.452 2.297 2.024 4.216 4.188 5.113l22.496 9.32c2.161.896 4.632.651 6.577-.653l9.218-6.182 13.997 13.997-6.182 9.218c-1.305 1.945-1.55 4.415-.653 6.578l9.32 22.496c.896 2.164 2.815 3.735 5.112 4.188l10.887 2.147v19.795l-10.886 2.146c-2.298.453-4.217 2.025-5.113 4.188l-9.32 22.496c-.896 2.164-.651 4.633.653 6.578l6.182 9.218-13.996 13.997-9.22-6.182c-1.944-1.305-4.413-1.549-6.578-.653l-22.495 9.32c-2.163.896-3.735 2.815-4.188 5.113l-2.146 10.887h-19.795l-2.147-10.888c-.452-2.298-2.024-4.216-4.188-5.113l-22.495-9.319zm388.354 131.389c0 11.586-9.427 21.012-21.013 21.012h-314.692c-11.587 0-21.013-9.426-21.013-21.012v-92.069h14.181v91.9c0 3.866 3.134 7 7 7h314.354c3.866 0 7-3.134 7-7v-385.812c0-3.866-3.134-7-7-7h-65.447v-14.181h65.616c11.586 0 21.012 9.426 21.012 21.012v386.149zm-294.416-193.074c0-30.442-24.767-55.209-55.209-55.209s-55.209 24.767-55.209 55.209 24.767 55.208 55.209 55.208 55.209-24.767 55.209-55.208zm-96.418 0c0-22.723 18.486-41.209 41.209-41.209s41.209 18.486 41.209 41.209-18.486 41.208-41.209 41.208-41.209-18.486-41.209-41.208zm267.87-61.203h53.809c10.041 0 18.21-8.169 18.21-18.21v-53.808c0-10.041-8.169-18.209-18.21-18.209h-53.809c-10.04 0-18.209 8.169-18.209 18.209v53.808c0 10.041 8.169 18.21 18.209 18.21zm-4.209-72.018c0-2.282 1.928-4.209 4.209-4.209h53.809c2.282 0 4.21 1.928 4.21 4.209v53.808c0 2.282-1.928 4.21-4.21 4.21h-53.809c-2.281 0-4.209-1.928-4.209-4.21zm7.535 26.857c-1.933-3.348-.785-7.629 2.562-9.562 3.35-1.933 7.63-.786 9.562 2.562l4.875 8.445 19.146-19.145c2.734-2.733 7.167-2.732 9.899 0 2.733 2.734 2.733 7.166 0 9.899l-25.596 25.595c-1.32 1.321-3.105 2.05-4.949 2.05-.304 0-.608-.02-.914-.06-2.157-.284-4.06-1.556-5.148-3.44l-9.437-16.345zm-3.326 151.478h53.809c10.041 0 18.21-8.169 18.21-18.21v-53.808c0-10.041-8.169-18.209-18.21-18.209h-53.809c-10.04 0-18.209 8.169-18.209 18.209v53.808c0 10.041 8.169 18.21 18.209 18.21zm-4.209-72.018c0-2.282 1.928-4.209 4.209-4.209h53.809c2.282 0 4.21 1.928 4.21 4.209v53.808c0 2.282-1.928 4.21-4.21 4.21h-53.809c-2.281 0-4.209-1.928-4.209-4.21zm7.535 26.857c-1.933-3.348-.785-7.629 2.562-9.562 3.35-1.933 7.63-.786 9.562 2.562l4.875 8.445 19.146-19.145c2.734-2.734 7.168-2.732 9.898 0 2.734 2.734 2.734 7.166 0 9.899l-25.596 25.595c-1.32 1.321-3.105 2.05-4.949 2.05-.304 0-.608-.02-.914-.06-2.157-.284-4.06-1.556-5.148-3.44l-9.437-16.345zm-3.326 151.478h53.809c10.041 0 18.21-8.169 18.21-18.209v-53.808c0-10.041-8.169-18.21-18.21-18.21h-53.809c-10.04 0-18.209 8.169-18.209 18.21v53.808c0 10.041 8.169 18.209 18.209 18.209zm-4.209-72.018c0-2.282 1.928-4.21 4.209-4.21h53.809c2.282 0 4.21 1.928 4.21 4.21v53.808c0 2.282-1.928 4.209-4.21 4.209h-53.809c-2.281 0-4.209-1.928-4.209-4.209zm7.535 26.856c-1.933-3.348-.785-7.629 2.562-9.562 3.35-1.932 7.63-.786 9.562 2.562l4.875 8.445 19.146-19.145c2.734-2.733 7.168-2.732 9.898 0 2.734 2.734 2.734 7.166 0 9.899l-25.596 25.595c-1.32 1.321-3.105 2.05-4.949 2.05-.304 0-.608-.02-.914-.06-2.157-.284-4.06-1.556-5.148-3.44l-9.437-16.345zm-120.846-106.269c0-3.866 3.134-7 7-7h23.376v-99.317c0-3.866 3.134-7 7-7h43.875c3.866 0 7 3.134 7 7s-3.134 7-7 7h-36.875v92.317h36.875c3.866 0 7 3.134 7 7s-3.134 7-7 7h-36.875v92.316h36.875c3.866 0 7 3.134 7 7s-3.134 7-7 7h-43.875c-3.866 0-7-3.134-7-7v-99.316h-23.376c-3.866 0-7-3.134-7-7z" fill="#466ffd"/></svg>