<svg height="512" viewBox="0 0 24 24" width="512" xmlns="http://www.w3.org/2000/svg"><g id="Flat_Color" data-name="Flat Color"><path d="m6 11a.93.93 0 0 1 -.45-.11 1 1 0 0 1 -.44-1.34l3-6a1 1 0 0 1 1.78.9l-3 6a1 1 0 0 1 -.89.55z" fill="#edebea"/><path d="m18 11a1 1 0 0 1 -.89-.55l-3-6a1 1 0 1 1 1.78-.9l3 6a1 1 0 0 1 -.44 1.34.93.93 0 0 1 -.45.11z" fill="#edebea"/><path d="m16.32 21h-8.64a4 4 0 0 1 -4-3.67l-.68-8.33h18l-.69 8.33a4 4 0 0 1 -3.99 3.67z" fill="#20bf55"/><g fill="#edebea"><path d="m8 18a1 1 0 0 1 -1-1v-4a1 1 0 0 1 2 0v4a1 1 0 0 1 -1 1z"/><path d="m12 18a1 1 0 0 1 -1-1v-4a1 1 0 0 1 2 0v4a1 1 0 0 1 -1 1z"/><path d="m16 18a1 1 0 0 1 -1-1v-4a1 1 0 0 1 2 0v4a1 1 0 0 1 -1 1z"/></g><path d="m21 10h-18a1 1 0 0 1 0-2h18a1 1 0 0 1 0 2z" fill="#109138"/></g></svg>