<svg height="512" viewBox="0 0 512 512" width="512" xmlns="http://www.w3.org/2000/svg" xmlns:xlink="http://www.w3.org/1999/xlink"><linearGradient id="Degradado_sin_nombre_11" gradientUnits="userSpaceOnUse" x1="33.119" x2="494.776" y1="269.082" y2="269.082"><stop offset="0" stop-color="#e32a2d"/><stop offset=".3134" stop-color="#d82429"/><stop offset=".8708" stop-color="#b9131f"/><stop offset="1" stop-color="#b10f1c"/></linearGradient><radialGradient id="radial-gradient" cx="273.421" cy="339.082" gradientTransform="matrix(.765 -.644 .489 .58 -101.389 318.426)" gradientUnits="userSpaceOnUse" r="270.534"><stop offset="0"/><stop offset="1" stop-color="#fff" stop-opacity="0"/></radialGradient><radialGradient id="radial-gradient-2" cx="219.554" cy="163.623" fx="270.328" fy="311.798" gradientUnits="userSpaceOnUse" r="219.386"><stop offset="0" stop-color="#fff"/><stop offset=".0736" stop-color="#fff" stop-opacity=".824"/><stop offset=".1652" stop-color="#fff" stop-opacity=".633"/><stop offset=".262" stop-color="#fff" stop-opacity=".463"/><stop offset=".362" stop-color="#fff" stop-opacity=".32"/><stop offset=".4663" stop-color="#fff" stop-opacity=".203"/><stop offset=".5761" stop-color="#fff" stop-opacity=".113"/><stop offset=".6941" stop-color="#fff" stop-opacity=".05"/><stop offset=".8259" stop-color="#fff" stop-opacity=".012"/><stop offset="1" stop-color="#fff" stop-opacity="0"/></radialGradient><g isolation="isolate"><g id="Layer_1" data-name="Layer 1"><circle cx="263.948" cy="269.082" fill="url(#Degradado_sin_nombre_11)" r="230.829"/><path d="m409.8919 198.8312c-3.8268-15.5516-16.9453-27.35-32.7965-28.9585-37.7159-4.29-75.4317-4.29-113.1481-4.29s-75.9778 0-113.1471 4.29c-15.8517 1.6088-28.97 13.4069-32.7965 28.9585-5.4659 22.5232-5.4659 47.1915-5.4659 70.2515 0 23.5953 0 47.7273 5.4659 70.25 3.8263 15.552 16.9448 27.35 32.7965 28.9585 37.7154 4.29 75.4317 4.29 113.1471 4.29s75.9788 0 113.1481-4.29c15.8512-1.6088 28.97-13.4065 32.7965-28.9585 5.4659-22.5232 5.4659-47.1915 5.4659-70.25s0-47.7283-5.4659-70.2515zm-92.0993 71.0711-84.2432 42.1218a4.2143 4.2143 0 0 1 -6.0988-3.77v-84.243a4.2141 4.2141 0 0 1 6.0988-3.7694l84.2432 42.1219a4.214 4.214 0 0 1 0 7.5387z" fill="#fff"/><path d="m476.2084 178.2537a230.5153 230.5153 0 0 1 2.6011 34.522c0 129.4458-107.6157 234.3828-240.3662 234.3828-75.187 0-142.3008-33.67-186.3769-86.3813 35.4755 81.8598 116.9836 139.1333 211.8813 139.1333 127.4829 0 230.8286-103.3452 230.8286-230.8286a230.0649 230.0649 0 0 0 -18.5679-90.8282z" fill="url(#radial-gradient)" mix-blend-mode="multiply"/><path d="m48.042 233.8175c21.96 56.25 116.2212 71.9993 210.5376 35.1772s158.5388-114.7753 131.0114-168.5214c-16.263-31.7533-69.4149-60.3147-132.1229-62.1182h-.3424c-100.9337 2.93-185.6031 70.6641-213.8983 163.0386a77.3991 77.3991 0 0 0 4.8146 32.4238z" fill="url(#radial-gradient-2)"/></g></g></svg>