<svg height="512" viewBox="0 0 128 128" width="512" xmlns="http://www.w3.org/2000/svg"><g><g><path d="m109 89.143a11.956 11.956 0 0 0 -11.945-11.943h-.78a6.027 6.027 0 0 1 -5.549-3.674l-12.432-29.3a16.319 16.319 0 0 1 -19.294-2.826l-2.224-2.23a5.89 5.89 0 0 1 -1.562-5.894 9.036 9.036 0 0 0 -2.239-9.11l-5.6 5.6-14.281 14.281 44.662 44.663a13.351 13.351 0 0 0 9.444 3.91h21.792z" fill="#855fe0"/><path d="m101.167 100.443h-17.214a13.352 13.352 0 0 1 -9.441-3.911l-43.94-43.939a4.26 4.26 0 0 1 0-6.024l2.522-2.522 44.662 44.663a13.351 13.351 0 0 0 9.444 3.91h21.792a7.822 7.822 0 0 1 -7.825 7.823z" fill="#dbcafc"/><path d="m34.917 39.645h7.191a10.468 10.468 0 0 1 10.468 10.468v2a0 0 0 0 1 0 0h-17.659a0 0 0 0 1 0 0v-12.468a0 0 0 0 1 0 0z" fill="#7659cf" transform="matrix(.707 .707 -.707 .707 45.256 -17.495)"/><g fill="#634bc9"><path d="m76.839 56.1a1.75 1.75 0 0 1 -.684-3.361l4.881-2.067a1.75 1.75 0 0 1 1.364 3.228l-4.881 2.068a1.75 1.75 0 0 1 -.68.132z"/><path d="m80.29 64.251a1.75 1.75 0 0 1 -.683-3.362l4.881-2.067a1.75 1.75 0 0 1 1.365 3.223l-4.881 2.067a1.734 1.734 0 0 1 -.682.139z"/><path d="m83.741 72.4a1.75 1.75 0 0 1 -.683-3.361l4.881-2.067a1.75 1.75 0 1 1 1.361 3.222l-4.877 2.066a1.734 1.734 0 0 1 -.682.14z"/></g><g fill="#0a0844"><path d="m20.7 30.627h12.087a1.75 1.75 0 0 0 0-3.5h-12.087a1.75 1.75 0 0 0 0 3.5z"/><path d="m51.584 83.05a1.75 1.75 0 0 0 -1.75-1.75h-20.373a1.75 1.75 0 0 0 0 3.5h20.373a1.749 1.749 0 0 0 1.75-1.75z"/><path d="m31.405 61.466a1.75 1.75 0 0 0 -1.75-1.75h-10.655a1.75 1.75 0 1 0 0 3.5h10.655a1.749 1.749 0 0 0 1.75-1.75z"/><path d="m86.181 98.693h-53.087a1.75 1.75 0 0 0 0 3.5h53.087a1.75 1.75 0 0 0 0-3.5z"/></g></g><g fill="#212168"><path d="m58.117 81.883a1.75 1.75 0 0 0 1.237-2.983l-1.125-1.125a1.749 1.749 0 0 0 -2.474 2.474l1.125 1.121a1.743 1.743 0 0 0 1.237.513z"/><path d="m97.058 75.447h-.781a4.268 4.268 0 0 1 -3.937-2.607l-8.993-21.2c-.006-.014-.008-.029-.014-.043s-.016-.027-.022-.041l-3.4-8.02a1.75 1.75 0 0 0 -2.443-.856 14.658 14.658 0 0 1 -17.222-2.525l-2.227-2.228a4.156 4.156 0 0 1 -1.132-4.124 10.8 10.8 0 0 0 -2.679-10.89 1.748 1.748 0 0 0 -2.464.011l-11.061 11.06h-.005l-8.819 8.82-2.521 2.52a6.008 6.008 0 0 0 0 8.5l20.417 20.421a1.749 1.749 0 1 0 2.474-2.474l-20.417-20.419a2.508 2.508 0 0 1 0-3.548l1.288-1.284 11.246 11.249 32.175 32.175a15 15 0 0 0 10.679 4.424h19.783a6.081 6.081 0 0 1 -5.813 4.322h-17.215a11.525 11.525 0 0 1 -8.2-3.4l-10.515-10.51a1.75 1.75 0 0 0 -2.474 2.475l10.511 10.512c.327.326.669.631 1.019.923h-41.196a1.75 1.75 0 0 0 0 3.5h68.07a9.582 9.582 0 0 0 9.572-9.564l.008-3.477v-.006a13.732 13.732 0 0 0 -13.692-13.696zm-61.487-31.4 6.345-6.347 3.847 3.847a8.728 8.728 0 0 1 0 12.329l-.18.18zm43.429 43.423-30.942-30.939.179-.179a12.232 12.232 0 0 0 0-17.279l-3.847-3.847 8.449-8.449a7.407 7.407 0 0 1 .709 5.965 7.591 7.591 0 0 0 1.993 7.658l2.228 2.228a18.2 18.2 0 0 0 19.631 3.951l2.026 4.776-3.264 1.382a1.75 1.75 0 0 0 .684 3.362 1.729 1.729 0 0 0 .681-.139l3.266-1.383 2.09 4.925-3.27 1.385a1.75 1.75 0 1 0 1.366 3.222l3.271-1.385 2.089 4.925-3.274 1.386a1.75 1.75 0 0 0 .683 3.361 1.732 1.732 0 0 0 .682-.138l3.27-1.387 1.415 3.335a7.763 7.763 0 0 0 7.16 4.741h.779a10.225 10.225 0 0 1 10.196 10.193v1.728h-20.05a11.529 11.529 0 0 1 -8.2-3.398z"/><path d="m20.7 30.624h12.09a1.75 1.75 0 0 0 0-3.5h-12.09a1.75 1.75 0 0 0 0 3.5z"/><path d="m51.587 83.048a1.749 1.749 0 0 0 -1.75-1.75h-20.373a1.75 1.75 0 0 0 0 3.5h20.373a1.749 1.749 0 0 0 1.75-1.75z"/><path d="m31.408 61.464a1.749 1.749 0 0 0 -1.75-1.75h-10.658a1.75 1.75 0 0 0 0 3.5h10.658a1.749 1.749 0 0 0 1.75-1.75z"/></g></g></svg>