<svg xmlns="http://www.w3.org/2000/svg" xmlns:xlink="http://www.w3.org/1999/xlink" width="1024" zoomAndPan="magnify" viewBox="0 0 768 767.999994" height="1024" preserveAspectRatio="xMidYMid meet" version="1.0"><defs><clipPath id="b1547631f5"><path d="M 370 396 L 478 396 L 478 537.898438 L 370 537.898438 Z M 370 396 " clip-rule="nonzero"/></clipPath></defs><path fill="#000000" d="M 359.304688 427.4375 L 311.183594 440.335938 C 308.976562 440.945312 307.199219 443.5 307.199219 446.03125 L 307.199219 476.085938 C 307.199219 478.609375 308.976562 480.210938 311.183594 479.621094 L 359.257812 466.730469 L 359.257812 455.601562 L 319.375 466.304688 L 319.375 449.238281 L 359.28125 438.539062 Z M 458.789062 401.113281 C 458.308594 401.011719 457.785156 401.011719 457.230469 401.164062 L 426.507812 409.410156 L 439.40625 417.0625 L 449.097656 414.449219 L 449.097656 422.792969 L 461.234375 430.011719 L 461.234375 404.726562 C 461.234375 402.820312 460.242188 401.441406 458.789062 401.113281 Z M 458.789062 401.113281 " fill-opacity="1" fill-rule="evenodd"/><path fill="#000000" d="M 309.230469 305.871094 L 270.011719 316.398438 C 253.914062 320.710938 240.71875 337.378906 240.71875 353.542969 L 240.71875 510.996094 C 240.71875 527.136719 253.921875 536.757812 270.011719 532.449219 L 363.058594 507.480469 C 360.230469 503.503906 359.199219 500.542969 359.199219 496.285156 L 270.011719 520.199219 C 260.425781 522.773438 252.964844 517.269531 252.964844 507.707031 L 252.964844 350.257812 C 252.964844 340.710938 260.425781 331.214844 270.011719 328.625 L 309.230469 318.132812 Z M 507.136719 254.121094 C 504.378906 254 501.449219 254.320312 498.445312 255.121094 L 459.238281 265.644531 L 459.238281 277.902344 L 498.445312 267.371094 C 508.011719 264.816406 515.496094 270.304688 515.496094 279.859375 L 515.496094 437.308594 C 515.496094 446.851562 508.011719 456.355469 498.445312 458.9375 L 486.808594 462.046875 L 480.464844 476.003906 L 498.445312 471.167969 C 514.546875 466.855469 527.738281 450.144531 527.738281 434.023438 L 527.738281 276.574219 C 527.742188 263.441406 519.03125 254.644531 507.136719 254.121094 Z M 507.136719 254.121094 " fill-opacity="1" fill-rule="evenodd"/><path fill="#000000" d="M 384.226562 234.445312 C 352.144531 243.035156 326.15625 276.046875 326.15625 308.132812 C 326.15625 323.539062 332.265625 336.726562 343.15625 344.699219 C 354.054688 352.667969 368.816406 354.847656 384.226562 350.71875 C 399.621094 346.582031 414.421875 336.480469 425.308594 322.675781 C 436.203125 308.835938 442.308594 292.417969 442.308594 276.980469 C 442.308594 261.5625 436.199219 248.425781 425.28125 240.4375 C 414.394531 232.464844 399.621094 230.304688 384.226562 234.445312 Z M 385.796875 258.023438 C 386.796875 257.800781 387.773438 257.679688 388.726562 257.652344 C 396.664062 257.449219 401.523438 264.1875 399.621094 272.707031 C 397.738281 281.234375 389.777344 288.328125 381.871094 288.527344 C 373.929688 288.753906 369.050781 282.015625 370.949219 273.46875 C 372.574219 266.148438 378.789062 259.652344 385.796875 258.023438 Z M 370.5 301.859375 L 397.964844 294.492188 C 404.351562 292.761719 410.085938 295.351562 411.917969 300.6875 L 414.199219 307.324219 C 416.503906 314.117188 410.738281 319.9375 402.683594 324.140625 C 390.457031 330.554688 378.289062 333.84375 365.800781 334.015625 C 357.730469 334.171875 351.929688 331.4375 354.28125 323.421875 L 356.582031 315.519531 C 358.375 309.203125 364.113281 303.566406 370.5 301.859375 Z M 370.5 301.859375 " fill-opacity="1" fill-rule="evenodd"/><path fill="#000000" d="M 458.789062 343.667969 C 458.308594 343.570312 457.785156 343.59375 457.230469 343.71875 L 311.1875 382.890625 C 308.980469 383.519531 307.207031 386.054688 307.207031 388.605469 L 307.207031 418.632812 C 307.207031 421.160156 308.980469 422.761719 311.1875 422.15625 L 360.664062 408.902344 L 366.75 396.152344 L 319.378906 408.855469 L 319.378906 391.8125 L 449.101562 357.023438 L 449.101562 374.0625 L 392.542969 389.238281 L 405.429688 396.902344 L 457.238281 383.019531 C 459.441406 382.417969 461.242188 379.863281 461.242188 377.328125 L 461.242188 347.277344 C 461.234375 345.378906 460.242188 343.996094 458.789062 343.667969 Z M 458.789062 343.667969 " fill-opacity="1" fill-rule="evenodd"/><g clip-path="url(#b1547631f5)"><path fill="#000000" d="M 387.152344 410.464844 L 462.769531 453.222656 L 442.738281 459.691406 C 439.929688 460.597656 438.652344 463.875 440.101562 466.433594 L 461.941406 505.074219 L 438.609375 511.773438 L 413.898438 470.8125 C 412.820312 469.011719 410.636719 468.136719 408.605469 468.734375 L 387.328125 475.203125 Z M 378.410156 399.332031 L 371 414.851562 C 370.722656 415.453125 370.578125 416.101562 370.578125 416.78125 L 370.476562 496.90625 C 370.421875 500.0625 373.457031 502.367188 376.460938 501.464844 L 400.371094 494.25 L 425.089844 535.207031 C 426.191406 537.007812 428.363281 537.835938 430.421875 537.234375 L 462.8125 527.910156 C 464.097656 527.53125 465.148438 526.628906 465.722656 525.425781 L 472.953125 510.1875 C 473.777344 508.761719 473.777344 507.03125 472.953125 505.59375 L 457.378906 478.785156 L 467.023438 476.171875 C 468.273438 475.828125 469.179688 474.398438 469.703125 473.214844 L 477.035156 457.03125 L 477.058594 457 C 477.082031 456.976562 477.082031 456.949219 477.105469 456.90625 C 478.050781 454.894531 477.460938 452.488281 475.679688 451.136719 L 385.394531 397.574219 C 382.316406 395.722656 379.5625 396.957031 378.410156 399.332031 Z M 378.410156 399.332031 " fill-opacity="1" fill-rule="nonzero"/></g></svg>