<svg id="Capa_1" enable-background="new 0 0 512 512" height="512" viewBox="0 0 512 512" width="512" xmlns="http://www.w3.org/2000/svg"><g><path d="m429.777 443.984c-45.645 42.217-106.698 68.016-173.777 68.016-141.385 0-256-114.615-256-256s114.615-256 256-256c50.59 0 97.753 14.675 137.464 40 3.847 2.453 47.538 393.602 36.313 403.984z" fill="#00c1fb"/><path d="m460.517 410c-9.222 12.228-19.515 23.602-30.74 33.983h-298.153c-2.761 0-5-2.239-5-5v-364.905c0-2.761 2.239-5 5-5h268.495c17.45 86.874 62.171 338.571 60.398 340.922z" fill="#00aaf2"/><path d="m31.006 247.883.014-1.066c.073-4.142 3.495-7.437 7.631-7.367 4.142.073 7.44 3.49 7.367 7.631l-.012.933c-.036 4.12-3.388 7.434-7.499 7.434-.022 0-.044 0-.066 0-4.143-.035-7.471-3.423-7.435-7.565zm10.665 32.351c4.086-.68 6.847-4.543 6.167-8.629l-.154-.942c-.655-4.089-4.5-6.872-8.592-6.219-4.09.656-6.874 4.502-6.219 8.592l.168 1.032c.61 3.669 3.788 6.27 7.39 6.27.408-.002.823-.035 1.24-.104zm-2.144-49.754c.461.085.918.126 1.37.126 3.547 0 6.7-2.527 7.367-6.141l.176-.937c.777-4.068-1.892-7.997-5.96-8.774-4.061-.774-7.997 1.89-8.774 5.959l-.193 1.029c-.751 4.075 1.941 7.987 6.014 8.738zm14.222 64.016-.314-.897c-1.359-3.912-5.632-5.986-9.546-4.625-3.912 1.359-5.982 5.633-4.624 9.545l.348.989c1.09 3.076 3.981 4.996 7.068 4.996.832 0 1.678-.139 2.507-.433 3.903-1.384 5.946-5.672 4.561-9.575zm-8.82-88.422c.871.328 1.766.484 2.645.484 3.031 0 5.887-1.852 7.019-4.856l.346-.909c1.478-3.87-.462-8.204-4.331-9.682-3.877-1.482-8.206.462-9.683 4.331l-.367.968c-1.462 3.877.495 8.203 4.371 9.664zm9.629-23.079c1.199.709 2.515 1.047 3.813 1.047 2.563 0 5.061-1.315 6.461-3.681l.479-.802c2.142-3.545 1.004-8.156-2.542-10.297-3.545-2.142-8.155-1.004-10.298 2.542l-.548.918c-2.11 3.563-.93 8.163 2.635 10.273zm78.086-75.966-.991.343c-3.91 1.366-5.973 5.644-4.606 9.554 1.08 3.092 3.98 5.028 7.08 5.028.82 0 1.655-.136 2.474-.422l.899-.311c3.919-1.341 6.009-5.604 4.669-9.524-1.343-3.919-5.607-6.009-9.525-4.668zm-24.013 10.649-.906.505c-3.612 2.025-4.899 6.596-2.874 10.209 1.375 2.453 3.923 3.834 6.549 3.834 1.241 0 2.501-.309 3.661-.959l.836-.466c3.624-2.006 4.935-6.571 2.929-10.194-2.008-3.625-6.573-4.935-10.195-2.929zm-21.784 14.671-.805.656c-3.206 2.623-3.679 7.348-1.056 10.554 1.482 1.813 3.637 2.751 5.809 2.751 1.671 0 3.352-.555 4.745-1.695l.744-.606c3.22-2.606 3.717-7.329 1.111-10.548-2.606-3.221-7.329-3.718-10.548-1.112zm-23.267 183.637-.465-.826c-2.021-3.616-6.59-4.91-10.206-2.888-3.615 2.021-4.908 6.59-2.888 10.206l.514.912c1.381 2.434 3.918 3.799 6.529 3.799 1.255 0 2.526-.315 3.695-.979 3.603-2.044 4.866-6.622 2.821-10.224zm12.831 18.724c-2.621-3.208-7.346-3.686-10.554-1.065s-3.685 7.345-1.064 10.553l.662.807c1.483 1.794 3.625 2.721 5.784 2.721 1.683 0 3.376-.563 4.774-1.719 3.192-2.639 3.642-7.367 1.002-10.56z" fill="#9ae7fd"/><path d="m184 80h248.745c2.054 2.169 4.071 4.374 6.049 6.614.989 1.12 11.128 2.249 12.097 3.386 38.107 44.696 61.109 102.662 61.109 166 0 57.811-19.163 111.146-51.483 154h-276.517c-5.523 0-10-4.477-10-10v-310c0-5.523 4.477-10 10-10z" fill="#fff5f5"/><path d="m194 410h-24c-5.523 0-10-4.477-10-10v-310c0-5.523 4.477-10 10-10h24c-5.523 0-10 4.477-10 10v310c0 5.523 4.477 10 10 10z" fill="#c9f0ff"/><path d="m450.891 90h-136.891l-10.064-7.362h-89.872l-10.064 7.362h-20.117c-5.458 0-9.883-4.425-9.883-9.883v-23.277c0-9.3 7.54-16.84 16.84-16.84h202.624c21.552 13.744 40.908 30.625 57.427 50z" fill="#0055ca"/><path d="m184 50v40h-24v-40c0-5.523 4.477-10 10-10h24c-5.523 0-10 4.477-10 10z" fill="#00429c"/><path d="m314 90h-110v-20c0-5.523 4.477-10 10-10h90c5.523 0 10 4.477 10 10z" fill="#ff7117"/><path d="m320.456 260h-113.2c-2.761 0-5-2.239-5-5v-130c0-2.761 2.239-5 5-5h113.2c2.761 0 5 2.239 5 5v130c0 2.761-2.239 5-5 5zm41.517-125.731h85.202c4.142 0 7.5-3.358 7.5-7.5s-3.358-7.5-7.5-7.5h-85.202c-4.142 0-7.5 3.358-7.5 7.5s3.358 7.5 7.5 7.5zm92.703 53.404c0 4.142-3.358 7.5-7.5 7.5h-85.202c-4.142 0-7.5-3.358-7.5-7.5s3.358-7.5 7.5-7.5h85.202c4.142 0 7.5 3.358 7.5 7.5zm-100.203-30.452c0-4.142 3.358-7.5 7.5-7.5h57c4.142 0 7.5 3.358 7.5 7.5s-3.358 7.5-7.5 7.5h-57c-4.142 0-7.5-3.358-7.5-7.5zm125.527 157.779v-30c0-2.761-2.239-5-5-5h-260c-2.761 0-5 2.239-5 5v30c0 2.761 2.239 5 5 5h260c2.761 0 5-2.239 5-5zm0 60v-30c0-2.761-2.239-5-5-5h-260c-2.761 0-5 2.239-5 5v30c0 2.761 2.239 5 5 5h260c2.761 0 5-2.239 5-5z" fill="#c9f0ff"/><path d="m461.67 307.5h-27.383c-4.142 0-7.5-3.358-7.5-7.5s3.358-7.5 7.5-7.5h27.383c4.142 0 7.5 3.358 7.5 7.5s-3.357 7.5-7.5 7.5zm-77.266 52.5c0-4.142 3.953-7.5 8.83-7.5h67.106c4.877 0 8.83 3.358 8.83 7.5s-3.953 7.5-8.83 7.5h-67.106c-4.877 0-8.83-3.358-8.83-7.5z" fill="#9ae7fd"/><path d="m338.222 234.802h-88.222c-5.523 0-10-4.477-10-10v-53.334c0-5.523 4.477-10 10-10h88.222c5.523 0 10 4.477 10 10v53.334c0 5.523-4.477 10-10 10z" fill="#00b7a0"/><path d="m261.739 234.802h-21.739c-5.523 0-10-4.477-10-10v-53.334c0-5.523 4.477-10 10-10h21.739c-5.523 0-10 4.477-10 10v53.334c0 5.523 4.477 10 10 10z" fill="#009a8e"/><path d="m369.298 408.16h-158.52c-5.523 0-10-4.477-10-10v-156.222c0-5.523 4.477-10 10-10h158.519c5.523 0 10 4.477 10 10v156.222c.001 5.523-4.476 10-9.999 10z" fill="#ffc143"/><path d="m232.906 408.16h-22.128c-5.523 0-10-4.477-10-10v-156.222c0-5.523 4.477-10 10-10h22.128c-5.523 0-10 4.477-10 10v156.222c0 5.523 4.477 10 10 10z" fill="#ffb509"/><path d="m429.05 197.076c-1.424-1.776-3.576-2.81-5.853-2.81h-71.073c-.079-.001-.157-.001-.235 0h-185.187c-.076-.001-.151-.001-.227 0h-67.478l-7.555-38.876c-.685-3.524-3.771-6.069-7.362-6.069h-54.128c-4.143 0-7.5 3.358-7.5 7.5s3.357 7.5 7.5 7.5h47.945l7.555 38.876c.013.065.026.13.041.195l46.288 212.622c.75 3.447 3.801 5.905 7.328 5.905h29.324l-9.225 50.276c-.401 2.189.19 4.444 1.615 6.154s3.536 2.699 5.762 2.699h151.232c3.62 0 6.724-2.586 7.377-6.146l9.721-52.983h40.841c3.513 0 6.555-2.438 7.32-5.867l47.439-212.652c.498-2.222-.042-4.548-1.465-6.324zm-86.131 12.19-7.74 39.985h-70.745l-.578-39.985zm-76.975 144.532-.538-37.274h56.751l-7.215 37.274zm46.094 15-7.379 38.12h-37.948l-.551-38.12zm-46.849-67.274-.539-37.273h67.625l-7.215 37.273zm-13.479 105.394h-37.772l-7.379-38.12h44.6zm-.767-53.12h-47.287l-7.215-37.274h53.964zm-.755-52.274h-56.651l-7.215-37.273h63.328zm-1.333-92.258.578 39.985h-66.015l-7.74-39.985zm-146.732 0h58.276l7.74 39.985h-57.311zm11.97 54.985h56.949l7.215 37.273h-56.05zm19.495 89.547-8.115-37.274h55.688l7.215 37.274zm11.564 53.12-8.299-38.12h54.427l7.379 38.12zm166.417 59.13h-135.982l8.097-44.13h135.982zm58.177-59.13h-49.809l7.379-38.12h50.934zm11.85-53.12h-51.376l7.215-37.274h52.477zm11.662-52.274h-52.92l7.215-37.273h54.02zm11.662-52.273h-54.463l7.74-39.985h55.643z" fill="#003278"/><path d="m200.778 477.808c0 18.884-15.308 34.192-34.192 34.192s-34.192-15.308-34.192-34.192 15.308-34.192 34.192-34.192c18.884-.001 34.192 15.308 34.192 34.192zm117.04-34.193c-18.884 0-34.192 15.308-34.192 34.192s15.308 34.192 34.192 34.192 34.192-15.308 34.192-34.192c0-18.883-15.308-34.192-34.192-34.192z" fill="#ff7117"/><path d="m41.255 156.904c0 11.392-9.235 20.628-20.628 20.628s-20.627-9.235-20.627-20.628 9.235-20.628 20.628-20.628 20.627 9.236 20.627 20.628z" fill="#ff7117"/><path d="m181.586 477.808c0 8.284-6.716 15-15 15s-15-6.716-15-15 6.716-15 15-15 15 6.715 15 15zm151.232 0c0 8.284-6.716 15-15 15s-15-6.716-15-15 6.716-15 15-15 15 6.715 15 15z" fill="#003278"/><path d="m163.826 409.265-14.137 14.137c-5.858 5.858-15.355 5.858-21.213 0l-49.497-49.498c-5.858-5.858-5.858-15.355 0-21.213l14.142-14.142c-5.858 5.858-5.858 15.355 0 21.213l49.498 49.497c5.855 5.858 15.349 5.859 21.207.006z" fill="#ff7117"/><path d="m149.689 303.194 49.497 49.497c5.858 5.858 5.858 15.355 0 21.213l-36.12 36.12c-5.858 5.858-15.355 5.858-21.213 0l-49.497-49.497c-5.858-5.858-5.858-15.355 0-21.213l36.12-36.12c5.858-5.857 15.355-5.857 21.213 0z" fill="#ff8835"/><path d="m178.402 363.299c0 4.142-3.358 7.5-7.5 7.5h-24.32v24.32c0 4.142-3.358 7.5-7.5 7.5-2.071 0-3.947-.84-5.304-2.197s-2.197-3.232-2.197-5.304v-24.319h-24.319c-2.071 0-3.947-.84-5.304-2.197s-2.197-3.232-2.197-5.304c0-4.142 3.358-7.5 7.5-7.5h24.32v-24.32c0-4.142 3.358-7.5 7.5-7.5 4.143.001 7.5 3.358 7.501 7.5v24.319h24.319c4.143.002 7.501 3.359 7.501 7.502z" fill="#fff5f5"/></g></svg>