<svg id="Layer_1" enable-background="new 0 0 100 100" viewBox="0 0 100 100" xmlns="http://www.w3.org/2000/svg" xmlns:xlink="http://www.w3.org/1999/xlink"><linearGradient id="lg1"><stop offset=".1843576" stop-color="#29abe2"/><stop offset=".8211977" stop-color="#6200d2"/></linearGradient><linearGradient id="SVGID_1_" gradientUnits="userSpaceOnUse" x1="-27.901" x2="77.362" xlink:href="#lg1" y1="21.15" y2="129.247"/><linearGradient id="SVGID_00000152984996908633710650000002558470574311079571_" gradientUnits="userSpaceOnUse" x1="23.229" x2="128.492" xlink:href="#lg1" y1="-28.64" y2="79.457"/><linearGradient id="SVGID_00000060013669674898052420000016006498638177762439_" gradientUnits="userSpaceOnUse" x1="-1.996" x2="103.267" xlink:href="#lg1" y1="-4.076" y2="104.021"/><linearGradient id="SVGID_00000173141799001969539950000001826975513676018103_" gradientUnits="userSpaceOnUse" x1="-2.676" x2="102.588" xlink:href="#lg1" y1="-3.414" y2="104.683"/><g><path d="m47.03125 63.359375v23.75c0 5.7296906-4.6609383 10.390625-10.390625 10.390625h-23.75c-5.7296877 0-10.390625-4.6609344-10.390625-10.390625v-23.75c0-5.7296867 4.6609373-10.390625 10.390625-10.390625h23.75c5.7296867 0 10.390625 4.6609383 10.390625 10.390625z" fill="url(#SVGID_1_)"/><path d="m97.5 12.890625v23.75c0 5.7296867-4.6609344 10.390625-10.390625 10.390625h-23.75c-5.7296867 0-10.390625-4.6609383-10.390625-10.390625v-23.75c0-5.7296877 4.6609383-10.390625 10.390625-10.390625h23.75c5.7296906 0 10.390625 4.6609373 10.390625 10.390625z" fill="url(#SVGID_00000152984996908633710650000002558470574311079571_)"/><path d="m97.5 63.359375v23.75c0 5.7296906-4.6609344 10.390625-10.390625 10.390625h-23.75c-5.7296867 0-10.390625-4.6609344-10.390625-10.390625v-23.75c0-5.7296867 4.6609383-10.390625 10.390625-10.390625h23.75c5.7296906 0 10.390625 4.6609383 10.390625 10.390625z" fill="url(#SVGID_00000060013669674898052420000016006498638177762439_)"/><path d="m47.03125 12.890625v23.75c0 5.7296867-4.6609383 10.390625-10.390625 10.390625h-23.75c-5.7296877 0-10.390625-4.6609383-10.390625-10.390625v-23.75c0-5.7296877 4.6609373-10.390625 10.390625-10.390625h23.75c5.7296867 0 10.390625 4.6609373 10.390625 10.390625z" fill="url(#SVGID_00000173141799001969539950000001826975513676018103_)"/></g></svg>