<svg id="Layer_1" enable-background="new 0 0 100 100" viewBox="0 0 100 100" xmlns="http://www.w3.org/2000/svg" xmlns:xlink="http://www.w3.org/1999/xlink"><linearGradient id="SVGID_1_" gradientUnits="userSpaceOnUse" x1="-5.142" x2="103.831" y1="-4.604" y2="103.306"><stop offset="0" stop-color="#67c8ff"/><stop offset="1" stop-color="#0047f4"/></linearGradient><path d="m72.1877975 24.687767h-44.375595c-6.9877739 0-13.3211069 2.8289452-17.9021816 7.4100189-4.5811396 4.5811387-7.4100209 10.9144745-7.4100209 17.9022446 0 13.9861145 11.3366566 25.3122025 25.3122025 25.3122025h44.3755951c6.9877701 0 13.321106-2.8288803 17.9021835-7.4100189 4.5811386-4.5810776 7.4100189-10.9144097 7.4100189-17.9021836 0-13.9861107-11.3366547-25.3122635-25.3122025-25.3122635zm0 41.5783463c-8.9827881 0-16.2661476-7.2832947-16.2661476-16.2660828s7.2833595-16.2661438 16.2661476-16.2661438 16.2555161 7.2833557 16.2555161 16.2661438-7.272728 16.2660828-16.2555161 16.2660828z" fill="url(#SVGID_1_)"/></svg>