<svg id="Layer_1" height="512" viewBox="0 0 512 512" width="512" xmlns="http://www.w3.org/2000/svg" xmlns:xlink="http://www.w3.org/1999/xlink" data-name="Layer 1"><linearGradient id="New_Gradient_Swatch_copy" gradientUnits="userSpaceOnUse" x1="26.176" x2="485.824" y1="256" y2="256"><stop offset="0" stop-color="#0056e9"/><stop offset=".033" stop-color="#005de8"/><stop offset=".191" stop-color="#007be2"/><stop offset=".359" stop-color="#0092de"/><stop offset=".539" stop-color="#00a2da"/><stop offset=".739" stop-color="#00acd9"/><stop offset="1" stop-color="#00afd8"/></linearGradient><path d="m343.065 456.774a96.347 96.347 0 0 1 -174.1 0zm-140.706-422.148a59.405 59.405 0 0 1 12.028-17.313 58.7 58.7 0 0 1 83.252 0 59.493 59.493 0 0 1 12.061 17.313 210.922 210.922 0 0 0 -107.336 0zm-160.506 103.738a8.027 8.027 0 1 1 -15.284-4.915 222.919 222.919 0 0 1 37.831-71.049 225.271 225.271 0 0 1 60.882-52.94 8.041 8.041 0 0 1 8.257 13.8 205.677 205.677 0 0 0 -91.686 115.104zm332.268-117.964a8.035 8.035 0 1 1 7.942-13.971 225.6 225.6 0 0 1 103.366 126.992 8.05 8.05 0 0 1 -15.314 4.971 209.5 209.5 0 0 0 -95.994-117.992zm-301.469 300.5c-7.286 26.97-17.4 47.826-28.256 69.654a34.694 34.694 0 0 0 15.542 46.483 34.832 34.832 0 0 0 15.513 3.6h361.123a34.722 34.722 0 0 0 34.741-34.6 34.412 34.412 0 0 0 -3.685-15.484c-10.857-21.828-20.971-42.684-28.256-69.654-7.314-27.113-11.885-60.625-11.6-107.908.426-80.827-43.883-132.738-100.874-155.68a193.033 193.033 0 0 0 -141.764 0c-57 22.942-101.309 74.853-100.851 155.677.256 47.283-4.286 80.8-11.628 107.908z" fill="url(#New_Gradient_Swatch_copy)"/></svg>