<svg id="editing" enable-background="new 0 0 24 24" viewBox="0 0 24 24" xmlns="http://www.w3.org/2000/svg" xmlns:xlink="http://www.w3.org/1999/xlink"><linearGradient id="SVGID_1_" gradientUnits="userSpaceOnUse" x1="2" x2="22" y1="12" y2="12"><stop offset="0" stop-color="#fff33b"/><stop offset=".0401054" stop-color="#fee72e"/><stop offset=".1170904" stop-color="#fed51b"/><stop offset=".1964058" stop-color="#fdca10"/><stop offset=".280899" stop-color="#fdc70c"/><stop offset=".668539" stop-color="#f3903f"/><stop offset=".88764" stop-color="#ed683c"/><stop offset="1" stop-color="#e93e3a"/></linearGradient><path d="m16 2h-8c-3.3085937 0-6 2.6914063-6 6v8c0 3.3085938 2.6914063 6 6 6h8c3.3085938 0 6-2.6914063 6-6v-8c0-3.3085937-2.6914062-6-6-6zm4 14c0 2.2060547-1.7944336 4-4 4h-8c-2.2055664 0-4-1.7939453-4-4v-8c0-2.2060547 1.7944336-4 4-4h8c2.2055664 0 4 1.7939453 4 4zm-2.2900391-9.7099609c.1796875.1894531.2900391.4501953.2900391.7099609s-.1103516.5195313-.2900391.7099609c-.1899414.1796875-.4501953.2900391-.7099609.2900391-.2602539 0-.5200195-.1103516-.7099609-.2900391-.1801758-.1904296-.2900391-.4501953-.2900391-.7099609s.1098633-.5205078.2900391-.7099609c.3798828-.3701172 1.0395507-.3701172 1.4199218 0zm-5.7099609.7099609c-2.7568359 0-5 2.2431641-5 5s2.2431641 5 5 5 5-2.2431641 5-5-2.2431641-5-5-5zm0 8c-1.6542969 0-3-1.3457031-3-3s1.3457031-3 3-3 3 1.3457031 3 3-1.3457031 3-3 3z" fill="url(#SVGID_1_)"/></svg>