<svg id="Layer_2" height="512" viewBox="0 0 512 512" width="512" xmlns="http://www.w3.org/2000/svg" xmlns:xlink="http://www.w3.org/1999/xlink" data-name="Layer 2"><linearGradient id="linear-gradient" gradientUnits="userSpaceOnUse" x1="43.93" x2="468.07" y1="43.93" y2="468.07"><stop offset="0" stop-color="#2492ff"/><stop offset="1" stop-color="#0043ae"/></linearGradient><g id="Icon"><g id="_05" data-name="05"><rect id="Background" fill="url(#linear-gradient)" height="512" rx="150" width="512"/><path d="m417.4 291.45-27.79-16.05c.91-6.34 1.39-12.81 1.39-19.4s-.48-13.07-1.39-19.4l27.79-16.05c11.96-6.9 16.05-22.19 9.15-34.15l-25-43.3c-6.9-11.96-22.19-16.05-34.15-9.15l-27.8 16.05c-10.13-8-21.43-14.57-33.6-19.43v-32.07c0-13.81-11.19-25-25-25h-50c-13.81 0-25 11.19-25 25v32.07c-12.17 4.86-23.47 11.43-33.6 19.43l-27.8-16.05c-11.96-6.9-27.25-2.81-34.15 9.15l-25 43.3c-6.9 11.96-2.81 27.25 9.15 34.15l27.79 16.05c-.91 6.34-1.39 12.81-1.39 19.4s.48 13.07 1.39 19.4l-27.79 16.05c-11.96 6.9-16.05 22.19-9.15 34.15l25 43.3c6.9 11.96 22.19 16.05 34.15 9.15l27.8-16.05c10.13 8 21.43 14.57 33.6 19.43v32.07c0 13.81 11.19 25 25 25h50c13.81 0 25-11.19 25-25v-32.07c12.17-4.86 23.47-11.43 33.6-19.43l27.8 16.05c11.96 6.9 27.25 2.81 34.15-9.15l25-43.3c6.9-11.96 2.81-27.25-9.15-34.15zm-161.4 24.55c-33.14 0-60-26.86-60-60s26.86-60 60-60 60 26.86 60 60-26.86 60-60 60z" fill="#fff"/></g></g></svg>