<svg height="496pt" viewBox="-82 0 496 496.93466" width="496pt" xmlns="http://www.w3.org/2000/svg"><path d="m208.710938 102.503906c-.53125-.027344-1.070313-.050781-1.613282-.050781-13.910156 0-25.453125 10.753906-26.429687 24.632813-.046875.609374-.070313 1.238281-.070313 1.867187 0 14.433594 11.539063 26.214844 25.96875 26.507813 14.425782.292968 26.4375-11.007813 27.019532-25.425782.585937-14.421875-10.472657-26.65625-24.875-27.53125zm-90.0625-29.167968 17.992187-22.691407h140.929687l47.898438 60.398438v291.890625h-236.738281v-291.890625zm185.101562 175.128906v-20.71875c0-13.761719-8.640625-18.882813-19.679688-18.882813h-14.160156c-3.28125 0-5.441406 1.761719-5.441406 3.761719v50.960938c0 2 2.160156 3.757812 5.441406 3.757812h14.160156c11.039063 0 19.679688-5.117188 19.679688-18.878906zm-52.320312 13.441406c0-2.722656-1.199219-5.441406-3.601563-5.441406h-18.238281v-43.839844c0-2.640625-3.121094-3.761719-6.242188-3.761719-3.117187 0-6.238281 1.121094-6.238281 3.761719v50.878906c0 2.5625 2.71875 3.839844 5.441406 3.839844h25.277344c2.402344 0 3.601563-2.71875 3.601563-5.4375zm-50.320313-12.960938v-21.199218c0-13.761719-8.640625-18.882813-19.679687-18.882813-11.039063 0-19.601563 5.121094-19.601563 18.882813v21.199218c0 13.757813 8.5625 18.878907 19.601563 18.878907 11.039062 0 19.679687-5.121094 19.679687-18.878907zm-59.199219-26.960937c3.519532 0 4.960938-4.398437 4.960938-6.558594 0-6.242187-11.679688-7.039062-15.921875-7.039062-10 0-20.480469 4.558593-20.480469 16.558593 0 18.71875 25.359375 17.039063 25.359375 26.71875 0 3.839844-4.078125 5.28125-7.757813 5.28125-7.441406 0-9.839843-5.921874-13.601562-5.921874-3.039062 0-5.4375 4-5.4375 6.722656 0 5.277344 8.796875 10.398437 19.277344 10.398437 11.601562 0 20-6.238281 20-17.757812 0-20.160157-25.359375-18.640625-25.359375-26.640625 0-2.480469 2.320312-4.800782 8-4.800782 6.558593 0 8.082031 3.039063 10.960937 3.039063zm0 0" fill="#00acea"/><path d="m291.269531 227.746094v20.71875c0 5.441406-2.71875 8-7.199219 8h-7.121093v-36.71875h7.121093c4.480469 0 7.199219 2.558594 7.199219 8zm0 0" fill="#00acea"/><path d="m262.007812 402.933594-30.488281 86-223.128906-79.109375 80.207031-226.230469h.132813v219.339844zm0 0" fill="#00efd1"/><path d="m188.628906 227.746094v21.199218c0 5.519532-2.71875 8-7.199218 8-4.480469 0-7.121094-2.480468-7.121094-8v-21.199218c0-5.519532 2.640625-8 7.121094-8 4.480468 0 7.199218 2.480468 7.199218 8zm0 0" fill="#00acea"/><g fill="#083863"><path d="m5.714844 417.363281 223.132812 79.113281c2 .707032 4.199219.59375 6.113282-.320312 1.929687-1 3.398437-2.707031 4.097656-4.769531l28.601562-80.890625h57.808594c4.417969 0 8.460938-3.144532 8.460938-7.5625v-291.890625c-.082032-1.828125-.773438-3.574219-1.960938-4.96875l-48.015625-60.480469c-1.558594-1.933594-3.898437-3.074219-6.382813-3.097656h-82.941406c-.332031 0-.65625-.824219-.96875-1.242188-11.820312-15.882812-26.300781-28.425781-40.769531-35.390625-16.140625-7.769531-30.699219-7.8125-40.984375-.15625-15.609375 11.613281-16.523438 38.007813-2.710938 66.652344l-26.632812 33.707031c-1.09375 1.425782-1.667969 3.183594-1.632812 4.976563v70.808593l-79.980469 225.300782c-.726563 1.992187-.628907 4.191406.269531 6.113281.890625 1.914063 2.511719 3.386719 4.496094 4.097656zm115.742187-398.875c9.65625-7.195312 32.460938 1.007813 52.671875 24.007813h-37.488281c-2.453125.027344-4.757813 1.167968-6.269531 3.097656l-9.902344 12.480469c-6.867188-17.832031-6.773438-33.8125.988281-39.585938zm-24.527343 95.34375 20.890624-26.460937c1.523438 2.324218 3.058594 4.632812 4.742188 6.898437 14.554688 19.558594 33.300781 34.027344 50.363281 39.183594 2.378907 18.042969 18.363281 31.132813 36.519531 29.910156 18.15625-1.226562 32.238282-16.347656 32.171876-34.542969-.070313-18.199218-14.261719-33.210937-32.425782-34.300781h-.03125c-.675781-.039062-1.371094-.0625-2.058594-.0625-14.503906.042969-27.441406 9.117188-32.421874 22.738281-13-4.871093-27.738282-16.902343-39.328126-32.46875-2.542968-3.449218-4.90625-7.03125-7.085937-10.722656l12.242187-15.507812h133.199219l44.222657 55.335937v280.664063h-221zm118.457031-1.410156c7.433593 3.707031 11.488281 11.917969 9.90625 20.078125-1.582031 8.15625-8.40625 14.257812-16.6875 14.921875-8.285157.660156-15.992188-4.28125-18.847657-12.085937 5.238282-.464844 10.253907-2.355469 14.5-5.457032 5.507813-4.089844 9.273438-10.035156 11.128907-17.457031zm-20.675781 4.617187c-.886719.648438-1.863282 1.175782-2.898438 1.554688 1.667969-2.449219 3.898438-4.46875 6.5-5.886719-.855469 1.699219-2.085938 3.179688-3.601562 4.332031zm-113.78125 112.691407v173.203125c-.027344 2.054687.792968 4.03125 2.269531 5.460937 1.476562 1.429688 3.476562 2.191407 5.53125 2.097657h161.953125l-24.03125 68.007812-207.949219-73.65625zm0 0"/><path d="m287.75 357.496094h-161.300781c-4.417969 0-8 3.582031-8 8 0 4.417968 3.582031 8 8 8h161.300781c4.417969 0 8-3.582032 8-8 0-4.417969-3.582031-8-8-8zm0 0"/><path d="m287.75 319.496094h-161.300781c-4.417969 0-8 3.582031-8 8 0 4.417968 3.582031 8 8 8h161.300781c4.417969 0 8-3.582032 8-8 0-4.417969-3.582031-8-8-8zm0 0"/><path d="m148.808594 250.386719c0-12.695313-9.953125-17.085938-17.222656-20.289063-4.546876-2-8.136719-3.585937-8.136719-6.351562 0-2.082032 1.96875-4.300782 7.5-4.300782 2.636719-.054687 5.242187.609376 7.53125 1.921876 1.03125.652343 2.210937 1.039062 3.429687 1.117187 3.855469 0 5.460938-4.597656 5.460938-7.058594 0-7.179687-13.679688-7.539062-16.421875-7.539062-9.679688 0-20.980469 4.464843-20.980469 17.058593 0 11.207032 8.902344 15.34375 16.050781 18.664063 5 2.320313 9.308594 4.324219 9.308594 8.054687 0 3.527344-3.910156 4.78125-7.257813 4.78125-4.179687 0-6.664062-1.914062-8.855468-3.601562-1.617188-1.246094-3.011719-2.320312-4.746094-2.320312-3.445312 0-5.9375 4.3125-5.9375 7.21875 0 5.808593 9.242188 10.902343 19.777344 10.902343 12.644531 0 20.5-6.996093 20.5-18.257812zm0 0"/><path d="m181.390625 268.324219c13.011719 0 20.539063-6.882813 20.539063-19.378907v-21.199218c0-12.5-7.527344-19.382813-20.539063-19.382813-12.964844 0-20.460937 6.882813-20.460937 19.382813v21.199218c0 12.496094 7.5 19.378907 20.460937 19.378907zm6.539063-19.378907c0 4.976563-2.09375 7.5-6.539063 7.5-4.394531 0-6.460937-2.523437-6.460937-7.5v-21.199218c0-4.976563 2.066406-7.5 6.460937-7.5 4.445313 0 6.539063 2.523437 6.539063 7.5zm0 0"/><path d="m222.550781 267.496094h25.277344c2.816406 0 4.101563-3.140625 4.101563-6 0-2.863282-1.285157-6-4.101563-6h-17.898437v-42.871094c0-3.144531-3.390626-4.261719-6.5-4.261719-3.109376 0-6.5 1.117188-6.5 4.261719v50.878906c0 2.984375 2.757812 3.992188 5.621093 3.992188zm0 0"/><path d="m284.070312 208.496094h-14.160156c-3.386718 0-5.980468 1.699218-5.980468 4.128906v50.960938c0 2.429687 2.59375 3.910156 5.980468 3.910156h14.160156c13.011719 0 19.859376-6.535156 19.859376-19.03125v-20.71875c0-12.5-6.847657-19.25-19.859376-19.25zm6.859376 39.96875c0 4.90625-2.476563 7.03125-6.859376 7.03125h-6.140624v-35h6.140624c4.382813 0 6.859376 2.339844 6.859376 7.25zm0 0"/></g></svg>