<svg fill="none" height="100" viewBox="0 0 100 100" width="100" xmlns="http://www.w3.org/2000/svg" xmlns:xlink="http://www.w3.org/1999/xlink"><linearGradient id="paint0_linear_240_1256" gradientUnits="userSpaceOnUse" x1="112.192" x2="41.233" y1="106.164" y2="23.151"><stop offset=".00265844" stop-color="#ff37df"/><stop offset="1" stop-color="#6e00ff"/></linearGradient><g clip-rule="evenodd" fill="url(#paint0_linear_240_1256)" fill-rule="evenodd"><path d="m36 45c0-10.6407 5.9356-19.8952 14.6763-24.6329-3.8857-6.2252-10.7973-10.3671-18.6763-10.3671-12.1503 0-22 9.8497-22 22 0 3.2759.716 6.3845 2 9.1779v5.8221c0 2.7614 2.2386 5 5 5h5.8221c.9799.4504 1.9987.831 3.0498 1.1352 2.9001-2.432 6.4367-4.1299 10.3238-4.8075-.1292-1.0912-.1957-2.2017-.1957-3.3277zm3.7779-18.3717c.3471-.4296.2801-1.0592-.1496-1.4062-.4296-.3471-1.0592-.2801-1.4062.1496l-7.3585 9.1105c-.8005.9911-2.3113.9911-3.1118 0l-1.9739-2.4439c-.347-.4296-.9766-.4966-1.4062-.1496-.4297.347-.4967.9767-.1496 1.4063l1.9738 2.4438c1.601 1.9822 4.6225 1.9822 6.2236 0z"/><path d="m40 50c-11.0457 0-20 8.9543-20 20 0 3.1293.7187 6.0907 2 8.7282v4.2718c0 2.7614 2.2386 5 5 5h4.2717c2.6376 1.2813 5.599 2 8.7283 2 11.0457 0 20-8.9543 20-20s-8.9543-20-20-20zm-2 12c-1.1046 0-2 .8954-2 2v1.9219c0 .5523-.4477 1-1 1s-1-.4477-1-1v-1.9219c0-2.2091 1.7909-4 4-4h4c2.2091 0 4 1.7909 4 4v1.8186c0 1.1321-.4798 2.2112-1.3203 2.9697l-3.0195 2.7247c-.4203.3792-.6602.9188-.6602 1.4848v2.0022c0 .5523-.4477 1-1 1s-1-.4477-1-1v-2.0022c0-1.1321.4798-2.2112 1.3203-2.9697l3.0196-2.7247c.4202-.3792.6601-.9187.6601-1.4848v-1.8186c0-1.1046-.8954-2-2-2zm3 16c0-.5523-.4477-1-1-1s-1 .4477-1 1v1c0 .5523.4477 1 1 1s1-.4477 1-1z"/><path d="m38 45c0-14.3594 11.6406-26 26-26s26 11.6406 26 26c0 3.5504-.7116 6.9345-2 10.0176v8.9824c0 2.7614-2.2386 5-5 5h-8.9824c-3.0831 1.2884-6.4672 2-10.0176 2-.6794 0-1.3527-.0261-2.019-.0772.0126-.3061.019-.6137.019-.9228 0-12.1503-9.8497-22-22-22-.6129 0-1.2199.0251-1.8202.0742-.1187-1.0082-.1798-2.0341-.1798-3.0742zm16-3c-1.6569 0-3 1.3431-3 3s1.3431 3 3 3 3-1.3431 3-3-1.3431-3-3-3zm10 0c-1.6569 0-3 1.3431-3 3s1.3431 3 3 3 3-1.3431 3-3-1.3431-3-3-3zm7 3c0-1.6569 1.3431-3 3-3s3 1.3431 3 3-1.3431 3-3 3-3-1.3431-3-3z"/></g></svg>