<svg id="Layer_1" enable-background="new 0 0 512 512" viewBox="0 0 512 512" xmlns="http://www.w3.org/2000/svg"><g clip-rule="evenodd" fill-rule="evenodd"><path d="m387.15 449.89c6.604 0 13.418 1.912 18.784 5.829 4.939 3.605 8.573 8.948 8.573 15.22v21.062h-317.018v-21.062c0-6.273 3.636-11.616 8.575-15.22 5.366-3.916 12.182-5.829 18.786-5.829zm-256.37-406.73c0-3.945-3.223-7.168-7.168-7.168-3.947 0-7.173 3.22-7.173 7.168 0 3.943 3.23 7.17 7.173 7.17 3.941 0 7.168-3.23 7.168-7.17zm36.28 0c0-3.953-3.22-7.168-7.173-7.168-3.945 0-7.168 3.222-7.168 7.168 0 3.94 3.228 7.17 7.168 7.17 3.948 0 7.173-3.223 7.173-7.17zm133.759 4.001h94.802c2.212 0 4-1.789 4-4.001 0-2.211-1.789-4-4-4h-94.802c-2.211 0-4 1.79-4 4 0 2.212 1.789 4.001 4 4.001zm-97.469-4.001c0-3.954-3.231-7.168-7.182-7.168-3.945 0-7.168 3.223-7.168 7.168 0 3.94 3.227 7.17 7.168 7.17 3.946 0 7.182-3.221 7.182-7.17zm-111.688 23.159v-38.967c0-4.022 3.314-7.351 7.337-7.351h314.002c4.024 0 7.341 3.326 7.341 7.351v38.968h-328.68z" fill="#9bc9ff"/><path d="m207.35 43.16c0 6.15-5.022 11.17-11.182 11.17-6.146 0-11.168-5.02-11.168-11.17 0-6.16 5.021-11.168 11.168-11.168 6.16 0 11.182 5.008 11.182 11.168zm79.892 98.77-48.62 84.21c-1.482 2.57-4.175 4.011-6.942 4.011-1.351 0-2.729-.351-3.991-1.081-3.831-2.21-5.139-7.099-2.932-10.929l48.624-84.21c2.207-3.82 7.097-5.14 10.928-2.921 3.832 2.201 5.14 7.1 2.933 10.92zm63.91 38.111c0-2.86-1.529-5.501-4-6.931l-45.641-26.349c-3.821-2.211-8.721-.901-10.933 2.929-2.198 3.831-.889 8.721 2.932 10.931l33.64 19.42-33.64 19.419c-3.821 2.212-5.13 7.101-2.932 10.931 1.492 2.559 4.184 4 6.942 4 1.36 0 2.729-.351 3.991-1.081l45.641-26.34c2.471-1.429 4-4.071 4-6.929zm-132.663-19.421c3.822-2.21 5.13-7.1 2.932-10.931-2.212-3.819-7.111-5.129-10.933-2.929l-45.636 26.349c-2.471 1.43-4 4.07-4 6.931 0 2.859 1.529 5.5 4 6.928l45.636 26.34c1.261.73 2.631 1.081 3.991 1.081 2.763 0 5.45-1.441 6.942-4 2.198-3.829.89-8.719-2.932-10.931l-33.64-19.419zm185.133-117.46c0 4.42-3.582 8-8 8h-94.802c-4.419 0-8-3.581-8-8s3.582-8 8-8h94.802c4.418 0 8 3.581 8 8zm-232.562 0c0 6.15-5.012 11.17-11.173 11.17-6.146 0-11.168-5.02-11.168-11.17 0-6.16 5.022-11.168 11.168-11.168 6.161 0 11.173 5.008 11.173 11.168zm-36.28 0c0 6.15-5.021 11.17-11.168 11.17-6.151 0-11.173-5.02-11.173-11.17 0-6.16 5.022-11.168 11.173-11.168 6.146 0 11.168 5.008 11.168 11.168zm-39.118-15.808v34.968h320.68v-34.968c0-1.821-1.53-3.351-3.341-3.351h-314.002c-1.807 0-3.337 1.529-3.337 3.351zm0 254.409h320.68v-203.44h-320.68zm-8 15.999h336.681c4.419 0 7.996-3.579 7.996-8.001v-262.407c0-10.67-8.678-19.352-19.338-19.352h-314.002c-10.66 0-19.338 8.683-19.338 19.352v262.408c0 4.421 3.582 8 8.001 8zm-32.092-198.091h10.09c4.419 0 8.001-3.579 8.001-7.998 0-4.421-3.581-8.001-8.001-8.001h-12.989c-7.22 0-13.102 5.881-13.102 13.1v228.74c0 4.419 3.582 8.001 8.001 8.001h416.861c4.419 0 8-3.581 8-8.001v-228.74c0-7.219-5.883-13.1-13.102-13.1h-12.989c-4.419 0-8.001 3.579-8.001 8.001 0 4.419 3.581 7.998 8.001 7.998h10.09v217.84h-400.86zm267.599 338.22h-134.338v-42.429h134.338zm87.338 33.05v17.062h-309.018v-17.062c0-9.24 10.702-17.049 23.361-17.049h262.3c12.66 0 23.357 7.809 23.357 17.049zm47.904-418.019h-12.071c-4.419 0-8.001 3.581-8.001 8s3.581 7.999 8.001 7.999h12.071c15.86 0 28.769 12.91 28.769 28.77v253c0 15.859-12.909 28.771-28.769 28.771h-404.822c-15.86 0-28.769-12.911-28.769-28.771v-253c0-15.86 12.909-28.77 28.769-28.77h12.071c4.419 0 8.001-3.58 8.001-7.999s-3.581-8-8.001-8h-12.071c-24.679 0-44.77 20.089-44.77 44.769v253c0 24.68 20.091 44.77 44.77 44.77h119.241v42.429h-47.98c-21.7 0-39.358 14.83-39.358 33.05v25.062c0 4.419 3.577 8.001 7.996 8.001h325.02c4.424 0 8.001-3.581 8.001-8.001v-25.061c0-18.22-17.658-33.05-39.358-33.05h-47.979v-42.429h119.241c24.679 0 44.77-20.089 44.77-44.77v-253c-.002-24.68-20.092-44.77-44.772-44.77z" fill="#69f"/></g></svg>