<svg id="Layer_1" viewBox="0 0 512 512" xmlns="http://www.w3.org/2000/svg" data-name="Layer 1"><path d="m468.998 385.661c-9.024-9.036-21.017-14.009-33.775-14.009-12.759 0-24.752 4.973-33.771 14.002-9.036 9.025-14.009 21.017-14.009 33.776s4.973 24.751 14.002 33.769c9.025 9.036 21.019 14.009 33.777 14.009 12.759 0 24.751-4.973 33.769-14.002l.007-.008c9.029-9.017 14.002-21.01 14.002-33.769s-4.973-24.751-14.002-33.769z" fill="#c9d4fe"/><path d="m480.312 374.347c-.906-.907-1.841-1.773-2.791-2.618v-135.642c0-9.569-7.785-17.354-17.354-17.354h-77.694c.036-.44.061-.881.061-1.326v-171.267c0-9.569-7.785-17.354-17.354-17.354h-171.268c-4.091 0-8.079 1.467-11.257 4.152l-68.569 58.478.02.023c-3.736 3.18-6.116 7.904-6.116 13.179v114.115h-9.036c-4.086 0-8.084 1.476-11.286 4.181l-68.569 58.478.01.011c-3.73 3.186-6.106 7.912-6.106 13.19v171.267c0 9.569 7.785 17.354 17.354 17.354h171.267c3.437 0 6.636-1.02 9.333-2.756 2.701 1.736 5.905 2.756 9.348 2.756h171.267c5.802 0 10.935-2.872 14.087-7.258 9.014 4.733 19.095 7.251 29.567 7.251 17.034 0 33.046-6.639 45.086-18.692 12.053-12.04 18.691-28.052 18.691-45.086s-6.64-33.05-18.688-45.083zm-45.089-18.696c-9.225 0-18.143 1.963-26.299 5.661v-66.719c0-1.751-.266-3.441-.751-5.035l53.349-45.479v117.233c-8.156-3.699-17.074-5.661-26.298-5.661zm-233.602-78.412h-76.279c-.746 0-1.354-.608-1.354-1.354v-171.267c0-.719.62-1.326 1.354-1.326h59.039v37.382c0 4.418 3.582 8 8 8h43.086c4.418 0 8-3.582 8-8v-37.382h53.114c.734 0 1.354.607 1.354 1.326v171.267c0 .747-.607 1.354-1.354 1.354zm111.572-177.616 53.34-45.512v163.297c0 .218-.349.847-1.286 1.606l-51.312 43.751v-158.147c0-1.737-.264-3.412-.743-4.995zm-11.216-11.462c-1.7-.557-3.511-.869-5.396-.869h-39.406l49.838-42.506h45.8l-50.835 43.375zm-101.596 15.131h27.086v29.382h-27.086zm32.138-16h-18.437l49.817-42.506h18.458zm138.949 147.441h76.353l-50.874 43.369c-1.695-.554-3.5-.863-5.377-.863h-69.95l49.849-42.506zm-178.458-189.599c.154-.13.477-.349.901-.349h45.338l-49.817 42.506h-45.854zm-94.99 189.977c.205-.173.533-.379.933-.379h9.036v41.152c0 .457.034.906.069 1.354h-59.434zm103.602 232.103h-171.268c-.722 0-1.354-.633-1.354-1.354v-171.267c0-.747.607-1.354 1.354-1.354h171.267c.719 0 1.326.62 1.326 1.354v171.267c0 .722-.62 1.354-1.326 1.354zm189.947 0h-171.267c-.709 0-1.354-.646-1.354-1.354v-171.267c0-.721.633-1.354 1.354-1.354h171.267c.747 0 1.354.607 1.354 1.354v77.135c-.947.843-1.88 1.707-2.784 2.612-12.056 12.04-18.695 28.053-18.695 45.09s6.64 33.05 18.688 45.083c.782.783 1.583 1.542 2.398 2.279-.25.257-.594.424-.962.424zm77.43-14.017-.007.008c-9.018 9.029-21.01 14.001-33.769 14.002-12.759 0-24.752-4.973-33.777-14.009-9.029-9.018-14.002-21.01-14.002-33.769s4.973-24.751 14.009-33.776c9.019-9.029 21.012-14.002 33.771-14.002s24.751 4.973 33.775 14.009c9.029 9.017 14.002 21.01 14.002 33.769s-4.973 24.751-14.002 33.769zm-4.25-54.501c3.06 3.188 2.956 8.252-.232 11.311l-31.663 30.387c-1.549 1.487-3.545 2.228-5.539 2.228-2.047 0-4.092-.781-5.651-2.338l-15.846-15.817c-3.127-3.121-3.132-8.187-.011-11.314 3.12-3.127 8.186-3.132 11.313-.01l10.305 10.286 26.014-24.965c3.188-3.059 8.252-2.955 11.311.233z" fill="#0000cb"/><path d="m239.249 44.785h-45.338c-.425 0-.747.219-.901.349l-49.432 42.157h45.854z" fill="#6582fd"/><path d="m200.381 103.291h27.086v29.382h-27.086z" fill="#c9d4fe"/><path d="m232.519 87.291 49.837-42.506h-18.457l-49.817 42.506z" fill="#c9d4fe"/><g fill="#6582fd"><path d="m371.443 419.429c0-17.036 6.64-33.05 18.695-45.09.904-.905 1.837-1.769 2.784-2.612v-77.135c0-.747-.607-1.354-1.354-1.354h-171.267c-.722 0-1.354.633-1.354 1.354v171.267c0 .709.646 1.354 1.354 1.354h171.267c.368 0 .712-.166.962-.424-.815-.738-1.616-1.496-2.398-2.279-12.049-12.033-18.688-28.046-18.688-45.083z"/><path d="m107.988 275.884v-41.152h-9.036c-.399 0-.728.206-.933.379l-49.396 42.127h59.434c-.035-.448-.069-.897-.069-1.354z"/><path d="m296.581 277.239c.747 0 1.354-.608 1.354-1.354v-171.267c0-.719-.62-1.326-1.354-1.326h-53.114v37.382c0 4.418-3.582 8-8 8h-43.086c-4.418 0-8-3.582-8-8v-37.382h-59.039c-.733 0-1.354.607-1.354 1.326v171.267c0 .747.607 1.354 1.354 1.354z"/><path d="m201.621 293.239h-171.267c-.747 0-1.354.607-1.354 1.354v171.267c0 .722.633 1.354 1.354 1.354h171.267c.706 0 1.326-.633 1.326-1.354v-171.267c0-.734-.607-1.354-1.326-1.354z"/><path d="m313.936 104.618v158.146l51.312-43.751c.938-.758 1.286-1.387 1.286-1.606v-163.297l-53.34 45.512c.479 1.583.743 3.258.743 4.995z"/><path d="m296.581 87.291c1.885 0 3.696.311 5.396.869l50.835-43.375h-45.8l-49.838 42.506h39.406z"/><path d="m408.923 294.593v66.719c8.156-3.698 17.074-5.661 26.299-5.661 9.224 0 18.142 1.962 26.298 5.661v-117.233l-53.349 45.479c.485 1.595.751 3.284.751 5.035z"/><path d="m391.568 277.239c1.878 0 3.683.309 5.377.863l50.874-43.369h-76.353l-49.849 42.506h69.95z"/></g></svg>