<?xml version="1.0" encoding="iso-8859-1"?>
<!-- Generator: Adobe Illustrator 19.0.0, SVG Export Plug-In . SVG Version: 6.00 Build 0)  -->
<svg version="1.1" id="Capa_1" xmlns="http://www.w3.org/2000/svg" xmlns:xlink="http://www.w3.org/1999/xlink" x="0px" y="0px"
	 viewBox="0 0 480.562 480.562" style="enable-background:new 0 0 480.562 480.562;" xml:space="preserve">
<linearGradient id="SVGID_1_" gradientUnits="userSpaceOnUse" x1="-12.0817" y1="620.5197" x2="-12.0817" y2="553.0466" gradientTransform="matrix(8 0 0 -8 453.0063 4946.0547)">
	<stop  offset="0" style="stop-color:#00E7F0"/>
	<stop  offset="1" style="stop-color:#006DF0"/>
</linearGradient>
<path style="fill:url(#SVGID_1_);" d="M352.285,480.562h-96c-4.418,0-8-3.582-8-8V281.69c0-15.296,13.176-28.4,22.8-37.96
	l72.2-72.112c4.5-4.518,10.623-7.045,17-7.016c6.372-0.017,12.484,2.521,16.968,7.048c14.525,14.511,14.536,38.05,0.025,52.575
	c-0.008,0.008-0.017,0.017-0.025,0.025l-36,35.952c-3.123,3.124-3.123,8.188,0,11.312l10.992,11.016l48.928-48.872
	c4.521-4.491,7.059-10.603,7.048-16.976l0.064-188.384c0.018-15.317,12.435-27.727,27.752-27.736h7.664
	c11.448,0.004,20.724,9.288,20.72,20.736c0,0.003,0,0.005,0,0.008l-0.136,228.936c-0.034,7.553-3.051,14.787-8.392,20.128
	l-88.656,87.888c-4.504,4.428-7.033,10.484-7.016,16.8l0.064,97.504C360.285,476.98,356.703,480.562,352.285,480.562
	L352.285,480.562z M264.285,464.562h80l-0.056-89.52c0.032-10.568,4.259-20.691,11.752-28.144l88.64-87.88
	c2.332-2.336,3.649-5.499,3.664-8.8l0.136-228.928c0-2.611-2.117-4.728-4.728-4.728h-7.656c-6.487,0.009-11.743,5.265-11.752,11.752
	l-0.112,188.384c0.019,10.614-4.204,20.795-11.728,28.28l-54.56,54.52c-1.5,1.5-3.534,2.344-5.656,2.344
	c-2.122,0-4.156-0.844-5.656-2.344l-16.688-16.672c-9.373-9.372-9.375-24.568-0.003-33.941c0.001-0.001,0.002-0.002,0.003-0.003
	l36-35.944c8.268-8.285,8.268-21.699,0-29.984c-3.124-3.123-8.188-3.123-11.312,0l-72.208,72.12
	c-7.624,7.584-18.072,17.976-18.08,26.624L264.285,464.562z"/>
<g>
	
		<linearGradient id="SVGID_2_" gradientUnits="userSpaceOnUse" x1="-41.0992" y1="620.5197" x2="-41.0992" y2="553.0466" gradientTransform="matrix(8 0 0 -8 453.0063 4946.0547)">
		<stop  offset="0" style="stop-color:#00E7F0"/>
		<stop  offset="1" style="stop-color:#006DF0"/>
	</linearGradient>
	<path style="fill:url(#SVGID_2_);" d="M224.285,480.562h-96c-4.418,0-8-3.582-8-8l0.064-97.528
		c0.017-6.316-2.512-12.372-7.016-16.8L24.685,270.37c-5.357-5.334-8.379-12.576-8.4-20.136l-0.144-228.92
		c0.026-11.438,9.282-20.708,20.72-20.752h7.648C59.826,0.579,72.245,12.98,72.285,28.298l0.112,188.384
		c0.021,6.36,2.551,12.455,7.04,16.96l48.936,48.888l10.992-11.016c3.118-3.123,3.118-8.181,0-11.304l-36-36
		c-14.501-14.538-14.501-38.07,0-52.608c4.482-4.495,10.573-7.015,16.92-7c6.365-0.021,12.473,2.509,16.96,7.024l72.24,72.136
		c9.6,9.6,22.792,22.664,22.8,37.944v190.856C232.285,476.98,228.703,480.562,224.285,480.562L224.285,480.562z M136.285,464.562h80
		v-182.88c0-8.632-10.456-19.024-18.08-26.608l-72.232-72.112c-1.491-1.51-3.526-2.357-5.648-2.352
		c-2.122-0.004-4.156,0.843-5.648,2.352c-8.269,8.288-8.269,21.704,0,29.992l36,35.952c9.369,9.372,9.369,24.564,0,33.936
		l-16.632,16.656c-1.5,1.5-3.534,2.344-5.656,2.344c-2.122,0-4.156-0.844-5.656-2.344l-54.608-54.536
		c-7.478-7.51-11.692-17.666-11.728-28.264L56.285,28.314c-0.018-6.489-5.279-11.743-11.768-11.752h-7.64
		c-2.615,0.009-4.732,2.129-4.736,4.744l0.144,228.92c0.001,3.302,1.317,6.469,3.656,8.8l88.656,87.872
		c7.491,7.451,11.718,17.571,11.752,28.136L136.285,464.562z"/>
	
		<linearGradient id="SVGID_3_" gradientUnits="userSpaceOnUse" x1="-26.4902" y1="620.5197" x2="-26.4902" y2="553.0466" gradientTransform="matrix(8 0 0 -8 453.0063 4946.0547)">
		<stop  offset="0" style="stop-color:#00E7F0"/>
		<stop  offset="1" style="stop-color:#006DF0"/>
	</linearGradient>
	<path style="fill:url(#SVGID_3_);" d="M241.085,207.762c-2.122,0-4.156-0.844-5.656-2.344l-96.16-96.16
		c-24.994-24.994-24.994-65.518,0-90.512s65.518-24.994,90.512,0l11.304,11.304l11.304-11.304c24.994-24.994,65.518-24.994,90.512,0
		s24.994,65.518,0,90.512l-96.16,96.16C245.241,206.918,243.206,207.761,241.085,207.762L241.085,207.762z M184.525,16.002
		c-26.51-0.003-48.003,21.485-48.006,47.994c-0.002,12.734,5.057,24.946,14.062,33.95l90.504,90.504l90.504-90.504
		c18.74-18.753,18.729-49.148-0.024-67.888s-49.148-18.729-67.888,0.024l-16.936,16.936c-3.124,3.123-8.188,3.123-11.312,0
		l-16.96-16.952C209.488,21.03,197.264,15.965,184.525,16.002L184.525,16.002z"/>
</g>
<g>
</g>
<g>
</g>
<g>
</g>
<g>
</g>
<g>
</g>
<g>
</g>
<g>
</g>
<g>
</g>
<g>
</g>
<g>
</g>
<g>
</g>
<g>
</g>
<g>
</g>
<g>
</g>
<g>
</g>
</svg>
