<svg viewBox="0 0 512 512" xmlns="http://www.w3.org/2000/svg"><g id="Healthy_mentality"><path d="m331.2291 37.4033a17.5345 17.5345 0 0 0 -10.5727 10.5727 4.2378 4.2378 0 0 1 -7.8568 0 17.5345 17.5345 0 0 0 -10.5727-10.5727 4.2379 4.2379 0 0 1 0-7.8569 17.5345 17.5345 0 0 0 10.5731-10.5727 4.2378 4.2378 0 0 1 7.8568 0 17.5345 17.5345 0 0 0 10.5727 10.5727 4.2379 4.2379 0 0 1 -.0004 7.8569z" fill="#ff9797"/><path d="m265.3442 325.9429 31.2769 153.09a20.806 20.806 0 0 0 20.3849 16.6412h47.1689a14.8349 14.8349 0 0 0 14.1677-19.2341l-57.8549-186.322a83.1451 83.1451 0 0 1 -3.4618-31.4512l2.343-28.5733a26.5542 26.5542 0 0 1 13.36-20.9249l63.432-35.9953a39.4087 39.4087 0 0 0 19.874-31.9925c2.4547-42.0741-2.4525-80.5986-5.2087-97.9779a11.5436 11.5436 0 0 0 -11.4076-9.728h-32.8586a11.5525 11.5525 0 0 0 -11.3353 9.3226l-1.9238 9.78a11.5524 11.5524 0 0 0 8.2825 13.3718l7.7776 2.131a11.5526 11.5526 0 0 1 8.123 14.0684l-10.67 40.7475a11.6362 11.6362 0 0 1 -7.9967 8.1765c-11.6784 3.4683-23.2724 9.5625-32.13 14.93a44.8112 44.8112 0 0 1 -33.1541 5.3047 162.3451 162.3451 0 0 0 -37.5654-3.8913h.066a162.3451 162.3451 0 0 0 -37.5654 3.8913 44.8112 44.8112 0 0 1 -33.1541-5.3047c-8.8576-5.3673-20.4516-11.4615-32.13-14.93a11.6362 11.6362 0 0 1 -7.9967-8.1765l-10.67-40.7475a11.5526 11.5526 0 0 1 8.1224-14.0687l7.7776-2.131a11.5524 11.5524 0 0 0 8.2824-13.3718l-1.9238-9.78a11.5525 11.5525 0 0 0 -11.3353-9.3226h-32.8595a11.5436 11.5436 0 0 0 -11.4076 9.728c-2.7562 17.3793-7.6634 55.9038-5.2087 97.9779a39.4087 39.4087 0 0 0 19.874 31.9925l63.432 35.9953a26.5542 26.5542 0 0 1 13.36 20.9249l2.343 28.5733a83.1451 83.1451 0 0 1 -3.4618 31.4512l-57.8549 186.3223a14.8349 14.8349 0 0 0 14.1677 19.2341h47.2057a20.806 20.806 0 0 0 20.376-16.5979l31.6286-153.1531c2.0551-9.951 16.2746-9.9359 18.3088.0198z" fill="#39bf8b"/><path d="m364.1734 495.6743h-47.1648a20.8137 20.8137 0 0 1 -20.39-16.6361l-31.273-153.0919c-2.04-9.9552-16.2588-9.9755-18.309-.02l-31.63 153.1531a20.812 20.812 0 0 1 -20.38 16.5953h-47.2054a14.8408 14.8408 0 0 1 -14.1678-19.2372l57.5892-185.4775c61.6313 4.1186 103.7279-19.2816 128.1263-60.8669l-.2273 2.7756-2.1126 25.798a83.0542 83.0542 0 0 0 3.4578 31.4466l57.8544 186.3234a14.8363 14.8363 0 0 1 -14.1678 19.2376z" fill="#1aaf80"/><ellipse cx="256.655" cy="96.334" fill="#39bf8b" rx="42.924" ry="40.41"/><path d="m299.5768 96.3342c0 22.3176-19.2168 40.4124-42.9216 40.4124a43.871 43.871 0 0 1 -33.4152-15.0553 44.6948 44.6948 0 0 0 7.8132.6733c23.7048 0 42.9216-18.0949 42.9216-40.4125a38.7871 38.7871 0 0 0 -9.5064-25.3572c19.9716 3.4579 35.1084 19.9309 35.1084 39.7393z" fill="#3ab089"/><path d="m375.7478 141.0305a6.2714 6.2714 0 0 1 -6.2708 6.25h-.01a6.2714 6.2714 0 0 1 -6.26-6.2917c.021-4.86-1.3691-8.1416-3.1876-10.3468a11.6152 11.6152 0 0 0 6.7933-7.7444l.6689-2.55c4.6184 4.2639 8.2976 10.8796 8.2662 20.6829z" fill="#008d63"/><path d="m153.49 131.1645c-1.62 2.1947-2.801 5.33-2.7906 9.8242a6.2691 6.2691 0 0 1 -6.25 6.2917h-.0209a6.2713 6.2713 0 0 1 -6.2708-6.25c-.0209-8.7059 2.8741-14.9036 6.762-19.1677l.2717 1.0347a11.5909 11.5909 0 0 0 7.9953 8.1729c.1051.0315.1991.0628.3033.0942z" fill="#008d63"/><path d="m256.6551 122.8169c-11.167 0-15.479-6.7591-17.144-11.979a4.5585 4.5585 0 0 1 4.3336-5.9579h25.6206a4.5585 4.5585 0 0 1 4.3337 5.9578c-1.665 5.2199-5.9769 11.9791-17.1439 11.9791z" fill="#007a4f"/><path d="m329.38 491.901a21.0186 21.0186 0 0 1 -11.9345-14.636c-9.0854-39.5-23.1561-98.8706-30.9752-122.9627-11.9239-36.7812-28.2745-35.8019-28.9578-35.7407a9.0514 9.0514 0 0 1 7.8335 7.3847l31.2733 153.0919a20.8138 20.8138 0 0 0 20.39 16.6361h4.6407 29.8c-10.1085.0065-17.1661-1.6358-22.07-3.7733z" fill="#008d63"/><path d="m254.5438 318.6023a3.1156 3.1156 0 0 0 -.3264.0714 8.9814 8.9814 0 0 0 -7.1808 7.2522l-31.63 153.1531a20.812 20.812 0 0 1 -20.38 16.5953h-34.3533c10.057 0 17.085-1.6422 21.9809-3.7739a21.015 21.015 0 0 0 11.9341-14.637c9.0881-39.4944 23.1539-98.8687 30.9772-122.9611 11.9239-36.7812 28.2945-35.7612 28.9783-35.7z" fill="#008d63"/><path d="m292.73 200.8981c0-9.633-8.0724-17.4422-18.03-17.4422-5.8761 0-10.4076 3.9853-13.46 7.9452a5.5913 5.5913 0 0 1 -8.9411-.0753c-2.9558-3.935-7.4669-7.87-13.6886-7.87-9.9578 0-18.03 7.8092-18.03 17.4422a16.9706 16.9706 0 0 0 .3144 3.2343l-.0047.0018c.0086.0427.1132.5169.16.71 3.61 15.438 21.473 29.4114 30.4448 35.5911a9.0891 9.0891 0 0 0 10.322 0c8.9717-6.18 26.8345-20.1531 30.4448-35.5911.0463-.1935.1509-.6677.1595-.71l-.0048-.0018a16.9706 16.9706 0 0 0 .3137-3.2342z" fill="#ff5c5c"/><path d="m274.7 183.4559c9.9577 0 18.03 7.8092 18.03 17.4422a16.97 16.97 0 0 1 -.3144 3.2343l.0047.0018c-.0085.0427-.1131.5169-.1594.71-3.61 15.438-21.473 29.4114-30.4448 35.5911a9.0893 9.0893 0 0 1 -10.3221 0c-8.9716-6.18-26.8346-20.1531-30.4448-35.5911-.0462-.1935-.1509-.6677-.1594-.71l.0048-.0018a16.9617 16.9617 0 0 1 -.3145-3.2343c0-9.633 8.0724-17.4422 18.03-17.4422 6.2215 0 10.7328 3.9349 13.6886 7.87a5.5912 5.5912 0 0 0 8.941.0753c3.0523-3.96 7.5838-7.9452 13.46-7.9452m0-12a26.6126 26.6126 0 0 0 -17.8912 7.144 27.4053 27.4053 0 0 0 -18.1982-7.1441c-16.5587 0-30.03 13.2077-30.03 29.4422a29.0278 29.0278 0 0 0 .45 5.07q.0405.2609.0927.5216c.0133.0661.1676.7749.2458 1.1069 2.3473 10.0123 10.3821 25.5459 35.318 42.7217a21.089 21.089 0 0 0 23.9361 0c13.7675-9.483 31.0681-24.5913 35.3178-42.7212.0782-.3317.2327-1.0413.246-1.1074.0348-.1739.0658-.3483.0927-.5221a29.0134 29.0134 0 0 0 .45-5.0694c0-16.2345-13.4714-29.4422-30.03-29.4422z" fill="#fff"/></g></svg>