<svg id="Layer_1" enable-background="new 0 0 512 512" viewBox="0 0 512 512" xmlns="http://www.w3.org/2000/svg" xmlns:xlink="http://www.w3.org/1999/xlink"><linearGradient id="SVGID_1_" gradientUnits="userSpaceOnUse" x1="46.741" x2="464.941" y1="471.239" y2="53.038"><stop offset="0" stop-color="#294074"/><stop offset="1" stop-color="#f494be"/></linearGradient><path d="m127.249 157.062v-61.703c0-13.775 11.225-25 25-25h77.788l-12.353-12.353c-1.952-1.952-1.952-5.118 0-7.07s5.118-1.952 7.07 0l20.888 20.888c1.952 1.952 1.952 5.118 0 7.07l-20.888 20.888c-1.952 1.952-5.118 1.952-7.07 0s-1.952-5.118 0-7.07l12.353-12.353h-77.788c-8.255 0-15 6.745-15 15v61.704c0 2.761-2.239 5-5 5-2.761-.001-5-2.239-5-5.001zm264.461 192.876c-2.761 0-5 2.239-5 5v61.704c0 8.255-6.745 15-15 15h-77.788l12.353-12.353c1.952-1.952 1.952-5.118 0-7.07s-5.118-1.952-7.07 0l-20.888 20.888c-1.952 1.952-1.952 5.118 0 7.07l20.888 20.888c1.952 1.952 5.118 1.952 7.07 0s1.952-5.118 0-7.07l-12.353-12.353h77.788c13.775 0 25-11.225 25-25v-61.704c0-2.762-2.239-5-5-5zm104.29-217.689c0 32.872-13.646 62.556-35.58 83.699-12.171 11.732-19.816 26.344-18.354 43.186l4.227 48.696c.51 5.874-4.066 10.865-9.962 10.865h-106.156c-4.992 0-9.16-3.596-9.892-8.533l-2.847-19.202c-1.077-7.262-5.988-13.33-13.33-13.33h-10.613c-16.519 0-29.992-13.473-29.992-29.992v-30.729c0-5.508-4.492-10-10-10h-8.561c-4.556 0-8.472-1.801-10.962-5.042-2.49-3.24-2.856-7.011-1.024-10.554l29.455-56.954c.738-1.426 1.082-2.796 1.113-4.401 1.223-63.145 52.792-113.958 116.229-113.958 64.203 0 116.249 52.046 116.249 116.249zm-80.465-35.784c1.952 1.952 5.118 1.952 7.07 0l9.811-9.811c1.952-1.952 1.952-5.118 0-7.07s-5.118-1.952-7.07 0l-9.811 9.811c-1.952 1.952-1.952 5.118 0 7.07zm-40.784-19.822c0 2.761 2.239 5 5 5s5-2.239 5-5v-13.875c0-2.761-2.239-5-5-5s-5 2.239-5 5zm-47.666 10.011 9.811 9.811c1.952 1.952 5.118 1.952 7.07 0s1.952-5.118 0-7.07l-9.811-9.811c-1.952-1.952-5.118-1.952-7.07 0s-1.952 5.118 0 7.07zm-2.94 50.595c2.761 0 5-2.239 5-5s-2.239-5-5-5h-13.875c-2.761 0-5 2.239-5 5s2.239 5 5 5zm19.822 30.784c-1.952-1.952-5.118-1.952-7.07 0l-9.811 9.812c-1.952 1.952-1.952 5.118 0 7.07s5.118 1.952 7.07 0l9.811-9.811c1.952-1.953 1.952-5.119 0-7.071zm69.783-4.367c5.376-7.554 10.89-15.303 10.89-31.417 0-25.043-19.23-47.096-44.889-47.096s-44.889 22.053-44.889 47.096c0 16.114 5.514 23.863 10.89 31.417 4.199 5.9 8.296 11.657 8.296 22.599v21.465c0 14.304 11.183 26.465 25.704 26.465s25.704-12.161 25.704-26.465v-21.465c-.002-10.942 4.095-16.699 8.294-22.599zm18.666 14.178-9.811-9.812c-1.952-1.952-5.118-1.952-7.07 0s-1.952 5.118 0 7.07l9.811 9.811c1.952 1.952 5.118 1.952 7.07 0 1.952-1.951 1.952-5.117 0-7.069zm21.815-45.595c0-2.761-2.239-5-5-5h-13.875c-2.761 0-5 2.239-5 5s2.239 5 5 5h13.875c2.762 0 5-2.239 5-5zm-321.982 269.25c7.084 0 12.973-4.793 14.976-11.464h-29.951c2.003 6.671 7.891 11.464 14.975 11.464zm134.81-17.286h-8.561c-5.508 0-10 4.492-10 10v30.729c0 16.519-13.473 29.992-29.992 29.992h-10.613c-7.341 0-12.253 6.067-13.33 13.33l-2.847 19.202c-.732 4.938-4.9 8.533-9.892 8.533h-106.154c-5.897 0-10.473-4.99-9.962-10.865l4.227-48.696c1.462-16.842-6.184-31.454-18.355-43.186-21.934-21.142-35.58-50.826-35.58-83.698 0-64.202 52.046-116.249 116.249-116.249 63.437 0 115.006 50.813 116.227 113.957.031 1.605.376 2.975 1.113 4.401l29.455 56.954c1.833 3.543 1.467 7.314-1.024 10.554-2.489 3.241-6.406 5.042-10.961 5.042zm-99.026-110.443c1.952 1.952 5.118 1.952 7.07 0l9.811-9.811c1.952-1.952 1.952-5.118 0-7.07s-5.118-1.952-7.07 0l-9.811 9.811c-1.952 1.952-1.952 5.118 0 7.07zm-40.784-19.822c0 2.761 2.239 5 5 5s5-2.239 5-5v-13.875c0-2.761-2.239-5-5-5s-5 2.239-5 5zm-47.665 10.011 9.811 9.811c1.952 1.952 5.118 1.952 7.07 0s1.952-5.118 0-7.07l-9.811-9.811c-1.952-1.952-5.118-1.952-7.07 0s-1.952 5.118 0 7.07zm-2.94 50.595c2.761 0 5-2.239 5-5s-2.239-5-5-5h-13.875c-2.761 0-5 2.239-5 5s2.239 5 5 5zm19.821 30.784c-1.952-1.952-5.118-1.952-7.07 0l-9.811 9.811c-1.952 1.952-1.952 5.118 0 7.07s5.118 1.952 7.07 0l9.811-9.811c1.952-1.952 1.952-5.118 0-7.07zm69.784-4.367c5.376-7.554 10.89-15.303 10.89-31.417 0-25.043-19.23-47.096-44.89-47.096-25.659 0-44.889 22.053-44.889 47.096 0 16.114 5.514 23.863 10.89 31.417 4.199 5.9 8.296 11.657 8.296 22.599v21.465c0 14.304 11.183 26.465 25.704 26.465s25.704-12.16 25.704-26.465v-21.465c-.001-10.942 4.096-16.699 8.295-22.599zm18.666 14.178-9.811-9.811c-1.952-1.952-5.118-1.952-7.07 0s-1.952 5.118 0 7.07l9.811 9.811c1.952 1.952 5.118 1.952 7.07 0s1.952-5.117 0-7.07zm21.815-45.595c0-2.761-2.239-5-5-5h-13.875c-2.761 0-5 2.239-5 5s2.239 5 5 5h13.875c2.761 0 5-2.239 5-5zm173.02-214.402c-20.164 0-34.889 17.541-34.889 37.096 0 12.968 4.565 19.382 9.015 25.635 4.5 6.323 8.904 12.513 9.941 23.38h3.895v-10.794c0-4.721 2.772-8.988 7.038-10.947v-27.275c0-2.761 2.239-5 5-5s5 2.239 5 5v27.275c4.266 1.959 7.038 6.226 7.038 10.947v10.794h3.895c1.037-10.867 5.441-17.057 9.941-23.38 4.45-6.253 9.015-12.668 9.015-25.635.001-19.555-14.724-37.096-34.889-37.096zm.001 73.281c-1.111 0-2.038.927-2.038 2.038v10.794h4.076v-10.794c0-1.111-.927-2.038-2.038-2.038zm-247.502 177.305c-1.111 0-2.038.927-2.038 2.038v10.794h4.076v-10.794c0-1.111-.927-2.038-2.038-2.038zm-15.703 34.297h31.407v-11.465h-31.407zm15.703-107.577c-20.164 0-34.889 17.541-34.889 37.096 0 12.968 4.565 19.382 9.015 25.635 4.5 6.323 8.904 12.513 9.941 23.38h3.895v-10.794c0-4.721 2.772-8.988 7.038-10.947v-27.275c0-2.761 2.239-5 5-5s5 2.239 5 5v27.275c4.266 1.959 7.038 6.226 7.038 10.947v10.794h3.895c1.037-10.867 5.441-17.057 9.941-23.38 4.45-6.254 9.015-12.668 9.015-25.635.001-19.556-14.725-37.096-34.889-37.096zm231.798-69.729h31.407v-11.465h-31.407zm15.703 21.465c7.084 0 12.973-4.793 14.975-11.465h-29.951c2.004 6.671 7.893 11.465 14.976 11.465z" fill="url(#SVGID_1_)"/></svg>