<svg id="Layer_1" enable-background="new 0 0 360 360" height="512" viewBox="0 0 360 360" width="512" xmlns="http://www.w3.org/2000/svg" xmlns:xlink="http://www.w3.org/1999/xlink"><linearGradient id="SVGID_1_" gradientTransform="matrix(1 0 0 -1 0 362)" gradientUnits="userSpaceOnUse" x1="52.721" x2="307.279" y1="54.721" y2="309.279"><stop offset="0" stop-color="#5558ff"/><stop offset="1" stop-color="#00c0ff"/></linearGradient><linearGradient id="SVGID_00000105411363895855836400000016865156561188102813_" gradientTransform="matrix(1 0 0 -1 0 362)" gradientUnits="userSpaceOnUse" x1="107.929" x2="237.071" y1="79.929" y2="209.071"><stop offset="0" stop-color="#addcff"/><stop offset="1" stop-color="#eaf6ff"/></linearGradient><circle cx="180" cy="180" fill="url(#SVGID_1_)" r="180"/><path d="m230 270h-20v-130-10c0-5.5-4.5-10-10-10h-40-30c-5.5 0-10 4.5-10 10v10c0 5.5 4.5 10 10 10h20v120h-20c-5.5 0-10 4.5-10 10v10c0 5.5 4.5 10 10 10h30 40 30c5.5 0 10-4.5 10-10v-10c0-5.5-4.5-10-10-10z" fill="url(#SVGID_00000105411363895855836400000016865156561188102813_)"/><path d="m200 100h-40c-5.5 0-10-4.5-10-10v-30c0-5.5 4.5-10 10-10h40c5.5 0 10 4.5 10 10v30c0 5.5-4.5 10-10 10z" fill="#fff"/></svg>