<svg id="glipy_copy" height="512" viewBox="0 0 64 64" width="512" xmlns="http://www.w3.org/2000/svg" xmlns:xlink="http://www.w3.org/1999/xlink" data-name="glipy copy"><linearGradient id="linear-gradient" gradientUnits="userSpaceOnUse" x1="8.159" x2="55.841" y1="32" y2="32"><stop offset="0" stop-color="#00c0ff"/><stop offset="1" stop-color="#5558ff"/></linearGradient><path d="m46.48388 59.9931h-33.33721a5.02088 5.02088 0 0 1 -4.98547-5.05016l.02151-2.34735h36.90136c.00503 2.32914-.32999 5.59014 1.39981 7.39751zm8.06512-3.6611a3.69149 3.69149 0 0 1 -3.8441 3.66114 3.84187 3.84187 0 0 1 -3.46728-3.91952v-4.55481a1.07993 1.07993 0 0 0 -1.07677-1.07681h-33.1865l.04316-41.45615a5.01221 5.01221 0 0 1 4.99618-4.98555l37.82745.06461a5.78424 5.78424 0 0 0 -1.30287 3.6718c.00454 6.54277.01764 41.28105.01073 48.59529zm-18.553-16.83014-17.16394.04314a1.07679 1.07679 0 1 0 0 2.15357l17.164-.04312a1.07689 1.07689 0 0 0 -.00006-2.15359zm13.083-8.61428-30.24685.04312a1.07691 1.07691 0 0 0 -.00005 2.15356l30.2469-.04311a1.07692 1.07692 0 0 0 0-2.15357zm-30.24694-6.41758 17.1639-.04312a1.0769 1.0769 0 0 0 .00004-2.15358l-17.16395.04312a1.07679 1.07679 0 1 0 0 2.15357zm30.24694-10.811-30.24685.04311a1.07692 1.07692 0 0 0 -.00005 2.15357l30.2469-.04308a1.07692 1.07692 0 0 0 0-2.1536z" fill="url(#linear-gradient)"/></svg>