<svg id="Capa_1" enable-background="new 0 0 511.992 511.992" height="512" viewBox="0 0 511.992 511.992" width="512" xmlns="http://www.w3.org/2000/svg"><g><g><g><path d="m255.996 217.62-207.747-207.747c-5.086-5.086-13.782-1.484-13.782 5.709v47.458c0 3.479 1.382 6.816 3.843 9.277l217.639 217.639v.094l.047-.047.047.047v-.094l217.639-217.64c2.46-2.46 3.843-5.797 3.843-9.277v-47.458c0-7.193-8.696-10.795-13.782-5.709z" fill="#bcea73"/><path d="m463.743 9.873-20.403 20.402v72.383l30.342-30.342c2.46-2.46 3.843-5.797 3.843-9.277v-47.458c0-7.192-8.696-10.794-13.782-5.708z" fill="#99d53b"/></g><g><path d="m34.467 124.81v47.458c0 3.479 1.382 6.816 3.843 9.277l217.639 217.639v.094l.047-.047.047.047v-.094l217.639-217.639c2.46-2.46 3.843-5.797 3.843-9.277v-47.458c0-7.193-8.696-10.795-13.782-5.709l-207.747 207.747-207.747-207.747c-5.086-5.086-13.782-1.483-13.782 5.709z" fill="#2db181"/><path d="m463.743 119.101-20.402 20.402v72.383l30.342-30.342c2.46-2.46 3.843-5.797 3.843-9.277v-47.457c-.001-7.192-8.697-10.795-13.783-5.709z" fill="#1ca56f"/></g><g><path d="m34.467 234.039v48.879c0 2.57 1.021 5.034 2.838 6.851l211.793 211.884c3.784 3.785 9.92 3.786 13.704.001l210.88-210.88c2.46-2.46 3.843-5.797 3.843-9.277v-47.458c0-7.193-8.696-10.795-13.782-5.709l-207.747 207.747-207.747-207.747c-5.086-5.086-13.782-1.484-13.782 5.709z" fill="#0f7a4f"/></g><g><path d="m463.743 228.33-20.402 20.402v72.383l30.342-30.342c2.46-2.46 3.843-5.797 3.843-9.277v-47.458c-.001-7.192-8.697-10.794-13.783-5.708z" fill="#0c6842"/></g></g><g><g><path d="m255.996 449.5-56.921 20.241c-5.925 2.107-12.118-2.393-11.945-8.678l1.661-60.39-36.84-47.881c-3.835-4.984-1.469-12.264 4.562-14.042l57.948-17.082 34.153-49.833c3.555-5.187 11.21-5.187 14.764 0l34.153 49.833 57.948 17.082c6.032 1.778 8.397 9.058 4.562 14.042l-36.84 47.881 1.661 60.39c.173 6.286-6.02 10.785-11.945 8.678z" fill="#fc9744"/><path d="m297.53 321.67 57.948 17.08c6.033 1.783 8.395 9.062 4.566 14.041l-36.847 47.885 1.66 60.389c.176 6.288-6.015 10.784-11.943 8.676l-20.18-7.174c3.925-.281 7.271-3.609 7.148-7.912l-1.431-51.994 31.718-41.22c3.302-4.294 1.265-10.564-3.925-12.092l-49.894-14.709-29.4-42.906c-2.45-3.574-7.148-4.285-10.502-2.151l12.162-17.747c3.556-5.19 11.214-5.19 14.77 0" fill="#fb7722"/><g><path d="m255.996 421.54-41.835 14.877 1.222-44.384-27.076-35.19 42.588-12.554 25.101-36.625 25.1 36.625 42.588 12.554-27.075 35.19 1.221 44.384z" fill="#fcb982"/><path d="m296.608 392.035 1.221 44.381-23.824-8.474-.854-30.976c-.056-2.019.587-3.996 1.818-5.597l20.102-26.126-31.619-9.313c-1.938-.571-3.621-1.793-4.763-3.46l-16.701-24.373 14.006-20.434 25.106 36.627 42.581 12.549z" fill="#fca863"/><g><path d="m180.119 443.186-.486 17.672c-.149 5.426 2.384 10.57 6.775 13.76 2.85 2.071 6.24 3.142 9.667 3.142 1.854 0 3.718-.313 5.512-.952l8.907-3.167 33.3 33.314c3.246 3.248 7.563 5.036 12.155 5.037h.002c4.591 0 8.908-1.788 12.154-5.035l33.336-33.336 8.963 3.187c5.113 1.819 10.788 1 15.181-2.191 4.392-3.19 6.924-8.334 6.774-13.76l-.488-17.726 147.115-147.055c3.895-3.895 6.039-9.073 6.039-14.58v-47.458c0-6.321-3.773-11.969-9.614-14.388-5.837-2.418-12.501-1.095-16.972 3.376l-106.779 106.78-12.073-3.559 139.399-139.399c3.895-3.895 6.039-9.072 6.039-14.58v-47.458c0-6.321-3.773-11.969-9.614-14.388-5.837-2.418-12.501-1.095-16.972 3.376l-59.372 59.372c-2.929 2.929-2.929 7.678 0 10.606 2.93 2.929 7.678 2.929 10.607 0l59.372-59.372c.126-.127.271-.271.624-.124.354.146.354.35.354.53v47.458c0 1.5-.585 2.912-1.646 3.973l-145.175 145.176-20.994-6.189-9.755-14.233 93.891-93.892c2.929-2.929 2.929-7.678 0-10.606-2.93-2.928-7.678-2.929-10.607 0l-91.911 91.911-6.357-9.275 201.516-201.514c3.895-3.895 6.039-9.072 6.039-14.58v-47.458c0-6.321-3.773-11.969-9.613-14.388-5.842-2.419-12.503-1.093-16.973 3.376l-150.801 150.802c-2.929 2.929-2.929 7.678 0 10.606 2.93 2.929 7.678 2.929 10.607 0l150.802-150.801c.126-.127.269-.271.625-.124.354.146.354.35.354.529v47.459c0 1.5-.585 2.912-1.646 3.973l-199.574 199.572c-3.108-3.863-7.805-6.14-12.809-6.14h-.001c-5.004 0-9.702 2.276-12.811 6.139l-199.572-199.571c-1.062-1.062-1.646-2.473-1.646-3.973v-47.459c0-.18 0-.383.354-.529.356-.146.499-.002.625.124l207.747 207.747c1.407 1.407 3.314 2.197 5.304 2.197 1.989 0 3.896-.79 5.304-2.197l33.617-33.618c2.929-2.929 2.929-7.678 0-10.606-2.931-2.93-7.679-2.928-10.607 0l-28.313 28.314-202.445-202.444c-4.471-4.47-11.132-5.795-16.973-3.376-5.84 2.419-9.613 8.066-9.613 14.388v47.459c0 5.507 2.145 10.685 6.039 14.58l201.514 201.513-6.357 9.275-174.61-174.61c-4.472-4.471-11.136-5.794-16.972-3.376-5.841 2.419-9.614 8.067-9.614 14.388v47.458c0 5.507 2.145 10.685 6.039 14.58l71.978 71.978c2.93 2.929 7.678 2.929 10.607 0s2.929-7.678 0-10.606l-71.978-71.978c-1.062-1.062-1.646-2.473-1.646-3.973v-47.459c0-.18 0-.383.354-.53s.498-.002.624.124l176.591 176.591-9.754 14.233-20.994 6.188-49.87-49.87c-2.929-2.929-7.677-2.929-10.607 0-2.929 2.929-2.929 7.678 0 10.606l44.093 44.094-12.073 3.559-106.778-106.778c-4.47-4.469-11.13-5.795-16.972-3.376-5.841 2.419-9.614 8.067-9.614 14.388v48.879c0 4.59 1.788 8.907 5.033 12.153zm-137.511-158.72c-.407-.408-.642-.972-.642-1.548v-48.879c0-.18 0-.383.354-.53.35-.146.497-.003.624.125l103.331 103.33c-1.259 1.55-2.242 3.335-2.877 5.288-1.678 5.162-.703 10.812 2.606 15.115l35.215 45.767-.536 19.469zm214.89 211.885c-.529.529-1.134.641-1.547.641 0 0 0 0-.001 0-.413 0-1.019-.111-1.548-.642l-28.261-28.273 29.855-10.616 29.797 10.596zm211.549-262.718c.126-.126.271-.272.624-.125.354.147.354.35.354.53v47.458c0 1.5-.585 2.912-1.646 3.974l-137.074 137.073-.534-19.41 35.214-45.767c3.31-4.302 4.285-9.952 2.607-15.114-.634-1.953-1.618-3.739-2.877-5.288zm-115.69 112.311c.606.179.862.611.97.943.107.331.155.831-.23 1.332l-36.84 47.88c-1.052 1.368-1.601 3.056-1.553 4.78l1.661 60.391c.018.631-.315 1.008-.597 1.212-.283.205-.747.405-1.339.193l-56.921-20.241c-1.624-.577-3.399-.578-5.025 0l-56.923 20.241c-.594.211-1.056.011-1.336-.193-.282-.205-.615-.581-.598-1.212l1.661-60.391c.048-1.724-.501-3.413-1.553-4.78l-36.841-47.879c-.385-.501-.337-1.001-.229-1.333.107-.331.363-.764.969-.942l57.948-17.082c1.654-.488 3.09-1.531 4.065-2.954l34.152-49.832c.357-.521.848-.631 1.196-.631.349 0 .838.109 1.195.63l34.153 49.833c.976 1.423 2.411 2.466 4.065 2.954z"/><path d="m262.182 303.425c-1.398-2.041-3.713-3.26-6.187-3.26s-4.788 1.22-6.187 3.26l-23.593 34.424-40.031 11.801c-2.372.699-4.247 2.524-5.012 4.876s-.319 4.931 1.188 6.891l25.45 33.076-1.147 41.718c-.068 2.473 1.088 4.82 3.089 6.274 2 1.454 4.591 1.828 6.921.999l39.321-13.983 39.321 13.983c.817.291 1.667.434 2.512.434 1.563 0 3.11-.489 4.409-1.432 2.001-1.454 3.157-3.801 3.089-6.274l-1.147-41.718 25.449-33.076c1.508-1.96 1.953-4.539 1.188-6.891-.765-2.353-2.64-4.177-5.012-4.876l-40.03-11.801zm28.483 84.034c-1.052 1.368-1.601 3.056-1.553 4.78l.92 33.444-31.523-11.209c-.813-.289-1.662-.434-2.513-.434s-1.7.145-2.513.434l-31.523 11.209.92-33.444c.048-1.724-.501-3.413-1.553-4.78l-20.403-26.516 32.093-9.46c1.654-.488 3.09-1.531 4.065-2.954l18.914-27.597 18.914 27.597c.976 1.423 2.411 2.466 4.065 2.954l32.092 9.46z"/></g></g></g></g></g></svg>