<svg enable-background="new 0 0 58 58" height="512" viewBox="0 0 58 58" width="512" xmlns="http://www.w3.org/2000/svg"><path d="m54.75 58h-51.5c-1.795 0-3.25-1.455-3.25-3.25v-43.75h58v43.75c0 1.795-1.455 3.25-3.25 3.25z" fill="#e7eced"/><path d="m58 12h-58v-8.75c0-1.795 1.455-3.25 3.25-3.25h51.5c1.795 0 3.25 1.455 3.25 3.25z" fill="#556080"/><path d="m4 4h4v4h-4z" fill="#dd352e"/><path d="m12 4h4v4h-4z" fill="#ebba16"/><path d="m20 4h4v4h-4z" fill="#23a24d"/><path d="m29 16c-3.866 0-7 3.134-7 7 0 2.439 1.249 4.584 3.14 5.837.317-.658 1.001-1.131 1.912-.897 1.405.361 2.693.528 4.121.271.676-.122 1.36.07 1.773.57 1.843-1.261 3.054-3.379 3.054-5.781 0-3.866-3.134-7-7-7z" fill="#366db6"/><path d="m31.93 22.347c-.245-1.154-1.205-2.083-2.366-2.295-1.904-.348-3.564 1.106-3.564 2.948 0 .822.334 1.563.872 2.104.163.164.137.441-.056.568-1.023.672-1.718 1.793-1.8 3.081 1.131.784 2.503 1.247 3.984 1.247s2.853-.463 3.984-1.248c-.081-1.288-.777-2.409-1.8-3.081-.194-.127-.219-.404-.055-.568.676-.68 1.03-1.678.801-2.756z" fill="#fff"/><path d="m53 20h-1c-.552 0-1-.448-1-1s.448-1 1-1h1c.552 0 1 .448 1 1s-.448 1-1 1z" fill="#23a24d"/><path d="m48 20h-8c-.552 0-1-.448-1-1s.448-1 1-1h8c.552 0 1 .448 1 1s-.448 1-1 1z" fill="#ebba16"/><path d="m53 28h-1c-.552 0-1-.448-1-1s.448-1 1-1h1c.552 0 1 .448 1 1s-.448 1-1 1z" fill="#366db6"/><path d="m48 28h-8c-.552 0-1-.448-1-1s.448-1 1-1h8c.552 0 1 .448 1 1s-.448 1-1 1z" fill="#cb465f"/><path d="m41 24h-1c-.552 0-1-.448-1-1s.448-1 1-1h1c.552 0 1 .448 1 1s-.448 1-1 1z" fill="#dd352e"/><path d="m53 24h-8c-.552 0-1-.448-1-1s.448-1 1-1h8c.552 0 1 .448 1 1s-.448 1-1 1z" fill="#7383bf"/><path d="m18 20h-1c-.552 0-1-.448-1-1s.448-1 1-1h1c.552 0 1 .448 1 1s-.448 1-1 1z"/><path d="m18 20h-1c-.552 0-1-.448-1-1s.448-1 1-1h1c.552 0 1 .448 1 1s-.448 1-1 1z" fill="#c5411e"/><path d="m13 20h-8c-.552 0-1-.448-1-1s.448-1 1-1h8c.552 0 1 .448 1 1s-.448 1-1 1z" fill="#23a24d"/><path d="m18 28h-1c-.552 0-1-.448-1-1s.448-1 1-1h1c.552 0 1 .448 1 1s-.448 1-1 1z" fill="#ebba16"/><path d="m13 28h-8c-.552 0-1-.448-1-1s.448-1 1-1h8c.552 0 1 .448 1 1s-.448 1-1 1z" fill="#cb465f"/><path d="m6 24h-1c-.552 0-1-.448-1-1s.448-1 1-1h1c.552 0 1 .448 1 1s-.448 1-1 1z" fill="#7383bf"/><path d="m18 24h-8c-.552 0-1-.448-1-1s.448-1 1-1h8c.552 0 1 .448 1 1s-.448 1-1 1z" fill="#366db6"/><path d="m5 34h12v20h-12z" fill="#23a24d"/><path d="m41 34h12v20h-12z" fill="#dd352e"/><path d="m23 34h12v20h-12z" fill="#ebba16"/><g fill="#fff"><path d="m49 39h-4c-.552 0-1-.448-1-1s.448-1 1-1h4c.552 0 1 .448 1 1s-.448 1-1 1z"/><path d="m49 43h-4c-.552 0-1-.448-1-1s.448-1 1-1h4c.552 0 1 .448 1 1s-.448 1-1 1z"/><path d="m49 47h-4c-.552 0-1-.448-1-1s.448-1 1-1h4c.552 0 1 .448 1 1s-.448 1-1 1z"/><path d="m49 51h-4c-.552 0-1-.448-1-1s.448-1 1-1h4c.552 0 1 .448 1 1s-.448 1-1 1z"/><path d="m31 39h-4c-.552 0-1-.448-1-1s.448-1 1-1h4c.552 0 1 .448 1 1s-.448 1-1 1z"/><path d="m31 43h-4c-.552 0-1-.448-1-1s.448-1 1-1h4c.552 0 1 .448 1 1s-.448 1-1 1z"/><path d="m31 47h-4c-.552 0-1-.448-1-1s.448-1 1-1h4c.552 0 1 .448 1 1s-.448 1-1 1z"/><path d="m31 51h-4c-.552 0-1-.448-1-1s.448-1 1-1h4c.552 0 1 .448 1 1s-.448 1-1 1z"/><path d="m13 39h-4c-.552 0-1-.448-1-1s.448-1 1-1h4c.552 0 1 .448 1 1s-.448 1-1 1z"/><path d="m13 43h-4c-.552 0-1-.448-1-1s.448-1 1-1h4c.552 0 1 .448 1 1s-.448 1-1 1z"/><path d="m13 47h-4c-.552 0-1-.448-1-1s.448-1 1-1h4c.552 0 1 .448 1 1s-.448 1-1 1z"/><path d="m13 51h-4c-.552 0-1-.448-1-1s.448-1 1-1h4c.552 0 1 .448 1 1s-.448 1-1 1z"/></g></svg>