<svg viewBox="0 0 24 24" xmlns="http://www.w3.org/2000/svg"><g id="Layer_2" data-name="Layer 2"><path d="m20.93994 13.27c-.89994 1.1-7.2998 8.09-8.93994 8.09s-8.04-6.99-8.93994-8.09c-2.43994-2.98-2.41992-6.5.0498-8.96a5.66163 5.66163 0 0 1 8.03028 0l.85986.85992.85986-.85986a1.7015 1.7015 0 0 1 .2002-.18006 5.64577 5.64577 0 0 1 7.83008.18006c2.46972 2.45994 2.48974 5.97994.0498 8.95994z" fill="#0db561"/><path d="m14.79 7.07007a.72884.72884 0 0 1 -.5.18994.74658.74658 0 0 1 -.56-.25001l-1.73-1.84008.85986-.85986a1.7015 1.7015 0 0 1 .2002-.18006l1.79 1.88a.747.747 0 0 1 -.06006 1.06007z" fill="#1c5e3f"/><g fill="#fff"><path d="m12 15.75a.7502.7502 0 0 1 -.75-.75v-5a.75.75 0 0 1 1.5 0v5a.7502.7502 0 0 1 -.75.75z"/><path d="m14.5 13.25h-5a.75.75 0 0 1 0-1.5h5a.75.75 0 0 1 0 1.5z"/></g></g></svg>