<svg clip-rule="evenodd" fill-rule="evenodd" image-rendering="optimizeQuality" shape-rendering="geometricPrecision" text-rendering="geometricPrecision" viewBox="0 0 1.69334 1.69334" xmlns="http://www.w3.org/2000/svg"><g id="&#x56FE;&#x5C42;_x0020_1"><circle cx=".847" cy=".847" fill="#48b02c" r=".847"/><path d="m.27597.46033c.0971-.06428.19527-.09484.29448-.09403.09213.00075.18396.02854.27554.08142.09066-.05569.18227-.08219.27478-.08142.09987.00083.19938.03342.29857.09527.01286.008.01993.02178.01994.03589h.00007v.78724c0 .02338-.01896.04234-.04234.04234-.00694 0-.0135-.00166-.01928-.00463-.08558-.03488-.17091-.05348-.25584-.05405-.08461-.00057-.16951.01668-.25466.0534-.00607.00337-.01305.00528-.02048.00528-.00696 0-.01352-.00167-.01931-.00465-.08562-.0349-.17098-.05349-.25596-.05404-.0858-.00056-.17191.01723-.25828.05505-.02137.00931-.04626-.00046-.05557-.02183-.0024-.0055-.00353-.01123-.00352-.01687h-.00012v-.78724c0-.016.00888-.02993.02198-.03713zm.29382-.00969c-.07685-.00062-.15387.02208-.23112.06975v.70246c.07762-.02672.15534-.03934.23315-.03884.09185.00059.1833.01948.27437.055.09187-.03782.1839-.0556.27604-.05499.07775.00052.15524.01415.23244.03988v-.70259c-.0793-.04592-.15751-.07002-.23456-.07067-.08243-.00067-.16507.02547-.24794.0805-.01355.01024-.03255.01168-.04783.00217-.08616-.05372-.17103-.08199-.25455-.08267z" fill="#fff" fill-rule="nonzero"/></g></svg>