<svg id="Capa_1" enable-background="new 0 0 512 512" height="512" viewBox="0 0 512 512" width="512" xmlns="http://www.w3.org/2000/svg"><g><path d="m478.32 129c-24.41 65.39-90.9 154.65-214.77 154.65-114.76 0-195.83-67.4-229.87-154.65 44.12-77.07 127.16-129 222.32-129s178.2 51.93 222.32 129z" fill="#abe334"/><path d="m512 256c0 79.75-36.47 150.98-93.64 197.93h-145.69v57.53c-5.51.36-11.07.54-16.67.54-141.38 0-256-114.62-256-256 0-46.22 12.25-89.57 33.68-127 44.12 77.07 127.16 129 222.32 129s178.21-51.93 222.32-129c21.43 37.43 33.68 80.78 33.68 127z" fill="#56c126"/><path d="m418.794 205.94c0 52.575-42.772 95.347-95.347 95.347-52.574 0-95.347-42.773-95.347-95.347 0-45.553 32.113-83.74 74.889-93.13v27.246l42.933-42.933-42.933-42.933v29.458c-25.335 4.183-48.683 16.114-67.201 34.632-23.415 23.415-36.31 54.546-36.31 87.659s12.895 64.245 36.31 87.66 54.546 36.31 87.659 36.31 64.245-12.895 87.659-36.31 36.309-54.546 36.309-87.66h-28.621z" fill="#fff"/><g><g><g fill="#220f7c"><path d="m314.419 201.663h76.284v7.084h-76.284z" transform="matrix(.37 -.929 .929 .37 31.593 456.974)"/><path d="m342.875 244.553-10.3-4.097 29.672-74.6 10.299 4.097zm-5.104-6.335 2.866 1.14 26.714-67.167-2.865-1.14z"/></g></g><g><g fill="#220f7c"><path d="m391.595 242.051-6.44-2.952 28.654-62.502h-34.607v-7.084h42.457v6.961z"/><path d="m392.58 244.703-10.076-4.62 28.189-61.486h-33.491v-11.084h46.458v9.397l-.182.397zm-4.773-6.589 2.805 1.286 29.048-63.363v-4.524h-38.458v3.084h35.726z"/></g></g><g><g fill="#220f7c"><path d="m325.147 239.948-7.084-.018.049-18.969h-34.627l28.972-50.49h12.87l-.112 43.406h8.307v7.084h-8.325zm-29.43-26.071h22.413l.094-36.322h-1.665z"/><path d="m327.143 241.953-11.084-.028.049-18.964h-36.076l31.267-54.491h16.034l-.112 43.406h8.302v11.084h-8.33zm-7.075-4.018 3.084.008.049-18.982h8.32v-3.084h-8.312l.112-43.406h-9.708l-26.677 46.491h33.18zm.057-22.058h-27.861l23.138-40.322h4.827zm-20.955-4h16.965l.077-29.697z"/></g></g><g><g fill="#220f7c"><path d="m284.91 241.463-39.979-.122.026-7.085.973-1.021c.065-.068 6.925-7.373 22.667-29.866 3.262-4.66 5.363-8.885 6.248-12.562l.264-2.066c-.113-7.022-5.861-12.699-12.909-12.699-6.157 0-11.485 4.376-12.669 10.405l-.683 3.476-6.951-1.365.683-3.476c1.835-9.343 10.086-16.124 19.62-16.124 11.025 0 19.996 8.97 19.996 19.995v.226l-.41 3.061c-1.067 4.603-3.551 9.714-7.385 15.191-10.03 14.331-16.497 22.586-20.025 26.854l30.555.094z"/><path d="m286.904 243.469-43.979-.134.035-9.882 1.522-1.597c.062-.067 6.923-7.41 22.477-29.633 3.084-4.407 5.075-8.369 5.917-11.779l.23-1.807c-.168-5.854-5.032-10.594-10.906-10.594-5.203 0-9.706 3.697-10.706 8.79l-1.068 5.438-10.876-2.136 1.067-5.438c2.018-10.279 11.096-17.739 21.583-17.739 12.128 0 21.995 9.867 21.995 21.996l-.018.491-.443 3.248c-1.124 4.852-3.713 10.196-7.694 15.886-7.901 11.29-13.617 18.851-17.483 23.72l28.381.087zm-39.965-4.122 35.977.11.01-3.084-32.785-.101 2.694-3.261c3.642-4.407 10.056-12.622 19.928-26.727 3.661-5.231 6.034-10.077 7.054-14.404l.379-2.926c0-9.923-8.072-17.996-17.995-17.996-8.58 0-16.007 6.102-17.657 14.509l-.298 1.513 3.026.594.297-1.513c1.369-6.965 7.522-12.02 14.632-12.02 8.091 0 14.778 6.58 14.909 14.667l.002.143-.321 2.424c-.945 3.922-3.15 8.377-6.554 13.24-15.993 22.85-22.795 30.032-22.861 30.102l-.421.441z"/></g></g></g><g><path d="m418.36 453.93c-8.63 7.1-17.74 13.63-27.26 19.56-34.78 21.65-75.14 35.19-118.43 37.97-22.96-4.86-44.81-16.2-62.65-34.04l-152.59-152.59c-46.62-46.62-48.93-120.79-6.92-170.15 2.18-2.57 4.49-5.07 6.92-7.5 1.35-1.35 2.79-2.58 4.28-3.69l23.1-23.11 72.76 72.76 27.09 27.09-27.09 27.09-8.7 8.7c-7.89 7.89-7.89 20.66 0 28.54l101.42 101.43c7.88 7.88 20.66 7.88 28.54 0l8.7-8.71 27.09-27.09 27.09 27.09 45.96 45.96z" fill="#3b2e8e"/><path d="m368.573 404.142-53.95-53.95-35.794 35.794c-7.882 7.882-20.661 7.882-28.543 0l-101.421-101.421c-7.882-7.882-7.882-20.661 0-28.543l8.704-8.704v.003l27.09-27.09-27.073-27.073c-.006-.006-.012-.012-.018-.019l-20.255-20.255-39.436 39.436c-23.732 23.733-23.732 62.211 0 85.943l145.316 145.316c23.733 23.733 62.211 23.732 85.943 0z" fill="#220f7c"/></g></g></svg>