<svg id="Layer_2" viewBox="0 0 512 512" xmlns="http://www.w3.org/2000/svg" data-name="Layer 2"><g id="Phone_Call" data-name="Phone Call"><path d="m161.06 171.28c-7.74 19.17-6 44.93-6 44.93 32.44 110.06 104.72 126.44 144.3 139.17 18.93 6.09 36.07-.15 48.79-8.32a37.4 37.4 0 0 1 47.23 5.69l55 57.49a37.54 37.54 0 0 1 2.46 49.12c-18.24 23.26-56.74 50.85-136.07 47.19-134.53-6.21-286.65-194.75-312.18-290.39-15.27-57.16 10.53-109.96 33.73-143.16a37.59 37.59 0 0 1 58.81-3.75l56.87 63.34a37.14 37.14 0 0 1 7.06 38.69z" fill="#5ca7e5"/><path d="m30.1 151.74a283.67 283.67 0 0 1 -3.73-60c-18.9 32.72-34.37 77.04-21.78 124.42 25.53 95.64 177.65 284.18 312.21 290.39 79.33 3.66 117.83-23.93 136.07-47.19a37.54 37.54 0 0 0 -2.46-49.12l-28.26-29.53a321 321 0 0 1 -41.79 10c-166.36 28.14-323.18-78.85-350.26-238.97z" fill="#3187ce"/><circle cx="352.28" cy="164.85" fill="#3c9e4a" r="159.72" transform="matrix(.707 -.707 .707 .707 -13.39 297.38)"/><circle cx="352.28" cy="164.85" fill="#99e875" r="134.31"/><rect fill="#eef9ff" height="180.29" rx="20.01" transform="matrix(.707 .707 -.707 .707 235.78 -216.58)" width="41.44" x="358.6" y="86.18"/><rect fill="#eef9ff" height="125.54" rx="20.01" transform="matrix(-.707 .707 -.707 -.707 649.77 122.22)" width="41.44" x="278.85" y="132.91"/><path d="m340.06 232.36a21.2 21.2 0 0 1 -15.56-6.22l-64.42-64.42a21.11 21.11 0 0 1 -5.55-9.74 20 20 0 0 0 .15 28.13l60.48 60.48a21.21 21.21 0 0 0 29.21 0l99.19-99.19a19.81 19.81 0 0 0 4.92-8.12l-92.86 92.86a21.23 21.23 0 0 1 -15.56 6.22z" fill="#c4eaf5"/></g></svg>