<svg fill="none" height="24" viewBox="0 0 24 24" width="24" xmlns="http://www.w3.org/2000/svg"><g clip-rule="evenodd" fill-rule="evenodd"><path d="m11.7771 14.5195c-.199 0-.39-.079-.531-.22l-1.89197-1.894c-.292-.293-.292-.769.001-1.061.292-.293.76797-.293 1.06097 0l1.361 1.363 3.368-3.368c.293-.293.767-.293 1.06 0s.293.768 0 1.061l-3.898 3.899c-.14.141-.331.22-.53.22" fill="#4ded30"/><path d="m12.4837 3.5c-.848 0-6.19804 1.884-6.81504 2.399-.182.183-.189.501-.15 2.63.018 1.026.043 2.42.043 4.35 0 5.201 5.72204 7.51 6.92104 7.935 1.198-.427 6.923-2.749 6.923-7.935 0-1.932.025-3.327.044-4.353.038-2.127.031-2.445-.162-2.637-.605-.505-5.956-2.389-6.804-2.389zm0 18.856c-.073 0-.146-.01-.217-.032-.335-.101-8.20504-2.563-8.20504-9.445 0-1.917-.025-3.304-.043-4.322-.046-2.543-.056-3.073.601-3.729.785-.787 6.73004-2.828 7.86404-2.828 1.133 0 7.078 2.041 7.865 2.828.656.656.646 1.186.6 3.726-.018 1.018-.043 2.405-.043 4.325 0 6.882-7.87 9.344-8.205 9.445-.071.022-.144.032-.217.032z" fill="#00ab08"/></g></svg>