<?xml version="1.0" encoding="iso-8859-1"?>
<!-- Generator: Adobe Illustrator 19.0.0, SVG Export Plug-In . SVG Version: 6.00 Build 0)  -->
<svg version="1.1" id="Capa_1" xmlns="http://www.w3.org/2000/svg" xmlns:xlink="http://www.w3.org/1999/xlink" x="0px" y="0px"
	 viewBox="0 0 504.119 504.119" style="enable-background:new 0 0 504.119 504.119;" xml:space="preserve">
<path style="fill:#1CC464;" d="M410.124,36.32L359.633,7.396c-2.209-1.607-4.577-2.97-7.085-4.064l-0.752-0.425l-0.032,0.063
	c-13.584-5.522-31.13-3.525-50.271,7.522l-155.518,89.777c-42.752,24.69-77.745,85.287-77.745,134.668v179.558
	c0,24.08,8.369,41.157,21.847,49.538l-0.13,0.232l56.115,31.791l31.555-54.938l123.876-71.511
	c42.76-24.69,77.745-85.287,77.745-134.668V90.092L410.124,36.32z"/>
<path style="fill:#15A054;" d="M410.124,36.32l-54.04-12.674c-2.213-1.611-13.253-1.571-15.77-2.666l-4.005-1.607l-7.215-1.339
	c-13.576-5.522-8.46-18.593-27.601-7.546l-155.518,89.781c-42.752,24.69-77.745,85.287-77.745,134.668v179.558
	c0,24.08,8.369,41.157,21.847,49.538l-0.13,0.232l56.115,31.791l31.555-54.938l123.876-71.511
	c42.76-24.69,77.745-85.287,77.745-134.668V90.092L410.124,36.32z"/>
<path style="fill:#07875C;" d="M71.192,209.065c-1.887,8.791-2.962,17.499-2.962,25.872v179.558c0,24.08,8.369,41.157,21.847,49.538
	l-0.13,0.232l56.115,31.791l31.555-54.938l123.876-71.511c7.263-4.194,14.285-9.496,20.961-15.537L71.192,209.065z"/>
<path style="fill:#25D625;" d="M199.424,131.261c-42.76,24.69-77.745,85.287-77.745,134.668v179.558
	c0,49.38,34.985,69.577,77.745,44.891l155.514-89.781c42.752-24.69,77.745-85.287,77.745-134.668V86.374
	c0-49.38-34.993-69.577-77.745-44.891L199.424,131.261z"/>
<g>
	<path style="fill:#1BBF1B;" d="M432.683,86.374c0-49.38-34.993-69.577-77.745-44.891l-155.514,89.777
		c-42.76,24.69-77.745,85.287-77.745,134.668v179.558c0,49.38,34.985,69.577,77.745,44.891"/>
	<path style="opacity:0.5;fill:#1BBF1B;enable-background:new    ;" d="M208.156,485.337l146.786-84.74
		c3.761-2.174,7.432-4.71,11.055-7.408v-83.834l-157.842,85.473V485.337z"/>
</g>
<path style="fill:#2AE82A;" d="M164.884,504.119h-0.008c-28.192,0-46.407-23.016-46.407-58.632V265.929
	c0-50.527,35.592-112.187,79.352-137.44l155.506-89.781c12.607-7.278,24.769-10.965,36.147-10.965
	c28.191,0,46.415,23.016,46.415,58.632v179.558c0,50.527-35.6,112.187-79.352,137.44l-155.506,89.781
	C188.424,500.429,176.262,504.119,164.884,504.119z M389.478,34.158c-10.24,0-21.323,3.399-32.937,10.098l-155.51,89.777
	c-41.984,24.245-76.146,83.413-76.146,131.895v179.558c0,32.209,15.325,52.22,39.991,52.22h0.008
	c10.24,0,21.323-3.403,32.937-10.102l155.506-89.777c41.984-24.241,76.146-83.413,76.146-131.895V86.374
	C429.477,54.166,414.153,34.158,389.478,34.158z"/>
<polygon style="fill:#AD6F0B;" points="208.156,353.926 208.156,427.232 286.807,381.105 "/>
<path style="fill:#9AB7AA;" d="M374.532,150.894L234.268,393.842l-20.46-11.811c-0.146-0.083-0.299-0.173,3.875,2.241l-2.146-1.245
	l-4.23-2.67c-16.632-10.921-26.908-32.437-26.892-62.594c-0.016-63.078,44.654-140.457,99.308-171.997
	c26.1-15.076,49.861-16.928,67.639-7.991l4.439,2.308L374.532,150.894z"/>
<path style="fill:#B6D3C5;" d="M184.414,317.767c-0.016-63.082,44.654-140.461,99.308-172c26.1-15.076,49.861-16.928,67.639-7.991
	l4.439,2.308l18.731,10.815L254.747,358.376L184.414,317.767z"/>
<path style="fill:#EDF7F1;" d="M207.825,331.295c0.008-63.09,44.682-140.477,99.304-172.008
	c54.646-31.559,99.324-5.766,99.308,57.336c0.008,63.074-44.67,140.457-99.308,172.004
	C252.507,420.163,207.833,394.366,207.825,331.295z"/>
<g>
	<path style="fill:#F8FFFB;" d="M406.437,216.623c0.008,63.074-44.67,140.457-99.308,172.004
		c-54.623,31.535-99.3,5.738-99.308-57.332"/>
	<polygon style="fill:#F8FFFB;" points="224.563,363.41 224.563,436.72 303.214,390.589 	"/>
</g>
<polygon style="fill:#9AB7AA;" points="208.156,378.096 208.156,427.232 224.563,436.72 224.563,385.15 "/>
<g>
	<path style="fill:#1BBF1B;" d="M253.692,310.938c0-5.372,3.801-11.949,8.452-14.643c4.647-2.678,8.448-0.484,8.448,4.876
		c0,5.372-3.801,11.953-8.448,14.647C257.493,318.503,253.692,316.306,253.692,310.938z"/>
	<path style="fill:#1BBF1B;" d="M301.391,284.006c0-5.372,3.801-11.953,8.448-14.643c4.655-2.686,8.452-0.488,8.452,4.884
		c0,5.368-3.801,11.945-8.452,14.639C305.191,291.572,301.391,289.374,301.391,284.006z"/>
	<path style="fill:#1BBF1B;" d="M349.093,257.079c0-5.376,3.801-11.957,8.448-14.647c4.655-2.686,8.452-0.488,8.452,4.876
		c0,5.368-3.801,11.953-8.452,14.643C352.894,264.637,349.093,262.443,349.093,257.079z"/>
</g>
<g>
</g>
<g>
</g>
<g>
</g>
<g>
</g>
<g>
</g>
<g>
</g>
<g>
</g>
<g>
</g>
<g>
</g>
<g>
</g>
<g>
</g>
<g>
</g>
<g>
</g>
<g>
</g>
<g>
</g>
</svg>
