<svg id="Layer_1" enable-background="new 0 0 512 512" viewBox="0 0 512 512" xmlns="http://www.w3.org/2000/svg" xmlns:xlink="http://www.w3.org/1999/xlink"><linearGradient id="SVGID_1_" gradientUnits="userSpaceOnUse" x1="145.046" x2="366.954" y1="448.178" y2="63.822"><stop offset="0" stop-color="#57ffd9"/><stop offset="1" stop-color="#2a6eff"/></linearGradient><path d="m473.909 200.47c2.476-1.429 4-4.069 4-6.928v-61.042c0-2.858-1.524-5.499-4-6.928l-52.864-30.521c-2.475-1.43-5.525-1.43-8 0l-48.864 28.212-47.317-27.319v-56.423c0-2.858-1.524-5.499-4-6.928l-52.864-30.521c-2.475-1.43-5.525-1.43-8 0l-52.864 30.521c-2.476 1.429-4 4.069-4 6.928v56.424l-47.317 27.319-48.863-28.213c-2.475-1.43-5.525-1.43-8 0l-52.864 30.521c-2.476 1.429-4 4.069-4 6.928v61.042c0 2.858 1.524 5.499 4 6.928l48.864 28.212v54.636l-48.864 28.211c-2.476 1.429-4 4.069-4 6.928v61.042c0 2.858 1.524 5.499 4 6.928l52.864 30.521c1.237.715 2.619 1.072 4 1.072s2.763-.357 4-1.072l48.864-28.212 47.316 27.318v56.424c0 2.858 1.524 5.499 4 6.928l52.864 30.522c1.237.715 2.619 1.072 4 1.072s2.763-.357 4-1.072l52.863-30.521c2.476-1.429 4-4.069 4-6.928v-56.424l47.316-27.318 48.864 28.212c1.237.715 2.619 1.072 4 1.072s2.763-.357 4-1.072l52.864-30.521c2.476-1.429 4-4.069 4-6.928v-61.042c0-2.858-1.524-5.499-4-6.928l-48.864-28.211v-54.636zm-48.865 9.737v-42.568l36.864-21.283v42.567zm-8 129.534-36.864-21.284 36.864-21.284 36.864 21.284zm-108.181 62.458-44.863-25.902v-20.943c51.234-4.088 91.676-47.086 91.676-99.354 0-15.289-3.464-29.783-9.642-42.744l18.146-10.477 44.864 25.902v54.636l-48.864 28.211c-2.476 1.429-4 4.069-4 6.928v56.424zm-52.863 30.521-36.864-21.283 36.864-21.285 36.863 21.284zm-100.18-57.839v-56.424c0-2.858-1.524-5.499-4-6.928l-48.864-28.211v-54.636l44.864-25.903 18.146 10.477c-6.178 12.961-9.643 27.455-9.643 42.744 0 52.268 40.441 95.266 91.677 99.354v20.943l-44.864 25.902zm-60.864-35.14-36.864-21.284 36.864-21.284 36.864 21.284zm108.18-229.941 48.864 28.212c1.237.715 2.619 1.072 4 1.072s2.763-.357 4-1.072l48.863-28.212 47.316 27.318v51.806l-18.17 10.491c-18.004-26.014-48.048-43.092-82.009-43.092-33.962 0-64.005 17.077-82.01 43.091l-18.17-10.491v-51.805zm44.864-35.14v42.568l-36.864-21.284v-42.568zm16 0 36.863-21.283v42.567l-36.863 21.284zm145.044 92.98v42.568l-36.864-21.284v-42.567zm-153.044 172.036c-46.14 0-83.677-37.537-83.677-83.676 0-46.14 37.537-83.677 83.677-83.677 46.139 0 83.676 37.537 83.676 83.677 0 46.139-37.537 83.676-83.676 83.676zm-153.044-129.469v-42.567l36.864-21.284v42.567zm314.088-98.991 36.864 21.284-36.864 21.283-36.863-21.283zm-161.044-92.979 36.864 21.284-36.864 21.284-36.864-21.284zm-161.044 92.979 36.864 21.284-36.864 21.283-36.865-21.283zm-44.865 77.707v-42.567l36.864 21.283v42.568zm0 143.39 36.864 21.284v42.568l-36.864-21.285zm52.865 63.851v-42.568l36.864-21.284v42.567zm108.18 29.128 36.864 21.283v42.568l-36.864-21.284zm89.728 42.567-36.864 21.285v-42.568l36.863-21.283v42.566zm71.316-135.546 36.864 21.284v42.568l-36.864-21.285zm52.864 63.851v-42.568l36.864-21.284v42.567zm-229.899-152.758c-3.125 3.125-8.189 3.123-11.314 0-3.124-3.125-3.124-8.19 0-11.314 39.795-39.793 104.545-39.793 144.34 0 3.124 3.124 3.124 8.189 0 11.314-1.562 1.562-3.609 2.343-5.657 2.343-2.047 0-4.095-.781-5.657-2.343-33.556-33.556-88.157-33.556-121.712 0zm115.288 6.423c3.124 3.125 3.124 8.189 0 11.314-1.562 1.562-3.609 2.343-5.657 2.343-2.047 0-4.095-.781-5.657-2.343-23.777-23.778-62.464-23.776-86.237 0-3.125 3.123-8.189 3.123-11.314 0-3.124-3.125-3.124-8.189 0-11.314 14.54-14.539 33.871-22.547 54.434-22.547 20.56 0 39.891 8.008 54.431 22.547zm-17.736 17.736c3.124 3.125 3.124 8.189 0 11.314-3.125 3.123-8.189 3.123-11.314 0-6.779-6.78-15.794-10.515-25.382-10.515-9.589 0-18.603 3.734-25.382 10.514-1.562 1.562-3.61 2.344-5.657 2.344-2.048 0-4.095-.781-5.656-2.343-3.125-3.124-3.125-8.189-.001-11.313 9.802-9.803 22.834-15.2 36.696-15.2 13.861 0 26.893 5.398 36.696 15.199zm-36.697 9.884c-11.678 0-21.179 9.5-21.179 21.178s9.501 21.179 21.179 21.179 21.178-9.501 21.178-21.179-9.5-21.178-21.178-21.178zm0 26.357c-2.855 0-5.179-2.323-5.179-5.179s2.323-5.178 5.179-5.178 5.178 2.322 5.178 5.178-2.322 5.179-5.178 5.179z" fill="url(#SVGID_1_)"/></svg>