<svg height="512" viewBox="0 0 60 60" width="512" xmlns="http://www.w3.org/2000/svg"><g id="Page-1" fill="none" fill-rule="evenodd"><g id="009---Camera-" fill-rule="nonzero"><path id="Shape" d="m35 54c0 2.7614237-2.2385763 5-5 5h-24c-1.32608245 0-2.59785201-.5267842-3.53553391-1.4644661-.93768189-.9376819-1.46446609-2.2094515-1.46446609-3.5355339v-48c0-2.76142375 2.23857625-5 5-5h24c1.3260824 0 2.597852.5267842 3.5355339 1.46446609.9376819.9376819 1.4644661 2.20945146 1.4644661 3.53553391z" fill="#00bcd4"/><path id="Shape" d="m30 1h-3c1.3260824 0 2.597852.5267842 3.5355339 1.46446609.9376819.9376819 1.4644661 2.20945146 1.4644661 3.53553391v48c0 2.7614237-2.2385763 5-5 5h3c2.7614237 0 5-2.2385763 5-5v-48c0-1.32608245-.5267842-2.59785201-1.4644661-3.53553391-.9376819-.93768189-2.2094515-1.46446609-3.5355339-1.46446609z" fill="#00838f"/><path id="Shape" d="m29 1-2.447 4.894c-.3386882.67778095-1.0313083 1.10597427-1.789 1.106h-13.528c-.7576917-.00002573-1.45031181-.42821905-1.789-1.106l-2.447-4.894z" fill="#607d8b"/><path id="Shape" d="m21 24-11.474 6.12c-.3234232.1745653-.52502632.5124736-.52502632.88s.20160312.7054347.52502632.88l11.474 6.12v7c0 2.7614237 2.2385763 5 5 5h28c2.7614237 0 5-2.2385763 5-5v-28c0-2.7614237-2.2385763-5-5-5h-28c-2.7614237 0-5 2.2385763-5 5z" fill="#f5f5f5"/><path id="Shape" d="m54 12h-3c2.7614237 0 5 2.2385763 5 5v28c0 2.7614237-2.2385763 5-5 5h3c2.7614237 0 5-2.2385763 5-5v-28c0-1.3260824-.5267842-2.597852-1.4644661-3.5355339s-2.2094515-1.4644661-3.5355339-1.4644661z" fill="#cfd8dc"/><path id="Shape" d="m53 28v11c0 2.209139-1.790861 4-4 4h-18c-2.209139 0-4-1.790861-4-4v-11c-.0008371-1.9397533 1.3901799-3.6005433 3.3-3.94.4802131-.0810318.9141697-.3350031 1.22-.714l2.877-3.6c.3813814-.4722318.9559956-.7464878 1.563-.746h8.08c.6066233.0013943 1.1800676.2770886 1.56.75l2.877 3.6c.3057016.378154.7387017.6319816 1.218.714 1.9120557.3340365 3.3067302 1.9949863 3.305 3.936z" fill="#9e9e9e"/><path id="Shape" d="m51.83 25.17c-.5813699-.5767572-1.3241087-.9634696-2.13-1.109-.4792983-.0820184-.9122984-.335846-1.218-.714l-2.882-3.597c-.3799324-.4729114-.9533767-.7486057-1.56-.75h-3c.6066233.0013943 1.1800676.2770886 1.56.75l2.877 3.6c.3057016.378154.7387017.6319816 1.218.714 1.9120557.3340365 3.3067302 1.9949863 3.305 3.936v11c0 2.209139-1.790861 4-4 4h3c2.209139 0 4-1.790861 4-4v-11c-.0018942-1.0606427-.4223608-2.0776689-1.17-2.83z" fill="#707070"/><circle id="Oval" cx="40" cy="33" fill="#02a9f4" r="6"/><path id="Shape" d="m40 27c-.5064496.0029108-1.0104803.0701149-1.5.2 2.6479943.6813094 4.498931 3.0687622 4.498931 5.803s-1.8509367 5.1216906-4.498931 5.803c2.2531797.5872914 4.6426897-.1820582 6.1299399-1.9736543 1.4872502-1.7915962 1.8036517-4.2818866.8116819-6.3884777s-3.1131667-3.4490442-5.4416218-3.443868z" fill="#0377bc"/><g fill="#000"><path id="Shape" d="m6 60h24c3.3123376-.0033074 5.9966926-2.6876624 6-6 0-.5522847-.4477153-1-1-1s-1 .4477153-1 1c0 2.209139-1.790861 4-4 4h-24c-2.209139 0-4-1.790861-4-4v-48c0-2.209139 1.790861-4 4-4h.382l2.171 4.342c.50515289 1.01893035 1.5457301 1.66197063 2.683 1.658h13.528c1.1372699.00397063 2.1778471-.63906965 2.683-1.658l2.171-4.342h.382c2.209139 0 4 1.790861 4 4v2c0 .55228475.4477153 1 1 1s1-.44771525 1-1v-2c-.0033074-3.31233757-2.6876624-5.99669262-6-6h-24c-3.31233757.00330738-5.99669262 2.68766243-6 6v48c.00330738 3.3123376 2.68766243 5.9966926 6 6zm19.658-54.553c-.1692635.33872941-.5153343.55279778-.894.553h-13.528c-.3786657-.00020222-.7247365-.21427059-.894-.553l-1.724-3.447h18.764z"/><path id="Shape" d="m26 56c.5522847 0 1-.4477153 1-1s-.4477153-1-1-1h-16c-.55228475 0-1 .4477153-1 1s.44771525 1 1 1z"/><path id="Shape" d="m54 11h-28c-3.3123376.0033074-5.9966926 2.6876624-6 6v6.4l-10.947 5.839c-.64891476.3484814-1.05376747 1.0254339-1.05376747 1.762s.40485271 1.4135186 1.05376747 1.762l10.947 5.837v6.4c.0033074 3.3123376 2.6876624 5.9966926 6 6h28c3.3123376-.0033074 5.9966926-2.6876624 6-6v-28c-.0033074-3.3123376-2.6876624-5.9966926-6-6zm4 34c0 2.209139-1.790861 4-4 4h-28c-2.209139 0-4-1.790861-4-4v-7c-.0000492-.3690966-.2034076-.7081555-.529-.882l-11.471-6.118 11.474-6.12c.3237997-.1743063.525807-.5122652.526-.88v-7c0-2.209139 1.790861-4 4-4h28c2.209139 0 4 1.790861 4 4z"/><path id="Shape" d="m49.87 23.076c-.2401607-.0391526-.4575858-.165124-.611-.354l-2.881-3.6c-.5690823-.7089195-1.4289228-1.1215547-2.338-1.122h-8.08c-.9106338.0002654-1.7718539.4141367-2.341 1.125l-2.877 3.6c-.1536767.1887479-.3709172.3149679-.611.355-2.3906226.4165208-4.1344125 2.4933656-4.131 4.92v11c.0033061 2.7600532 2.2399468 4.9966939 5 5h18c2.7600532-.0033061 4.9966939-2.2399468 5-5v-11c.0025787-2.426786-1.7398071-4.5041487-4.13-4.924zm2.13 15.924c0 1.6568542-1.3431458 3-3 3h-18c-1.6568542 0-3-1.3431458-3-3v-11c-.0032315-1.4568033 1.0429207-2.7043335 2.478-2.955.7195259-.1240652 1.3691089-.5062774 1.827-1.075l2.874-3.592c.1892648-.2382611.4767153-.3773857.781-.378h8.08c.3027261.0007954.5887965.1386828.778.375l2.878 3.6c.4573956.568307 1.106197.9504777 1.825 1.075 1.4340484.2491575 2.4805318 1.4944685 2.479 2.95z"/><path id="Shape" d="m40 26c-3.8659932 0-7 3.1340068-7 7s3.1340068 7 7 7 7-3.1340068 7-7c-.0044086-3.8641657-3.1358343-6.9955914-7-7zm0 12c-2.7614237 0-5-2.2385763-5-5s2.2385763-5 5-5 5 2.2385763 5 5c-.0033061 2.7600532-2.2399468 4.9966939-5 5z"/><circle id="Oval" cx="49" cy="28" r="1"/><path id="Shape" d="m38 24h4c.5522847 0 1-.4477153 1-1s-.4477153-1-1-1h-4c-.5522847 0-1 .4477153-1 1s.4477153 1 1 1z"/></g></g></g></svg>