<svg enable-background="new 0 0 256 256" viewBox="0 0 256 256" xmlns="http://www.w3.org/2000/svg"><g id="_x34_3_Web_Browser"><path d="m252.983 53v150c0 27.614-22.386 50-50 50h-149.966c-27.614 0-50-22.386-50-50v-150c0-27.614 22.386-50 50-50h149.965c27.615 0 50.001 22.386 50.001 50z" fill="#379d30"/><g fill="#fff"><path d="m81.275 76.636h-18.425c-1.4 0-2.5 1.125-2.5 2.5v18.425c0 1.375 1.1 2.5 2.5 2.5h18.425c1.375 0 2.5-1.125 2.5-2.5v-18.425c0-1.375-1.125-2.5-2.5-2.5zm-2.5 18.425h-13.425v-13.425h13.425z"/><path d="m98.139 91.576h64.36c1.381 0 2.5-1.118 2.5-2.5s-1.119-2.5-2.5-2.5h-64.36c-1.381 0-2.5 1.118-2.5 2.5s1.119 2.5 2.5 2.5z"/><path d="m81.275 109.561h-18.425c-1.4 0-2.5 1.1-2.5 2.5v18.425c0 1.375 1.1 2.5 2.5 2.5h18.425c1.375 0 2.5-1.125 2.5-2.5v-18.425c0-1.4-1.125-2.5-2.5-2.5zm-2.5 18.425h-13.425v-13.425h13.425z"/><path d="m164.999 121.991c0-1.382-1.119-2.5-2.5-2.5h-64.36c-1.381 0-2.5 1.118-2.5 2.5s1.119 2.5 2.5 2.5h64.36c1.381 0 2.5-1.118 2.5-2.5z"/><path d="m225.55 140.861c-11.375 1.5-19.9-1.2-25.9-4.75 0-.4 0-.525 0-.525 0-2.875 0-19.15-.025-95.675 0-7.425-6.025-13.45-13.425-13.45h-145.15c-7.4 0-13.425 6.025-13.425 13.45v137.675l-.025 2c0 8.925 7.275 16.175 16.2 16.175h105.425c6.75 15.25 19.125 27.325 34.875 33.225 1.875.625 1.575.85 3.875-.025 24.175-9.075 40.425-33.075 40.425-59.75v-25.875c0-1.5-1.35-2.675-2.85-2.475zm-41.525-75.2h10.625v66.85c-4.2-3.575-6.275-6.975-6.475-7.3-.45-.775-1.275-1.225-2.15-1.25-.8 0-1.55.4-2 1.05zm-40.15 109.45h-95.65v-109.45h130.8v65.3c-8.175 7.85-19.375 11.65-32.6 9.9-1.5-.2-2.825.975-2.825 2.475.1 25.15-.175 26.9.275 31.775zm-48.4-136.75c4.275 0 7.725 3.45 7.725 7.7s-3.45 7.725-7.725 7.725c-4.25 0-7.725-3.475-7.725-7.725s3.475-7.7 7.725-7.7zm-23.425 0c4.275 0 7.725 3.45 7.725 7.7s-3.45 7.725-7.725 7.725c-4.25 0-7.725-3.475-7.725-7.725s3.475-7.7 7.725-7.7zm-23.425 0c4.25 0 7.725 3.45 7.725 7.7s-3.475 7.725-7.725 7.725-7.725-3.475-7.725-7.725 3.475-7.7 7.725-7.7zm-4.825 152.4c-6.175 0-11.2-5.025-11.2-11.15l.025-113.95h10.6v111.95c0 1.4 1.125 2.5 2.5 2.5h98.825c.625 3.675 1.5 7.225 2.675 10.65zm179.6-21.55c0 24.6-14.95 46.725-37.075 55.05-.425.125-.25.125-.55.025-22.975-8.625-37.175-31.05-37.175-55.075v-23.1c15.65 1.225 29-4.95 37.4-15.35 4.525 5.675 16.35 17.1 37.4 15.35z"/><path d="m51.35 46.061c0 1.5-1.225 2.725-2.725 2.725s-2.725-1.225-2.725-2.725 1.225-2.7 2.725-2.7 2.725 1.2 2.725 2.7z"/><path d="m74.775 46.061c0 1.5-1.225 2.725-2.725 2.725s-2.725-1.225-2.725-2.725 1.225-2.7 2.725-2.7 2.725 1.2 2.725 2.7z"/><path d="m98.2 46.061c0 1.5-1.225 2.725-2.725 2.725s-2.725-1.225-2.725-2.725 1.225-2.7 2.725-2.7 2.725 1.2 2.725 2.7z"/><path d="m214.375 153.711c-9.55-1.475-18.35-5.1-26.175-10.775-.875-.625-2.05-.625-2.925 0-7.8 5.675-16.6 9.3-26.175 10.775-1.2.2-2.1 1.25-2.1 2.475v11.8c0 20.275 11.225 39.15 28.6 48.05.725.375 1.55.375 2.275 0 17.375-8.9 28.6-27.775 28.6-48.05v-11.8c0-1.225-.9-2.275-2.1-2.475zm-15.125 20.725-15.95 13.7c-1.075.925-2.7.775-3.575-.3l-5.825-7.1c-.875-1.05-.7-2.625.35-3.525 1.075-.875 2.65-.7 3.525.35l4.2 5.125 14.025-12.025c1.05-.925 2.625-.8 3.525.25s.775 2.625-.275 3.525z"/></g></g><g id="Layer_1"/></svg>