<svg id="Layer_2" height="512" viewBox="0 0 32 32" width="512" xmlns="http://www.w3.org/2000/svg"><path d="m29.788 23.906-1.318-4.087c-.206-.481-.532-.881-.928-1.187.307-.47.489-1.029.489-1.632v-10c0-1.654-1.346-3-3-3h-18.062c-1.654 0-3 1.346-3 3v10c0 .606.183 1.168.493 1.64-.405.319-.743.743-.965 1.267l-1.252 3.912c-.399.929-.304 1.988.252 2.833.557.845 1.493 1.349 2.504 1.349h21.997c1.012 0 1.948-.504 2.504-1.349.557-.844.651-1.903.286-2.745zm-23.819-16.906c0-.551.449-1 1-1h18.062c.551 0 1 .449 1 1v10c0 .551-.449 1-1 1h-18.062c-.551 0-1-.449-1-1zm21.864 18.55c-.188.286-.492.45-.834.45h-21.997c-.342 0-.646-.164-.834-.45s-.219-.629-.051-1.032l1.253-3.913c.157-.368.518-.606.919-.606h19.423c.401 0 .762.238.886.519l1.319 4.088c.135.314.104.658-.084.944z" fill="#06474d"/><path d="m19 25h-6c-.552 0-1-.448-1-1s.448-1 1-1h6c.552 0 1 .448 1 1s-.448 1-1 1z" fill="#3cacb6"/></svg>