<svg id="Layer_1" enable-background="new 0 0 100 100" viewBox="0 0 100 100" xmlns="http://www.w3.org/2000/svg" xmlns:xlink="http://www.w3.org/1999/xlink"><linearGradient id="SVGID_1_" gradientUnits="userSpaceOnUse" x1="3.303" x2="94.905" y1="3.267" y2="95.201"><stop offset=".1843576" stop-color="#29abe2"/><stop offset=".8211977" stop-color="#6200d2"/></linearGradient><path d="m10.5193148 87.4571686c3.3723259-4.0005341 6.9289217-7.5051727 10.5194979-10.6144485 1.6598663-1.4373703 4.12607-1.4714432 5.8265247-.0823288 9.3217049 7.6149521 21.4800835 11.817627 32.0089531 8.2123337 19.3706131-6.5485992 33.3389435-44.8015289 38.5074234-68.1200714.9059601-4.1167164-3.5762253-7.3616238-7.1580353-5.3224745-30.5974274 17.6828069-67.2459622 6.8411664-76.6677532 31.790698-1.2949457 3.4384193-1.5421762 7.0761833-.9895048 10.7068939.497613 3.2690086 3.9904203 5.1362343 6.951684 3.6648521 11.548027-5.7379341 22.1201782-8.4668541 29.2455826-9.7619209 1.1806564-.2145882 1.6612663 1.451252.5480423 1.8992805-11.0773736 4.4581833-30.6594086 14.1889077-45.7026265 31.7514992-1.6992787 1.9838638-1.4176204 4.9801407.6504743 6.5758438l.0000072.0000076c1.9338178 1.4920884 4.685461 1.1673661 6.2597303-.7001647z" fill="url(#SVGID_1_)"/></svg>