<svg id="Layer_1" viewBox="0 0 64 64" xmlns="http://www.w3.org/2000/svg" data-name="Layer 1"><path d="m51.66 8h-39.32a4.34 4.34 0 0 0 -4.34 4.34v39.32a4.34 4.34 0 0 0 4.34 4.34h39.32a4.34 4.34 0 0 0 4.34-4.34v-39.32a4.34 4.34 0 0 0 -4.34-4.34zm-.66 41.55" fill="#4fbe9f"/><path d="m50.55 29.8-2.21-2.21-6.93-2.33h-11.47l-8.11-8.11-6.83 4.48v9.43l.65 19.49a18.63 18.63 0 0 0 13.12 5.45h22.89a4.34 4.34 0 0 0 4.34-4.34v-8.66a18.6 18.6 0 0 0 -5.45-13.2z" fill="#09816c"/><g fill="#dcdfe2"><rect height="25.07" rx="1.26" width="7.91" x="14.95" y="25.64"/><path d="m18.9 23.51a5.11 5.11 0 1 1 5.1-5.11 5.12 5.12 0 0 1 -5.11 5.11z"/><path d="m51 49.55a1.16 1.16 0 0 1 -1.16 1.16h-5.84a1.16 1.16 0 0 1 -1.16-1.16v-10.55c0-1.58.46-6.91-4.13-6.91-3.55 0-4.27 3.65-4.42 5.29v12.2a1.16 1.16 0 0 1 -1.16 1.16h-5.55a1.16 1.16 0 0 1 -1.17-1.16v-22.78a1.16 1.16 0 0 1 1.17-1.16h5.58a1.16 1.16 0 0 1 1.16 1.16v.42a.53.53 0 0 0 .93.36c1.31-1.37 3.23-2.32 6.52-2.32 9.23 0 9.23 8.63 9.23 13.38z"/></g></svg>