<svg id="Layer_1" enable-background="new 0 0 100 100" viewBox="0 0 100 100" xmlns="http://www.w3.org/2000/svg" xmlns:xlink="http://www.w3.org/1999/xlink"><linearGradient id="lg1"><stop offset="0" stop-color="#97e0ff"/><stop offset="1" stop-color="#1075ff"/></linearGradient><linearGradient id="SVGID_1_" gradientUnits="userSpaceOnUse" x1="-4.203" x2="87.814" xlink:href="#lg1" y1="-1.062" y2="99.778"/><linearGradient id="SVGID_00000097497715146996529600000017765675311208238014_" gradientUnits="userSpaceOnUse" x1="11.06" x2="103.076" xlink:href="#lg1" y1="-14.989" y2="85.851"/><path d="m35.8955269 2.7744071c4.1619492-1.2540324 8.1405525 1.9623053 8.1405525 6.1438913v1.5031853h25.1666794c3.4977417 0 6.3333359 2.8351812 6.3333359 6.3325768v15.0397739c0 1.7487907-1.417717 3.1663513-3.1666641 3.1663513s-3.1666718-1.4175606-3.1666718-3.1663513v-15.0397737h-25.1666794v66.4917984h25.1666794v-15.039772c0-1.7487869 1.4177246-3.1663513 3.1666718-3.1663513s3.1666641 1.4175644 3.1666641 3.1663513v15.039772c0 3.4974289-2.8355942 6.33255-6.3333359 6.33255h-25.1666794v1.5033722c0 4.1815872-3.9786034 7.3978195-8.1405525 6.1438217l-20.5833302-6.201929c-2.7267551-.8215866-4.5261354-3.3517609-4.5261354-6.1438141v-69.759613c0-2.792098 1.7993803-5.322299 4.5261354-6.1438913z" fill="url(#SVGID_1_)"/><path d="m49.1786842 49.7240028c-.1380196.1581116-.1380196.3950844 0 .5524368l13.1930466 15.1566658c.1152611.1319504.2987747.1793442.4640808.1186829.1641769-.0614243.2745094-.2191544.2745094-.3950882v-11.6477737h25.682373c.2316666 0 .4212418-.1884422.4212418-.4212418v-6.4555855c0-.2328033-.1895752-.4212456-.4212418-.4212456h-25.682373v-11.3672561c0-.17593-.1103325-.3313904-.2745094-.3950844-.1641731-.0610428-.3484421-.0140305-.4640808.1186829z" fill="url(#SVGID_00000097497715146996529600000017765675311208238014_)"/></svg>