<svg height="512" viewBox="0 0 60 60" width="512" xmlns="http://www.w3.org/2000/svg"><g id="Page-1" fill="none" fill-rule="evenodd"><g id="050---Shopping" fill-rule="nonzero"><path id="Shape" d="m35 54c0 2.7614237-2.2385763 5-5 5h-24c-1.32608245 0-2.59785201-.5267842-3.53553391-1.4644661-.93768189-.9376819-1.46446609-2.2094515-1.46446609-3.5355339v-48c0-2.76142375 2.23857625-5 5-5h24c1.3260824 0 2.597852.5267842 3.5355339 1.46446609.9376819.9376819 1.4644661 2.20945146 1.4644661 3.53553391z" fill="#00bcd4"/><path id="Shape" d="m30 1h-3c1.3260824 0 2.597852.5267842 3.5355339 1.46446609.9376819.9376819 1.4644661 2.20945146 1.4644661 3.53553391v48c0 2.7614237-2.2385763 5-5 5h3c2.7614237 0 5-2.2385763 5-5v-48c0-1.32608245-.5267842-2.59785201-1.4644661-3.53553391-.9376819-.93768189-2.2094515-1.46446609-3.5355339-1.46446609z" fill="#00838f"/><path id="Shape" d="m29 1-2.447 4.894c-.3386882.67778095-1.0313083 1.10597427-1.789 1.106h-13.528c-.7576917-.00002573-1.45031181-.42821905-1.789-1.106l-2.447-4.894z" fill="#607d8b"/><path id="Shape" d="m21 24-11.474 6.12c-.3234232.1745653-.52502632.5124736-.52502632.88s.20160312.7054347.52502632.88l11.474 6.12v7c0 2.7614237 2.2385763 5 5 5h28c2.7614237 0 5-2.2385763 5-5v-28c0-2.7614237-2.2385763-5-5-5h-28c-2.7614237 0-5 2.2385763-5 5z" fill="#f5f5f5"/><path id="Shape" d="m54 12h-3c2.7614237 0 5 2.2385763 5 5v28c0 2.7614237-2.2385763 5-5 5h3c2.7614237 0 5-2.2385763 5-5v-28c0-1.3260824-.5267842-2.597852-1.4644661-3.5355339s-2.2094515-1.4644661-3.5355339-1.4644661z" fill="#cfd8dc"/><path id="Shape" d="m30.5 23h21.5c.3258099.0001386.6311253.1589911.8182321.4257178s.2325433.6078823.1217679.9142822l-3.27 9c-.1431502.3959474-.5189699.6598209-.94.66h-16.4z" fill="#ef314c"/><path id="Shape" d="m52 23h-3c.3258099.0001386.6311253.1589911.8182321.4257178s.2325433.6078823.1217679.9142822l-3.27 9c-.1431502.3959474-.5189699.6598209-.94.66h3c.4210301-.0001791.7968498-.2640526.94-.66l3.27-9c.1107754-.3063999.0653389-.6475555-.1217679-.9142822s-.4924222-.4255792-.8182321-.4257178z" fill="#bb193b"/><circle id="Oval" cx="35.5" cy="40.5" fill="#9e9e9e" r="2.5"/><circle id="Oval" cx="46.5" cy="40.5" fill="#9e9e9e" r="2.5"/><g fill="#000"><path id="Shape" d="m6 60h24c3.3123376-.0033074 5.9966926-2.6876624 6-6 0-.5522847-.4477153-1-1-1s-1 .4477153-1 1c0 2.209139-1.790861 4-4 4h-24c-2.209139 0-4-1.790861-4-4v-48c0-2.209139 1.790861-4 4-4h.382l2.171 4.342c.50551769 1.01859802 1.5458642 1.66149571 2.683 1.658h13.528c1.1371358.00349571 2.1774823-.63940198 2.683-1.658l2.171-4.342h.382c2.209139 0 4 1.790861 4 4v2c0 .55228475.4477153 1 1 1s1-.44771525 1-1v-2c-.0033074-3.31233757-2.6876624-5.99669262-6-6h-24c-3.31233757.00330738-5.99669262 2.68766243-6 6v48c.00330738 3.3123376 2.68766243 5.9966926 6 6zm19.658-54.553c-.1679935.33988684-.5148658.55445101-.894.553h-13.528c-.3791342.00145101-.7260065-.21311316-.894-.553l-1.724-3.447h18.764z"/><path id="Shape" d="m26 56c.5522847 0 1-.4477153 1-1s-.4477153-1-1-1h-16c-.55228475 0-1 .4477153-1 1s.44771525 1 1 1z"/><path id="Shape" d="m54 11h-28c-3.3123376.0033074-5.9966926 2.6876624-6 6v6.4l-10.947 5.838c-.64995219.3481532-1.05563196 1.0256748-1.05563196 1.763s.40567977 1.4148468 1.05563196 1.763l10.947 5.836v6.4c.0033074 3.3123376 2.6876624 5.9966926 6 6h28c3.3123376-.0033074 5.9966926-2.6876624 6-6v-28c-.0033074-3.3123376-2.6876624-5.9966926-6-6zm4 34c0 2.209139-1.790861 4-4 4h-28c-2.209139 0-4-1.790861-4-4v-7c.0003202-.3694555-.2030909-.7089865-.529-.883l-11.471-6.117 11.474-6.119c.3241156-.1744763.5261749-.5129065.526-.881v-7c0-2.209139 1.790861-4 4-4h28c2.209139 0 4 1.790861 4 4z"/><path id="Shape" d="m52 22h-20.653l-.082-.493c-.2375272-1.4485419-1.4911173-2.5106407-2.959-2.507h-1.306c-.5522847 0-1 .4477153-1 1s.4477153 1 1 1h1.306c.4884978.0001434.9053979.3531978.986.835l2.443 14.658c.1182161.7150538.4920462 1.3628601 1.052 1.823-1.097824 1.346767-1.0414322 3.2950209.1324525 4.5760336 1.1738846 1.2810128 3.1098201 1.506905 4.5471002.5305726 1.4372801-.9763323 1.940709-2.8592643 1.1824473-4.4226062h4.7c-.2274155.4674775-.3466965.9801464-.349 1.5 0 1.9329966 1.5670034 3.5 3.5 3.5s3.5-1.5670034 3.5-3.5c-.0029268-.5200078-.1228931-1.0326843-.351-1.5h.351c.5522847 0 1-.4477153 1-1s-.4477153-1-1-1h-15.306c-.4884978-.0001434-.9053979-.3531978-.986-.835l-.194-1.165h15.216c.8411794-.0004739 1.5921579-.5272379 1.879-1.318l3.27-9c.222314-.6128712.1319589-1.2956348-.2421218-1.8295807-.3740808-.533946-.9849315-.8520521-1.6368782-.8524193zm-15 18.5c0 .8284271-.6715729 1.5-1.5 1.5s-1.5-.6715729-1.5-1.5.6715729-1.5 1.5-1.5 1.5.6715729 1.5 1.5zm11 0c0 .8284271-.6715729 1.5-1.5 1.5s-1.5-.6715729-1.5-1.5.6715729-1.5 1.5-1.5 1.5.6715729 1.5 1.5zm.73-7.5h-15.55l-1.5-9h20.32z"/></g></g></g></svg>