<svg viewBox="0 0 48 48" xmlns="http://www.w3.org/2000/svg"><g id="Layer_2" data-name="Layer 2"><path d="m7.79747 7.06593a2.27941 2.27941 0 0 1 -2.27847-2.27472.7595.7595 0 0 0 -1.519 0v39.42857a2.78252 2.78252 0 0 0 2.78481 2.78022h28.35443a2.78252 2.78252 0 0 0 2.78481-2.78022v-37.15385z" fill="#00c140"/><path d="m41.21519 1h-33.30857a3.86636 3.86636 0 0 0 -3.82476 2.99449 3.79961 3.79961 0 0 0 3.71561 4.58793h29.61132a.50592.50592 0 0 1 .50633.50549v31.84616h3.30007a2.78252 2.78252 0 0 0 2.78481-2.78022v-34.37363a2.78252 2.78252 0 0 0 -2.78481-2.78022z" fill="#00a62c"/><path d="m32.86076 22.989a11.91015 11.91015 0 0 0 -11.862-11.87727l-.00142-.00006a11.87824 11.87824 0 1 0 11.86342 11.87733zm-3.73176 6.37417a18.07293 18.07293 0 0 0 -3.22186-1.63317 13.26822 13.26822 0 0 0 .54966-7.68658 19.42466 19.42466 0 0 0 3.60277-2.03549 10.29956 10.29956 0 0 1 -.93057 11.35524zm-12.21643-8.78495a13.05237 13.05237 0 0 0 8.09922-.00012 11.806 11.806 0 0 1 -.54378 6.679 13.23293 13.23293 0 0 0 -7.01172-.00012 11.80628 11.80628 0 0 1 -.54372-6.67876zm.39377-1.45829a18.71978 18.71978 0 0 1 3.65566-6.08393 18.71991 18.71991 0 0 1 3.656 6.08389 11.74763 11.74763 0 0 1 -7.31166.00004zm6.55657 9.532a20.792 20.792 0 0 1 -2.90091 4.29012 20.79167 20.79167 0 0 1 -2.9007-4.29023 11.6059 11.6059 0 0 1 5.80161.00012zm-4.6854 4.53532a10.35167 10.35167 0 0 1 -5.34575-2.68716 16.40461 16.40461 0 0 1 2.77152-1.37809 21.12889 21.12889 0 0 0 2.57423 4.06526zm6.14332-4.06518a16.40914 16.40914 0 0 1 2.77189 1.37783 10.35128 10.35128 0 0 1 -5.34618 2.68742 21.12967 21.12967 0 0 0 2.57429-4.06524zm3.9031-12.3806a18.19655 18.19655 0 0 1 -3.18576 1.83741 19.50742 19.50742 0 0 0 -3.29163-5.78819 10.3768 10.3768 0 0 1 6.47739 3.95079zm-10.04642-3.95071a19.50691 19.50691 0 0 0 -3.29163 5.78807 18.20449 18.20449 0 0 1 -3.18582-1.83711 10.37718 10.37718 0 0 1 6.47745-3.95096zm-7.31284 5.217a19.415 19.415 0 0 0 3.60265 2.03562 13.2685 13.2685 0 0 0 .54959 7.68652 18.06909 18.06909 0 0 0 -3.22179 1.63316 10.299 10.299 0 0 1 -.93045-11.3553z" fill="#e3e7fc"/><path d="m32.10127 40.93407h-22.27849a.75825.75825 0 1 1 0-1.51649h22.27849a.75825.75825 0 1 1 0 1.51649z" fill="#e3e7fc"/><path d="m41.21519 1h-33.41772a3.79881 3.79881 0 0 0 -3.79747 3.79121v39.42857a2.78535 2.78535 0 0 0 2.78481 2.78022h28.35443a2.78535 2.78535 0 0 0 2.78481-2.78022v-3.28571h3.29114a2.78535 2.78535 0 0 0 2.78481-2.78022v-34.37363a2.78535 2.78535 0 0 0 -2.78481-2.78022zm-4.81013 43.21978a1.266 1.266 0 0 1 -1.26582 1.26374h-28.35443a1.266 1.266 0 0 1 -1.26581-1.26374v-36.41498a3.76462 3.76462 0 0 0 2.27848.77762h27.34176a1.26594 1.26594 0 0 1 1.26582 1.26373zm6.07594-6.06593a1.26594 1.26594 0 0 1 -1.26582 1.26373h-3.29113v-29.57143a2.78535 2.78535 0 0 0 -2.78481-2.78022h-27.34177a2.27473 2.27473 0 1 1 0-4.54945h33.41772a1.266 1.266 0 0 1 1.26581 1.26374z"/><path d="m20.9988 11.11174-.00142-.00006c-.01236-.00012-.02367-.00179-.03535-.00179l-.03431.00173-.00179.00012a11.89841 11.89841 0 1 0 .07287 0zm8.22513 5.62974a18.19655 18.19655 0 0 1 -3.18576 1.83741 19.50742 19.50742 0 0 0 -3.29163-5.78819 10.3768 10.3768 0 0 1 6.47739 3.95078zm-4.75593 10.5156a13.23293 13.23293 0 0 0 -7.01172-.00012 11.80628 11.80628 0 0 1 -.54372-6.67874 13.05237 13.05237 0 0 0 8.09922-.00012 11.806 11.806 0 0 1 -.54378 6.67898zm-3.506 5.685a20.79135 20.79135 0 0 1 -2.9007-4.29022 11.6059 11.6059 0 0 1 5.80158.00012 20.7917 20.7917 0 0 1 -2.90088 4.29002zm4.3588-3.82a16.40914 16.40914 0 0 1 2.77189 1.37783 10.35128 10.35128 0 0 1 -5.34618 2.68742 21.12967 21.12967 0 0 0 2.57432-4.06525zm-6.14332 4.06518a10.35167 10.35167 0 0 1 -5.34575-2.68716 16.40461 16.40461 0 0 1 2.77155-1.3781 21.12889 21.12889 0 0 0 2.57423 4.06526zm-1.87114-14.06733a18.71978 18.71978 0 0 1 3.65566-6.08393 18.71991 18.71991 0 0 1 3.656 6.08389 11.74763 11.74763 0 0 1 -7.31166.00004zm1.87117-6.32917a19.50691 19.50691 0 0 0 -3.29163 5.78807 18.20449 18.20449 0 0 1 -3.18582-1.83711 10.37718 10.37718 0 0 1 6.47745-3.95096zm-7.31284 5.217a19.415 19.415 0 0 0 3.60265 2.03562 13.26846 13.26846 0 0 0 .54959 7.68651 18.06983 18.06983 0 0 0 -3.22179 1.63317 10.299 10.299 0 0 1 -.93045-11.3553zm17.26433 11.35541a18.07293 18.07293 0 0 0 -3.22186-1.63317 13.26822 13.26822 0 0 0 .54966-7.68658 19.42466 19.42466 0 0 0 3.60277-2.03549 10.29956 10.29956 0 0 1 -.93057 11.35524z"/><path d="m32.10127 39.41758h-22.27849a.75825.75825 0 1 0 0 1.51649h22.27849a.75825.75825 0 1 0 0-1.51649z"/></g></svg>