<svg id="Layer_1" enable-background="new 0 0 512 512" height="512" viewBox="0 0 512 512" width="512" xmlns="http://www.w3.org/2000/svg"><circle cx="256.326" cy="255.937" fill="#82d0d8" r="256"/><path d="m280.822 317.235c-8.133 2.402-16.543 3.665-25.066 3.665-23.262 0-45.154-8.972-61.648-25.308-17.986-17.82-27.381-42.574-25.773-67.933.342-5.23 4.484-9.312 9.434-9.312 2.158 0 4.234.761 6.002 2.19 1.312 1.061 49.941 39.96 55.756 44.613l39.305-59.493-62.676-33.683c-5.139-2.766-5.674-7.027-5.666-8.73.016-3.342 1.893-6.396 4.895-7.973 12.555-6.578 26.697-10.053 40.91-10.053 23.268 0 45.174 9.01 61.682 25.365 22.641 22.43 31.208 55.912 22.509 86.506l70.514 75.953v-216.853c0-8.836-7.142-16.189-15.979-16.189h-308c-8.836 0-16.021 7.353-16.021 16.189v220c0 8.837 7.185 15.811 16.021 15.811h232.056z" fill="#004259"/><path d="m87.021 136.189h308v200h-308z" fill="#fff"/><circle cx="93.717" cy="118.791" fill="#b4d36a" r="8"/><circle cx="117.717" cy="118.791" fill="#eac653" r="8"/><circle cx="141.717" cy="118.791" fill="#ff5f5f" r="8"/><path d="m219.104 162.351c-.659.345-1.257 1.447.835 2.572 2.092 1.124 63.388 34.069 63.388 34.069 3.638 2.404 4.641 7.352 2.23 10.995l-39.463 59.612c-2.411 3.643-7.361 4.657-10.999 2.252 0 0-54.952-43.958-56.358-45.094-1.405-1.136-2.351.37-2.418 1.419-1.41 22.214 6.383 44.876 23.419 61.754 22.525 22.316 54.993 28.345 83.033 18.351l115.43 105.186.059-.06c10.94 10.838 28.759 10.755 39.598-.185 10.838-10.94 10.755-28.759-.185-39.598l.059-.06-106.26-114.442c9.731-28.133 3.399-60.543-19.126-82.858-25.322-25.084-63.215-29.645-93.242-13.913zm206.189 239.011c-4.664 4.708-12.262 4.744-16.97.079s-4.744-12.262-.079-16.97c4.664-4.708 12.262-4.744 16.97-.079 4.708 4.664 4.744 12.262.079 16.97z" fill="#1b7c96"/></svg>