<svg clip-rule="evenodd" fill-rule="evenodd" height="512" image-rendering="optimizeQuality" shape-rendering="geometricPrecision" text-rendering="geometricPrecision" viewBox="0 0 850 850" width="512" xmlns="http://www.w3.org/2000/svg"><g id="Layer_x0020_1"><circle cx="425" cy="425" fill="#05b443" r="425"/><g fill="#fff"><path d="m425 681c-35 0-64-29-64-64 0-18 6-34 18-46v-245c-27-17-43-46-43-77 0-33 18-63 47-79 2-1 5-1 7 0s3 3 3 6l9 73h46l8-73c0-3 2-5 4-6s4-1 6 0c30 15 48 46 48 79 0 32-17 61-44 77v245c12 12 19 28 19 46 1 35-28 64-64 64zm0-31c-15 0-27-12-27-28 0-15 12-27 27-27s27 12 27 27-12 28-27 28zm0-40c-7 0-13 5-13 12s6 13 13 13 13-6 13-13c0-6-6-12-13-12z"/><path d="m249 515c-33 0-63-19-79-48-1-2-1-4 0-7 1-2 3-3 6-3l73-9v-46l-73-9c-3 0-5-1-6-3s-1-5 0-7c15-30 46-47 79-47 32 0 60 16 77 43h39v92h-39c-16 27-45 44-77 44zm235-136h87c12-12 28-19 46-19 35 0 64 29 64 65 0 35-29 65-64 65-18 0-34-7-46-19h-87zm137 73c-15 0-28-12-28-27s12-27 28-27c15 0 27 12 27 27s-13 27-27 27zm0-40c-7 0-13 6-13 13s6 13 13 13c6 0 12-6 12-13s-6-13-12-13z"/></g></g></svg>