<svg id="Layer_1" enable-background="new 0 0 512 512" height="512" viewBox="0 0 512 512" width="512" xmlns="http://www.w3.org/2000/svg"><g><g><circle clip-rule="evenodd" cx="256" cy="256" fill="#37474f" fill-rule="evenodd" r="216"/></g><g clip-rule="evenodd" fill="#00c853" fill-rule="evenodd"><path d="m315.4 462.66c-1.03.4 1.1-.13 1.05-.53-.27-2.35-44.91 4.32-47.87 4.7-15.62 2.02-31.45-1.32-46.68-.66.69 1.24.05.97-.81 1.64 2.84 4.56 19.27 3.56 24.29 3.71 8.72.25 16.7.28 25.61-.34 7.28-.51 14.5-1.34 21.7-2.54 5.17-.86 21.24-1.91 24.16-5.85-.49-.04-.97-.08-1.45-.13-.03.01.49-.03 0 0zm-2.96.86c-1.07.64 1.96-.53 0 0-.11.06.21-.06 0 0zm1.27-.44c-1.1.52 2.71-.73 0 0-.03.02.31-.08 0 0z"/><path d="m462.64 193.55c-1.54-4.67-17.33-43.22-18.69-41.98.76-6.26-10.51-18.66-14.39-23.8-6.29-8.32-13.04-15.93-20.29-23.37-6.27-6.43-12.45-12.09-19.48-17.69-10.43-8.31-21.63-15.63-33.37-21.7-7.99-4.13-16.09-7.89-24.45-10.96-6.09-2.24-16.91-7.95-23.41-6.81.78.69 1.73 1.06 2.85 1.12-.04.77-14.88 2.37-16.31.84.25-.04.51-.09.76-.13-.91-.48-2.16-1-3.19-.59.92 1.06 1.56.7 2.37 1.51-1.5.87-8.57 2.34-8.54 2.36-2.28-.66-4.31-1.64-6.46-2.31 3.03-.84 7.43 1.56 10.45 0-1.33-3.45-18.96-4.47-22.18-4.89-3.91-.51-9.3.13-12.95 1.13-4.29 1.17-11.04 5.35-15.81 7.14-2.21.82-5.48.62-7.34 2.63-1.8 1.95.22 2.99-1.97 4.71 4.35 1.47 8.35-2.25 12.23-.71.27-.07 1.96 5.53 3.07 5.92-.18-.06 5.05-1.67 4.8-1.49 3.15-2.26 1.16-1.51 1.8-5.16.38.61.54 1.29.48 2.03 1.39-6.34 9.3-12.09 15.71-10.4-.17 1.69-9.4 1.6-5.73 4.63-3.35.14 3.68 4.1 3.31 3.84-1.8-.96-4.57 6.83-6.73 7.79-2.31 1.03-7.47-2.64-7.58 1.64-4.01-.23-6.67.35-10.42-.14-5.53-.71-5.73-3.3-1.3-5.94-2.27-1.34-4.89 2.26-5.59 3.24s.36 2.43-.7 3.54c-.48.51-3.27.54-4.3.9-2.96 1.03-5.57 3.38-8.23 4.39-1.94.74-3.99.42-5.85 1.12-3.74 1.4-7.71 4-10.49 4.49-.92.16-5.15.7-6.36 1.31-4.05 2.02 7.76 4.91 1.58 11.6-3.01 3.26-8.17 1.75-11.2 1.92-2.46.14-6.18-.43-8.24.75-3.29 1.89-2.35 4.04-4.37 7.52-1.96 3.37-3.98 3.61-3.57 7.74.31 3.14-1.38.81.82 2.81-.71-.64 5.44 1.05 4.33.87.1 1.79.93 2.35 2.49 1.68 1.59-1.13 3.35-1.71 5.3-1.73 1.74-.35 3.2.06 4.89-.49 2.98-.96 5.89-4.33 8.93-6.21-1.64-2.28 1.45-4.89 3.76-6.03.8-.39 3.74-.86 4.78-1.39 2.57-1.3 2.85-3.93 4.49-4.86 3.59-2.04 6.38-.66 10.12-1.53 4.37-1.02 6.48-4.06 10.69-.71.75.6 2.15 2.76 3 3.59 2.83 2.75 3.98 2.14 7.07 3.76 2.26 1.19 2.78 2.09 4.91 3.45 1.19.76 1.13 3.53 2.88 3.22 1.87-.32 1.63-4.47.5-4.99 1.26-.13 4.06.83 5.12-.23-1.21-.47-12.67-6.15-12.91-5.69-.63-3.37-4.28-3.04-4.06-6.11.31-4.2 6.16.69 5.68-1.36 2.08 3.4 4.33 4.8 8.76 6.54 1.66.65 4.42.66 5.69 2.16 1.34 1.58-.57 2.91.45 4.33.57.8 7.32 7.48 7.4 7.4-.17-.75-.63-.61-1.38.42.09-.33 2.07 3.11 1.85 2.89.54.54 3.63.33 3.94-.15 1.56-2.47-2.12-2.97-2.88-3.92.56-1.39 5.39 1.32 6.27 1.65 0-3.84-2.94-2.39-3.86-5.42-1.03-3.39-1-1.05 2.27-2.64.08-.04 2.06-2.66 2.53-.82 1.21-1.77 4.97.23 6.18.95-.33.51-1.12 2.74-1.24 3.76.58-.12 1.11-.03 1.59.27-.02-.43-.62-1.23-.07-1.51 1.03-.51 2.9 3.52.55 3.56.88 3.01 8.52 6.61 11.71 6.88.59.05 2.26-1.36 3.34-1.31 2.65.14 4.66 2.34 7.28 2.36 2.37.02 4.76-2.62 6.69-2.1 4.63 1.25 2.56 15.22-.99 17.77-2.66 1.91-7.18-1.22-9.94-1.12-2.19.08-3.64 1.83-5.54 1.96-2.91.19-7.52-1.89-10.43-2.16-4.61-.42-7.53-2.73-12.65-4.07-2.52-.66-5.35-1.1-7.75.61-2.52 1.8-.89 1.88-2.36 3.83-3.61 4.78-3.04 2.57-9.15.88-1.47-.41-3.86-.14-5.05-.76-2.17-1.13-2.39-2.95-4.59-4.09-4.07-2.11-11.31.16-14.36-3.84-2.68-3.51.26-1.03.92-3.09.43-1.33 1.03-1.5 1.3-3.12-.18 1.1-.92-4.4-.33-3.01-2.69-6.26-32.57 3.83-33.57 1.33-1.47 1.81-3.2 1.77-5.29 2.47-3.55 1.19-4.79 2.89-9.35 1.64-1.1-.3-3.71-2.25-4.55-2.07-.75.16-1.38 2.37-2 2.91-2.45 2.11-4.77 3.43-7.46 5.05-3.77 2.27-6.05 5.17-8.01 8.85-1.4 2.63-1.36 4.06-4.54 6.57-1.32 1.05-2.73 2.11-4.25 2.95-3.39 1.87-4.23 2.28-7.18 5.25-1.81 1.82-3.7 3.41-5.05 5.22-2.63 3.52-4.99 6.84-7.43 10.44-.8 1.17-2.43 1.86-2.83 3.32-.83 3 .53 3.2.74 6.3.03.47-.85 3.81-1.02 4.62-.47 2.2-.37 4.11-1.07 6.25-.48 1.47-1.44 3.42-2.12 4.8-1.88 3.81-1.59 4.17-2.06 7.54-.77 5.53-.58 4.89 1.78 8.98 1.35 2.33 5.06 6.74 6.5 9.9 1.67 3.66-.05 5.05 2.59 8.35 1.85 2.32 5.61 4.52 7.96 6.67 2.08 1.9 4.79 5.13 7.49 5.55 2.5.39 5.61-1.94 8.08-2.54 8.09-1.96 12.12.97 19.62-1.42 6.29-2 15.01-7.04 21.67-3.91-.65.74 1.64 2.99 2.02 3.58 1.97 3.07 1.08 3.81 5.22 4.3 5.24.61 6.84-2.33 11 1.37 4.44 3.94 2.36 10.97 1.03 16.68-1 4.28-1.71 2.92-.68 6.77.62 2.33 1.63 2.9 3.42 5.08 1.66 2.02 3.87 4.49 5.8 6.84 1.73 2.11 3 4.84 4.08 7.76 1.26 3.41 3.74 7.11 4.28 10.83.05.33-1.2 1.85-1.04 2.87.69 4.54 4.36 7.32 2.28 12.11-.96 2.22-3.25 3.31-4.14 5.91-1.01 2.94-1.5 5.78-2.05 7.49-.97 3.03-1.3 7.62-.02 10.8.84 2.09 5.36 8.95 7.98 9.92-1.31.28.33 2.78 1.15 4.32 1.54 2.88 2.02 5.6 2.75 9.24.88 4.41 1.06 8.82 3.77 12.5.66.9 4.36 4.85 5.43 5.06-1.56 3.98 4.01 6.18 5.23 9.2.56-1.4 2.83.95.64 1.39.44.09.83.28 1.17.56-.98.39-.88 5.35-1.38 5.15 1.81.75 2.31.64 3.85.75-.71-.19-.83-.48-.36-.88.57-.22.99.03 1.28.75-.15-1.04-.81-3.69-1.08-4.31 1.22-.36 1.99 2.36 2.25 2.42 3.15.73 4.43 1.02 7.59.63 3.43-.42 6.23.91 11.15-.09 4.27-.87 8.63-3.46 11.72-5.92 3.24-2.58 6.35-7.16 8.36-9.2.8 1.62 7.01-6.52 7.39-8.02 1.32-5.19-.19-5.63 4.85-7.72 4.93-2.05 6.81-2.38 7.17-8.66.14-2.37-1.73-8.18-.83-10.77.34-.99 3.4-2.89 4.42-3.76 2.7-2.29 5.96-4.83 8.91-6.43 4.33-2.36 9.56-5.01 10.95-9.88 1.1-3.86.91-11.59.37-15.52.03.36-.23-1.92-.53-2.91-.9-2.91-2.47-5.44-2.62-8.28-.04-.74.05-1.43.01-2.18-.11-2.03-.88-4.01-.96-5.58-.09-1.73 2.22-10.12 1.25-10.54-.53 1.95 2.78-3.48 3.29-4.34 1.25-2.13 2.16-2.03 3.51-3.42 1.01-1.04 7.74-13.97 9.19-13.29.6.29-.52.6.08.81.68.23 9.58-7.23 10.54-8.23 5.27-5.45 9.4-15.27 11.75-22.49 1.07-3.28 2.87-8.03 2.53-11.27-.34-3.3-1.09-3.35-2.82-3.44-1.12-.06-7.48 2.25-7.8 3.18-.41-.92-2.41-.82-3.33-.69 2.66 1.27-2.94.99-3.85 1.14-4.87.77-8.68.45-11.88-4.24 7.14-4.4-12.1-13.33-14.48-17.12-.14-.22-6.43-14.76-9.08-12.38 1.18-1.11-1.48-8.63-2.36-10.08-1.57-2.55-4.57-4.14-6.59-7-.49-.69.41-1.74.16-2.17-.7-1.17-2.1-1.83-2.89-3.02-1.41-2.13-2.55-4.15-4.03-6.31-1.23-1.79-6.93-10.42-7.13-7.47-.19-1.07-.62-3.59-.42-4.66h.66c-.53 1.85 4.5 6.33 5.49 7.01.28-.46 1.77-5.1 2.47-4.86 1.21.41.38 3.94.14 3.67.34.39 2.07.81 2.12.88 2.02 3.11 4.96 5.87 7.16 9.03 3.5 5.03 8.17 7 10.09 13.12 2.57 8.18 12.44 12.9 16.4 22.11 1.76 4.1 2.04 14.79 6.64 15.47 2.52.37 3.57-2.02 4.87-2.43.33-.11 2.29-.27 2.96-.57 1.75-.81 3.22-1.03 4.78-1.94 2.35-1.36 5.17-2.55 7.31-3.57.59-.28 2.88-1 3.4-1.44 1.95-1.6 1.55-3.22 3.3-5.01 2.98-3.05 4.1-1.69 7.31-1.69-1.95-3.07 1.54-3.23 2.73-4.38.79-.77 2.15-2.59 2.55-3.88.34-1.1.47-3.92.67-4.81.07-.32.78-1.54.91-2.19 2.3-11.53-12.75-6.92-12.5-17.35-.88-1.65-3.05 3.68-3.93 4.39-1.37 1.1-4.28 2.42-5.99 1.85-2.51-.83-6.15-12.85-5.22-3.5-2.3-4.04-4.43-6.2-7.64-9.42-1.22-1.22-2.07-2.42-3.2-3.83-1.88-2.34-2.25-4.84-2.99-5.39 5.62 0 5.57.23 10.75 5 3.1 2.85 7.09 6.39 11.53 7.32 1.53.32 4.45-.94 5.4-.62 2.3.77 3.64 3.56 5.48 4.61 3.8 2.17 10.01 1.99 14.54 1.95 2.65-.03 6.07.54 7.44 1.49 1 .69 4.4 6.09 5.63 4.92-1.45 1.44 3.36 4.01 4.51 3.78-2.42 4.03 1.75 10.25 6.5 7.05 2.11 2.85 3.05 8.71 4.19 12.07 1.17 3.46 2.5 5.67 4.4 8.86 5.4 9.04 6.24 20.51 11.75 29.3 3.65.41 1.9-16.56 1.66-17.96-.78-4.53-2.29-8.12-1.98-12.74.28-4.23.93-8.13.81-12.31-.64-22.23 8.7 13.69 12.07 14.15-.04-.39-.09-.79-.15-1.18-.62-1.89.13.37 0 0zm-195.98-132.96c-.59-2.42.92 1.11 1.2 1.63-.85-.21-1.25-.76-1.2-1.63-.1-.42.18.74 0 0zm78.47 135.5c-.23 1.04-.01 1.98.64 2.81-.43-.47-1.62-2.17-.64-2.81-.41 1.1-.78.51 0 0zm-19.08-95.03c-6.62 4.65-15.63-1.84-22.52-1.97-2.95-.05-5.47 1.46-7.5 1.7-4.34.51-7.2 1.35-11.53 1.39 1.08-.43 3.38-.4 4.33-1.01.84-1.1-6.7-3.07-1.66-7.22-1.23-1.23 1.22-6.03 2.93-7.11 1.23-.78 9.43-.25 9.56 1.29.03.36-1.6.99-1.57 1.05 1.34 3.17 4.79 2.06 7.25 1.18-1.89-.49-2.58-2.24-4.73-2.56 2.86-.71 10.34-4.99 12.91-1.8-2.34 1.24-.98 2.75-3.3 4.43 1.96 1.47 17.86 6.58 15.83 10.63zm39.52 13.08c-3.6 5.95-9.77-2.49-12.7-1.31.23.64.08.97-.43 1-1.58-3.31-5.94-5-7.18-8.28.63.21 3.87 1.12 4.16-.18.37-1.7-6.18-3.51-6.89-3.93-.89-.53.57-1.19-.06-1.74-2.04-1.77-4.72-2.92-6.74-4.72-1.2-1.06-4.81-5.53-3.75-6.38-.05.04 2.44-2.3 2.1-2.17 1.6-.64 7.01 2.27 4.95-1.69 2.56.44 4.22.29 5.89 1.01 2.06.88 7.82 4.54 7.25 6.94-1.58 1.22-1.09-2.38-1.54 1.73-1.56-1.43-5.64-1.47-7.24-1.14 3.22 1.89 6.25 4.22 9.13 6.16.61.41 2.39 1.37 2.17 1.23.55.35 5.11 2.35 4.72 4.5-.2-.14-2.63-.83-2.8-.04.09-.44 9.74 8.72 8.96 9.01-.25.42.11-.04 0 0z"/><path d="m457.45 226.48c-.33-2.05-1.35-6.54-3.11-7.5-.79 1.6-.25 8.34.54 10.07 2.28 4.98 3.18 1.2 2.57-2.57-.16-.95.12.77 0 0z"/><path d="m317.27 462.8c.53.18.94.04 1.25-.42-.36 0-1.22-.19-1.25.42.41-.16.03-.63 0 0z"/><path d="m296.78 46.28c1.74-.17 2.57.88 4.56.63-2.72-.58-5.27-2.62-6.24-3.14-.89-.03-3.34-1.04-4.12-.27 1.76 1.18 3.5 3 5.8 2.78.27-.03-1.42.14 0 0z"/><path d="m253.22 41.25c1.55-.07 6.12.1 7.17-.83-2.93 0-5.85 0-8.78 0 .54.28 1.08.56 1.61.83 1.09-.04-.69.03 0 0z"/><path d="m159.84 64.59c12.33-10.13 30.92-11.47 45.35-16.45 1.48-.51 16.66-3.76 16.73-5.21-2.81.56-25.59 5.49-25.1 6.16-8.28.43-18.01 5.17-25.76 8.48-2.23.95-4.84 2.13-7.14 3.28-.63.31-4.59 1.9-4.73 2.58-.07.33-.06 1.75.65 1.16.58-.48-.41.33 0 0z"/><path d="m43.74 219.74c.01-.53.01-1.06.02-1.59-.64.77-.12 2.68-.02 1.59.06-.52-.01.18 0 0z"/><path d="m82.12 382.58c.67.41-1.35-5.62-1.54-6.04-2.08-4.56-3.26-9.13-4.96-13.79-1.89-5.16-5.15-9.33-5.27-13.93-.03-1.04-.46-2.47.44-3.79 1.42-2.1 2.13-.38 3.51-3.18 1.48-3.01-1.05-11.82-2.02-16.19-1.58-7.09-2.54-14.01-1.91-21.06.13-1.4.38-4.82-.25-6.15.71-.13 2.36-2.75 1.57-2.86 2.6-1.58 1.05-13.18-.02-15.42-1.33-2.78-2.15-2.08-4.03-4.02-2.17-2.24-3.16-6.03-5.76-7.86-1.49-1.04-5.64-1.67-7.23-.78.68-3.03-3.7-10.99-5.37-6.83 0-.04-.54-2.04-.21-1.76 1.71 1.44-1.87-6.13-2.2-2.42-.8-2.42 1.33-3.85 1.5-6.23.17-2.44-.96-5.43-1.24-8.27-.25-2.46-.29-8.39-3.59-8.78 1.27-2.25-.17-9.84-.17-12.55-2.77.67-2.89 28.49-2.94 29.36-.63 12.49.23 26.02 2.34 38.87 2.3 14.02 5.44 27.62 10.4 40.87 3.57 9.52 7.79 18.68 12.46 27.71 4.27 8.26 9.69 20.77 17.04 26.71.13-.65-.05-1.19-.55-1.61-.31-.19.64.39 0 0z"/><path d="m83.91 385.85c.19.99.74 1.69 1.67 2.09-.14-.76-.4-2.36-1.67-2.09 0 1.14.72-.15 0 0z"/><path d="m82.66 384.18c-.06.92.58 1.31 1.25 1.67-.02-1.4-.09-1.5-1.25-1.67z"/><path d="m85.58 387.94c-.06.92.58 1.31 1.25 1.67-.01-1.39-.09-1.49-1.25-1.67z"/><path d="m86.84 389.61c-.07.65.18 1.09.84 1.26 0-1.18 0-1.18-.84-1.26z"/><path d="m296.02 47.66c.37.82 1.22.65 1.93.46-.64-.61-1.28-.77-1.93-.46.04.09.11-.04 0 0z"/><path d="m195.8 53.37c-.69.15-1.34.39-1.95.74-.38 1.34 1.13.65 1.69.71-1.04 1.7 10.98-1.11 11.22-2.56.39-2.3-10.82 1.07-10.96 1.11-.43.11.54-.14 0 0z"/><path d="m158.49 65.01c.88-.19-.41.1 0 0 .1-.02-.04.01 0 0z"/><path d="m379 319.2c.66-.78-.13-4.78-.24-5.92-.04-.39-.06-6.42-1.05-6.54-2.87-.34-1.88 3.28-2.98 4.71-2.15 2.78-5.13 6.68-8.45 8.52-3.27 1.8-6.83 2.15-8.98 6.41-1.07 2.11-1.17 3.69-1.31 6.46-.24 4.8-1.02 6.52-3.3 10.4-3.21 5.46-1.77 20.9 7.92 12.87 3.53-2.93 6.23-12.06 8.45-16.67 1.13-2.36 5.61-8.75 4.43-10.31.4.4 1.74-3.1 1.84-3.38.23-.65.54-3.02 1.37-4.23 1.52-2.2-2.29.97.08-2.08.19-.24 1.03 1.61 1.39 1.49 1.07-.32.4-1.23.83-1.73.25-.31-.48.57 0 0z"/><path d="m215.25 71.79c-2.31-.02-2.75-4.35-5.01-6-1 .71 3.6-2.09 3.61-2.7-.49.04-2.69.3-2.78-.04-.22-.84 1.37-1.09 1.21-1.47-.73-1.72-10.58 3.71-6.2 5.39-3.1 1.49-.23 1.18 1.41 1.64-.73.32-7.54 5.47-7.73 6.33.07-.29 3.41.67 2.88.82-1.25.35-3.02.65-4.15 1.84.82.75 9.55-.53 10.87-.8 2.53-.51 8.55-4.98 5.89-5.01-.25 0 1.12.01 0 0z"/><path d="m189.78 74.26c-.33.28-.6.61-.81.99 3.56 2.54 10.7-1.94 12.06-5.14.3-.7 2.33.52 1.62-1.32-.6-1.56-2.95-.97-4.21-.83-4.44.48-5.35 5.9-8.66 6.3-.74.08.99-.12 0 0z"/><path d="m357.41 322.28c1.79 1.44.1-1.71 0 0 .18.14.04-.62 0 0z"/><path d="m262.43 390.37c-.98 1.36.98.6 0 0-.12.16.24.15 0 0z"/><path d="m216.47 239.96c-.5.67-1.07 1.27-1.7 1.82 1.92.95 1.75.26 2.93-1.3-.41-.18-.82-.35-1.23-.52-.31.06.35-.07 0 0z"/><path d="m244.5 109.42c-2.6 1.51-9.96-1.61-3.66 2.77.98.68 3.73 2.17 4.91 1.61 1.42-.68 1.63-7.64-1.25-4.38-.17.1.72-.82 0 0z"/><path d="m225.66 104.4c-.08 1.88.25 4.1 2.75 2.13.49-.38 1.85-3.96 1.74-4.3-.96-2.78-2.9-.92-5.14-.67.64.85.86 1.8.65 2.84-.01.36.04-.93 0 0z"/><path d="m228.02 99.76c2.54-3.64.19-3.71 0 0 .24-.33.03-.48 0 0z"/><path d="m207.91 106.11c.5.74 2.25-.71 2.25-.7-1.26-1.24-3.43-1.04-2.25.7.52.78-.2-.29 0 0z"/><path d="m279.13 119.45c.15.16 4.8-.41 4.68-.41 0-.53-8.73-3.74-8.82-1.37-.02.73 3.77 1.38 4.14 1.78.07.07-.94-1.01 0 0z"/><path d="m305.64 120.7c1.38.58 3.05-.3 3.24-1.73.14-.97-4.94-.36-4.52 1.04.43.23.86.46 1.28.69.18.07-.46-.19 0 0z"/></g></g></svg>