<svg enable-background="new 0 0 512 512" viewBox="0 0 512 512" xmlns="http://www.w3.org/2000/svg" xmlns:xlink="http://www.w3.org/1999/xlink"><linearGradient id="SVGID_1_" gradientUnits="userSpaceOnUse" x1="21.471" x2="388.069" y1="444.393" y2="77.796"><stop offset="0" stop-color="#696eff"/><stop offset="1" stop-color="#f8acff"/></linearGradient><g id="_x32_5_Social_Media"><path d="m446.669 174.111c1.455 2.26.803 5.272-1.459 6.727-.813.525-1.726.775-2.629.775-1.602 0-3.166-.789-4.098-2.234-7.977-12.4-18.93-22.861-31.679-30.255-2.325-1.35-3.118-4.328-1.768-6.655 1.345-2.325 4.316-3.118 6.655-1.768 14.076 8.165 26.17 19.72 34.978 33.41zm-196.53 21.609c-2.249-1.476-5.262-.841-6.741 1.405-7.692 11.749-17.988 21.981-29.782 29.595-2.258 1.459-2.909 4.471-1.45 6.731.932 1.443 2.496 2.227 4.093 2.227.903 0 1.821-.252 2.634-.777 12.93-8.348 24.22-19.564 32.654-32.442 1.468-2.252.84-5.268-1.408-6.739zm-100.277 127.584c0-22.958 18.678-41.638 41.638-41.638s41.638 18.68 41.638 41.638-18.678 41.638-41.638 41.638-41.638-18.68-41.638-41.638zm9.736 0c0 17.591 14.314 31.903 31.903 31.903s31.903-14.311 31.903-31.903c0-17.591-14.314-31.903-31.903-31.903s-31.903 14.312-31.903 31.903zm71.958 59.377c8.989 15.93 20.955 46.632 8.799 60.665 0 .002 0 .002-.005.005-16.701 19.245-80.923 19.317-97.7 0-12.155-14.031-.19-44.738 8.794-60.67 6.185-10.96 19.201-16.372 30.928-12.878 5.975 1.78 12.289 1.776 18.264-.005 11.753-3.501 24.735 1.921 30.92 12.883zm-8.481 4.782c-3.969-7.04-12.255-10.532-19.652-8.333-7.801 2.32-16.035 2.325-23.826.005-7.512-2.23-15.743 1.364-19.671 8.329-11.675 20.705-16.035 42.451-9.921 49.508 12.857 14.807 70.138 14.791 82.991 0 6.119-7.062 1.759-28.808-9.921-49.509zm264.158-158.072c0 26.647-8.129 52.047-23.536 73.619l10.972 39.138c.48 1.711-.01 3.549-1.279 4.792-1.274 1.243-3.109 1.699-4.82 1.181l-39.642-11.996c-20.46 13.128-44.087 20.054-68.483 20.054-12.457 0-24.475-1.86-35.855-5.224 11.626 82.058-52.536 153.306-133.09 153.306-25.932 0-51.046-7.375-72.78-21.352l-42.294 12.8c-1.716.506-3.551.057-4.82-1.181-1.269-1.243-1.759-3.08-1.279-4.792l11.709-41.764c-16.401-22.913-25.057-49.91-25.057-78.233 0-41.82 19.197-79.223 49.226-103.913-6.797-2.921-13.399-6.345-19.69-10.392l-42.299 12.797c-1.716.506-3.551.059-4.82-1.181-1.269-1.243-1.759-3.08-1.279-4.792l11.713-41.762c-16.405-22.911-25.062-49.908-25.062-78.233 0-74.178 60.349-134.525 134.527-134.525 67.502 0 123.532 49.979 133.073 114.873 19.686-12.612 43.012-20.007 68.079-20.007 69.907.001 126.786 56.878 126.786 126.787zm-327.939 37.659c68.806 0 124.787-55.978 124.787-124.787s-55.981-124.789-124.787-124.789c-68.811 0-124.791 55.98-124.791 124.789 0 27.025 8.49 52.741 24.558 74.37.898 1.21 1.188 2.767.78 4.217l-9.954 35.494 35.981-10.886c.466-.14.941-.209 1.412-.209.951 0 1.892.278 2.7.82 20.564 13.727 44.532 20.981 69.314 20.981zm154.963 80.371c-40.105-15.756-70.195-51.394-78.297-94.712-21.768 15.157-48.188 24.077-76.667 24.077-14.561 0-28.836-2.406-42.424-6.918-30.406 22.779-50.156 59.041-50.156 99.871 0 27.023 8.49 52.738 24.553 74.37.898 1.21 1.188 2.767.78 4.217l-9.95 35.496 35.977-10.889c.466-.14.941-.209 1.412-.209.951 0 1.892.278 2.7.818 20.57 13.727 44.538 20.983 69.315 20.983 77.757.001 136.697-70.661 122.757-147.104zm140.208-48.271c15.069-20.292 23.032-44.415 23.032-69.759 0-64.542-52.51-117.05-117.052-117.05-24.913 0-47.947 7.931-66.938 21.258.183 2.868.309 5.751.309 8.664 0 41.764-19.132 79.143-49.091 103.836 8.149 56.636 56.865 100.344 115.72 100.344 23.241 0 45.722-6.807 65.013-19.683 1.217-.811 2.71-1.032 4.117-.611l33.324 10.085-9.213-32.868c-.409-1.449-.119-3.006.779-4.216zm-21.377-78.806c-15.901 54.977-14.911 51.811-15.212 52.46-2.748 5.916-8.733 9.738-15.25 9.738h-52.013c-1.713 3.544-5.312 6.014-9.505 6.014h-17.908c-5.838 0-10.587-4.749-10.587-10.587v-75.773c0-5.838 4.749-10.587 10.587-10.587h17.908c3.336 0 6.28 1.582 8.222 4 6.498-9.502 11.706-19.841 15.481-30.885 1.602-4.685 5.961-7.834 10.848-7.834 11.697 0 19.895 11.584 16.011 22.614l-6.28 17.848h32.616c11.848.001 19.792 12.154 15.082 22.992zm-91.13-18.147c0-.468-.38-.851-.851-.851h-17.908c-.471 0-.851.383-.851.851v75.773c0 .468.38.851.851.851h17.908c.471 0 .851-.383.851-.851v-.295c0-25.144 0-50.252 0-75.478zm76.046 4.891h-39.49c-1.578 0-3.061-.765-3.974-2.054-.913-1.288-1.141-2.94-.618-4.431l8.562-24.335c1.665-4.706-1.824-9.643-6.826-9.643-.732 0-1.374.49-1.635 1.25-5.11 14.941-12.617 28.72-22.328 40.975v63.955h50.932c2.634 0 5.063-1.486 6.275-3.81 15.876-54.89 14.884-51.719 15.188-52.377 2.058-4.435-1.156-9.53-6.086-9.53zm-269.121-2.434-42.793-42.534c-.261-.261-.49-.549-.685-.856-14.946-15.706-14.746-40.676.647-56.166 14.58-14.601 37.721-15.666 53.537-3.168 15.768-12.512 38.853-11.521 53.461 2.993 15.512 15.495 15.754 40.609.694 56.354-.152.209-.318.409-.509.597l-42.565 42.729c-5.993 6.02-15.768 6.041-21.787.051zm6.865-6.904c2.225 2.208 5.814 2.201 8.024-.017l42.061-42.221c.138-.19.295-.371.466-.542 11.827-11.908 11.775-31.266-.124-43.15-11.903-11.827-31.261-11.804-43.136.057-1.902 1.894-4.972 1.899-6.874.01-11.941-11.868-31.342-11.825-43.217.081-11.861 11.937-11.827 31.308.086 43.174.242.242.456.506.642.789z" fill="url(#SVGID_1_)"/></g><g id="Layer_1"/></svg>