<svg height="512" viewBox="0 0 32 32" width="512" xmlns="http://www.w3.org/2000/svg"><g id="Layer_2" data-name="Layer 2"><path d="m2.87 28.56a1.88 1.88 0 0 1 -1.87-1.87v-15.38a3.88 3.88 0 0 1 3.87-3.87h18.25a3.88 3.88 0 0 1 3.88 3.87v10.25a3.88 3.88 0 0 1 -3.87 3.88h-15.22a.82.82 0 0 0 -.48.16l-3.43 2.59a1.89 1.89 0 0 1 -1.13.37zm2-19.12a1.88 1.88 0 0 0 -1.87 1.87v15.13l3.23-2.44a2.84 2.84 0 0 1 1.68-.56h15.21a1.88 1.88 0 0 0 1.88-1.88v-10.25a1.88 1.88 0 0 0 -1.87-1.87z"/><circle cx="17.94" cy="16.53" r="1"/><circle cx="14.06" cy="16.53" r="1"/><circle cx="10.06" cy="16.53" r="1"/><path d="m30 18.44a1 1 0 0 1 -1-1v-10.13a1.88 1.88 0 0 0 -1.87-1.87h-20.13a1 1 0 0 1 -1-1 1 1 0 0 1 1-1h20.13a3.88 3.88 0 0 1 3.87 3.87v10.13a1 1 0 0 1 -1 1z"/></g></svg>