<svg id="Layer_1" viewBox="0 0 1000 1000" xmlns="http://www.w3.org/2000/svg" data-name="Layer 1"><path d="m173.83 208.64v469.57h652.34v-469.57zm393.46 337.93-118.35 68.33a16 16 0 0 1 -24-13.86v-16.42h-122.51a87.65 87.65 0 0 1 -87.55-87.55v-134.87a16 16 0 0 1 16-16h71.55a16 16 0 0 1 16 16v104a14.88 14.88 0 0 0 14.87 14.86h91.64v-16.67a16 16 0 0 1 24-13.86l118.35 68.33a16 16 0 0 1 0 27.71zm217.83-21.92a16 16 0 0 1 -16 16h-71.55a16 16 0 0 1 -16-16v-104a14.89 14.89 0 0 0 -14.87-14.87h-91.64v16.68a16 16 0 0 1 -24 13.86l-118.35-68.32a16 16 0 0 1 0-27.71l118.35-68.29a16 16 0 0 1 24 13.86v16.42h122.51a87.65 87.65 0 0 1 87.55 87.55z" fill="#90caf9"/><path d="m116 710.21v41.24a40 40 0 0 0 39.91 39.91h688.18a40 40 0 0 0 39.91-39.91v-41.24zm471.52 56.58h-175a16 16 0 0 1 0-32h175a16 16 0 0 1 0 32z" fill="#616161"/><path d="m753.12 389.78v118.87h-39.55v-88a46.92 46.92 0 0 0 -46.87-46.87h-107.64a16 16 0 0 0 -16 16v5l-70.35-40.62 70.35-40.61v4.71a16 16 0 0 0 16 16h138.51a55.61 55.61 0 0 1 55.55 55.52z" fill="#ff3d00"/><path d="m456.94 573.33v-4.71a16 16 0 0 0 -16-16h-138.51a55.61 55.61 0 0 1 -55.55-55.55v-118.87h39.55v88a46.92 46.92 0 0 0 46.87 46.86h107.64a16 16 0 0 0 16-16v-5l70.35 40.62z" fill="#43a047"/><g fill="#fff" opacity=".5"><path d="m163.83 218.64v469.57h652.34v-469.57zm393.46 337.93-118.35 68.33a16 16 0 0 1 -24-13.86v-16.42h-122.51a87.65 87.65 0 0 1 -87.55-87.55v-134.87a16 16 0 0 1 16-16h71.55a16 16 0 0 1 16 16v104a14.88 14.88 0 0 0 14.87 14.86h91.64v-16.67a16 16 0 0 1 24-13.86l118.35 68.33a16 16 0 0 1 0 27.71zm217.83-21.92a16 16 0 0 1 -16 16h-71.55a16 16 0 0 1 -16-16v-104a14.89 14.89 0 0 0 -14.87-14.87h-91.64v16.68a16 16 0 0 1 -24 13.86l-118.35-68.32a16 16 0 0 1 0-27.71l118.35-68.29a16 16 0 0 1 24 13.86v16.42h122.51a87.65 87.65 0 0 1 87.55 87.55z"/><path d="m106 720.21v41.24a40 40 0 0 0 39.91 39.91h688.18a40 40 0 0 0 39.91-39.91v-41.24zm471.52 56.58h-175a16 16 0 0 1 0-32h175a16 16 0 0 1 0 32z"/><path d="m743.12 399.78v118.87h-39.55v-88a46.92 46.92 0 0 0 -46.87-46.87h-107.64a16 16 0 0 0 -16 16v5l-70.35-40.62 70.35-40.61v4.71a16 16 0 0 0 16 16h138.51a55.61 55.61 0 0 1 55.55 55.52z"/><path d="m446.94 583.33v-4.71a16 16 0 0 0 -16-16h-138.51a55.61 55.61 0 0 1 -55.55-55.55v-118.87h39.55v88a46.92 46.92 0 0 0 46.87 46.86h107.64a16 16 0 0 0 16-16v-5l70.35 40.62z"/></g><g fill="#413b32"><path d="m842.17 176.64h-684.34a16 16 0 0 0 -16 16v501.57a16 16 0 0 0 16 16h684.34a16 16 0 0 0 16-16v-501.57a16 16 0 0 0 -16-16zm-668.34 501.57v-469.57h652.34v469.57z"/><path d="m900 678.21h-800a16 16 0 0 0 -16 16v57.24a72 72 0 0 0 71.91 71.91h688.18a72 72 0 0 0 71.91-71.91v-57.24a16 16 0 0 0 -16-16zm-16 73.24a40 40 0 0 1 -39.91 39.91h-688.18a40 40 0 0 1 -39.91-39.91v-41.24h768z"/><path d="m603.52 750.79a16 16 0 0 1 -16 16h-175a16 16 0 0 1 0-32h175a16 16 0 0 1 16 16z"/><path d="m697.57 302.23h-122.51v-16.42a16 16 0 0 0 -24-13.86l-118.35 68.33a16 16 0 0 0 0 27.71l118.35 68.33a16 16 0 0 0 24-13.86v-16.68h91.64a14.89 14.89 0 0 1 14.87 14.87v104a16 16 0 0 0 16 16h71.55a16 16 0 0 0 16-16v-134.87a87.65 87.65 0 0 0 -87.55-87.55zm55.55 206.42h-39.55v-88a46.92 46.92 0 0 0 -46.87-46.87h-107.64a16 16 0 0 0 -16 16v5l-70.35-40.62 70.35-40.61v4.71a16 16 0 0 0 16 16h138.51a55.61 55.61 0 0 1 55.55 55.55z"/><path d="m567.29 518.86-118.35-68.33a16 16 0 0 0 -24 13.86v16.68h-91.64a14.88 14.88 0 0 1 -14.87-14.86v-104a16 16 0 0 0 -16-16h-71.55a16 16 0 0 0 -16 16v134.86a87.65 87.65 0 0 0 87.55 87.55h122.51v16.38a16 16 0 0 0 24 13.86l118.35-68.33a16 16 0 0 0 0-27.71zm-110.35 54.47v-4.71a16 16 0 0 0 -16-16h-138.51a55.61 55.61 0 0 1 -55.55-55.55v-118.87h39.55v88a46.92 46.92 0 0 0 46.87 46.86h107.64a16 16 0 0 0 16-16v-5l70.35 40.62z"/></g></svg>