<svg id="Layer_1" viewBox="0 0 512 512" xmlns="http://www.w3.org/2000/svg" data-name="Layer 1"><rect fill="#b6dbff" height="489.999" rx="34.316" width="278.141" x="206.942" y="11.001"/><rect fill="#e3f1ff" height="489.999" rx="34.316" width="255.341" x="206.942" y="11.001"/><path d="m264.791 11 13.057 22.617c2.762 4.784 7.505 7.522 13.029 7.522h110.269c5.524 0 10.267-2.738 13.029-7.522l13.057-22.617h-162.443z" fill="#4eb1fc" fill-rule="evenodd"/><path d="m264.791 11 13.057 22.617c.275.476.57.932.882 1.366.732.103 1.482.156 2.247.156h110.269c5.524 0 10.267-2.738 13.029-7.522l9.593-16.616h-149.079z" fill="#85caff" fill-rule="evenodd"/><rect fill="#4eb1fc" height="21.55" rx="10.775" width="53.386" x="319.321" y="442.071"/><path d="m330.096 442.071h31.449c2.241 1.978 3.661 4.869 3.661 8.075 0 5.927-4.849 10.775-10.775 10.775h-31.449c-2.241-1.978-3.661-4.869-3.661-8.075 0-5.927 4.849-10.775 10.775-10.775z" fill="#85caff" fill-rule="evenodd"/><path d="m252.009 93.926h30.507c7.518 0 13.621 6.103 13.621 13.621v27.254c0 7.518-6.103 13.621-13.621 13.621h-30.508c-7.518 0-13.621-6.104-13.621-13.621v-27.254c0-7.518 6.104-13.622 13.622-13.622z" fill="#f23353"/><path d="m252.009 93.926h20.945c7.518 0 13.621 6.103 13.621 13.621v27.254c0 7.518-6.103 13.621-13.621 13.621h-20.945c-7.518 0-13.621-6.104-13.621-13.621v-27.254c0-7.518 6.104-13.622 13.622-13.622z" fill="#ff5471"/><path d="m330.759 93.926h30.507c7.518 0 13.621 6.103 13.621 13.621v27.254c0 7.518-6.103 13.621-13.621 13.621h-30.508c-7.518 0-13.621-6.103-13.621-13.621v-27.254c0-7.518 6.104-13.622 13.622-13.622z" fill="#2a92fa"/><path d="m330.759 93.926h20.945c7.518 0 13.621 6.103 13.621 13.621v27.254c0 7.518-6.103 13.621-13.621 13.621h-20.945c-7.518 0-13.621-6.103-13.621-13.621v-27.254c0-7.518 6.104-13.622 13.622-13.622z" fill="#4eb1fc"/><path d="m409.509 93.926h30.507c7.518 0 13.621 6.104 13.621 13.621v27.254c0 7.518-6.103 13.621-13.621 13.621h-30.508c-7.518 0-13.621-6.104-13.621-13.621v-27.254c0-7.518 6.104-13.622 13.622-13.622z" fill="#fdb0a0"/><path d="m409.509 93.926h20.945c7.518 0 13.621 6.103 13.621 13.621v27.254c0 7.518-6.103 13.621-13.621 13.621h-20.945c-7.518 0-13.621-6.104-13.621-13.621v-27.254c0-7.518 6.104-13.622 13.622-13.622z" fill="#ffcec0"/><path d="m252.009 169.423h30.507c7.518 0 13.621 6.103 13.621 13.621v27.254c0 7.518-6.103 13.621-13.621 13.621h-30.508c-7.518 0-13.621-6.104-13.621-13.621v-27.254c0-7.518 6.104-13.622 13.622-13.622z" fill="#2dd62d"/><path d="m252.009 169.423h20.945c7.518 0 13.622 6.104 13.622 13.622v27.254c0 7.518-6.103 13.621-13.621 13.621h-20.945c-7.518 0-13.621-6.104-13.621-13.621v-27.254c0-7.518 6.104-13.622 13.622-13.622z" fill="#43f043"/><path d="m330.759 169.423h30.507c7.518 0 13.621 6.103 13.621 13.621v27.254c0 7.518-6.103 13.621-13.621 13.621h-30.508c-7.518 0-13.621-6.103-13.621-13.621v-27.254c0-7.518 6.104-13.622 13.622-13.622z" fill="#fdc72e"/><path d="m330.759 169.423h20.945c7.518 0 13.621 6.103 13.621 13.621v27.254c0 7.518-6.103 13.621-13.621 13.621h-20.945c-7.518 0-13.621-6.103-13.621-13.621v-27.254c0-7.518 6.104-13.622 13.622-13.622z" fill="#fcdb35"/><path d="m409.509 169.423h30.507c7.518 0 13.621 6.104 13.621 13.621v27.254c0 7.518-6.103 13.621-13.621 13.621h-30.508c-7.518 0-13.621-6.104-13.621-13.621v-27.254c0-7.518 6.104-13.622 13.622-13.622z" fill="#2dcffc"/><path d="m409.509 169.423h20.945c7.518 0 13.621 6.103 13.621 13.621v27.254c0 7.518-6.103 13.621-13.621 13.621h-20.945c-7.518 0-13.621-6.104-13.621-13.621v-27.254c0-7.518 6.104-13.622 13.622-13.622z" fill="#78eaff"/><path d="m252.009 244.919h30.507c7.518 0 13.621 6.103 13.621 13.621v27.254c0 7.518-6.103 13.621-13.621 13.621h-30.508c-7.518 0-13.621-6.104-13.621-13.621v-27.254c0-7.518 6.104-13.622 13.622-13.622z" fill="#2dcffc"/><rect fill="#78eaff" height="54.497" rx="13.621" width="48.188" x="238.387" y="244.919"/><path d="m330.759 244.919h30.507c7.518 0 13.621 6.103 13.621 13.621v27.254c0 7.518-6.103 13.621-13.621 13.621h-30.508c-7.518 0-13.621-6.103-13.621-13.621v-27.254c0-7.518 6.104-13.622 13.622-13.622z" fill="#4eb1fc"/><path d="m330.759 244.919h20.945c7.518 0 13.621 6.103 13.621 13.621v27.254c0 7.518-6.103 13.621-13.621 13.621h-20.945c-7.518 0-13.621-6.103-13.621-13.621v-27.254c0-7.518 6.104-13.622 13.622-13.622z" fill="#85caff"/><path d="m409.509 244.919h30.507c7.518 0 13.621 6.104 13.621 13.621v27.254c0 7.518-6.103 13.621-13.621 13.621h-30.508c-7.518 0-13.621-6.104-13.621-13.621v-27.254c0-7.518 6.104-13.622 13.622-13.622z" fill="#f2671f"/><rect fill="#ff8748" height="54.497" rx="13.621" width="48.188" x="395.888" y="244.919"/><path d="m330.759 320.416h30.507c7.518 0 13.621 6.103 13.621 13.621v27.254c0 7.518-6.103 13.621-13.621 13.621h-30.508c-7.518 0-13.621-6.103-13.621-13.621v-27.254c0-7.518 6.104-13.622 13.622-13.622z" fill="#c2a9a1"/><path d="m330.759 320.416h20.945c7.518 0 13.621 6.103 13.621 13.621v27.254c0 7.518-6.103 13.621-13.621 13.621h-20.945c-7.518 0-13.621-6.103-13.621-13.621v-27.254c0-7.518 6.104-13.622 13.622-13.622z" fill="#d9c5bf"/><g fill-rule="evenodd"><path d="m154.319 246.61c8.277 8.277 8.277 21.819 0 30.096l71.123-71.123c7.417-7.417 19.555-7.418 26.973 0 7.417 7.418 7.417 19.556 0 26.973l-56.485 56.486c6.784-6.785 17.885-6.785 24.67 0 6.784 6.785 6.785 17.886 0 24.671l-4.045 4.044c6.51-6.51 17.163-6.51 23.674 0 6.511 6.511 6.511 17.163 0 23.674l-9.706 9.706c6.305-6.305 16.621-6.305 22.926 0s6.305 16.621 0 22.926l-28.275 28.275-32.106 32.106c-16.264 16.265-60.539 38.478-76.804 22.213l-67.548-72.558 4.822-4.822c8.635-8.636 12.776-19.361 12.183-31.559l-1.077-22.155c-.593-12.198 3.547-22.923 12.183-31.559l47.395-47.395c8.277-8.277 21.819-8.277 30.096 0z" fill="#fdb0a0"/><path d="m158.333 271.109c-.998 2.024-2.335 3.919-4.014 5.598l71.123-71.123c7.418-7.417 19.555-7.417 26.973 0 7.417 7.417 7.417 19.556 0 26.973l-56.485 56.486c6.784-6.784 17.885-6.784 24.67 0 6.784 6.784 6.785 17.886 0 24.671l-4.044 4.044c6.51-6.51 17.163-6.51 23.673 0 6.511 6.511 6.511 17.163 0 23.673l-3.968 3.969c6.305-6.305 16.621-6.304 22.926 0s6.305 16.621 0 22.926l-34.012 34.012-32.106 32.106c-16.264 16.265-60.539 38.478-76.804 22.213l-58.033-62.337 9.598-9.598c8.635-8.636 12.776-19.361 12.183-31.559l-1.077-22.154c-.593-12.198 3.547-22.923 12.183-31.559l44.567-44.567c4.925-4.925 12.544-5.551 18.206-1.494s7.52 11.471 4.44 17.72z" fill="#ffcec0"/><path d="m29.088 403.729 89.771 89.771c2.895 2.896 7.633 2.895 10.528 0l17.903-17.903c2.895-2.895 2.895-7.633 0-10.528l-89.771-89.771c-2.895-2.895-7.633-2.895-10.528 0l-17.903 17.903c-2.895 2.895-2.895 7.633 0 10.528z" fill="#2a92fa"/><path d="m48.143 422.784 70.716 70.717c2.895 2.895 7.633 2.896 10.528 0l17.904-17.904c2.896-2.895 2.895-7.633 0-10.528l-70.716-70.717c-2.895-2.895-7.633-2.895-10.528 0l-17.904 17.904c-2.896 2.895-2.896 7.633 0 10.528z" fill="#4eb1fc"/><path d="m248.299 202.461-109.679 109.679c-2.713 2.713-7.153 2.713-9.867 0-2.713-2.713-2.714-7.153 0-9.867l96.689-96.689c6.165-6.165 15.59-7.205 22.857-3.122z" fill="#fdb0a0"/><path d="m217.883 286.823-17.398 17.398c-2.713 2.713-7.153 2.713-9.867 0s-2.714-7.154 0-9.867l5.313-5.312c5.939-5.94 15.189-6.679 21.953-2.218z" fill="#fdb0a0"/><path d="m238.095 315.953-17.188 17.188c-2.713 2.713-7.154 2.714-9.868 0-2.714-2.713-2.714-7.154 0-9.867l5.517-5.517c5.84-5.84 15.012-6.44 21.538-1.803z" fill="#fdb0a0"/><path d="m257.48 343.916-13.543 13.543c-2.713 2.713-7.153 2.713-9.867 0-2.713-2.713-2.714-7.154 0-9.867l2.192-2.192c5.764-5.764 14.879-6.257 21.218-1.483z" fill="#fdb0a0"/></g></svg>