<?xml version="1.0"?>
<svg xmlns="http://www.w3.org/2000/svg" viewBox="0 0 64 64" width="512" height="512"><title>Mockup-Phone-website-book-design</title><g id="Flat"><polygon points="53 34 36 34 32 38 53 38 53 34" style="fill:#196aaf"/><polygon points="53 8 36 8 32 12 32 38 36 34 53 34 53 8" style="fill:#dfd9d3"/><polygon points="11 8 28 8 32 12 32 38 28 34 11 34 11 8" style="fill:#b4b0aa"/><rect x="7" y="24" width="25" height="32" rx="3" ry="3" style="fill:#56a8c6"/><path d="M32,27a3,3,0,0,0-3-3H10a3,3,0,0,0-3,3v5H32Z" style="fill:#196aaf"/><rect x="39" y="28" width="18" height="31" rx="3" ry="3" style="fill:#56a8c6"/><path d="M39,51v5a3,3,0,0,0,3,3H54a3,3,0,0,0,3-3V51Z" style="fill:#dfd9d3"/><rect x="47" y="54" width="2" height="2" style="fill:#b4b0aa"/><rect x="12" y="36" width="15" height="4" style="fill:#fbb03b"/><rect x="11" y="43" width="2" height="2" style="fill:#80c5d4"/><rect x="15" y="43" width="13" height="2" style="fill:#80c5d4"/><rect x="11" y="47" width="17" height="2" style="fill:#80c5d4"/><rect x="11" y="51" width="13" height="2" style="fill:#80c5d4"/><rect x="44" y="32" width="8" height="6" style="fill:#fbb03b"/><rect x="43" y="41" width="2" height="2" style="fill:#80c5d4"/><rect x="47" y="41" width="6" height="2" style="fill:#80c5d4"/><rect x="43" y="45" width="10" height="2" style="fill:#80c5d4"/><rect x="38" y="12" width="10" height="12" style="fill:#fbb03b"/><rect x="15" y="11" width="2" height="2" style="fill:#dfd9d3"/><rect x="19" y="11" width="8" height="2" style="fill:#dfd9d3"/><rect x="15" y="15" width="12" height="2" style="fill:#dfd9d3"/><rect x="15" y="19" width="12" height="2" style="fill:#dfd9d3"/><path d="M23,61H9a7.008,7.008,0,0,1-7-7V48H4v6a5.006,5.006,0,0,0,5,5H23Z" style="fill:#b4b0aa"/><rect x="25" y="59" width="2" height="2" style="fill:#b4b0aa"/><rect x="19" y="3" width="24" height="2" style="fill:#b4b0aa"/><rect x="60" y="31" width="2" height="18" style="fill:#b4b0aa"/><rect x="10" y="27" width="2" height="2" style="fill:#da4836"/><rect x="14" y="27" width="2" height="2" style="fill:#f8cf26"/><rect x="18" y="27" width="2" height="2" style="fill:#3dbf50"/></g></svg>
