<svg width="240" height="60" viewBox="0 0 240 60" fill="none" xmlns="http://www.w3.org/2000/svg">
<path d="M30 56C44.3594 56 56 44.3594 56 30C56 15.6406 44.3594 4 30 4C15.6406 4 4 15.6406 4 30C4 44.3594 15.6406 56 30 56Z" fill="#101637" stroke="#242733" stroke-width="4"/>
<path d="M23.5 34H23C21.8954 34 21 34.8954 21 36V44C21 45.1046 21.8954 46 23 46H23.5C24.6046 46 25.5 45.1046 25.5 44V36C25.5 34.8954 24.6046 34 23.5 34Z" fill="white"/>
<path d="M30 24H29.5C28.3954 24 27.5 24.8954 27.5 26V44C27.5 45.1046 28.3954 46 29.5 46H30C31.1046 46 32 45.1046 32 44V26C32 24.8954 31.1046 24 30 24Z" fill="#A78BFA"/>
<path d="M36.5 16H36C34.8954 16 34 16.8954 34 18V44C34 45.1046 34.8954 46 36 46H36.5C37.6046 46 38.5 45.1046 38.5 44V18C38.5 16.8954 37.6046 16 36.5 16Z" fill="#F3F4F6"/>
<path d="M75.58 17.9V32H71.66V24.22L69 32H65.72L63.04 24.16V32H59.12V17.9H63.86L67.4 27.06L70.86 17.9H75.58ZM83.0314 32.14C81.9114 32.14 80.9047 31.9067 80.0114 31.44C79.1314 30.9733 78.4381 30.3067 77.9314 29.44C77.4247 28.5733 77.1714 27.5533 77.1714 26.38C77.1714 25.22 77.4247 24.2067 77.9314 23.34C78.4514 22.4733 79.1514 21.8067 80.0314 21.34C80.9247 20.8733 81.9314 20.64 83.0514 20.64C84.1714 20.64 85.1714 20.8733 86.0514 21.34C86.9447 21.8067 87.6447 22.4733 88.1514 23.34C88.6714 24.2067 88.9314 25.22 88.9314 26.38C88.9314 27.54 88.6714 28.56 88.1514 29.44C87.6447 30.3067 86.9447 30.9733 86.0514 31.44C85.1581 31.9067 84.1514 32.14 83.0314 32.14ZM83.0314 28.74C83.5781 28.74 84.0314 28.54 84.3914 28.14C84.7647 27.7267 84.9514 27.14 84.9514 26.38C84.9514 25.62 84.7647 25.04 84.3914 24.64C84.0314 24.24 83.5847 24.04 83.0514 24.04C82.5181 24.04 82.0714 24.24 81.7114 24.64C81.3514 25.04 81.1714 25.62 81.1714 26.38C81.1714 27.1533 81.3447 27.74 81.6914 28.14C82.0381 28.54 82.4847 28.74 83.0314 28.74ZM97.8663 20.68C99.1596 20.68 100.186 21.1133 100.946 21.98C101.706 22.8333 102.086 23.9933 102.086 25.46V32H98.1663V25.98C98.1663 25.34 97.9996 24.84 97.6663 24.48C97.3329 24.1067 96.8863 23.92 96.3263 23.92C95.7396 23.92 95.2796 24.1067 94.9463 24.48C94.6129 24.84 94.4463 25.34 94.4463 25.98V32H90.5263V20.78H94.4463V22.38C94.7929 21.8733 95.2596 21.4667 95.8463 21.16C96.4329 20.84 97.1063 20.68 97.8663 20.68ZM106.197 19.74C105.504 19.74 104.944 19.5533 104.517 19.18C104.104 18.7933 103.897 18.3133 103.897 17.74C103.897 17.1533 104.104 16.6667 104.517 16.28C104.944 15.8933 105.504 15.7 106.197 15.7C106.877 15.7 107.424 15.8933 107.837 16.28C108.264 16.6667 108.477 17.1533 108.477 17.74C108.477 18.3133 108.264 18.7933 107.837 19.18C107.424 19.5533 106.877 19.74 106.197 19.74ZM108.157 33.1C108.157 35.94 106.731 37.36 103.877 37.36H102.457V34.02H103.297C103.631 34.02 103.871 33.9533 104.017 33.82C104.164 33.6867 104.237 33.4667 104.237 33.16V20.78H108.157V33.1ZM121.09 26.26C121.09 26.5667 121.07 26.8733 121.03 27.18H113.61C113.65 27.7933 113.817 28.2533 114.11 28.56C114.417 28.8533 114.803 29 115.27 29C115.923 29 116.39 28.7067 116.67 28.12H120.85C120.677 28.8933 120.337 29.5867 119.83 30.2C119.337 30.8 118.71 31.2733 117.95 31.62C117.19 31.9667 116.35 32.14 115.43 32.14C114.323 32.14 113.337 31.9067 112.47 31.44C111.617 30.9733 110.943 30.3067 110.45 29.44C109.97 28.5733 109.73 27.5533 109.73 26.38C109.73 25.2067 109.97 24.1933 110.45 23.34C110.93 22.4733 111.597 21.8067 112.45 21.34C113.317 20.8733 114.31 20.64 115.43 20.64C116.537 20.64 117.517 20.8667 118.37 21.32C119.223 21.7733 119.89 22.4267 120.37 23.28C120.85 24.12 121.09 25.1133 121.09 26.26ZM117.09 25.28C117.09 24.8 116.93 24.4267 116.61 24.16C116.29 23.88 115.89 23.74 115.41 23.74C114.93 23.74 114.537 23.8733 114.23 24.14C113.923 24.3933 113.723 24.7733 113.63 25.28H117.09ZM126.414 28.74H131.194V32H122.094V28.9L126.554 24.04H122.134V20.78H131.034V23.88L126.414 28.74ZM145.579 29.7H140.579L139.819 32H135.699L140.839 17.9H145.359L150.479 32H146.339L145.579 29.7ZM144.599 26.7L143.079 22.14L141.579 26.7H144.599ZM151.117 26.38C151.117 25.22 151.323 24.2067 151.737 23.34C152.163 22.4733 152.743 21.8067 153.477 21.34C154.21 20.8733 155.023 20.64 155.917 20.64C156.637 20.64 157.277 20.7933 157.837 21.1C158.41 21.3933 158.857 21.8 159.177 22.32V17.2H163.117V32H159.177V30.44C158.87 30.96 158.437 31.3733 157.877 31.68C157.317 31.9867 156.657 32.14 155.897 32.14C155.003 32.14 154.19 31.9067 153.457 31.44C152.737 30.9733 152.163 30.3067 151.737 29.44C151.323 28.56 151.117 27.54 151.117 26.38ZM159.197 26.38C159.197 25.66 158.997 25.0933 158.597 24.68C158.21 24.2667 157.73 24.06 157.157 24.06C156.57 24.06 156.083 24.2667 155.697 24.68C155.31 25.08 155.117 25.6467 155.117 26.38C155.117 27.1 155.31 27.6733 155.697 28.1C156.083 28.5133 156.57 28.72 157.157 28.72C157.73 28.72 158.21 28.5133 158.597 28.1C158.997 27.6867 159.197 27.1133 159.197 26.38ZM180.01 20.68C181.424 20.68 182.53 21.1067 183.33 21.96C184.144 22.8133 184.55 23.98 184.55 25.46V32H180.63V25.98C180.63 25.38 180.464 24.9133 180.13 24.58C179.797 24.2467 179.344 24.08 178.77 24.08C178.197 24.08 177.744 24.2467 177.41 24.58C177.077 24.9133 176.91 25.38 176.91 25.98V32H172.99V25.98C172.99 25.38 172.824 24.9133 172.49 24.58C172.17 24.2467 171.724 24.08 171.15 24.08C170.564 24.08 170.104 24.2467 169.77 24.58C169.437 24.9133 169.27 25.38 169.27 25.98V32H165.35V20.78H169.27V22.26C169.617 21.78 170.064 21.4 170.61 21.12C171.17 20.8267 171.81 20.68 172.53 20.68C173.357 20.68 174.09 20.86 174.73 21.22C175.384 21.58 175.897 22.0867 176.27 22.74C176.67 22.1267 177.197 21.6333 177.85 21.26C178.504 20.8733 179.224 20.68 180.01 20.68ZM188.678 19.74C187.985 19.74 187.425 19.5533 186.998 19.18C186.585 18.7933 186.378 18.3133 186.378 17.74C186.378 17.1533 186.585 16.6667 186.998 16.28C187.425 15.8933 187.985 15.7 188.678 15.7C189.358 15.7 189.905 15.8933 190.318 16.28C190.745 16.6667 190.958 17.1533 190.958 17.74C190.958 18.3133 190.745 18.7933 190.318 19.18C189.905 19.5533 189.358 19.74 188.678 19.74ZM190.618 20.78V32H186.698V20.78H190.618ZM200.19 20.68C201.484 20.68 202.51 21.1133 203.27 21.98C204.03 22.8333 204.41 23.9933 204.41 25.46V32H200.49V25.98C200.49 25.34 200.324 24.84 199.99 24.48C199.657 24.1067 199.21 23.92 198.65 23.92C198.064 23.92 197.604 24.1067 197.27 24.48C196.937 24.84 196.77 25.34 196.77 25.98V32H192.85V20.78H196.77V22.38C197.117 21.8733 197.584 21.4667 198.17 21.16C198.757 20.84 199.43 20.68 200.19 20.68Z" fill="white"/>
<path d="M61.3672 45.4883H58.0859V48.3945H61.1211V49.2793H58.0859V53H57.1016V44.5977H61.3672V45.4883ZM65.3398 53.1406C64.4531 53.1406 63.7441 52.8613 63.2129 52.3027C62.6855 51.7402 62.4219 50.9961 62.4219 50.0703C62.4219 49.0625 62.6973 48.2754 63.248 47.709C63.7988 47.1426 64.543 46.8594 65.4805 46.8594C66.375 46.8594 67.0723 47.1348 67.5723 47.6855C68.0762 48.2363 68.3281 49 68.3281 49.9766C68.3281 50.9336 68.0566 51.7012 67.5137 52.2793C66.9746 52.8535 66.25 53.1406 65.3398 53.1406ZM65.4102 47.668C64.793 47.668 64.3047 47.8789 63.9453 48.3008C63.5859 48.7188 63.4062 49.2969 63.4062 50.0352C63.4062 50.7461 63.5879 51.3066 63.9512 51.7168C64.3145 52.127 64.8008 52.332 65.4102 52.332C66.0312 52.332 66.5078 52.1309 66.8398 51.7285C67.1758 51.3262 67.3438 50.7539 67.3438 50.0117C67.3438 49.2617 67.1758 48.6836 66.8398 48.2773C66.5078 47.8711 66.0312 47.668 65.4102 47.668ZM72.9922 47.9727C72.8242 47.8438 72.582 47.7793 72.2656 47.7793C71.8555 47.7793 71.5117 47.9727 71.2344 48.3594C70.9609 48.7461 70.8242 49.2734 70.8242 49.9414V53H69.8633V47H70.8242V48.2363H70.8477C70.9844 47.8145 71.1934 47.4863 71.4746 47.252C71.7559 47.0137 72.0703 46.8945 72.418 46.8945C72.668 46.8945 72.8594 46.9219 72.9922 46.9766V47.9727ZM77.457 53V44.5977H79.7773C82.7383 44.5977 84.2188 45.9629 84.2188 48.6934C84.2188 49.9902 83.8066 51.0332 82.9824 51.8223C82.1621 52.6074 81.0625 53 79.6836 53H77.457ZM78.4414 45.4883V52.1094H79.6953C80.7969 52.1094 81.6543 51.8145 82.2676 51.2246C82.8809 50.6348 83.1875 49.7988 83.1875 48.7168C83.1875 46.5645 82.043 45.4883 79.7539 45.4883H78.4414ZM90.5645 50.2402H86.3281C86.3438 50.9082 86.5234 51.4238 86.8672 51.7871C87.2109 52.1504 87.6836 52.332 88.2852 52.332C88.9609 52.332 89.582 52.1094 90.1484 51.6641V52.5664C89.6211 52.9492 88.9238 53.1406 88.0566 53.1406C87.209 53.1406 86.543 52.8691 86.0586 52.3262C85.5742 51.7793 85.332 51.0117 85.332 50.0234C85.332 49.0898 85.5957 48.3301 86.123 47.7441C86.6543 47.1543 87.3125 46.8594 88.0977 46.8594C88.8828 46.8594 89.4902 47.1133 89.9199 47.6211C90.3496 48.1289 90.5645 48.834 90.5645 49.7363V50.2402ZM89.5801 49.4258C89.5762 48.8711 89.4414 48.4395 89.1758 48.1309C88.9141 47.8223 88.5488 47.668 88.0801 47.668C87.627 47.668 87.2422 47.8301 86.9258 48.1543C86.6094 48.4785 86.4141 48.9023 86.3398 49.4258H89.5801ZM96.7402 47L94.3496 53H93.4062L91.1328 47H92.1875L93.7109 51.3594C93.8242 51.6797 93.8945 51.959 93.9219 52.1973H93.9453C93.9844 51.8965 94.0469 51.625 94.1328 51.3828L95.7266 47H96.7402ZM102.6 50.2402H98.3633C98.3789 50.9082 98.5586 51.4238 98.9023 51.7871C99.2461 52.1504 99.7188 52.332 100.32 52.332C100.996 52.332 101.617 52.1094 102.184 51.6641V52.5664C101.656 52.9492 100.959 53.1406 100.092 53.1406C99.2441 53.1406 98.5781 52.8691 98.0938 52.3262C97.6094 51.7793 97.3672 51.0117 97.3672 50.0234C97.3672 49.0898 97.6309 48.3301 98.1582 47.7441C98.6895 47.1543 99.3477 46.8594 100.133 46.8594C100.918 46.8594 101.525 47.1133 101.955 47.6211C102.385 48.1289 102.6 48.834 102.6 49.7363V50.2402ZM101.615 49.4258C101.611 48.8711 101.477 48.4395 101.211 48.1309C100.949 47.8223 100.584 47.668 100.115 47.668C99.6621 47.668 99.2773 47.8301 98.9609 48.1543C98.6445 48.4785 98.4492 48.9023 98.375 49.4258H101.615ZM105.02 53H104.059V44.1172H105.02V53ZM109.473 53.1406C108.586 53.1406 107.877 52.8613 107.346 52.3027C106.818 51.7402 106.555 50.9961 106.555 50.0703C106.555 49.0625 106.83 48.2754 107.381 47.709C107.932 47.1426 108.676 46.8594 109.613 46.8594C110.508 46.8594 111.205 47.1348 111.705 47.6855C112.209 48.2363 112.461 49 112.461 49.9766C112.461 50.9336 112.189 51.7012 111.646 52.2793C111.107 52.8535 110.383 53.1406 109.473 53.1406ZM109.543 47.668C108.926 47.668 108.438 47.8789 108.078 48.3008C107.719 48.7188 107.539 49.2969 107.539 50.0352C107.539 50.7461 107.721 51.3066 108.084 51.7168C108.447 52.127 108.934 52.332 109.543 52.332C110.164 52.332 110.641 52.1309 110.973 51.7285C111.309 51.3262 111.477 50.7539 111.477 50.0117C111.477 49.2617 111.309 48.6836 110.973 48.2773C110.641 47.8711 110.164 47.668 109.543 47.668ZM114.98 52.1328H114.957V55.7598H113.996V47H114.957V48.0547H114.98C115.453 47.2578 116.145 46.8594 117.055 46.8594C117.828 46.8594 118.432 47.1289 118.865 47.668C119.299 48.2031 119.516 48.9219 119.516 49.8242C119.516 50.8281 119.271 51.6328 118.783 52.2383C118.295 52.8398 117.627 53.1406 116.779 53.1406C116.002 53.1406 115.402 52.8047 114.98 52.1328ZM114.957 49.7129V50.5508C114.957 51.0469 115.117 51.4688 115.438 51.8164C115.762 52.1602 116.172 52.332 116.668 52.332C117.25 52.332 117.705 52.1094 118.033 51.6641C118.365 51.2188 118.531 50.5996 118.531 49.8066C118.531 49.1387 118.377 48.6152 118.068 48.2363C117.76 47.8574 117.342 47.668 116.814 47.668C116.256 47.668 115.807 47.8633 115.467 48.2539C115.127 48.6406 114.957 49.127 114.957 49.7129ZM129.57 53H128.609V49.5547C128.609 48.8906 128.506 48.4102 128.299 48.1133C128.096 47.8164 127.752 47.668 127.268 47.668C126.857 47.668 126.508 47.8555 126.219 48.2305C125.934 48.6055 125.791 49.0547 125.791 49.5781V53H124.83V49.4375C124.83 48.2578 124.375 47.668 123.465 47.668C123.043 47.668 122.695 47.8457 122.422 48.2012C122.148 48.5527 122.012 49.0117 122.012 49.5781V53H121.051V47H122.012V47.9492H122.035C122.461 47.2227 123.082 46.8594 123.898 46.8594C124.309 46.8594 124.666 46.9746 124.971 47.2051C125.275 47.4316 125.484 47.7305 125.598 48.1016C126.043 47.2734 126.707 46.8594 127.59 46.8594C128.91 46.8594 129.57 47.6738 129.57 49.3027V53ZM136.209 50.2402H131.973C131.988 50.9082 132.168 51.4238 132.512 51.7871C132.855 52.1504 133.328 52.332 133.93 52.332C134.605 52.332 135.227 52.1094 135.793 51.6641V52.5664C135.266 52.9492 134.568 53.1406 133.701 53.1406C132.854 53.1406 132.188 52.8691 131.703 52.3262C131.219 51.7793 130.977 51.0117 130.977 50.0234C130.977 49.0898 131.24 48.3301 131.768 47.7441C132.299 47.1543 132.957 46.8594 133.742 46.8594C134.527 46.8594 135.135 47.1133 135.564 47.6211C135.994 48.1289 136.209 48.834 136.209 49.7363V50.2402ZM135.225 49.4258C135.221 48.8711 135.086 48.4395 134.82 48.1309C134.559 47.8223 134.193 47.668 133.725 47.668C133.271 47.668 132.887 47.8301 132.57 48.1543C132.254 48.4785 132.059 48.9023 131.984 49.4258H135.225ZM142.648 53H141.688V49.5781C141.688 48.3047 141.223 47.668 140.293 47.668C139.812 47.668 139.414 47.8496 139.098 48.2129C138.785 48.5723 138.629 49.0273 138.629 49.5781V53H137.668V47H138.629V47.9961H138.652C139.105 47.2383 139.762 46.8594 140.621 46.8594C141.277 46.8594 141.779 47.0723 142.127 47.498C142.475 47.9199 142.648 48.5312 142.648 49.332V53ZM147.248 52.9414C147.021 53.0664 146.723 53.1289 146.352 53.1289C145.301 53.1289 144.775 52.543 144.775 51.3711V47.8203H143.744V47H144.775V45.5352L145.736 45.2246V47H147.248V47.8203H145.736V51.2012C145.736 51.6035 145.805 51.8906 145.941 52.0625C146.078 52.2344 146.305 52.3203 146.621 52.3203C146.863 52.3203 147.072 52.2539 147.248 52.1211V52.9414ZM159.318 53.1348C159.096 53.1348 158.898 53.1035 158.727 53.041C158.559 52.9824 158.402 52.8984 158.258 52.7891C158.113 52.6758 157.973 52.5391 157.836 52.3789C157.703 52.2188 157.562 52.0371 157.414 51.834C157.258 52.002 157.076 52.1641 156.869 52.3203C156.666 52.4766 156.439 52.6152 156.189 52.7363C155.939 52.8574 155.666 52.9531 155.369 53.0234C155.072 53.0977 154.75 53.1348 154.402 53.1348C153.98 53.1348 153.594 53.082 153.242 52.9766C152.891 52.8711 152.59 52.7168 152.34 52.5137C152.09 52.3066 151.895 52.0527 151.754 51.752C151.617 51.4512 151.549 51.1055 151.549 50.7148C151.549 50.1172 151.719 49.6074 152.059 49.1855C152.398 48.7598 152.879 48.4121 153.5 48.1426C153.383 48.0566 153.266 47.957 153.148 47.8438C153.031 47.7266 152.926 47.5957 152.832 47.4512C152.742 47.3027 152.668 47.1406 152.609 46.9648C152.555 46.7852 152.527 46.5898 152.527 46.3789C152.527 46.0703 152.582 45.7969 152.691 45.5586C152.805 45.3203 152.959 45.1191 153.154 44.9551C153.35 44.791 153.58 44.668 153.846 44.5859C154.111 44.5 154.398 44.457 154.707 44.457C155.012 44.457 155.289 44.5 155.539 44.5859C155.793 44.668 156.01 44.7871 156.189 44.9434C156.373 45.0996 156.516 45.2871 156.617 45.5059C156.719 45.7246 156.77 45.9688 156.77 46.2383C156.77 46.707 156.635 47.0977 156.365 47.4102C156.1 47.7188 155.699 47.9824 155.164 48.2012C155.434 48.3066 155.678 48.4355 155.896 48.5879C156.115 48.7402 156.316 48.9102 156.5 49.0977C156.688 49.2852 156.861 49.4863 157.021 49.7012C157.182 49.916 157.34 50.1387 157.496 50.3691C157.812 49.9277 158.051 49.4414 158.211 48.9102C158.371 48.3789 158.451 47.8223 158.451 47.2402C158.451 47.0918 158.441 46.9531 158.422 46.8242C158.406 46.6914 158.383 46.5605 158.352 46.4316H159.283C159.314 46.5605 159.332 46.6836 159.336 46.8008C159.344 46.9141 159.352 47.0508 159.359 47.2109C159.359 47.5664 159.322 47.9238 159.248 48.2832C159.174 48.6426 159.074 48.9922 158.949 49.332C158.824 49.668 158.678 49.9883 158.51 50.293C158.346 50.5977 158.172 50.877 157.988 51.1309C158.125 51.3184 158.25 51.4824 158.363 51.623C158.477 51.7598 158.59 51.875 158.703 51.9688C158.82 52.0625 158.939 52.1328 159.061 52.1797C159.186 52.2227 159.326 52.2441 159.482 52.2441C159.6 52.2441 159.719 52.2285 159.84 52.1973C159.961 52.166 160.086 52.127 160.215 52.0801V52.9707C160.074 53.0254 159.926 53.0664 159.77 53.0938C159.617 53.1211 159.467 53.1348 159.318 53.1348ZM154.402 52.3027C154.699 52.3027 154.973 52.2715 155.223 52.209C155.473 52.1426 155.703 52.0566 155.914 51.9512C156.125 51.8418 156.316 51.7168 156.488 51.5762C156.66 51.4316 156.816 51.2812 156.957 51.125C156.719 50.7539 156.498 50.4375 156.295 50.1758C156.096 49.9102 155.893 49.6816 155.686 49.4902C155.482 49.2988 155.264 49.1348 155.029 48.998C154.799 48.8613 154.531 48.7344 154.227 48.6172C153.98 48.7148 153.754 48.8242 153.547 48.9453C153.34 49.0625 153.16 49.2031 153.008 49.3672C152.859 49.5273 152.742 49.7148 152.656 49.9297C152.57 50.1445 152.527 50.3965 152.527 50.6855C152.527 50.9512 152.576 51.1855 152.674 51.3887C152.771 51.5918 152.904 51.7617 153.072 51.8984C153.244 52.0312 153.443 52.1328 153.67 52.2031C153.896 52.2695 154.141 52.3027 154.402 52.3027ZM155.867 46.3203C155.867 46.125 155.83 45.959 155.756 45.8223C155.686 45.6855 155.594 45.5723 155.48 45.4824C155.371 45.3926 155.248 45.3281 155.111 45.2891C154.975 45.2461 154.84 45.2246 154.707 45.2246C154.324 45.2246 154.018 45.3281 153.787 45.5352C153.561 45.7422 153.445 46.0234 153.441 46.3789C153.441 46.5391 153.465 46.6895 153.512 46.8301C153.562 46.9707 153.631 47.1016 153.717 47.2227C153.807 47.3438 153.91 47.4512 154.027 47.5449C154.145 47.6387 154.27 47.7188 154.402 47.7852C154.895 47.6133 155.262 47.4141 155.504 47.1875C155.746 46.957 155.867 46.668 155.867 46.3203ZM169.824 45.4883H167.398V53H166.414V45.4883H163.994V44.5977H169.824V45.4883ZM174.67 50.2402H170.434C170.449 50.9082 170.629 51.4238 170.973 51.7871C171.316 52.1504 171.789 52.332 172.391 52.332C173.066 52.332 173.688 52.1094 174.254 51.6641V52.5664C173.727 52.9492 173.029 53.1406 172.162 53.1406C171.314 53.1406 170.648 52.8691 170.164 52.3262C169.68 51.7793 169.438 51.0117 169.438 50.0234C169.438 49.0898 169.701 48.3301 170.229 47.7441C170.76 47.1543 171.418 46.8594 172.203 46.8594C172.988 46.8594 173.596 47.1133 174.025 47.6211C174.455 48.1289 174.67 48.834 174.67 49.7363V50.2402ZM173.686 49.4258C173.682 48.8711 173.547 48.4395 173.281 48.1309C173.02 47.8223 172.654 47.668 172.186 47.668C171.732 47.668 171.348 47.8301 171.031 48.1543C170.715 48.4785 170.52 48.9023 170.445 49.4258H173.686ZM180.219 52.7246C179.758 53.002 179.211 53.1406 178.578 53.1406C177.723 53.1406 177.031 52.8633 176.504 52.3086C175.98 51.75 175.719 51.0273 175.719 50.1406C175.719 49.1523 176.002 48.3594 176.568 47.7617C177.135 47.1602 177.891 46.8594 178.836 46.8594C179.363 46.8594 179.828 46.957 180.23 47.1523V48.1367C179.785 47.8242 179.309 47.668 178.801 47.668C178.188 47.668 177.684 47.8887 177.289 48.3301C176.898 48.7676 176.703 49.3438 176.703 50.0586C176.703 50.7617 176.887 51.3164 177.254 51.7227C177.625 52.1289 178.121 52.332 178.742 52.332C179.266 52.332 179.758 52.1582 180.219 51.8105V52.7246ZM186.652 53H185.691V49.543C185.691 48.293 185.227 47.668 184.297 47.668C183.828 47.668 183.434 47.8496 183.113 48.2129C182.793 48.5723 182.633 49.0352 182.633 49.6016V53H181.672V44.1172H182.633V47.9961H182.656C183.117 47.2383 183.773 46.8594 184.625 46.8594C185.977 46.8594 186.652 47.6738 186.652 49.3027V53ZM193.449 53H192.488V49.5781C192.488 48.3047 192.023 47.668 191.094 47.668C190.613 47.668 190.215 47.8496 189.898 48.2129C189.586 48.5723 189.43 49.0273 189.43 49.5781V53H188.469V47H189.43V47.9961H189.453C189.906 47.2383 190.562 46.8594 191.422 46.8594C192.078 46.8594 192.58 47.0723 192.928 47.498C193.275 47.9199 193.449 48.5312 193.449 49.332V53ZM197.773 53.1406C196.887 53.1406 196.178 52.8613 195.646 52.3027C195.119 51.7402 194.855 50.9961 194.855 50.0703C194.855 49.0625 195.131 48.2754 195.682 47.709C196.232 47.1426 196.977 46.8594 197.914 46.8594C198.809 46.8594 199.506 47.1348 200.006 47.6855C200.51 48.2363 200.762 49 200.762 49.9766C200.762 50.9336 200.49 51.7012 199.947 52.2793C199.408 52.8535 198.684 53.1406 197.773 53.1406ZM197.844 47.668C197.227 47.668 196.738 47.8789 196.379 48.3008C196.02 48.7188 195.84 49.2969 195.84 50.0352C195.84 50.7461 196.021 51.3066 196.385 51.7168C196.748 52.127 197.234 52.332 197.844 52.332C198.465 52.332 198.941 52.1309 199.273 51.7285C199.609 51.3262 199.777 50.7539 199.777 50.0117C199.777 49.2617 199.609 48.6836 199.273 48.2773C198.941 47.8711 198.465 47.668 197.844 47.668ZM203.258 53H202.297V44.1172H203.258V53ZM207.711 53.1406C206.824 53.1406 206.115 52.8613 205.584 52.3027C205.057 51.7402 204.793 50.9961 204.793 50.0703C204.793 49.0625 205.068 48.2754 205.619 47.709C206.17 47.1426 206.914 46.8594 207.852 46.8594C208.746 46.8594 209.443 47.1348 209.943 47.6855C210.447 48.2363 210.699 49 210.699 49.9766C210.699 50.9336 210.428 51.7012 209.885 52.2793C209.346 52.8535 208.621 53.1406 207.711 53.1406ZM207.781 47.668C207.164 47.668 206.676 47.8789 206.316 48.3008C205.957 48.7188 205.777 49.2969 205.777 50.0352C205.777 50.7461 205.959 51.3066 206.322 51.7168C206.686 52.127 207.172 52.332 207.781 52.332C208.402 52.332 208.879 52.1309 209.211 51.7285C209.547 51.3262 209.715 50.7539 209.715 50.0117C209.715 49.2617 209.547 48.6836 209.211 48.2773C208.879 47.8711 208.402 47.668 207.781 47.668ZM217.355 52.5195C217.355 54.7227 216.301 55.8242 214.191 55.8242C213.449 55.8242 212.801 55.6836 212.246 55.4023V54.4414C212.922 54.8164 213.566 55.0039 214.18 55.0039C215.656 55.0039 216.395 54.2188 216.395 52.6484V51.9922H216.371C215.914 52.7578 215.227 53.1406 214.309 53.1406C213.562 53.1406 212.961 52.875 212.504 52.3438C212.051 51.8086 211.824 51.0918 211.824 50.1934C211.824 49.1738 212.068 48.3633 212.557 47.7617C213.049 47.1602 213.721 46.8594 214.572 46.8594C215.381 46.8594 215.98 47.1836 216.371 47.832H216.395V47H217.355V52.5195ZM216.395 50.2871V49.4023C216.395 48.9258 216.232 48.5176 215.908 48.1777C215.588 47.8379 215.188 47.668 214.707 47.668C214.113 47.668 213.648 47.8848 213.312 48.3184C212.977 48.748 212.809 49.3516 212.809 50.1289C212.809 50.7969 212.969 51.332 213.289 51.7344C213.613 52.1328 214.041 52.332 214.572 52.332C215.111 52.332 215.549 52.1406 215.885 51.7578C216.225 51.375 216.395 50.8848 216.395 50.2871ZM224.076 47L221.316 53.9609C220.824 55.2031 220.133 55.8242 219.242 55.8242C218.992 55.8242 218.783 55.7988 218.615 55.748V54.8867C218.822 54.957 219.012 54.9922 219.184 54.9922C219.668 54.9922 220.031 54.7031 220.273 54.125L220.754 52.9883L218.41 47H219.477L221.1 51.6172C221.119 51.6758 221.16 51.8281 221.223 52.0742H221.258C221.277 51.9805 221.316 51.832 221.375 51.6289L223.08 47H224.076Z" fill="#6366F1"/>
</svg>
