<svg width="350" height="120" viewBox="0 0 350 120" fill="none" xmlns="http://www.w3.org/2000/svg">
<g clip-path="url(#clip0_11_110)">
<path d="M318 18H32C19.8497 18 10 27.8497 10 40V81C10 93.1503 19.8497 103 32 103H318C330.15 103 340 93.1503 340 81V40C340 27.8497 330.15 18 318 18Z" stroke="url(#paint0_linear_11_110)" stroke-width="4"/>
<path d="M95.7759 99.79L91.1859 88.63C94.3659 87.55 97.2759 86.29 99.9159 84.85C102.616 83.41 104.956 81.82 106.936 80.08C108.916 78.34 110.446 76.45 111.526 74.41C112.606 72.31 113.146 70.06 113.146 67.66C113.146 65.14 112.576 62.38 111.436 59.38C110.296 56.38 108.916 53.32 107.296 50.2L119.086 44.53C120.166 46.39 121.096 48.4 121.876 50.56C122.716 52.66 123.406 54.55 123.946 56.23C124.486 57.91 124.846 59.05 125.026 59.65C125.866 62.53 127.006 64.45 128.446 65.41C129.946 66.37 132.346 66.85 135.646 66.85C137.926 66.85 139.546 67.45 140.506 68.65C141.526 69.79 142.036 71.23 142.036 72.97C142.036 74.83 141.406 76.39 140.146 77.65C138.886 78.85 137.086 79.45 134.746 79.45C132.286 79.45 130.126 79.09 128.266 78.37C126.406 77.65 124.906 76.6 123.766 75.22C122.686 73.84 121.996 72.22 121.696 70.36L125.026 72.25C124.666 75.43 123.616 78.43 121.876 81.25C120.196 84.13 118.006 86.77 115.306 89.17C112.606 91.57 109.576 93.67 106.216 95.47C102.856 97.27 99.3759 98.71 95.7759 99.79ZM114.136 35.35C112.276 35.35 110.686 34.72 109.366 33.46C108.106 32.2 107.476 30.64 107.476 28.78C107.476 26.92 108.106 25.33 109.366 24.01C110.686 22.69 112.276 22.03 114.136 22.03C115.936 22.03 117.466 22.69 118.726 24.01C120.046 25.33 120.706 26.92 120.706 28.78C120.706 30.64 120.046 32.2 118.726 33.46C117.466 34.72 115.936 35.35 114.136 35.35ZM193.714 79.45C190.954 79.45 188.374 79.24 185.974 78.82C183.634 78.4 181.474 77.68 179.494 76.66C177.514 75.58 175.744 74.11 174.184 72.25C172.684 70.39 171.424 68.05 170.404 65.23L177.514 59.56C178.594 61.48 179.914 62.98 181.474 64.06C183.034 65.08 184.894 65.8 187.054 66.22C189.214 66.64 191.734 66.85 194.614 66.85C196.894 66.85 198.514 67.45 199.474 68.65C200.434 69.79 200.914 71.23 200.914 72.97C200.914 74.83 200.284 76.39 199.024 77.65C197.824 78.85 196.054 79.45 193.714 79.45ZM134.854 79.45L135.754 66.85C138.994 66.85 142.204 66.67 145.384 66.31C148.564 65.95 151.654 65.41 154.654 64.69C157.654 63.97 160.504 63.04 163.204 61.9C165.964 60.76 168.544 59.38 170.944 57.76C169.144 56.68 167.194 55.75 165.094 54.97C162.994 54.19 160.744 53.62 158.344 53.26C156.004 52.84 153.514 52.63 150.874 52.63C149.914 52.63 148.894 52.66 147.814 52.72C146.794 52.78 145.744 52.9 144.664 53.08C143.584 53.2 142.504 53.38 141.424 53.62L139.624 41.29C141.364 40.81 143.194 40.48 145.114 40.3C147.094 40.06 148.834 39.94 150.334 39.94C153.574 39.94 156.544 40.3 159.244 41.02C162.004 41.74 164.524 42.64 166.804 43.72C169.144 44.8 171.304 45.88 173.284 46.96C175.324 48.04 177.244 48.94 179.044 49.66C180.904 50.38 182.704 50.74 184.444 50.74H187.774L189.214 62.71C186.634 62.83 184.204 63.34 181.924 64.24C179.704 65.08 177.484 66.16 175.264 67.48C173.104 68.74 170.764 70.06 168.244 71.44C165.784 72.82 162.994 74.11 159.874 75.31C156.754 76.51 153.154 77.5 149.074 78.28C144.994 79.06 140.254 79.45 134.854 79.45ZM160.324 99.7C158.584 99.7 157.084 99.1 155.824 97.9C154.624 96.7 154.024 95.23 154.024 93.49C154.024 91.75 154.624 90.22 155.824 88.9C157.084 87.64 158.584 87.01 160.324 87.01C162.064 87.01 163.534 87.64 164.734 88.9C165.994 90.22 166.624 91.75 166.624 93.49C166.624 95.23 165.994 96.7 164.734 97.9C163.534 99.1 162.064 99.7 160.324 99.7ZM193.74 79.45L194.64 66.85C196.92 66.85 198.72 66.64 200.04 66.22C201.42 65.8 202.5 64.96 203.28 63.7C204.12 62.38 204.81 60.46 205.35 57.94C205.95 55.42 206.55 52.06 207.15 47.86L218.94 49.84C218.82 50.74 218.64 51.79 218.4 52.99C218.22 54.19 218.04 55.42 217.86 56.68C217.74 57.88 217.68 59.02 217.68 60.1C217.68 61.54 217.98 62.77 218.58 63.79C219.24 64.75 220.38 65.5 222 66.04C223.68 66.58 226.08 66.85 229.2 66.85C231.48 66.85 233.1 67.45 234.06 68.65C235.02 69.79 235.5 71.23 235.5 72.97C235.5 74.83 234.87 76.39 233.61 77.65C232.41 78.85 230.64 79.45 228.3 79.45C224.16 79.45 220.8 79.06 218.22 78.28C215.64 77.5 213.72 76.18 212.46 74.32C211.2 72.46 210.39 69.91 210.03 66.67H214.35C213.27 69.55 212.01 71.86 210.57 73.6C209.13 75.28 207.51 76.54 205.71 77.38C203.91 78.22 201.99 78.76 199.95 79C197.97 79.3 195.9 79.45 193.74 79.45ZM212.1 38.68C210.24 38.68 208.65 38.05 207.33 36.79C206.07 35.53 205.44 33.97 205.44 32.11C205.44 30.25 206.07 28.66 207.33 27.34C208.65 26.02 210.24 25.36 212.1 25.36C213.9 25.36 215.43 26.02 216.69 27.34C218.01 28.66 218.67 30.25 218.67 32.11C218.67 33.97 218.01 35.53 216.69 36.79C215.43 38.05 213.9 38.68 212.1 38.68ZM228.281 79.45L229.181 66.85C230.561 66.85 231.731 66.52 232.691 65.86C233.711 65.14 234.761 63.97 235.841 62.35C236.921 60.67 238.181 58.42 239.621 55.6C241.421 52 243.281 49.18 245.201 47.14C247.181 45.1 249.191 43.66 251.231 42.82C253.331 41.92 255.431 41.47 257.531 41.47C260.171 41.47 262.631 42.04 264.911 43.18C267.191 44.32 269.171 45.88 270.851 47.86C272.531 49.78 273.821 52 274.721 54.52C275.681 56.98 276.161 59.53 276.161 62.17C276.161 65.35 275.471 68.23 274.091 70.81C272.771 73.33 270.911 75.34 268.511 76.84C266.171 78.28 263.471 79 260.411 79C257.831 79 254.831 78.55 251.411 77.65C247.991 76.75 244.391 74.86 240.611 71.98L245.201 61.09C247.901 62.95 250.421 64.3 252.761 65.14C255.161 65.98 257.141 66.4 258.701 66.4C259.901 66.4 260.891 66.28 261.671 66.04C262.451 65.8 263.021 65.41 263.381 64.87C263.741 64.33 263.921 63.61 263.921 62.71C263.921 61.45 263.621 60.16 263.021 58.84C262.421 57.52 261.611 56.41 260.591 55.51C259.631 54.55 258.491 54.07 257.171 54.07C255.911 54.07 254.831 54.55 253.931 55.51C253.091 56.41 252.251 57.73 251.411 59.47C250.631 61.15 249.671 63.13 248.531 65.41C247.151 68.17 245.801 70.48 244.481 72.34C243.161 74.14 241.751 75.58 240.251 76.66C238.811 77.68 237.101 78.4 235.121 78.82C233.201 79.24 230.921 79.45 228.281 79.45Z" fill="#AFA0FD"/>
<path d="M95.7759 99.79L94.7586 100.208L95.1376 101.13L96.092 100.844L95.7759 99.79ZM91.1859 88.63L90.8322 87.5884L89.7231 87.9651L90.1686 89.0484L91.1859 88.63ZM99.9159 84.85L99.3983 83.8794L99.3892 83.8843L99.9159 84.85ZM106.936 80.08L106.21 79.2537L106.21 79.2537L106.936 80.08ZM111.526 74.41L112.498 74.9247L112.504 74.9131L111.526 74.41ZM111.436 59.38L112.464 58.9893L112.464 58.9893L111.436 59.38ZM107.296 50.2L106.819 49.2087L105.797 49.7003L106.32 50.7069L107.296 50.2ZM119.086 44.53L120.037 43.9776L119.526 43.0977L118.609 43.5387L119.086 44.53ZM121.876 50.56L120.841 50.9336L120.848 50.9512L120.855 50.9685L121.876 50.56ZM123.946 56.23L124.993 55.8934L124.993 55.8934L123.946 56.23ZM125.026 59.65L126.082 59.342L126.08 59.3339L125.026 59.65ZM128.446 65.41L127.836 66.3253L127.844 66.331L127.853 66.3365L128.446 65.41ZM140.506 68.65L139.647 69.3372L139.666 69.3609L139.686 69.3835L140.506 68.65ZM140.146 77.65L140.905 78.4466L140.914 78.4373L140.924 78.4278L140.146 77.65ZM128.266 78.37L127.869 79.3958L127.869 79.3958L128.266 78.37ZM123.766 75.22L122.9 75.8979L122.909 75.9094L122.918 75.9206L123.766 75.22ZM121.696 70.36L122.239 69.4033L120.245 68.2716L120.61 70.5352L121.696 70.36ZM125.026 72.25L126.119 72.3737L126.201 71.6519L125.569 71.2933L125.026 72.25ZM121.876 81.25L120.94 80.6724L120.933 80.684L120.926 80.6957L121.876 81.25ZM115.306 89.17L114.575 88.3479L114.575 88.3479L115.306 89.17ZM106.216 95.47L105.696 94.5004L105.696 94.5004L106.216 95.47ZM109.366 33.46L108.588 34.2378L108.597 34.2469L108.606 34.2557L109.366 33.46ZM109.366 24.01L108.588 23.2322L108.579 23.2412L108.57 23.2505L109.366 24.01ZM118.726 24.01L117.93 24.7695L117.939 24.7788L117.948 24.7878L118.726 24.01ZM118.726 33.46L117.966 32.6643L117.957 32.6731L117.948 32.6822L118.726 33.46ZM95.7759 99.79L96.7933 99.3716L92.2033 88.2116L91.1859 88.63L90.1686 89.0484L94.7586 100.208L95.7759 99.79ZM91.1859 88.63L91.5397 89.6716C94.7726 88.5736 97.7413 87.2892 100.443 85.8157L99.9159 84.85L99.3892 83.8843C96.8106 85.2908 93.9593 86.5264 90.8322 87.5884L91.1859 88.63ZM99.9159 84.85L100.434 85.8206C103.197 84.3469 105.609 82.7104 107.662 80.9063L106.936 80.08L106.21 79.2537C104.303 80.9296 102.035 82.4731 99.3983 83.8794L99.9159 84.85ZM106.936 80.08L107.662 80.9063C109.728 79.0906 111.347 77.0981 112.498 74.9247L111.526 74.41L110.554 73.8953C109.544 75.8019 108.104 77.5894 106.21 79.2537L106.936 80.08ZM111.526 74.41L112.504 74.9131C113.666 72.6548 114.246 70.232 114.246 67.66H113.146H112.046C112.046 69.888 111.546 71.9652 110.548 73.9069L111.526 74.41ZM113.146 67.66H114.246C114.246 64.9755 113.639 62.0814 112.464 58.9893L111.436 59.38L110.408 59.7707C111.513 62.6786 112.046 65.3045 112.046 67.66H113.146ZM111.436 59.38L112.464 58.9893C111.308 55.946 109.91 52.8473 108.272 49.6931L107.296 50.2L106.32 50.7069C107.922 53.7927 109.284 56.814 110.408 59.7707L111.436 59.38ZM107.296 50.2L107.773 51.1913L119.563 45.5213L119.086 44.53L118.609 43.5387L106.819 49.2087L107.296 50.2ZM119.086 44.53L118.135 45.0823C119.179 46.8817 120.082 48.8314 120.841 50.9336L121.876 50.56L122.911 50.1864C122.11 47.9686 121.152 45.8983 120.037 43.9776L119.086 44.53ZM121.876 50.56L120.855 50.9685C121.688 53.0511 122.368 54.9165 122.899 56.5666L123.946 56.23L124.993 55.8934C124.444 54.1835 123.744 52.2689 122.897 50.1515L121.876 50.56ZM123.946 56.23L122.899 56.5666C123.439 58.2478 123.796 59.3779 123.972 59.9661L125.026 59.65L126.08 59.3339C125.896 58.7221 125.533 57.5722 124.993 55.8934L123.946 56.23ZM125.026 59.65L123.97 59.958C124.834 62.9212 126.071 65.1486 127.836 66.3253L128.446 65.41L129.056 64.4947C127.941 63.7514 126.898 62.1388 126.082 59.342L125.026 59.65ZM128.446 65.41L127.853 66.3365C129.625 67.4709 132.289 67.95 135.646 67.95V66.85V65.75C132.403 65.75 130.266 65.2691 129.039 64.4835L128.446 65.41ZM135.646 66.85V67.95C137.758 67.95 138.981 68.505 139.647 69.3372L140.506 68.65L141.365 67.9628C140.111 66.395 138.094 65.75 135.646 65.75V66.85ZM140.506 68.65L139.686 69.3835C140.501 70.294 140.936 71.4608 140.936 72.97H142.036H143.136C143.136 70.9992 142.551 69.286 141.326 67.9165L140.506 68.65ZM142.036 72.97H140.936C140.936 74.5525 140.412 75.8283 139.368 76.8722L140.146 77.65L140.924 78.4278C142.4 76.9517 143.136 75.1075 143.136 72.97H142.036ZM140.146 77.65L139.387 76.8534C138.394 77.7994 136.903 78.35 134.746 78.35V79.45V80.55C137.269 80.55 139.378 79.9006 140.905 78.4466L140.146 77.65ZM134.746 79.45V78.35C132.391 78.35 130.371 78.0052 128.663 77.3442L128.266 78.37L127.869 79.3958C129.881 80.1748 132.181 80.55 134.746 80.55V79.45ZM128.266 78.37L128.663 77.3442C126.958 76.6843 125.621 75.7381 124.614 74.5194L123.766 75.22L122.918 75.9206C124.191 77.4619 125.854 78.6157 127.869 79.3958L128.266 78.37ZM123.766 75.22L124.632 74.5421C123.675 73.3193 123.055 71.8756 122.782 70.1848L121.696 70.36L120.61 70.5352C120.937 72.5644 121.697 74.3607 122.9 75.8979L123.766 75.22ZM121.696 70.36L121.153 71.3167L124.483 73.2067L125.026 72.25L125.569 71.2933L122.239 69.4033L121.696 70.36ZM125.026 72.25L123.933 72.1263C123.592 75.1395 122.598 77.9853 120.94 80.6724L121.876 81.25L122.812 81.8276C124.634 78.8747 125.74 75.7205 126.119 72.3737L125.026 72.25ZM121.876 81.25L120.926 80.6957C119.309 83.4674 117.196 86.0186 114.575 88.3479L115.306 89.17L116.037 89.9922C118.816 87.5214 121.083 84.7926 122.826 81.8043L121.876 81.25ZM115.306 89.17L114.575 88.3479C111.943 90.6875 108.985 92.7388 105.696 94.5004L106.216 95.47L106.735 96.4396C110.167 94.6012 113.269 92.4525 116.037 89.9922L115.306 89.17ZM106.216 95.47L105.696 94.5004C102.4 96.2661 98.9884 97.6778 95.4599 98.7364L95.7759 99.79L96.092 100.844C99.7634 99.7422 103.311 98.2739 106.735 96.4396L106.216 95.47ZM114.136 35.35V34.25C112.553 34.25 111.236 33.7248 110.125 32.6643L109.366 33.46L108.606 34.2557C110.135 35.7152 111.999 36.45 114.136 36.45V35.35ZM109.366 33.46L110.144 32.6822C109.1 31.6383 108.576 30.3625 108.576 28.78H107.476H106.376C106.376 30.9175 107.112 32.7617 108.588 34.2378L109.366 33.46ZM107.476 28.78H108.576C108.576 27.1968 109.101 25.8805 110.162 24.7695L109.366 24.01L108.57 23.2505C107.111 24.7795 106.376 26.6432 106.376 28.78H107.476ZM109.366 24.01L110.144 24.7878C111.258 23.6733 112.569 23.13 114.136 23.13V22.03V20.93C111.983 20.93 110.114 21.7067 108.588 23.2322L109.366 24.01ZM114.136 22.03V23.13C115.631 23.13 116.875 23.6636 117.93 24.7695L118.726 24.01L119.522 23.2505C118.057 21.7164 116.241 20.93 114.136 20.93V22.03ZM118.726 24.01L117.948 24.7878C119.063 25.9024 119.606 27.2129 119.606 28.78H120.706H121.806C121.806 26.6271 121.029 24.7576 119.504 23.2322L118.726 24.01ZM120.706 28.78H119.606C119.606 30.3459 119.064 31.6163 117.966 32.6643L118.726 33.46L119.485 34.2557C121.028 32.7836 121.806 30.9341 121.806 28.78H120.706ZM118.726 33.46L117.948 32.6822C116.897 33.7335 115.648 34.25 114.136 34.25V35.35V36.45C116.224 36.45 118.035 35.7064 119.504 34.2378L118.726 33.46ZM185.974 78.82L185.779 79.9027L185.784 79.9035L185.974 78.82ZM179.494 76.66L178.967 77.6257L178.978 77.6319L178.99 77.6379L179.494 76.66ZM174.184 72.25L173.327 72.9405L173.334 72.9488L173.341 72.9569L174.184 72.25ZM170.404 65.23L169.718 64.37L169.101 64.862L169.369 65.6041L170.404 65.23ZM177.514 59.56L178.472 59.0207L177.838 57.8939L176.828 58.7L177.514 59.56ZM181.474 64.06L180.847 64.9644L180.859 64.9727L180.872 64.9807L181.474 64.06ZM199.474 68.65L198.615 69.3372L198.623 69.348L198.632 69.3585L199.474 68.65ZM199.024 77.65L199.801 78.4278L199.801 78.4278L199.024 77.65ZM134.854 79.45L133.756 79.3716L133.672 80.55H134.854V79.45ZM135.754 66.85V65.75H134.729L134.656 66.7716L135.754 66.85ZM145.384 66.31L145.507 67.403L145.507 67.403L145.384 66.31ZM154.654 64.69L154.397 63.6204L154.397 63.6204L154.654 64.69ZM163.204 61.9L162.784 60.8833L162.776 60.8866L163.204 61.9ZM170.944 57.76L171.559 58.6717L172.991 57.7054L171.509 56.8168L170.944 57.76ZM165.094 54.97L165.477 53.9388L165.477 53.9388L165.094 54.97ZM158.344 53.26L158.149 54.3427L158.165 54.3455L158.18 54.3478L158.344 53.26ZM147.814 52.72L147.752 51.6217L147.749 51.6219L147.814 52.72ZM144.664 53.08L144.785 54.1733L144.815 54.17L144.844 54.165L144.664 53.08ZM141.424 53.62L140.335 53.7789L140.506 54.9507L141.662 54.6938L141.424 53.62ZM139.624 41.29L139.331 40.2296L138.395 40.4879L138.535 41.4489L139.624 41.29ZM145.114 40.3L145.216 41.3952L145.231 41.3938L145.246 41.392L145.114 40.3ZM159.244 41.02L158.96 42.0829L158.966 42.0844L159.244 41.02ZM166.804 43.72L166.333 44.7142L166.343 44.7188L166.804 43.72ZM173.284 46.96L172.757 47.9258L172.769 47.9322L173.284 46.96ZM179.044 49.66L178.635 50.6814L178.646 50.6858L179.044 49.66ZM187.774 50.74L188.866 50.6086L188.749 49.64H187.774V50.74ZM189.214 62.71L189.265 63.8088L190.447 63.7538L190.306 62.5786L189.214 62.71ZM181.924 64.24L182.313 65.2688L182.32 65.266L182.327 65.2632L181.924 64.24ZM175.264 67.48L175.818 68.4302L175.826 68.4255L175.264 67.48ZM168.244 71.44L167.715 70.4751L167.705 70.4806L168.244 71.44ZM159.874 75.31L160.268 76.3367L160.268 76.3367L159.874 75.31ZM149.074 78.28L149.28 79.3604L149.074 78.28ZM155.824 97.9L155.046 98.6778L155.055 98.6873L155.065 98.6966L155.824 97.9ZM155.824 88.9L155.046 88.1222L155.027 88.1407L155.01 88.1601L155.824 88.9ZM164.734 88.9L163.937 89.6586L163.938 89.6595L164.734 88.9ZM164.734 97.9L163.975 97.1034L163.965 97.1127L163.956 97.1222L164.734 97.9ZM193.714 79.45V78.35C191.009 78.35 188.493 78.1442 186.163 77.7365L185.974 78.82L185.784 79.9035C188.254 80.3358 190.898 80.55 193.714 80.55V79.45ZM185.974 78.82L186.168 77.7373C183.928 77.3353 181.874 76.6487 179.997 75.6821L179.494 76.66L178.99 77.6379C181.073 78.7113 183.339 79.4647 185.779 79.9027L185.974 78.82ZM179.494 76.66L180.02 75.6943C178.17 74.685 176.505 73.306 175.026 71.5431L174.184 72.25L173.341 72.9569C174.982 74.914 176.857 76.475 178.967 77.6257L179.494 76.66ZM174.184 72.25L175.04 71.5595C173.633 69.815 172.427 67.5892 171.438 64.8558L170.404 65.23L169.369 65.6041C170.42 68.5108 171.734 70.965 173.327 72.9405L174.184 72.25ZM170.404 65.23L171.089 66.09L178.199 60.42L177.514 59.56L176.828 58.7L169.718 64.37L170.404 65.23ZM177.514 59.56L176.555 60.0993C177.703 62.1413 179.13 63.7753 180.847 64.9644L181.474 64.06L182.1 63.1556C180.697 62.1847 179.484 60.8187 178.472 59.0207L177.514 59.56ZM181.474 64.06L180.872 64.9807C182.57 66.0913 184.569 66.8574 186.844 67.2998L187.054 66.22L187.263 65.1402C185.218 64.7426 183.497 64.0687 182.075 63.1393L181.474 64.06ZM187.054 66.22L186.844 67.2998C189.09 67.7366 191.683 67.95 194.614 67.95V66.85V65.75C191.784 65.75 189.337 65.5434 187.263 65.1402L187.054 66.22ZM194.614 66.85V67.95C196.726 67.95 197.949 68.505 198.615 69.3372L199.474 68.65L200.332 67.9628C199.078 66.395 197.061 65.75 194.614 65.75V66.85ZM199.474 68.65L198.632 69.3585C199.398 70.2679 199.814 71.4436 199.814 72.97H200.914H202.014C202.014 71.0164 201.469 69.3121 200.315 67.9415L199.474 68.65ZM200.914 72.97H199.814C199.814 74.5525 199.29 75.8283 198.246 76.8722L199.024 77.65L199.801 78.4278C201.277 76.9517 202.014 75.1075 202.014 72.97H200.914ZM199.024 77.65L198.246 76.8722C197.32 77.7979 195.875 78.35 193.714 78.35V79.45V80.55C196.232 80.55 198.327 79.9021 199.801 78.4278L199.024 77.65ZM134.854 79.45L135.951 79.5284L136.851 66.9284L135.754 66.85L134.656 66.7716L133.756 79.3716L134.854 79.45ZM135.754 66.85V67.95C139.034 67.95 142.286 67.7677 145.507 67.403L145.384 66.31L145.26 65.217C142.121 65.5723 138.953 65.75 135.754 65.75V66.85ZM145.384 66.31L145.507 67.403C148.73 67.0381 151.865 66.4905 154.91 65.7596L154.654 64.69L154.397 63.6204C151.442 64.3295 148.397 64.8619 145.26 65.217L145.384 66.31ZM154.654 64.69L154.91 65.7596C157.966 65.0263 160.873 64.078 163.631 62.9134L163.204 61.9L162.776 60.8866C160.134 62.002 157.341 62.9137 154.397 63.6204L154.654 64.69ZM163.204 61.9L163.623 62.9167C166.45 61.7493 169.096 60.3345 171.559 58.6717L170.944 57.76L170.328 56.8483C167.991 58.4255 165.477 59.7707 162.784 60.8833L163.204 61.9ZM170.944 57.76L171.509 56.8168C169.648 55.6996 167.636 54.7409 165.477 53.9388L165.094 54.97L164.711 56.0012C166.751 56.7591 168.639 57.6604 170.378 58.7032L170.944 57.76ZM165.094 54.97L165.477 53.9388C163.3 53.1303 160.976 52.5425 158.507 52.1722L158.344 53.26L158.18 54.3478C160.511 54.6975 162.687 55.2497 164.711 56.0012L165.094 54.97ZM158.344 53.26L158.538 52.1773C156.127 51.7446 153.572 51.53 150.874 51.53V52.63V53.73C153.455 53.73 155.88 53.9354 158.149 54.3427L158.344 53.26ZM150.874 52.63V51.53C149.891 51.53 148.85 51.5607 147.753 51.6217L147.814 52.72L147.875 53.8183C148.937 53.7593 149.936 53.73 150.874 53.73V52.63ZM147.814 52.72L147.749 51.6219C146.687 51.6843 145.598 51.809 144.483 51.995L144.664 53.08L144.844 54.165C145.889 53.991 146.9 53.8757 147.878 53.8181L147.814 52.72ZM144.664 53.08L144.542 51.9867C143.422 52.1112 142.303 52.2978 141.185 52.5462L141.424 53.62L141.662 54.6938C142.704 54.4622 143.745 54.2888 144.785 54.1733L144.664 53.08ZM141.424 53.62L142.512 53.4611L140.712 41.1311L139.624 41.29L138.535 41.4489L140.335 53.7789L141.424 53.62ZM139.624 41.29L139.916 42.3504C141.59 41.8887 143.356 41.5696 145.216 41.3952L145.114 40.3L145.011 39.2048C143.031 39.3904 141.137 39.7313 139.331 40.2296L139.624 41.29ZM145.114 40.3L145.246 41.392C147.195 41.1557 148.889 41.04 150.334 41.04V39.94V38.84C148.778 38.84 146.992 38.9643 144.981 39.208L145.114 40.3ZM150.334 39.94V41.04C153.493 41.04 156.366 41.3911 158.96 42.0829L159.244 41.02L159.527 39.9571C156.721 39.2089 153.654 38.84 150.334 38.84V39.94ZM159.244 41.02L158.966 42.0844C161.668 42.7892 164.122 43.667 166.333 44.7141L166.804 43.72L167.274 42.7259C164.925 41.613 162.339 40.6908 159.521 39.9556L159.244 41.02ZM166.804 43.72L166.343 44.7188C168.663 45.7899 170.801 46.859 172.757 47.9257L173.284 46.96L173.81 45.9943C171.806 44.901 169.624 43.8101 167.264 42.7212L166.804 43.72ZM173.284 46.96L172.769 47.9322C174.837 49.0271 176.793 49.9444 178.635 50.6813L179.044 49.66L179.452 48.6387C177.694 47.9356 175.81 47.0529 173.798 45.9878L173.284 46.96ZM179.044 49.66L178.646 50.6858C180.615 51.4478 182.549 51.84 184.444 51.84V50.74V49.64C182.858 49.64 181.192 49.3122 179.441 48.6342L179.044 49.66ZM184.444 50.74V51.84H187.774V50.74V49.64H184.444V50.74ZM187.774 50.74L186.681 50.8714L188.121 62.8414L189.214 62.71L190.306 62.5786L188.866 50.6086L187.774 50.74ZM189.214 62.71L189.162 61.6112C186.468 61.7365 183.918 62.27 181.52 63.2168L181.924 64.24L182.327 65.2632C184.489 64.41 186.799 63.9235 189.265 63.8088L189.214 62.71ZM181.924 64.24L181.534 63.2112C179.249 64.0758 176.972 65.1846 174.701 66.5345L175.264 67.48L175.826 68.4255C177.995 67.1354 180.158 66.0842 182.313 65.2688L181.924 64.24ZM175.264 67.48L174.709 66.5298C172.559 67.7842 170.228 69.0993 167.715 70.4752L168.244 71.44L168.772 72.4048C171.299 71.0207 173.648 69.6958 175.818 68.4302L175.264 67.48ZM168.244 71.44L167.705 70.4806C165.299 71.8306 162.558 73.0989 159.479 74.2833L159.874 75.31L160.268 76.3367C163.429 75.1211 166.268 73.8094 168.782 72.3994L168.244 71.44ZM159.874 75.31L159.479 74.2833C156.432 75.455 152.897 76.429 148.867 77.1996L149.074 78.28L149.28 79.3604C153.41 78.571 157.075 77.565 160.268 76.3367L159.874 75.31ZM149.074 78.28L148.867 77.1996C144.872 77.9634 140.204 78.35 134.854 78.35V79.45V80.55C140.303 80.55 145.115 80.1566 149.28 79.3604L149.074 78.28ZM160.324 99.7V98.6C158.866 98.6 157.638 98.1087 156.582 97.1034L155.824 97.9L155.065 98.6966C156.529 100.091 158.301 100.8 160.324 100.8V99.7ZM155.824 97.9L156.601 97.1222C155.613 96.1342 155.124 94.9465 155.124 93.49H154.024H152.924C152.924 95.5135 153.634 97.2658 155.046 98.6778L155.824 97.9ZM154.024 93.49H155.124C155.124 92.0312 155.616 90.7631 156.637 89.6399L155.824 88.9L155.01 88.1601C153.631 89.6769 152.924 91.4688 152.924 93.49H154.024ZM155.824 88.9L156.601 89.6778C157.661 88.6185 158.883 88.11 160.324 88.11V87.01V85.91C158.284 85.91 156.506 86.6615 155.046 88.1222L155.824 88.9ZM160.324 87.01V88.11C161.762 88.11 162.945 88.6166 163.937 89.6586L164.734 88.9L165.53 88.1414C164.122 86.6634 162.365 85.91 160.324 85.91V87.01ZM164.734 88.9L163.938 89.6595C165.013 90.7859 165.524 92.0478 165.524 93.49H166.624H167.724C167.724 91.4522 166.974 89.6541 165.529 88.1405L164.734 88.9ZM166.624 93.49H165.524C165.524 94.929 165.017 96.1111 163.975 97.1034L164.734 97.9L165.492 98.6966C166.97 97.2889 167.724 95.531 167.724 93.49H166.624ZM164.734 97.9L163.956 97.1222C162.968 98.1101 161.78 98.6 160.324 98.6V99.7V100.8C162.347 100.8 164.099 100.09 165.511 98.6778L164.734 97.9ZM193.74 79.45L192.643 79.3716L192.559 80.55H193.74V79.45ZM194.64 66.85V65.75H193.616L193.543 66.7716L194.64 66.85ZM200.04 66.22L199.72 65.1676L199.707 65.1718L200.04 66.22ZM203.28 63.7L202.352 63.1094L202.345 63.121L203.28 63.7ZM205.35 57.94L204.28 57.6852L204.277 57.6973L204.275 57.7095L205.35 57.94ZM207.15 47.86L207.332 46.7752L206.221 46.5885L206.061 47.7044L207.15 47.86ZM218.94 49.84L220.031 49.9854L220.171 48.9313L219.122 48.7552L218.94 49.84ZM218.4 52.99L217.322 52.7743L217.316 52.8004L217.312 52.8268L218.4 52.99ZM217.86 56.68L216.771 56.5244L216.768 56.5474L216.766 56.5705L217.86 56.68ZM218.58 63.79L217.632 64.3477L217.652 64.3812L217.674 64.4132L218.58 63.79ZM222 66.04L221.652 67.0836L221.664 67.0872L222 66.04ZM234.06 68.65L233.201 69.3372L233.21 69.348L233.219 69.3585L234.06 68.65ZM233.61 77.65L234.388 78.4278L234.388 78.4278L233.61 77.65ZM218.22 78.28L217.902 79.3329L217.902 79.3329L218.22 78.28ZM212.46 74.32L211.55 74.9369L211.55 74.9369L212.46 74.32ZM210.03 66.67V65.57H208.801L208.937 66.7915L210.03 66.67ZM214.35 66.67L215.38 67.0562L215.938 65.57H214.35V66.67ZM210.57 73.6L211.405 74.3159L211.412 74.3087L211.418 74.3013L210.57 73.6ZM205.71 77.38L205.245 76.3832L205.245 76.3832L205.71 77.38ZM199.95 79L199.822 77.9075L199.804 77.9097L199.785 77.9124L199.95 79ZM207.33 36.79L206.552 37.5678L206.561 37.5769L206.571 37.5857L207.33 36.79ZM207.33 27.34L206.552 26.5622L206.543 26.5712L206.535 26.5805L207.33 27.34ZM216.69 27.34L215.895 28.0995L215.903 28.1088L215.912 28.1178L216.69 27.34ZM216.69 36.79L215.931 35.9943L215.921 36.0031L215.912 36.0122L216.69 36.79ZM193.74 79.45L194.837 79.5284L195.737 66.9284L194.64 66.85L193.543 66.7716L192.643 79.3716L193.74 79.45ZM194.64 66.85V67.95C196.97 67.95 198.899 67.7375 200.374 67.2682L200.04 66.22L199.707 65.1718C198.542 65.5425 196.87 65.75 194.64 65.75V66.85ZM200.04 66.22L200.361 67.2723C202.004 66.7722 203.299 65.7594 204.216 64.279L203.28 63.7L202.345 63.121C201.701 64.1606 200.837 64.8278 199.72 65.1677L200.04 66.22ZM203.28 63.7L204.208 64.2906C205.149 62.8118 205.874 60.7466 206.426 58.1705L205.35 57.94L204.275 57.7095C203.747 60.1734 203.091 61.9482 202.352 63.1094L203.28 63.7ZM205.35 57.94L206.42 58.1948C207.031 55.6281 207.637 52.2308 208.239 48.0156L207.15 47.86L206.061 47.7044C205.463 51.8892 204.869 55.2119 204.28 57.6852L205.35 57.94ZM207.15 47.86L206.968 48.9448L218.758 50.9248L218.94 49.84L219.122 48.7552L207.332 46.7752L207.15 47.86ZM218.94 49.84L217.85 49.6946C217.734 50.5646 217.558 51.5902 217.322 52.7743L218.4 52.99L219.479 53.2057C219.722 51.9898 219.907 50.9154 220.031 49.9854L218.94 49.84ZM218.4 52.99L217.312 52.8268C217.132 54.0295 216.952 55.262 216.771 56.5244L217.86 56.68L218.949 56.8356C219.129 55.578 219.308 54.3505 219.488 53.1532L218.4 52.99ZM217.86 56.68L216.766 56.5705C216.642 57.8028 216.58 58.9795 216.58 60.1H217.68H218.78C218.78 59.0605 218.838 57.9572 218.955 56.7895L217.86 56.68ZM217.68 60.1H216.58C216.58 61.6937 216.913 63.1255 217.632 64.3477L218.58 63.79L219.528 63.2323C219.047 62.4145 218.78 61.3863 218.78 60.1H217.68ZM218.58 63.79L217.674 64.4132C218.519 65.6433 219.907 66.5017 221.652 67.0836L222 66.04L222.348 64.9964C220.854 64.4983 219.961 63.8567 219.487 63.1668L218.58 63.79ZM222 66.04L221.664 67.0872C223.505 67.6792 226.039 67.95 229.2 67.95V66.85V65.75C226.121 65.75 223.855 65.4808 222.337 64.9928L222 66.04ZM229.2 66.85V67.95C231.312 67.95 232.536 68.505 233.201 69.3372L234.06 68.65L234.919 67.9628C233.665 66.395 231.648 65.75 229.2 65.75V66.85ZM234.06 68.65L233.219 69.3585C233.985 70.2679 234.4 71.4436 234.4 72.97H235.5H236.6C236.6 71.0164 236.056 69.3121 234.902 67.9415L234.06 68.65ZM235.5 72.97H234.4C234.4 74.5525 233.876 75.8283 232.832 76.8722L233.61 77.65L234.388 78.4278C235.864 76.9517 236.6 75.1075 236.6 72.97H235.5ZM233.61 77.65L232.832 76.8722C231.907 77.7979 230.461 78.35 228.3 78.35V79.45V80.55C230.819 80.55 232.914 79.9021 234.388 78.4278L233.61 77.65ZM228.3 79.45V78.35C224.217 78.35 220.976 77.9639 218.539 77.2271L218.22 78.28L217.902 79.3329C220.625 80.1561 224.104 80.55 228.3 80.55V79.45ZM218.22 78.28L218.539 77.2271C216.15 76.505 214.463 75.3145 213.371 73.7031L212.46 74.32L211.55 74.9369C212.978 77.0455 215.13 78.495 217.902 79.3329L218.22 78.28ZM212.46 74.32L213.371 73.7031C212.246 72.0426 211.472 69.6855 211.124 66.5485L210.03 66.67L208.937 66.7915C209.308 70.1345 210.154 72.8774 211.55 74.9369L212.46 74.32ZM210.03 66.67V67.77H214.35V66.67V65.57H210.03V66.67ZM214.35 66.67L213.32 66.2838C212.269 69.0879 211.062 71.28 209.723 72.8987L210.57 73.6L211.418 74.3013C212.958 72.44 214.272 70.0121 215.38 67.0562L214.35 66.67ZM210.57 73.6L209.735 72.8841C208.385 74.4588 206.888 75.6166 205.245 76.3832L205.71 77.38L206.175 78.3768C208.133 77.4634 209.875 76.1012 211.405 74.3159L210.57 73.6ZM205.71 77.38L205.245 76.3832C203.555 77.1719 201.749 77.6808 199.822 77.9075L199.95 79L200.079 80.0925C202.231 79.8392 204.265 79.2681 206.175 78.3768L205.71 77.38ZM199.95 79L199.785 77.9124C197.864 78.2035 195.849 78.35 193.74 78.35V79.45V80.55C195.951 80.55 198.076 80.3965 200.115 80.0876L199.95 79ZM212.1 38.68V37.58C210.517 37.58 209.201 37.0548 208.09 35.9943L207.33 36.79L206.571 37.5857C208.1 39.0452 209.963 39.78 212.1 39.78V38.68ZM207.33 36.79L208.108 36.0122C207.064 34.9683 206.54 33.6925 206.54 32.11H205.44H204.34C204.34 34.2475 205.076 36.0917 206.552 37.5678L207.33 36.79ZM205.44 32.11H206.54C206.54 30.5268 207.065 29.2105 208.126 28.0995L207.33 27.34L206.535 26.5805C205.075 28.1095 204.34 29.9732 204.34 32.11H205.44ZM207.33 27.34L208.108 28.1178C209.223 27.0033 210.533 26.46 212.1 26.46V25.36V24.26C209.947 24.26 208.078 25.0367 206.552 26.5622L207.33 27.34ZM212.1 25.36V26.46C213.595 26.46 214.839 26.9936 215.895 28.0995L216.69 27.34L217.486 26.5805C216.022 25.0464 214.206 24.26 212.1 24.26V25.36ZM216.69 27.34L215.912 28.1178C217.027 29.2324 217.57 30.5429 217.57 32.11H218.67H219.77C219.77 29.9571 218.993 28.0876 217.468 26.5622L216.69 27.34ZM218.67 32.11H217.57C217.57 33.6759 217.029 34.9464 215.931 35.9943L216.69 36.79L217.45 37.5857C218.992 36.1136 219.77 34.2641 219.77 32.11H218.67ZM216.69 36.79L215.912 36.0122C214.861 37.0635 213.612 37.58 212.1 37.58V38.68V39.78C214.189 39.78 215.999 39.0364 217.468 37.5678L216.69 36.79ZM228.281 79.45L227.184 79.3716L227.1 80.55H228.281V79.45ZM229.181 66.85V65.75H228.157L228.084 66.7716L229.181 66.85ZM232.691 65.86L233.314 66.7665L233.326 66.7587L232.691 65.86ZM235.841 62.35L236.757 62.9602L236.762 62.9525L236.767 62.9448L235.841 62.35ZM239.621 55.6L240.601 56.1003L240.605 56.0919L239.621 55.6ZM245.201 47.14L244.412 46.3739L244.406 46.3799L244.4 46.3861L245.201 47.14ZM251.231 42.82L251.65 43.8371L251.657 43.8342L251.665 43.8311L251.231 42.82ZM264.911 43.18L265.403 42.1961L265.403 42.1961L264.911 43.18ZM270.851 47.86L270.012 48.5717L270.018 48.5781L270.023 48.5844L270.851 47.86ZM274.721 54.52L273.685 54.89L273.691 54.905L273.697 54.9199L274.721 54.52ZM274.091 70.81L273.121 70.2912L273.117 70.2996L274.091 70.81ZM268.511 76.84L269.088 77.7768L269.094 77.7728L268.511 76.84ZM251.411 77.65L251.131 78.7138L251.131 78.7138L251.411 77.65ZM240.611 71.98L239.598 71.5528L239.267 72.3383L239.945 72.855L240.611 71.98ZM245.201 61.09L245.825 60.1841L244.712 59.4175L244.188 60.6628L245.201 61.09ZM252.761 65.14L252.39 66.1753L252.398 66.1782L252.761 65.14ZM261.671 66.04L261.348 64.9886L261.348 64.9886L261.671 66.04ZM263.021 58.84L262.02 59.2952L262.02 59.2952L263.021 58.84ZM260.591 55.51L259.813 56.2878L259.838 56.3121L259.863 56.3348L260.591 55.51ZM253.931 55.51L253.129 54.7577L253.127 54.7594L253.931 55.51ZM251.411 59.47L250.421 58.9918L250.417 58.9992L250.414 59.0068L251.411 59.47ZM248.531 65.41L247.547 64.9181L247.547 64.9181L248.531 65.41ZM244.481 72.34L245.368 72.9905L245.373 72.9836L245.378 72.9766L244.481 72.34ZM240.251 76.66L240.887 77.5577L240.894 77.5527L240.251 76.66ZM235.121 78.82L234.893 77.7439L234.886 77.7454L235.121 78.82ZM228.281 79.45L229.378 79.5284L230.278 66.9284L229.181 66.85L228.084 66.7716L227.184 79.3716L228.281 79.45ZM229.181 66.85V67.95C230.742 67.95 232.139 67.5744 233.314 66.7664L232.691 65.86L232.068 64.9536C231.323 65.4656 230.381 65.75 229.181 65.75V66.85ZM232.691 65.86L233.326 66.7587C234.5 65.9294 235.639 64.6368 236.757 62.9602L235.841 62.35L234.926 61.7398C233.884 63.3032 232.922 64.3506 232.057 64.9613L232.691 65.86ZM235.841 62.35L236.767 62.9448C237.874 61.2219 239.153 58.9363 240.601 56.1003L239.621 55.6L238.642 55.0997C237.21 57.9037 235.968 60.1181 234.916 61.7552L235.841 62.35ZM239.621 55.6L240.605 56.0919C242.376 52.5497 244.18 49.8301 246.002 47.8939L245.201 47.14L244.4 46.3861C242.383 48.5299 240.466 51.4503 238.637 55.1081L239.621 55.6ZM245.201 47.14L245.991 47.9061C247.895 45.9444 249.783 44.6057 251.65 43.8371L251.231 42.82L250.812 41.8029C248.599 42.7143 246.468 44.2556 244.412 46.3739L245.201 47.14ZM251.231 42.82L251.665 43.8311C253.64 42.9845 255.593 42.57 257.531 42.57V41.47V40.37C255.27 40.37 253.023 40.8555 250.798 41.8089L251.231 42.82ZM257.531 41.47V42.57C260.007 42.57 262.298 43.103 264.419 44.1639L264.911 43.18L265.403 42.1961C262.965 40.977 260.336 40.37 257.531 40.37V41.47ZM264.911 43.18L264.419 44.1639C266.564 45.2362 268.427 46.7027 270.012 48.5717L270.851 47.86L271.69 47.1483C269.916 45.0573 267.818 43.4038 265.403 42.1961L264.911 43.18ZM270.851 47.86L270.023 48.5844C271.608 50.3953 272.83 52.4937 273.685 54.89L274.721 54.52L275.757 54.15C274.813 51.5063 273.454 49.1647 271.679 47.1356L270.851 47.86ZM274.721 54.52L273.697 54.9199C274.607 57.2525 275.061 59.6669 275.061 62.17H276.161H277.261C277.261 59.3931 276.756 56.7075 275.746 54.1201L274.721 54.52ZM276.161 62.17H275.061C275.061 65.1851 274.409 67.8844 273.121 70.2912L274.091 70.81L275.061 71.3288C276.534 68.5756 277.261 65.5149 277.261 62.17H276.161ZM274.091 70.81L273.117 70.2996C271.887 72.6475 270.162 74.5113 267.928 75.9072L268.511 76.84L269.094 77.7728C271.661 76.1687 273.656 74.0125 275.066 71.3204L274.091 70.81ZM268.511 76.84L267.935 75.9032C265.787 77.2247 263.292 77.9 260.411 77.9V79V80.1C263.651 80.1 266.555 79.3353 269.088 77.7768L268.511 76.84ZM260.411 79V77.9C257.953 77.9 255.051 77.4704 251.691 76.5862L251.411 77.65L251.131 78.7138C254.611 79.6296 257.709 80.1 260.411 80.1V79ZM251.411 77.65L251.691 76.5862C248.45 75.7334 244.98 73.9257 241.278 71.105L240.611 71.98L239.945 72.855C243.802 75.7943 247.532 77.7666 251.131 78.7138L251.411 77.65ZM240.611 71.98L241.625 72.4072L246.215 61.5172L245.201 61.09L244.188 60.6628L239.598 71.5528L240.611 71.98ZM245.201 61.09L244.577 61.9959C247.332 63.8937 249.937 65.2949 252.39 66.1753L252.761 65.14L253.133 64.1047C250.905 63.3051 248.47 62.0063 245.825 60.1841L245.201 61.09ZM252.761 65.14L252.398 66.1782C254.851 67.0367 256.964 67.5 258.701 67.5V66.4V65.3C257.318 65.3 255.472 64.9233 253.125 64.1018L252.761 65.14ZM258.701 66.4V67.5C259.964 67.5 261.073 67.3749 261.995 67.0914L261.671 66.04L261.348 64.9886C260.709 65.1851 259.838 65.3 258.701 65.3V66.4ZM261.671 66.04L261.995 67.0914C262.953 66.7965 263.763 66.2806 264.297 65.4802L263.381 64.87L262.466 64.2598C262.28 64.5394 261.949 64.8035 261.348 64.9886L261.671 66.04ZM263.381 64.87L264.297 65.4802C264.815 64.7021 265.021 63.746 265.021 62.71H263.921H262.821C262.821 63.474 262.667 63.9579 262.466 64.2598L263.381 64.87ZM263.921 62.71H265.021C265.021 61.271 264.678 59.8263 264.023 58.3848L263.021 58.84L262.02 59.2952C262.565 60.4937 262.821 61.629 262.821 62.71H263.921ZM263.021 58.84L264.023 58.3848C263.363 56.9332 262.463 55.6944 261.319 54.6852L260.591 55.51L259.863 56.3348C260.76 57.1256 261.48 58.1068 262.02 59.2952L263.021 58.84ZM260.591 55.51L261.369 54.7322C260.209 53.5725 258.792 52.97 257.171 52.97V54.07V55.17C258.19 55.17 259.053 55.5275 259.813 56.2878L260.591 55.51ZM257.171 54.07V52.97C255.592 52.97 254.226 53.5869 253.129 54.7577L253.931 55.51L254.734 56.2623C255.436 55.5131 256.23 55.17 257.171 55.17V54.07ZM253.931 55.51L253.127 54.7594C252.181 55.7727 251.285 57.202 250.421 58.9918L251.411 59.47L252.402 59.9482C253.218 58.258 254.001 57.0473 254.735 56.2605L253.931 55.51ZM251.411 59.47L250.414 59.0068C249.639 60.6743 248.684 62.6443 247.547 64.9181L248.531 65.41L249.515 65.9019C250.658 63.6157 251.623 61.6257 252.409 59.9332L251.411 59.47ZM248.531 65.41L247.547 64.9181C246.184 67.644 244.863 69.9021 243.584 71.7034L244.481 72.34L245.378 72.9766C246.74 71.0579 248.118 68.696 249.515 65.9019L248.531 65.41ZM244.481 72.34L243.594 71.6895C242.329 73.4151 240.998 74.767 239.609 75.7673L240.251 76.66L240.894 77.5527C242.505 76.393 243.994 74.8649 245.368 72.9905L244.481 72.34ZM240.251 76.66L239.615 75.7624C238.314 76.6839 236.748 77.3505 234.893 77.7439L235.121 78.82L235.35 79.8961C237.455 79.4495 239.308 78.6761 240.887 77.5576L240.251 76.66ZM235.121 78.82L234.886 77.7454C233.065 78.1439 230.867 78.35 228.281 78.35V79.45V80.55C230.975 80.55 233.338 80.3361 235.356 79.8946L235.121 78.82Z" fill="white"/>
</g>
<defs>
<linearGradient id="paint0_linear_11_110" x1="3.52209e-06" y1="-1.04909e-05" x2="350" y2="120" gradientUnits="userSpaceOnUse">
<stop stop-color="#AFA0FD"/>
<stop offset="0.0865385" stop-color="#AFA0FD"/>
<stop offset="0.961538" stop-color="#9985FF"/>
<stop offset="1" stop-color="#FFD166"/>
</linearGradient>
<clipPath id="clip0_11_110">
<rect width="350" height="120" fill="white"/>
</clipPath>
</defs>
</svg>
