<?xml version="1.0" encoding="iso-8859-1"?>
<!-- Generator: Adobe Illustrator 21.0.0, SVG Export Plug-In . SVG Version: 6.00 Build 0)  -->
<svg xmlns="http://www.w3.org/2000/svg" xmlns:xlink="http://www.w3.org/1999/xlink" version="1.1" id="Capa_1" x="0px" y="0px" viewBox="0 0 511.416 511.416" style="enable-background:new 0 0 511.416 511.416;" xml:space="preserve" width="512" height="512">
<g>
	<path style="fill:#FFD44B;" d="M451.659,127.763c-1.071-3.296-4.143-5.528-7.608-5.528h-59.938L365.59,65.231   c-1.059-3.259-4.182-5.528-7.608-5.528c-3.427,0-6.55,2.269-7.608,5.528l-18.522,57.005h-59.938c-3.376,0-6.461,2.201-7.561,5.392   c-1.134,3.289,0.043,7.035,2.859,9.08l48.491,35.231l-18.522,57.005c-0.977,3.008-0.046,6.398,2.332,8.484   c2.777,2.436,6.989,2.633,9.979,0.461l48.491-35.231l48.491,35.231c2.859,2.077,6.86,2.002,9.641-0.178   c2.612-2.049,3.695-5.609,2.67-8.766l-18.521-57.005l48.491-35.231C451.557,134.671,452.731,131.06,451.659,127.763z"/>
	<g>
		<path style="fill:#FFBF41;" d="M346.868,167.652l-48.491-35.231c-2.816-2.046-3.993-5.791-2.859-9.08    c0.132-0.384,0.297-0.752,0.483-1.105h-24.088c-3.376,0-6.461,2.201-7.561,5.392c-1.134,3.289,0.043,7.035,2.859,9.08    l48.491,35.231l-18.522,57.005c-0.977,3.008-0.046,6.398,2.332,8.484c2.777,2.436,6.989,2.633,9.979,0.461l19.055-13.844    L346.868,167.652z"/>
	</g>
	<path style="fill:#6FC861;" d="M501.263,362.894c-3.068-2.407-7.425-2.251-10.314,0.37c-42.742,38.79-98.094,60.152-155.859,60.152   c-127.925,0-232-104.075-232-232c0-68.456,30.037-133.085,82.408-177.315c2.942-2.484,3.686-6.851,1.733-10.169   c-1.953-3.318-6.132-4.789-9.731-3.422C127.931,19.308,85.554,52.26,54.949,95.804C23.639,140.351,7.09,192.777,7.09,247.416   c0,70.517,27.461,136.813,77.324,186.676c49.863,49.863,116.159,77.324,186.676,77.324c97.012,0,186.012-53.038,232.27-138.417   C505.217,369.57,504.332,365.301,501.263,362.894z"/>
	<g>
		<path style="fill:#4BBA3A;" d="M309.854,487.416c-70.517,0-136.813-27.461-186.676-77.324    c-49.863-49.863-77.324-116.159-77.324-186.676c0-54.639,16.549-107.065,47.859-151.612c16.3-23.192,35.941-43.377,58.228-60.022    C113.336,31.286,80.149,59.95,54.949,95.804C23.639,140.351,7.09,192.777,7.09,247.416c0,70.517,27.461,136.813,77.324,186.676    c49.863,49.863,116.159,77.324,186.676,77.324c57.942,0,113.022-18.925,157.848-52.355    C392.656,477.394,352.013,487.416,309.854,487.416z"/>
	</g>
</g>















</svg>
