<svg id="Capa_1" enable-background="new 0 0 512 512" height="512" viewBox="0 0 512 512" width="512" xmlns="http://www.w3.org/2000/svg"><g><g><path d="m159.125 168.917c-1.978 0-3.957-.755-5.466-2.264l-31.555-31.56c-3.017-3.018-3.016-7.91.003-10.927 3.018-3.016 7.912-3.016 10.93.003l31.555 31.56c3.017 3.018 3.016 7.91-.003 10.927-1.509 1.506-3.486 2.261-5.464 2.261z" fill="#cdbeb9"/></g><g><path d="m352.875 168.888c-1.964 0-3.93-.744-5.436-2.234-3.034-3.002-3.059-7.894-.057-10.927l31.555-31.876c3.003-3.033 7.897-3.059 10.93-.057 3.034 3.002 3.059 7.894.057 10.927l-31.555 31.876c-1.512 1.526-3.503 2.291-5.494 2.291z" fill="#cdbeb9"/></g><g><path d="m127.57 394.261c-1.978 0-3.957-.755-5.466-2.264-3.017-3.018-3.016-7.91.003-10.927l31.555-31.532c3.018-3.017 7.912-3.017 10.93.002 3.017 3.018 3.016 7.91-.003 10.927l-31.555 31.532c-1.509 1.508-3.486 2.262-5.464 2.262z" fill="#cdbeb9"/></g><g><path d="m384.43 394.634c-1.992 0-3.982-.765-5.494-2.292l-31.555-31.876c-3.002-3.033-2.977-7.925.057-10.927 3.033-3.001 7.927-2.976 10.93.057l31.555 31.876c3.002 3.033 2.977 7.925-.057 10.927-1.507 1.49-3.472 2.235-5.436 2.235z" fill="#cdbeb9"/></g><g><path d="m118.985 265.808h-35.516c-4.269 0-7.729-3.459-7.729-7.726s3.46-7.726 7.729-7.726h35.517c4.269 0 7.729 3.459 7.729 7.726-.001 4.267-3.461 7.726-7.73 7.726z" fill="#cdbeb9"/></g><g><path d="m428.531 265.808h-35.517c-4.269 0-7.729-3.459-7.729-7.726s3.46-7.726 7.729-7.726h35.517c4.269 0 7.729 3.459 7.729 7.726s-3.46 7.726-7.729 7.726z" fill="#cdbeb9"/></g><g><path d="m256 438.399c-4.269 0-7.729-3.459-7.729-7.726v-35.523c0-4.267 3.46-7.726 7.729-7.726s7.729 3.459 7.729 7.726v35.523c0 4.267-3.46 7.726-7.729 7.726z" fill="#cdbeb9"/></g><g><path d="m256 128.77c-4.269 0-7.729-3.459-7.729-7.726v-35.524c0-4.267 3.46-7.726 7.729-7.726s7.729 3.459 7.729 7.726v35.523c0 4.267-3.46 7.727-7.729 7.727z" fill="#cdbeb9"/></g><g><path clip-rule="evenodd" d="m478.95 129.285c15.893-13.464 26.013-33.632 26.013-55.999 0-40.376-32.932-73.286-73.273-73.286-40.369 0-73.274 32.91-73.274 73.286 0 22.373 10.116 42.535 26.013 55.999 12.773 10.817 81.745 10.824 94.521 0z" fill="#22a6fe" fill-rule="evenodd"/></g><g><path clip-rule="evenodd" d="m431.69 0c40.456 0 73.274 32.795 73.274 73.286 0 40.463-32.818 73.286-73.274 73.286-8.154 0-16.021-1.35-23.343-3.819 28.597-9.965 49.155-37.189 49.155-69.209 0-32.307-20.931-59.732-49.959-69.496 7.58-2.612 15.677-4.048 24.147-4.048z" fill="#0182fc" fill-rule="evenodd"/></g><g><path clip-rule="evenodd" d="m412.309 86.209c-16.395 7.438-27.88 23.979-27.88 43.076 12.748 10.769 29.258 17.288 47.26 17.288 18.003 0 34.483-6.519 47.26-17.288 0-19.097-11.485-35.638-27.88-43.076z" fill="#fd4755" fill-rule="evenodd"/></g><g><path clip-rule="evenodd" d="m400.767 62.115c0 9.735 4.508 18.408 11.542 24.094 5.283 4.279 12.03 6.835 19.381 6.835 7.35 0 14.069-2.556 19.381-6.835 7.034-5.686 11.542-14.359 11.542-24.094 0-17.087-13.839-30.928-30.923-30.928s-30.923 13.842-30.923 30.928z" fill="#ffe5c1" fill-rule="evenodd"/></g><g><path clip-rule="evenodd" d="m423.938 32.163c13.322 3.446 23.142 15.536 23.142 29.952 0 9.735-4.479 18.408-11.514 24.094 0 0 0 0-.029 0-3.359 2.699-7.293 4.738-11.628 5.83 2.498.661 5.082 1.005 7.781 1.005 7.35 0 14.069-2.556 19.381-6.835 7.034-5.686 11.542-14.359 11.542-24.094 0-17.087-13.839-30.928-30.923-30.928-2.67 0-5.283.316-7.752.976z" fill="#fed1a3" fill-rule="evenodd"/></g><g><path clip-rule="evenodd" d="m439.988 91.895c13.236 9.706 22.223 31.015 22.596 47.843 5.943-2.757 11.427-6.289 16.366-10.453 0-19.097-11.485-35.638-27.88-43.076-3.215 2.585-6.976 4.566-11.082 5.686z" fill="#e41e2b" fill-rule="evenodd"/></g><g><path clip-rule="evenodd" d="m122.996 494.322c15.915-13.464 26.051-33.568 26.051-55.953 0-40.376-32.933-73.286-73.274-73.286-40.369 0-73.274 32.91-73.274 73.286 0 22.388 10.131 42.496 26.047 55.96 12.769 10.8 81.679 10.798 94.45-.007z" fill="#22a6fe" fill-rule="evenodd"/></g><g><path clip-rule="evenodd" d="m75.774 365.082c40.455 0 73.274 32.795 73.274 73.286 0 40.463-32.818 73.286-73.274 73.286-8.183 0-16.021-1.35-23.343-3.819 28.597-9.965 49.127-37.189 49.127-69.209 0-32.307-20.902-59.732-49.931-69.467 7.551-2.641 15.676-4.077 24.147-4.077z" fill="#0182fc" fill-rule="evenodd"/></g><g><path clip-rule="evenodd" d="m56.364 451.292c-16.395 7.438-27.851 23.979-27.851 43.076 12.748 10.769 29.229 17.288 47.26 17.288 18.003 0 34.483-6.519 47.26-17.288 0-19.097-11.485-35.638-27.88-43.076z" fill="#fd4755" fill-rule="evenodd"/></g><g><path clip-rule="evenodd" d="m44.85 427.198c0 9.735 4.479 18.408 11.514 24.094 5.312 4.279 12.059 6.835 19.409 6.835 7.322 0 14.069-2.556 19.381-6.835 7.034-5.686 11.542-14.359 11.542-24.094 0-17.087-13.868-30.928-30.923-30.928-17.083-.001-30.923 13.841-30.923 30.928z" fill="#ffe5c1" fill-rule="evenodd"/></g><g><path clip-rule="evenodd" d="m68.021 397.246c13.322 3.446 23.142 15.536 23.142 29.952 0 9.735-4.508 18.408-11.542 24.094-3.359 2.699-7.322 4.738-11.628 5.858 2.498.632 5.082.976 7.781.976 7.322 0 14.069-2.556 19.381-6.835 7.034-5.686 11.542-14.359 11.542-24.094 0-17.087-13.868-30.928-30.923-30.928-2.699 0-5.284.345-7.753.977z" fill="#fed1a3" fill-rule="evenodd"/></g><g><path clip-rule="evenodd" d="m84.071 457.006c13.236 9.678 22.195 30.986 22.597 47.814 5.915-2.757 11.427-6.289 16.366-10.453 0-19.097-11.485-35.638-27.88-43.076-3.216 2.585-6.977 4.567-11.083 5.715z" fill="#e41e2b" fill-rule="evenodd"/></g><g><path clip-rule="evenodd" d="m482.794 495.233c16.295-13.458 26.706-33.808 26.706-56.52 0-40.348-32.904-73.286-73.274-73.286-40.341 0-73.274 32.939-73.274 73.286 0 22.406 10.142 42.513 26.063 55.973 12.77 10.795 81.106 11.015 93.779.547z" fill="#22a6fe" fill-rule="evenodd"/></g><g><path clip-rule="evenodd" d="m436.226 365.427c40.484 0 73.274 32.824 73.274 73.286 0 40.491-32.789 73.286-73.274 73.286-8.154 0-15.993-1.321-23.314-3.791 28.597-9.965 49.127-37.189 49.127-69.209 0-32.307-20.902-59.732-49.931-69.496 7.552-2.64 15.677-4.076 24.118-4.076z" fill="#0182fc" fill-rule="evenodd"/></g><g><path clip-rule="evenodd" d="m416.846 451.636c-16.395 7.438-27.88 24.008-27.88 43.105 12.777 10.769 29.258 17.259 47.26 17.259 18.031 0 34.512-6.49 47.26-17.259 0-19.097-11.456-35.667-27.851-43.105z" fill="#fdb440" fill-rule="evenodd"/></g><g><path clip-rule="evenodd" d="m405.303 427.543c0 9.735 4.508 18.436 11.542 24.094 5.312 4.279 12.059 6.835 19.381 6.835 7.35 0 14.098-2.556 19.409-6.835 7.035-5.657 11.514-14.359 11.514-24.094 0-17.058-13.839-30.928-30.923-30.928-17.055-.001-30.923 13.869-30.923 30.928z" fill="#ffe5c1" fill-rule="evenodd"/></g><g><path clip-rule="evenodd" d="m428.474 397.59c13.322 3.446 23.171 15.565 23.171 29.952 0 9.735-4.508 18.436-11.542 24.094-3.359 2.728-7.322 4.738-11.628 5.858 2.469.632 5.082.976 7.752.976 7.35 0 14.098-2.556 19.409-6.835 7.035-5.657 11.514-14.359 11.514-24.094 0-17.058-13.839-30.928-30.923-30.928-2.671.001-5.255.346-7.753.977z" fill="#fed1a3" fill-rule="evenodd"/></g><g><path clip-rule="evenodd" d="m444.524 457.351c13.265 9.678 22.223 31.015 22.625 47.843 5.915-2.757 11.399-6.289 16.337-10.453 0-19.097-11.456-35.667-27.851-43.105-3.244 2.614-7.005 4.566-11.111 5.715z" fill="#fe9900" fill-rule="evenodd"/></g><g><path clip-rule="evenodd" d="m127.57 129.285c15.916-13.464 26.047-33.571 26.047-55.959 0-40.376-32.904-73.286-73.274-73.286-40.341 0-73.274 32.91-73.274 73.286 0 22.385 10.137 42.49 26.052 55.954 12.772 10.804 81.682 10.806 94.449.005z" fill="#22a6fe" fill-rule="evenodd"/></g><g><path clip-rule="evenodd" d="m80.31 0c40.484 0 73.274 32.795 73.274 73.286 0 40.463-32.789 73.286-73.274 73.286-8.154 0-15.993-1.35-23.343-3.819 28.626-9.965 49.155-37.189 49.155-69.209 0-32.307-20.902-59.732-49.931-69.496 7.552-2.612 15.678-4.048 24.119-4.048z" fill="#0182fc" fill-rule="evenodd"/></g><g><path clip-rule="evenodd" d="m60.929 86.209c-16.395 7.438-27.88 23.979-27.88 43.076 12.777 10.769 29.258 17.288 47.26 17.288s34.512-6.519 47.26-17.288c0-19.097-11.485-35.638-27.88-43.076z" fill="#fdb440" fill-rule="evenodd"/></g><g><path clip-rule="evenodd" d="m49.387 62.115c0 9.735 4.508 18.408 11.542 24.094 5.312 4.279 12.059 6.835 19.381 6.835 7.35 0 14.098-2.556 19.381-6.835 7.034-5.686 11.542-14.359 11.542-24.094 0-17.087-13.839-30.928-30.923-30.928s-30.923 13.842-30.923 30.928z" fill="#ffe5c1" fill-rule="evenodd"/></g><g><path clip-rule="evenodd" d="m72.558 32.163c13.322 3.446 23.171 15.536 23.171 29.952 0 9.735-4.508 18.408-11.542 24.094-3.388 2.699-7.322 4.738-11.628 5.83 2.469.661 5.082 1.005 7.752 1.005 7.35 0 14.098-2.556 19.381-6.835 7.034-5.686 11.542-14.359 11.542-24.094 0-17.087-13.839-30.928-30.923-30.928-2.671 0-5.255.316-7.753.976z" fill="#fed1a3" fill-rule="evenodd"/></g><g><path clip-rule="evenodd" d="m88.608 91.895c13.236 9.706 22.223 31.015 22.625 47.843 5.915-2.757 11.399-6.289 16.337-10.453 0-19.097-11.485-35.638-27.88-43.076-3.215 2.585-6.976 4.566-11.082 5.686z" fill="#fe9900" fill-rule="evenodd"/></g><g><path clip-rule="evenodd" d="m337.316 368.284c33.75-25.006 55.699-65.121 55.699-110.202 0-75.469-61.559-137.039-137.015-137.039s-137.015 61.57-137.015 137.039c0 45.08 21.948 85.195 55.697 110.201 22.773 16.872 139.862 16.873 162.634.001z" fill="#f8f2f0" fill-rule="evenodd"/></g><g><path clip-rule="evenodd" d="m211.898 318.675 36.206 32.554c6.144 3.992 9.647 3.992 15.792 0l36.206-32.554c-3.359-.948-6.747-1.809-10.021-2.728-7.666-2.068-9.676-11.946-11.255-15.134-1.83-5.731-5.427-21.123-8.24-20.089-10.537 3.934-18.634 3.934-29.172 0-2.814-1.034-5.895 12.105-8.24 20.089-1.579 3.188-3.589 13.066-11.255 15.134-3.274.919-6.662 1.781-10.021 2.728z" fill="#fed1a3" fill-rule="evenodd"/></g><g><path clip-rule="evenodd" d="m174.63 358.65v9.706c22.769 16.828 50.907 26.793 81.37 26.793s58.602-9.965 81.37-26.793v-9.706c0-27.08-18.433-34.69-37.268-39.974l-36.206 21.222c-6.144 3.992-9.647 3.992-15.792 0l-36.206-21.222c-18.835 5.283-37.268 12.893-37.268 39.974z" fill="#fd4755" fill-rule="evenodd"/></g><g><path clip-rule="evenodd" d="m197.743 248.548c0 18.465 15.304 41.094 35.431 52.265 2.67 1.465 5.427 2.757 8.24 3.791 10.537 3.934 18.634 3.934 29.172 0 2.814-1.034 5.57-2.326 8.24-3.791 20.127-11.171 35.431-33.8 35.431-52.265v-17.805c-15.052-4.799-20.07-28.943-36.35-24.75-12.576 3.245-17.227 4.882-21.907 4.882s-9.331-1.637-21.907-4.882c-16.28-4.193-17.9 17.228-36.35 24.75z" fill="#ffe5c1" fill-rule="evenodd"/></g><g><path clip-rule="evenodd" d="m256 165.038c-29.143.488-58.257 22.428-58.257 65.705 23.573-1.666 20.07-19.671 36.35-15.479 12.576 3.245 17.227 4.882 21.907 4.882s9.331-1.637 21.907-4.882c16.28-4.193 12.777 13.813 36.35 15.479 0-43.277-29.114-65.217-58.257-65.705z" fill="#6d80aa" fill-rule="evenodd"/></g><g><path clip-rule="evenodd" d="m283.248 246.71c0 20.906-19.639 47.154-43.671 56.056-.488.172-.947.345-1.436.517 1.091.488 2.182.919 3.273 1.321 10.537 3.934 18.634 3.934 29.172 0 2.814-1.034 5.57-2.326 8.24-3.791 20.127-11.171 35.431-33.8 35.431-52.265v-17.805c-21.304-1.493-20.501-16.34-32.129-16.11.747 4.48 1.12 9.218 1.12 14.244z" fill="#fed1a3" fill-rule="evenodd"/></g><g><path clip-rule="evenodd" d="m243.682 166.531c18.491 6.548 34.168 22.572 38.446 48.101 11.628-.23 10.825 14.617 32.129 16.11 0-43.277-29.114-65.217-58.257-65.705-4.135.058-8.269.575-12.318 1.494z" fill="#49679b" fill-rule="evenodd"/></g><g><path clip-rule="evenodd" d="m313.74 373.324v9.075c8.355-3.877 16.28-8.586 23.63-14.043v-9.706c0-27.08-18.433-34.69-37.268-39.974l-18.003 10.568c13.696 3.618 31.641 7.121 31.641 44.08z" fill="#e41e2b" fill-rule="evenodd"/></g><g><path clip-rule="evenodd" d="m233.174 300.813c-1.177 2.384-2.613 8.529-6.489 12.348 1.866.919 3.79 1.752 5.714 2.47 10.566 3.934 23.113 7.524 33.679 3.618 2.125-.459 2.986-1.666 4.364.976 2.642 5.083 6.518 7.725 11.571 9.075l18.089-10.625c-3.359-.948-6.747-1.809-10.021-2.728-7.666-2.068-9.676-11.946-11.255-15.134-2.67 1.465-5.427 2.757-8.24 3.791-10.537 3.934-18.634 3.934-29.172 0-1.091-.402-2.182-.833-3.273-1.321-1.694-.747-3.331-1.58-4.967-2.47z" fill="#ffbc85" fill-rule="evenodd"/></g><g><path clip-rule="evenodd" d="m230.102 123.484c65.32 10.453 115.193 67.055 115.193 135.316 0 26.104-7.293 50.514-19.955 71.305 7.207 5.944 12.03 14.703 12.03 28.545v9.706c33.766-24.955 55.644-65.045 55.644-110.274 0-75.67-61.329-137.039-137.015-137.039-8.842 0-17.513.833-25.897 2.441z" fill="#eee1dc" fill-rule="evenodd"/></g><g><path clip-rule="evenodd" d="m83.468 258.082c0-21.854-17.744-39.572-39.594-39.572s-39.594 17.718-39.594 39.572c0 21.883 17.744 39.601 39.594 39.601s39.594-17.718 39.594-39.601z" fill="#80d261" fill-rule="evenodd"/></g><g><path clip-rule="evenodd" d="m428.532 258.082c0-21.854 17.744-39.572 39.594-39.572s39.594 17.719 39.594 39.572c0 21.883-17.744 39.601-39.594 39.601s-39.594-17.718-39.594-39.601z" fill="#80d261" fill-rule="evenodd"/></g><g><path clip-rule="evenodd" d="m256 430.673c21.85 0 39.594 17.719 39.594 39.572 0 21.883-17.744 39.601-39.594 39.601s-39.594-17.719-39.594-39.601c0-21.854 17.744-39.572 39.594-39.572z" fill="#80d261" fill-rule="evenodd"/></g><g><path clip-rule="evenodd" d="m256 85.52c21.85 0 39.594-17.719 39.594-39.601 0-21.854-17.744-39.572-39.594-39.572s-39.594 17.719-39.594 39.572c0 21.882 17.744 39.601 39.594 39.601z" fill="#80d261" fill-rule="evenodd"/></g><g><path clip-rule="evenodd" d="m32.935 220.032c15.332 5.456 26.3 20.102 26.3 37.304 0 18.063-12.088 33.312-28.626 38.079 4.135 1.465 8.614 2.269 13.265 2.269 21.85 0 39.594-17.719 39.594-39.601 0-21.854-17.744-39.572-39.594-39.572-3.79-.001-7.465.516-10.939 1.521z" fill="#4fc122" fill-rule="evenodd"/></g><g><path clip-rule="evenodd" d="m245.061 7.869c15.332 5.456 26.3 20.102 26.3 37.304 0 18.092-12.088 33.312-28.626 38.079 4.135 1.465 8.614 2.269 13.265 2.269 21.85 0 39.594-17.719 39.594-39.601 0-21.796-17.658-39.486-39.451-39.572h-.143-.144c-3.761-.001-7.379.544-10.795 1.521z" fill="#4fc122" fill-rule="evenodd"/></g><g><path clip-rule="evenodd" d="m483.487 257.335c0 18.063-12.088 33.312-28.626 38.079 4.135 1.465 8.614 2.269 13.265 2.269 21.85 0 39.594-17.719 39.594-39.601 0-21.854-17.744-39.572-39.594-39.572-3.79 0-7.465.517-10.939 1.522 15.332 5.456 26.3 20.102 26.3 37.303z" fill="#4fc122" fill-rule="evenodd"/></g><g><path clip-rule="evenodd" d="m271.361 469.498c0 18.063-12.088 33.312-28.626 38.05 4.135 1.493 8.614 2.297 13.265 2.297 21.85 0 39.594-17.719 39.594-39.601 0-21.854-17.744-39.572-39.594-39.572-3.79 0-7.465.517-10.939 1.522 15.332 5.457 26.3 20.103 26.3 37.304z" fill="#4fc122" fill-rule="evenodd"/></g></g></svg>