<svg id="Layer_1" enable-background="new 0 0 512 512" viewBox="0 0 512 512" xmlns="http://www.w3.org/2000/svg" xmlns:xlink="http://www.w3.org/1999/xlink"><linearGradient id="SVGID_1_" gradientUnits="userSpaceOnUse" x1="256" x2="256" y1="0" y2="512"><stop offset="0" stop-color="#f704fe"/><stop offset="1" stop-color="#24bce3"/></linearGradient><circle cx="256" cy="256" fill="url(#SVGID_1_)" r="256"/><g><g><g><g id="XMLID_1_" fill="#fffffe"><path d="m388.2 339.6v14.3c0 1.2-1 2.3-2.3 2.3h-106.6-46.8-106.4c-1.3 0-2.3-1-2.3-2.3v-14.2h264.4zm-125 8.3c0-1.8-1.5-3.3-3.3-3.3h-7.6c-1.8 0-3.3 1.5-3.3 3.3s1.5 3.3 3.3 3.3h7.6c1.8 0 3.3-1.5 3.3-3.3z"/><path d="m290.3 188.3h34.7c-.7 13.9-5.4 26.7-13.1 37.3-7.4-3.3-15.7-6-24.7-7.9 1.8-8.9 2.9-18.8 3.1-29.4z"/><path d="m324.9 181.6h-34.6c-.2-10.6-1.4-20.5-3.2-29.4 9-1.8 17.3-4.4 24.7-7.9 4.5 6.2 8.1 13.2 10.3 20.7 1.6 5.3 2.6 10.9 2.8 16.6z"/><path d="m313.5 396.1h-115c3.5-7.3 11-12.2 19.4-12.2h3.8 68.7 3.8c8.3 0 15.7 4.9 19.3 12.2z"/><path d="m272.1 117.8c13.9 3.3 26.1 10.9 35.2 21.1-6.6 2.9-13.9 5.1-21.8 6.7-3.2-11.7-7.8-21.4-13.4-27.8z"/><path d="m307.5 230.9c-9.2 10.3-21.5 17.9-35.4 21.2 5.6-6.4 10.2-16 13.4-27.9 8 1.6 15.4 3.9 22 6.7z"/><path d="m277.3 362.8 7.6 14.5h-57.8l7.5-14.5z"/><path d="m283.6 181.6h-55.4c.2-10.4 1.3-19.9 3.1-28.3 7.9 1.2 16.1 1.8 24.6 1.8s16.7-.6 24.6-1.8c1.9 8.4 3 17.8 3.1 28.3z"/><path d="m228.3 188.3h55.4c-.2 10.4-1.3 19.9-3.1 28.3-7.9-1.2-16.1-1.8-24.6-1.8s-16.7.6-24.6 1.8c-1.8-8.4-2.9-17.9-3.1-28.3z"/><path d="m279 223.1c-5.3 19.3-14.3 30.9-23 30.9s-17.7-11.5-23-30.9c7.3-1.1 15.1-1.6 23-1.6s15.7.4 23 1.6z"/><path d="m233 146.8c5.3-19.3 14.3-30.9 23-30.9s17.7 11.5 23 30.9c-7.3 1.1-15.1 1.6-23 1.6-7.9.1-15.6-.5-23-1.6z"/><path d="m239.9 117.8c-5.5 6.4-10.2 16-13.4 27.9-8-1.6-15.4-3.8-21.9-6.8 9.2-10.2 21.4-17.7 35.3-21.1z"/><path d="m226.5 224.2c3.2 11.9 7.9 21.5 13.4 27.9-13.9-3.3-26.1-10.9-35.4-21.2 6.6-2.8 14-5.1 22-6.7z"/><path d="m200.2 144.3c7.3 3.3 15.7 6 24.7 7.9-1.9 8.9-3.1 18.8-3.2 29.4h-34.7c.3-5.7 1.2-11.3 2.9-16.6 2.3-7.5 5.8-14.5 10.3-20.7z"/><path d="m224.9 217.7c-9 1.8-17.4 4.4-24.7 7.9-7.7-10.6-12.5-23.4-13.2-37.3h34.6c.3 10.6 1.4 20.5 3.3 29.4z"/><path d="m388.2 169.6v163.3h-264.4v-163.3c0-1.2 1-2.3 2.3-2.3h56.3c-1.4 5.7-2 11.5-2 17.6 0 17.3 5.9 33.4 15.8 46.2 0 .1.1.1.1.1.3.5.5.8 1 1.1 13.9 17.2 35.2 28.3 58.9 28.3 23.8 0 45.1-11.1 58.9-28.3.4-.3.7-.7 1-1.1 0-.1.1-.1.1-.1 9.9-12.8 15.8-28.8 15.8-46.2 0-6.1-.7-11.9-2-17.6h56c1.2 0 2.2 1 2.2 2.3zm-59.6 151c7.5 0 13.7-6.1 13.6-13.6 0-7.5-6.1-13.6-13.6-13.6-3.8 0-7-3.1-7-7s3.1-7 7-7 7 3.1 7 7c0 1.8 1.5 3.3 3.3 3.3s3.3-1.5 3.3-3.3c0-7.5-6.1-13.6-13.6-13.6s-13.6 6.1-13.6 13.6 6.1 13.6 13.6 13.6c3.8 0 7 3.1 7 7s-3.1 7-7 7-7-3.1-7-7c0-1.8-1.5-3.3-3.3-3.3s-3.3 1.5-3.3 3.3c0 7.6 6.1 13.6 13.6 13.6zm-25.6-3.3v-41.1c0-1.8-1.5-3.3-3.3-3.3s-3.3 1.5-3.3 3.3v31.1l-9.4-12.5c-.6-.9-1.6-1.4-2.7-1.4-1 0-2 .5-2.7 1.4l-9.2 12.4v-31c0-1.8-1.5-3.3-3.3-3.3s-3.3 1.5-3.3 3.3v41.1c0 1.4 1 2.7 2.3 3.1 1.4.5 2.9 0 3.8-1.2l12.6-16.9 12.6 16.9c.6.9 1.6 1.4 2.7 1.4.3 0 .7-.1 1.1-.2 1.2-.4 2.1-1.7 2.1-3.1zm-49.8-41.1c0-1.8-1.5-3.3-3.3-3.3h-23.2c-1.8 0-3.3 1.5-3.3 3.3v20.5 20.5c0 1.8 1.5 3.3 3.3 3.3h23.2c1.8 0 3.3-1.5 3.3-3.3s-1.5-3.3-3.3-3.3h-19.9v-13.9h19.9c1.8 0 3.3-1.5 3.3-3.3s-1.5-3.3-3.3-3.3h-19.9v-13.9h19.9c1.8.1 3.3-1.4 3.3-3.3zm-45.5 41.2v-41.1c0-1.8-1.5-3.3-3.3-3.3s-3.3 1.5-3.3 3.3v31.2l-25.2-33.2c-.9-1.2-2.4-1.6-3.8-1.2s-2.3 1.7-2.3 3.1v41.1c0 1.8 1.5 3.3 3.3 3.3s3.3-1.5 3.3-3.3v-31.2l25.2 33.2c.6.8 1.6 1.3 2.7 1.3.3 0 .7-.1 1.1-.1 1.4-.4 2.3-1.7 2.3-3.1z"/></g></g></g></g></svg>