<svg enable-background="new 0 0 512 512" viewBox="0 0 512 512" xmlns="http://www.w3.org/2000/svg"><g id="_x31_4_Business_Email"><g><path d="m369.922 174.245v199.919c0 11.244-9.133 20.377-20.43 20.377h-223.674l-52.468 57.19c-3.579 3.901-10.088 1.452-10.207-3.841l-1.202-53.349h-30.038c-11.297 0-20.43-9.133-20.43-20.377v-199.919c0-5.965 2.534-11.35 6.652-14.992l163.282 133.086c5.438 4.434 13.145 4.434 18.582 0l163.281-133.086c4.118 3.642 6.652 9.027 6.652 14.992z" fill="#9cc0fd"/><path d="m363.27 159.253-163.281 133.085c-5.438 4.434-13.145 4.434-18.582 0l-163.283-133.085c3.59-3.326 8.446-5.385 13.778-5.385h317.589c5.333 0 10.19 2.059 13.779 5.385z" fill="#fff"/><path d="m363.27 159.253-163.281 133.085c-5.438 4.434-13.145 4.434-18.582 0l-163.283-133.085c3.59-3.326 8.446-5.385 13.778-5.385h317.589c5.333 0 10.19 2.059 13.779 5.385z" fill="#fff"/><g><path d="m37.87 289.837c-2.703 0-4.891-2.19-4.891-4.891v-75.548c0-2.701 2.187-4.891 4.891-4.891s4.891 2.19 4.891 4.891v75.548c-.001 2.702-2.188 4.891-4.891 4.891z" fill="#5c8ffc"/></g><ellipse cx="384.318" cy="146.173" fill="#fff" rx="116.208" ry="87.814"/><path d="m429.96 148.666c0 11.376 9.149 20.524 20.464 20.524 11.375 0 20.524-9.148 20.524-20.524 0-11.315-9.149-20.464-20.524-20.464-11.316 0-20.464 9.149-20.464 20.464z" fill="#9cc0fd"/><path d="m363.824 148.666c0 11.376 9.149 20.524 20.464 20.524 11.375 0 20.524-9.148 20.524-20.524 0-11.315-9.149-20.464-20.524-20.464-11.315 0-20.464 9.149-20.464 20.464z" fill="#9cc0fd"/><path d="m297.688 148.666c0 11.376 9.149 20.524 20.464 20.524 11.375 0 20.524-9.148 20.524-20.524 0-11.315-9.149-20.464-20.524-20.464-11.315 0-20.464 9.149-20.464 20.464z" fill="#9cc0fd"/><g><path d="m331.331 102.915c-1.772 0-3.482-.965-4.351-2.648-1.237-2.4-.296-5.351 2.106-6.588 16.295-8.408 35.394-12.852 55.233-12.852 2.703 0 4.891 2.19 4.891 4.891s-2.187 4.891-4.891 4.891c-18.282 0-35.834 4.067-50.754 11.763-.716.369-1.48.543-2.234.543z" fill="#5c8ffc"/></g><g fill="#5c8ffc"><path d="m31.905 399.43h25.255l1.094 48.569c.1 4.418 2.837 8.279 6.968 9.836 4.205 1.573 8.778.417 11.734-2.799l51.012-55.606h221.526c13.96 0 25.317-11.336 25.317-25.267v-135.615c3.176.207 6.35.33 9.509.33 66.772 0 121.098-41.586 121.098-92.705s-54.326-92.705-121.098-92.705-121.098 41.586-121.098 92.705c0 .946.062 1.87.096 2.803h-231.413c-13.342 0-25.322 10.769-25.322 25.269v199.917c0 13.933 11.357 25.268 25.322 25.268zm352.414-336.181c61.38 0 111.317 37.2 111.317 82.924s-49.937 82.924-111.317 82.924c-53.533 0-111.317-31.705-111.317-82.924 0-45.724 49.937-82.924 111.317-82.924zm-352.414 95.509h232.405c3.387 20.022 14.727 36.889 30.601 49.904l-98.013 79.886c-3.649 2.975-8.754 2.975-12.403 0l-158.03-128.809c1.719-.645 3.558-.981 5.44-.981zm-15.541 15.488c0-2.961.831-5.805 2.349-8.207l159.602 130.088c7.31 5.956 17.484 5.939 24.763 0l99.907-81.428c17.758 12.091 39.69 19.968 62.044 22.887v136.578c0 8.539-6.968 15.486-15.536 15.486h-223.675c-1.371 0-2.679.576-3.606 1.586l-52.463 57.189c-.11.119-.439.487-1.079.255-.621-.234-.63-.735-.635-.9l-1.204-53.349c-.062-2.658-2.23-4.781-4.891-4.781h-30.035c-8.568 0-15.541-6.947-15.541-15.486z"/><path d="m450.423 174.081c14.017 0 25.417-11.4 25.417-25.415 0-13.981-11.4-25.355-25.417-25.355-13.979 0-25.355 11.374-25.355 25.355-.001 14.015 11.376 25.415 25.355 25.415zm0-40.989c8.621 0 15.636 6.987 15.636 15.574 0 8.621-7.016 15.634-15.636 15.634-8.587 0-15.574-7.013-15.574-15.634-.001-8.587 6.987-15.574 15.574-15.574z"/><path d="m384.286 174.081c14.017 0 25.417-11.4 25.417-25.415 0-13.981-11.4-25.355-25.417-25.355-13.979 0-25.351 11.374-25.351 25.355 0 14.015 11.372 25.415 25.351 25.415zm0-40.989c8.621 0 15.636 6.987 15.636 15.574 0 8.621-7.016 15.634-15.636 15.634-8.587 0-15.569-7.013-15.569-15.634-.001-8.587 6.982-15.574 15.569-15.574z"/><path d="m318.154 174.081c14.013 0 25.413-11.4 25.413-25.415 0-13.981-11.4-25.355-25.413-25.355-13.979 0-25.355 11.374-25.355 25.355-.001 14.015 11.376 25.415 25.355 25.415zm0-40.989c8.621 0 15.632 6.987 15.632 15.574 0 8.621-7.011 15.634-15.632 15.634-8.587 0-15.574-7.013-15.574-15.634-.001-8.587 6.987-15.574 15.574-15.574z"/><path d="m197.791 127.373c-2.703 0-4.891 2.19-4.891 4.891s2.187 4.891 4.891 4.891h17.604c2.703 0 4.891-2.19 4.891-4.891s-2.187-4.891-4.891-4.891z"/><path d="m230.115 108.537c1.91-1.91 1.91-5.008 0-6.916l-12.451-12.448c-1.91-1.91-5.005-1.91-6.916 0-1.91 1.91-1.91 5.008 0 6.916l12.451 12.448c1.91 1.91 5.005 1.91 6.916 0z"/><path d="m248.951 76.213v17.607c0 2.701 2.187 4.891 4.891 4.891s4.891-2.19 4.891-4.891v-17.607c0-2.701-2.187-4.891-4.891-4.891s-4.891 2.19-4.891 4.891z"/></g></g></g><g id="Layer_1"/></svg>