<svg fill="none" height="24" viewBox="0 0 24 24" width="24" xmlns="http://www.w3.org/2000/svg" xmlns:xlink="http://www.w3.org/1999/xlink"><linearGradient id="paint0_linear_4_486" gradientUnits="userSpaceOnUse" x1="12" x2="12" y1="2" y2="22"><stop offset="0" stop-color="#f12811"/><stop offset="1" stop-color="#f5b93d"/></linearGradient><g clip-rule="evenodd" fill="url(#paint0_linear_4_486)" fill-rule="evenodd"><path d="m9.44721 2.10555c.49398.24699.69419.84766.44722 1.34164l-1.78886 3.57771c-.24699.49398-.84766.6942-1.34164.44721s-.6942-.84766-.44721-1.34164l1.78885-3.57771c.24699-.49398.84767-.6942 1.34164-.44721z"/><path d="m14.5528 2.10555c.494-.24699 1.0946-.04677 1.3416.44721l1.7889 3.57771c.247.49398.0467 1.09465-.4472 1.34164-.494.24699-1.0947.04677-1.3417-.44721l-1.7888-3.57771c-.247-.49398-.0468-1.09465.4472-1.34164z"/><path d="m6.45925 5.99997c-2.4342 0-4.30405 2.15595-3.9598 4.56573l1.0202 7.1414c.3519 2.4632 2.4615 4.2929 4.94975 4.2929h7.0616c2.4883 0 4.5979-1.8297 4.9498-4.2929l1.0202-7.1414c.3442-2.40977-1.5256-4.56573-3.9598-4.56573zm9.22465 5.27043c.4029.3778.4233 1.0106.0456 1.4135l-3.75 4c-.3582.3821-.9506.4231-1.358.0939l-2.25005-1.8182c-.42956-.3471-.49639-.9768-.14927-1.4063.34712-.4296.97675-.4964 1.40631-.1493l1.52741 1.2342 3.1145-3.3222c.3778-.4029 1.0106-.4233 1.4135-.0456z"/></g></svg>