<svg clip-rule="evenodd" fill-rule="evenodd" stroke-linejoin="round" stroke-miterlimit="2" viewBox="0 0 32 32" xmlns="http://www.w3.org/2000/svg" xmlns:xlink="http://www.w3.org/1999/xlink"><linearGradient id="_Linear1" gradientTransform="matrix(19.478 0 0 16.474 391.652 111.943)" gradientUnits="userSpaceOnUse" x1="0" x2="1" y1="0" y2="0"><stop offset="0" stop-color="#0003c8"/><stop offset=".98" stop-color="#5bfbfe"/><stop offset="1" stop-color="#fff"/></linearGradient><g transform="translate(-144 -48)"><g transform="matrix(1.438 0 0 1.703 -417 -126.56)"><path d="m408.348 117.913v1.086c0 .312-.196.601-.516.76-.319.158-.714.161-1.037.009l-1.545-.73c-.113-.053-.251-.049-.36.011l-1.794.988c-.346.19-.793.19-1.14 0l-1.766-.973c-.115-.064-.265-.064-.38 0l-1.766.973c-.347.19-.794.19-1.14 0l-1.794-.988c-.109-.06-.247-.064-.36-.011l-1.545.73c-.323.152-.718.149-1.037-.009-.32-.159-.516-.448-.516-.76v-14.412c0-.486.467-.881 1.044-.881h14.608c.577 0 1.044.395 1.044.881v6.059c-.439-.12-.906-.185-1.391-.185-2.496 0-4.522 1.711-4.522 3.818s2.026 3.818 4.522 3.818c.485 0 .952-.065 1.391-.184zm-14.261-4.809h6.956c.192 0 .348-.131.348-.293s-.156-.294-.348-.294h-6.956c-.192 0-.348.132-.348.294s.156.293.348.293zm0-1.762h8.696c.192 0 .347-.131.347-.294 0-.162-.155-.293-.347-.293h-8.696c-.192 0-.348.131-.348.293 0 .163.156.294.348.294zm0 4.699h6.956c.192 0 .348-.131.348-.294 0-.162-.156-.293-.348-.293h-6.956c-.192 0-.348.131-.348.293 0 .163.156.294.348.294zm0-6.461h11.826c.192 0 .348-.132.348-.294s-.156-.293-.348-.293h-11.826c-.192 0-.348.131-.348.293s.156.294.348.294zm12.174-4.112c0-.162-.156-.293-.348-.293h-11.826c-.192 0-.348.131-.348.293v2.35c0 .162.156.294.348.294h11.826c.192 0 .348-.132.348-.294zm-.696.294v1.762h-11.13v-1.762zm1.392 4.993c2.303 0 4.173 1.579 4.173 3.524s-1.87 3.524-4.173 3.524c-2.304 0-4.174-1.579-4.174-3.524s1.87-3.524 4.174-3.524zm0 3.818c.372 0 .695.202.695.477s-.323.477-.695.477c-.373 0-.696-.202-.696-.477 0-.162-.156-.294-.348-.294s-.348.132-.348.294c0 .487.437.912 1.044 1.031v.18c0 .163.156.294.348.294.191 0 .347-.131.347-.294v-.18c.607-.119 1.044-.544 1.044-1.031 0-.576-.612-1.065-1.391-1.065-.373 0-.696-.202-.696-.477s.323-.477.696-.477c.372 0 .695.202.695.477 0 .162.156.294.348.294s.348-.132.348-.294c0-.487-.437-.911-1.044-1.031v-.18c0-.162-.156-.294-.347-.294-.192 0-.348.132-.348.294v.18c-.607.12-1.044.544-1.044 1.031 0 .576.612 1.065 1.392 1.065z" fill="url(#_Linear1)"/></g></g></svg>