<svg viewBox="0 0 64 64" xmlns="http://www.w3.org/2000/svg"><g id="Layer_56" data-name="Layer 56"><path d="m43.30717 45.78592-1.69878-3.62163 9.43053-4.41181a2.00012 2.00012 0 0 1 2.65835.96228 2.00012 2.00012 0 0 1 -.96326 2.661z" fill="#fba16f"/><path d="m58.585 40.13686a2.04049 2.04049 0 0 1 -.74 1.56l-4.61 3.75a4.00649 4.00649 0 0 1 -2.57.92h-12.88a10.34983 10.34983 0 0 1 -3.31-.55 9.39666 9.39666 0 0 0 -11.45513 4.4023l-6.38487 11.34973c-5.37-.23-9.84-4.57-11.22-10.41l17-13.342.67-1.01a9.60265 9.60265 0 0 1 8.63-4.43994 6.42033 6.42033 0 0 1 .74.08l2.21.34h8.1a1.99939 1.99939 0 0 1 2 2 2.029 2.029 0 0 1 -.58 1.42 1.994 1.994 0 0 1 -1.42.58h-4.92l2.9 3.16a7.4702 7.4702 0 0 0 5.51 2.42h3.71a1.99672 1.99672 0 0 0 1.24-.44l4.0125-3.25291a2.12054 2.12054 0 0 1 2.917.21653 1.976 1.976 0 0 1 .4505 1.24629z" fill="#fbc390"/><rect fill="#74915b" height="25.75" rx="3.083" width="40.526" x="15" y="2.431"/><path d="m17.55957 24.42969a1.00319 1.00319 0 0 1 1-1 1.00319 1.00319 0 0 1 1 1 1.00319 1.00319 0 0 1 -1 1 1.0032 1.0032 0 0 1 -1-1zm1-17.21973a1.00319 1.00319 0 0 0 1-1 1.00319 1.00319 0 0 0 -1-1 1 1 0 0 0 0 2zm33.4707 18.21973a1.00319 1.00319 0 0 0 1-1 1.00319 1.00319 0 0 0 -1-1 1 1 0 0 0 0 2zm0-18.21973a1.00319 1.00319 0 0 0 1-1 1.00319 1.00319 0 0 0 -1-1 1 1 0 0 0 0 2z" fill="#617447"/><path d="m51.53 9.68111v11.25a3.24984 3.24984 0 0 0 -3.25 3.25h-26.03a3.25631 3.25631 0 0 0 -3.25-3.25v-11.25a3.25635 3.25635 0 0 0 3.25-3.25h26.03a3.24988 3.24988 0 0 0 3.25 3.25z" fill="#4c5e34"/><path d="m40.5888 15.30611a5.32566 5.32566 0 1 1 -5.32565-5.32565 5.32565 5.32565 0 0 1 5.32565 5.32565zm-16.07623-2a2 2 0 1 0 2 2 2 2 0 0 0 -2-2zm21.56739 0a2 2 0 1 0 2 2 2 2 0 0 0 -1.99996-2z" fill="#74915b"/></g></svg>