<svg id="Layer_1" enable-background="new 0 0 48 48" height="512" viewBox="0 0 48 48" width="512" xmlns="http://www.w3.org/2000/svg"><g id="Line"><path d="m43 14h-34c-1.7 0-3 1.3-3 3v4c0 .4.2.7.5.9l34 18c.2.1.3.1.5.1h2c1.7 0 3-1.3 3-3v-20c0-1.7-1.3-3-3-3z" fill="#005c66"/><path d="m5 20h34c1.7 0 3 1.3 3 3v20c0 1.7-1.3 3-3 3h-34c-1.7 0-3-1.3-3-3v-20c0-1.7 1.3-3 3-3z" fill="#007a87"/><path d="m27 10c-.4 0-.7-.2-.9-.6l-.1-.2c-.5-1.1-1.9-1.6-3-1-.4.2-.8.6-1 1l-.1.2c-.3.5-.9.6-1.4.3-.4-.3-.6-.8-.4-1.2l.1-.2c1-2.1 3.6-2.9 5.7-1.9.8.4 1.5 1.1 1.9 1.9l.1.2c.2.5.1 1.1-.4 1.3-.2.2-.3.2-.5.2z" fill="#6ca100"/><path d="m18 7c-.2 0-.4-.1-.5-.2-.5-.3-.6-.9-.3-1.4 1.4-2.1 3.8-3.4 6.4-3.4h.8c2.6 0 5 1.3 6.4 3.4.3.4.3 1.1-.2 1.4-.4.3-1.1.3-1.4-.2 0 0-.1-.1-.1-.2-1-1.4-2.8-2.4-4.7-2.4h-.8c-1.9 0-3.7 1-4.8 2.6-.2.2-.5.4-.8.4z" fill="#3f9c35"/><path d="m24 12c-.6 0-1-.4-1-1s.4-1 1-1c.6 0 1 .4 1 1s-.4 1-1 1z" fill="#92d400"/><path d="m8 27h4c1.1 0 2 .9 2 2v3c0 1.1-.9 2-2 2h-4c-1.1 0-2-.9-2-2v-3c0-1.1.9-2 2-2z" fill="#f9d67a"/></g><path d="m32.9 33c-2.2 0-4 1.8-4 4s1.8 4 4 4 4-1.8 4-4-1.8-4-4-4z" fill="#f5c12e"/></svg>