<svg id="Layer_1" enable-background="new 0 0 96 96" viewBox="0 0 96 96" xmlns="http://www.w3.org/2000/svg"><g><path d="m92.3265 33.6393-13.3044 25.2917c-1.5245 2.898-5.1107 4.0119-8.0087 2.4874l-43.8602-23.072c-2.8927-1.5217-4.0065-5.1079-2.4821-8.0059l13.3044-25.2917c1.5245-2.898 5.1107-4.0119 8.0034-2.4902l43.8602 23.072c2.898 1.5244 4.0118 5.1107 2.4874 8.0087z" fill="#ffd000"/><path d="m58.592-7.127h8.663v61.41h-8.663z" transform="matrix(.466 -.885 .885 .466 12.762 68.29)"/><path d="m74.98 25.0264-9.1581 4.9707-3.2233-1.6955 9.1582-4.9708z" fill="#fff"/><path d="m78.1528 26.6954-9.1582 4.9707-2.003-1.0537 9.1582-4.9707z" fill="#fff"/><path d="m30.158 31.017h22.532v1.596h-22.532z" transform="matrix(.886 .464 -.464 .886 19.468 -15.577)"/><path d="m28.821 32.991h17.809v1.596h-17.809z" transform="matrix(.886 .464 -.464 .886 19.962 -13.638)"/></g><g><g><g><path d="m66.0006 39.4573 9.729 26.8706c1.1148 3.0789-.4779 6.4796-3.5569 7.5944l-46.5981 16.8716c-3.0733 1.1127-6.474-.48-7.5888-3.5589l-9.729-26.8706c-1.1148-3.0789.4779-6.4796 3.5513-7.5924l46.5981-16.8716c3.0789-1.1148 6.4796.4779 7.5944 3.5569z" fill="#34b53b"/><path d="m8.053 50.078h61.41v8.663h-61.41z" transform="matrix(.94 -.34 .34 .94 -16.208 16.445)"/><path d="m47.9497 46.4748-2.496 10.1168-3.4244 1.2398 2.4959-10.1168z" fill="#fff"/><path d="m51.3205 45.2543-2.496 10.1168-2.128.7705 2.496-10.1168z" fill="#fff"/><path d="m67.0582 64.4087 1.8271 5.011c.2333.6399-.0963 1.3477-.7361 1.581l-6.9181 2.5224c-.6399.2333-1.3477-.0963-1.581-.7361l-1.8271-5.011c-.2333-.6399.0963-1.3477.7361-1.581l6.9181-2.5224c.6399-.2334 1.3477.0962 1.581.7361z" fill="#ffc800"/><g><g><path d="m62.474 64.81h.5v4.15h-.5z" fill="#d4ae20" transform="matrix(.94 -.343 .343 .94 -19.117 25.533)"/></g></g><g><g><path d="m58.439 68.348h9.83v.5h-9.83z" fill="#d4ae20" transform="matrix(.94 -.343 .343 .94 -19.665 25.853)"/></g></g></g></g><path d="m19.095 75.05h22.532v1.596h-22.532z" transform="matrix(.94 -.343 .343 .94 -24.145 14.989)"/><path d="m20.424 79.113h17.809v1.596h-17.809z" transform="matrix(.94 -.343 .343 .94 -25.599 14.881)"/></g></svg>