<svg id="Layer_1" viewBox="0 0 64 64" xmlns="http://www.w3.org/2000/svg" data-name="Layer 1"><path d="m22.62 48.62v-.18l2-11.95a2.43 2.43 0 0 1 2.38-1.75h4.84a16.36 16.36 0 0 0 16.23-14.34 17.45 17.45 0 0 0 .12-2.3 10.35 10.35 0 0 0 -10.38-10.1h-14.61a5.48 5.48 0 0 0 -5.41 4.58l-5.64 33.51a3.77 3.77 0 0 0 3.72 4.4h4.53a2.25 2.25 0 0 0 2.22-1.87z" fill="#4fbe9f"/><path d="m48.07 20.4a16.36 16.36 0 0 1 -16.23 14.34h-4.84a2.43 2.43 0 0 0 -2.34 1.75l-2.66 16a3 3 0 0 0 3 3.51h3.45a3 3 0 0 0 3-2.51l1.34-8.49a3.35 3.35 0 0 1 3.31-2.8h1.46a14.34 14.34 0 0 0 14.34-14.37 9.09 9.09 0 0 0 -3.83-7.43zm0 0" fill="#dcdfe2"/><path d="m27 34.74h4.84a16.36 16.36 0 0 0 16.23-14.34 9.07 9.07 0 0 0 -5.28-1.68h-12.64a3 3 0 0 0 -2.91 2.45l-2.58 15.32a2.43 2.43 0 0 1 2.34-1.75zm0 0" fill="#09816c"/><path d="m50.22 22.56a9.19 9.19 0 0 0 -2.15-2.16 16.36 16.36 0 0 1 -16.23 14.34h-4.84a2.43 2.43 0 0 0 -2.34 1.75l-2.66 16v.23a4.73 4.73 0 0 0 3.09-3.72l2-11.8h4.77a18.87 18.87 0 0 0 18.36-14.64z" fill="#cad0d8"/></svg>