<svg height="512" viewBox="0 0 32 32" width="512" xmlns="http://www.w3.org/2000/svg" xmlns:xlink="http://www.w3.org/1999/xlink"><linearGradient id="linear-gradient" gradientUnits="userSpaceOnUse" x1="2" x2="30" y1="16" y2="16"><stop offset=".198" stop-color="#60d3fc"/><stop offset=".872" stop-color="#fc6bf8"/></linearGradient><g id="Layer_2" data-name="Layer 2"><path d="m18 6a11.976 11.976 0 0 0 -3.33.469 6.5 6.5 0 1 0 -8.2 8.2 12 12 0 1 0 11.53-8.669zm-14 2.5a4.5 4.5 0 1 1 4.5 4.5 4.505 4.505 0 0 1 -4.5-4.5zm14 19.5a9.984 9.984 0 0 1 -9.533-13h.033a6.508 6.508 0 0 0 6.5-6.5v-.033a10 10 0 1 1 3 19.533zm7-10a1 1 0 0 1 -1 1h-6a1 1 0 0 1 -1-1v-6a1 1 0 0 1 2 0v5h5a1 1 0 0 1 1 1zm-17.5-10v-2a1 1 0 0 1 2 0v2a1 1 0 0 1 -2 0zm1 4a1 1 0 1 1 1-1 1 1 0 0 1 -1 1z" fill="url(#linear-gradient)"/></g></svg>