<svg id="Layer_1" viewBox="0 0 512 512" xmlns="http://www.w3.org/2000/svg" data-name="Layer 1"><path d="m151.959 365.125a14.525 14.525 0 0 1 28.063 7.511l-25.4 94.734a14.512 14.512 0 0 1 -28.035-7.511zm97.541 7.511a14.511 14.511 0 1 1 28.034-7.511l26.391 98.475a14.512 14.512 0 0 1 -28.035 7.512z" fill="#966c45" fill-rule="evenodd"/><path d="m188.612 307.723h90.4a78.234 78.234 0 0 1 56.381 23.358l77.953 77.981c16.838 16.809-5.329 37.9-25.285 23.782l-85.8-60.633a25.348 25.348 0 0 0 -19.275-7.965l-133.966-4-8.5-5.357c-2.722-3.033-5.783-7.682-6.889-11.821l-20.012-112.45a26.249 26.249 0 1 1 50.712-13.578z" fill="#69a7ff" fill-rule="evenodd"/><path d="m97.818 458.668a14.49 14.49 0 0 1 17.971-22.734c66.331 52.469 131.528 51.7 198-.085a14.5 14.5 0 0 1 17.83 22.876c-77.641 60.463-156.359 61.228-233.8-.057z" fill="#af794a" fill-rule="evenodd"/><path d="m84.07 220.161a14.512 14.512 0 0 1 28.034-7.512l31.38 117.071a33.9 33.9 0 0 0 33.307 25.54h124.5a14.528 14.528 0 0 1 0 29.055h-124.5a63 63 0 0 1 -61.342-47.115z" fill="#af794a" fill-rule="evenodd"/><path d="m138.92 197.6a26.462 26.462 0 1 0 -26.475-26.475 26.524 26.524 0 0 0 26.475 26.475z" fill="#faba7b" fill-rule="evenodd"/><path d="m287.796 90.816h38.948v94.252h-38.948z" fill="#69a7ff"/><path d="m345.934 59.521h38.92v125.547h-38.92z" fill="#093"/><path d="m229.685 122.082h38.92v62.986h-38.92z" fill="#fb4455"/><g fill-rule="evenodd"><path d="m151.534 324.221-30.019-112.021a26.326 26.326 0 0 1 6.974-12.416 26.381 26.381 0 0 0 -15.024 17.916l30.019 112.02a33.9 33.9 0 0 0 33.307 25.54h124.5a14.53 14.53 0 0 1 10.97 24.038l75.8 53.546c10.857 7.682 22.394 4.933 27.921-1.9-5.754 1.956-12.954 1.3-19.87-3.6l-75.8-53.546a14.53 14.53 0 0 0 -10.97-24.038h-124.5a33.9 33.9 0 0 1 -33.307-25.54z" fill="#4c8fed"/><path d="m120.466 171.122a26.489 26.489 0 0 1 22.451-26.164 26.476 26.476 0 1 0 0 52.327 26.466 26.466 0 0 1 -22.451-26.163z" fill="#f5ad65"/><path d="m124.038 328.841-31.379-117.041a14.533 14.533 0 0 1 .538-9.071 14.612 14.612 0 0 0 -9.127 17.433l31.379 117.038a63.05 63.05 0 0 0 61.342 47.112h124.5a14.5 14.5 0 0 0 10.97-5.017 14.885 14.885 0 0 0 2.551-4.224 14.217 14.217 0 0 1 -4.932.879h-124.472c-2.1 0-4.167-.113-6.208-.312a62.709 62.709 0 0 1 -27.552-9.269 53.991 53.991 0 0 1 -4.989-3.458 63.257 63.257 0 0 1 -22.621-34.073z" fill="#a36f41"/><path d="m252.618 384.315 20.608 76.848c3-1.39 5.981-2.892 8.985-4.508l-19.36-72.34zm-93.912-2.579a63.418 63.418 0 0 1 -10.12-3.912l-18.425 68.655c3.2 2.154 6.378 4.195 9.553 6.094z" fill="#87603b"/><path d="m101.7 450.136a14.484 14.484 0 0 1 -5.442-12.784c-.284.311-.567.623-.822.963a14.5 14.5 0 0 0 2.381 20.353c77.442 61.285 156.16 60.52 233.8.057a14.448 14.448 0 0 0 5.5-10.007 13.72 13.72 0 0 1 -1.644 1.474 263.215 263.215 0 0 1 -31.692 21.345 204.206 204.206 0 0 1 -18.765 9.468c-46.829 20.75-93.855 19.786-140.6-3.4-5.9-2.92-11.82-6.208-17.716-9.865a256.9 256.9 0 0 1 -25-17.6z" fill="#a36f41"/><path d="m239.323 174.296v-52.214h-9.638v62.986h38.92v-10.772z" fill="#e82e41"/><path d="m297.462 174.296v-83.48h-9.666v94.252h38.948v-10.772z" fill="#4c8fed"/><path d="m355.572 174.296v-114.775h-9.638v125.547h38.92v-10.772z" fill="#00852c"/><path d="m370.737 244.284a57.685 57.685 0 1 0 -57.685-57.684 57.791 57.791 0 0 0 57.685 57.685z" fill="#ffd23b"/><path d="m325.156 174.3a50.214 50.214 0 0 1 1.588-5.811 57.752 57.752 0 0 1 28.828-33.42 57.191 57.191 0 0 1 20.551-5.9c-1.786-.17-3.571-.255-5.386-.255a57.476 57.476 0 0 0 -43.993 20.381 57.415 57.415 0 0 0 -12.388 25 58.69 58.69 0 0 0 -1.3 10.772v1.533a57.682 57.682 0 0 0 57.685 57.685c1.815 0 3.6-.085 5.386-.255a57.682 57.682 0 0 1 -52.3-57.43c0-.511 0-1.021.028-1.531a56.283 56.283 0 0 1 1.3-10.772z" fill="#e8bd31"/></g><path d="m340.333 326.771a85.368 85.368 0 0 0 -61.322-25.4h-85.022l-22.9-85.493a33.086 33.086 0 0 0 -11.727-17.613 33.477 33.477 0 1 0 -40.841.018 33.215 33.215 0 0 0 -4.521 4.295 21.581 21.581 0 0 0 -5.133-4.128 21.523 21.523 0 0 0 -31.555 24.178l31.377 117.033a70.028 70.028 0 0 0 31.693 42.29l-14.368 53.62q-2.936-2.181-5.875-4.507a21.5 21.5 0 0 0 -26.663 33.741c39.578 31.318 80.224 47.195 120.835 47.195h.354c40.443-.092 81.24-15.94 121.275-47.117a21.517 21.517 0 0 0 3.707-30.154 21.48 21.48 0 0 0 -30.157-3.756q-3.01 2.343-6.012 4.539l-11.678-43.545h9.5a21.334 21.334 0 0 0 11.3-3.244l71.425 50.456a30.492 30.492 0 0 0 17.675 5.984 25.438 25.438 0 0 0 19.445-8.823c6.547-7.772 8.207-20.552-2.839-31.58zm-201.407-174.471a19.473 19.473 0 0 1 .024 38.945h-.072a19.472 19.472 0 0 1 .048-38.944zm14.331 235.7a70.178 70.178 0 0 0 14.646 3.42l-16.2 60.493q-6.726-3.561-13.463-7.881zm111.643 69.8c-33.695 14.215-66.964 14.294-100.341.234l17.691-66.069h65zm-3.157-65.835h15.557l13.928 51.916q-6.744 4.281-13.46 7.812zm41.049 61.08a6.972 6.972 0 0 0 .853-.572q7.229-4.846 14.445-10.455a7.5 7.5 0 0 1 9.224 11.828c-75.29 58.632-151.041 58.626-225.15-.022a7.506 7.506 0 0 1 3.79-13.336 7.378 7.378 0 0 1 5.49 1.553q7.115 5.63 14.261 10.476a6.912 6.912 0 0 0 1.077.731 198.707 198.707 0 0 0 25.708 14.7 6.994 6.994 0 0 0 1.555.724c20.094 9.268 40.256 13.948 60.294 13.948h.417c20.038-.065 40.3-4.813 60.6-14.154a7 7 0 0 0 1.664-.778 205.1 205.1 0 0 0 25.78-14.641zm4.3-77.854c-.063.069-.126.139-.187.211a7.476 7.476 0 0 1 -5.624 2.559h-124.481a56.079 56.079 0 0 1 -54.577-41.923l-31.384-117.038a7.555 7.555 0 0 1 5.349-9.2 7.339 7.339 0 0 1 1.912-.254 7.49 7.49 0 0 1 3.757 1.022 7.405 7.405 0 0 1 3.492 4.545l31.373 117.023a40.883 40.883 0 0 0 40.078 30.776h124.5a7.519 7.519 0 0 1 5.811 12.281zm103.323 52.124c-3.516 4.17-10.937 5.655-18.328.428l-70.635-49.9a21.462 21.462 0 0 0 -20.171-28.938h-124.481a26.884 26.884 0 0 1 -26.544-20.379l-29.52-110.091a19.218 19.218 0 0 1 36.825 1.073l24.293 90.677a7 7 0 0 0 6.762 5.191h90.4a71.357 71.357 0 0 1 51.428 21.305l77.956 77.984c4.375 4.373 5.115 8.984 2.025 12.652zm-39.677-283.461a7 7 0 0 1 7 7v4.246a20.329 20.329 0 0 1 12.032 12.16 7 7 0 1 1 -13.18 4.732 6.206 6.206 0 1 0 -5.854 8.264 20.211 20.211 0 0 1 7 39.171v4.226a7 7 0 0 1 -14 0v-4.229a20.212 20.212 0 0 1 -12.038-12.16 7 7 0 0 1 13.193-4.693 6.21 6.21 0 1 0 5.847-8.312 20.211 20.211 0 0 1 -7-39.171v-4.227a7 7 0 0 1 7-7.007zm-141.049-28.118a7 7 0 0 0 -7 7v62.984a7 7 0 0 0 7 7h38.919a7 7 0 0 0 7-7v-62.983a7 7 0 0 0 -7-7zm31.917 62.984h-24.915v-48.981h24.915zm77.328-118.542v70.781q-2.676 1.517-5.187 3.275v-42.763a7 7 0 0 0 -7-7h-38.947a7 7 0 0 0 -7 7v94.25a7 7 0 0 0 7 7h18.5a64.677 64.677 0 1 0 85.556-66.6v-65.943a7 7 0 0 0 -7-7h-38.92a7 7 0 0 0 -7.002 7zm-19.191 87.349a64.361 64.361 0 0 0 -13.11 31.193h-11.833v-80.247h24.943zm63.714-9.339a52.863 52.863 0 1 1 -.2-.05c.068.016.133.036.2.05zm-30.519-71.008h24.914v55.786a64.157 64.157 0 0 0 -24.914 2.111zm-139.6 29.927a7 7 0 0 1 4.59-8.773c57.931-18.134 103.025-42.471 137.341-74.178l-8.193.073h-.064a7 7 0 0 1 -.061-14l25.454-.229h.063a7 7 0 0 1 6.977 7.579l-2.1 25.369a7 7 0 0 1 -6.969 6.425c-.193 0-.389-.008-.585-.024a7 7 0 0 1 -6.4-7.555l.545-6.6c-35.754 32.768-82.329 57.874-141.823 76.5a6.992 6.992 0 0 1 -8.773-4.59z"/></svg>