<svg height="512" viewBox="0 0 64 64" width="512" xmlns="http://www.w3.org/2000/svg"><g id="Layer_24" data-name="Layer 24"><path d="m37 58-1-4h-12l-1 4z" fill="#565656"/><path d="m6 14a4 4 0 0 0 -4 4v32a4 4 0 0 0 4 4h48a4 4 0 0 0 4-4v-32a4 4 0 0 0 -4-4z" fill="#565656"/><path d="m54 14h-48a4.061 4.061 0 0 0 -.471.047 3.959 3.959 0 0 0 -.529 1.953v32a4 4 0 0 0 4 4h48a4.061 4.061 0 0 0 .471-.047 3.959 3.959 0 0 0 .529-1.953v-32a4 4 0 0 0 -4-4z" fill="#636363"/><path d="m6 46v-28h48v28" fill="#66c3e9"/><path d="m9 18h45v28h-45z" fill="#8adef9"/><path d="m2 50a4 4 0 0 0 4 4h48a4 4 0 0 0 4-4v-4h-56z" fill="#3693cf"/><path d="m5 48a4 4 0 0 0 4 4h48a4.061 4.061 0 0 0 .471-.047 3.959 3.959 0 0 0 .529-1.953v-4h-53z" fill="#43b6e5"/><path d="m37 58h-14a3 3 0 0 0 -3 3v1h20v-1a3 3 0 0 0 -3-3z" fill="#3693cf"/><path d="m29 49h2v2h-2z" fill="#fff"/><path d="m37 58h-12a3 3 0 0 0 -3 3v1h18v-1a3 3 0 0 0 -3-3z" fill="#43b6e5"/><path d="m31 33v-31h23l8 8v32h-31v-5" fill="#ccc"/><path d="m35 2v5a31 31 0 0 0 27 30.734v-27.734l-8-8z" fill="#f2f2f2"/><path d="m62 10h-8v-8" fill="#ccc"/><path d="m35 29v-1h4v1a8 8 0 0 1 -8 8h-4v3l-6-5 6-5v3h4a4 4 0 0 0 4-4z" fill="#39b54a"/><path d="m37 28h-2v1a4 4 0 0 1 -4 4h-4v-3l-6 5h9a7 7 0 0 0 7-7z" fill="#009245"/><g fill="#f2f2f2"><path d="m34 5h12v2h-12z"/><path d="m34 9h12v2h-12z"/><path d="m34 15h25v2h-25z"/><path d="m34 19h25v2h-25z"/><path d="m34 23h25v2h-25z"/><path d="m47 29h12v2h-12z"/><path d="m51 33h8v2h-8z"/><path d="m41 37h18v2h-18z"/><path d="m17 21h14v2h-14z"/><path d="m9 25h16v2h-16z"/><path d="m9 29h12v2h-12z"/><path d="m9 37h10v2h-10z"/><path d="m9 41h16v2h-16z"/></g><path d="m35 5h11v2h-11z" fill="#fff"/><path d="m46 9h-10.929q.064 1.009.191 2h10.738z" fill="#fff"/><path d="m59 15h-22.95c.18.676.378 1.344.6 2h22.35z" fill="#fff"/><path d="m59 19h-21.583q.429 1.018.925 2h20.658z" fill="#fff"/><path d="m59 23h-19.551c.414.685.857 1.351 1.321 2h18.23z" fill="#fff"/><path d="m47 29h12v2h-12z" fill="#fff"/><path d="m59 33h-8v1.119c.559.31 1.126.606 1.7.881h6.3z" fill="#fff"/><path d="m58.225 37c.258.066.515.133.775.193v-.193z" fill="#fff"/></g></svg>