<svg height="480pt" viewBox="0 -4 480 480" width="480pt" xmlns="http://www.w3.org/2000/svg"><path d="m444.417969 452.132812-135.765625-48 25.753906-24.835937 105.59375 37.332031zm0 0" fill="#1e81ce"/><path d="m428.039062 378.460938-60.339843-21.335938c-8.332031-2.945312-17.472657 1.421875-20.417969 9.753906l-5.332031 15.085938 90.507812 32 5.335938-15.085938c2.945312-8.332031-1.421875-17.472656-9.753907-20.417968zm0 0" fill="#39a0e5"/><path d="m410.367188 236.445312c4.558593 17.988282 2.21875 37.027344-6.554688 53.378907l-36.113281 67.300781 60.339843 21.335938 14.214844-75.046876c3.453125-18.230468 13.601563-34.507812 28.453125-45.632812zm0 0" fill="#1e81ce"/><path d="m472.535156 224.484375c0 13.257813-10.742187 24-24 24-13.253906 0-24-10.742187-24-24 0-13.253906 10.746094-24 24-24 13.257813 0 24 10.746094 24 24zm0 0" fill="#1e81ce"/><path d="m35.582031 452.132812 135.765625-48-25.753906-24.835937-105.59375 37.332031zm0 0" fill="#ffd422"/><path d="m51.960938 378.460938 60.339843-21.335938c8.332031-2.945312 17.472657 1.421875 20.417969 9.753906l5.332031 15.085938-90.507812 32-5.335938-15.085938c-2.945312-8.332031 1.421875-17.472656 9.753907-20.417968zm0 0" fill="#efc30c"/><path d="m69.632812 236.445312c-4.558593 17.988282-2.21875 37.027344 6.554688 53.378907l36.113281 67.300781-60.339843 21.335938-14.214844-75.046876c-3.453125-18.230468-13.601563-34.507812-28.453125-45.632812zm0 0" fill="#e7b900"/><path d="m55.464844 224.484375c0 13.257813-10.746094 24-24 24-13.257813 0-24-10.742187-24-24 0-13.253906 10.742187-24 24-24 13.253906 0 24 10.746094 24 24zm0 0" fill="#efc30c"/><path d="m0 456h480v16h-480zm0 0" fill="#6dc82a"/><path d="m320 360h-160l16-32h128zm0 0" fill="#b30222"/><path d="m280 296h-80c-8.835938 0-16 7.164062-16 16v16h112v-16c0-8.835938-7.164062-16-16-16zm0 0" fill="#e20736"/><path d="m192 296v-.847656c0-25.988282 4.609375-51.871094-2.089844-76.984375l-5.292968-19.847657c-9.792969-36.734374 6.375-75.457031 39.382812-94.320312l16 16 40-16-16 40 39.929688 46.585938c4.554687 5.3125 4.25 13.234374-.699219 18.183593-4.269531 4.269531-10.867188 5.152344-16.109375 2.15625l-47.121094-26.925781 20.574219 37.035156c12.738281 22.929688 27.425781 48.730469 27.425781 74.964844zm0 0" fill="#e20736"/><path d="m256 32v32c0 8.835938-7.164062 16-16 16s-16-7.164062-16-16v-16l-16-16h-48v32h16c4.398438 0 8.398438 1.757812 11.28125 4.71875 2.960938 2.882812 4.71875 6.882812 4.71875 11.28125v16h-48l-24-24h-32v-72h136zm0 0" fill="#ffb398"/><path d="m8 0h80v72h-80zm0 0" fill="#29485a"/><g fill="#fff"><path d="m206.757812 199.707031c-11.132812-24.953125-5.605468-56.066406 13.445313-75.660156l11.46875 11.15625c-14.367187 14.777344-18.699219 39.164063-10.304687 57.988281zm0 0"/><path d="m213.320312 216.421875 14.953126-5.695313 5.386718 14.148438-14.953125 5.695312zm0 0"/></g></svg>