<svg height="512" viewBox="0 0 512 512" width="512" xmlns="http://www.w3.org/2000/svg"><g id="filled_outline" data-name="filled outline"><path d="m72 264v-32a48 48 0 0 1 19.2-38.4 48 48 0 0 1 28.8-9.6h24v80z" fill="#ea9d2d"/><path d="m72 264h368a0 0 0 0 1 0 0v198a26 26 0 0 1 -26 26h-316a26 26 0 0 1 -26-26v-198a0 0 0 0 1 0 0z" fill="#ea9d2d"/><path d="m392 336h-272l-48-72h368z" fill="#97661d"/><path d="m232 320h48v48h-48z" fill="#d18d28"/><path d="m128 24h224v312h-224z" fill="#eaeae8"/><circle cx="240" cy="120" fill="#2cbff4" r="64"/><path d="m280 168v1.97a64.036 64.036 0 0 1 -80 0v-1.97l3.44-10.32a20 20 0 0 1 18.98-13.68h35.16a20 20 0 0 1 18.98 13.68z" fill="#2cbff4"/><rect fill="#f6bb92" height="56" rx="16" width="32" x="224" y="88"/><path d="m256 104-16.411 5.47a49.279 49.279 0 0 1 -15.589 2.53v-8a16 16 0 0 1 16-16 16 16 0 0 1 16 16z" fill="#533222"/><path d="m280 168v1.97a64.036 64.036 0 0 1 -80 0v-1.97l3.44-10.32a20 20 0 0 1 18.98-13.68h35.16a20 20 0 0 1 18.98 13.68z" fill="#02a437"/><g fill="#a8a8a8"><path d="m264 224h-48a8 8 0 0 1 0-16h48a8 8 0 0 1 0 16z"/><path d="m200 256h-32a8 8 0 0 1 0-16h32a8 8 0 0 1 0 16z"/><path d="m200 288h-32a8 8 0 0 1 0-16h32a8 8 0 0 1 0 16z"/><path d="m320 256h-64a8 8 0 0 1 0-16h64a8 8 0 0 1 0 16z"/><path d="m320 288h-64a8 8 0 0 1 0-16h64a8 8 0 0 1 0 16z"/></g><path d="m440 264v-32a48 48 0 0 0 -19.2-38.4 48 48 0 0 0 -28.8-9.6h-24v80z" fill="#ea9d2d"/><path d="m352 48h32v288h-32z" fill="#a8a8a8"/><path d="m128 464h-8a8 8 0 0 1 0-16h8a8 8 0 0 1 0 16z" fill="#c38325"/><path d="m192 464h-32a8 8 0 0 1 0-16h32a8 8 0 0 1 0 16z" fill="#c38325"/><path d="m98 496h316a34.038 34.038 0 0 0 34-34v-230a56 56 0 0 0 -56-56v-128a8 8 0 0 0 -8-8h-24v-16a8 8 0 0 0 -8-8h-224a8 8 0 0 0 -8 8v152a56 56 0 0 0 -56 56v230a34.038 34.038 0 0 0 34 34zm294-304a40 40 0 0 1 40 40v24h-40zm0 80h33.052l-33.052 49.578zm-32-216h16v272h-16zm-224-24h208v296h-208zm136 312v16h-32v-16zm-192-112a40 40 0 0 1 40-40v64h-40zm40 40v49.578l-33.052-49.578zm-40 18.422 33.344 50.016a8 8 0 0 0 6.656 3.562h104v24a8 8 0 0 0 8 8h48a8 8 0 0 0 8-8v-24h104a8 8 0 0 0 6.656-3.562l33.344-50.016v171.578a18.021 18.021 0 0 1 -18 18h-316a18.021 18.021 0 0 1 -18-18z"/><path d="m240 192a72 72 0 1 0 -72-72 72.081 72.081 0 0 0 72 72zm0-16a55.67 55.67 0 0 1 -31.085-9.446l2.115-6.348a11.986 11.986 0 0 1 11.385-8.206h35.17a11.984 11.984 0 0 1 11.384 8.205l2.116 6.349a55.67 55.67 0 0 1 -31.085 9.446zm2.12-58.94 5.88-1.96v12.9a8 8 0 0 1 -16 0v-8.572a57.252 57.252 0 0 0 10.12-2.368zm-10.08-13.849v-.01c.009-.094.028-.185.04-.278.023-.165.043-.331.076-.493.021-.108.052-.213.078-.32.035-.142.067-.286.109-.425.034-.11.075-.216.113-.324.046-.132.091-.264.143-.392.045-.108.1-.212.145-.318.056-.122.112-.245.175-.364.055-.1.115-.205.174-.307s.135-.229.207-.34.133-.193.2-.289.155-.213.237-.316.149-.182.226-.27.175-.2.265-.292.165-.167.249-.248.194-.18.293-.267.177-.151.268-.223.213-.163.321-.241.188-.133.285-.2c.113-.074.23-.143.347-.211.1-.058.2-.116.3-.17.123-.064.249-.122.374-.18.1-.047.2-.1.309-.139.132-.054.269-.1.405-.148.1-.036.205-.075.31-.107.146-.044.3-.079.445-.114.1-.025.2-.053.3-.073.168-.034.341-.056.513-.079.086-.011.171-.028.258-.037.261-.026.525-.04.793-.04a7.973 7.973 0 0 1 .865.049c.094.01.184.029.277.042.189.027.378.056.563.1.107.024.211.054.316.082.166.043.331.088.492.141.109.036.214.078.32.118.154.058.306.119.454.187.1.047.208.1.31.149q.216.109.424.231c.1.058.2.116.292.178.136.088.269.181.4.276.09.066.181.131.268.2.13.1.254.215.378.327.078.07.159.139.234.213.132.128.255.265.377.4.051.056.1.109.153.167l-9.062 3.021a41.388 41.388 0 0 1 -5.019 1.334zm7.96-39.211a55.954 55.954 0 0 1 43.955 90.636 27.941 27.941 0 0 0 -21.491-18.2 23.88 23.88 0 0 0 1.536-8.436v-24a24 24 0 0 0 -48 0v24a23.88 23.88 0 0 0 1.536 8.439 27.944 27.944 0 0 0 -21.492 18.2 55.954 55.954 0 0 1 43.956-90.639z"/><path d="m272 216a8 8 0 0 0 -8-8h-48a8 8 0 0 0 0 16h48a8 8 0 0 0 8-8z"/><path d="m200 240h-32a8 8 0 0 0 0 16h32a8 8 0 0 0 0-16z"/><path d="m200 272h-32a8 8 0 0 0 0 16h32a8 8 0 0 0 0-16z"/><path d="m320 240h-64a8 8 0 0 0 0 16h64a8 8 0 0 0 0-16z"/><path d="m320 272h-64a8 8 0 0 0 0 16h64a8 8 0 0 0 0-16z"/><path d="m120 464h8a8 8 0 0 0 0-16h-8a8 8 0 0 0 0 16z"/><path d="m160 464h32a8 8 0 0 0 0-16h-32a8 8 0 0 0 0 16z"/></g></svg>