<svg id="Bahan_copy_6" height="512" viewBox="0 0 64 64" width="512" xmlns="http://www.w3.org/2000/svg" xmlns:xlink="http://www.w3.org/1999/xlink" data-name="Bahan copy 6"><linearGradient id="linear-gradient" gradientUnits="userSpaceOnUse" x1="7.74" x2="56.258" y1="31.995" y2="31.995"><stop offset="0" stop-color="#ff81ff"/><stop offset="1" stop-color="#a93aff"/></linearGradient><path d="m37.46 10.37h-24.72a5.00824 5.00824 0 0 0 -5 5v39.63a5.00824 5.00824 0 0 0 5 5h24.72a5.00824 5.00824 0 0 0 5-5v-39.63a5.00824 5.00824 0 0 0 -5-5zm-23.42 37.21h22.12a1.00017 1.00017 0 0 1 -.00006 2h-22.11994a1.00012 1.00012 0 0 1 0-2zm-1-4.56a1.003 1.003 0 0 1 1-1h12.96a1 1 0 0 1 0 2h-12.96a.99654.99654 0 0 1 -1-1zm1 10.12h12.96a1.00012 1.00012 0 0 1 0 2h-12.96a1.00012 1.00012 0 0 1 0-2zm22.12-14.67h-22.12a1.00011 1.00011 0 0 1 0-2h22.12a1.00017 1.00017 0 0 1 0 2zm-16.78-18.36c.23062-7.54714 11.1965-7.555 11.43.00012a5.66153 5.66153 0 0 1 -1.16 3.43988 10.18962 10.18962 0 0 1 5.39 7.04 2.50116 2.50116 0 0 1 -2.5 3.01h-14.88a2.54876 2.54876 0 0 1 -2.5-3.01 10.10909 10.10909 0 0 1 5.38-7.04 5.66162 5.66162 0 0 1 -1.16-3.44zm-2.26 10.88a8.09174 8.09174 0 0 1 5.04-5.97 5.72252 5.72252 0 0 0 5.87006 0 8.12444 8.12444 0 0 1 5.05 5.97.49064.49064 0 0 1 -.54.61h-14.88006a.53621.53621 0 0 1 -.43-.2.48367.48367 0 0 1 -.11-.41zm39.07-17.41-6.78 40a4.55594 4.55594 0 0 1 -5.23 3.71l-.1-.02c.22-.62.36014-41.6.38-41.9a7.0077 7.0077 0 0 0 -7-7h-15.6l.10006-.59a4.57094 4.57094 0 0 1 5.23-3.72l25.28994 4.29a4.53531 4.53531 0 0 1 3.71 5.23zm-28.20008 4.1999a3.72032 3.72032 0 0 1 -5.09992 5.3201c-4.30383-3.50718 1.41325-9.45783 5.09992-5.3201z" fill="url(#linear-gradient)"/></svg>