<svg id="_x30_4" enable-background="new 0 0 116.001 110.001" height="512" viewBox="0 0 116.001 110.001" width="512" xmlns="http://www.w3.org/2000/svg"><g><g><path d="m114 52.001-3.33 1.25-.11.04-8.1 3.04-4.46 1.67-6.77-15.48-.23-.52c-2 16-1 62-1 62s-.01.01-.03.02c-.22.09-1.61.7-3.97 1.51-.32.11-.65.22-1 .33-5.46 1.76-15.04 4.14-27 4.14-11.31 0-19.79-2.13-24.79-3.84-3.41-1.18-5.21-2.16-5.21-2.16s1-46-1-62l-.08.19-6.92 15.81-4.38-1.64-8.22-3.09-3.4-1.27 9.45-26.78c1.6-4.54 5.28-8.03 9.89-9.39l19.66-5.83h32l19.66 5.83c4.61 1.36 8.29 4.85 9.89 9.39z" fill="#feee00"/></g><g><path d="m67.72 99.201c-2.26 1.81-4.89 3.18-7.76 3.98-1.89.54-3.89.82-5.96.82s-4.07-.28-5.96-.82c-4.38-1.22-8.2-3.77-11.02-7.18-3.14-3.8-5.02-8.68-5.02-14 0-9.06 5.49-16.85 13.32-20.22-5.07 4.03-8.32 10.25-8.32 17.22 0 5.32 1.88 10.2 5.02 14 2.82 3.41 6.64 5.96 11.02 7.18 1.89.54 3.89.82 5.96.82s4.07-.28 5.96-.82c.95-.26 1.87-.59 2.76-.98z" fill="#ffb403"/></g><g><path d="m28.12 63.371c-.17-8.5-.5-16.39-1.12-21.37l-1-9c.05 0 2.09.03 4 5 3.84 9.99 3.55 50.13 3.21 68.16-3.41-1.18-5.21-2.16-5.21-2.16s.41-18.84.18-36.59z" fill="#ffb403"/></g><g><path d="m102.46 56.331-4.46 1.67-7-16 1-9z" fill="#ffb403"/></g><g><path d="m52 11.001s-23 7-28 9-6 5-6 5l-10.6 28.27-3.4-1.27 9.45-26.78c1.6-4.54 5.28-8.03 9.89-9.39l19.66-5.83h8.73z" fill="#ffb403"/></g><g><path d="m81 35.001c.75 2.25-.19 3.94-1.98 5.07-.59.37-1.27.68-2.02.93-3-1-5-3-4-6 .32-.97.33-1.83.19-2.55-.27-1.53-1.19-2.45-1.19-2.45 3 0 5-2 5-2s2 2 5 2c0 0-2 2-1 5z" fill="#176be5"/></g><g><path d="m22.18 53.011-2.18 4.99-4.38-1.64-8.22-3.09-3.4-1.27 1.79-5.07 3.5 1.3 8.54 3.17z" fill="#00b04d"/></g><g><path d="m9.29 48.231-1.89 5.04-3.4-1.27 1.79-5.07z" fill="#007f33"/></g><g><path d="m114 52.001-3.33 1.25-8.21 3.08-4.46 1.67-2.29-5.23 4.46-1.55 8.7-3.04 3.37-1.17z" fill="#00b04d"/></g><g><path d="m102.46 56.331-4.46 1.67-2.29-5.23 4.46-1.55z" fill="#007f33"/></g><g><path d="m75 10.001s-6-3-16-3c-1.82 0-3.52.1-5.06.27-6.93.72-10.94 2.73-10.94 2.73l3-5s5-3 13-3 13 3 13 3z" fill="#00b04d"/></g><g><path d="m72 5.001c-10.48-2.47-15.64.01-18.06 2.27-6.93.72-10.94 2.73-10.94 2.73l3-5s5-3 13-3 13 3 13 3z" fill="#007f33"/></g><g><g><path d="m75 10.001s-.23 2.06-2.12 4.65c-2.04 2.82-6.06 6.26-13.88 8.35-2.15-.57-4.02-1.25-5.63-2-9.64-4.4-10.37-11-10.37-11s1.18-.59 3.36-1.24c2.74-.83 7.07-1.76 12.64-1.76s9.9.93 12.64 1.76c2.04.61 3.21 1.17 3.35 1.23z" fill="#fcfbe7"/></g><g><path d="m75 10.001s-.23 2.06-2.12 4.65c-2.04 2.82-6.06 6.26-13.88 8.35-2.15-.57-4.02-1.25-5.63-2-9.64-4.4-10.37-11-10.37-11l31.99-.01z" fill="#fcfbe7"/></g></g><g><path d="m75 10.001s-.23 2.06-2.12 4.65l-.88-2.65s-17-5-18 6c-.1 1.12-.32 2.12-.63 3-9.64-4.4-10.37-11-10.37-11s1.18-.59 3.36-1.24c2.74-.83 7.07-1.76 12.64-1.76s9.9.93 12.64 1.76c2.04.61 3.21 1.17 3.35 1.23z" fill="#ddd685"/></g><g><g><path d="m17.539 75.533c-.256 0-.512-.098-.707-.293l-2.108-2.108c-.391-.391-.391-1.023 0-1.414s1.024-.391 1.414 0l2.108 2.108c.391.391.391 1.023 0 1.414-.195.196-.451.293-.707.293z" fill="#244356"/></g><g><path d="m12.569 70.563c-.256 0-.512-.098-.707-.293l-2.102-2.102c-.391-.391-.391-1.023 0-1.414s1.024-.391 1.414 0l2.102 2.102c.391.391.391 1.023 0 1.414-.195.196-.451.293-.707.293z" fill="#244356"/></g><g><path d="m10.461 75.533c-.256 0-.512-.098-.707-.293-.391-.391-.391-1.024 0-1.414l2.108-2.108c.391-.391 1.023-.391 1.414 0s.391 1.023 0 1.414l-2.108 2.108c-.195.196-.451.293-.707.293z" fill="#244356"/></g><g><path d="m15.431 70.563c-.256 0-.512-.098-.707-.293-.391-.391-.391-1.023 0-1.414l2.102-2.102c.391-.391 1.023-.391 1.414 0s.391 1.023 0 1.414l-2.102 2.102c-.196.196-.452.293-.707.293z" fill="#244356"/></g></g><g><g><path d="m100.468 75.54c-.256 0-.512-.098-.707-.293-.391-.391-.391-1.023 0-1.414l2.108-2.108c.391-.391 1.024-.391 1.414 0 .391.391.391 1.023 0 1.414l-2.108 2.108c-.196.195-.451.293-.707.293z" fill="#244356"/></g><g><path d="m105.437 70.57c-.256 0-.512-.098-.707-.293-.391-.391-.391-1.023 0-1.414l2.102-2.102c.391-.391 1.023-.391 1.414 0s.391 1.024 0 1.414l-2.102 2.102c-.195.196-.451.293-.707.293z" fill="#244356"/></g><g><path d="m102.576 70.57c-.256 0-.512-.098-.707-.293l-2.108-2.108c-.391-.391-.391-1.023 0-1.414s1.023-.391 1.414 0l2.108 2.108c.391.391.391 1.023 0 1.414-.195.196-.451.293-.707.293z" fill="#244356"/></g><g><path d="m107.539 75.533c-.256 0-.512-.098-.707-.293l-2.102-2.102c-.391-.391-.391-1.023 0-1.414s1.023-.391 1.414 0l2.102 2.102c.391.391.391 1.023 0 1.414-.195.196-.451.293-.707.293z" fill="#244356"/></g></g><g><path d="m14.999 16.001c-.19 0-.383-.054-.554-.168l-3-2c-.46-.306-.584-.927-.277-1.387.306-.459.925-.584 1.387-.277l3 2c.46.306.584.927.277 1.387-.192.289-.51.445-.833.445z" fill="#244356"/></g><g><path d="m22 13.001c-.256 0-.512-.098-.707-.293l-11-11c-.391-.391-.391-1.023 0-1.414s1.023-.391 1.414 0l11 11c.391.391.391 1.023 0 1.414-.195.195-.451.293-.707.293z" fill="#244356"/></g><g><path d="m27.001 10.001c-.334 0-.66-.167-.85-.471l-2.47-3.96c-.292-.469-.149-1.085.319-1.378.47-.292 1.086-.148 1.378.319l2.47 3.96c.292.469.149 1.086-.319 1.378-.165.103-.347.152-.528.152z" fill="#244356"/></g><g><path d="m22.881 3.401c-.333 0-.657-.166-.848-.468l-.88-1.4c-.294-.468-.153-1.085.315-1.379.467-.295 1.084-.153 1.379.314l.88 1.4c.294.468.153 1.085-.315 1.379-.165.105-.35.154-.531.154z" fill="#244356"/></g><g><path d="m93.999 12.001c-.175 0-.353-.046-.514-.143-.474-.284-.627-.898-.343-1.372l3-5c.284-.473.897-.627 1.372-.343.474.284.627.898.343 1.372l-3 5c-.187.313-.518.486-.858.486z" fill="#244356"/></g><g><path d="m99 14.001c-.256 0-.512-.098-.707-.293-.391-.391-.391-1.023 0-1.414l10-10c.391-.391 1.023-.391 1.414 0s.391 1.023 0 1.414l-10 10c-.195.195-.451.293-.707.293z" fill="#244356"/></g><g><path d="m112.471 11.841c-.31 0-.614-.142-.81-.412-.325-.446-.226-1.072.221-1.396l2.53-1.84c.447-.325 1.072-.227 1.397.221.325.446.227 1.072-.221 1.396l-2.53 1.84c-.178.129-.383.191-.587.191z" fill="#244356"/></g><g><path d="m104.001 18.001c-.309 0-.613-.143-.81-.411-.325-.446-.227-1.072.22-1.397l5.56-4.05c.446-.325 1.071-.227 1.397.219.325.446.227 1.072-.22 1.397l-5.56 4.05c-.177.13-.383.192-.587.192z" fill="#244356"/></g><g><path d="m7.44 87.358c-.484 0-.91-.353-.987-.846-.085-.545.289-1.057.834-1.142l8.713-1.357c.559-.078 1.058.29 1.143.834.085.545-.289 1.057-.834 1.142l-8.713 1.357c-.053.009-.105.012-.156.012z" fill="#244356"/></g><g><path d="m17.808 101.181c-.16 0-.323-.039-.475-.12-.485-.263-.667-.87-.404-1.355l4.191-7.756c.262-.485.867-.667 1.355-.404.485.263.667.87.404 1.355l-4.191 7.756c-.18.334-.525.524-.88.524z" fill="#244356"/></g><g><path d="m1.001 104.001c-.295 0-.586-.129-.784-.378-.344-.432-.271-1.062.161-1.405l9.337-7.42c.432-.345 1.06-.271 1.405.161.344.432.272 1.062-.161 1.405l-9.337 7.42c-.184.146-.403.217-.621.217z" fill="#244356"/></g><g><path d="m13.796 93.823c-.295 0-.587-.129-.784-.378-.344-.433-.271-1.062.161-1.405l5.046-4.008c.432-.344 1.062-.271 1.405.161.344.433.271 1.062-.161 1.405l-5.046 4.008c-.184.146-.403.217-.621.217z" fill="#244356"/></g><g><path d="m81 79.001c0 5.32-1.88 10.2-5.02 14-2.82 3.41-6.64 5.96-11.02 7.18-1.89.54-3.89.82-5.96.82s-4.07-.28-5.96-.82c-4.38-1.22-8.2-3.77-11.02-7.18-3.14-3.8-5.02-8.68-5.02-14 0-9.99 6.67-18.43 15.79-21.11 1.97-.58 4.05-.89 6.21-.89s4.24.31 6.21.89c6.46 1.9 11.69 6.69 14.19 12.87.23.57.44 1.16.63 1.76.63 2.05.97 4.22.97 6.48z" fill="#fcfbe7"/></g><g><path d="m69.63 98.271c-1.46.81-3.03 1.45-4.67 1.91-1.89.54-3.89.82-5.96.82s-4.07-.28-5.96-.82c-4.38-1.22-8.2-3.77-11.02-7.18-3.14-3.8-5.02-8.68-5.02-14 0-9.99 6.67-18.43 15.79-21.11.2-.06.41-.12.61-.17-6.79 3.75-11.4 10.98-11.4 19.28 0 5.32 1.88 10.2 5.02 14 2.82 3.41 6.64 5.96 11.02 7.18 1.89.54 3.89.82 5.96.82 1.95 0 3.84-.25 5.63-.73z" fill="#ddd685"/></g><g><path d="m68 77.002c-.404 0-.786-.248-.937-.649-.193-.517.068-1.093.585-1.288l8-3c.517-.19 1.094.068 1.288.585.193.517-.068 1.093-.585 1.288l-8 3c-.116.042-.234.064-.351.064z"/></g><g><path d="m69.001 94.001c-.313 0-.619-.146-.815-.419l-5-7c-.321-.449-.217-1.074.232-1.395.449-.32 1.073-.217 1.395.233l5 7c.321.449.217 1.074-.232 1.395-.176.125-.379.186-.58.186z"/></g><g><g><path d="m80.03 72.521c-1.02.4-2.23.86-3.68 1.42l-8 3c-.11.04-11.23 4.06-11.35 4.06-.4 0 10.21-4.25 10.06-4.65-.19-.52-7.06 1.65.59-1.29l8-3c1.47-.54 2.71-.97 3.75-1.3.23.57.44 1.16.63 1.76z" fill="#ddd685"/></g></g><g><g><path d="m69.001 94.001c-.313 0 2.999 5-.815-.419l-5-7c-9.186-12.581-.216-1.074.233-1.395.449-.32-4.419-8.186 1.394.233l5 7c3.187 4.581.217 1.074-.232 1.395-.176.125-.379.186-.58.186z" fill="#ddd685"/></g></g><g><path d="m75 10.001s-.16 1.47-1.35 3.48c-.92 1.57-2.45 3.46-5.01 5.26-2.29 1.61-5.4 3.12-9.64 4.26-8.32-2.22-12.34-5.98-14.25-8.88-1.55-2.34-1.75-4.12-1.75-4.12l3-5s-.6 2.68 1.31 5.77c1.57 2.57 4.88 5.41 11.69 7.23 1.56-.41 2.93-.88 4.14-1.39 4.76-1.99 7.02-4.57 8.07-6.79 1.27-2.67.79-4.82.79-4.82z" fill="#00b04d"/></g><g><path d="m81 35.001c.97 2.91-.88 4.88-3.74 5.91 1.63-1.12 2.46-2.76 1.74-4.91-1-3 0-5 0-5-2 0-3.15-1.27-3.76-1.79 1.11-.56 1.76-1.21 1.76-1.21s2 2 5 2c0 0-2 2-1 5z" fill="#003dba"/></g><g><path d="m47.31 10.771-2.31 3.23-.25.12c-1.55-2.34-1.75-4.12-1.75-4.12l3-5s-.6 2.68 1.31 5.77z" fill="#007f33"/></g><g><path d="m68.64 18.741c-2.29 1.61-5.4 3.12-9.64 4.26v-5c1.56-.41 2.93-.88 4.14-1.39 1.49 1.55 3.57 2.06 5.5 2.13z" fill="#007f33"/></g><g><path d="m60 45.001c-3 7-17 8-17 8h17 17s-14-1-17-8z" fill="#ffb403"/></g><g><g><g><path d="m37.989 72.521c1.02.4 2.23.86 3.68 1.42l8 3c.11.04 11.23 4.06 11.35 4.06.4 0-10.21-4.25-10.06-4.65.19-.52 7.06 1.65-.59-1.29l-8-3c-1.47-.54-2.71-.97-3.75-1.3-.23.57-.44 1.16-.63 1.76z" fill="#ddd685"/></g></g><g><g><path d="m49.018 94.001c.312 0-2.999 5 .814-.419l5-7c9.187-12.581.217-1.074-.232-1.395-.449-.32 4.419-8.186-1.395.233l-5 7c-3.186 4.581-.217 1.074.232 1.395.177.125.38.186.581.186z" fill="#ddd685"/></g></g><g><g><path d="m59.019 72.001c.553 0 1-.627 1-1.4v-11.2c0-.773-.447-1.4-1-1.4s-1 .627-1 1.4v11.2c0 .773.447 1.4 1 1.4z" fill="#ddd685"/></g></g></g><g><path d="m68 76.001-4 10h-10l-4-10 9-7 2.34 1.82 4.39 3.42z" fill="#375e7d"/></g><g><path d="m54.3 78.965 2.7 7.036h-3l-4-10 9-7 2.34 1.82-6.074 4.695c-1.048.81-1.441 2.212-.966 3.449z" fill="#244356"/></g><g><g><path d="m53.04 100.181c-4.38-1.22-8.2-3.77-11.02-7.18h6.98l.11.19z" fill="#375e7d"/></g><g><path d="m42 73.001-4.97 4.97c.02-.54.06-1.08.13-1.61.03-.27.07-.53.11-.79.03-.22.07-.44.11-.65.01-.08.03-.16.05-.25.03-.17.07-.33.1-.5.09-.38.18-.76.29-1.14.05-.18.1-.35.16-.53.15-.5.32-.99.51-1.47.21-.55.45-1.09.71-1.61.12-.25.24-.49.36-.73.1-.19.2-.37.31-.55.1-.19.21-.37.32-.55.27-.44.55-.87.85-1.29z" fill="#375e7d"/></g><g><path d="m80.97 77.971-4.97-4.97.23-1.63.73-5.07c.3.42.58.85.85 1.29.11.18.22.36.32.55.11.18.21.36.31.55.12.24.24.48.36.73.26.52.5 1.06.71 1.61.19.48.36.97.51 1.47.06.18.11.35.16.53.11.38.2.76.29 1.14.03.17.07.33.1.5.02.09.04.17.05.25.04.21.08.43.11.65.04.26.08.52.11.79.07.53.11 1.07.13 1.61z" fill="#375e7d"/></g><g><path d="m75.98 93.001c-1.76 2.13-3.92 3.93-6.35 5.27-.27.15-.54.29-.81.42-.23.12-.46.23-.69.33-.25.12-.51.23-.77.34-.34.14-.69.27-1.04.39-.03.01-.05.02-.08.03-.04.01-.08.03-.11.04-.04.01-.08.03-.12.04-.35.11-.7.22-1.05.32l.07-.12.63-1.12 3.34-5.94z" fill="#375e7d"/></g><g><path d="m64.87 57.801-2.24 1.22-3.63 1.98-5.28-2.88-.52-.28-.07-.04.24-.06c.15-.05.31-.09.47-.12.23-.06.47-.11.71-.16s.48-.1.72-.14c.18-.04.37-.07.55-.09.19-.03.38-.05.57-.07.85-.11 1.72-.16 2.61-.16s1.76.05 2.61.16c.19.02.38.04.57.07.18.02.37.05.55.09.24.04.48.09.72.14s.48.1.71.16c.24.05.48.12.71.18z" fill="#375e7d"/></g></g><g><path d="m49.11 93.191 3.93 6.99c-4.38-1.22-8.2-3.77-11.02-7.18h6.88c.07.07.14.14.21.19z" fill="#244356"/></g><g><path d="m41.04 66.301.96 6.7-4.97 4.97c.02-.54.06-1.08.13-1.61.03-.27.07-.53.11-.79.03-.22.07-.44.11-.65.01-.08.03-.16.05-.25.03-.17.07-.33.1-.5.09-.38.18-.76.29-1.14.05-.18.1-.35.16-.53.15-.5.32-.99.51-1.47.21-.55.45-1.09.71-1.61.12-.25.24-.49.36-.73.1-.19.2-.37.31-.55.1-.19.21-.37.32-.55.27-.44.55-.87.85-1.29z" fill="#244356"/></g><g><path d="m69.63 98.271c-.27.15-.54.29-.81.42-.23.12-.46.23-.69.33-.25.12-.51.23-.77.34-.34.14-.69.27-1.04.39-.03.01-.05.02-.08.03-.04.01-.08.03-.11.04-.04.01-.08.03-.12.04-.35.11-.7.22-1.05.32l.07-.12.63-1.12c1.36-.1 2.69-.33 3.97-.67z" fill="#244356"/></g></g></svg>