<svg id="Layer_1" viewBox="0 0 128 128" xmlns="http://www.w3.org/2000/svg" data-name="Layer 1"><path d="m62.59 40.75a1.88509 1.88509 0 0 0 .24.14c.18011.08527 16.62244 8.55151 25.99146 47.7962 3.09912 2.59473 5.0285 4.11633 5.0285 4.11633l-3.41331-64.59129s-8.00055-29.75124-32.05665-22.48124c0 0-15.38013 5.7489-15.38013 26.36859a14.20245 14.20245 0 0 0 .14465 1.97675 37.82446 37.82446 0 0 1 19.44548 6.67466z" fill="#81d9e3"/><path d="m52.42 9.04a17.36631 17.36631 0 0 1 5.96-3.31 35.43827 35.43827 0 0 0 -5.96 3.31z" fill="#e1ebf4"/><path d="m112.07 110-15.97 8-2-15s-1.55-43.44-2.06-57.98c-.5-14.55-4.22-37.55-24.93-40.02a20.06006 20.06006 0 0 0 -8.73.73 52.24861 52.24861 0 0 1 8.73-2.96c31.95-8.03 38.62 28.65 38.62 28.65z" fill="#e1ebf4"/><path d="m113.98 107.45-5.39-71.99a55.886 55.886 0 0 0 -2.93-12.6 36.0711 36.0711 0 0 0 -4.53-8.78l2.17-2.56a6.33946 6.33946 0 0 0 1.35-6.38 7.85634 7.85634 0 0 0 -5.8-5 6.4358 6.4358 0 0 0 -6.19 2.21l-1.89 2.16a32.18159 32.18159 0 0 0 -25.22-3.29c-2.36.66-4.77 1.59-7.31 2.58a21.07763 21.07763 0 0 0 -3.11 1.3l-2.4-2.72a6.4103 6.4103 0 0 0 -6.21-2.24 7.84162 7.84162 0 0 0 -5.79 5 6.32759 6.32759 0 0 0 1.32 6.35l2.81 3.3a33.05272 33.05272 0 0 0 -4.26 11.21c1.31-.03 2.66-.01 4.06.09a26.01554 26.01554 0 0 1 8.76-15.18 18.94078 18.94078 0 0 1 15.06-3.9c13.34 2.21 20.19 15.77 21.05 28.2l1.97 34.36a153.363 153.363 0 0 1 4.96 16.64l-2.93-51.25c-.89-12.79-7.56-26.64-20.47-30.93a28.23964 28.23964 0 0 1 15.92 4.1 30.90171 30.90171 0 0 1 12.91 16.06 53.49265 53.49265 0 0 1 2.71 11.59l5.39 71.97a2.31916 2.31916 0 0 1 -1.2 2.28l-2.41 1.11-.17-2.38a1.97148 1.97148 0 0 0 -2.13-1.86 2.00234 2.00234 0 0 0 -1.86 2.13l.27 3.9-4.82 2.23c-1.17-9.11-3.42-20.42-3.45-20.55-9.12-45.68-27.53-56.24-29.52-57.26-22.75-15.02-42.06-2.17-42.27-2.03-7.89 5.49-8.64 15.96-8.39 21.71a28.10073 28.10073 0 0 0 1.06 6.48c1.59 5.58 5.48 19.94 6.36 23.2a43.239 43.239 0 0 0 -2.59 9.93c-.01.05-.01.11-.02.16l-.51 11.25v.14c.34 14.75 7.18 16.95 7.96 17.15.13.04 53.52 2.66 53.62 2.66a5.935 5.935 0 0 0 3.71-1.31l2.21-1.75 24.62-11.28.04-.01a6.36833 6.36833 0 0 0 3.48-6.2zm-63.07-99.65a25.61233 25.61233 0 0 0 -3.67 3.62l-2.16-2.55a2.31852 2.31852 0 0 1 -.57-2.44 3.81909 3.81909 0 0 1 2.76-2.36 2.44136 2.44136 0 0 1 2.44.93l1.97 2.23c-.26.19-.52.36-.77.57zm49.37 1.1-1.7 2a34.22678 34.22678 0 0 0 -4.48-4.13l1.58-1.79a2.44375 2.44375 0 0 1 2.43-.91 3.82191 3.82191 0 0 1 2.75 2.36 2.34588 2.34588 0 0 1 -.58 2.47zm-81.33 53.51a23.99124 23.99124 0 0 1 -.91-5.56 33.64041 33.64041 0 0 1 .14-5.1c.04-.03.09-.06.13-.09.09-.08 9.1-7.7 20.82-6.52 8.27.83 16 5.79 22.93 14.71.11.15 7.36 9.97 13.12 27.12l-49.76-.94c-.63-2.32-4.81-17.75-6.47-23.62zm57.51 28.59q.86993 2.84995 1.64 5.94l-54.91-1.89a41.65247 41.65247 0 0 1 1.31-5.03zm4.68 32.56a1.87315 1.87315 0 0 1 -1.32.44l-52.6-2.58c-.8-.39-4.62-2.8-4.87994-13.26l.42-9.13 56.28 1.94a136.25024 136.25024 0 0 1 2.95 21.92zm4.71-3.03c-2.61-38.73-19.85-62.09-20.61-63.11-7.67-9.86-16.34-15.34-25.76-16.27a33.0533 33.0533 0 0 0 -20.09 4.89 14.49981 14.49981 0 0 1 5.31-7.43c.17-.12 17.32-11.51 37.89 2.14a1.88509 1.88509 0 0 0 .24.14c.19.09 18.48 9.48 27.47 54.50995.02.12 2.45 12.29 3.55 21.4z" fill="#2d4356"/><g fill="#fc785e"><path d="m100.28 8.9-1.7 2a34.22678 34.22678 0 0 0 -4.48-4.13l1.58-1.79a2.44375 2.44375 0 0 1 2.43-.91 3.82191 3.82191 0 0 1 2.75 2.36 2.34588 2.34588 0 0 1 -.58 2.47z"/><path d="m51.68 7.23c-.26.19-.52.36-.77.57a25.61233 25.61233 0 0 0 -3.67 3.62l-2.16-2.55a2.31852 2.31852 0 0 1 -.57-2.44 3.81909 3.81909 0 0 1 2.76-2.36 2.44136 2.44136 0 0 1 2.44.93z"/><path d="m93.85 116.8-8 3.73c-2.61-38.73-19.85-62.09-20.61-63.11-7.67-9.86-16.34-15.34-25.76-16.27a33.0533 33.0533 0 0 0 -20.09 4.89 14.49981 14.49981 0 0 1 5.31-7.43c.17-.12 17.32-11.51 37.89 2.14a1.88509 1.88509 0 0 0 .24.14c.19.09 18.48 9.48 27.47 54.50995.02.12005 2.45 12.29005 3.55 21.40005z"/></g><path d="m75.18 86.97-49.76-.94c-.63-2.32-4.81-17.75-6.47-23.62a23.99124 23.99124 0 0 1 -.91-5.56 33.64041 33.64041 0 0 1 .14-5.1c.04-.03.09-.06.13-.09.09-.08 9.1-7.7 20.82-6.52 8.27.83 16 5.79 22.93 14.71.11.15 7.36 9.97 13.12 27.12z" fill="#ffdb80"/><path d="m78.1 96.94-54.91-1.89a41.65247 41.65247 0 0 1 1.31-5.03l51.96.98q.87 2.84995 1.64 5.94z" fill="#e1ebf4"/><path d="m79.04 100.97-56.28-1.94-.42 9.13c.26 10.46 4.08 12.87 4.88 13.26l52.6 2.58a1.87315 1.87315 0 0 0 1.32-.44l.85-.67a136.25024 136.25024 0 0 0 -2.95-21.92zm-29.04 17.03a6 6 0 1 1 6-6 6.00476 6.00476 0 0 1 -6 6z" fill="#98e07e"/><path d="m44.99988 81.00824h5a1.99966 1.99966 0 1 0 0-3.99933h-5a1.99966 1.99966 0 1 0 0 3.99933z" fill="#2d4356"/><path d="m50 106a6 6 0 1 0 6 6 6.00476 6.00476 0 0 0 -6-6zm0 8a2 2 0 1 1 2-2 1.99947 1.99947 0 0 1 -2 2z" fill="#2d4356"/><path d="m52 112a2 2 0 1 1 -2-2 1.99947 1.99947 0 0 1 2 2z" fill="#e1ebf4"/><path d="m66.73438 33.89941c1.90356 1.01947 7.19 4.40527 13.21948 12.90662l-3.12286-24.95392s-6.43213-5.14886-10.07745.88733l-1.64167 10.13956c.54284.32913 1.08392.66769 1.6225 1.02041z" fill="#fc785e"/><path d="m59.41211 25.4082a15.43256 15.43256 0 0 1 .44867-2.98047c-1.30591-.53149-3.67053-.38763-8.00165.50183 0 0-2.0799 1.78455-1.24524 4.08911a44.62122 44.62122 0 0 1 8.38593 2.70111z" fill="#fc785e"/><path d="m80.18 25.75c-.2-5.22-3.57-8.73-8.39-8.73-4.8 0-8.16 3.48-8.39 8.67l-.56 5.9c1.25.68 2.52 1.42 3.8 2.26l.09-.9h9.87l.59 10.17a65.82717 65.82717 0 0 1 4.35 5.94zm-13.07 3.2.28-2.93c0-.04.01-.06995.01-.11.04-1.15.49-4.89 4.4-4.89 3.89 0 4.34 3.74005 4.39 4.93005l.17 3z" fill="#2d4356"/><path d="m76.36 28.95h-9.25l.28-2.93c0-.04.01-.06995.01-.11.04-1.15.49-4.89 4.4-4.89 3.89 0 4.34 3.74005 4.39 4.93005z" fill="#e1ebf4"/><path d="m56.99988 24.01819a4.94111 4.94111 0 0 1 2.47705.683 14.64713 14.64713 0 0 1 .93537-4.00619 8.98277 8.98277 0 0 0 -12.05542 5.83655q1.9303.31421 3.94391.83948a4.99175 4.99175 0 0 1 4.69909-3.35284z" fill="#2d4356"/><path d="m109.99 107.75a2.31916 2.31916 0 0 1 -1.2 2.28l-2.41 1.11-.17-2.38a1.99 1.99 0 0 0 -3.9-.42l-.09-1.31a2.00234 2.00234 0 0 1 1.86-2.13 1.97148 1.97148 0 0 1 2.13 1.86l.17 2.38 2.41-1.11a2.1752 2.1752 0 0 0 1.12-1.41z" fill="#9fa5aa" opacity=".5"/><path d="m102.49 112.93-4.82 2.23c-.08-.63-.17-1.26-.26-1.9l4.95-2.27z" fill="#9fa5aa" opacity=".5"/><path d="m78.1 96.94-54.91-1.89c.11-.58.26-1.25.44-1.98l53.95 1.85c.18.66.35 1.34.52 2.02z" fill="#528440" opacity=".3"/><path d="m93.85 116.8-8 3.73c-.05-.67-.09-1.33-.15-1.98l7.91-3.64c.08.64.17 1.27.24 1.89z" fill="#a54b3f" opacity=".5"/><path d="m81.99 122.89-.85.67a1.87315 1.87315 0 0 1 -1.32.44l-52.6-2.58c-.8-.39-4.62-2.8-4.87994-13.26l.04-.88c.5 9.51 4.07 11.76 4.84 12.14l52.59994 2.58a1.87315 1.87315 0 0 0 1.32-.44l.73-.57c.05.63.09 1.26.12 1.9z" fill="#528440" opacity=".3"/><path d="m109.99 107.75a2.79826 2.79826 0 0 1 -.08.87l-5.31-70.84a53.49265 53.49265 0 0 0 -2.71-11.59 30.90171 30.90171 0 0 0 -12.91-16.06 28.52156 28.52156 0 0 0 -11.1-3.9 24.27207 24.27207 0 0 0 -4.82-2.2 28.23964 28.23964 0 0 1 15.92 4.1 30.90171 30.90171 0 0 1 12.91 16.06 53.49265 53.49265 0 0 1 2.71 11.59z" fill="#fff" opacity=".5"/><path d="m93.85 116.8-.24.11c-1.18-8.81-3.29-19.4-3.31-19.51-8.99-45.03-27.28-54.42-27.47-54.51a1.88509 1.88509 0 0 1 -.24-.14c-20.57-13.65-37.72-2.26-37.89-2.14a13.23881 13.23881 0 0 0 -4.14 4.76c-.41.22-.8.45-1.17.67a14.49981 14.49981 0 0 1 5.31-7.43c.17-.12 17.32-11.51 37.89 2.14a1.88509 1.88509 0 0 0 .24.14c.19.09 18.48 9.48 27.47 54.50995.02.12005 2.45 12.29005 3.55 21.40005z" fill="#f9dbd7" opacity=".3"/><path d="m75.18 86.97-.69-.01c-5.64-15.91-12.32-24.97-12.43-25.11-6.93-8.92-14.66-13.88-22.93-14.71-11.72-1.18-20.73 6.44-20.82 6.52-.04.03-.09.06-.13.09-.09.86-.14 1.69-.16 2.47a33.54164 33.54164 0 0 1 .16-4.47c.04-.03.09-.06.13-.09.09-.08 9.1-7.7 20.82-6.52 8.27.83 16 5.79 22.93 14.71.11.15 7.36 9.97 13.12 27.12z" fill="#f9edd2" opacity=".5"/><path d="m95.79645 83.5614c-.02325-.09058-.04633-.18164-.06964-.27185.02331.09009.04638.18152.06964.27185z" fill="#e8fbfc" opacity=".4"/><path d="m41.75977 26.06738q1.68915 0 3.36548.1366a25.42827 25.42827 0 0 1 8.29475-13.29398 18.94078 18.94078 0 0 1 15.06-3.9c13.34 2.21 20.19 15.77 21.05 28.2l1.83234 31.95917c.04578.12488.09076.25439.13641.38013l-1.96875-34.3393c-.86-12.43-7.71-25.99-21.05-28.2a18.94078 18.94078 0 0 0 -15.06 3.9 26.01554 26.01554 0 0 0 -8.76 15.18c-1.24-.09-2.45-.11-3.62-.09-.00775.03-.01239.061-.02.09106.24935-.00451.48714-.02368.73977-.02368z" fill="#e8fbfc" opacity=".4"/><path d="m76.36 28.95h-.11l-.06-1c-.05-1.19-.5-4.93005-4.39-4.93005-3.91 0-4.36 3.74005-4.4 4.89 0 .04-.01.07-.01.11l-.09.93005h-.19l.28-2.93c0-.04.01-.06995.01-.11.04-1.15.49-4.89 4.4-4.89 3.89 0 4.34 3.74005 4.39 4.93005z" fill="#fff" opacity=".5"/></svg>