<svg id="Layer_1" enable-background="new 0 0 512 512" height="512" viewBox="0 0 512 512" width="512" xmlns="http://www.w3.org/2000/svg"><g><path d="m352.4 512h-192.8c-34.829 0-63.2-28.175-63.2-63.2v-385.6c0-34.977 28.305-63.2 63.2-63.2h192.8c34.906 0 63.2 28.235 63.2 63.2v385.6c0 34.961-28.308 63.2-63.2 63.2z" fill="#0a494d"/><path d="m415.6 448.8v-385.6c0-34.966-28.294-63.2-63.2-63.2h-96.4v512h96.4c34.892 0 63.2-28.239 63.2-63.2z" fill="#142332"/><path d="m352.4 30c-9.447 0-17.133 7.687-17.133 17.134 0 25.989-21.144 47.133-47.133 47.133h-64.267c-25.989 0-47.133-21.144-47.133-47.133 0-9.447-7.686-17.134-17.133-17.134-18.311 0-33.2 14.799-33.2 33.2v385.6c0 18.371 14.878 33.2 33.2 33.2h192.8c18.294 0 33.2-14.803 33.2-33.2v-385.6c-.001-18.384-14.874-33.2-33.201-33.2z" fill="#f4f1f1"/><path d="m385.6 448.8v-385.6c0-18.384-14.873-33.2-33.2-33.2-9.447 0-17.133 7.687-17.133 17.134 0 25.989-21.144 47.133-47.133 47.133h-32.134v387.733h96.4c18.294 0 33.2-14.803 33.2-33.2z" fill="#e7dfdd"/><circle clip-rule="evenodd" cx="336.333" cy="352.4" fill="#d0c8c3" fill-rule="evenodd" r="15"/><path d="m272.067 367.4h-96.4c-8.284 0-15-6.716-15-15s6.716-15 15-15h96.4c8.284 0 15 6.716 15 15s-6.716 15-15 15z" fill="#e7dfdd"/><path d="m336.333 303.134h-160.666c-8.284 0-15-6.716-15-15v-144.601c0-8.284 6.716-15 15-15h160.667c8.284 0 15 6.716 15 15v144.601c-.001 8.284-6.716 15-15.001 15z" fill="#98f9ff"/><path d="m336.333 401.667h-160.666c-8.284 0-15 6.716-15 15v65.333h190.667v-65.333c-.001-8.284-6.716-15-15.001-15z" fill="#ff7038"/><path d="m287.067 352.4c0-8.284-6.716-15-15-15h-16.067v30h16.067c8.284 0 15-6.715 15-15z" fill="#dad0cb"/><path d="m351.333 288.134v-144.601c0-8.284-6.716-15-15-15h-80.333v174.601h80.333c8.285 0 15-6.716 15-15z" fill="#7dd5f4"/><path d="m351.333 416.667c0-8.284-6.716-15-15-15h-80.333v80.333h95.333z" fill="#ff405c"/></g></svg>