<svg id="Flat_Gradient" viewBox="0 0 64 64" xmlns="http://www.w3.org/2000/svg" xmlns:xlink="http://www.w3.org/1999/xlink" data-name="Flat Gradient"><linearGradient id="linear-gradient" gradientUnits="userSpaceOnUse" x1="4" x2="60" y1="32" y2="32"><stop offset="0" stop-color="#00c0ff"/><stop offset="1" stop-color="#5558ff"/></linearGradient><path d="m30.9 43h-23.89762a4.90059 4.90059 0 0 1 -.77-.06v14.06a3.00242 3.00242 0 0 0 3 3h25.76762v-20.55l-.34.93a4.041 4.041 0 0 1 -3.76 2.62zm-6.75 12h-11.92a1.00009 1.00009 0 0 1 0-2h11.92a1.00009 1.00009 0 0 1 0 2zm0-5h-11.92a1.00009 1.00009 0 0 1 0-2h11.92a1.00009 1.00009 0 0 1 0 2zm-14.47764-23h25.32764v6.64l-2.22 6.05a2.01287 2.01287 0 0 1 -1.88 1.31h-23.89762a2.85532 2.85532 0 0 1 -.77-.1 3.01552 3.01552 0 0 1 -2.07-3.85l2.66-8a3 3 0 0 1 2.84998-2.05zm47.32093 16a4.8078 4.8078 0 0 0 .77-.06v14.06a3.00242 3.00242 0 0 1 -3 3h-17.76329v-20.56l.35.95a4.02308 4.02308 0 0 0 3.75 2.61zm0-2h-15.89329a2.01287 2.01287 0 0 1 -1.88-1.31l-2.22-6.05v-6.64h17.3233a3 3 0 0 1 2.85 2.05l2.66 8a3.01632 3.01632 0 0 1 -2.84001 3.95zm-45.77329-24.29a1.00714 1.00714 0 0 1 .71-1.71h4.5v-10a.99655.99655 0 0 1 1-1h5a1.003 1.003 0 0 1 1 1v10h4.5a1.00045 1.00045 0 0 1 .7 1.71l-8 8a1.00447 1.00447 0 0 1 -1.41 0zm26 0a1.00714 1.00714 0 0 1 .71-1.71h4.5v-10a.99655.99655 0 0 1 1-1h5a1.003 1.003 0 0 1 1 1v10h4.5a1.00045 1.00045 0 0 1 .7 1.71l-8 8a1.00447 1.00447 0 0 1 -1.41 0z" fill="url(#linear-gradient)"/></svg>