<svg id="Layer_1" enable-background="new 0 0 512 512" viewBox="0 0 512 512" xmlns="http://www.w3.org/2000/svg" xmlns:xlink="http://www.w3.org/1999/xlink"><linearGradient id="SVGID_1_" gradientUnits="userSpaceOnUse" x1="495.203" x2="11.757" y1="18.21" y2="501.657"><stop offset="0" stop-color="#e93528"/><stop offset="1" stop-color="#f8bc16"/></linearGradient><path d="m503 132.591v-103.685c0-3.866-3.134-7-7-7-6.662 0-13.295.319-19.81.938v-6.844c0-3.866-3.134-7-7-7-15.606 0-40.416 7.705-54.554 24.576-14.137-16.871-38.947-24.576-54.553-24.576-3.866 0-7 3.134-7 7v6.844c-6.515-.619-13.147-.938-19.81-.938-3.866 0-7 3.134-7 7v103.685c0 3.866 3.134 7 7 7 17.586 0 34.304 2.236 49.853 6.657l-32.723 32.722h-188.806l-46.846-46.845c-3.615-3.616-8.129-6.005-13.038-6.962v-99.267c0-9.317-7.579-16.896-16.896-16.896h-58.921c-9.316 0-16.896 7.579-16.896 16.896v116.607c0 9.316 7.58 16.896 16.896 16.896h47.279c1.26 3.195 3.169 6.129 5.67 8.631l54.129 54.129c4.813 4.896 11.244 7.594 18.108 7.594h27.29l-86.15 86.955c-6.098 6.109-8.426 14.576-6.995 22.49-4.621 1.865-8.613 5.2-11.163 9.617l-61.106 105.84c-.52.9-.833 1.906-.916 2.943l-3.021 37.846c-.218 2.733 1.181 5.344 3.578 6.676 1.063.589 2.234.88 3.401.88 1.468 0 2.93-.461 4.159-1.369l30.088-22.219c.774-.571 1.423-1.297 1.904-2.131l61.107-105.839c2.172-3.763 3.177-7.967 3.014-12.152 4.355-1.067 8.481-3.297 11.877-6.692l60.014-60.014v160.17c0 3.866 3.134 7 7 7h121.677c3.866 0 7-3.134 7-7v-160.168l60.013 60.014c1.415 1.415 2.961 2.621 4.594 3.631-2.786 2.214-4.581 5.625-4.581 9.453v125.239c0 6.659 5.418 12.077 12.077 12.077h94.981c6.659 0 12.077-5.418 12.077-12.077v-125.239c0-6.66-5.418-12.078-12.077-12.078h-9.79c-.043-3.829-3.157-6.92-6.996-6.92h-11.168c-2.878-8.008-10.549-13.751-19.536-13.751-7.359 0-13.83 3.854-17.516 9.645 2.885-8.809.843-18.891-6.133-25.866l-86.156-86.962h27.29c6.863 0 13.294-2.697 18.065-7.552l54.172-54.171c5.482-5.482 7.922-12.868 7.332-20.05 17.127-5.563 35.766-8.389 55.513-8.389 3.865.001 6.999-3.133 6.999-6.999zm-40.809-109.019v81.153c-11.636 2.509-25.715 10.683-37.395 21.833-1.027-.419-2.082-.768-3.159-1.048v-77.535c7.694-13.88 26.291-22.226 40.554-24.403zm-95.108 0c14.263 2.177 32.859 10.523 40.554 24.403v77.858c-.956.297-1.891.654-2.803 1.062-11.758-11.349-25.969-19.654-37.751-22.176zm-26.809 12.457c4.312.152 8.588.457 12.81.888v74c0 3.866 3.134 7 7 7 8.233 0 21.336 6.879 32.244 16.489-16.255-5.193-33.707-8.115-52.054-8.704zm-268.431 109.369h-45.947c-1.57 0-2.896-1.326-2.896-2.896v-116.606c0-1.57 1.326-2.896 2.896-2.896h58.921c1.57 0 2.896 1.326 2.896 2.896v100.467c-3.287 1.258-6.305 3.198-8.868 5.761-3.672 3.673-6.075 8.275-7.002 13.274zm20.396 207.201c2.878 2.878 6.281 4.914 9.903 6.118.332 1.952.005 3.968-1.01 5.726l-2.753 4.768-14.944-8.627 2.753-4.769c1.156-2.002 3.098-3.423 5.302-4.002.245.264.492.528.749.786zm-67.099 116.873 8.418 4.86-9.358 6.91zm18.515-5.476-14.943-8.628 47.724-82.66 14.944 8.628zm445.345 25.004h-91.136v-121.395h7.863v6.801c0 3.866 3.134 7 7 7h61.409c3.866 0 7-3.134 7-7v-6.801h7.864zm-59.319-128.314c3.866 0 7-3.134 7-7 0-3.723 3.028-6.751 6.751-6.751s6.751 3.028 6.751 6.751c0 3.866 3.134 7 7 7h9.954v6.721h-47.409v-6.721zm-6.426-202.556-54.214 54.214c-2.161 2.198-5.046 3.408-8.124 3.408h-44.079c-2.825 0-5.374 1.698-6.461 4.307-1.087 2.607-.5 5.613 1.488 7.62l97.995 98.911c4.441 4.441 4.441 11.669 0 16.11-4.441 4.442-11.668 4.439-16.11 0l-71.963-71.963c-2.001-2.003-5.012-2.599-7.628-1.518-2.616 1.083-4.321 3.636-4.321 6.467v170.068h-46.838v-59.724c0-3.866-3.134-7-7-7s-7 3.134-7 7v59.724h-46.838v-170.068c0-2.831-1.706-5.384-4.321-6.467-2.615-1.084-5.626-.485-7.628 1.518l-71.964 71.963c-4.441 4.443-11.668 4.441-16.109.001-4.441-4.441-4.441-11.669 0-16.11.008-.007.015-.015.023-.022l97.973-98.889c1.988-2.007 2.575-5.013 1.488-7.62-1.087-2.608-3.636-4.307-6.461-4.307h-44.079c-3.079 0-5.963-1.21-8.166-3.45l-54.172-54.171c-2.151-2.151-3.336-5.012-3.336-8.054 0-3.043 1.185-5.902 3.336-8.054 2.151-2.151 5.011-3.336 8.053-3.336s5.902 1.185 8.053 3.336l48.896 48.896c1.313 1.313 3.093 2.051 4.95 2.051h194.605c1.856 0 3.637-.737 4.95-2.05l48.897-48.896c2.15-2.151 5.01-3.336 8.052-3.336s5.902 1.186 8.054 3.336c4.44 4.439 4.439 11.664-.001 16.105zm65.745-32.428c-18.346.59-35.793 3.506-52.043 8.697 10.903-9.586 24.061-16.481 32.233-16.481 3.866 0 7-3.134 7-7v-74c4.222-.431 8.498-.736 12.81-.888zm-421.26 6.102c0 3.866-3.134 7-7 7h-10.767c-3.866 0-7-3.134-7-7s3.134-7 7-7h10.767c3.867 0 7 3.134 7 7zm188.26 30.056c30.221 0 54.808-24.587 54.808-54.808s-24.587-54.807-54.808-54.807-54.808 24.587-54.808 54.808 24.587 54.807 54.808 54.807zm0-95.615c22.502 0 40.808 18.307 40.808 40.808s-18.306 40.807-40.808 40.807c-22.501 0-40.808-18.307-40.808-40.808s18.307-40.807 40.808-40.807z" fill="url(#SVGID_1_)"/></svg>