<svg clip-rule="evenodd" fill-rule="evenodd" stroke-linejoin="round" stroke-miterlimit="2" viewBox="0 0 96 96" xmlns="http://www.w3.org/2000/svg" xmlns:xlink="http://www.w3.org/1999/xlink"><linearGradient id="_Linear1" gradientTransform="matrix(96 -96 96 96 0 96)" gradientUnits="userSpaceOnUse" x1="0" x2="1" y1="0" y2="0"><stop offset="0" stop-color="#1ff9fa"/><stop offset="1" stop-color="#9a03ff"/></linearGradient><path d="m48 2c25.388 0 46 20.612 46 46s-20.612 46-46 46-46-20.612-46-46 20.612-46 46-46zm-19.793 64.929c4.308-6.328 11.569-10.486 19.793-10.486s15.485 4.158 19.793 10.486c-4.308 6.327-11.569 10.485-19.793 10.485s-15.485-4.158-19.793-10.485zm19.793-48.343c7.693 0 13.939 6.245 13.939 13.938s-6.246 13.939-13.939 13.939-13.939-6.246-13.939-13.939 6.246-13.938 13.939-13.938z" fill="url(#_Linear1)"/></svg>