<svg id="Layer_1" enable-background="new 0 0 512 512" viewBox="0 0 512 512" xmlns="http://www.w3.org/2000/svg" xmlns:xlink="http://www.w3.org/1999/xlink"><linearGradient id="SVGID_1_" gradientUnits="userSpaceOnUse" x1="256" x2="256" y1=".56" y2="511.44"><stop offset="0" stop-color="#17a6d7"/><stop offset=".0617" stop-color="#259adb"/><stop offset=".1856" stop-color="#3b87e2"/><stop offset=".2649" stop-color="#4380e4"/><stop offset="1" stop-color="#9735fd"/></linearGradient><path clip-rule="evenodd" d="m256 511.44c140.724 0 255.5-114.655 255.5-255.379s-114.776-255.501-255.5-255.501-255.5 114.776-255.5 255.5 114.776 255.38 255.5 255.38z" fill="url(#SVGID_1_)" fill-rule="evenodd"/><path d="m360.217 425.176c.715 1.536.595 3.326-.318 4.749-.913 1.43-2.484 2.293-4.175 2.293h-147.432c-2.364 0-4.402-1.677-4.862-3.992-2.703-13.673-6.206-27.969-16.178-40.347-14.508 7.926-52.845 23.263-69.823 9.887-8.238-6.49-9.922-17.912-5.032-34.006-4.515-1.359-9.08-3.744-11.224-8.294-2.314-4.919-.828-10.396 1.458-15.223-4.154-3.305-7.735-7.374-8.28-12.739-.552-5.464 2.35-10.644 6.157-15.308-10.743-6.157-16.66-12.696-18.457-20.297-3.043-12.873 6.688-25.626 17.948-40.389 4.133-5.421 8.394-11.005 12.484-17.098-9.434-32.201-8.096-60.149 3.999-83.1 12.428-23.595 35.86-41.196 69.639-52.328 20.276-6.667 45.174-9.859 70.276-9.023-4.501 2.994-8.769 6.277-12.767 9.83-19.618.418-38.542 3.39-54.409 8.613-62.413 20.552-85.442 63.907-66.582 125.358.432 1.408.212 2.93-.595 4.161-4.664 7.148-9.71 13.765-14.161 19.597-9.745 12.767-18.153 23.793-16.186 32.102 1.338 5.676 7.53 11.139 18.931 16.716 1.423.694 2.428 2.031 2.704 3.595.269 1.571-.219 3.171-1.33 4.31-5.506 5.655-8.054 9.674-7.792 12.272.219 2.158 2.703 4.827 7.594 8.16 2.137 1.458 2.796 4.317 1.507 6.561-3.581 6.242-3.701 8.889-3.171 10.014.368.779 2.031 2.732 9.54 4.027 1.451.248 2.718 1.132 3.454 2.406s.864 2.81.361 4.19c-3.659 9.922-6.61 22.852.064 28.11 10.927 8.606 43.73-2.335 58.464-10.481h.007c.221-.189.459-.363.719-.515 17.473-10.185 37.175-22.625 49.843-41.419 1.529-2.27 4.608-2.871 6.878-1.339 2.27 1.529 2.869 4.609 1.339 6.878-11.846 17.575-28.801 29.757-44.993 39.637 9.738 12.519 13.715 26.249 16.525 39.561h135.711c-9.561-21.812-15.477-41.281-18.054-59.321-3.404-23.843-1.118-45.35 6.999-65.761 1.026-2.597 2.165-5.322 3.517-8.372 4.034-.552 8.004-1.295 11.889-2.229-2.633 5.683-4.572 10.149-6.199 14.253-13.906 35.001-9.589 73.331 14.013 124.301zm70.297-245.231c0 55.223-47.962 100.142-106.907 100.142-22.548 0-44.112-6.497-62.35-18.79-.828-.559-1.791-.849-2.775-.849-.424 0-.856.057-1.281.17l-37.594 10.078 10.502-39.236c.34-1.274.163-2.633-.502-3.772-8.443-14.544-12.909-31.054-12.909-47.742 0-55.23 47.955-100.163 106.908-100.163 58.947 0 106.908 44.932 106.908 100.162zm-102.512 70.192c0-8.217-6.688-14.905-14.912-14.905-8.202 0-14.883 6.688-14.883 14.905 0 8.21 6.681 14.89 14.883 14.89 8.224 0 14.912-6.681 14.912-14.89zm53.623-95.832c0-32.307-26.277-58.599-58.585-58.599-27.601 0-51.72 19.59-57.346 46.575-.304 1.458.064 2.979 1.005 4.14.941 1.154 2.349 1.826 3.843 1.826h20.566c2.109 0 3.992-1.338 4.678-3.333 4.013-11.614 14.968-19.413 27.254-19.413 15.888 0 28.811 12.923 28.811 28.804 0 15.888-12.923 28.811-28.811 28.811-.502 0-1.005-.021-1.444-.035-6.228-.304-11.939 1.805-16.483 6.122-4.515 4.317-6.907 9.894-6.907 16.143v19.597c0 2.739 2.222 4.954 4.954 4.954h19.88c2.739 0 4.961-2.215 4.961-4.954v-12.243c29.987-2.528 53.624-27.751 53.624-58.395z" fill="#fff"/></svg>