<svg height="512" viewBox="0 0 60 60" width="512" xmlns="http://www.w3.org/2000/svg"><g id="Page-1" fill="none" fill-rule="evenodd"><g id="072---Clomplete-Course-Test" fill-rule="nonzero"><g id="Icons_copy" transform="translate(1 1)"><path id="Shape" d="m58 49v7c-.0081672 1.1011688-.8988312 1.9918328-2 2h-12c-1.1032019-.0032948-1.9967052-.8967981-2-2v-7c0-3.3137085 2.6862915-6 6-6h4c3.3137085 0 6 2.6862915 6 6z" fill="#ff9801"/><path id="Shape" d="m52 43h-3c3.3137085 0 6 2.6862915 6 6v7c-.0081672 1.1011688-.8988312 1.9918328-2 2h3c1.1011688-.0081672 1.9918328-.8988312 2-2v-7c0-3.3137085-2.6862915-6-6-6z" fill="#f57c00"/><circle id="Oval" cx="50" cy="37" fill="#ffe0b2" r="6"/><path id="Shape" d="m50 31c-.5064496.0029108-1.0104803.0701149-1.5.2 2.6479943.6813094 4.498931 3.0687622 4.498931 5.803s-1.8509367 5.1216906-4.498931 5.803c2.2531797.5872914 4.6426897-.1820582 6.1299399-1.9736543 1.4872502-1.7915962 1.8036517-4.2818866.8116819-6.3884777s-3.1131667-3.4490442-5.4416218-3.443868z" fill="#dfc49c"/><path id="Shape" d="m44 37c0 3.3137085 2.6862915 6 6 6h-2c-3.3137085 0-6 2.6862915-6 6h-24c-.0012227-3.320224-1.8303699-6.3700914-4.7588206-7.9347208s-6.48048148-1.3898484-9.2411794.4547208v-29.52h46v19c-3.3137085 0-6 2.6862915-6 6z" fill="#00bcd4"/><path id="Shape" d="m6 40c-.67393387.007159-1.34488414.0906923-2 .249v1.271c1.05495508-.7052049 2.24814808-1.1773684 3.5-1.385-.49537032-.0866765-.99711379-.1318334-1.5-.135z" fill="#00838f"/><path id="Shape" d="m50 31v-19h-3v19c-3.3137085 0-6 2.6862915-6 6s2.6862915 6 6 6h-2c-3.3137085 0-6 2.6862915-6 6h3c0-3.3137085 2.6862915-6 6-6h2c-3.3137085 0-6-2.6862915-6-6s2.6862915-6 6-6z" fill="#00838f"/><path id="Shape" d="m50 5v7h-46v-7c0-2.76142375 2.23857625-5 5-5h36c1.3260824 0 2.597852.5267842 3.5355339 1.46446609.9376819.9376819 1.4644661 2.20945146 1.4644661 3.53553391z" fill="#9e9e9e"/><path id="Shape" d="m45 0h-3c1.3260824 0 2.597852.5267842 3.5355339 1.46446609.9376819.9376819 1.4644661 2.20945146 1.4644661 3.53553391v7h3v-7c0-1.32608245-.5267842-2.59785201-1.4644661-3.53553391-.9376819-.93768189-2.2094515-1.46446609-3.5355339-1.46446609z" fill="#707070"/><circle id="Oval" cx="10" cy="6" fill="#ef314c" r="2"/><circle id="Oval" cx="11" cy="18" fill="#ffeb3a" r="2"/><circle id="Oval" cx="18" cy="6" fill="#ffdc00" r="2"/><circle id="Oval" cx="26" cy="6" fill="#60a917" r="2"/><path id="Shape" d="m44 8c1.1045695 0 2-.8954305 2-2s-.8954305-2-2-2h-6c-1.1045695 0-2 .8954305-2 2s.8954305 2 2 2z" fill="#707070"/><path id="Shape" d="m18 49c0 4.9705627-4.0294373 9-9 9-4.97056275 0-9-4.0294373-9-9s4.02943725-9 9-9c2.3869484 0 4.6761336.9482116 6.363961 2.636039s2.636039 3.9770126 2.636039 6.363961z" fill="#a4c400"/><g fill="#ffeb3a"><circle id="Oval" cx="11" cy="26" r="2"/><circle id="Oval" cx="11" cy="34" r="2"/></g></g><g id="Icons" fill="#000"><path id="Shape" d="m55.4 43.433c2.1624653-1.7470578 3.0836814-4.6097548 2.3459532-7.2900951-.7377283-2.6803404-2.9940668-4.6684574-5.7459532-5.0629049v-25.08c-.0033074-3.31233757-2.6876624-5.99669262-6-6h-36c-3.31233757.00330738-5.99669262 2.68766243-6 6v36.019c-3.65567158 2.7487308-4.97857053 7.6285166-3.21176768 11.847268 1.76680286 4.2187513 6.17227898 6.6995076 10.69572688 6.022843 4.5234478-.6766647 8.0101239-4.3380116 8.4650408-8.889111h22.051v6c0 1.6568542 1.3431458 3 3 3h12c1.6568542 0 3-1.3431458 3-3v-7c-.0057052-2.9366626-1.8420329-5.55822-4.6-6.567zm.6-5.433c.0000055 2.7575232-2.2324823 4.994485-4.99 5h-.02c-2.7601153-.0055202-4.9936739-2.246535-4.9899956-5.0066533.0036784-2.7601184 2.2432021-4.995172 5.0033223-4.9933356 2.7601201.0018364 4.9966678 2.2398681 4.9966733 4.9999889zm-46-36h36c2.209139 0 4 1.790861 4 4v6h-44v-6c0-2.209139 1.790861-4 4-4zm-4 12h44v17.08c-2.7518864.3944475-5.0082249 2.3825645-5.7459532 5.0629049-.7377282 2.6803403.1834879 5.5430373 2.3459532 7.2900951-2.4133423.8866643-4.1478927 3.023001-4.52 5.567h-22.131c-.3160231-3.1814238-2.1360828-6.0192501-4.8957506-7.6334252-2.7596677-1.6141752-6.12533239-1.8095645-9.0532494-.5255748zm4 44c-4.418278 0-8-3.581722-8-8s3.581722-8 8-8 8 3.581722 8 8c-.0049599 4.4162219-3.5837781 7.9950401-8 8zm48-1c0 .5522847-.4477153 1-1 1s-1-.4477153-1-1v-7c0-.5522847-.4477153-1-1-1s-1 .4477153-1 1v7c.0033144.3414397.0655622.679743.184 1h-6.368c.1184378-.320257.1806856-.6585603.184-1v-7c0-.5522847-.4477153-1-1-1s-1 .4477153-1 1v7c0 .5522847-.4477153 1-1 1s-1-.4477153-1-1v-7c.0033061-2.7600532 2.2399468-4.9966939 5-5h4c2.7600532.0033061 4.9966939 2.2399468 5 5z"/><path id="Shape" d="m11 10c1.6568542 0 3-1.34314575 3-3s-1.3431458-3-3-3c-1.65685425 0-3 1.34314575-3 3s1.34314575 3 3 3zm0-4c.5522847 0 1 .44771525 1 1s-.4477153 1-1 1-1-.44771525-1-1 .4477153-1 1-1z"/><path id="Shape" d="m12 22c1.6568542 0 3-1.3431458 3-3s-1.3431458-3-3-3-3 1.3431458-3 3 1.3431458 3 3 3zm0-4c.5522847 0 1 .4477153 1 1s-.4477153 1-1 1-1-.4477153-1-1 .4477153-1 1-1z"/><path id="Shape" d="m19 10c1.6568542 0 3-1.34314575 3-3s-1.3431458-3-3-3-3 1.34314575-3 3 1.3431458 3 3 3zm0-4c.5522847 0 1 .44771525 1 1s-.4477153 1-1 1-1-.44771525-1-1 .4477153-1 1-1z"/><path id="Shape" d="m27 10c1.6568542 0 3-1.34314575 3-3s-1.3431458-3-3-3-3 1.34314575-3 3 1.3431458 3 3 3zm0-4c.5522847 0 1 .44771525 1 1s-.4477153 1-1 1-1-.44771525-1-1 .4477153-1 1-1z"/><path id="Shape" d="m39 10h6c1.6568542-.00000002 3-1.34314577 3-3s-1.3431458-2.99999998-3-3h-6c-1.6568542.00000002-3 1.34314577-3 3s1.3431458 2.99999998 3 3zm0-4h6c.5522847 0 1 .44771525 1 1s-.4477153 1-1 1h-6c-.5522847 0-1-.44771525-1-1s.4477153-1 1-1z"/><path id="Shape" d="m19 20h27c.5522847 0 1-.4477153 1-1s-.4477153-1-1-1h-27c-.5522847 0-1 .4477153-1 1s.4477153 1 1 1z"/><path id="Shape" d="m12 30c1.6568542 0 3-1.3431458 3-3s-1.3431458-3-3-3-3 1.3431458-3 3 1.3431458 3 3 3zm0-4c.5522847 0 1 .4477153 1 1s-.4477153 1-1 1-1-.4477153-1-1 .4477153-1 1-1z"/><path id="Shape" d="m19 28h27c.5522847 0 1-.4477153 1-1s-.4477153-1-1-1h-27c-.5522847 0-1 .4477153-1 1s.4477153 1 1 1z"/><path id="Shape" d="m15 35c0-1.6568542-1.3431458-3-3-3s-3 1.3431458-3 3 1.3431458 3 3 3 3-1.3431458 3-3zm-4 0c0-.5522847.4477153-1 1-1s1 .4477153 1 1-.4477153 1-1 1-1-.4477153-1-1z"/><path id="Shape" d="m19 36h22c.5522847 0 1-.4477153 1-1s-.4477153-1-1-1h-22c-.5522847 0-1 .4477153-1 1s.4477153 1 1 1z"/><path id="Shape" d="m12.168 46.445-3.323 4.986-1.138-1.138c-.39237889-.3789722-1.01608478-.3735524-1.40181858.0121814-.38573379.3857338-.39115363 1.0094397-.01218142 1.4018186l2 2c.18749273.1875494.44180519.2929434.707.293.033 0 .065 0 .1-.005.29787265-.0295676.56683543-.1910187.733-.44l4-6c.1982824-.297245.2229246-.6776931.0646441-.9980332s-.4754371-.5319049-.832-.555-.6983617.1457882-.8966441.4430332z"/></g></g></g></svg>