<svg id="Layer_1" viewBox="0 0 512 512" xmlns="http://www.w3.org/2000/svg" xmlns:xlink="http://www.w3.org/1999/xlink" data-name="Layer 1"><linearGradient id="linear-gradient" gradientUnits="userSpaceOnUse" x1="389.668" x2="122.042" y1="24.492" y2="488.033"><stop offset="0" stop-color="#00bef1"/><stop offset=".42" stop-color="#3382c4"/><stop offset=".73" stop-color="#4168b1"/><stop offset="1" stop-color="#4168b1"/></linearGradient><path d="m446.891 256v25.115c0 7.455-6.094 13.521-13.55 13.521h-18.907c-3.997 16.469-10.517 31.975-19.077 46.063l13.379 13.38c5.272 5.272 5.272 13.861 0 19.134l-35.518 35.518c-5.272 5.272-13.861 5.272-19.134 0l-13.38-13.379c-14.088 8.589-29.593 15.109-46.063 19.105v18.907c0 7.455-6.066 13.521-13.521 13.521h-50.23c-7.455 0-13.521-6.066-13.521-13.521v-18.907c-16.498-4.025-31.975-10.517-46.063-19.105l-13.379 13.379c-5.272 5.272-13.861 5.272-19.134 0l-35.518-35.518c-5.272-5.272-5.272-13.861 0-19.134l13.379-13.38c-8.589-14.088-15.108-29.594-19.105-46.063h-18.907c-7.455 0-13.521-6.066-13.521-13.521v-50.23c0-7.455 6.066-13.521 13.521-13.521h18.907c3.997-16.469 10.517-31.975 19.105-46.063l-13.379-13.379c-5.272-5.272-5.272-13.862 0-19.134l35.518-35.518c5.272-5.272 13.861-5.272 19.134 0l13.379 13.38c14.088-8.561 29.565-15.08 46.063-19.077v-18.936c0-7.427 6.066-13.521 13.521-13.521h50.23c7.455 0 13.521 6.094 13.521 13.521v18.907c16.47 4.025 31.975 10.516 46.063 19.105l13.38-13.38c5.272-5.272 13.861-5.272 19.134 0l35.518 35.518c5.272 5.272 5.272 13.862 0 19.134l-13.379 13.379c8.561 14.088 15.08 29.594 19.077 46.063h18.907c7.456 0 13.55 6.066 13.55 13.521v25.115zm-55.446-176.825c-3.203-.85-5.102-4.11-4.28-7.313.851-3.203 4.11-5.103 7.313-4.281l15.194 4.054c-94.677-79.115-235.191-73.531-323.377 14.655-42.009 42.009-65.196 95.726-69.533 150.633-4.422 55.729 10.544 112.734 44.9 159.988 1.956 2.693 1.361 6.435-1.332 8.39-2.665 1.928-6.435 1.332-8.362-1.361-36.085-49.634-51.818-109.445-47.169-167.952 10.375-130.933 119.736-231.988 251.206-231.988 56.693 0 113.415 19.021 159.732 57.062l-4.989-12.019c-1.248-3.061.198-6.548 3.26-7.823 3.062-1.247 6.548.227 7.795 3.26l15.137 36.652c2.154 4.875-2.239 9.553-6.945 8.305l-38.551-10.261zm61.483 39.515c-1.899-2.693-1.247-6.435 1.474-8.306 2.693-1.899 6.435-1.247 8.306 1.474 34.639 49.55 49.408 108.737 44.306 166.507-11.509 129.912-120.444 229.635-251.008 229.635-56.154 0-112.28-18.652-158.343-55.927l5.159 12.501c1.247 3.033-.198 6.548-3.26 7.795s-6.548-.198-7.795-3.26l-15.052-36.425c-2.325-5.046 2.069-9.978 7.285-8.419l38.154 10.177c3.175.822 5.102 4.11 4.252 7.313-.851 3.175-4.11 5.102-7.313 4.252l-14.684-3.912c94.734 77.329 233.802 71.121 321.307-16.384 41.442-41.443 64.545-94.252 69.335-148.394 4.875-55.049-9.156-111.458-42.123-158.627zm-196.923 24.435c62.334 0 112.876 50.542 112.876 112.875s-50.542 112.876-112.876 112.876-112.875-50.542-112.875-112.876 50.542-112.875 112.875-112.875zm3.43 106.866h66.302l-33.137-57.373h-66.274zm81.638 2.665c1.474 2.154 1.333 4.649-.057 6.832l-39.77 68.882c-1.105 1.899-3.118 2.976-5.188 2.976v.028h-80.107c-2.438 0-4.507-1.417-5.471-3.487l-39.77-68.91c-1.105-1.899-1.021-4.195 0-5.981l39.997-69.279c1.077-1.899 3.033-3.09 5.244-3.09h80.107c2.381 0 4.422 1.389 5.386 3.373l39.628 68.655zm-15.335 9.354h-66.302l-33.109 57.373h66.303zm-109.814 51.42 33.165-57.43-33.137-57.402-33.166 57.43 33.137 57.402zm40.082-182.296c68.967 0 124.866 55.899 124.866 124.866s-55.899 124.895-124.866 124.895-124.894-55.927-124.894-124.895 55.927-124.866 124.894-124.866z" fill="url(#linear-gradient)" fill-rule="evenodd"/></svg>