<svg height="512" viewBox="0 0 64 64" width="512" xmlns="http://www.w3.org/2000/svg"><g id="Layer_1"><g id="mission"><g><path d="m37.082 51.188c-1.327 3.979-5.98 9.755-13.435 10.608 8.928-8.928 3.536-14.85 3.536-14.85l8.486-5.657c-.001.001 3.389 3.971 1.413 9.899z" fill="#ff5722"/></g><g><path d="m12.894 27.002c-3.978 1.326-9.899 5.834-10.607 13.435 8.929-8.927 14.85-3.535 14.85-3.535l5.657-8.486s-3.97-3.39-9.9-1.414z" fill="#ff7043"/></g><path d="m37.575 49.135c.712-4.773-1.906-7.845-1.906-7.845l-8.486 5.657s1.342 1.475 1.578 4.062z" fill="#37474f" opacity=".2"/><g><path d="m24.52 48.526c4.008-1.222 16.594-8.683 24.461-16.55 14.76-14.761 11.289-28.309 11.289-28.309s-13.676-3.246-28.26 11.338c-7.866 7.867-15.376 20.405-16.598 24.413z" fill="#00e676"/></g><g><circle cx="33.424" cy="30.562" fill="#fff" r="4.5"/></g><g><circle cx="44.031" cy="19.955" fill="#fff" r="4.5"/></g><g><path d="m32.317 28.924c-1.6 1.6-1.726 4.098-.412 5.86 1.588.569 3.429.231 4.7-1.04 1.6-1.6 1.726-4.098.412-5.86-1.587-.569-3.428-.232-4.7 1.04z" fill="#f5f5f5"/></g><g><path d="m29.889 34.097c-1.949-1.949-1.949-5.122 0-7.071 1.949-1.95 5.122-1.95 7.071 0 1.95 1.949 1.95 5.122 0 7.071-1.95 1.95-5.122 1.95-7.071 0zm6.363-6.364c-1.56-1.56-4.097-1.56-5.657 0s-1.56 4.097 0 5.657 4.097 1.56 5.657 0 1.56-4.097 0-5.657z" fill="#546e7a"/></g><g><path d="m42.924 18.317c-1.6 1.6-1.726 4.098-.411 5.86 1.588.569 3.429.231 4.7-1.04 1.6-1.6 1.726-4.098.412-5.86-1.589-.569-3.43-.231-4.701 1.04z" fill="#f5f5f5"/></g><g><path d="m40.495 23.491c-1.949-1.949-1.949-5.122 0-7.071 1.95-1.949 5.122-1.949 7.071 0 1.949 1.95 1.949 5.122 0 7.071s-5.121 1.949-7.071 0zm6.364-6.364c-1.56-1.56-4.098-1.56-5.657 0s-1.56 4.097 0 5.657 4.098 1.56 5.657 0 1.56-4.097 0-5.657z" fill="#546e7a"/></g><g><path d="m17.429 54.135c-2.106 2.106-13.728 6.102-13.728 6.102s3.995-11.622 6.101-13.728c2.107-2.107 5.521-2.107 7.627-.001 2.107 2.106 2.107 5.519 0 7.627z" fill="#ffc400"/></g><g><path d="m17.43 50.745c-1.17 1.17-7.627 3.39-7.627 3.39s2.219-6.457 3.39-7.627c1.17-1.17 3.066-1.171 4.237 0 1.171 1.17 1.171 3.067 0 4.237z" fill="#ffe57f"/></g><g><path d="m32.063 44.757-12.867-12.867c-.18.3-.355.598-.526.889l12.502 12.501c.292-.169.59-.344.891-.523z" fill="#00c853"/></g><g><path d="m46.405 5.359 12.245 12.245c1.403-3.681 1.867-6.876 1.955-9.279.063-2.896-.335-4.658-.335-4.658s-1.371-.289-3.666-.307c-2.469.015-6.031.417-10.199 1.999z" fill="#ff7043"/></g><g><path d="m46.405 5.359c-.333.126-.67.262-1.01.404l12.849 12.849c.142-.339.279-.676.406-1.008z" fill="#00c853"/></g><path d="m44.919 8.606c-.217-.507-.805-.743-1.313-.525-7.155 3.066-14.103 11.929-14.396 12.305-.339.436-.26 1.064.175 1.403.183.142.4.211.615.211.298 0 .593-.133.79-.386.069-.088 6.927-8.833 13.605-11.695.506-.217.742-.805.524-1.313z" fill="#fff" opacity=".4"/></g></g></svg>