<svg id="Flat_Gradient" height="512" viewBox="0 0 64 64" width="512" xmlns="http://www.w3.org/2000/svg" xmlns:xlink="http://www.w3.org/1999/xlink" data-name="Flat Gradient"><linearGradient id="linear-gradient" gradientUnits="userSpaceOnUse" x1="4" x2="60" y1="32" y2="32"><stop offset="0" stop-color="#7f00ff"/><stop offset="1" stop-color="#e100ff"/></linearGradient><path d="m59.67954 5.16896c-.04995-.4496-.41965-.81936-.86931-.86931-3.83695-.4596-7.65395-.3497-11.35105.31976-7.72813 1.32499-15.36844 5.52438-21.29322 11.2512-.54725.52082-1.85231 1.75308-2.37816 2.25818-3.11882 3.60524-6.71341 8.38101-8.80297 12.42029-.30145.61201-.00418 1.07657.50956 1.51873.47956.47964 1.39888 1.3889 2.56794 2.55802 4.46899 4.47996 9.34856 9.35768 13.84909 13.85909 0 0 .33976.3397.33976.3397.47414.48434 1.14946.26723 1.63865-.07996 2.3282-1.29896 5.51569-3.27738 8.87304-5.99521 11.32772-8.87146 18.91913-23.00767 16.91668-37.58048zm-12.99972 23.48152c-4.93417 5.04444-13.78093 1.38964-13.69917-5.67567-.06599-7.07385 8.73541-10.72252 13.69922-5.67525 3.13744 3.12741 3.13744 8.22338-.00005 11.35092zm-41.75698 3.42748c.78997-6.31956 6.91974-16.84619 18.89497-16.72701 0 0-1.43887 1.36892-1.43886 1.36892-2.23506 2.62208-4.56555 5.43711-6.45496 8.38342-1.13912 1.72862-1.95848 3.13755-2.45803 4.05682-.62829.9491-.81327 2.17496-.27981 3.18748l-7.16435.86931c-.04001.01-.07995.01-.1199.01-.59765.01913-1.0939-.57173-.97907-1.14893zm43.71536 8.06346c.04213 2.76323-.76025 6.20702-2.12827 8.77321-4.36498 8.17865-12.87068 9.88582-14.75836 10.1619-.58408.01416-1.07437-.54909-.98922-1.1191 0 0 .86931-7.16435.86931-7.1644 1.01915.55428 2.30603.3323 3.22745-.2997 3.23744-1.80857 6.31504-3.88696 9.16277-6.19514 1.65474-1.33789 3.16133-2.70067 4.61633-4.15678zm-21.1733 6.71476s-1.37892.67946-1.37892.67945c-1.1413.58136-2.53077.34953-3.44724-.55955l-5.63558-5.63558c-.90932-.90926-1.12912-2.29818-.55956-3.4473 0 0 .67946-1.37892.67946-1.37892 2.92776 2.93385 6.35571 6.3577 9.33262 9.34269.34966.33598.67566.66699 1.00922.99921zm-22.40234 13.11966c-.57758.05077-1.11115-.48462-1.05903-1.05925.10027-6.03808 6.20522-18.15399 13.10953-12.01046 6.05665 6.89682-6.02983 12.96841-12.0505 13.06971zm35.94186-30.97559c-7.99188-.2288-7.9427-11.84374-.00013-12.05052 7.94248.20642 7.99446 11.81639.00013 12.05052z" fill="url(#linear-gradient)"/></svg>