<svg clip-rule="evenodd" fill-rule="evenodd" height="2.833in" image-rendering="optimizeQuality" shape-rendering="geometricPrecision" text-rendering="geometricPrecision" viewBox="0 0 2.83333 2.83333" width="2.833in" xmlns="http://www.w3.org/2000/svg"><g id="Layer_x0020_1"><circle cx="1.417" cy="1.417" fill="#29af33" r="1.417"/><g fill="#fff"><path d="m1.78939 1.59325-.00025984.00000394-.139945-.00000394h.140205zm-.253339-.645087c-.0258543.0258583-.0602205.0400906-.0967953.0400906-.0754685-.00001181-.13687-.0614134-.13687-.136874 0-.0365512.0142244-.0709331.0400866-.0967953.0258465-.0258504.0602087-.0400787.0967795-.0400748.0754606 0 .136862.0614016.136874.136874.00001575.0365591-.0142244.0709331-.0400748.0967795zm-.165272-.165272c-.0182953.0182953-.028374.0426102-.0283819.0684921-.00001181.0534094.0434528.096874.0968701.0968701.025874 0 .050185-.0100748.0684921-.0283819.0182874-.0182874.0283622-.0425984.0283701-.0684803.00000394-.0534252-.0434488-.0968819-.0968701-.0968701-.0258701 0-.0501811.0100709-.0684803.0283701zm.165264.51802c-.0258543.0258583-.0602205.0400906-.0967953.0400906-.0754606 0-.136858-.0614016-.13687-.13687-.00000394-.0365551.0142244-.070937.0400866-.0967992.0258583-.0258583.0602165-.0400866.0967953-.0400827.0754724.00001181.13687.0614094.13687.13687.00001181.036563-.0142283.0709331-.0400866.0967913zm-.165272-.165272c-.0182953.0182953-.028378.0426142-.0283819.0684921 0 .0534252.0434567.096878.096874.096874.0258701-.00000394.050189-.0100709.0684961-.028378.0183031-.0183031.0283622-.042622.028374-.0684921.00000787-.0534173-.0434567-.0968819-.096874-.096874-.0258701-.00000787-.050185.0100748-.0684882.028378zm-.301358.41761v-.0904724l.739724.00001968v.0904528h-.739724zm0-.130461v-.615996c-.00188189-.0830236.0149449-.158614.0501693-.225878l.00819291.00269291c.199988.0657205.422024.065378.621961-.00035827l.00832283-.00273622c.0324291.0612835.0531299.136055.0510709.22672l.00000787.615543-.739724.00001181z"/><path d="m1.14026.545614c.0174134-.0267638.038-.052063.0617559-.0758189.102693-.102693.226709-.137732.231933-.139185.00348031-.00096063.00714961-.00096457.0106339.00001181.00263386.00072047.187138.0537362.292657.214634-.191803.063063-.405098.0634134-.59698.00035827z"/><g id="_627361056"><path id="_627362136" d="m2.02102 1.69824c-.00264961.00264961-.00602756.00455906-.00988583.00538976-.00887795.00192126-.0179252-.00235039-.0220551-.0104331-.0224803-.0438898-.0803031-.141126-.139941-.196866l-.00000394-.436606c.0712677.0800197.193366.270535.17774.625236-.00025591.00514961-.00240945.00983465-.00585433.0132795z"/><path id="_627361368" d="m.873697 1.69823c-.00471654.0047126-.0116181.00688189-.0184094.00540157-.00886614-.00193701-.0153189-.00958661-.0157205-.0186496-.0168031-.380917.124169-.571516.18985-.638933v.439618c-.00681102.00563386-.0137913.0120197-.0209016.0191299-.0702756.0702795-.130555.187224-.131165.188402-.00097244.00190157-.0022126.00358661-.00365354.0050315z"/></g><path d="m1.69512 1.78339c-.00369291.00369291-.00876378.00585433-.0141417.00585039l-.483417.00000394c-.0072874 0-.0139921-.00395669-.0175-.0103307l-.102445-.185665h.723323l-.102445.185669c-.00091732.00166535-.00206693.00316535-.00337402.00447244z"/><path d="m1.62801 2.36683c-.00551969.00551969-.0137874.00734252-.0211535.0045748-.00766142-.00286614-.0128031-.0101181-.0129843-.0183071 0-.00052756-.00119291-.0398701-.0186457-.0723465-.00996063.0507953-.0345787.134201-.0937362.193358-.0377008.0377008-.0839094.0599449-.137335.0661142-.00718504.00083465-.014252-.00229134-.0184724-.00814173-.00425591-.0058622-.00498425-.013563-.00195669-.0201181.00317323-.00688583.072122-.160079-.030689-.25087-.00370472.0208898-.00462598.0513701.0115394.0790827.00518504.00887795.00274803.0202953-.00553937.0262795-.0083189.00603937-.0198701.00476378-.0266811-.00291732-.00169685-.00191339-.149732-.172146-.0640472-.34765-.0171575.00975591-.0331181.0201929-.0423976.0294724-.00442913.00442913-.00527953.00664173-.00529134.00664961-.0021811.00874409-.00990157.0148307-.0188976.0150472-.00898425.00022441-.017-.0057126-.0196024-.0143189-.0239882-.0795748-.00740551-.150921.0479921-.206319.00616142-.00616142.0127835-.0120551.0198189-.0176693.00250787.0003189.00505512.00048819.00762598.00048819h.130102c-.00404724.012-.00614961.0247126-.00614567.037752-.00001181.0329724.0357638.0959134.0789843.168693.00874016.0147087.0162795.0274016.0212008.0364055.00351575.0064252.0102362.0104094.0175394.0104094.00538976.00000787.0104685-.00215748.0141614-.00585039.00132283-.00132677.00247638-.00284646.00339764-.00455118.00491339-.00899606.0124449-.0216339.0211457-.0362874.0432677-.0728504.0790748-.135819.0790748-.168819 0-.0130354-.00211024-.025752-.00615748-.0377559h.130114c.00533858 0 .0105984-.0007126.0156654-.00208268.0442835.0383307.0687402.0885787.0704331.147012-.00026772.0114409-.00370472.103465-.041878.146957-.00455906.0055-.011815.00779134-.0187559.00646457-.00696063-.00133071-.0127087-.00622835-.0150906-.0128976-.00017717-.00048819-.014122-.0378701-.0429094-.062252.0252992.076189.0598858.225756-.0197362.31365-.00023228.00025984-.00045276.00050394-.00069291.00074409z"/></g></g></svg>