<svg id="Capa_1" enable-background="new 0 0 512 512" height="512" viewBox="0 0 512 512" width="512" xmlns="http://www.w3.org/2000/svg"><g><path d="m501 267c0 135.31-109.69 245-245 245s-245-109.69-245-245 109.69-245 245-245 245 109.69 245 245z" fill="#003c79"/><path d="m456 288.465c0 110.457-89.543 200-200 200s-200-89.543-200-200 89.543-200 200-200 200 89.543 200 200z" fill="#004b94"/><path d="m13.726 511.704c-16.39-26.613-18.815-58.428-3.398-83.685s44.822-37.642 75.984-35.229c16.39 26.613-41.424 121.327-72.586 118.914z" fill="#00915d"/><path d="m89.711 476.475c-15.417 25.257-44.822 37.642-75.984 35.229-16.391-26.614 41.423-121.327 72.586-118.914 16.389 26.613 18.815 58.427 3.398 83.685z" fill="#00a86d"/><path d="m511.797 423.983c-18.263 11.247-40.095 12.912-57.427 2.332s-25.831-30.758-24.175-52.143c18.262-11.247 83.258 28.427 81.602 49.811z" fill="#00c53b"/><path d="m511.797 423.983c-18.263 11.247-83.258-28.426-81.603-49.811 18.263-11.247 40.095-12.912 57.427-2.332 17.333 10.58 25.832 30.759 24.176 52.143z" fill="#4bcd5c"/><path d="m472.984 115.218c0 155.272-88.071 289.973-216.984 356.876-128.913-66.903-216.984-201.604-216.984-356.876 0-28.35 2.937-56.013 8.521-82.704 64.919-16.175 135.153-25.014 208.463-25.014s143.544 8.839 208.463 25.014c5.584 26.691 8.521 54.355 8.521 82.704z" fill="#00a86d"/><path d="m298.869 446.319c-13.701 9.441-28.01 18.063-42.869 25.775-128.913-66.903-216.984-201.604-216.984-356.876 0-28.35 2.937-56.013 8.521-82.704 14.025-3.495 28.312-6.624 42.81-9.419-1.536 15.015-2.327 30.251-2.327 45.672 0 159.589 84.329 299.472 210.849 377.552z" fill="#00915d"/><path d="m471.804 30.979c-.589-2.816-2.736-5.046-5.527-5.742-67.208-16.746-137.955-25.237-210.277-25.237s-143.069 8.491-210.276 25.237c-2.791.695-4.938 2.926-5.527 5.741-5.76 27.528-8.68 55.871-8.68 84.24 0 76.403 21.189 150.932 61.277 215.531 38.981 62.815 94.222 113.993 159.752 148.001 1.083.562 2.269.843 3.455.843s2.372-.281 3.455-.843c65.529-34.008 120.771-85.186 159.752-148.001 40.088-64.599 61.277-139.128 61.277-215.531-.001-28.365-2.922-56.708-8.681-84.239zm-215.804 432.644c-129.322-68.713-209.484-201.847-209.484-348.405 0-25.758 2.497-51.487 7.426-76.556 64.653-15.704 132.602-23.662 202.058-23.662s137.406 7.958 202.058 23.662c4.93 25.072 7.427 50.802 7.427 76.556-.001 146.559-80.163 279.693-209.485 348.405z" fill="#4bcd5c"/><path d="m437.128 205.368c0 100.034-81.094 181.128-181.128 181.128s-181.128-81.094-181.128-181.128 81.094-181.128 181.128-181.128 181.128 81.094 181.128 181.128z" fill="#00c8de"/><path d="m422.744 205.368c0 92.09-74.654 166.744-166.745 166.744s-166.744-74.653-166.744-166.744 74.655-166.744 166.745-166.744 166.744 74.654 166.744 166.744z" fill="#87e0ec"/><path d="m403.4 205.368c0 81.407-65.993 147.4-147.4 147.4s-147.4-65.993-147.4-147.4 65.993-147.4 147.4-147.4 147.4 65.993 147.4 147.4z" fill="#5290d9"/><path d="m276.802 351.311c-6.796.96-13.741 1.457-20.802 1.457-81.407 0-147.4-65.993-147.4-147.4s65.993-147.4 147.4-147.4c7.061 0 14.006.497 20.802 1.457-71.556 10.108-126.598 71.597-126.598 145.943s55.042 135.835 126.598 145.943z" fill="#0573cf"/><path d="m256 52.687c-84.189 0-152.682 68.493-152.682 152.682s68.493 152.681 152.682 152.681c84.188 0 152.682-68.493 152.682-152.682s-68.494-152.681-152.682-152.681zm115.382 227.715h-62.292c4.397-20.456 6.943-43.484 7.38-67.534h77.005c-1.339 24.815-9.281 47.9-22.093 67.534zm-115.382 62.648c-10.472 0-21.859-14.055-30.459-37.596-1.177-3.222-2.287-6.58-3.334-10.051h67.587c-1.047 3.472-2.157 6.83-3.334 10.051-8.601 23.541-19.987 37.596-30.46 37.596zm-37.73-62.648c-4.606-20.166-7.28-43.254-7.735-67.534h90.931c-.455 24.28-3.129 47.368-7.735 67.534zm-99.745-67.534h77.005c.437 24.05 2.983 47.078 7.38 67.534h-62.292c-12.812-19.634-20.754-42.719-22.093-67.534zm23.047-83.982h61.643c-4.59 20.811-7.238 44.367-7.686 68.982h-77.005c1.373-25.427 9.675-49.04 23.048-68.982zm114.428-61.199c10.473 0 21.859 14.055 30.46 37.596 1.011 2.766 1.962 5.651 2.877 8.603h-66.675c.915-2.952 1.867-5.837 2.878-8.603 8.601-23.542 19.988-37.596 30.46-37.596zm37.396 61.199c4.812 20.504 7.603 44.119 8.069 68.982h-90.931c.466-24.863 3.258-48.478 8.07-68.982zm23.074 68.982c-.448-24.615-3.095-48.171-7.685-68.982h61.643c13.373 19.943 21.676 43.556 23.047 68.982zm42.328-83.982h-53.815c-1.369-4.777-2.839-9.385-4.434-13.75-4.341-11.883-9.385-21.682-14.956-29.237 28.8 6.333 54.247 21.707 73.205 42.987zm-132.391-42.987c-5.571 7.555-10.615 17.354-14.956 29.237-1.595 4.365-3.065 8.973-4.434 13.75h-53.815c18.958-21.28 44.405-36.654 73.205-42.987zm-74.49 224.503h54.686c1.482 5.302 3.092 10.392 4.848 15.198 4.341 11.883 9.385 21.682 14.956 29.237-29.452-6.476-55.404-22.401-74.49-44.435zm133.676 44.435c5.571-7.555 10.615-17.354 14.956-29.237 1.756-4.806 3.366-9.896 4.848-15.198h54.686c-19.086 22.034-45.038 37.959-74.49 44.435z" fill="#004b94"/><path d="m110.326 172.264c29.282-18.033 133.492 45.577 130.837 79.864-29.282 18.033-64.286 20.702-92.075 3.739s-41.417-49.316-38.762-83.603zm277.448-116.192c-44.551-3.924-86.812 13.352-109.253 49.258s-19.452 81.463 3.597 119.79c44.551 3.924 128.705-130.721 105.656-169.048z" fill="#a3e72d"/><path d="m110.326 172.264c29.282-18.033 64.286-20.702 92.075-3.739s41.416 49.316 38.761 83.603c-29.281 18.034-133.491-45.577-130.836-79.864zm277.448-116.192c-44.551-3.924-128.705 130.721-105.656 169.048 44.551 3.924 86.812-13.352 109.253-49.258 22.441-35.905 19.452-81.463-3.597-119.79z" fill="#baed6a"/><path d="m329.847 166.062c-38.729 43.465-69.647 126.184-68.923 184.395.051 4.142-3.264 7.541-7.406 7.593-.032 0-.063 0-.095 0-4.099 0-7.446-3.296-7.498-7.407-.229-18.419 2.481-39.397 7.784-61.346.457-1.893.101-3.846-.804-5.57-.004-.008-.009-.017-.013-.025-18.147-34.878-62.881-74.231-99.843-87.871-3.837-1.416-6.106-5.582-4.836-9.47 1.325-4.057 5.734-6.174 9.709-4.721 37.027 13.547 79.717 49.346 102.192 84.646 1.966-6.245 4.111-12.521 6.458-18.799 13.644-36.504 32.069-68.88 51.896-91.202 2.546-2.866 6.874-3.583 10.024-1.399 3.779 2.621 4.318 7.851 1.355 11.176z" fill="#4bcd5c"/><path d="m192.701 310.402v87.725c0 8.284-6.716 15-15 15h-56.766c-8.284 0-15-6.716-15-15v-87.725c0-8.284 6.716-15 15-15h56.766c8.284 0 15 6.716 15 15z" fill="#a3e72d"/><path d="m406.065 310.402v87.725c0 8.284-6.716 15-15 15h-222.795c-8.284 0-15-6.716-15-15v-87.725c0-8.284 6.716-15 15-15h222.795c8.285 0 15 6.716 15 15z" fill="#baed6a"/><path d="m385.45 384.662c0 9.649-7.851 17.5-17.5 17.5h-25.383c-9.649 0-17.5-7.851-17.5-17.5v-20.536c-3.181 4.412-8.363 7.29-14.205 7.29h-5.017v13.246c0 9.649-7.851 17.5-17.5 17.5-6.539 0-12.252-3.605-15.256-8.932-2.008 3.592-5.186 6.335-9.082 7.805-1.985.749-4.063 1.129-6.178 1.129h-.003c-7.235 0-13.814-4.55-16.371-11.322l-1.361-3.607h-12.518l-1.393 3.656c-3.433 9.015-13.562 13.559-22.581 10.126-4.37-1.664-7.829-4.929-9.741-9.195-.28-.625-.522-1.261-.727-1.904-6.594 7.542-16.689 12.245-27.9 12.245-13.009 0-25.776-5.518-34.152-14.76-3.139-3.463-4.741-7.942-4.512-12.611.229-4.668 2.264-8.969 5.727-12.107 1.998-1.81 4.303-3.072 6.729-3.795-6.846-6.479-10.155-15.83-8.769-25.484 1.719-11.978 10.318-21.686 22.44-25.338 21.311-6.418 38.223 7.093 40.081 8.654 3.579 3.008 5.771 7.229 6.175 11.886s-1.031 9.192-4.039 12.771c-1.527 1.816-3.352 3.244-5.344 4.271 5.59 4.677 8.835 10.27 10.361 15.834l16.516-43.354c2.924-7.149 9.775-11.754 17.467-11.761 7.702 0 14.555 4.591 17.477 11.697.069.167.132.327.192.488l19.26 51.038v-45.278c0-9.649 7.851-17.5 17.5-17.5h24.46c6.3 0 11.833 3.346 14.915 8.354 3.095-4.947 8.593-8.244 14.847-8.244h25.383c9.649 0 17.5 7.851 17.5 17.5 0 6.807-3.907 12.719-9.596 15.611 4.656 3.148 7.724 8.477 7.724 14.508s-3.067 11.36-7.724 14.508c5.691 2.892 9.598 8.804 9.598 15.611z" fill="#80cf00"/><path d="m242.226 322.074c-.026-.069-.053-.137-.081-.205-1.375-3.342-4.597-5.5-8.21-5.5h-.009c-3.617.003-6.839 2.169-8.208 5.517-.023.057-.045.113-.067.17l-22.828 59.938c-1.474 3.871.468 8.204 4.339 9.678 3.874 1.475 8.205-.469 9.678-4.339l3.846-10.097h26.325l3.802 10.076c1.134 3.003 3.987 4.854 7.018 4.854.88 0 1.775-.156 2.647-.485 3.875-1.462 5.831-5.79 4.368-9.665zm-15.828 40.16 7.51-19.718 7.441 19.718zm69.448-30.421v14.603h15.017c4.143 0 7.5 3.358 7.5 7.5s-3.357 7.5-7.5 7.5h-15.017v23.246c0 4.142-3.357 7.5-7.5 7.5s-7.5-3.358-7.5-7.5v-60.349c0-4.142 3.357-7.5 7.5-7.5h24.46c4.143 0 7.5 3.358 7.5 7.5s-3.357 7.5-7.5 7.5zm79.604 52.849c0 4.142-3.357 7.5-7.5 7.5h-25.383c-4.143 0-7.5-3.358-7.5-7.5v-60.239c0-4.142 3.357-7.5 7.5-7.5h25.383c4.143 0 7.5 3.358 7.5 7.5s-3.357 7.5-7.5 7.5h-17.883v15.12h16.011c4.143 0 7.5 3.358 7.5 7.5s-3.357 7.5-7.5 7.5h-16.011v15.12h17.883c4.143-.001 7.5 3.357 7.5 7.499zm-184.73-11.857c-2.003 11.216-12.721 19.357-25.484 19.357-10.233 0-20.23-4.29-26.742-11.475-2.782-3.069-2.548-7.812.521-10.594 3.071-2.782 7.812-2.548 10.594.521 3.716 4.101 9.559 6.548 15.628 6.548 5.927 0 10.104-3.556 10.718-6.994.82-4.593-5.345-7.396-8.034-8.387-9.425-3.477-17.794-7.202-18.146-7.359-.361-.161-.709-.351-1.04-.566-6.378-4.158-9.664-11.45-8.576-19.03 1.16-8.082 7.071-14.667 15.426-17.184 16.559-4.986 30.19 6.254 30.762 6.735 3.171 2.665 3.581 7.396.916 10.567-2.655 3.158-7.358 3.577-10.528.948-.199-.16-8.188-6.49-16.823-3.888-3.957 1.192-4.749 3.86-4.905 4.952-.114.792-.17 2.694 1.534 4.056 2.121.929 9.087 3.935 16.571 6.696 15.279 5.636 19.114 16.66 17.608 25.097z" fill="#dff6bc"/><g fill="#fff"><path d="m256.649 360.295c1.462 3.875-.494 8.203-4.369 9.665-.872.329-1.767.485-2.646.485-3.031 0-5.885-1.851-7.019-4.854l-8.708-23.074-8.726 22.91c-1.475 3.871-5.808 5.815-9.678 4.339-3.871-1.474-5.813-5.807-4.339-9.678l14.485-38.034c.021-.057.044-.113.067-.17 1.369-3.348 4.591-5.513 8.208-5.517h.009c3.613 0 6.835 2.158 8.21 5.5.028.068.055.136.081.205zm56.157-28.482c4.143 0 7.5-3.358 7.5-7.5s-3.357-7.5-7.5-7.5h-24.46c-4.143 0-7.5 3.358-7.5 7.5v42.347c0 4.142 3.357 7.5 7.5 7.5s7.5-3.358 7.5-7.5v-5.244h15.017c4.143 0 7.5-3.358 7.5-7.5s-3.357-7.5-7.5-7.5h-15.017v-14.603zm53.272 15.229h-16.011v-15.12h17.883c4.143 0 7.5-3.358 7.5-7.5s-3.357-7.5-7.5-7.5h-25.383c-4.143 0-7.5 3.358-7.5 7.5v42.237c0 4.142 3.357 7.5 7.5 7.5s7.5-3.358 7.5-7.5v-4.617h16.011c4.143 0 7.5-3.358 7.5-7.5s-3.357-7.5-7.5-7.5zm-179.732-22.666c-.572-.481-14.204-11.721-30.762-6.735-8.355 2.517-14.266 9.102-15.426 17.184-1.088 7.581 2.198 14.873 8.576 19.03.331.216.679.405 1.04.566.352.157 8.721 3.882 18.146 7.359.856.316 1.733.465 2.595.465 3.052 0 5.92-1.876 7.038-4.906 1.434-3.886-.555-8.199-4.441-9.632-7.484-2.761-14.451-5.767-16.571-6.696-1.705-1.361-1.648-3.264-1.534-4.056.157-1.092.949-3.76 4.905-4.952 8.609-2.593 16.578 3.691 16.821 3.886 3.17 2.63 7.875 2.212 10.53-.947 2.663-3.169 2.254-7.9-.917-10.566z"/><path d="m132.623 137.46-20.039-20.039c-1.953-1.953-1.953-5.118 0-7.071l20.039-20.039c1.953-1.953 5.118-1.953 7.071 0l20.039 20.039c1.953 1.953 1.953 5.118 0 7.071l-20.039 20.039c-1.953 1.953-5.119 1.953-7.071 0zm238.059 76.498 12.554-12.554c1.953-1.953 1.953-5.118 0-7.071l-12.554-12.554c-1.953-1.953-5.118-1.953-7.071 0l-12.554 12.554c-1.953 1.953-1.953 5.118 0 7.071l12.554 12.554c1.953 1.952 5.118 1.952 7.071 0zm-186.698 219.774 12.554-12.554c1.953-1.953 1.953-5.118 0-7.071l-12.554-12.554c-1.953-1.953-5.118-1.953-7.071 0l-12.554 12.554c-1.953 1.953-1.953 5.118 0 7.071l12.554 12.554c1.953 1.953 5.119 1.953 7.071 0z"/></g></g></svg>