<svg clip-rule="evenodd" fill-rule="evenodd" height="512" image-rendering="optimizeQuality" shape-rendering="geometricPrecision" text-rendering="geometricPrecision" viewBox="0 0 850 850" width="512" xmlns="http://www.w3.org/2000/svg"><g id="Layer_x0020_1"><circle cx="425" cy="425" fill="#05b443" r="425"/><g fill="#fff"><path d="m606 681h-40v-76c0-4-3-8-7-8-5 0-8 4-8 8v76h-120v-70c0-4-4-7-8-7s-7 3-7 7v70h-117v-76c0-4-3-8-8-8-4 0-7 4-7 8v76h-40c-5 0-8-4-8-8 0-106 8-145 97-152-1 2-1 4-1 6 0 5 2 11 6 15l47 47c10 9 26 8 33-4l7-12 6 11c4 5 9 9 15 10l2 1h1 1c5 0 11-3 15-7l46-47c4-4 6-9 6-15 0-2 0-3 0-5 86 6 96 40 97 152 0 2-1 4-2 5-2 2-4 3-6 3z"/><path d="m395 579-47-47c-1-1-2-3-2-5s1-4 2-5l27-27 1-33c0-4 3-7 7-7s7 3 7 8v1l19 12 32-1 11-6 8-6v-1c0-4 3-7 7-7s8 3 8 7v33l26 26c2 1 2 4 2 5 0 2 0 4-2 5l-46 48c-2 1-3 2-5 2-1 0-1 0-1 0-2-1-4-2-6-4l-18-31-19 32c-2 4-8 4-11 1z"/><path d="m335 286c-5 44-2 77 6 89 2-26 10-45 24-58 24-21 64-20 103-15 32 5 39 27 41 73 11-15 10-57 6-92-5-41-53-46-74-46h-1c-50 1-102 24-105 49z"/><path d="m347 394c-6 0-12-3-17-8-12-15-15-49-10-102 4-35 67-60 120-61h1c50 0 83 22 88 58 3 31 7 84-10 105-4 5-10 8-16 8-3 0-5 0-6-2-1-1-2-3-2-5 0-62-11-68-29-70-35-5-71-6-91 11-13 11-20 31-20 59 0 2-1 4-3 5-1 2-2 2-5 2z"/><path d="m425 486c-36 0-76-30-85-98 0-4 3-7 7-8s7 2 8 6c7 59 40 85 70 85 29 0 63-26 70-85 0-4 4-7 8-6 4 0 7 4 6 8-8 68-48 98-84 98z"/><path d="m562 326c-4 0-7-3-7-8v-4c0-72-59-130-131-130s-130 58-130 130v4c0 5-3 8-7 8s-8-3-8-8v-4c0-80 65-145 145-145s145 65 145 145v4c1 5-2 8-7 8z"/><path d="m288 411h-48c-4 0-7-4-7-8v-85c0-4 3-7 7-7h48c4 0 7 3 7 7v85c0 5-4 8-7 8z"/><path d="m610 411h-48c-4 0-7-4-7-8v-85c0-4 3-7 7-7h48c4 0 7 3 7 7v85c0 5-3 8-7 8z"/><path d="m586 443h-74c-4 0-7-4-7-8s3-7 7-7h67v-25c0-4 3-7 7-7 5 0 8 3 8 7v32c0 4-4 8-8 8z"/></g></g></svg>