<svg height="512" viewBox="0 0 64 64" width="512" xmlns="http://www.w3.org/2000/svg"><g id="Layer_44" data-name="Layer 44"><path d="m49 3a6 6 0 0 1 6 6v46a6 6 0 0 1 -6 6h4a6 6 0 0 0 6-6v-46a6 6 0 0 0 -6-6z" fill="#939598"/><path d="m55 9v46a6 6 0 0 1 -6 6h-40v-58h40a6 6 0 0 1 6 6z" fill="#2488ff"/><path d="m9 61h40a6 6 0 0 0 6-6v-40a46 46 0 0 1 -46 46z" fill="#006df0"/><path d="m24 23h-6a13.921 13.921 0 0 0 2.718 8.265 14.3 14.3 0 0 1 4.1-2.117 22.863 22.863 0 0 1 -.818-6.148z" fill="#a4e276"/><path d="m24.821 16.852a14.3 14.3 0 0 1 -4.1-2.117 13.918 13.918 0 0 0 -2.721 8.265h6a22.863 22.863 0 0 1 .821-6.148z" fill="#b6eb92"/><path d="m32 9a13.966 13.966 0 0 0 -11.282 5.735 14.3 14.3 0 0 0 4.1 2.117c1.305-4.646 4.026-7.852 7.182-7.852z" fill="#c9eeae"/><g fill="#91dc5a"><path d="m24.821 29.148a14.3 14.3 0 0 0 -4.1 2.117 13.964 13.964 0 0 0 11.279 5.735c-3.156 0-5.877-3.206-7.179-7.852z"/><path d="m39.179 16.852a14.3 14.3 0 0 0 4.1-2.117 13.966 13.966 0 0 0 -11.279-5.735c3.156 0 5.877 3.206 7.179 7.852z"/><path d="m39.179 16.852a22.863 22.863 0 0 1 .821 6.148h6a13.918 13.918 0 0 0 -2.718-8.265 14.3 14.3 0 0 1 -4.103 2.117z"/></g><path d="m39.179 29.148a14.3 14.3 0 0 1 4.1 2.117 13.921 13.921 0 0 0 2.721-8.265h-6a22.863 22.863 0 0 1 -.821 6.148z" fill="#5eac24"/><path d="m32 37a13.964 13.964 0 0 0 11.282-5.735 14.3 14.3 0 0 0 -4.1-2.117c-1.305 4.646-4.026 7.852-7.182 7.852z" fill="#4e901e"/><path d="m24.821 29.148c1.302 4.646 4.023 7.852 7.179 7.852v-9a22.277 22.277 0 0 0 -7.179 1.148z" fill="#91dc5a"/><path d="m24.821 16.852a22.277 22.277 0 0 0 7.179 1.148v-9c-3.156 0-5.877 3.206-7.179 7.852z" fill="#b6eb92"/><path d="m39.179 29.148a22.277 22.277 0 0 0 -7.179-1.148v9c3.156 0 5.877-3.206 7.179-7.852z" fill="#5eac24"/><path d="m32 18a22.277 22.277 0 0 1 -7.179-1.148 22.863 22.863 0 0 0 -.821 6.148h8z" fill="#a4e276"/><path d="m24 23a22.863 22.863 0 0 0 .821 6.148 22.277 22.277 0 0 1 7.179-1.148v-5z" fill="#91dc5a"/><path d="m32 28a22.277 22.277 0 0 1 7.179 1.148 22.863 22.863 0 0 0 .821-6.148h-8z" fill="#91dc5a"/><path d="m39.179 16.852c-1.302-4.646-4.023-7.852-7.179-7.852v9a22.277 22.277 0 0 0 7.179-1.148z" fill="#a4e276"/><path d="m32 23h8a22.863 22.863 0 0 0 -.821-6.148 22.277 22.277 0 0 1 -7.179 1.148z" fill="#91dc5a"/><path d="m18 46h28v9h-28z" fill="#ffcd00"/><path d="m53 2h-44a1 1 0 0 0 -1 1v58a1 1 0 0 0 1 1h44a7.008 7.008 0 0 0 7-7v-46a7.008 7.008 0 0 0 -7-7zm-4 58h-39v-56h39a5 5 0 0 1 5 5v46a5 5 0 0 1 -5 5zm9-5a5.009 5.009 0 0 1 -4.01 4.9 6.967 6.967 0 0 0 2.01-4.9v-46a6.967 6.967 0 0 0 -2.01-4.9 5.009 5.009 0 0 1 4.01 4.9z" fill="#231f20"/><path d="m32 8a15 15 0 1 0 15 15 15.018 15.018 0 0 0 -15-15zm-5.73 3.35a15.442 15.442 0 0 0 -2.11 4.18 12.356 12.356 0 0 1 -1.99-1.01 12.845 12.845 0 0 1 4.1-3.17zm-5.29 4.78a14.871 14.871 0 0 0 2.64 1.35 23.84 23.84 0 0 0 -.59 4.52h-3.98a13.007 13.007 0 0 1 1.93-5.87zm0 13.74a13.007 13.007 0 0 1 -1.93-5.87h3.98a23.84 23.84 0 0 0 .59 4.52 14.871 14.871 0 0 0 -2.64 1.35zm1.19 1.61a12.356 12.356 0 0 1 1.99-1.01 15.442 15.442 0 0 0 2.11 4.18 12.845 12.845 0 0 1 -4.1-3.17zm8.83 4.36c-2.05-.57-3.84-2.87-4.92-6.05a21.917 21.917 0 0 1 4.92-.76zm0-8.81a24.267 24.267 0 0 0 -5.47.83 22.352 22.352 0 0 1 -.5-3.86h5.97zm0-5.03h-5.97a22.352 22.352 0 0 1 .5-3.86 24.267 24.267 0 0 0 5.47.83zm0-5.03a21.917 21.917 0 0 1 -4.92-.76c1.08-3.18 2.87-5.48 4.92-6.05zm12.02-.84a13.007 13.007 0 0 1 1.93 5.87h-3.98a23.84 23.84 0 0 0 -.59-4.52 14.871 14.871 0 0 0 2.64-1.35zm-1.19-1.61a12.356 12.356 0 0 1 -1.99 1.01 15.442 15.442 0 0 0 -2.11-4.18 12.845 12.845 0 0 1 4.1 3.17zm-8.83-4.36c2.05.57 3.84 2.87 4.92 6.05a21.917 21.917 0 0 1 -4.92.76zm0 8.81a24.267 24.267 0 0 0 5.47-.83 22.352 22.352 0 0 1 .5 3.86h-5.97zm0 5.03h5.97a22.352 22.352 0 0 1 -.5 3.86 24.267 24.267 0 0 0 -5.47-.83zm0 11.84v-6.81a21.917 21.917 0 0 1 4.92.76c-1.08 3.18-2.87 5.48-4.92 6.05zm4.73-1.19a15.442 15.442 0 0 0 2.11-4.18 12.356 12.356 0 0 1 1.99 1.01 12.845 12.845 0 0 1 -4.1 3.17zm5.29-4.78a14.871 14.871 0 0 0 -2.64-1.35 23.84 23.84 0 0 0 .59-4.52h3.98a13.007 13.007 0 0 1 -1.93 5.87z" fill="#231f20"/><path d="m46 45h-28a1 1 0 0 0 -1 1v9a1 1 0 0 0 1 1h28a1 1 0 0 0 1-1v-9a1 1 0 0 0 -1-1zm-1 9h-26v-7h26z" fill="#231f20"/></g></svg>