<svg viewBox="0 0 512 512" xmlns="http://www.w3.org/2000/svg"><g id="Layer_10" data-name="Layer 10"><g id="SHIELD"><path d="m463.42 84.78a40 40 0 0 0 -20.88-18.78c-60-23.27-119-45.48-176.52-64.43a28.41 28.41 0 0 0 -17.95 0c-57.51 18.85-116.51 41.02-176.49 64.26a40 40 0 0 0 -19.25 16c.34 0-12.33 39.59-14.49 126.94-1.27 87.36 9.6 113.53 9.24 113.56 5.92 19.16 16.92 38.67 32.7 58.55 17.65 22.18 41.5 45.09 70.31 67.62 47.69 37.43 92.32 59.8 94.19 60.59a28.72 28.72 0 0 0 25.52 0c1.88-.78 46.57-23.23 94.23-60.65 28.82-22.54 52.68-45.45 70.34-67.62 16.92-21.27 28.36-42.14 33.89-62.64-.23 0 7.78-32.11 6.67-105.62-1.42-73.56-11.65-127.74-11.51-127.78z" fill="#57b236"/><path d="m257 .07a28.54 28.54 0 0 0 -9 1.45c-57.44 18.9-116.44 41.07-176.42 64.31a40 40 0 0 0 -19.25 16c.34 0-12.33 39.59-14.49 126.94-1.27 87.36 9.6 113.53 9.24 113.56 5.92 19.16 16.92 38.67 32.7 58.55 4.59 5.77 9.62 11.6 15 17.45q12.69 1.16 25.68 1.17c153.9 0 278.66-124.76 278.66-278.65a278.57 278.57 0 0 0 -10.36-75.5c-41.5-15.7-82.48-30.56-122.76-43.82a28.62 28.62 0 0 0 -9-1.46z" fill="#6fba47"/><path d="m382.35 206.38c-42.35 43.62-85.84 89.23-128.48 134.28a37 37 0 0 1 -27 11.63h-.17a38 38 0 0 1 -27-11.7c-22.83-23.63-45.81-47.21-68.66-70.34-14.6-14.76-14.16-38 .94-52.43s38.9-14.51 53.34.31q20.35 20.85 40.87 42c33.89-35.54 67.9-71.36 101-106.16 14.07-14.81 37.59-14.63 52.89 0s16.49 37.8 2.27 52.41z" fill="#fff"/></g></g></svg>