<svg height="511pt" viewBox="-33 0 511 511.99868" width="511pt" xmlns="http://www.w3.org/2000/svg"><path d="m220.015625 511.65625c-2.207031-.476562-54.625-12.070312-107.8125-40.976562-73.078125-39.714844-111.703125-93.078126-111.703125-154.320313v-240.789063c0-8.3125 6.714844-15.050781 15-15.050781 79.621094 0 127.105469-15.011719 155.433594-27.609375 29.351562-13.050781 39.488281-26.214844 40.363281-27.191406 6.515625-8.175781 18.441406-7.402344 23.886719 1.148438.910156 1.195312 12.976562 13.882812 39.664062 26.5 26.210938 12.386718 77.035156 27.152343 156.035156 27.152343 8.28125 0 15 6.738281 15 15.050781v240.789063c0 61.242187-38.625 114.605469-111.703124 154.320313-53.1875 28.90625-105.605469 40.5-107.8125 40.976562-2.09375.457031-4.261719.457031-6.351563 0zm0 0" fill="#16b7bd"/><path d="m430.882812 60.519531c-79 0-129.824218-14.765625-156.035156-27.15625-26.6875-12.613281-38.753906-25.300781-39.664062-26.496093-2.617188-4.109376-6.902344-6.722657-11.992188-6.8437505v511.9765625c9.097656 0 222.691406-50.316406 222.691406-195.644531v-240.785157c0-8.3125-6.71875-15.050781-15-15.050781zm0 0" fill="#139da4"/><path d="m178.238281 246.128906v-50.667968c0-23.484376 18.496094-44.644532 45.40625-44.644532 24.535157 0 44.5 20.027344 44.5 44.644532 0 8.3125 6.714844 15.050781 15 15.050781 8.28125 0 15-6.738281 15-15.050781 0-39.917969-31.785156-74.742188-75.40625-74.742188-41.078125 0-74.5 33.53125-74.5 74.742188v50.667968zm0 0" fill="#e1e4f9"/><path d="m223.191406 120.71875v30.097656c25.957032 0 44.953125 20.820313 44.953125 44.644532 0 8.3125 6.714844 15.050781 15 15.050781 8.28125 0 15-6.738281 15-15.050781 0-40.34375-32.375-74.742188-74.953125-74.742188zm0 0" fill="#d6daf6"/><path d="m313.191406 241.113281h-180c-8.285156 0-15 6.738281-15 15.046875v120.394532c0 8.3125 6.714844 15.050781 15 15.050781h180c8.28125 0 14.996094-6.738281 14.996094-15.050781v-120.394532c0-8.308594-6.714844-15.046875-14.996094-15.046875zm-90 90.292969c-8.285156 0-15-6.738281-15-15.046875 0-8.3125 6.714844-15.050781 15-15.050781 8.28125 0 15 6.738281 15 15.050781 0 8.308594-6.71875 15.046875-15 15.046875zm0 0" fill="#feb655"/><path d="m313.191406 241.113281h-90v60.195313c8.28125 0 15 6.738281 15 15.050781 0 8.308594-6.71875 15.046875-15 15.046875v60.199219h90c8.28125 0 14.996094-6.738281 14.996094-15.050781v-120.394532c0-8.308594-6.714844-15.046875-14.996094-15.046875zm0 0" fill="#fd9a2b"/></svg>