<svg height="512" viewBox="0 0 64 64" width="512" xmlns="http://www.w3.org/2000/svg"><g id="Safety"><path d="m14.71 33.1a2.984 2.984 0 0 0 -2.676 1.64c-.007.013-.01.028-.016.042v.008-.008a3.1 3.1 0 0 0 1.319 3.991l5.603 3.227-5.6-3.227a3.1 3.1 0 0 1 -1.319-3.991l-2.837-10.558a3.116 3.116 0 0 0 -3.559-2.324 3 3 0 0 0 -2.285 3.71l4.34 16.19a4 4 0 0 0 1.26 2l4.663 4a4 4 0 0 1 1.397 3.04v2.16h12v-8.588a8 8 0 0 0 -3.952-6.9l-6.838-4.012a3.012 3.012 0 0 0 -1.5-.4z" fill="#ffbcab"/><path d="m50.4 47.8 4.663-4a4 4 0 0 0 1.26-2l4.337-16.19a3 3 0 0 0 -2.285-3.71 3.116 3.116 0 0 0 -3.559 2.323l-2.834 10.559a3.1 3.1 0 0 1 -1.319 3.991l-5.603 3.227 5.6-3.227a3.1 3.1 0 0 0 1.319-3.991v.008-.008c-.006-.014-.009-.029-.016-.042a3.006 3.006 0 0 0 -4.173-1.24l-6.838 4.012a8 8 0 0 0 -3.952 6.9v8.588h12v-2.16a4 4 0 0 1 1.4-3.04z" fill="#ffbcab"/><path d="m34 53v8h18v-8h-3-12z" fill="#005ece"/><path d="m12 53v8h18v-8h-3-12z" fill="#005ece"/><path d="m47 3v12.6a24.014 24.014 0 0 1 -12.71 21.18l-2.29 1.22-2.29-1.22a24.014 24.014 0 0 1 -12.71-21.18v-12.6l1.42.81a12.015 12.015 0 0 0 11.32.32l2.26-1.13 2.26 1.13a11.994 11.994 0 0 0 11.31-.32z" fill="#b2fa09"/><path d="m39.621 9.4a16.08 16.08 0 0 1 -7.152-1.688l-.469-.24-.462.232a16.088 16.088 0 0 1 -7.159 1.69 15.986 15.986 0 0 1 -3.379-.361v6.567a19.962 19.962 0 0 0 10.589 17.647l.411.219.412-.219a19.965 19.965 0 0 0 10.588-17.647v-6.566a16.015 16.015 0 0 1 -3.379.366z" fill="#5eac24"/><path d="m39.621 9.4c-.207 0-.414-.029-.621-.037v6.237a19.95 19.95 0 0 1 -9 16.691c.514.338 1.039.663 1.589.956l.411.219.412-.219a19.965 19.965 0 0 0 10.588-17.647v-6.566a16.015 16.015 0 0 1 -3.379.366z" fill="#4e901e"/><path d="m34 53h18v3h-18z" fill="#004fac"/><path d="m12 53h18v3h-18z" fill="#004fac"/><g fill="#231f20"><path d="m58.581 20.922a4.094 4.094 0 0 0 -4.73 3.043l-2.362 8.8a3.99 3.99 0 0 0 -4.2-.126l-6.838 4.011a9.034 9.034 0 0 0 -4.451 7.762v7.588h-2a1 1 0 0 0 -1 1v8a1 1 0 0 0 1 1h18a1 1 0 0 0 1-1v-8a1 1 0 0 0 -1-1h-2v-1.16a3 3 0 0 1 1.047-2.278l4.663-4a4.985 4.985 0 0 0 1.576-2.5l4.339-16.192a3.951 3.951 0 0 0 .135-1.041 4.017 4.017 0 0 0 -3.179-3.907zm-7.581 39.078h-16v-6h16zm8.694-34.649-4.34 16.194a2.984 2.984 0 0 1 -.945 1.5l-4.663 4a5 5 0 0 0 -1.746 3.795v1.16h-10v-7.588a7.026 7.026 0 0 1 3.458-6.038l6.83-4.007a2.009 2.009 0 0 1 1-.267 1.973 1.973 0 0 1 1.787 1.1 2.1 2.1 0 0 1 -.911 2.711l-5.6 3.227a1 1 0 1 0 1 1.734l5.6-3.227a4.083 4.083 0 0 0 1.869-4.907l2.751-10.25a2.122 2.122 0 0 1 2.387-1.6 2.007 2.007 0 0 1 1.589 1.942 1.972 1.972 0 0 1 -.066.521z"/><path d="m30 52h-2v-7.588a9.034 9.034 0 0 0 -4.446-7.763l-6.846-4.016a3.994 3.994 0 0 0 -4.2.13l-2.361-8.8a4.1 4.1 0 0 0 -4.732-3.043 4.006 4.006 0 0 0 -3.044 4.947l4.34 16.194a4.976 4.976 0 0 0 1.575 2.5l4.663 4a3 3 0 0 1 1.051 2.279v1.16h-2a1 1 0 0 0 -1 1v8a1 1 0 0 0 1 1h18a1 1 0 0 0 1-1v-8a1 1 0 0 0 -1-1zm-15.746-4.957-4.663-4a2.977 2.977 0 0 1 -.945-1.5l-4.34-16.193a1.97 1.97 0 0 1 -.066-.52 2.007 2.007 0 0 1 1.591-1.951 2.125 2.125 0 0 1 2.387 1.6l2.751 10.249a4.083 4.083 0 0 0 1.869 4.908l5.6 3.227a1 1 0 1 0 1-1.734l-5.6-3.227a2.1 2.1 0 0 1 -.912-2.711 1.976 1.976 0 0 1 1.784-1.091 2 2 0 0 1 .994.262l6.838 4.013a7.023 7.023 0 0 1 3.458 6.037v7.588h-10v-1.16a5 5 0 0 0 -1.746-3.797zm14.746 12.957h-16v-6h16z"/><path d="m48 15.6v-12.6a1 1 0 0 0 -1.5-.868l-1.425.814a10.978 10.978 0 0 1 -10.375.289l-2.261-1.13a1 1 0 0 0 -.894 0l-2.245 1.126a10.975 10.975 0 0 1 -10.379-.286l-1.421-.813a1 1 0 0 0 -1.5.868v12.6a24.956 24.956 0 0 0 13.235 22.059l2.294 1.223a1 1 0 0 0 .942 0l2.294-1.223a24.954 24.954 0 0 0 13.235-22.059zm-16 21.267-1.823-.973a22.959 22.959 0 0 1 -12.177-20.294v-10.877a12.972 12.972 0 0 0 12.192.3l1.8-.9 1.814.906a12.971 12.971 0 0 0 12.194-.306v10.877a22.957 22.957 0 0 1 -12.177 20.294z"/><path d="m44 9.034a1 1 0 0 0 -1.211-.978 15.122 15.122 0 0 1 -9.873-1.243l-.472-.235a1 1 0 0 0 -.9 0l-.462.231a15.117 15.117 0 0 1 -9.876 1.246 1 1 0 0 0 -1.206.978v6.567a20.96 20.96 0 0 0 11.118 18.529l.411.22a1 1 0 0 0 .941 0l.412-.22a20.96 20.96 0 0 0 11.118-18.529zm-2 6.566a18.965 18.965 0 0 1 -10 16.733 18.965 18.965 0 0 1 -10-16.733v-5.373a17.141 17.141 0 0 0 9.982-1.627l.018-.01.024.013a17.12 17.12 0 0 0 9.976 1.625z"/><path d="m37.657 13.929-7.657 7.657-3.122-3.122a1 1 0 0 0 -1.414 1.414l3.829 3.829a1 1 0 0 0 1.414 0l8.364-8.364a1 1 0 1 0 -1.414-1.414z"/></g></g></svg>