<svg fill="none" height="24" viewBox="0 0 24 24" width="24" xmlns="http://www.w3.org/2000/svg"><g clip-rule="evenodd" fill-rule="evenodd"><path d="m21.5159 2.41541c.2929.29289.2929.76777 0 1.06066l-9.4924 9.49243c-.2929.2929-.7678.2929-1.0607 0s-.2929-.7678 0-1.0607l9.4924-9.49239c.2929-.29289.7678-.29289 1.0607 0z" fill="#4ded30"/><path d="m13.214 4.87701c-3.67223 1.01109-7.49464 2.36891-9.16062 3.33055-.39794.22972-.48581.38298-.5015.41672.0074.0259.03639.0881.13748.19533.1853.19653.51176.42703.98213.67468.46031.24236 1.01414.47841 1.61492.70171 1.20129.4466 2.53945.8239 3.58578 1.0908.52131.1329.96631.2375 1.28041.3088.1569.0356.281.0628.3654.0811l.096.0205.0239.005.007.0015c.2929.0606.5221.2895.5827.5825l.0015.0072.005.0239.0205.096c.0183.0844.0455.2085.0811.3654.0713.3141.1759.7591.3088 1.2804.2669 1.0463.6442 2.3845 1.0907 3.5858.2234.6008.4594 1.1546.7018 1.6149.2477.4704.4782.7968.6747.9821.1072.1011.1694.1301.1953.1375.0338-.0157.187-.1036.4167-.5015.9617-1.666 2.3195-5.4884 3.3306-9.1606.5021-1.82368.9094-3.57678 1.1353-4.96803.1132-.6973.1779-1.28567.1897-1.73802.0048-.18033.0008-.32967-.0096-.44964-.12-.01039-.2693-.01437-.4497-.00965-.4523.01184-1.0407.0765-1.738.18973-1.3912.22593-3.1443.63321-4.968 1.13532zm2.1073 15.50429c.0001.0005-.0032.0008-.0101-.0008.0065-.0006.01.0002.0101.0008zm-4.458-7.3133c-.014-.0031-.0281-.0063-.0426-.0096-.3246-.0736-.7828-.1813-1.31925-.3182-1.06923-.2727-2.46511-.665-3.73774-1.1382-.63618-.2365-1.25428-.4978-1.79104-.7804-.52671-.2774-1.02246-.5994-1.37471-.97299-.35104-.37234-.66277-.91549-.5083-1.56471.14332-.60236.63559-1.04164 1.21382-1.37544 1.84617-1.06565 5.83183-2.46427 9.51232-3.47763 1.8527-.51011 3.6622-.93207 5.1258-1.16974.7301-.11856 1.3922-.1943 1.9392-.20861.2735-.00716.533.00057.7659.03051.2239.02879.4717.08381.6914.2008.1316.07009.2393.17781.3094.30941.117.21967.172.46746.2008.69138.03.23294.0377.4924.0305.76591-.0143.54698-.09 1.2091-.2086 1.93922-.2377 1.46358-.6596 3.27305-1.1697 5.12579-1.0134 3.6805-2.412 7.6661-3.4777 9.5123-.3337.5782-.773 1.0705-1.3754 1.2138-.6492.1545-1.1924-.1572-1.5647-.5083-.3736-.3522-.6957-.848-.973-1.3747-.2826-.5367-.5439-1.1548-.7804-1.791-.4732-1.2726-.8655-2.6685-1.1382-3.7377-.1369-.5365-.2446-.9947-.3182-1.3193-.0033-.0145-.0065-.0286-.0096-.0426zm-7.31328-4.458c.00055.0001.00135.00355.00077.01008-.00161-.00691-.00132-.01017-.00077-.01008z" fill="#00ab08"/></g></svg>