<?xml version="1.0" encoding="iso-8859-1"?>
<!-- Generator: Adobe Illustrator 19.0.0, SVG Export Plug-In . SVG Version: 6.00 Build 0)  -->
<svg version="1.1" id="Capa_1" xmlns="http://www.w3.org/2000/svg" xmlns:xlink="http://www.w3.org/1999/xlink" x="0px" y="0px"
	 viewBox="0 0 512 512" style="enable-background:new 0 0 512 512;" xml:space="preserve">
<path style="fill:#1689FC;" d="M480.496,159.399c-2.401-5.099-7.8-8.399-13.5-8.399h-15.901
	c-6.299-57.601-48.898-105.101-104.099-117.4c-9.6-2.401-19.799-3.6-30-3.6h-30c-8.401,0-15,6.599-15,15c0,8.399,6.599,15,15,15
	c27.599,0,47.401,10.8,60,32.1c8.101,14.399,13.2,34.6,14.7,58.9h-14.7c-5.7,0-11.1,3.3-13.5,8.399c-2.401,5.4-1.8,11.4,1.8,15.901
	l11.7,14.7l48.3,60.3c2.701,3.6,7.2,5.7,11.7,5.7s9-2.1,11.7-5.7l60-75C482.296,170.799,482.896,164.799,480.496,159.399z"/>
<path style="fill:#17ACE8;" d="M196.995,482c-27.599,0-48.401-10.8-61-32.1c-8.101-14.399-13.2-34.6-14.7-58.9h14.7
	c5.7,0,11.1-3.3,13.5-8.401c2.401-5.4,1.8-11.4-1.8-15.899l-11.7-14.7l-48.3-60.3c-5.7-7.2-17.701-7.2-23.401,0l-61,75
	c-3.6,4.499-4.2,10.499-1.8,15.899c2.401,5.101,7.8,8.401,13.5,8.401h15.901c6.299,57.599,49.898,105.099,105.099,117.4
	c9.6,2.399,19.799,3.6,30,3.6h31c8.401,0,15-6.601,15-15C211.995,488.599,205.396,482,196.995,482z"/>
<path style="fill:#6ECD24;" d="M496.995,241h-15c-6.899,0-12.9,4.799-14.399,11.4L455.295,301h-228.3c-4.501,0-9,2.1-11.7,5.7
	c-2.999,3.6-3.9,8.399-2.699,12.9l24.3,96.2c4.799,20.099,22.8,36.2,43.5,36.2h133.198c20.7,0,38.701-16.101,43.5-36.2L493.696,271
	h3.3c8.401,0,15-6.601,15-15C511.995,247.599,505.396,241,496.995,241z"/>
<path style="fill:#66BD21;" d="M511.995,256c0,8.399-6.599,15-15,15h-3.3l-36.601,144.8c-4.799,20.099-22.8,36.2-43.5,36.2h-66.599
	V301h108.3l12.301-48.6c1.5-6.601,7.5-11.4,14.399-11.4h15C505.396,241,511.995,247.599,511.995,256z"/>
<path style="fill:#004A7B;" d="M286.995,422c-24.901,0-45,20.099-45,45c0,24.899,20.099,45,45,45s45-20.101,45-45
	C331.995,442.099,311.896,422,286.995,422z"/>
<path style="fill:#E1E4FB;" d="M286.995,452c-8.401,0-15,6.599-15,15c0,8.399,6.599,15,15,15s15-6.601,15-15
	C301.995,458.599,295.396,452,286.995,452z"/>
<path style="fill:#00345B;" d="M406.995,422c-24.901,0-45,20.099-45,45c0,24.899,20.099,45,45,45s45-20.101,45-45
	C451.995,442.099,431.896,422,406.995,422z"/>
<path style="fill:#C5C9F7;" d="M406.995,452c-8.401,0-15,6.599-15,15c0,8.399,6.599,15,15,15s15-6.601,15-15
	C421.995,458.599,415.396,452,406.995,452z"/>
<path style="fill:#7986E8;" d="M260.296,155l-21.601-11.6c0.3-2.701,0.3-5.7,0.3-8.401s0-5.7-0.3-8.401L260.296,114
	c7.2-4.2,9.899-13.2,5.7-20.4l-30-52.2c-2.1-3.3-5.402-5.7-9.3-6.899c-3.602-0.901-7.8-0.601-11.4,1.5l-21.901,12.9
	c-4.799-3.3-9.3-6-14.399-8.401V15c0-8.401-6.599-15-15-15h-60c-8.401,0-15,6.599-15,15v25.499c-5.099,2.401-9.6,5.101-14.399,8.401
	L52.695,36c-3.6-2.1-7.798-2.401-11.4-1.5c-3.898,1.199-7.2,3.6-9.3,6.899l-30,52.2c-4.199,7.2-1.5,16.199,5.7,20.4l21.601,12.599
	c-0.3,2.701-0.3,5.7-0.3,8.401s0,5.7,0.3,8.401L7.695,155c-7.2,4.2-9.899,13.2-5.7,20.4l30,52.2c2.1,3.3,5.402,5.7,9.3,6.899
	c3.602,0.901,7.8,0.3,11.4-1.5l21.901-12.9c4.799,3.3,9.3,6,14.399,8.401V254c0,8.401,6.599,15,15,15h60c8.401,0,15-6.599,15-15
	v-25.499c5.099-2.401,9.6-5.101,14.399-8.401l21.901,12.9c3.6,1.8,7.798,2.401,11.4,1.5c3.898-1.199,7.2-3.6,9.3-6.899l30-52.2
	C270.195,168.2,267.496,159.201,260.296,155z M176.241,177.076C164.982,187.99,149.979,194,133.995,194s-30.986-6.01-42.246-16.924
	C80.301,165.978,73.995,151.035,73.995,135c0-33.084,26.916-60,60-60s60,26.916,60,60
	C193.995,151.035,187.69,165.978,176.241,177.076z"/>
<path style="fill:#6E77E5;" d="M260.296,155l-21.601-11.6c0.3-2.701,0.3-5.7,0.3-8.401s0-5.7-0.3-8.401L260.296,114
	c7.2-4.2,9.899-13.2,5.7-20.4l-30-52.2c-2.1-3.3-5.402-5.7-9.3-6.899c-3.602-0.901-7.8-0.601-11.4,1.5l-21.901,12.9
	c-4.799-3.3-9.3-6-14.399-8.401V15c0-8.401-6.599-15-15-15h-30v75c33.084,0,60,26.916,60,60c0,16.035-6.305,30.978-17.754,42.076
	C164.982,187.99,149.979,194,133.996,194v75h30c8.401,0,15-6.599,15-15v-25.499c5.099-2.401,9.6-5.101,14.399-8.401l21.901,12.9
	c3.6,1.8,7.798,2.401,11.4,1.5c3.898-1.199,7.2-3.6,9.3-6.899l30-52.2C270.195,168.2,267.496,159.201,260.296,155z"/>
<path style="fill:#004A7B;" d="M133.996,60c-41.421,0-75,33.579-75,75s33.579,74,75,74s75-32.579,75-74S175.417,60,133.996,60z
	 M133.996,179c-24.814,0-45-19.186-45-44s20.186-45,45-45s45,20.186,45,45S158.81,179,133.996,179z"/>
<path style="fill:#00345B;" d="M178.996,135c0,24.814-20.186,44-45,44v30c41.421,0,75-32.579,75-74s-33.579-75-75-75v30
	C158.81,90,178.996,110.186,178.996,135z"/>
<g>
</g>
<g>
</g>
<g>
</g>
<g>
</g>
<g>
</g>
<g>
</g>
<g>
</g>
<g>
</g>
<g>
</g>
<g>
</g>
<g>
</g>
<g>
</g>
<g>
</g>
<g>
</g>
<g>
</g>
</svg>
