<svg height="512" viewBox="0 0 512 512" width="512" xmlns="http://www.w3.org/2000/svg"><g id="flat"><path d="m208 400v30.059a81.941 81.941 0 0 1 -24 57.941h144a81.941 81.941 0 0 1 -24-57.941v-30.059z" fill="#a6a6a6"/><path d="m304.048 432c-.015-.647-.048-1.292-.048-1.941v-14.059h-96v14.059c0 .649-.033 1.294-.048 1.941z" fill="#7d7d7d"/><path d="m24 384v-327.273c0-18.075 14.327-32.727 32-32.727h400c17.673 0 32 14.652 32 32.727v327.273z" fill="#315a70"/><path d="m24 376v16a32 32 0 0 0 32 32h400a32 32 0 0 0 32-32v-16z" fill="#ccc"/><rect fill="#4b4348" height="16" rx="8" width="16" x="248" y="392"/><path d="m92 360a545.185 545.185 0 0 1 -68-4.245v28.245h464v-196.875c-98.622 106.329-239.538 172.875-396 172.875z" fill="#203b47"/><path d="m56 56h400v288h-400z" fill="#f8f8f8"/><path d="m124 296a439.165 439.165 0 0 1 -68-5.279v53.279h400v-201.381c-79.972 93.854-199.032 153.381-332 153.381z" fill="#e6e6e6"/><path d="m256 104a144.039 144.039 0 0 0 -129.02 208h258.04a144.039 144.039 0 0 0 -129.02-208z" fill="#f55441"/><path d="m124 296c-1.266 0-2.529-.013-3.793-.024a143.394 143.394 0 0 0 6.773 16.024h258.04a144.351 144.351 0 0 0 7.873-108.77 434.122 434.122 0 0 1 -268.893 92.77z" fill="#d3463c"/><path d="m368 248a112 112 0 1 0 -219.353 32h214.706a112 112 0 0 0 4.647-32z" fill="#f8f8f8"/><path d="m241.413 280h121.94a112.628 112.628 0 0 0 1.892-56.777 433.9 433.9 0 0 1 -123.832 56.777z" fill="#e6e6e6"/><g fill="#6ad3d3"><path d="m144 240h24v16h-24z"/><path d="m154.031 201.798h16v24h-16z" transform="matrix(.342 -.94 .94 .342 -94.293 292.929)"/><path d="m171.396 171.721h15.999v24h-15.999z" transform="matrix(.643 -.766 .766 .643 -76.656 203.052)"/><path d="m198 149.397h16v24h-16z" transform="matrix(.866 -.5 .5 .866 -53.1 124.62)"/><path d="m230.635 137.519h16v24h-16z" transform="matrix(.985 -.174 .174 .985 -22.338 43.709)"/><path d="m261.365 141.519h24v16h-24z" transform="matrix(.174 -.985 .985 .174 78.663 392.779)"/><path d="m294 153.397h24v16h-24z" transform="matrix(.5 -.866 .866 .5 13.226 345.703)"/><path d="m320.605 175.722h24v15.999h-24z" transform="matrix(.766 -.643 .643 .766 -40.278 256.782)"/><path d="m337.969 205.798h24v16h-24z" transform="matrix(.94 -.342 .342 .94 -52.019 132.597)"/></g><path d="m344 240h24v16h-24z" fill="#4eb7b4"/><path d="m253.824 228h68.352v15.999h-68.352z" fill="#e11919" transform="matrix(.936 -.351 .351 .936 -64.531 116.16)"/><circle cx="256" cy="248" fill="#315a70" r="16"/><rect fill="#e11919" height="16" rx="8" width="16" x="80" y="80"/><rect fill="#ffaf00" height="16" rx="8" width="16" x="104" y="80"/><rect fill="#19af19" height="16" rx="8" width="16" x="128" y="80"/><path d="m384 80h48v16h-48z" fill="#6ad3d3"/><path d="m352 80h16v16h-16z" fill="#6ad3d3"/></g></svg>