<svg id="Icons" height="512" viewBox="0 0 60 60" width="512" xmlns="http://www.w3.org/2000/svg"><path d="m28.623 59.143a.5.5 0 0 1 -.281-.914l7.716-5.257-9.291 5.364a.5.5 0 0 1 -.53-.848l10.645-7.174-12.231 7.061a.5.5 0 0 1 -.526-.85l12.389-8.211-13.814 7.973a.5.5 0 0 1 -.517-.855l7.928-5.023-8.711 5.034a.5.5 0 0 1 -.514-.857l4.049-2.516-4.566 2.63a.5.5 0 0 1 -.52-.853l14.32-9.211-15.313 8.84a.5.5 0 0 1 -.52-.854l16.14-10.374-17.085 9.866a.5.5 0 0 1 -.517-.855l13.605-8.572-14.24 8.22a.5.5 0 0 1 -.516-.855l14.389-9.052-14.947 8.63a.5.5 0 0 1 -.516-.857l14.729-9.233-15.2 8.777a.5.5 0 0 1 -.51-.86l1-.608-1.078.622a.5.5 0 0 1 -.514-.858l12.4-7.682-12.666 7.312a.5.5 0 0 1 -.511-.859l4.727-2.884-4.783 2.762a.5.5 0 0 1 -.516-.856l19.8-12.51-20.172 11.646a.5.5 0 0 1 -.514-.856l17.623-11.015-17.821 10.289a.5.5 0 0 1 -.517-.856l21.005-13.25-21.212 12.246a.5.5 0 0 1 -.515-.858l17.925-11.164-17.96 10.369a.5.5 0 0 1 -.51-.859l6.721-4.088-6.552 3.78a.5.5 0 0 1 -.51-.859l8.638-5.276-8.456 4.88a.5.5 0 0 1 -.51-.86l2.62-1.588-2.364 1.364a.5.5 0 0 1 -.514-.856l16.229-10.15-16.056 9.265a.5.5 0 0 1 -.515-.856l14.929-9.344-14.687 8.479a.5.5 0 0 1 -.513-.857l9.043-5.592-8.711 5.03a.5.5 0 0 1 -.512-.859l7.284-4.5-6.909 3.99a.5.5 0 0 1 -.514-.856l10.555-6.6-10.155 5.865a.5.5 0 0 1 -.515-.857l8.205-5.119-7.766 4.476a.5.5 0 0 1 -.518-.855l11.651-7.412-11.171 6.449a.5.5 0 0 1 -.516-.855l7.538-4.742-7.028 4.056a.5.5 0 0 1 -.518-.854l8.4-5.34-7.882 4.553a.5.5 0 0 1 -.521-.853l10.241-6.636-9.72 5.612a.5.5 0 0 1 -.527-.849l11.724-7.815-11.197 6.463a.5.5 0 0 1 -.517-.855l2.4-1.516-1.883 1.086a.5.5 0 0 1 -.575-.812l3.7-3.172-3.125 1.806a.5.5 0 0 1 -.646-.737l.425-.555a.5.5 0 0 1 -.207-.931l1.737-1a.5.5 0 0 1 .646.736l-.283.37 5.632-3.25a.5.5 0 0 1 .575.812l-3.7 3.172 18.872-10.902a.5.5 0 0 1 .518.856l-2.4 1.516 2.976-1.717a.5.5 0 0 1 .527.848l-11.724 7.816 13.139-7.586a.5.5 0 0 1 .522.852l-10.246 6.641 11.442-6.6a.5.5 0 0 1 .519.854l-8.411 5.337 9.432-5.445a.5.5 0 0 1 .517.854l-7.531 4.738 8.491-4.9a.5.5 0 0 1 .518.854l-11.655 7.414 12.935-7.467a.5.5 0 0 1 .515.856l-8.207 5.12 9.224-5.324a.5.5 0 0 1 .515.856l-10.547 6.598 11.717-6.764a.5.5 0 0 1 .513.859l-7.308 4.513 8.286-4.784a.5.5 0 0 1 .513.858l-9.03 5.583 10.109-5.836a.5.5 0 0 1 .516.856l-14.923 9.343 16.407-9.473a.5.5 0 0 1 .515.857l-16.24 10.158 17.825-10.288a.5.5 0 0 1 .51.86l-2.586 1.568 3.428-1.979a.5.5 0 0 1 .511.86l-8.644 5.28 9.165-5.291a.5.5 0 0 1 .509.859l-6.718 4.086 6.245-3.6a.5.5 0 0 1 .514.857l-17.934 11.166 17.42-10.058a.5.5 0 0 1 .516.856l-20.987 13.24 20.471-11.819a.5.5 0 0 1 .514.856l-17.634 11.019 17.12-9.881a.5.5 0 0 1 .516.855l-19.8 12.511 19.284-11.133a.5.5 0 0 1 .51.86l-4.73 2.884 4.221-2.436a.5.5 0 0 1 .513.857l-12.407 7.689 11.873-6.857a.5.5 0 0 1 .51.861l-1.01.613.464-.268a.5.5 0 0 1 .516.857l-14.715 9.227 14.1-8.139a.5.5 0 0 1 .517.855l-14.399 9.058 13.7-7.91a.5.5 0 0 1 .516.855l-13.599 8.568 12.83-7.407a.5.5 0 0 1 .52.854l-16.143 10.374 15.19-8.77a.5.5 0 0 1 .521.854l-14.324 9.214 13.252-7.651a.5.5 0 0 1 .513.858l-4.03 2.5 3.071-1.766a.5.5 0 0 1 .518.856l-7.936 5.026 6.764-3.9a.5.5 0 0 1 .526.849l-12.397 8.209 10.67-6.159a.5.5 0 0 1 .529.848l-10.64 7.17 8.446-4.872a.5.5 0 0 1 .531.846l-7.723 5.254 4.936-2.849a.5.5 0 0 1 .551.832l-5.327 4.006a.5.5 0 0 1 .358.921l-6.837 3.947a.5.5 0 0 1 -.551-.832l5.174-3.891-9.419 5.437a.5.5 0 0 1 -.25.072z" fill="#e8edf4"/><path d="m30.889 54.052a.5.5 0 0 1 -.307-.9l5.46-4.246-7.942 4.587a.5.5 0 0 1 -.539-.841l7.429-5.265-8.876 5.124a.5.5 0 0 1 -.532-.845l8.755-6-9.98 5.762a.5.5 0 0 1 -.526-.85l8.34-5.518-9.228 5.327a.5.5 0 0 1 -.524-.851l9.767-6.429-10.586 6.117a.5.5 0 0 1 -.527-.85l12.627-8.39-13.521 7.808a.5.5 0 0 1 -.525-.851l13.291-8.741-14.023 8.1a.5.5 0 0 1 -.517-.856l6.682-4.2-6.943 4.006a.5.5 0 0 1 -.518-.854l9.863-6.26-10.164 5.864a.5.5 0 0 1 -.521-.853l14.147-9.142-14.551 8.4a.5.5 0 0 1 -.515-.856l8.744-5.486-8.848 5.108a.5.5 0 0 1 -.513-.858l3.113-1.919-3.056 1.763a.5.5 0 0 1 -.514-.857l6.865-4.268-6.829 3.943a.5.5 0 0 1 -.512-.859l3.387-2.086-3.257 1.88a.5.5 0 0 1 -.513-.857l5.923-3.666-5.788 3.343a.5.5 0 0 1 -.521-.853l16.158-10.386-16.159 9.328a.5.5 0 0 1 -.52-.853l14.528-9.33-14.417 8.323a.5.5 0 0 1 -.522-.852l14.637-9.523-14.461 8.349a.5.5 0 0 1 -.524-.851l13.556-8.876-13.284 7.669a.5.5 0 0 1 -.526-.851l12.349-8.132-11.994 6.924a.5.5 0 0 1 -.518-.855l4.631-2.928-4.173 2.408a.5.5 0 0 1 -.518-.854l4.292-2.73-3.806 2.2a.5.5 0 0 1 -.526-.85l8.874-5.89-8.363 4.823a.5.5 0 0 1 -.525-.851l6.495-4.278-5.97 3.446a.5.5 0 0 1 -.522-.852l3.411-2.216-2.889 1.668a.5.5 0 0 1 -.527-.849l4.435-2.95-3.908 2.256a.5.5 0 0 1 -.669-.706l1.077-1.654-.235.136a.5.5 0 0 1 -.5-.865l2.047-1.182a.5.5 0 0 1 .669.706l-1.079 1.651 15.762-9.1a.5.5 0 0 1 .527.849l-4.431 2.951 5.714-3.3a.5.5 0 0 1 .523.852l-3.42 2.221 4.175-2.41a.5.5 0 0 1 .526.851l-6.5 4.279 7.539-4.353a.5.5 0 0 1 .526.85l-8.868 5.886 10.176-5.871a.5.5 0 0 1 .518.854l-4.3 2.732 5.144-2.97a.5.5 0 0 1 .518.855l-4.619 2.924 5.5-3.177a.5.5 0 0 1 .525.851l-12.346 8.136 13.992-8.078a.5.5 0 0 1 .524.85l-13.561 8.88 15.307-8.837a.5.5 0 0 1 .522.852l-14.633 9.523 16.451-9.5a.5.5 0 0 1 .52.854l-14.53 9.331 15.994-9.234a.5.5 0 0 1 .521.854l-16.159 10.388 15.993-9.234a.5.5 0 0 1 .512.858l-5.908 3.656 5.4-3.114a.5.5 0 0 1 .511.858l-3.392 2.09 2.881-1.663a.5.5 0 0 1 .513.857l-6.87 4.269 6.353-3.67a.5.5 0 0 1 .512.858l-3.121 1.924 2.609-1.502a.5.5 0 0 1 .515.857l-8.747 5.487 8.222-4.746a.5.5 0 0 1 .521.852l-14.146 9.143 13.56-7.828a.5.5 0 0 1 .517.854l-9.862 6.26 9.227-5.327a.5.5 0 0 1 .517.855l-6.663 4.19 5.987-3.456a.5.5 0 0 1 .525.85l-13.293 8.742 12.421-7.17a.5.5 0 0 1 .526.849l-12.633 8.39 11.586-6.689a.5.5 0 0 1 .524.851l-9.774 6.431 8.621-4.975a.5.5 0 0 1 .526.85l-8.336 5.516 7-4.043a.5.5 0 0 1 .533.845l-8.754 6 6.952-4.014a.5.5 0 0 1 .539.841l-7.431 5.263 4.932-2.847a.5.5 0 0 1 .557.827l-5.464 4.249.536-.308a.5.5 0 0 1 .5.865l-6.826 3.94a.493.493 0 0 1 -.246.068z" fill="#39b54a"/><path d="m24.939 39.1a.5.5 0 0 1 -.323-.882l3.318-2.807-4.034 2.332a.5.5 0 0 1 -.533-.845l.183-.126-.377.218a.5.5 0 0 1 -.532-.845l2.891-1.978-3.265 1.885a.5.5 0 0 1 -.533-.845l6.766-4.633-7.4 4.272a.5.5 0 0 1 -.6-.793l1.154-1.109-1.538.888a.5.5 0 0 1 -.623-.766l1.75-1.956-1.963 1.133a.5.5 0 0 1 -.608-.781l1.465-1.5a.493.493 0 0 1 -.137-.162.5.5 0 0 1 .183-.683l1.846-1.066a.5.5 0 0 1 .609.781l-.721.739 1.539-.887a.5.5 0 0 1 .623.765l-1.75 1.957 2.4-1.385a.5.5 0 0 1 .6.793l-1.159 1.106 15.116-8.727a.5.5 0 0 1 .532.845l-6.763 4.631 3.31-1.911a.5.5 0 0 1 .532.846l-2.892 1.978.087-.05a.5.5 0 0 1 .533.845l-1.949 1.339a.511.511 0 0 1 .251.186.5.5 0 0 1 -.086.67l-3.529 2.987a.482.482 0 0 1 .47.249.5.5 0 0 1 -.182.682l-4.411 2.546a.493.493 0 0 1 -.25.064z" fill="#fff"/><path d="m26.236 31.255a.5.5 0 0 1 -.283-.912l4.327-2.982-1.25.722a.5.5 0 0 1 -.535-.843l2.38-1.655a.5.5 0 0 1 -.312-.885l3.5-2.9a.507.507 0 0 1 -.491-.2.5.5 0 0 1 .066-.665l1.8-1.654a.207.207 0 0 1 -.015-.025.5.5 0 0 1 .182-.683l1.695-.973a.5.5 0 0 1 .588.8l-.207.191.9-.519a.5.5 0 0 1 .569.818l-3.368 2.789 4.215-2.434a.5.5 0 0 1 .535.843l-1.693 1.178 1.808-1.043a.5.5 0 0 1 .533.844l-4.324 2.979 3.288-1.9a.5.5 0 0 1 .5.866l-14.158 8.176a.5.5 0 0 1 -.25.067z" fill="#fff"/><g fill="#262626"><path d="m52.8 10.2c-27.348-8.11-13.255-14.15-37.718-2.7-2.624 1.77-8.624 1.146-8.812 4.989.041 9.751-.575 19.784 3.258 28.982 7.574 16.8 23 24.827 36.113 8.005 8.181-10.604 9.965-26.926 7.159-39.276zm-.536 13.575c.041 12.332-4.461 25.847-15.759 32.177-2.749 1.386-5.977 3.543-8.962 1.768-18.287-6.7-20.851-28.053-19.813-45-.334-1.377.758-2.049 1.989-2.3a102.868 102.868 0 0 0 19.449-8.53c.678-.622 1.308-.094 1.916.313 20.241 12.235 22.137 1.447 21.181 21.572z"/><path d="m48.733 16.178c1.391-3.2-14.3-6.948-17.576-9.624-2.455-.738-4.533 1.667-6.782 2.369-3.721 2.637-11.043 2.764-13.109 6.677-3.087 49.755 39.934 50.524 37.467.578zm-1.466 1.55c2.7 19.137-13.73 52.09-30.372 24.14-4.386-7.985-4.314-17.362-4.162-26.215-.037-1.492 2.254-1.64 3.343-2.146 4-.609 12.847-7.358 15.382-5.376a112.867 112.867 0 0 0 11.933 5.277c2.371.504 4.614 1.562 3.876 4.32z"/><path d="m39.55 18.217c-4.973-2.893-10.06 9.279-13.706 12.1-2.044-3.662-6.416-2.267-7.544 1.229.277 3.05 4.009 4.787 5.7 7.16 2.891 2.588 5.513-1.929 7.056-3.813 1.944-4.13 15.162-13.372 8.494-16.676zm.413 4.062c-2.628 2.177-12.491 17.708-14.622 15.835-1.894-2.512-8.379-5.937-3.839-8.94 1.93-1.267 3.088 3.722 4.852 2.263 2.681-1.912 10.094-15.937 12.681-11.946.865.717 1.687 1.621.928 2.788z"/></g></svg>