<svg height="512pt" viewBox="0 0 512 512" width="512pt" xmlns="http://www.w3.org/2000/svg"><path d="m35.964844 270.734375 39.960937 240.675781 75.425781-43.460937v-197.214844zm0 0" fill="#ff9a27"/><path d="m.5 270.734375v197.214844l75.425781 43.460937v-240.675781zm0 0" fill="#ffb820"/><path d="m75.425781 227.277344-29.96875 43.457031 29.96875 43.457031 75.425781-43.457031zm0 0" fill="#ffb820"/><path d="m0 270.734375 75.425781 43.457031v-86.914062zm0 0" fill="#ffd06a"/><path d="m396.613281 130.371094 39.960938 381.039062 75.425781-43.460937v-337.578125zm0 0" fill="#2b1d73"/><path d="m361.148438 130.371094v337.578125l75.425781 43.460937v-381.039062zm0 0" fill="#3840a3"/><path d="m436.574219 86.914062-29.972657 43.457032 29.972657 43.460937 75.425781-43.460937zm0 0" fill="#3a6fd8"/><path d="m361.148438 130.371094 75.425781 43.460937v-86.917969zm0 0" fill="#3b88f5"/><path d="m216.289062 43.457031 39.960938 467.953125 75.425781-43.460937v-424.492188zm0 0" fill="#2db94d"/><path d="m180.824219 43.457031v424.492188l75.425781 43.460937v-467.953125zm0 0" fill="#62d15b"/><path d="m256.25 0-29.972656 43.457031 29.972656 43.457031 75.425781-43.457031zm0 0" fill="#62d15b"/><path d="m180.824219 43.457031 75.425781 43.457031v-86.914062zm0 0" fill="#94e368"/></svg>