<svg id="Layer_1" viewBox="0 0 512 512" xmlns="http://www.w3.org/2000/svg" data-name="Layer 1"><path d="m285.355 285.892h47.688v179.238h-47.688z" fill="#4eb1fc"/><path d="m201.837 357.424h47.687v107.707h-47.687z" fill="#fdc72e"/><path d="m368.872 310.291h47.687v154.84h-47.687z" fill="#2dd62d"/><path d="m452.389 235.153h47.688v229.978h-47.688z" fill="#f89b00"/><path d="m118.32 411.277h47.687v53.854h-47.687z" fill="#fb545c"/><g fill-rule="evenodd"><path d="m154.109 195.117 43.228 91.267-33.723-10.493-16.385 31.288-34.095-95.057z" fill="#e8333c"/><path d="m154.109 195.117 38.127 80.496-24.487-7.618-14.667 28.007-31.364-87.442z" fill="#fb545c"/><path d="m106.114 212.172-33.968 95.102-16.427-31.266-33.709 10.538 43.106-91.324z" fill="#e8333c"/><path d="m106.114 212.172-29.616 82.917-11.542-21.968-30.78 9.622 39.618-83.933z" fill="#fb545c"/><path d="m131.004 58.331c5.754 8.101 15.035 11.946 24.832 10.286 9.108-1.544 16.725.12 23.427 6.823 6.705 6.704 8.366 14.317 6.824 23.427-1.66 9.797 2.184 19.078 10.285 24.832 7.533 5.35 11.741 11.91 11.741 21.39s-4.208 16.04-11.741 21.391c-8.101 5.754-11.946 15.035-10.286 24.832 1.545 9.108-.12 16.724-6.823 23.427-6.704 6.705-14.317 8.366-23.427 6.823-9.797-1.66-19.078 2.184-24.832 10.286-5.35 7.532-11.91 11.741-21.391 11.741s-16.04-4.208-21.39-11.741c-5.754-8.101-15.035-11.946-24.832-10.286-9.108 1.544-16.724-.121-23.427-6.823-6.705-6.704-8.366-14.317-6.824-23.427 1.66-9.797-2.184-19.078-10.286-24.832-7.532-5.35-11.741-11.91-11.741-21.391s4.208-16.04 11.741-21.39c8.101-5.754 11.946-15.035 10.286-24.832-1.544-9.108.12-16.724 6.823-23.427 6.704-6.705 14.317-8.366 23.427-6.824 9.797 1.66 19.078-2.184 24.832-10.286 5.35-7.533 11.91-11.741 21.39-11.741s16.04 4.208 21.391 11.741z" fill="#f9ac00"/><path d="m131.004 58.331c5.754 8.101 15.035 11.946 24.832 10.286 9.108-1.545 16.724.121 23.427 6.823 6.705 6.704 8.366 14.317 6.824 23.427-1.66 9.797 2.185 19.078 10.286 24.832 7.533 5.35 11.741 11.91 11.741 21.39s-4.209 16.04-11.741 21.391c-8.101 5.754-11.946 15.035-10.286 24.832 1.545 9.108-.12 16.724-6.823 23.427-6.704 6.705-14.317 8.366-23.427 6.824-9.797-1.66-19.079 2.184-24.832 10.286-4.241 5.971-9.243 9.853-15.857 11.206-6.614-1.353-11.616-5.235-15.857-11.206-5.754-8.101-15.035-11.946-24.832-10.286-.42.071-.838.135-1.252.193-3.129-.683-6.442-.764-9.816-.193l-.127.021c-4.432-.913-8.476-3.087-12.233-6.844-6.705-6.704-8.366-14.317-6.824-23.427 1.66-9.797-2.184-19.078-10.286-24.832-7.533-5.35-11.741-11.91-11.741-21.391s4.208-16.04 11.741-21.39c8.101-5.754 11.946-15.035 10.286-24.832-1.544-9.108.12-16.724 6.823-23.427 3.758-3.758 7.802-5.931 12.234-6.844l.126.02c3.373.572 6.686.49 9.815-.193.415.057.832.122 1.252.193 9.797 1.66 19.078-2.184 24.832-10.286 4.241-5.971 9.243-9.853 15.857-11.206 6.614 1.353 11.616 5.235 15.857 11.206z" fill="#fdc72e"/></g><circle cx="117.809" cy="145.178" fill="#f9ac00" r="47.575" transform="matrix(.987 -.16 .16 .987 -21.734 20.745)"/><circle cx="109.613" cy="145.09" fill="#f3f3ff" r="47.575"/><path d="m118.32 411.277h14.578v53.854h-14.578z" fill="#e8333c"/><path d="m201.837 357.424h14.579v107.707h-14.579z" fill="#f9ac00"/><path d="m285.355 285.893h14.578v179.238h-14.578z" fill="#2a92fa"/><path d="m368.872 310.291h14.579v154.84h-14.579z" fill="#29b933"/><path d="m452.39 235.153h14.578v229.977h-14.578z" fill="#e68207"/><path d="m161.002 416.279h-37.674v43.857h37.674zm9.994-4.997v53.851c0 2.763-2.204 5.002-4.997 5.002h-47.669c-2.792 0-4.997-2.239-4.997-5.002v-53.851c0-2.763 2.205-5.002 4.997-5.002h47.669c2.792 0 4.997 2.239 4.997 5.002zm-103.861-265.811c0 23.423 19.058 42.475 42.475 42.475s42.475-19.052 42.475-42.475-19.058-42.475-42.475-42.475-42.475 19.058-42.475 42.475zm-9.994 0c0-28.934 23.516-52.474 52.47-52.474s52.469 23.54 52.469 52.474-23.516 52.474-52.469 52.474-52.47-23.54-52.47-52.474zm33.02 96.493c-2.155-1.871-4.164-4.11-6.026-6.746-4.654-6.506-12.101-9.592-19.94-8.26-3.086.519-6.026.686-8.818.519l-23.859 50.628 22.83-7.133c2.303-.716 4.752.308 5.879 2.445l11.121 21.169 18.812-52.621zm-46.737-30.301c-5.193-5.198-6.81-10.905-5.438-19.082 2.009-11.748-2.596-22.874-12.346-29.772-6.761-4.806-9.651-9.989-9.651-17.338s2.89-12.532 9.651-17.338c9.749-6.893 14.355-18.024 12.346-29.772-1.372-8.172.245-13.879 5.438-19.077s10.925-6.82 19.106-5.438c11.709 1.989 22.83-2.621 29.738-12.331 4.801-6.761 9.994-9.646 17.343-9.646s12.542 2.886 17.343 9.646c6.908 9.71 18.029 14.325 29.787 12.331 8.181-1.387 13.864.24 19.058 5.438 5.193 5.193 6.81 10.9 5.438 19.082-1.96 11.743 2.645 22.874 12.346 29.767 6.761 4.806 9.651 9.989 9.651 17.338s-2.89 12.532-9.651 17.338c-9.7 6.898-14.306 18.024-12.346 29.772 1.372 8.176-.245 13.884-5.438 19.082-5.193 5.193-10.876 6.82-19.058 5.433-11.758-1.989-22.879 2.621-29.787 12.331-4.801 6.766-9.994 9.651-17.343 9.651s-12.542-2.885-17.343-9.651c-5.83-8.221-14.697-12.787-24.397-12.787-1.764 0-3.577.152-5.34.456-8.181 1.391-13.913-.24-19.106-5.433zm120.665 15.795c-2.841.196-5.83.039-9.014-.5-7.888-1.337-15.334 1.754-19.939 8.26-1.862 2.553-3.772 4.733-5.879 6.575l18.911 52.7 11.072-21.183c1.176-2.141 3.625-3.175 5.928-2.455l22.83 7.104-23.908-50.5zm-54.478 21.62c-3.87 0-7.398-.617-10.729-1.847l-21.948 61.454c-.637 1.867-2.352 3.165-4.311 3.307-.147.005-.245.01-.392.01-1.812 0-3.527-1.019-4.409-2.675l-14.501-27.567-29.689 9.293c-1.911.593-3.968.005-5.291-1.489-1.323-1.499-1.568-3.625-.735-5.418l27.876-59.034c-3.282-1.465-6.32-3.586-9.112-6.379-7.447-7.447-10.141-16.544-8.23-27.822 1.323-7.868-1.764-15.329-8.279-19.949-9.308-6.624-13.864-14.962-13.864-25.49s4.556-18.867 13.864-25.49c6.516-4.62 9.602-12.076 8.279-19.944-1.911-11.278.784-20.375 8.23-27.827 7.447-7.442 16.51-10.131 27.827-8.221 7.839 1.333 15.285-1.759 19.94-8.265 6.614-9.323 14.942-13.86 25.475-13.86s18.862 4.537 25.524 13.86c4.605 6.506 12.052 9.597 19.939 8.265 11.268-1.911 20.331.779 27.778 8.221 7.447 7.447 10.141 16.544 8.23 27.822-1.323 7.873 1.764 15.329 8.28 19.949 9.308 6.624 13.864 14.962 13.864 25.49s-4.556 18.866-13.864 25.49c-6.516 4.62-9.602 12.081-8.28 19.949 1.911 11.273-.784 20.376-8.181 27.822-2.744 2.729-5.732 4.811-8.916 6.271l27.925 58.976c.882 1.793.588 3.919-.735 5.418-1.274 1.499-3.331 2.087-5.242 1.494l-29.738-9.249-14.452 27.587c-.882 1.656-2.596 2.68-4.409 2.68-.147 0-.245-.005-.343-.015-2.009-.132-3.723-1.43-4.36-3.297l-22.046-61.45c-3.38 1.294-7.006 1.93-10.974 1.93zm385.462-8.921h-37.674v219.98h37.674zm9.994-5.002v229.979c0 2.763-2.205 5.002-4.997 5.002h-47.668c-2.792 0-4.997-2.239-4.997-5.002v-229.979c0-2.758 2.205-4.997 4.997-4.997h47.668c2.793 0 4.997 2.239 4.997 4.997zm-93.524 80.139h-37.674v144.842h37.674zm9.994-5.002v154.841c0 2.763-2.204 5.002-4.997 5.002h-47.668c-2.743 0-4.997-2.239-4.997-5.002v-154.841c0-2.758 2.254-4.997 4.997-4.997h47.668c2.792 0 4.997 2.239 4.997 4.997zm-177.005 52.136h-37.674v97.708h37.674zm9.994-5.002v107.707c0 2.763-2.254 5.002-4.997 5.002h-47.668c-2.792 0-4.997-2.239-4.997-5.002v-107.707c0-2.758 2.205-4.997 4.997-4.997h47.668c2.744 0 4.997 2.239 4.997 4.997zm73.535-66.53h-37.723v169.24h37.723zm9.994-5.002v179.238c0 2.763-2.254 5.002-4.997 5.002h-47.717c-2.744 0-4.997-2.239-4.997-5.002v-179.238c0-2.758 2.254-4.997 4.997-4.997h47.717c2.743 0 4.997 2.239 4.997 4.997zm167.892-139.698-3.184 21.673c-.343 2.489-2.498 4.277-4.899 4.277-.245 0-.49-.02-.735-.054-2.744-.402-4.654-2.939-4.262-5.668l1.029-6.746-103.322 103.313c-1.421 1.44-3.625 1.866-5.487 1.068l-79.267-33.598-156.429 156.418c-.98.975-2.254 1.465-3.527 1.465s-2.596-.49-3.527-1.465c-1.96-1.95-1.96-5.119 0-7.069l158.78-158.799c1.421-1.44 3.625-1.862 5.487-1.068l79.267 33.593 100.922-100.931-6.712.99c-2.744.397-5.291-1.489-5.683-4.223s1.47-5.272 4.213-5.673l21.703-3.17c1.567-.23 3.135.294 4.213 1.411 1.127 1.117 1.666 2.694 1.421 4.257z" fill-rule="evenodd"/></svg>