<svg id="Layer_1" enable-background="new 0 0 70 70" viewBox="0 0 70 70" xmlns="http://www.w3.org/2000/svg"><g><g><path d="m37.6706772 9.6096258c.7162285-.413414 1.4328766-.6784487 2.1173477-.7748928l14.8392029-2.107101c2.3072815-.3258719 3.8441963 1.3243299 3.8522568 4.1655221l.0699272 24.6579285c.0064735 2.2820702-.9807129 4.98909-2.6361923 7.2131805l-14.7885208 19.884388c-.9910812 1.3320198-2.1349487 2.3722305-3.2809677 3.0336685-1.146019.6614304-2.2944641.9442368-3.2949677.761673l-14.8824253-2.7596321c-1.6626663-.3090057-2.661953-1.8695221-2.6684246-4.1515884l-.0699291-24.6579323c-.0080242-2.8297768 1.514492-6.2571812 3.8160782-8.5913448l14.8322467-15.029378c.6763344-.6803493 1.3851433-1.2351599 2.094368-1.6444912z" fill="#63c563"/></g><g><path d="m58.5454407 35.549942c.01754 2.2772369-.9814034 4.9924088-2.6284904 7.2171478l-14.7895432 19.8821755c-.9989433 1.331337-2.1377869 2.3648033-3.2770576 3.0304756-1.1563797.6656647-2.2952232.9459991-3.2941704.7707672l-14.894783-2.7676697c-1.6646271-.3153-2.6635723-1.8743706-2.6635723-4.1516075l-.0526218-18.8837814c2.2254906 1.1386719 4.7311993 1.7692719 7.3947716 1.7692719 9.1124458 0 16.4896774-7.3748512 16.4896774-16.4839058 0-5.4128075-2.6284943-10.2300844-6.6764717-13.2431278l1.419487-1.4363308c.6832199-.6832027 1.384407-1.2262373 2.1027069-1.646637.7182999-.4029722 1.4370308-.6832037 2.1202507-.7707691l14.8246231-2.1021056c2.3131905-.3328347 3.8550339 1.3138022 3.8550339 4.151608z" fill="#2fb22f"/></g><g><g><path d="m37.7048645 15.8892021 15.1846085-2.1451597.0718917 25.3502607-15.1329879 20.3469086-15.2404881-2.8287201-.0718574-25.3382435z" fill="#f0f5fc"/></g><g><path d="m52.9677582 39.0913467-15.1479836 20.3443642-15.2403297-2.8220673-.0184689-8.9640083c8.1920204-1.1066284 14.4835606-7.8758469 14.4835606-16.0835705 0-4.113205-1.5865135-7.8758488-4.2063713-10.734726l4.8707962-4.943119 15.1849213-2.1396275z" fill="#e1ebfa"/></g></g><g><path d="m39.7918663 8.8349037 14.8294983-2.1126633c.8191719-.106854 1.5316772.0237613 2.1253319.3679395l-5.4855156-3.1927927c-.581768-.344178-1.3061562-.4747932-2.1134453-.3560586l-14.8413849 2.112663c-.5875664.0810642-1.1933975.3075218-1.8009682.623157l5.4704437 3.1838822c.6171342-.317519 1.2261506-.5447739 1.8160401-.6261271z" fill="#97d997"/></g><g><path d="m12.3819761 27.4783249c-.5936546 1.4195976-.936862 2.8829517-.9313545 4.2164879l.0594234 24.6521568c.0118847 1.8159332.6411943 3.1690292 1.733427 3.810009l5.4855146 3.180912c-1.0925236-.629097-1.7218323-1.9940033-1.733427-3.810009l-.0713081-24.6521568c0-1.3275223.3458157-2.7873993.94063-4.2060566z" fill="#97d997"/></g><g><path d="m20.7473564 26.2825031 14.8294983-15.0262556c.6768494-.676548 1.389061-1.2344332 2.0896797-1.6498232.1040611-.0596933.2055168-.0920753.3092918-.1453934l-5.4704437-3.1838822c-.104351.0542603-.2081261.0874391-.3124809.1483641-.7122097.4035091-1.4247131.9613948-2.1015606 1.6379418l-14.8294983 15.0381365c-1.2206459 1.2326946-2.210844 2.7766781-2.8798666 4.3767338l5.4829054 3.1913433c.671051-1.6001987 1.6615391-3.1477337 2.8824749-4.3871651z" fill="#97d997"/></g><g><path d="m37.9715347 9.4636879c-.1000977.0500488-.1999512.0800171-.3000488.1400146-.7099609.4199829-1.4199219.9799805-2.0900879 1.6500244l-14.8298359 15.0299683c-1.2299805 1.2399902-2.2199707 2.789978-2.8901367 4.3900146l-5.4799805-3.2000122c.670166-1.5999756 1.6599121-3.1400146 2.880127-4.3699951l2.3198242-2.3499756c.4799805.0699463.9702148.0999756 1.4799805.0999756 4.3300781 0 7.8400879-2.4100342 7.8400879-5.3699951 0-1.0800171-.4599609-2.0700073-1.25-2.9099731l4.4399414-4.5100098c.6801758-.6799927 1.3901367-1.2300415 2.1000996-1.6400146.1101074-.0599976.2099609-.0900269.3100586-.1500244z" fill="#cbeccb"/></g><g><g><path d="m32.67173 51.7454033c-1.1757832 0-2.2666035-.2758789-3.2334003-.8325195-2.3095703-1.3295898-3.5859375-4.0786133-3.59375-7.7407227-.0214844-7.3774414 5.1845703-16.3945293 11.6064472-20.1000957 3.2089844-1.8535156 6.2597656-2.1391602 8.5849609-.8007813 2.3095703 1.3286133 3.5869141 4.078125 3.5976563 7.7416992.0205078 7.3813457-5.1865234 16.3984356-11.6074219 20.100584-1.8769531 1.0844727-3.6992187 1.631836-5.3544922 1.631836zm10.131836-29.303709c-1.4775391 0-3.1308594.5024414-4.8525391 1.496582-6.1455097 3.5458984-11.1279316 12.1733379-11.1064472 19.2314434.0068359 3.2905273 1.1054688 5.7324219 3.0927734 6.8764648 2.0048828 1.1552734 4.7011738.8701172 7.5888691-.7988281 6.1445313-3.5424805 11.1279297-12.1694336 11.1074219-19.2314434-.0097656-3.2919922-1.109375-5.7348633-3.0957031-6.8779297-.8095703-.465332-1.7314453-.696289-2.734375-.696289z" fill="#666"/></g><g><path d="m32.6375504 32.3205986c-.9531269 0-1.8496113-.1801758-2.6660175-.5439434l-.0908203-.0400391c-.1318359-.0585938-.2324219-.1713867-.2753906-.3095703s-.0234375-.2880859.0517578-.4106445c2.1376953-3.4575195 4.9062519-6.2788086 7.7949238-7.9443359 2.9794922-1.7207031 5.8662109-2.0908203 8.1269531-1.0395508.1298828.0605469.2275391.1738281.2685547.3110352s.0205078.2851563-.0546875.4067383l-.0644531.1035156c-2.1191406 3.4033203-4.8642578 6.1875-7.7275391 7.8393555-1.8681642 1.0786132-3.701172 1.6274394-5.3632813 1.6274394zm-1.8105488-1.2827129c1.8750019.6279297 4.220705.2055664 6.67383-1.2109375 2.6113281-1.5063477 5.1279297-4.0166016 7.1230469-7.0991211-1.8779297-.6254883-4.2216797-.2050781-6.671875 1.2104492-2.6083985 1.503418-5.1220703 4.0117187-7.1250019 7.0996094zm6.8750019-7.5327149h.0097656z" fill="#666"/></g><g><path d="m32.6580582 51.7356377c-.8134785 0-1.5849628-.1298828-2.29883-.3930664-.1425781-.0527344-.2529297-.1665039-.3007813-.3100586-.0488281-.1435547-.0292969-.3012695.0527344-.4287109 2.0449238-3.1933594 4.6621113-5.8129883 7.3701191-7.3764648 2.7949219-1.6108398 5.5166016-1.9970703 7.6669922-1.0898438.1367188.0576172.2412109.1733398.2841797.3154297s.0205078.2963867-.0615234.4204102c-2.0615234 3.1264648-4.6699219 5.6977539-7.3447266 7.2397461-1.8593751 1.0737303-3.6992188 1.6225585-5.3681641 1.6225585zm-1.3388691-1.1479493c1.7890644.4179688 3.9667988-.046875 6.2070332-1.3408203 2.3916016-1.3779297 4.734375-3.6342773 6.6503906-6.3916016-1.7666016-.4951172-3.9365234-.0654297-6.1953125 1.2382813-2.4150391 1.394043-4.7626954 3.6860352-6.6621113 6.4941406z" fill="#666"/></g><g><path d="m35.9783707 50.6931572c-.5839844 0-1.1503906-.1538086-1.6855469-.4614258-2.2099609-1.2719727-3.5380878-4.9750977-3.5517597-9.9052734-.0214844-7.5 2.9267597-15.0869122 6.711916-17.272459 1.296875-.7485352 2.5869141-.796875 3.7304688-.1376953 2.2109375 1.2724609 3.5390625 4.9760742 3.5527344 9.9072247.0205078 7.3754883-2.9882813 15.1230469-6.7089844 17.2700195-.6923829.399414-1.381836.5996093-2.0488282.5996093zm1.9746093-26.7729473c-3.4453125 1.9892578-6.2324238 9.3476543-6.211916 16.4033184.0126953 4.5014648 1.1816425 7.9658203 3.0507832 9.0415039.828125.4770508 1.7490234.4321289 2.7353516-.1376953 3.4433594-1.9873047 6.2285156-9.3447266 6.2089844-16.4008789-.0126953-4.5024395-1.1816406-7.9672832-3.0507813-9.0434551-.8310547-.4775391-1.7490234-.4311524-2.7324219.137207z" fill="#666"/></g><g><path d="m38.156105 49.9573174c-.2753906 0-.4990234-.2231445-.5-.4985352l-.0751953-26.1577129c-.0009766-.2763672.2226563-.5004883.4990234-.5014648h.0009766c.2753906 0 .4990234.2226563.5.4985352l.0751953 26.1577129c.0009766.2763672-.2226563.5004883-.4990234.5014648z" fill="#666"/></g><g><path d="m26.3582516 44.2888603c-.1728516 0-.3408203-.0898438-.4326172-.25-.1386719-.2392578-.0566406-.5449219.1826172-.6831055l22.7607441-13.1367168c.2392578-.1381836.5449219-.0561523.6826172.1831055.1386719.2392578.0566406.5449219-.1826172.6831055l-22.7607441 13.1367168c-.0791016.0454101-.1650391.0668945-.25.0668945z" fill="#666"/></g></g></g></svg>