<svg id="Layer_1" height="512" viewBox="0 0 512 512" width="512" xmlns="http://www.w3.org/2000/svg" data-name="Layer 1"><path d="m256.084.12c141.384 0 256 114.587 256 255.963s-114.615 256.035-256 256.035-255.999-114.658-255.999-256.035 114.615-255.963 255.999-255.963zm-46.284 245.44h-7.36a55.069 55.069 0 0 0 11.925 23.069 116.948 116.948 0 0 1 -4.565-23.069zm0-26.085a117.006 117.006 0 0 1 4.565-23.069 55.069 55.069 0 0 0 -11.925 23.069zm92.574 0h7.354a55.088 55.088 0 0 0 -11.916-23.069 117.822 117.822 0 0 1 4.562 23.069zm0 26.085a117.822 117.822 0 0 1 -4.562 23.069 55.088 55.088 0 0 0 11.916-23.069zm-59.331 0h-6.994a79.344 79.344 0 0 0 6.994 24.915zm0-26.085v-24.915a79.344 79.344 0 0 0 -6.994 24.915zm26.085 0h6.994a79.466 79.466 0 0 0 -6.994-24.918zm0 26.085v24.918a79.466 79.466 0 0 0 6.994-24.918zm-13.042 68.253a81.294 81.294 0 1 0 -81.29-81.295 81.386 81.386 0 0 0 81.29 81.295zm132.914 36.275v-4.421h-265.828v4.421a16.717 16.717 0 0 0 16.693 16.7h232.446a16.716 16.716 0 0 0 16.689-16.7zm-253.917-203.416v171.691a1.25 1.25 0 0 0 1.219 1.22h239.567a1.25 1.25 0 0 0 1.219-1.22v-171.691a1.247 1.247 0 0 0 -1.219-1.219h-239.569a1.247 1.247 0 0 0 -1.219 1.219zm268.06 172.966c.018-.422.029-.844.029-1.275v-171.691a27.335 27.335 0 0 0 -27.3-27.3h-239.572a27.335 27.335 0 0 0 -27.3 27.3v171.691c0 .431.012.853.029 1.275a13.032 13.032 0 0 0 -11.943 12.987v17.463a42.829 42.829 0 0 0 42.78 42.782h232.445a42.826 42.826 0 0 0 42.772-42.782v-17.463a13.032 13.032 0 0 0 -11.94-12.987z" fill="#0a9e4d" fill-rule="evenodd"/></svg>