<svg id="Layer_1" enable-background="new 0 0 1024 1024" viewBox="0 0 1024 1024" xmlns="http://www.w3.org/2000/svg"><g id="XMLID_414_"><path id="XMLID_1439_" d="m915.7 725.1h-514.1c-1.8-8.2-4.3-16.2-7.4-23.8-10.5-26.3-27.8-49.2-49.8-66.5-1.9-1.5-3.8-2.9-5.7-4.3-26.1-18.7-58.1-29.7-92.7-29.7-87.9 0-159.2 71.1-159.4 159-.1 40.7 15.2 78 40.4 106.3 29.2 32.9 71.8 53.6 119.1 53.6 76 0 139.5-53.1 155.5-124.3h291.8v78.2c0 .9.7 1.7 1.7 1.7h69.7c.9 0 1.7-.8 1.7-1.7v-78.2h79v122.6c0 .9.7 1.7 1.7 1.7h68.7c.9 0 1.7-.8 1.7-1.7v-191.2c-.2-1-1-1.7-1.9-1.7zm-669.7-39.3c12.7 0 24.7 3.2 35.1 8.8 23.4 12.5 39.4 37.3 39.4 65.7 0 41.1-33.4 74.5-74.5 74.5-25.6 0-48.2-12.9-61.6-32.6-8.1-11.9-12.9-26.3-12.9-41.8.1-41.3 33.4-74.6 74.5-74.6z" fill="#3a3f51"/><path id="XMLID_444_" d="m246 834.7c-25.6 0-48.2-12.9-61.6-32.6-23.4-12.5-39.4-37.3-39.4-65.7 0-41.1 33.3-74.5 74.5-74.5 25.6 0 48.2 12.9 61.6 32.6 23.4 12.5 39.4 37.3 39.4 65.7 0 41.2-33.3 74.5-74.5 74.5zm155.6-109.6c-1.8-8.2-4.3-16.2-7.4-23.8-10.5-26.3-27.8-49.2-49.8-66.5-2-.9-4-2.3-5.7-4.3-26.1-18.7-58.1-29.7-92.7-29.7-87.9 0-159.2 71.1-159.4 159-.1 40.7 15.2 78 40.4 106.3 26.1 18.8 58.1 29.8 92.6 29.8 76 0 139.5-53.1 155.5-124.3h291.8v23.8h26.5v56.1h44.8c.9 0 1.7-.8 1.7-1.7v-78.2h79v23.8h26.5v100.4h43.8c.9 0 1.7-.8 1.7-1.7v-169z" fill="#545a6b"/><g fill="#3ce570"><path id="XMLID_447_" d="m927.4 614.4v-268.8c0-2.2-1.8-4-4-4h-89.2c-2.2 0-4 1.8-4 4v268.9h97.2z"/><path id="XMLID_448_" d="m569.5 614.4v-117.8c0-2.2-1.8-4-4-4h-89.2c-2.2 0-4 1.8-4 4v117.9h97.2z"/><path id="XMLID_449_" d="m748.4 614.4v-196.5c0-2.2-1.8-4-4-4h-89.2c-2.2 0-4 1.8-4 4v196.6h97.2z"/></g><path id="XMLID_461_" d="m91 104.3h310.9v202.1h-310.9z" fill="#ffe529"/><path id="XMLID_417_" d="m486.5 432.5-28.3-28.3 185.6-185.6 75.5 75.5 183.9-183.9 28.3 28.3-212.2 212.2-75.5-75.6z" fill="#22c64d"/><path id="XMLID_416_" d="m937.4 246.4h-40v-102.1h-102.1v-40h142.1z" fill="#22c64d"/><path id="XMLID_419_" d="m86.6 381.3h320.1v30h-320.1z" fill="#c4c4c4"/><path id="XMLID_421_" d="m86.6 467.5h199.3v30h-199.3z" fill="#c4c4c4"/></g></svg>