<svg id="Icons" height="512" viewBox="0 0 60 60" width="512" xmlns="http://www.w3.org/2000/svg"><path d="m9.125 59.47a.5.5 0 0 1 -.339-.867l2.547-2.351-3.776 2.179a.5.5 0 0 1 -.578-.811l3.736-3.244-3.435 1.982a.5.5 0 0 1 -.551-.832l1.321-.992-.77.445a.5.5 0 0 1 -.576-.813l3.862-3.312-3.286 1.896a.5.5 0 0 1 -.571-.816l3.528-2.954-2.957 1.708a.5.5 0 0 1 -.571-.817l3.5-2.922-2.929 1.69a.5.5 0 0 1 -.544-.837l.407-.3a.5.5 0 0 1 -.438-.867l3.317-2.835-2.742 1.579a.5.5 0 0 1 -.592-.8l2.079-1.948-1.487.858a.5.5 0 0 1 -.671-.7l.847-1.319a.508.508 0 0 1 -.573-.231.5.5 0 0 1 .183-.682l1.656-.957a.493.493 0 0 1 .611.088.5.5 0 0 1 .06.615l-.831 1.297 3.463-2a.5.5 0 0 1 .592.8l-2.078 1.948 3.655-2.111a.5.5 0 0 1 .575.813l-3.318 2.843 3.269-1.893a.5.5 0 0 1 .544.837l-.407.3a.5.5 0 0 1 .434.871l-3.5 2.92 2.926-1.689a.5.5 0 0 1 .571.817l-3.53 2.955 2.962-1.711a.5.5 0 0 1 .658.143.5.5 0 0 1 -.082.669l-3.862 3.313 3.286-1.9a.5.5 0 0 1 .551.832l-1.321.993.77-.445a.5.5 0 0 1 .578.811l-3.736 3.244 3.158-1.822a.5.5 0 0 1 .59.8l-2.548 2.352 1.958-1.13a.5.5 0 0 1 .627.761l-.972 1.117.322-.186a.5.5 0 1 1 .5.866l-2.914 1.682a.5.5 0 0 1 -.627-.76l.972-1.117-3.253 1.877a.5.5 0 0 1 -.25.07z" fill="#f7d53f"/><path d="m22.667 59.47a.5.5 0 0 1 -.348-.86l2.4-2.322-4.037 2.331a.5.5 0 0 1 -.562-.823l2.36-1.885-2.2 1.268a.5.5 0 0 1 -.577-.811l3.967-3.433-3.39 1.957a.5.5 0 0 1 -.568-.819l3.3-2.719-2.732 1.576a.5.5 0 0 1 -.566-.821l3.1-2.518-2.534 1.459a.5.5 0 0 1 -.553-.831l1.673-1.269-1.116.644a.5.5 0 0 1 -.555-.828l2.02-1.56-1.465.846a.5.5 0 0 1 -.565-.822l3-2.429-2.439 1.406a.5.5 0 0 1 -.564-.822l2.9-2.33-2.336 1.345a.5.5 0 0 1 -.559-.825l2.442-1.921-1.883 1.087a.5.5 0 0 1 -.557-.827l2.193-1.7-1.636.944a.5.5 0 0 1 -.571-.816l3.361-2.814-2.79 1.611a.5.5 0 0 1 -.583-.806l2.7-2.413-2.117 1.217a.5.5 0 0 1 -.576-.812l.391-.337a.5.5 0 0 1 -.458-.8l.56-.709a.5.5 0 0 1 -.131-.918l1.656-.956a.5.5 0 0 1 .642.742l-.327.414 2.008-1.161a.5.5 0 0 1 .576.811l-.234.2 1.7-.982a.5.5 0 0 1 .583.806l-2.7 2.414 3.579-2.066a.5.5 0 0 1 .571.817l-3.357 2.81 2.957-1.71a.5.5 0 0 1 .557.827l-2.2 1.708 1.64-.946a.5.5 0 0 1 .559.825l-2.442 1.921 1.883-1.087a.5.5 0 0 1 .564.822l-2.9 2.331 2.332-1.346a.5.5 0 0 1 .565.821l-3 2.43 2.442-1.406a.5.5 0 0 1 .555.828l-2.02 1.559 1.465-.845a.5.5 0 0 1 .553.831l-1.673 1.271 1.12-.644a.5.5 0 0 1 .566.82l-3.1 2.518 2.534-1.458a.5.5 0 0 1 .568.819l-3.3 2.72 2.731-1.577a.5.5 0 0 1 .577.811l-3.966 3.434 3.39-1.958a.5.5 0 0 1 .562.824l-2.356 1.882 1.794-1.035a.5.5 0 0 1 .6.792l-2.4 2.324 1.8-1.039a.5.5 0 0 1 .65.733l-.829 1.1.038-.022a.5.5 0 1 1 .5.865l-2.168 1.247a.5.5 0 0 1 -.649-.733l.828-1.1-3.173 1.833a.5.5 0 0 1 -.25.07z" fill="#39b54a"/><path d="m37.379 59.47a.5.5 0 0 1 -.353-.855l.872-.867-2.84 1.64a.5.5 0 0 1 -.568-.82l1.459-1.2-2.234 1.29a.5.5 0 0 1 -.57-.816l3.046-2.542-2.911 1.68a.5.5 0 0 1 -.554-.829l1.9-1.456-1.343.775a.5.5 0 0 1 -.573-.815l3.68-3.113-3.11 1.794a.5.5 0 0 1 -.557-.827l2.225-1.733-1.668.963a.5.5 0 0 1 -.555-.828l2.013-1.553-1.458.842a.5.5 0 0 1 -.553-.83l1.756-1.341-1.2.7a.5.5 0 0 1 -.573-.814l3.71-3.147-3.137 1.81a.5.5 0 0 1 -.545-.836l.479-.35a.5.5 0 0 1 -.5-.856l2.789-2.236-2.226 1.284a.5.5 0 0 1 -.577-.811l3.963-3.429-3.386 1.956a.5.5 0 0 1 -.576-.812l3.9-3.355-3.324 1.917a.5.5 0 0 1 -.558-.826l2.342-1.833-1.784 1.029a.5.5 0 0 1 -.567-.819l3.239-2.661-2.672 1.542a.5.5 0 0 1 -.577-.81l3.997-3.465-3.42 1.973a.5.5 0 0 1 -.576-.812l3.228-2.784-2.652 1.53a.5.5 0 0 1 -.581-.807l1.53-1.352-.949.548a.5.5 0 0 1 -.671-.7l.853-1.334a.5.5 0 0 1 -.579-.229.5.5 0 0 1 .182-.682l1.657-.956a.5.5 0 0 1 .671.7l-.838 1.311 3.492-2.013a.5.5 0 0 1 .581.807l-1.528 1.349 2.922-1.687a.5.5 0 0 1 .576.812l-3.228 2.783 3.35-1.934a.5.5 0 0 1 .577.811l-3.997 3.465 3.417-1.973a.5.5 0 0 1 .567.82l-3.239 2.66 2.672-1.542a.5.5 0 0 1 .558.826l-2.339 1.833 1.784-1.03a.5.5 0 0 1 .576.811l-3.9 3.354 3.321-1.917a.5.5 0 0 1 .577.81l-3.963 3.43 3.386-1.955a.5.5 0 0 1 .562.823l-2.788 2.231 2.229-1.287a.5.5 0 0 1 .545.836l-.482.353a.5.5 0 0 1 .51.845l-3.71 3.147 3.137-1.811a.5.5 0 0 1 .553.831l-1.756 1.34 1.2-.694a.5.5 0 0 1 .555.828l-2.013 1.553 1.458-.841a.5.5 0 0 1 .557.827l-2.222 1.736 1.668-.963a.5.5 0 0 1 .573.814l-3.68 3.113 3.107-1.793a.5.5 0 0 1 .554.83l-1.9 1.456 1.343-.775a.5.5 0 0 1 .57.817l-3.047 2.543 2.477-1.43a.5.5 0 0 1 .567.819l-1.456 1.2.889-.513a.5.5 0 0 1 .6.787l-.873.868.271-.155a.5.5 0 0 1 .5.865l-3.586 2.067a.49.49 0 0 1 -.25.07z" fill="#39bcea"/><path d="m49.758 59.47a.5.5 0 0 1 -.368-.838l2.016-2.2-4.387 2.533a.5.5 0 0 1 -.563-.823l2.057-1.647-2.2 1.273a.5.5 0 0 1 -.558-.828l2.245-1.754-1.719.992a.5.5 0 0 1 -.566-.82l3.164-2.587-2.6 1.5a.5.5 0 0 1 -.574-.814l3.753-3.193-3.178 1.836a.5.5 0 0 1 -.575-.813l3.808-3.254-3.233 1.867a.5.5 0 0 1 -.547-.835l.767-.565-.222.127a.5.5 0 0 1 -.545-.837l.45-.327a.5.5 0 0 1 -.475-.859l3.472-2.9-2.9 1.675a.5.5 0 0 1 -.568-.818l3.345-2.761-2.777 1.6a.5.5 0 0 1 -.552-.831l1.629-1.238-1.077.622a.5.5 0 0 1 -.549-.833l1.15-.859-.6.346a.5.5 0 0 1 -.554-.829l1.866-1.43-1.313.752a.5.5 0 0 1 -.564-.822l2.984-2.406-2.42 1.394a.5.5 0 0 1 -.554-.829l1.974-1.521-1.42.819a.5.5 0 0 1 -.559-.825l2.484-1.958-1.925 1.111a.5.5 0 0 1 -.562-.823l2.765-2.21-2.203 1.27a.5.5 0 0 1 -.571-.816l3.538-2.965-2.967 1.715a.5.5 0 0 1 -.573-.814l3.684-3.12-3.111 1.8a.5.5 0 0 1 -.577-.811l3.976-3.448-3.399 1.959a.5.5 0 0 1 -.565-.821l2.353-1.913-1.788 1.034a.5.5 0 0 1 -.6-.793l1.864-1.795-1.268.731a.5.5 0 0 1 -.66-.719l.725-1.037a.486.486 0 0 1 -.462-.249.5.5 0 0 1 .182-.682l1.657-.956a.5.5 0 0 1 .66.718l-.653.934 2.875-1.652a.5.5 0 0 1 .6.793l-1.863 1.794 3.673-2.127a.5.5 0 0 1 .565.82l-2.355 1.92 2.48-1.439a.5.5 0 0 1 .577.811l-3.975 3.447 3.415-1.971a.5.5 0 0 1 .573.815l-3.681 3.117 3.111-1.795a.5.5 0 0 1 .571.816l-3.538 2.964 2.967-1.712a.5.5 0 0 1 .562.823l-2.765 2.21 2.2-1.272a.5.5 0 0 1 .559.825l-2.476 1.961 1.925-1.111a.5.5 0 0 1 .554.829l-1.979 1.518 1.42-.82a.5.5 0 0 1 .564.822l-2.979 2.409 2.415-1.394a.5.5 0 0 1 .554.829l-1.861 1.427 1.307-.754a.5.5 0 0 1 .549.833l-1.156.864.607-.35a.5.5 0 0 1 .552.831l-1.626 1.234 1.074-.619a.5.5 0 0 1 .568.819l-3.345 2.765 2.777-1.6a.5.5 0 0 1 .57.816l-3.475 2.9 2.905-1.676a.5.5 0 0 1 .545.837l-.45.327a.5.5 0 0 1 .452.878l-.763.562.216-.124a.5.5 0 0 1 .575.813l-3.81 3.256 3.235-1.868a.5.5 0 0 1 .574.814l-3.753 3.193 3.179-1.835a.5.5 0 0 1 .566.82l-3.164 2.587 2.6-1.5a.5.5 0 0 1 .557.827l-2.251 1.751 1.692-.976a.5.5 0 0 1 .562.823l-2.054 1.643 1.492-.862a.5.5 0 0 1 .618.771l-2.017 2.2 1.4-.808a.5.5 0 0 1 .64.746l-.543.679a.5.5 0 0 1 .117.914l-1.655.956a.5.5 0 0 1 -.64-.745l.288-.36-1.92 1.109a.49.49 0 0 1 -.25.07z" fill="#e84646"/><g fill="#39b54a"><path d="m24.773 21.942a.5.5 0 0 1 -.294-.9l3.429-2.488a.5.5 0 0 1 -.107-.836l2.862-2.395a.5.5 0 0 1 .2-.644l1.871-1.079a.5.5 0 0 1 .572.816l-.446.372 1.188-.685a.5.5 0 0 1 .544.837l-1.754 1.272 2.129-1.229a.5.5 0 0 1 .5.866l-10.444 6.03a.494.494 0 0 1 -.25.063z"/><path d="m8.019 33.469a.5.5 0 0 1 -.329-.878l2.032-1.761-3.055 1.764a.5.5 0 0 1 -.545-.836l4.416-3.228-4.192 2.42a.5.5 0 0 1 -.53-.846l3.985-2.7-.716.413a.5.5 0 0 1 -.533-.844l3.282-2.257a.5.5 0 0 1 -.184-.852l5.05-4.479a.175.175 0 0 1 -.018-.029.5.5 0 0 1 .183-.682l1.87-1.074a.5.5 0 0 1 .582.806l-3.317 2.939 4.636-2.677a.5.5 0 0 1 .533.845l-1.606 1.1 1.924-1.11a.5.5 0 0 1 .531.847l-3.986 2.7.056-.032a.5.5 0 0 1 .545.836l-4.7 3.432a.5.5 0 0 1 .394.874l-4.006 3.472a.5.5 0 0 1 -.183.682l-1.87 1.086a.5.5 0 0 1 -.249.069z"/><path d="m35.4 21.376a.5.5 0 0 1 -.3-.9l.52-.4-.951.549a.5.5 0 0 1 -.547-.835l4.847-3.571-5.545 3.2a.5.5 0 1 1 -.5-.865l13.3-7.679a.5.5 0 0 1 .547.835l-4.978 3.668a.5.5 0 0 1 .431.881l-2.89 2.222a.487.487 0 0 1 .063.086.5.5 0 0 1 -.183.683l-3.561 2.056a.5.5 0 0 1 -.253.07z"/><path d="m23.579 27.42a.5.5 0 0 1 -.312-.892l1.071-.853-1.664.961a.5.5 0 0 1 -.548-.834l6.605-4.909-7.494 4.326a.5.5 0 0 1 -.6-.788l.077-.077-.223.128a.5.5 0 0 1 -.64-.745l.839-1.049-1.273.736a.5.5 0 1 1 -.5-.865l3.574-2.065a.5.5 0 0 1 .64.745l-.84 1.05 1.275-.735a.5.5 0 0 1 .647.129.5.5 0 0 1 -.045.659l-.077.075 11.627-6.712a.5.5 0 0 1 .548.834l-6.606 4.909a.5.5 0 0 1 .548.833l-3.216 2.561a.472.472 0 0 1 .054.076.5.5 0 0 1 -.183.683l-3.034 1.752a.5.5 0 0 1 -.25.067z"/><path d="m38.677 14.039a.5.5 0 0 1 -.279-.915l3.711-2.491a.549.549 0 0 1 -.442-.228.5.5 0 0 1 .124-.676l4.409-3.213a.5.5 0 0 1 -.34-.86l2.24-2.176-3.25 1.876a.5.5 0 0 1 -.623-.1.5.5 0 0 1 -.031-.63l1.45-1.972-2.286 1.32a.5.5 0 0 1 -.651-.731l.562-.758a.5.5 0 0 1 -.205-.93l1.661-.955a.5.5 0 0 1 .651.73l-.425.572 2.261-1.302a.5.5 0 0 1 .653.728l-1.45 1.972 4.683-2.7a.5.5 0 0 1 .6.792l-2.248 2.172 3.838-2.215a.5.5 0 0 1 .545.837l-3.867 2.819 3.752-2.166a.5.5 0 0 1 .528.848l-3.021 2.029 2.493-1.44a.5.5 0 0 1 .616.773l-1.679 1.808 1.063-.613a.5.5 0 0 1 .62.769l-1.609 1.773.989-.57a.5.5 0 0 1 .634.752l-.864 1.039.2-.117a.5.5 0 1 1 .5.865l-2.63 1.518a.5.5 0 0 1 -.634-.752l.865-1.04-1.33.768a.5.5 0 0 1 -.62-.769l1.608-1.772-1.172.676a.5.5 0 0 1 -.616-.773l1.682-1.811-12.416 7.172a.494.494 0 0 1 -.25.067z"/></g><path d="m11.459 59.434c7.816.8 3.1-12.663 4.269-17.468.428-3.526-9.617-3.339-9.446-.008-.072 5.064.029 10.179-.007 15.236.168 2.697 3.302 2.24 5.184 2.24zm-2.563-19c3.3-.17 6.195-.486 5.377 3.888-.665 3.25 1.529 12.891-1.213 14.244-7.76 1.507-4.818-5.14-5.334-10.093.517-2.295-1.267-6.932 1.174-8.039z" fill="#262626"/><path d="m28.724 34.882c-.173-2.886-3.83-2.194-5.81-2.192-5.316-.2-3.264 6.09-3.639 9.465q0 7.519 0 15.039c.229 2.848 4.276 2.187 6.258 2.116 1.36-.049 2.928-.666 3.164-2.18.046-7.406.052-14.84.027-22.248zm-1.448 22.279c-.139 1.883-1.555 1.529-2.935 1.529-1.546 0-3.447.218-3.617-1.884.029-7.324-.042-14.659 0-21.976.137-1.739 1.265-1.52 2.561-1.52 1.056 0 2.623-.285 3.448.528 1.467 7.377.114 15.67.543 23.323z" fill="#262626"/><path d="m35.99 59.433c4.36.637 6.447-1.076 5.736-5.566-.019-8.626.029-17.255 0-25.881-.182-3.327-4.351-2.353-6.633-2.411-5.4 1.238-1.862 9.466-2.82 13.539v18.08c.173 2.115 2.058 2.239 3.717 2.239zm-2.264-31.056c-.2-2.864 3.508-1.87 5.309-1.868 1.762.479 1.239 3.411 1.239 4.786-.9 4.087 2.142 28.029-1.819 27.273-1.667 0-4.531.6-4.729-1.753-.001-9.478-.085-18.96 0-28.438z" fill="#262626"/><path d="m54.724 27.5c.426-7.717.456-10.724-8.415-8.255-1.571 1.139-1.033 4.062-1.033 5.746v24.067c.216 4.017-1.966 11.591 4.561 10.328 2.53.322 5.552-.609 4.887-3.767zm-2.514 31.114c-1.818-.06-5.2.812-5.486-1.808v-34.956c-.686-3.294 3.1-2.473 5.152-2.45 2.009.419 1.4 4.041 1.4 5.506v31.151c0 .943.16 2.287-1.066 2.557z" fill="#262626"/><path d="m54.724 6.556c1.3-7.5-3.883-5.792-9.152-5.9-4.689.066-4.083 5.6.6 4.713l-10.016 10.002c-4.4-5.149-8.591 3.594-12 6.007-5.011-7.448-9-1.042-13.25 3.259-1.737 2.163-4.726 3.731-5.624 6.387 2.239 7.493 10.636-5.446 13.564-7.395 5.231 8 9.522.067 14-4.005 4.8 5.966 12.166-7.795 16.4-10.407.177 5.662 7.034 3.357 5.478-2.661zm-1.448 3.609c-1.367 3.5-3.206-.54-2.551-2.539 0-.454-1.257.082-1.39.215l-11.829 11.829c-1.1 1.986-2.946-.033-3.827-1.105-3.175-.587-7.994 10.512-10.818 7.173-1.415-.85-2.71-4.2-4.524-2.888-2.237 1.25-9.877 12.44-11.429 8.786-.261-3.691 8.85-9.583 11.29-13.009 2.685-1.062 3.869 5.187 6.468 3.522 2.541-2.384 4.862-5.106 7.435-7.425 1.262-.758 2.412.9 3.222 1.711 4.783-1.978 8.262-8.059 12.523-11.455.247-.249-.222-.329-.367-.329-1.23 0-3 .335-3.591-1.071-.932-3.642 4.4-1.831 6.426-2.231 4.798-.57 2.442 5.915 2.962 8.816z" fill="#262626"/></svg>