<svg height="512" viewBox="0 0 60 60" width="512" xmlns="http://www.w3.org/2000/svg"><g id="Page-1" fill="none" fill-rule="evenodd"><g id="004---Home-Connectivity" fill-rule="nonzero" transform="translate(-1)"><path id="Shape" d="m54 27c.0041123 2.0343894-.234235 4.06202-.71 6.04l-.29.32-8.32-7.36c-.381804-.360148-.978196-.360148-1.36 0l-1.72 1.52-.13-.14h-.01c-.3780718.0539391-.7632985.0266664-1.13-.08-.7764049-.212951-1.3312053-.8964007-1.38-1.7.01-.99.96-1.67 1.72-2.31 2.7301159-2.382662 3.8897359-6.0973114 3-9.61-.5-1.83-1.54-3.48-1.99-5.32-.2934565-1.11455796-.2481981-2.29127491.13-3.38 7.5877231 4.74770951 12.1944764 13.0693426 12.19 22.02z" fill="#60a917"/><path id="Shape" d="m40.67 23.29c2.7301159-2.382662 3.8897359-6.0973114 3-9.61-.5-1.83-1.54-3.48-1.99-5.32-.2934565-1.11455796-.2481981-2.29127491.13-3.38-4.1317073-2.61178754-8.9220263-3.99234292-13.81-3.98-.54 0-1.07.02-1.6.05-.8290412 2.57107162-1.8831211 5.06405437-3.15 7.45-.4035889.97279165-1.1362981 1.7727544-2.07 2.26-1.48.59-3.25-.41-4.71.22-.8317483.4062013-1.4110843 1.1948458-1.55 2.11-.1336303.9058938-.0231654 1.831037.32 2.68.6258249 1.7004716 1.7475317 3.1740182 3.22 4.23 1.63 1.16 3.75 1.87 4.66 3.65s.25 3.98-.91 5.6-2.77 2.85-4.04 4.39c-.815257 1.0104105-1.5006028 2.119058-2.04 3.3-.45.97-1.12 2.18-2.18 2.05-.7449105-.1835402-1.2813623-.8337848-1.32-1.6-.0224134-.7486467.0447294-1.4972891.2-2.23.2250966-1.8974704-.2867795-3.8089516-1.43-5.34-1.18-1.57-3.09-2.92-3.06-4.89.17847904-1.2114742.70675623-2.3444897 1.52-3.26.8158533-.9254561 1.1978633-2.1551645 1.05-3.38-.4415052-1.1055717-1.28955713-2.0001412-2.37-2.5-1-.62-2-1.24-3-1.87-2.3291939 3.964673-3.55171334 8.4817787-3.54 13.08-.00248598 9.1496346 4.80576099 17.6267336 12.66 22.32h.01c.4106382-.2134393.8672157-.3232926 1.33-.32 1.4148013-.0038983 2.6381363.9856252 2.93 2.37 1.3358332.5068243 2.7147896.8917271 4.12 1.15-.031975-.1715188-.0487069-.345531-.05-.52 0-1.6568542 1.3431458-2.9999999 3-2.9999999s3 1.3431457 3 2.9999999c.0005369.3340486-.0569857.6656491-.17.98 1.4007179-.0394906 2.7956335-.1967113 4.17-.47v-11.51h-4c-.4098334-.0014102-.7773196-.2527467-.9272453-.6341753-.1499256-.3814285-.0519373-.8157262.2472453-1.0958247l13.28-11.75-.13-.14h-.01c-.3780718.0539391-.7632985.0266664-1.13-.08-.7764049-.212951-1.3312053-.8964007-1.38-1.7.01-.99.96-1.67 1.72-2.31zm-4.33-4.72c-.4424162.2865803-1.0098998.294354-1.46.02-.46-.23-.85-.58-1.33-.77-.6523099-.1595989-1.3189766-.2534012-1.99-.28-.6896331-.0303564-1.2858996-.4905621-1.49-1.15-.11-.67.44-1.27.95-1.74 1.15-1.07 2.39-2.67 3.77-3.42 1.78-.97 1.53 1.35 1.3 2.37-.1896778.8265441-.1411342 1.6899272.14 2.49.182237.4032796.3294463.8214879.44 1.25.1158161.4395098-.0097386.9074865-.33 1.23z" fill="#02a9f4"/><g fill="#0377bc"><path id="Shape" d="m24.5 49.415c-.8811351-.5221398-1.9691718-.5532542-2.8787056-.0823219s-1.5121139 1.377403-1.5942944 2.3983219c.988939.330137 1.9988619.5937259 3.023.789-.2315529-1.2387303.3515466-2.4873676 1.45-3.105z"/><path id="Shape" d="m40.67 23.29c2.7301159-2.382662 3.8897359-6.0973114 3-9.61-.5-1.83-1.54-3.48-1.99-5.32-.2934565-1.11455796-.2481981-2.29127491.13-3.38-4.1317073-2.61178754-8.9220263-3.99234292-13.81-3.98-.539 0-1.069.02-1.6.05 4.4055531.22235553 8.6795457 1.57584393 12.41 3.93-.3781981 1.08872509-.4234565 2.26544204-.13 3.38.45 1.84 1.49 3.49 1.99 5.32.8897359 3.5126886-.2698841 7.227338-3 9.61-.76.64-1.71 1.32-1.72 2.31.0487947.8035993.6035951 1.487049 1.38 1.7.3667015.1066664.7519282.1339391 1.13.08h.01l.13.14-13.28 11.75c-.2991826.2800985-.3971709.7143962-.2472453 1.0958247.1499257.3814286.5174119.6327651.9272453.6341753h3c-.4098334-.0014102-.7773196-.2527467-.9272453-.6341753-.1499256-.3814285-.0519373-.8157262.2472453-1.0958247l13.28-11.75-.13-.14h-.01c-.3780718.0539391-.7632985.0266664-1.13-.08-.7764049-.212951-1.3312053-.8964007-1.38-1.7.01-.99.96-1.67 1.72-2.31z"/><path id="Shape" d="m30 52.51c-.359.071-.727.114-1.09.17-.0212321.1013707-.0479379.2015173-.08.3 1.4007179-.0394906 2.7956335-.1967113 4.17-.47v-11.51h-3z"/></g><path id="Shape" d="m23.12 23.65c.92 1.77.25 3.98-.91 5.6s-2.77 2.85-4.04 4.39c-.815257 1.0104105-1.5006028 2.119058-2.04 3.3-.45.97-1.12 2.18-2.18 2.05-.7449105-.1835402-1.2813623-.8337848-1.32-1.6-.0224134-.7486467.0447294-1.4972891.2-2.23.2250966-1.8974704-.2867795-3.8089516-1.43-5.34-1.18-1.57-3.09-2.92-3.06-4.89.17847904-1.2114742.70675623-2.3444897 1.52-3.26.8158533-.9254561 1.1978633-2.1551645 1.05-3.38-.4415052-1.1055717-1.28955713-2.0001412-2.37-2.5-1-.62-2-1.24-3-1.87 4.35835234-7.51354455 12.1897486-12.34528329 20.86-12.87-.8290412 2.57107162-1.8831211 5.06405437-3.15 7.45-.4035889.97279165-1.1362981 1.7727544-2.07 2.26-1.48.59-3.25-.41-4.71.22-.8317483.4062013-1.4110843 1.1948458-1.55 2.11-.1336303.9058938-.0231654 1.831037.32 2.68.6258249 1.7004716 1.7475317 3.1740182 3.22 4.23 1.63 1.16 3.75 1.87 4.66 3.65z" fill="#60a917"/><path id="Shape" d="m36.34 18.57c-.4424162.2865803-1.0098998.294354-1.46.02-.46-.23-.85-.58-1.33-.77-.6523099-.1595989-1.3189766-.2534012-1.99-.28-.6896331-.0303564-1.2858996-.4905621-1.49-1.15-.11-.67.44-1.27.95-1.74 1.15-1.07 2.39-2.67 3.77-3.42 1.78-.97 1.53 1.35 1.3 2.37-.1896778.8265441-.1411342 1.6899272.14 2.49.182237.4032796.3294463.8214879.44 1.25.1158161.4395098-.0097386.9074865-.33 1.23z" fill="#60a917"/><path id="Shape" d="m59 41h-4v18h-22v-18h-4c-.4098334-.0014102-.7773196-.2527467-.9272453-.6341753-.1499256-.3814285-.0519373-.8157262.2472453-1.0958247l13.28-11.75 1.72-1.52c.381804-.360148.978196-.360148 1.36 0l8.32 7.36 6.68 5.91c.2991826.2800985.3971709.7143962.2472453 1.0958247-.1499257.3814286-.5174119.6327651-.9272453.6341753z" fill="#ff9801"/><path id="Shape" d="m44 46c2.209139 0 4 1.790861 4 4v9h-8v-9c0-2.209139 1.790861-4 4-4z" fill="#a0522d"/><path id="Shape" d="m44 46c-.5146843.0021695-1.0240724.1040471-1.5.3 1.5082666.61012 2.4967043 2.0730078 2.5 3.7v9h3v-9c0-2.209139-1.790861-4-4-4z" fill="#783e22"/><circle id="Oval" cx="6" cy="52" fill="#ffdc00" r="3"/><path id="Shape" d="m19 52c.0020217 1.4793011-1.0745864 2.7392652-2.5360956 2.9680155-1.4615092.2287502-2.8716096-.642003-3.3216819-2.0511768-.4500722-1.4091739.1942456-2.9360822 1.5177775-3.5968387 0 0 0-.01.01 0 .4106382-.2134393.8672157-.3232926 1.33-.32 1.4148013-.0038983 2.6381363.9856252 2.93 2.37.0479887.2065231.0714839.41798.07.63z" fill="#ffdc00"/><path id="Shape" d="m29 52c.0005369.3340486-.0569857.6656491-.17.98-.5164686 1.4645382-2.0690092 2.2890254-3.5715735 1.8967082-1.5025642-.3923172-2.4538671-1.870554-2.1884441-3.4006398.2654231-1.5300859 1.6590218-2.601554 3.2059324-2.4648807 1.5469106.1366734 2.7310534 1.4358913 2.7240852 2.9888123z" fill="#ffdc00"/><path id="Rectangle-path" d="m52 41h3v18h-3z" fill="#f57c00"/><path id="Shape" d="m41.81 4.98c-.2227654.62301303-.3245868 1.28281533-.3 1.944 7.1888883 5.8935099 10.6748931 15.1830377 9.138 24.351l2.352 2.085.29-.32c.475765-1.97798.7141123-4.0056106.71-6.04.0044764-8.9506574-4.6022769-17.27229049-12.19-22.02z" fill="#549414"/><path id="Shape" d="m12.972 49.417c-.6233294.7165429-.9683053 1.6332844-.972 2.583.0141403 2.05291 1.5801165 3.7618108 3.6239892 3.9547457 2.0438726.192935 3.9019673-1.1927445 4.3000108-3.2067457.77.242 1.546.448 2.33.613.5248333 1.4739073 1.8662042 2.5022656 3.425833 2.6264055s3.0467855-.6790795 3.798167-2.0514055c.844-.044 1.684-.134 2.522-.26v5.324c0 .5522847.4477153 1 1 1h22c.5522847 0 1-.4477153 1-1v-17h3c.8261631.0002838 1.5674749-.5074446 1.8657708-1.2778763.298296-.7704318.0921769-1.6449866-.5187708-2.2011237l-6.059-5.36c.4759179-2.019025.7148637-4.0866443.712-6.161-.0165334-14.9048345-12.0951655-26.98346661-27-27-.56 0-1.114.023-1.665.056h-.044c-8.9635706.57536498-17.05527826 5.56733135-21.591 13.32l-.01.011c0 .006 0 .013-.008.019-7.19627723 12.3060235-3.56497554 28.08768 8.286 36.011zm3.028 4.583c-.9278765-.0109009-1.7263858-.6585971-1.9284918-1.5642608s.2452813-1.8313916 1.0804918-2.2357392h.007c.2621361-.1279208.5493413-.1962217.841-.2 1.1045695 0 2 .8954305 2 2s-.8954305 2-2 2zm10 0c-1.1045695 0-2-.8954305-2-2s.8954305-2 2-2 2 .8954305 2 2-.8954305 2-2 2zm15 4v-8c0-1.6568542 1.3431458-3 3-3s3 1.3431458 3 3v8zm14-18c-.5522847 0-1 .4477153-1 1v17h-5v-8c0-2.7614237-2.2385763-5-5-5s-5 2.2385763-5 5v8h-5v-17c0-.5522847-.4477153-1-1-1l-4.02.02 15-13.271h.006c.013 0 .032.007.036 0l14.978 13.251zm-2-13c-.0005646 1.5559208-.1468703 3.1083684-.437 4.637l-7.195-6.366c-.764524-.7173022-1.953186-.7225386-2.724-.012l-1.28 1.133c-.012 0-.023 0-.035 0-.2358676.0350964-.4764971.0197588-.706-.045-.3499027-.0897882-.6138316-.3776394-.673-.734 0-.429.6-.924 1.13-1.36l.237-.2c3.0335473-2.629208 4.3185428-6.7483197 3.318-10.636-.2728406-.9168355-.6113837-1.8128217-1.013-2.681-.3967939-.84239559-.7216186-1.71684634-.971-2.614-.1188419-.48127699-.1716595-.97648407-.157-1.472 6.5886567 4.6836364 10.503303 12.2662608 10.506 20.35zm-12.36-21.556c-.2162321 1.04365682-.1926388 2.12279092.069 3.156.2738835 1.00841605.6349091 1.9911151 1.079 2.937.3606813.7783251.6654529 1.581358.912 2.403.7800754 3.1374076-.2530324 6.448057-2.679 8.585l-.22.184c-1.0192487.6319896-1.7003643 1.6887285-1.855 2.878.02891 1.0407271.6290892 1.98079 1.561 2.445l-11.873 10.509c-.598409.5610688-.7935408 1.4306552-.4922387 2.1936156.3013021.7629605 1.0379394 1.2645803 1.8582387 1.2653844h3v9.654c-.6666667.1086667-1.3366667.1896667-2.01.243-.0462961-2.0468222-1.633899-3.7266348-3.6748526-3.8882919-2.0409536-.1616572-3.8732061 1.24728-4.2411474 3.2612919-.7941933-.1875474-1.5776694-.4178834-2.347-.69-.588143-1.5488554-2.0702446-2.574834-3.727-2.58-.4124086.0053385-.8214093.07553-1.212.208-11.14458463-6.9214841-15.02816429-21.2895928-8.888-32.883.704.4393333 1.40733333.8776667 2.11 1.315.869.539 1.735 1.13 1.928 1.9.04567236.9384009-.27731416 1.857477-.9 2.561l-.137.2c-.87272494 1.01978-1.41684885 2.2795262-1.561 3.614-.028 1.833 1.185 3.162 2.26 4.335.367.4.715.783 1.007 1.172.9903631 1.3235485 1.4326676 2.9778031 1.235 4.619-.023.2-.055.39-.086.584-.1278444.6200003-.1662341 1.2551148-.114 1.886.0865067 1.2253363.985814 2.2395186 2.192 2.472.0955644.0115247.1917434.017202.288.017 1.7 0 2.577-1.9 2.919-2.638.5030516-1.1034018 1.1412755-2.1400118 1.9-3.086.529-.64 1.117-1.225 1.74-1.845.8490229-.8025612 1.6322081-1.6720238 2.342-2.6 1.243-1.735 2.154-4.393.987-6.637-.8421064-1.366572-2.0715332-2.4518927-3.532-3.118-.513-.3-1-.578-1.437-.891-1.3059142-.9390153-2.3017695-2.2465106-2.86-3.755-.2827143-.6846779-.3783129-1.4322106-.277-2.166.081985-.5839307.4400245-1.0927041.962-1.367.6074033-.1661646 1.246129-.1819525 1.861-.046.9365967.1879839 1.9057359.1328996 2.815-.16 1.1638224-.5654543 2.0840262-1.5325384 2.591-2.723 1.1808058-2.23125515 2.1797115-4.55412061 2.987-6.946.293-.01.585-.022.88-.022 4.4456208-.00387038 8.8108026 1.18550351 12.64 3.444zm-15.7-3.251c-.7181957 2.0014636-1.5776932 3.94936821-2.572 5.829-.3051785.75858825-.8530454 1.39471862-1.558 1.809-.6036034.15474434-1.2349592.16672778-1.844.035-.9648893-.19798057-1.9655176-.12882865-2.894.2-1.135025.5351138-1.9333477 1.5953043-2.134 2.834-.1700411 1.083829-.044638 2.1934566.363 3.212.6979215 1.888348 1.9442454 3.5250405 3.579 4.7.516.368 1.064.686 1.6.994 1.1155137.4949785 2.0706966 1.2915415 2.758 2.3.752 1.448.061 3.3-.832 4.551-.6466294.8388293-1.3588694 1.6249684-2.13 2.351-.63.627-1.282 1.275-1.875 1.993-.8679373 1.0762043-1.5979309 2.2566908-2.173 3.514-.618 1.331-.991 1.5-1.152 1.478s-.4-.344-.448-.728c-.0258531-.4444809.0077776-.8904237.1-1.326.036-.221.071-.443.1-.662.2556744-2.1534882-.3272883-4.3227681-1.628-6.058-.348-.463-.744-.9-1.127-1.317-.9-.986-1.748-1.917-1.733-2.947.15759567-.933254.57327789-1.8037618 1.2-2.513l.14-.2c.9851395-1.1624151 1.4223331-2.6925928 1.2-4.2-.5028684-1.3578776-1.5106121-2.4691541-2.813-3.102-.718-.4453333-1.436-.892-2.154-1.34 4.0070825-6.30240407 10.6196399-10.48572404 18.031-11.407z" fill="#000"/><path id="Shape" d="m31.406 18.533c.265.041.536.06.806.077.3308742.0020286.6597985.0508454.977.145.2043035.091935.3992148.2034565.582.333.2123237.1443274.433047.2758933.661.394.3813324.1964091.8030935.3015071 1.232.307.4784763.0081266.9442409-.1542176 1.314-.458.6008363-.551936.8599457-1.3834523.679-2.179-.0761644-.3581821-.1904834-.7071735-.341-1.041-.048-.12-.1-.239-.142-.36-.2165161-.6193063-.2549728-1.2869287-.111-1.927.223-.98.445-2.739-.57-3.507-.6612407-.45075914-1.5345634-.43674433-2.181.035-1.0993664.6873967-2.0888186 1.5366062-2.935 2.519-.356.372-.7.735-1.04 1.05-.8293089.6131671-1.2993607 1.5986265-1.254 2.629.2584472 1.0972181 1.1988177 1.8999536 2.323 1.983zm.292-3.147c.366-.34.74-.731 1.125-1.132.705611-.8201989 1.5217448-1.5383967 2.425-2.134.0097353.4244033-.0356436.8482758-.135 1.261-.2265859 1.0103368-.1649116 2.0639978.178 3.041.054.152.115.3.177.452.0947091.2074059.1693818.4233875.223.645.028.149.011.271.027.265-.1362756.0082158-.2720302-.023032-.391-.09-.1591932-.0850503-.3137452-.1785159-.463-.28-.2977862-.2080402-.6169272-.3837018-.952-.524-.5069041-.1741377-1.0380899-.2672808-1.574-.276-.21-.013-.42-.025-.626-.057-.2538154-.0105425-.4913547-.1278593-.654-.323-.009-.052.013-.266.642-.848z" fill="#000"/><path id="Shape" d="m2 52c0 2.209139 1.790861 4 4 4s4-1.790861 4-4-1.790861-4-4-4-4 1.790861-4 4zm6 0c0 1.1045695-.8954305 2-2 2s-2-.8954305-2-2 .8954305-2 2-2 2 .8954305 2 2z" fill="#000"/></g></g></svg>