<svg id="Layer_1" enable-background="new 0 0 512 512" viewBox="0 0 512 512" xmlns="http://www.w3.org/2000/svg"><g clip-rule="evenodd" fill-rule="evenodd"><g><g><path d="m42.27 9h427.46c18.299 0 33.27 14.971 33.27 33.27v427.46c0 18.298-14.971 33.27-33.27 33.27h-427.46c-18.299 0-33.27-14.971-33.27-33.27v-427.46c0-18.299 14.971-33.27 33.27-33.27z" fill="#64b5f6"/><path d="m46.282 128.861h419.436c1.492 0 2.713 1.221 2.713 2.713v334.144c0 1.492-1.221 2.713-2.713 2.713h-419.436c-1.492 0-2.713-1.221-2.713-2.713v-334.144c.001-1.492 1.221-2.713 2.713-2.713z" fill="#e6f8ff"/><path d="m469.73 9h-21.833c18.299 0 33.27 14.972 33.27 33.27v427.461c0 18.298-14.971 33.269-33.27 33.269h21.833c18.299 0 33.27-14.971 33.27-33.269v-427.461c0-18.298-14.971-33.27-33.27-33.27z" fill="#42a5f5"/><path d="m46.282 128.861h21.822c-1.492 0-2.713 1.22-2.713 2.713v334.144c0 1.493 1.221 2.713 2.713 2.713h-21.822c-1.493 0-2.713-1.22-2.713-2.713v-334.144c.001-1.493 1.221-2.713 2.713-2.713z" fill="#d0f1ff"/><path d="m9 42.27v52.022h494v-52.022c0-18.298-14.972-33.27-33.269-33.27h-427.461c-18.299 0-33.27 14.972-33.27 33.27z" fill="#004960"/><path d="m503 42.27v52.022h-21.833v-52.022c0-18.298-14.971-33.27-33.27-33.27h21.833c18.299 0 33.27 14.972 33.27 33.27z" fill="#003748"/><ellipse cx="55.408" cy="51.647" fill="#fc685b" rx="13" ry="13" transform="matrix(.973 -.23 .23 .973 -10.384 14.112)"/><path d="m55.408 38.647c5.185 0 9.66 3.036 11.747 7.427-2.209-1.735-4.995-2.77-8.022-2.77-7.18 0-13 5.82-13 13 0 1.995.45 3.885 1.253 5.574-3.031-2.38-4.978-6.078-4.978-10.231 0-7.18 5.82-13 13-13z" fill="#f35244"/><ellipse cx="99.74" cy="51.647" fill="#ffda2d" rx="13" ry="13" transform="matrix(.973 -.23 .23 .973 -9.198 24.297)"/><path d="m99.74 38.647c5.185 0 9.661 3.036 11.748 7.427-2.21-1.735-4.995-2.77-8.022-2.77-7.18 0-13 5.82-13 13 0 1.995.45 3.885 1.253 5.574-3.031-2.38-4.978-6.078-4.978-10.231-.001-7.18 5.819-13 12.999-13z" fill="#ffc700"/><ellipse cx="144.534" cy="51.647" fill="#72d561" rx="13" ry="13" transform="matrix(.973 -.23 .23 .973 -8 34.589)"/><path d="m144.534 38.647c5.185 0 9.66 3.036 11.747 7.427-2.209-1.735-4.995-2.77-8.022-2.77-7.18 0-13 5.82-13 13 0 1.995.45 3.885 1.253 5.574-3.031-2.38-4.978-6.078-4.978-10.231 0-7.18 5.82-13 13-13z" fill="#3cbe52"/></g><g><path d="m256 453.368c-11.732 0-21.246-9.514-21.246-21.246s9.514-21.246 21.246-21.246 21.246 9.514 21.246 21.246c0 11.731-9.514 21.246-21.246 21.246zm142.02-219.692c0 11.732-9.514 21.246-21.246 21.246s-21.246-9.514-21.246-21.246 9.514-21.246 21.246-21.246c11.731 0 21.246 9.515 21.246 21.246zm-206.99-77.05c11.732 0 21.246 9.514 21.246 21.246s-9.514 21.247-21.246 21.247-21.246-9.514-21.246-21.247c0-11.731 9.515-21.246 21.246-21.246zm129.939 0c11.732 0 21.246 9.514 21.246 21.246s-9.514 21.247-21.246 21.247-21.246-9.515-21.246-21.247c0-11.731 9.514-21.246 21.246-21.246zm-64.969-12.702c11.732 0 21.246 9.515 21.246 21.246 0 11.732-9.514 21.247-21.246 21.247s-21.246-9.515-21.246-21.247c0-11.731 9.514-21.246 21.246-21.246zm-142.02 89.752c0-11.732 9.515-21.246 21.246-21.246 11.732 0 21.247 9.514 21.247 21.246s-9.514 21.246-21.247 21.246c-11.731.001-21.246-9.514-21.246-21.246zm284.04 129.939c0 11.732-9.514 21.246-21.246 21.246s-21.246-9.514-21.246-21.246 9.515-21.246 21.246-21.246 21.246 9.515 21.246 21.246zm12.702-64.969c0 11.732-9.514 21.246-21.246 21.246s-21.247-9.514-21.247-21.246 9.514-21.246 21.247-21.246c11.731 0 21.246 9.514 21.246 21.246zm-296.742 64.969c0-11.732 9.515-21.246 21.246-21.246 11.732 0 21.247 9.515 21.247 21.246 0 11.732-9.514 21.246-21.247 21.246-11.731.001-21.246-9.514-21.246-21.246zm-12.702-64.969c0-11.732 9.514-21.246 21.246-21.246s21.246 9.514 21.246 21.246-9.514 21.246-21.246 21.246c-11.731 0-21.246-9.514-21.246-21.246zm89.752 142.02c-11.732 0-21.246-9.514-21.246-21.246s9.514-21.246 21.246-21.246 21.246 9.514 21.246 21.246c.001 11.731-9.514 21.246-21.246 21.246zm129.939 0c-11.732 0-21.246-9.514-21.246-21.246s9.514-21.246 21.246-21.246 21.246 9.514 21.246 21.246c0 11.731-9.514 21.246-21.246 21.246z" fill="#ffda2d"/><path d="m256 453.368c-6.769 0-12.799-3.168-16.69-8.101 3.185 1.905 6.908 3.001 10.888 3.001 11.732 0 21.246-9.514 21.246-21.246 0-4.963-1.703-9.529-4.555-13.146 6.203 3.711 10.358 10.493 10.358 18.245-.001 11.732-9.515 21.247-21.247 21.247zm142.02-219.692c0 11.732-9.514 21.246-21.246 21.246-6.769 0-12.799-3.167-16.69-8.1 3.185 1.905 6.908 3.001 10.888 3.001 11.732 0 21.246-9.515 21.246-21.246 0-4.963-1.703-9.529-4.556-13.146 6.202 3.711 10.358 10.493 10.358 18.245zm-196.102-74.049c6.203 3.711 10.358 10.493 10.358 18.245 0 11.732-9.514 21.247-21.246 21.247-6.769 0-12.799-3.168-16.691-8.101 3.184 1.905 6.909 3.001 10.889 3.001 11.732 0 21.246-9.514 21.246-21.246 0-4.963-1.703-9.529-4.556-13.146zm129.939 0c6.203 3.711 10.358 10.493 10.358 18.245 0 11.732-9.514 21.247-21.246 21.247-6.769 0-12.799-3.167-16.69-8.1 3.184 1.905 6.908 3 10.888 3 11.732 0 21.246-9.514 21.246-21.246 0-4.963-1.703-9.529-4.556-13.146zm-64.969-12.702c6.203 3.71 10.358 10.493 10.358 18.245 0 11.732-9.514 21.247-21.246 21.247-6.769 0-12.799-3.168-16.691-8.101 3.184 1.905 6.909 3.001 10.888 3.001 11.732 0 21.246-9.514 21.246-21.247.001-4.962-1.702-9.528-4.555-13.145zm-120.773 68.506c6.204 3.71 10.358 10.493 10.358 18.245 0 11.732-9.514 21.246-21.247 21.246-6.769 0-12.799-3.167-16.69-8.1 3.185 1.905 6.908 3.001 10.888 3.001 11.732 0 21.246-9.514 21.246-21.246.001-4.964-1.703-9.529-4.555-13.146zm251.905 148.184c0 11.732-9.514 21.246-21.246 21.246-6.769 0-12.799-3.168-16.69-8.101 3.185 1.905 6.908 3.001 10.888 3.001 11.732 0 21.246-9.514 21.246-21.246 0-4.963-1.703-9.529-4.556-13.146 6.202 3.711 10.358 10.494 10.358 18.246zm12.702-64.969c0 11.732-9.514 21.246-21.246 21.246-6.769 0-12.799-3.167-16.69-8.101 3.184 1.905 6.908 3.001 10.888 3.001 11.732 0 21.246-9.514 21.246-21.246 0-4.963-1.703-9.529-4.556-13.146 6.202 3.711 10.358 10.494 10.358 18.246zm-264.607 46.724c6.203 3.711 10.358 10.493 10.358 18.245 0 11.732-9.514 21.246-21.247 21.246-6.769 0-12.799-3.168-16.69-8.101 3.185 1.905 6.908 3.001 10.888 3.001 11.732 0 21.246-9.514 21.246-21.246.001-4.963-1.702-9.528-4.555-13.145zm-12.702-64.969c6.204 3.71 10.358 10.493 10.358 18.245 0 11.732-9.514 21.246-21.246 21.246-6.769 0-12.799-3.167-16.69-8.101 3.185 1.905 6.908 3.001 10.888 3.001 11.732 0 21.246-9.514 21.246-21.246 0-4.963-1.704-9.529-4.556-13.145zm57.617 160.265c-6.769 0-12.799-3.167-16.69-8.101 3.185 1.905 6.908 3.001 10.888 3.001 11.732 0 21.246-9.514 21.246-21.246 0-4.963-1.703-9.529-4.556-13.146 6.203 3.711 10.358 10.493 10.358 18.245.001 11.732-9.514 21.247-21.246 21.247zm129.939 0c-6.769 0-12.799-3.167-16.69-8.101 3.185 1.905 6.908 3.001 10.888 3.001 11.732 0 21.246-9.514 21.246-21.246 0-4.963-1.703-9.529-4.556-13.146 6.203 3.711 10.358 10.493 10.358 18.245 0 11.732-9.514 21.247-21.246 21.247z" fill="#ffc700"/></g><g><path d="m200.321 225.219h111.357c9.762 0 17.749 7.987 17.749 17.749v111.357c0 9.762-7.987 17.749-17.749 17.749h-111.357c-9.762 0-17.749-7.987-17.749-17.749v-111.358c0-9.762 7.987-17.748 17.749-17.748z" fill="#72d561"/><path d="m318.185 226.461c6.568 2.609 11.242 9.038 11.242 16.506v111.357c0 9.762-7.987 17.749-17.749 17.749h-111.357c-7.468 0-13.898-4.675-16.507-11.242 2.017.801 4.213 1.242 6.506 1.242h111.357c9.762 0 17.749-7.987 17.749-17.749v-111.357c.001-2.294-.44-4.489-1.241-6.506z" fill="#57ca5a"/><path d="m216.572 255.218h78.856c2.2 0 4 1.8 4 4v78.856c0 2.2-1.8 4-4 4h-78.856c-2.2 0-4-1.8-4-4v-78.856c0-2.2 1.8-4 4-4z" fill="#3cbe52"/><path d="m216.572 255.218h78.856c2.2 0 4 1.8 4 4v6h-72.855c-2.2 0-4 1.8-4 4v72.855h-6c-2.2 0-4-1.8-4-4v-78.856c-.001-2.199 1.799-3.999 3.999-3.999z" fill="#30aa44"/></g></g><path d="m220.568 263.223h70.855v70.85h-70.855zm-7.999 86.849h86.853c4.419 0 7.999-3.58 7.999-7.999v-86.848c0-4.419-3.58-7.999-7.999-7.999h-86.853c-4.419 0-7.999 3.58-7.999 7.999v86.848c0 4.419 3.579 7.999 7.999 7.999zm-90.051-58.668c4.004 0 7.254 3.25 7.254 7.249 0 3.99-3.25 7.24-7.254 7.24-4 0-7.249-3.25-7.249-7.24 0-3.999 3.249-7.249 7.249-7.249zm68.053-48.433v111.35c0 5.381 4.367 9.753 9.749 9.753h111.35c5.381 0 9.749-4.372 9.749-9.753v-111.35c0-5.377-4.367-9.749-9.749-9.749h-111.35c-5.381 0-9.749 4.372-9.749 9.749zm-62.592-9.301c0-3.99 3.25-7.24 7.24-7.24 4 0 7.249 3.25 7.249 7.24 0 4.004-3.25 7.254-7.249 7.254-3.99 0-7.24-3.25-7.24-7.254zm63.055-48.546c-4.004 0-7.254-3.25-7.254-7.254 0-3.985 3.25-7.249 7.254-7.249 3.985 0 7.235 3.264 7.235 7.249-.001 4.004-3.25 7.254-7.235 7.254zm64.968-27.2c3.99 0 7.24 3.25 7.24 7.249s-3.25 7.249-7.24 7.249c-4.004 0-7.254-3.25-7.254-7.249s3.25-7.249 7.254-7.249zm64.96 12.697c3.999 0 7.249 3.264 7.249 7.249 0 4.005-3.25 7.254-7.249 7.254-3.99 0-7.24-3.25-7.24-7.254 0-3.985 3.25-7.249 7.24-7.249zm55.809 55.81c3.99 0 7.249 3.25 7.249 7.24 0 4.004-3.259 7.254-7.249 7.254-3.999 0-7.249-3.25-7.249-7.254 0-3.991 3.25-7.24 7.249-7.24zm12.697 64.973c4.004 0 7.254 3.25 7.254 7.249 0 3.99-3.25 7.24-7.254 7.24-3.986 0-7.249-3.25-7.249-7.24 0-3.999 3.263-7.249 7.249-7.249zm-5.448 72.209c0 3.999-3.259 7.249-7.249 7.249-3.999 0-7.249-3.25-7.249-7.249 0-3.99 3.25-7.24 7.249-7.24 3.99 0 7.249 3.249 7.249 7.24zm-63.058 48.56c3.999 0 7.249 3.25 7.249 7.249 0 3.99-3.25 7.249-7.249 7.249-3.99 0-7.24-3.259-7.24-7.249 0-3.999 3.25-7.249 7.24-7.249zm-64.96 27.2c-4.004 0-7.254-3.25-7.254-7.249 0-4 3.25-7.249 7.254-7.249 3.99 0 7.24 3.25 7.24 7.249s-3.25 7.249-7.24 7.249zm-64.968-12.702c-4.004 0-7.254-3.259-7.254-7.249 0-3.999 3.25-7.249 7.254-7.249 3.985 0 7.235 3.25 7.235 7.249-.001 3.99-3.25 7.249-7.235 7.249zm-55.815-55.809c-3.99 0-7.24-3.25-7.24-7.249 0-3.99 3.25-7.24 7.24-7.24 4 0 7.249 3.25 7.249 7.24 0 3.999-3.249 7.249-7.249 7.249zm-12.701-48.971c10.013 0 18.564-6.358 21.832-15.239h30.218v14.159h-13.447c-2.533 0-4.91 1.193-6.424 3.221l-12.867 17.3c-2.089-.622-4.311-.957-6.613-.957-12.819 0-23.238 10.428-23.238 23.238 0 12.819 10.419 23.252 23.238 23.252s23.252-10.433 23.252-23.252c0-4.693-1.401-9.06-3.811-12.72l10.48-14.079h9.428v17.508c0 14.201 11.55 25.752 25.752 25.752h17.512v9.428l-14.083 10.48c-3.66-2.396-8.027-3.811-12.715-3.811-12.824 0-23.252 10.433-23.252 23.252s10.428 23.252 23.252 23.252c12.81 0 23.238-10.433 23.238-23.252 0-2.301-.34-4.509-.962-6.607l17.3-12.871c2.033-1.509 3.222-3.891 3.222-6.419v-13.451h14.168v30.218c-8.886 3.273-15.248 11.819-15.248 21.832 0 12.819 10.433 23.247 23.252 23.247 12.81 0 23.238-10.428 23.238-23.247 0-10.013-6.362-18.559-15.239-21.832v-30.218h14.159v13.451c0 2.528 1.203 4.91 3.221 6.419l17.3 12.871c-.622 2.099-.962 4.306-.962 6.607 0 12.819 10.433 23.252 23.243 23.252 12.819 0 23.247-10.433 23.247-23.252s-10.428-23.252-23.247-23.252c-4.693 0-9.06 1.415-12.72 3.811l-14.079-10.48v-9.428h17.508c14.201 0 25.752-11.551 25.752-25.752v-17.508h9.428l10.48 14.079c-2.401 3.66-3.811 8.027-3.811 12.72 0 12.819 10.433 23.252 23.252 23.252s23.247-10.433 23.247-23.252c0-12.81-10.428-23.238-23.247-23.238-2.302 0-4.509.335-6.612.957l-12.866-17.3c-1.514-2.028-3.891-3.221-6.424-3.221h-13.446v-14.159h30.218c3.268 8.881 11.819 15.239 21.828 15.239 12.824 0 23.252-10.428 23.252-23.238 0-12.824-10.428-23.252-23.252-23.252-10.008 0-18.559 6.363-21.828 15.253h-30.218v-14.173h13.446c2.533 0 4.91-1.198 6.424-3.217l12.866-17.305c2.104.623 4.311.962 6.612.962 12.819 0 23.247-10.433 23.247-23.252 0-12.81-10.428-23.238-23.247-23.238s-23.252 10.428-23.252 23.238c0 4.702 1.41 9.074 3.811 12.729l-10.48 14.083h-9.428v-17.512c0-14.201-11.551-25.747-25.752-25.747h-17.508v-9.433l14.079-10.48c3.66 2.401 8.027 3.811 12.72 3.811 12.819 0 23.247-10.428 23.247-23.252 0-12.819-10.428-23.247-23.247-23.247-12.81 0-23.243 10.428-23.243 23.247 0 2.302.34 4.523.962 6.613l-17.3 12.871c-2.019 1.509-3.221 3.886-3.221 6.419v13.451h-14.159v-30.223c8.876-3.269 15.239-11.819 15.239-21.828 0-12.819-10.428-23.252-23.238-23.252-12.819 0-23.252 10.433-23.252 23.252 0 10.008 6.363 18.559 15.248 21.828v30.223h-14.168v-13.451c0-2.533-1.189-4.91-3.222-6.419l-17.3-12.871c.623-2.089.962-4.311.962-6.613 0-12.819-10.428-23.247-23.238-23.247-12.824 0-23.252 10.428-23.252 23.247 0 12.824 10.428 23.252 23.252 23.252 4.688 0 9.056-1.41 12.715-3.811l14.083 10.48v9.433h-17.51c-14.201 0-25.752 11.546-25.752 25.747v17.512h-9.428l-10.48-14.081c2.41-3.655 3.811-8.027 3.811-12.729 0-12.81-10.433-23.238-23.252-23.238s-23.238 10.428-23.238 23.238c0 12.819 10.419 23.252 23.238 23.252 2.302 0 4.523-.34 6.613-.962l12.867 17.305c1.514 2.019 3.891 3.217 6.424 3.217h13.447v14.173h-30.22c-3.269-8.89-11.82-15.253-21.832-15.253-12.819 0-23.247 10.428-23.247 23.252 0 12.808 10.428 23.236 23.247 23.236zm340.88 141.512v-329.509h-414.81v329.509zm8.004-345.512h-430.813c-4.419 0-7.999 3.58-7.999 8.004v345.507c0 4.419 3.58 7.999 7.999 7.999h430.813c4.419 0 7.999-3.58 7.999-7.999v-345.507c0-4.424-3.58-8.004-7.999-8.004zm-328.033-70.27c2.221 0 4.018 1.811 4.018 4.033 0 2.207-1.797 4.018-4.018 4.018-2.222 0-4.028-1.811-4.028-4.018.001-2.222 1.807-4.033 4.028-4.033zm0 24.049c11.041 0 20.021-8.975 20.021-20.017 0-11.051-8.98-20.031-20.021-20.031-11.051 0-20.026 8.98-20.026 20.031 0 11.042 8.976 20.017 20.026 20.017zm158.052-20.016c0-4.424 3.58-8.004 7.999-8.004h144.8c4.419 0 7.999 3.58 7.999 8.004 0 4.41-3.58 7.999-7.999 7.999h-144.799c-4.42 0-8-3.59-8-7.999zm-202.113-4.033c2.222 0 4.023 1.811 4.023 4.033 0 2.207-1.801 4.018-4.023 4.018-2.217 0-4.028-1.811-4.028-4.018 0-2.222 1.812-4.033 4.028-4.033zm0 24.049c11.041 0 20.021-8.975 20.021-20.017 0-11.051-8.98-20.031-20.021-20.031-11.046 0-20.031 8.98-20.031 20.031.001 11.042 8.985 20.017 20.031 20.017zm-44.06-24.049c2.221 0 4.023 1.811 4.023 4.033 0 2.207-1.802 4.018-4.023 4.018-2.217 0-4.028-1.811-4.028-4.018 0-2.222 1.811-4.033 4.028-4.033zm0 24.049c11.041 0 20.021-8.975 20.021-20.017 0-11.051-8.98-20.031-20.021-20.031-11.036 0-20.026 8.98-20.026 20.031 0 11.042 8.989 20.017 20.026 20.017zm414.484 423.333c13.928 0 25.266-11.343 25.266-25.271v-367.438h-477.996v367.438c0 13.928 11.329 25.271 25.271 25.271zm-427.459-478.001c-13.942 0-25.271 11.329-25.271 25.271v44.018h477.996v-44.018c0-13.942-11.338-25.271-25.266-25.271zm427.459-16.003h-427.459c-22.761 0-41.273 18.512-41.273 41.274v427.46c0 22.762 18.512 41.269 41.273 41.269h427.459c22.747 0 41.269-18.507 41.269-41.269v-427.46c0-22.762-18.522-41.274-41.269-41.274z"/></g></svg>