<svg clip-rule="evenodd" fill-rule="evenodd" height="512" image-rendering="optimizeQuality" shape-rendering="geometricPrecision" text-rendering="geometricPrecision" viewBox="0 0 512 512" width="512" xmlns="http://www.w3.org/2000/svg" xmlns:xodm="http://www.corel.com/coreldraw/odm/2003"><g id="Layer_x0020_1"><g id="_2112506840368"><g><path d="m469.42 473.64h-426.83c-23.48 0-42.59-19.1-42.59-42.59v-350.1c0-23.48 19.11-42.59 42.59-42.59h426.83c23.48 0 42.58 19.11 42.58 42.59v350.1c0 23.49-19.1 42.59-42.58 42.59z" fill="#b8e0f5"/><path d="m0 152.58v-71.63c0-23.48 19.11-42.59 42.59-42.59h426.83c23.48 0 42.58 19.11 42.58 42.59v71.63h-512z" fill="#0052c2"/><path d="m96.71 107.97h-19.38c-6.9 0-12.49-5.6-12.49-12.49 0-6.9 5.59-12.5 12.49-12.5h19.38c6.9 0 12.5 5.6 12.5 12.5 0 6.89-5.6 12.49-12.5 12.49z" fill="#37d742"/><path d="m161.09 107.97h-19.38c-6.9 0-12.49-5.6-12.49-12.49 0-6.9 5.59-12.5 12.49-12.5h19.38c6.9 0 12.5 5.6 12.5 12.5 0 6.89-5.6 12.49-12.5 12.49z" fill="#fc3c1d"/><path d="m225.47 107.97h-19.38c-6.9 0-12.49-5.6-12.49-12.49 0-6.9 5.59-12.5 12.49-12.5h19.38c6.9 0 12.5 5.6 12.5 12.5 0 6.89-5.6 12.49-12.5 12.49z" fill="#ffb300"/></g><path d="m368.77 429.27c-1.3 0-2.59-.42-3.68-1.25l-17.22-13.35-21.58 2.95c-2.72.37-5.33-1.14-6.37-3.68l-8.24-20.16-20.17-8.25c-2.53-1.03-4.04-3.65-3.67-6.36l2.94-21.58-13.34-17.23c-1.68-2.16-1.68-5.18 0-7.34l13.34-17.23-2.94-21.58c-.37-2.71 1.14-5.33 3.67-6.37l20.17-8.24 8.24-20.17c1.04-2.53 3.65-4.04 6.37-3.67l21.58 2.95 17.22-13.35c2.17-1.67 5.19-1.67 7.35 0l17.22 13.35 21.59-2.95c2.71-.37 5.33 1.14 6.36 3.67l8.24 20.17 20.17 8.24c2.53 1.04 4.05 3.66 3.68 6.37l-2.95 21.58 13.35 17.22c1.67 2.17 1.67 5.19 0 7.35l-13.35 17.22 2.95 21.59c.37 2.71-1.15 5.33-3.68 6.36l-20.17 8.24-8.24 20.17c-1.03 2.53-3.65 4.05-6.36 3.68l-21.59-2.95-17.22 13.35c-1.08.83-2.38 1.25-3.67 1.25z" fill="#45c9a5"/><path d="m351.07 379.53c-2.23 0-4.48-.49-6.5-1.42l-.25-.12c-.06-.03-.11-.05-.17-.08l-.2-.11c-.05-.02-.09-.04-.13-.07l-.21-.11c-.04-.02-.08-.04-.12-.07l-.21-.11c-.04-.03-.08-.05-.12-.08l-.2-.12c-.05-.02-.09-.05-.14-.08l-.19-.13c-.04-.02-.07-.04-.11-.06l-.19-.14c-.05-.03-.1-.06-.15-.1l-.19-.14c-.04-.03-.09-.06-.13-.09l-.19-.15c-.03-.02-.06-.04-.08-.06l-.19-.15c-.05-.03-.1-.07-.14-.11l-.19-.15c-.04-.04-.08-.07-.12-.11l-.18-.16c-.04-.03-.07-.07-.11-.1l-.18-.16c-.04-.04-.08-.08-.12-.12l-.18-.17-19.45-19.45c-6.02-6.03-6.02-15.83 0-21.85 2.91-2.91 6.79-4.51 10.93-4.51 4.13 0 8.01 1.6 10.92 4.51l8.49 8.49 43.88-43.88c2.91-2.92 6.79-4.52 10.93-4.52 4.13 0 8.01 1.6 10.92 4.52 6.03 6.02 6.03 15.82 0 21.84l-55.03 55.03c-.04.04-.08.08-.12.12l-.18.16c-.04.04-.08.07-.12.11l-.18.15c-.03.03-.07.07-.1.1l-.19.15c-.03.02-.06.05-.09.08l-.19.15c-.05.04-.1.08-.15.11l-.19.15c-.04.03-.08.06-.12.09l-.11.07c-.07.05-.14.1-.21.15l-.19.13c-2.58 1.69-5.52 2.57-8.56 2.57z" fill="#fff"/><g fill="#45c9a5"><path d="m256 294.8h-205.54c-3.32 0-6-2.68-6-5.99v-43.85c0-3.31 2.68-6 6-6h205.54c3.31 0 6 2.69 6 6v43.85c0 3.31-2.69 5.99-6 5.99z"/><path d="m256 434.42h-205.54c-3.32 0-6-2.68-6-6v-43.85c0-3.31 2.68-5.99 6-5.99h205.54c3.31 0 6 2.68 6 5.99v43.85c0 3.31-2.69 6-6 6z"/><path d="m461.54 225h-411.08c-3.32 0-6-2.69-6-6v-43.85c0-3.31 2.68-6 6-6h411.08c3.31 0 6 2.69 6 6v43.85c0 3.31-2.69 6-6 6z"/><path d="m256 364.61h-205.54c-3.32 0-6-2.68-6-6v-43.84c0-3.32 2.68-6 6-6h205.54c3.31 0 6 2.68 6 6v43.84c0 3.32-2.69 6-6 6z"/></g></g></g></svg>