<svg xmlns="http://www.w3.org/2000/svg" height="512pt" version="1.1" viewBox="0 0 512 512" width="512pt">
<g id="surface1">
<path d="M 512 256 C 512 397.386719 397.386719 512 256 512 C 114.613281 512 0 397.386719 0 256 C 0 114.613281 114.613281 0 256 0 C 397.386719 0 512 114.613281 512 256 Z M 512 256 " style=" stroke:none;fill-rule:nonzero;fill:rgb(25.490196%,28.627451%,32.156863%);fill-opacity:1;" />
<path d="M 273.339844 511.402344 C 401.410156 502.835938 503.675781 400.09375 511.5 271.816406 L 441.222656 201.539062 L 418.769531 221.601562 L 339.699219 142.53125 L 121.601562 359.664062 Z M 273.339844 511.402344 " style=" stroke:none;fill-rule:nonzero;fill:rgb(20%,22.352941%,25.098039%);fill-opacity:1;" />
<path d="M 272.558594 382.21875 L 209.132812 428.070312 L 145.703125 382.21875 C 114.5625 359.707031 94.839844 324.691406 91.726562 286.394531 L 78.5625 142.53125 C 78.5625 142.53125 175.199219 91.929688 209.132812 91.929688 C 243.0625 91.929688 339.699219 142.53125 339.699219 142.53125 L 326.535156 286.394531 C 323.421875 324.691406 303.699219 359.707031 272.558594 382.21875 Z M 272.558594 382.21875 " style=" stroke:none;fill-rule:nonzero;fill:rgb(3.529412%,80.784314%,40.392157%);fill-opacity:1;" />
<path d="M 209.132812 428.070312 L 272.558594 382.21875 C 303.695312 359.707031 323.421875 324.691406 326.535156 286.394531 L 339.699219 142.53125 C 339.699219 142.53125 243.0625 91.929688 209.132812 91.929688 C 209.113281 91.929688 209.097656 91.929688 209.082031 91.929688 Z M 209.132812 428.070312 " style=" stroke:none;fill-rule:nonzero;fill:rgb(10.196078%,67.843137%,36.078431%);fill-opacity:1;" />
<path d="M 255.648438 345.492188 L 209.132812 379.121094 L 162.613281 345.492188 C 139.773438 328.984375 125.304688 303.300781 123.023438 275.210938 L 113.367188 169.699219 C 113.367188 169.699219 184.246094 132.585938 209.132812 132.585938 C 234.015625 132.585938 304.894531 169.699219 304.894531 169.699219 L 295.238281 275.210938 C 292.957031 303.300781 278.488281 328.984375 255.648438 345.492188 Z M 255.648438 345.492188 " style=" stroke:none;fill-rule:nonzero;fill:rgb(8.235294%,90.980392%,45.490196%);fill-opacity:1;" />
<path d="M 209.132812 379.121094 L 255.648438 345.496094 C 278.488281 328.984375 292.957031 303.304688 295.238281 275.214844 L 304.894531 169.699219 C 304.894531 169.699219 234.015625 132.585938 209.132812 132.585938 C 209.113281 132.585938 209.097656 132.589844 209.082031 132.589844 Z M 209.132812 379.121094 " style=" stroke:none;fill-rule:nonzero;fill:rgb(3.529412%,80.784314%,40.392157%);fill-opacity:1;" />
<path d="M 236.542969 216.410156 C 236.542969 201.273438 224.269531 189 209.132812 189 C 193.992188 189 181.722656 201.273438 181.722656 216.410156 C 181.722656 222.394531 183.644531 227.929688 186.902344 232.4375 L 186.902344 302 L 231.359375 302 L 231.359375 232.4375 C 234.617188 227.929688 236.542969 222.394531 236.542969 216.410156 Z M 236.542969 216.410156 " style=" stroke:none;fill-rule:nonzero;fill:rgb(10.196078%,67.843137%,36.078431%);fill-opacity:1;" />
<path d="M 209.132812 189 C 209.113281 189 209.097656 189 209.082031 189 L 209.082031 302 L 231.359375 302 L 231.359375 232.4375 C 234.617188 227.929688 236.539062 222.394531 236.539062 216.410156 C 236.542969 201.273438 224.269531 189 209.132812 189 Z M 209.132812 189 " style=" stroke:none;fill-rule:nonzero;fill:rgb(9.803922%,55.686275%,29.411765%);fill-opacity:1;" />
<path d="M 391.210938 178.25 C 357.480469 178.25 329.632812 203.90625 326.144531 236.726562 L 186.902344 236.726562 L 186.902344 273.726562 L 325.769531 273.726562 L 325.769531 276.308594 C 325.769531 312.390625 355.125 341.746094 391.210938 341.746094 C 427.292969 341.746094 456.648438 312.390625 456.648438 276.308594 L 456.648438 243.691406 C 456.648438 207.605469 427.292969 178.25 391.210938 178.25 Z M 419.648438 276.308594 C 419.648438 291.992188 406.890625 304.75 391.210938 304.75 C 375.527344 304.75 362.769531 291.992188 362.769531 276.308594 L 362.769531 243.691406 C 362.769531 228.007812 375.527344 215.25 391.210938 215.25 C 406.890625 215.25 419.648438 228.007812 419.648438 243.691406 Z M 419.648438 276.308594 " style=" stroke:none;fill-rule:nonzero;fill:rgb(99.607843%,41.568627%,8.627451%);fill-opacity:1;" />
<path d="M 419.648438 256 L 419.648438 276.308594 C 419.648438 291.992188 406.890625 304.75 391.210938 304.75 C 375.527344 304.75 362.769531 291.992188 362.769531 276.308594 L 362.769531 256 L 186.902344 256 L 186.902344 273.726562 L 325.769531 273.726562 L 325.769531 276.308594 C 325.769531 312.394531 355.125 341.75 391.210938 341.75 C 427.292969 341.75 456.648438 312.394531 456.648438 276.308594 L 456.648438 256 Z M 419.648438 256 " style=" stroke:none;fill-rule:nonzero;fill:rgb(94.901961%,27.058824%,0%);fill-opacity:1;" />
</g>
</svg>