<svg id="Layer_1" height="512" viewBox="0 0 512 512" width="512" xmlns="http://www.w3.org/2000/svg" data-name="Layer 1"><circle cx="275.613" cy="256" fill="#003ea8" r="225.396" transform="matrix(.707 -.707 .707 .707 -100.294 269.868)"/><path d="m275.613 30.604c124.482 0 225.395 100.913 225.395 225.396s-100.913 225.396-225.395 225.396z" fill="#004cbd" fill-rule="evenodd"/><g><circle cx="434.426" cy="185.615" fill="#f9c795" r="21.857"/><g fill-rule="evenodd"><path d="m438.166 164.079c10.289 1.774 18.117 10.741 18.117 21.537s-7.827 19.763-18.117 21.537c-10.289-1.774-18.117-10.741-18.117-21.537s7.827-19.762 18.117-21.537z" fill="#fdd7ad"/><path d="m434.426 207.473c20.019 0 37.229 13.673 44.824 33.261.629 1.624.434 3.305-.549 4.742-.984 1.437-2.481 2.226-4.223 2.226h-80.104c-1.741 0-3.239-.79-4.222-2.226-.984-1.437-1.179-3.118-.549-4.742 7.595-19.588 24.805-33.261 44.824-33.261z" fill="#ee8700"/><path d="m440.552 207.907c17.357 2.466 31.89 15.269 38.698 32.827.63 1.624.435 3.305-.549 4.742s-2.481 2.226-4.222 2.226h-67.852c-1.741 0-3.239-.79-4.222-2.226-.984-1.437-1.179-3.118-.549-4.742 6.808-17.557 21.341-30.361 38.697-32.827z" fill="#f89b00"/></g><g><g><circle cx="357.391" cy="189.897" fill="#f9c795" r="26.138"/><path d="m361.863 164.141c12.305 2.122 21.665 12.845 21.665 25.755s-9.361 23.634-21.665 25.755c-12.305-2.122-21.665-12.845-21.665-25.755s9.361-23.633 21.665-25.755z" fill="#fdd7ad" fill-rule="evenodd"/></g><g fill-rule="evenodd"><path d="m357.391 215.945c23.898 0 44.445 16.323 53.512 39.708.751 1.938.519 3.945-.656 5.661-1.174 1.715-2.962 2.658-5.041 2.658h-95.63c-2.079 0-3.866-.942-5.041-2.658-1.175-1.715-1.407-3.723-.656-5.661 9.067-23.384 29.613-39.708 53.512-39.708z" fill="#f9ac00"/><path d="m363.517 216.309c21.244 2.518 39.104 17.984 47.386 39.343.751 1.939.519 3.945-.656 5.661-1.175 1.715-2.962 2.658-5.041 2.658h-83.378c-2.079 0-3.866-.942-5.041-2.658-1.174-1.715-1.407-3.723-.655-5.661 8.282-21.36 26.142-36.825 47.385-39.343z" fill="#fdc72e"/></g></g><g><circle cx="116.8" cy="185.615" fill="#f9c795" r="21.857" transform="matrix(1 -.001 .001 1 -.259 .163)"/><path d="m120.539 164.079c10.289 1.774 18.117 10.741 18.117 21.537s-7.828 19.763-18.117 21.537c-10.289-1.774-18.117-10.741-18.117-21.537s7.828-19.762 18.117-21.537z" fill="#fdd7ad" fill-rule="evenodd"/></g><path d="m116.799 207.473c20.019 0 37.229 13.673 44.824 33.261.629 1.624.434 3.305-.549 4.742-.984 1.437-2.481 2.226-4.223 2.226h-80.104c-1.741 0-3.239-.79-4.222-2.226-.984-1.437-1.179-3.118-.549-4.742 7.595-19.588 24.805-33.261 44.824-33.261z" fill="#008535" fill-rule="evenodd"/><path d="m122.926 207.907c17.356 2.466 31.89 15.269 38.698 32.827.63 1.624.435 3.305-.549 4.742s-2.481 2.226-4.222 2.226h-67.853c-1.741 0-3.239-.79-4.222-2.226-.984-1.437-1.179-3.118-.549-4.742 6.808-17.557 21.342-30.361 38.698-32.827z" fill="#0c9e47" fill-rule="evenodd"/><g><g><circle cx="193.835" cy="189.897" fill="#f9c795" r="26.138"/><path d="m198.307 164.141c12.305 2.122 21.665 12.845 21.665 25.755s-9.361 23.634-21.665 25.755c-12.305-2.122-21.665-12.845-21.665-25.755s9.361-23.633 21.665-25.755z" fill="#fdd7ad" fill-rule="evenodd"/></g><g fill-rule="evenodd"><path d="m193.835 215.945c23.898 0 44.445 16.323 53.512 39.708.751 1.938.519 3.945-.656 5.661-1.174 1.715-2.962 2.658-5.041 2.658h-95.63c-2.079 0-3.866-.942-5.041-2.658-1.175-1.715-1.407-3.723-.656-5.661 9.067-23.384 29.613-39.708 53.512-39.708z" fill="#3bd97d"/><path d="m199.961 216.309c21.244 2.518 39.104 17.984 47.386 39.343.751 1.939.519 3.945-.656 5.661-1.174 1.715-2.962 2.658-5.041 2.658h-83.378c-2.079 0-3.866-.942-5.041-2.658-1.175-1.715-1.407-3.723-.655-5.661 8.282-21.36 26.142-36.825 47.385-39.343z" fill="#4fe88e"/></g></g><path d="m275.613 231.887c27.059 0 50.272 18.73 60.188 45.419.719 1.935.467 3.921-.711 5.615-1.178 1.695-2.953 2.623-5.017 2.623h-108.92c-2.064 0-3.839-.928-5.017-2.623-1.177-1.694-1.429-3.681-.711-5.615 9.916-26.69 33.128-45.419 60.187-45.419z" fill="#0e82f5" fill-rule="evenodd"/><path d="m283.683 232.452c23.541 3.302 43.203 20.86 52.118 44.854.719 1.935.467 3.921-.711 5.615s-2.953 2.623-5.017 2.623h-92.78c-2.064 0-3.839-.928-5.017-2.623-1.177-1.694-1.429-3.681-.711-5.615 8.914-23.994 28.577-41.552 52.118-44.854z" fill="#2a92fa" fill-rule="evenodd"/><circle cx="275.613" cy="202.734" fill="#f9c795" r="29.153" transform="matrix(.987 -.16 .16 .987 -28.839 46.617)"/><path d="m280.601 174.008c13.724 2.367 24.164 14.326 24.164 28.726s-10.44 26.359-24.164 28.726c-13.724-2.367-24.164-14.326-24.164-28.726s10.44-26.359 24.164-28.726z" fill="#fdd7ad" fill-rule="evenodd"/></g><g fill-rule="evenodd"><path d="m347.541 139.408c.55 2.697-1.19 5.329-3.887 5.879s-5.329-1.19-5.879-3.887c-1.288-6.212-2.677-12.223-4.16-18.016-16.558 2.182-34.396 3.458-53.003 3.652v12.352c0 2.761-2.239 5-5 5s-5-2.239-5-5v-12.352c-18.607-.194-36.445-1.471-53.003-3.652-1.483 5.792-2.872 11.804-4.16 18.016-.55 2.697-3.182 4.437-5.879 3.887s-4.436-3.182-3.887-5.879c1.244-6.002 2.583-11.827 4.01-17.461-8.121-1.289-15.886-2.801-23.23-4.515-6.994-1.632-13.615-3.452-19.809-5.439-4.574 7.943-8.779 16.381-12.572 25.253-1.079 2.535-4.008 3.715-6.543 2.637s-3.715-4.008-2.637-6.543c3.69-8.631 7.76-16.874 12.175-24.683-13.403-5.066-24.294-10.997-31.952-17.545-.212-.163-.424-.327-.635-.492 2.473-2.291 4.997-4.525 7.571-6.704 7.12 5.944 17.416 11.368 30.196 16.035 7.361-11.767 15.548-22.403 24.425-31.708-5.193-1.466-10.091-3.054-14.656-4.753-2.344-.872-4.642-1.824-6.907-2.845 3.724-2.149 7.519-4.185 11.373-6.123 5.642 2.057 11.818 3.941 18.455 5.628 2.146-1.96 4.327-3.847 6.541-5.656 9.916-8.102 20.491-14.667 31.581-19.479 14.401-2.887 29.294-4.41 44.544-4.41s30.144 1.524 44.545 4.411c11.09 4.812 21.665 11.377 31.58 19.479 2.213 1.809 4.393 3.694 6.538 5.653 6.616-1.684 12.787-3.568 18.447-5.631 3.829 1.925 7.6 3.946 11.301 6.079-6.995 3.13-14.111 5.645-21.403 7.729 8.847 9.286 17.007 19.893 24.347 31.626 12.78-4.668 23.075-10.092 30.196-16.035 2.574 2.179 5.098 4.414 7.571 6.705-.211.164-.423.329-.635.492-7.659 6.548-18.55 12.479-31.953 17.545 4.415 7.808 8.485 16.052 12.175 24.683 1.079 2.535-.102 5.464-2.637 6.543s-5.464-.102-6.543-2.637c-3.794-8.873-7.998-17.31-12.572-25.253-6.194 1.988-12.815 3.807-19.809 5.439-7.344 1.713-15.109 3.226-23.23 4.515 1.426 5.634 2.765 11.46 4.01 17.461zm7.895-68.232c-6.589 1.494-13.338 2.726-20.285 3.821-2.32.366-4.672.711-7.053 1.035 4.742 10.665 9.05 22.819 12.837 36.212 8.258-1.285 16.136-2.806 23.561-4.538 5.885-1.373 11.477-2.875 16.739-4.493-7.748-12.084-16.403-22.845-25.798-32.037zm-37.716 6.112c-11.826 1.257-24.269 2-37.107 2.154v37.595c17.68-.188 34.619-1.367 50.364-3.383-3.907-13.613-8.359-25.831-13.257-36.366zm-47.107 2.154c-12.839-.154-25.281-.897-37.107-2.154-4.898 10.535-9.35 22.753-13.257 36.367 15.745 2.016 32.684 3.195 50.365 3.383v-37.595zm-47.485-3.409c-2.381-.324-4.733-.669-7.053-1.035-7.055-1.112-13.81-2.417-20.21-3.895-9.424 9.208-18.105 19.994-25.873 32.111 5.262 1.618 10.854 3.12 16.74 4.493 7.425 1.732 15.303 3.253 23.561 4.538 3.787-13.393 8.095-25.546 12.837-36.212zm-18.151-13.145c4.076.826 8.288 1.583 12.621 2.267 3.28.517 6.632.992 10.05 1.421 1.698-3.301 3.444-6.422 5.233-9.352 4.067-6.66 8.382-12.373 12.912-17.039-14.194 4.422-27.644 11.934-40.016 22.044-.267.218-.534.439-.8.659zm33.338 4.862c10.31.977 21.125 1.559 32.298 1.693v-33.284c-10.312 2.285-20.238 11.554-29.217 26.259-1.043 1.707-2.07 3.486-3.081 5.331zm42.298 1.693c11.174-.134 21.988-.715 32.298-1.693-1.011-1.846-2.039-3.623-3.081-5.331-8.979-14.704-18.905-23.974-29.216-26.259v33.282zm42.965-2.866c3.418-.43 6.77-.904 10.05-1.421 4.333-.683 8.544-1.44 12.621-2.267-.266-.22-.533-.441-.8-.659-12.372-10.11-25.822-17.622-40.016-22.044 4.529 4.665 8.845 10.379 12.912 17.039 1.789 2.93 3.535 6.051 5.233 9.352z" fill="#2a92fa"/><path d="m391.05 391.86c1.273-2.438 4.281-3.382 6.718-2.109s3.382 4.281 2.109 6.718c-9.432 18.041-20.649 33.965-33.264 47.203 7.295 2.085 14.413 4.601 21.411 7.732-3.7 2.133-7.472 4.155-11.301 6.079-5.663-2.064-11.837-3.948-18.456-5.633-4.233 3.866-8.601 7.443-13.091 10.711-7.994 5.818-16.371 10.662-25.06 14.431-14.388 2.881-29.267 4.403-44.502 4.403s-30.099-1.52-44.479-4.398c-2.46-1.066-4.896-2.218-7.306-3.454-10.904-5.594-21.247-12.898-30.881-21.693-6.636 1.687-12.813 3.571-18.454 5.628-3.854-1.938-7.649-3.975-11.373-6.123 2.265-1.022 4.563-1.974 6.907-2.845 4.564-1.699 9.46-3.287 14.652-4.752-2.194-2.299-4.345-4.679-6.451-7.136-1.79-2.092-1.545-5.241.547-7.031s5.241-1.546 7.031.547c3.249 3.791 6.606 7.381 10.061 10.759 6.399-1.478 13.154-2.782 20.207-3.894 2.317-.365 4.665-.71 7.043-1.033-.936-2.104-1.855-4.264-2.756-6.479-1.035-2.556.198-5.468 2.754-6.504 2.556-1.035 5.468.198 6.503 2.754 1.265 3.114 2.564 6.106 3.895 8.971 11.823-1.257 24.263-1.999 37.099-2.153v-14.731c0-2.761 2.239-5 5-5s5 2.239 5 5v14.731c12.839.154 25.283.897 37.11 2.154 4.174-8.986 8.03-19.212 11.505-30.498.809-2.632 3.599-4.11 6.23-3.301 2.632.809 4.11 3.599 3.301 6.231-3.231 10.493-6.801 20.145-10.663 28.823 2.382.324 4.734.669 7.055 1.035 6.949 1.096 13.7 2.328 20.291 3.822 13.581-13.289 25.618-29.859 35.607-48.965zm-186.074 57.253c7.432 6.168 15.251 11.392 23.383 15.564 5.661 2.904 11.482 5.3 17.439 7.153-.262-.27-.525-.544-.786-.822-6.205-6.592-12.029-15.218-17.369-25.583-3.416.429-6.766.903-10.045 1.42-4.334.683-8.546 1.44-12.623 2.267zm33.342-4.862c4.39 8.02 9.065 14.722 13.96 19.922 5.889 6.257 12.046 10.265 18.336 11.665v-33.279c-11.173.134-21.987.715-32.296 1.692zm42.296-1.692v33.281c7.981-1.775 15.745-7.746 23.021-17.184 3.215-4.17 6.316-8.989 9.283-14.403-10.312-.978-21.129-1.559-32.304-1.693zm42.96 2.866c-3.791 7.362-7.818 13.84-12.048 19.324-1.983 2.572-4.015 4.933-6.093 7.073 11.887-3.7 23.247-9.564 33.884-17.306 2.349-1.71 4.662-3.512 6.94-5.401-4.079-.827-8.293-1.585-12.628-2.268-3.282-.517-6.636-.992-10.055-1.422z" fill="#2a92fa"/><g><path d="m266.362 326.095c-.613-10.796-9.153-21.251-28.286-21.757-30.464-.805-41.243-1.735-71.863-5.48-19.554-2.392-35.693 9.744-50.527 22.705-25.061 21.898-39.771 31.295-68.39 48.278l64.091 73.349c31.611-33.117 50.633-36.08 82.641-35.464 30.084.577 33.685 2.8 63.016-9.791l129.613-60.724c32.788-15.361 10.386-47.366-16.193-35.531-32.093 14.284-85.63 30.817-105.662 34.074 1.204-2.791 1.77-5.993 1.562-9.659z" fill="#fdd7ad"/><path d="m266.362 326.095c-.487-8.579-5.981-16.942-17.817-20.269 3.451 4.058 5.248 9.355 5.512 13.987.242 4.171-.891 7.36-3.562 10.021-12.549 12.51-52.01 10.133-70.965 8.984-3.214-.196-5.984-.357-8.3-.453-4.118-.154-7.583 3.057-7.746 7.183-.154 4.119 3.06 7.596 7.183 7.747 2.138.085 4.844.246 7.965.434 31.495 1.905 66.447 2.605 82.414-13.315 1.441-1.442 2.697-2.986 3.754-4.658 1.204-2.791 1.77-5.993 1.562-9.659zm-170.953 99.629 9.149-9.087c29.483-27.49 55.629-26.711 83.94-26.152 24.708.439 35.862 4.549 60.645-6.073l134.176-61.919c9.594-4.495 13.912-10.897 11.254-16.709-.867-1.897-2.88-4.011-5.624-5.662 15.878 4.805 22.228 25.6-2.294 37.089l-129.613 60.724c-29.33 12.591-32.932 10.369-63.016 9.791-32.008-.616-51.03 2.346-82.641 35.464l-15.977-17.466z" fill="#e6b17c"/><path d="m13.945 400.112 63.281 72.423c4.35 4.978 11.981 5.492 16.959 1.142l19.301-16.865c4.978-4.349 5.491-11.981 1.142-16.959l-63.282-72.423c-4.349-4.978-11.981-5.492-16.959-1.143l-19.301 16.865c-4.977 4.349-5.492 11.982-1.143 16.959z" fill="#2a92fa"/><path d="m63.888 457.269 13.339 15.266c4.35 4.978 11.981 5.492 16.959 1.142l19.301-16.865c4.978-4.349 5.491-11.981 1.142-16.959l-15.54-17.784s-35.201 35.2-35.201 35.2z" fill="#0e82f5"/></g></g></svg>