<svg id="Layer_1" enable-background="new 0 0 512 512" height="512" viewBox="0 0 512 512" width="512" xmlns="http://www.w3.org/2000/svg" xmlns:xlink="http://www.w3.org/1999/xlink"><linearGradient id="SVGID_1_" gradientUnits="userSpaceOnUse" x1="159.822" x2="389.562" y1="453.664" y2="55.744"><stop offset=".0437" stop-color="#008fe7"/><stop offset=".7537" stop-color="#00e9d3"/></linearGradient><path clip-rule="evenodd" d="m67.518 217h-26.33c-19.314 0-35.189 15.873-35.189 35.186v92.402c0 19.314 15.875 35.188 35.189 35.188h26.33c4.92 0 8.857-4.064 8.857-8.982v-144.814c0-4.921-3.937-8.98-8.857-8.98zm188.484-100.891c-42.199 30.639-97.318 41.465-149.361 29.412v179.254c0 52.656 51.305 99.777 104.332 123.4 2.584-8.607 10.576-15.012 20.051-15.012h49.953c9.473 0 17.471 6.404 20.057 15.012 53.025-23.623 104.33-70.744 104.33-123.4v-179.254c-52.044 12.053-107.161 1.227-149.362-29.412zm-98.057 195.873c-6.646-6.645-6.646-17.348 0-23.986 6.643-6.648 17.346-6.648 23.992 0l41.584 41.578 105.316-131.152c5.904-7.387 16.482-8.488 23.867-2.588 7.26 5.787 8.367 16.492 2.584 23.75l-116.39 145.055c-.615.736-1.229 1.6-1.965 2.342-6.648 6.639-17.348 6.639-23.992 0zm73.078 133.739h49.953c4.674 0 8.365 3.811 8.365 8.363v3.318h82.799c21.658 0 41.463-8.729 55.98-22.758 11.691-11.193 19.936-25.959 23.254-42.324h12.672c-3.445 19.932-13.287 37.768-27.311 51.305-16.854 16.242-39.615 26.207-64.596 26.207h-82.799v11.443c0 4.672-3.691 8.361-8.365 8.361h-49.953c-4.67 0-8.363-3.689-8.363-8.361v-27.191c.001-4.553 3.695-8.363 8.364-8.363zm213.463-228.721h26.332c19.313 0 35.184 15.873 35.184 35.186v92.402c0 19.314-15.871 35.188-35.184 35.188h-26.332c-4.92 0-8.859-4.064-8.859-8.982v-144.814c0-4.921 3.939-8.98 8.859-8.98zm-212.599-194.637h48.229c102.732 0 187.377 80.955 193.281 182.211-.857 0-1.719 0-2.578 0h-26.332-.367c-5.906-85.26-77.389-153.051-164.004-153.051h-48.229c-86.615 0-158.098 67.791-164.002 153.051h-.367-26.33c-.859 0-1.723 0-2.582 0 5.904-101.256 90.548-182.211 193.281-182.211z" fill="url(#SVGID_1_)" fill-rule="evenodd"/></svg>