<svg id="Layer_1" enable-background="new 0 0 512 512" height="512" viewBox="0 0 512 512" width="512" xmlns="http://www.w3.org/2000/svg" xmlns:xlink="http://www.w3.org/1999/xlink"><linearGradient id="SVGID_1_" gradientUnits="userSpaceOnUse" x1="106.306" x2="358.546" y1="429.549" y2="-7.344"><stop offset=".0437" stop-color="#008fe7"/><stop offset=".7537" stop-color="#00e9d3"/></linearGradient><path clip-rule="evenodd" d="m225.311 495.802c-149.23-67.045-222.306-201.755-219.229-404.132.123-9.596 7.384-17.344 16.855-18.327 37.03-3.941 70.613-24.238 91.161-55.61 3.563-5.412 9.104-8.362 15.622-8.362h252.567c6.518 0 12.056 2.95 15.623 8.362 20.545 31.372 54.13 51.669 91.158 55.61 9.473.983 16.613 8.731 16.856 18.327 2.952 202.377-70.122 337.087-219.228 404.132-20.297 9.102-41.212 9.102-61.385 0zm-86.979-267.698h235.22c8.98 0 16.365 7.38 16.365 16.364v116.379c0 42.81-34.941 77.627-77.628 77.627h-112.569c-42.688 0-77.629-34.817-77.629-77.627v-116.38c0-8.984 7.385-16.363 16.241-16.363zm148.857-101.494c31.372 0 56.962 21.285 56.962 47.485v32.232h-31.739v-32.232c0-10.825-16.856-15.868-25.223-15.868h-62.493c-8.244 0-25.1 5.043-25.1 15.868v32.232h-31.74v-32.232c0-26.201 25.59-47.485 56.84-47.485zm-83.655 216.398c-3.445-3.078-3.814-8.367-.861-11.809 3.078-3.445 8.367-3.814 11.809-.737l24.854 21.649 57.081-74.552c2.708-3.568 7.998-4.305 11.566-1.475 3.689 2.704 4.43 7.993 1.598 11.563l-62.37 81.688c-.127.124-.246.246-.373.37-3.072 3.446-8.362 3.81-11.809.737zm86.977-162.267c-1.229-.374-2.584-.619-3.321-.619h-62.371c-.86 0-2.095.246-3.445.619v25.586h69.138v-25.586zm-144.553 25.587v-32.232c0-41.828 39.491-69.385 78.738-69.385h62.493c39.369 0 78.857 27.557 78.857 69.385v32.232h7.505c21.04 0 38.26 17.101 38.26 38.14v116.379c0 54.868-44.777 99.527-99.522 99.527h-112.569c-54.746 0-99.521-44.659-99.521-99.527v-116.38c0-21.039 17.095-38.14 38.134-38.14h7.625zm289.722-74.306c-14.643-5.29-28.543-12.304-41.456-20.917-13.534-8.977-25.96-19.805-36.913-31.981h-202.62c-10.946 12.176-23.374 23.005-36.906 31.981-12.914 8.613-26.815 15.627-41.459 20.917 1.11 28.791 4.185 56.593 9.597 83.163-4.798 8.736-7.625 18.699-7.625 29.282v8.977c-11.689-39.365-17.348-81.93-18.822-126.465-.369-3.814 1.966-7.379 5.781-8.612 15.376-5.043 29.893-12.177 43.303-21.035 13.163-8.857 25.221-19.437 35.678-31.494 1.602-2.094 3.938-3.446 6.645-3.446h210.121v.123c2.34 0 4.675.983 6.398 2.827 10.579 12.303 22.761 23.004 36.047 31.99 13.406 8.858 27.927 15.991 43.303 21.035 3.445 1.106 5.781 4.306 5.781 8.12-1.475 44.659-7.133 87.469-18.945 126.957v-8.977c0-10.583-2.707-20.546-7.506-29.282 5.416-26.569 8.364-54.372 9.598-83.163z" fill="url(#SVGID_1_)" fill-rule="evenodd"/></svg>