<svg id="a" height="512" viewBox="0 0 512 512" width="512" xmlns="http://www.w3.org/2000/svg"><g><path d="m192.71 79.62c.06.04.12.09.19.14.58.48 1.01 1.16 1.16 1.96 5.65 30 30.59 52.01 62.37 52.01s57.39-21.97 63.06-52.01c.14-.74.51-1.38 1.03-1.84.01-.02.02-.03.03-.02.76-.7 1.84-1.02 2.92-.78l82.17 9.45c.49.11.96.28 1.4.53l87.44 55.16c1.45.92 1.94 2.8 1.13 4.3l-45.33 83.8c-.81 1.49-2.64 2.12-4.19 1.42l-44.39-19.81c-3.34-1.49-7.11.95-7.11 4.6v204.34c0 5.6-4.54 10.13-10.14 10.13h-256.9c-5.6 0-10.14-4.53-10.14-10.13v-204.34c0-3.65-3.77-6.09-7.11-4.6l-44.39 19.81c-1.55.7-3.38.07-4.19-1.42l-45.33-83.8c-.81-1.5-.32-3.38 1.13-4.3l87.44-55.16c.44-.25.91-.42 1.4-.53l83.71-9.45c.95-.21 1.9.01 2.64.54z" fill="#50dd5a"/><path d="m320.52 79.88c-.52.46-.89 1.1-1.03 1.84-5.67 30.04-31.26 52.01-63.06 52.01s-56.72-22.01-62.37-52.01c-.15-.8-.58-1.48-1.16-1.96 3.86 2.59 60.91 39.48 127.62.12z" fill="#35a53a"/></g><g fill="#3eba44"><path d="m17.52 144.22c-1.45.92-1.94 2.8-1.13 4.3l45.33 83.8c.81 1.49 2.64 2.12 4.19 1.42l25.767-11.499-50.03-93.241z"/><path d="m138.3 199.93-24.518 13.772c2.032.603 3.628 2.456 3.628 4.828v204.34c0 5.6 4.54 10.13 10.14 10.13h17.86v-228.47c0-3.65-3.77-6.09-7.11-4.6z"/></g></svg>