<svg height="512" viewBox="0 0 64 64" width="512" xmlns="http://www.w3.org/2000/svg"><g id="open-shop-market-store-shopping"><path d="m7 17h50v40h-50z" fill="#57a4ff"/><path d="m17 57h40v-40a40 40 0 0 1 -40 40z" fill="#2488ff"/><path d="m48 39a1 1 0 0 1 -.529-.152l-16-10a1 1 0 0 1 1.06-1.7l16 10a1 1 0 0 1 -.531 1.852z" fill="#ffcd00"/><path d="m16 39a1 1 0 0 1 -.531-1.848l16-10a1 1 0 0 1 1.06 1.7l-16 10a1 1 0 0 1 -.529.148z" fill="#ffcd00"/><path d="m4 17v2a4 4 0 0 0 8 0v-2z" fill="#ff5023"/><path d="m16 7h-1.89-6.11l-4 10h8z" fill="#ff7956"/><path d="m52 19a4 4 0 0 0 8 0v-2h-8z" fill="#ff5023"/><path d="m49 7 3 10h8l-4-10h-2.11z" fill="#ff7956"/><path d="m7 57h-4v4h58v-4h-4z" fill="#005ece"/><rect fill="#5eac24" height="16" rx="2" width="42" x="11" y="37"/><path d="m34.45 53h16.55a2.006 2.006 0 0 0 2-2v-12a2 2 0 0 0 -1.42-1.9 40.163 40.163 0 0 1 -17.13 15.9z" fill="#4e901e"/><path d="m28 17v2a4 4 0 0 0 8 0v-2z" fill="#d80027"/><path d="m36 17v2a4 4 0 0 0 8 0v-2z" fill="#ff5023"/><path d="m44 17v2a4 4 0 0 0 8 0v-2z" fill="#d80027"/><path d="m20 17v2a4 4 0 0 0 8 0v-2z" fill="#ff5023"/><path d="m12 17v2a4 4 0 0 0 8 0v-2z" fill="#d80027"/><path d="m36 17-1-10h-6l-1 10z" fill="#ed1c24"/><path d="m44 17-2-10h-7l1 10z" fill="#ff7956"/><path d="m52 17-3-10h-1-6l2 10z" fill="#ed1c24"/><path d="m20 17 3-10h-6-1l-4 10z" fill="#ed1c24"/><path d="m28 17 1-10h-6l-3 10z" fill="#ff7956"/><path d="m56 5v2h-48v-2a2.006 2.006 0 0 1 2-2h44a2.006 2.006 0 0 1 2 2z" fill="#006df0"/><circle cx="32" cy="28" fill="#ed1c24" r="2"/><g fill="#f1f2f2"><path d="m22 40a3 3 0 0 0 -3 3v4a3 3 0 0 0 6 0v-4a3 3 0 0 0 -3-3zm1 7a1 1 0 0 1 -2 0v-4a1 1 0 0 1 2 0z"/><path d="m29 40h-2a1 1 0 0 0 -1 1v8a1 1 0 0 0 2 0v-3h1a3 3 0 0 0 0-6zm0 4h-1v-2h1a1 1 0 0 1 0 2z"/><path d="m37 42a1 1 0 0 0 0-2h-3a1 1 0 0 0 -1 1v8a1 1 0 0 0 1 1h3a1 1 0 0 0 0-2h-2v-2h2a1 1 0 0 0 0-2h-2v-2z"/><path d="m44 40a1 1 0 0 0 -1 1v3.764l-2.1-4.211a1 1 0 0 0 -1.9.447v8a1 1 0 0 0 2 0v-3.764l2.1 4.211a1 1 0 0 0 1.9-.447v-8a1 1 0 0 0 -1-1z"/></g></g></svg>