<svg height="512" viewBox="0 0 512 512" width="512" xmlns="http://www.w3.org/2000/svg"><g id="Layer_2" data-name="Layer 2"><g id="celebration_"><circle id="background" cx="256" cy="256" fill="#ace852" r="256"/><g fill="#6bc800"><path d="m498.15 339.26a256.73 256.73 0 0 1 -121.15 142.38l-295.55-295.55c46.67-.35 48.66-47.27 48.66-47.27l104.44 104.44 21.45-48.26-75.09-75c.24 0 25.45-.06 25.45-25.33l179.64 179.63s15.46-14.7 14.73-32.44z"/><path d="m512 256a256.17 256.17 0 0 1 -9.78 70.33l-182.35-182.33s50 1.64 48.66-48.41l142.87 142.85q.6 8.7.6 17.56z"/><path d="m325.7 502.4a254.7 254.7 0 0 1 -52.3 9l-138.74-138.74c30.16-.68 30.73-30.57 30.73-30.57z"/></g><path d="m250.71 354.63a6.07 6.07 0 0 1 -6-4.75c-10.6-46.38-38.52-74.38-85.33-85.61a6.1 6.1 0 0 1 .06-11.87c46.32-10.65 74.26-38.46 85.42-85a6.1 6.1 0 0 1 11.87 0c10.87 46.15 38.79 74 85.36 85.18a6.1 6.1 0 0 1 -.06 11.87c-46.35 10.64-74.3 38.6-85.44 85.49a6.09 6.09 0 0 1 -5.88 4.69z"/><path d="m251.91 168.55c11.37 48.22 40.85 77.33 89.06 88.89a1.1 1.1 0 0 1 0 2.14c-48.65 11.16-77.71 40.92-89.19 89.2a1.09 1.09 0 0 1 -2.13 0c-11.13-48.66-40.64-77.76-89-89.36a1.1 1.1 0 0 1 0-2.14c48.36-11.12 77.59-40.46 89.17-88.73a1.09 1.09 0 0 1 2.09 0z" fill="#ed3f03"/><path d="m132.81 240.24a5.53 5.53 0 0 1 -5.42-4.33c-5.27-23-19.14-36.95-42.41-42.53a5.57 5.57 0 0 1 .02-10.84c23-5.29 36.88-19.11 42.43-42.24a5.57 5.57 0 0 1 10.83 0c5.41 22.93 19.28 36.77 42.42 42.32a5.57 5.57 0 0 1 -.05 10.84c-23 5.29-36.9 19.18-42.44 42.48a5.55 5.55 0 0 1 -5.38 4.3z"/><path d="m133.44 141.47c5.88 25 21.15 40.05 46.12 46a.57.57 0 0 1 0 1.11c-25.19 5.78-40.24 21.19-46.18 46.19a.57.57 0 0 1 -1.11 0c-5.76-25.2-21-40.27-46.11-46.28a.57.57 0 0 1 0-1.11c25-5.75 40.18-20.95 46.17-45.94a.57.57 0 0 1 1.11.03z" fill="#fcb424"/><path d="m375.8 416.92a5.53 5.53 0 0 1 -5.41-4.32c-5.07-22.17-18.39-35.6-40.81-40.93a5.55 5.55 0 0 1 .05-10.8c22.15-5.09 35.51-18.39 40.85-40.66a5.55 5.55 0 0 1 10.79 0c5.2 22.07 18.56 35.39 40.83 40.73a5.55 5.55 0 0 1 -.05 10.81c-22.16 5.08-35.52 18.45-40.85 40.88a5.54 5.54 0 0 1 -5.4 4.29z"/><path d="m376.41 321.38c5.68 24.11 20.42 38.67 44.53 44.45a.55.55 0 0 1 0 1.07c-24.33 5.58-38.86 20.46-44.59 44.6a.55.55 0 0 1 -1.07 0c-5.57-24.33-20.32-38.88-44.52-44.68a.55.55 0 0 1 0-1.07c24.18-5.56 38.8-20.23 44.59-44.36a.55.55 0 0 1 1.06-.01z" fill="#fcb424"/><path d="m366.06 199.86a5.56 5.56 0 0 1 -5.44-4.33c-5.35-23.4-19.43-37.52-43-43.18a5.58 5.58 0 0 1 .05-10.86c23.35-5.37 37.44-19.4 43.08-42.88a5.57 5.57 0 0 1 10.85 0c5.48 23.27 19.57 37.32 43.06 43a5.58 5.58 0 0 1 -.05 10.86c-23.37 5.36-37.47 19.46-43.09 43.12a5.56 5.56 0 0 1 -5.46 4.27z"/><path d="m366.69 99.78c6 25.32 21.45 40.6 46.76 46.67a.58.58 0 0 1 0 1.13c-25.55 5.86-40.81 21.48-46.83 46.83a.58.58 0 0 1 -1.13 0c-5.84-25.55-21.34-40.83-46.75-46.93a.57.57 0 0 1 0-1.12c25.39-5.84 40.74-21.24 46.82-46.58a.57.57 0 0 1 1.13 0z" fill="#fcb424"/><path d="m207.8 153.63a5.27 5.27 0 0 1 -5.17-4.12c-2.62-11.44-9.23-18.07-20.8-20.84a5.31 5.31 0 0 1 .06-10.33c11.42-2.62 18-9.2 20.79-20.7a5.3 5.3 0 0 1 10.32 0c2.68 11.4 9.29 18 20.8 20.75a5.3 5.3 0 0 1 -.05 10.33c-11.43 2.62-18 9.24-20.8 20.83a5.27 5.27 0 0 1 -5.15 4.08z"/><path d="m208.13 98.8c3.13 13.27 11.24 21.28 24.51 24.47a.3.3 0 0 1 0 .58c-13.38 3.08-21.38 11.26-24.54 24.55a.3.3 0 0 1 -.59 0c-3.07-13.4-11.19-21.4-24.51-24.59a.3.3 0 0 1 0-.59c13.31-3.06 21.36-11.14 24.54-24.42a.3.3 0 0 1 .59 0z" fill="#07b7ee"/><path d="m167.45 404.63a5.33 5.33 0 0 1 -5.22-4.17c-3.21-14-11.31-22.15-25.5-25.56a5.36 5.36 0 0 1 0-10.43c14-3.23 22.13-11.29 25.51-25.39a5.36 5.36 0 0 1 10.43 0c3.3 14 11.4 22.06 25.51 25.45a5.36 5.36 0 0 1 -.05 10.43c-14 3.22-22.13 11.33-25.5 25.54a5.35 5.35 0 0 1 -5.18 4.13z"/><path d="m167.85 340.24c3.72 15.82 13.39 25.37 29.21 29.16a.36.36 0 0 1 0 .7c-16 3.66-25.48 13.42-29.25 29.25a.36.36 0 0 1 -.7 0c-3.65-16-13.33-25.5-29.2-29.31a.36.36 0 0 1 0-.7c15.86-3.65 25.45-13.27 29.25-29.1a.36.36 0 0 1 .69 0z" fill="#07b7ee"/><path d="m397.17 304.24a5.32 5.32 0 0 1 -5.21-4.16c-3-13.31-10.73-21-24.19-24.25a5.34 5.34 0 0 1 .06-10.4c13.29-3.06 21-10.72 24.19-24.09a5.34 5.34 0 0 1 10.39 0c3.13 13.25 10.82 20.92 24.21 24.13a5.35 5.35 0 0 1 -.06 10.41c-13.3 3.05-21 10.75-24.19 24.23a5.34 5.34 0 0 1 -5.2 4.13z"/><path d="m397.55 242.5c3.56 15.11 12.79 24.23 27.9 27.86a.34.34 0 0 1 0 .66c-15.25 3.5-24.35 12.83-27.95 28a.34.34 0 0 1 -.67 0c-3.48-15.25-12.73-24.36-27.89-28a.34.34 0 0 1 0-.67c15.15-3.48 24.31-12.68 27.94-27.8a.35.35 0 0 1 .67-.05z" fill="#07b7ee"/></g></g></svg>