<svg id="Layer_1" enable-background="new 0 0 512 512" viewBox="0 0 512 512" xmlns="http://www.w3.org/2000/svg" xmlns:xlink="http://www.w3.org/1999/xlink"><linearGradient id="SVGID_1_" gradientUnits="userSpaceOnUse" x1="256" x2="256" y1="56.938" y2="455.062"><stop offset="0" stop-color="#17a6d7"/><stop offset=".0617" stop-color="#259adb"/><stop offset=".1856" stop-color="#3b87e2"/><stop offset=".2649" stop-color="#4380e4"/><stop offset="1" stop-color="#9735fd"/></linearGradient><path d="m53.634 195.595c1.932-3.34 6.208-4.481 9.547-2.549l12.957 7.497c3.34 1.933 4.482 6.207 2.549 9.548-1.295 2.238-3.642 3.489-6.054 3.489-1.188 0-2.391-.303-3.493-.94l-12.957-7.497c-3.341-1.932-4.482-6.207-2.549-9.548zm211.026-71.155c-1.42 1.32-2.22 3.18-2.22 5.12v37.91c0 3.61 2.75 6.62 6.34 6.95 34.71 3.2 66.73 19.26 90.17 45.23 1.36 1.5 3.26 2.3 5.19 2.3 1.04 0 2.08-.23 3.06-.7l35.02-17.09c1.91-.93 3.29-2.68 3.76-4.75.46-2.07-.04-4.24-1.37-5.9-33.06-41.27-82.15-67.12-134.68-70.92-1.94-.13-3.85.53-5.27 1.85zm-234.387 127.531c-.999 3.727 1.212 7.559 4.94 8.558l14.456 3.875c.606.163 1.215.24 1.814.24 3.085 0 5.908-2.058 6.745-5.18 1-3.727-1.212-7.559-4.94-8.558l-14.456-3.875c-3.729-.999-7.56 1.212-8.559 4.94zm170.911-137.065c.599 0 1.208-.077 1.814-.24 3.727-.999 5.939-4.831 4.94-8.558l-3.876-14.457c-.999-3.727-4.833-5.939-8.559-4.939-3.727.999-5.939 4.831-4.94 8.559l3.876 14.456c.837 3.121 3.66 5.179 6.745 5.179zm-151.515 245.595-14.456 3.876c-3.728.999-5.939 4.831-4.94 8.559.837 3.121 3.66 5.179 6.745 5.179.599 0 1.208-.077 1.814-.24l14.456-3.875c3.727-.999 5.939-4.831 4.939-8.559-.999-3.727-4.833-5.943-8.558-4.94zm-27.329-48.048c0 3.859 3.128 6.988 6.987 6.988h14.965c3.859 0 6.987-3.129 6.987-6.988 0-3.86-3.129-6.988-6.987-6.988h-14.965c-3.859 0-6.987 3.128-6.987 6.988zm339.528-176.386c2.417 0 4.767-1.255 6.06-3.5l7.469-12.957c1.927-3.343.779-7.616-2.564-9.543-3.342-1.926-7.616-.779-9.543 2.565l-7.468 12.958c-1.927 3.343-.779 7.616 2.564 9.543 1.099.633 2.298.934 3.482.934zm-211.737 0c1.184 0 2.384-.301 3.483-.935 3.343-1.928 4.492-6.201 2.564-9.543l-7.468-12.958c-1.926-3.344-6.199-4.49-9.543-2.565-3.343 1.928-4.491 6.201-2.564 9.543l7.469 12.957c1.292 2.246 3.643 3.501 6.059 3.501zm-48.768 31.616c1.364 1.365 3.152 2.047 4.941 2.047 1.788 0 3.576-.682 4.941-2.047 2.729-2.729 2.729-7.154 0-9.883l-10.58-10.58c-2.729-2.729-7.153-2.729-9.882 0s-2.729 7.154 0 9.883zm16.027 144.767c0-14.61 2.27-29.01 6.74-42.8.96-2.96-.16-6.2-2.75-7.94l-32.33-21.79c-1.76-1.18-3.96-1.5-5.99-.87-2.02.63-3.65 2.15-4.42 4.12-8.64 22.07-13.02 45.38-13.02 69.28 0 29.06 6.39 56.94 18.98 82.89.85 1.74 2.38 3.06 4.24 3.63.67.2 1.36.31 2.05.31 1.21 0 2.42-.32 3.49-.94l32.84-18.95c3.13-1.81 4.37-5.7 2.86-8.98-8.42-18.26-12.69-37.75-12.69-57.96zm125.83-138.03c3.59-.33 6.34-3.34 6.34-6.95v-37.91c0-1.94-.8-3.8-2.22-5.12s-3.33-1.98-5.27-1.85c-52.53 3.8-101.62 29.65-134.68 70.92-1.33 1.66-1.83 3.83-1.37 5.9.47 2.07 1.85 3.82 3.76 4.75l35.02 17.09c.98.47 2.02.7 3.06.7 1.93 0 3.83-.8 5.19-2.3 23.44-25.97 55.46-42.03 90.17-45.23zm67.596-59.514c3.085 0 5.908-2.058 6.745-5.179l3.875-14.456c1-3.728-1.212-7.56-4.94-8.559-3.727-1-7.559 1.212-8.559 4.939l-3.876 14.457c-.999 3.727 1.212 7.559 4.94 8.558.608.163 1.216.24 1.815.24zm149.904 197.547c0 3.859 3.128 6.988 6.987 6.988h14.966c3.859 0 6.988-3.129 6.988-6.988 0-3.86-3.129-6.988-6.988-6.988h-14.966c-3.859 0-6.987 3.128-6.987 6.988zm12.448-65.422-14.456 3.875c-3.727.999-5.939 4.831-4.94 8.558.837 3.122 3.66 5.18 6.745 5.18.599 0 1.208-.077 1.814-.24l14.456-3.875c3.728-.999 5.939-4.831 4.94-8.558-.999-3.728-4.831-5.942-8.559-4.94zm-112.678 166.419v22.43c0 10.58-8.61 19.18-19.18 19.18h-170.62c-10.57 0-19.18-8.6-19.18-19.18v-22.43c0-10.59 8.61-19.21 19.18-19.21h170.62c10.57 0 19.18 8.62 19.18 19.21zm-157.35 11.2c0-3.86-3.13-6.99-6.99-6.99h-.39c-3.86 0-6.99 3.13-6.99 6.99s3.13 6.99 6.99 6.99h.39c3.86 0 6.99-3.13 6.99-6.99zm40.03 0c0-3.86-3.13-6.99-6.99-6.99h-.39c-3.86 0-6.99 3.13-6.99 6.99s3.13 6.99 6.99 6.99h.39c3.86 0 6.99-3.13 6.99-6.99zm40.03 0c0-3.86-3.13-6.99-6.99-6.99h-.39c-3.86 0-6.99 3.13-6.99 6.99s3.13 6.99 6.99 6.99h.39c3.86 0 6.99-3.13 6.99-6.99zm40.03 0c0-3.86-3.13-6.99-6.99-6.99h-.39c-3.86 0-6.99 3.13-6.99 6.99s3.13 6.99 6.99 6.99h.39c3.86 0 6.99-3.13 6.99-6.99zm105.71-185.6c-2.03-.63-4.23-.31-5.99.87l-32.33 21.79c-2.59 1.74-3.71 4.98-2.75 7.94 4.47 13.79 6.74 28.19 6.74 42.8 0 20.21-4.27 39.7-12.69 57.96-1.51 3.28-.27 7.17 2.86 8.98l32.84 18.95c1.07.62 2.28.94 3.49.94.69 0 1.38-.11 2.05-.31 1.86-.57 3.39-1.89 4.24-3.63 12.59-25.95 18.98-53.83 18.98-82.89 0-23.9-4.38-47.21-13.02-69.28-.77-1.97-2.4-3.49-4.42-4.12zm19.878-46.003-12.957 7.497c-3.34 1.933-4.482 6.207-2.549 9.548 1.295 2.239 3.642 3.489 6.054 3.489 1.188 0 2.391-.303 3.493-.94l12.957-7.497c3.34-1.933 4.482-6.207 2.549-9.548s-6.207-4.483-9.547-2.549zm-12.151-61.272c-48.255-48.259-112.413-74.837-180.653-74.837-68.253 0-132.419 26.578-180.678 74.837-48.259 48.259-74.836 112.424-74.836 180.678 0 49.734 14.323 97.953 41.422 139.443 2.11 3.23 6.44 4.137 9.671 2.029 3.231-2.111 4.14-6.44 2.029-9.672-25.61-39.212-39.147-84.787-39.147-131.8 0-133.185 108.354-241.539 241.539-241.539 133.169 0 241.511 108.354 241.511 241.539 0 47.012-13.537 92.588-39.147 131.8-2.111 3.232-1.202 7.561 2.029 9.672 1.179.77 2.504 1.138 3.815 1.137 2.281 0 4.516-1.115 5.856-3.167 27.099-41.49 41.422-89.709 41.422-139.443 0-68.251-26.576-132.416-74.833-180.677zm36.501 246.1c.607.163 1.215.24 1.814.24 3.085 0 5.908-2.058 6.745-5.179.999-3.728-1.212-7.56-4.939-8.559l-14.456-3.876c-3.73-1.003-7.56 1.211-8.559 4.939-1 3.728 1.212 7.56 4.939 8.559zm-217.154-114.675c9.07 0 17.925 2.482 25.607 7.178 3.293 2.013 7.594.976 9.606-2.318 2.013-3.292.976-7.593-2.317-9.606-9.878-6.039-21.253-9.231-32.896-9.231-34.864 0-63.228 28.364-63.228 63.228 0 34.848 28.364 63.2 63.228 63.2 34.848 0 63.199-28.352 63.199-63.2 0-3.86-3.129-6.988-6.987-6.988-3.859 0-6.988 3.128-6.988 6.988 0 27.142-22.082 49.224-49.224 49.224-27.158 0-49.253-22.082-49.253-49.224 0-27.156 22.095-49.251 49.253-49.251zm155.321-115.98-10.58 10.58c-2.729 2.729-2.729 7.154 0 9.883 1.364 1.365 3.152 2.047 4.941 2.047s3.576-.682 4.941-2.047l10.58-10.58c2.729-2.729 2.729-7.154 0-9.883s-7.153-2.729-9.882 0zm12.605 68.27c-1.84-3.18-5.82-4.4-9.12-2.79l-142.2 69.42c-4.93-2.72-10.59-4.27-16.61-4.27-19.07 0-34.59 15.52-34.59 34.6 0 19.07 15.52 34.57 34.59 34.57 18.81 0 34.14-15.09 34.55-33.79l131.23-88.45c3.05-2.05 3.99-6.11 2.15-9.29zm-167.926-136.684c-3.859 0-6.988 3.129-6.988 6.988v14.965c0 3.859 3.129 6.988 6.988 6.988s6.987-3.128 6.987-6.988v-14.965c.001-3.859-3.128-6.988-6.987-6.988z" fill="url(#SVGID_1_)"/></svg>