<svg fill="none" height="512" viewBox="0 0 24 24" width="512" xmlns="http://www.w3.org/2000/svg" xmlns:xlink="http://www.w3.org/1999/xlink"><linearGradient id="paint0_linear_16_2125" gradientUnits="userSpaceOnUse" x1="12" x2="12" y1="-.936" y2="24.286"><stop offset="0" stop-color="#ce9ffc"/><stop offset=".979167" stop-color="#7367f0"/></linearGradient><path d="m20.0829 10.4999 1.202.721c.0741.0444.1355.1073.1781.1825s.065.1601.065.2465c0 .0865-.0224.1714-.065.2466s-.104.1381-.1781.1824l-9.285 5.571-9.28505-5.571c-.07415-.0443-.13553-.1072-.17815-.1824s-.06502-.1601-.06502-.2466c0-.0864.0224-.1713.06502-.2465s.104-.1381.17815-.1825l1.202-.721 8.08305 4.85zm0 4.7 1.202.721c.0741.0444.1355.1073.1781.1825s.065.1601.065.2465c0 .0865-.0224.1714-.065.2466s-.104.1381-.1781.1824l-8.77 5.262c-.1556.0935-.3336.1429-.515.1429-.1815 0-.3595-.0494-.515-.1429l-8.77005-5.262c-.07415-.0443-.13553-.1072-.17815-.1824s-.06502-.1601-.06502-.2466c0-.0864.0224-.1713.06502-.2465s.104-.1381.17815-.1825l1.202-.721 8.08305 4.85zm-7.569-13.89095 8.771 5.262c.0741.04439.1355.10725.1781.18243.0426.07519.065.16014.065.24657 0 .08642-.0224.17137-.065.24656s-.104.13804-.1781.18244l-9.285 5.57095-9.28505-5.57095c-.07415-.0444-.13553-.10725-.17815-.18244s-.06502-.16014-.06502-.24656c0-.08643.0224-.17138.06502-.24657.04262-.07518.104-.13804.17815-.18243l8.77005-5.262c.1555-.09345.3335-.14281.515-.14281.1814 0 .3594.04936.515.14281z" fill="url(#paint0_linear_16_2125)"/></svg>