<svg id="Layer_1" enable-background="new 0 0 66 66" viewBox="0 0 66 66" xmlns="http://www.w3.org/2000/svg"><g><g><g><path d="m43.03 2.53-14.06 24.18 7.55 4.39 16.04-27.56c.39-.67-.09-1.5-.86-1.5h-7.8c-.36-.01-.69.18-.87.49z" fill="#009834"/><path d="m36.52 31.86c-.13 0-.26-.03-.38-.1l-7.55-4.39c-.36-.21-.48-.67-.27-1.03l14.07-24.19c.31-.54.89-.87 1.51-.87h7.79c.63 0 1.2.33 1.52.88s.31 1.2 0 1.75l-16.04 27.57c-.1.17-.26.3-.46.35-.06.02-.13.03-.19.03zm-6.53-5.42 6.25 3.64 15.67-26.92c.06-.11.03-.2 0-.25s-.09-.12-.22-.12h-7.79c-.09 0-.17.05-.22.12z"/></g><g><path d="m13.44 3.54 16.04 27.57 7.55-4.39-14.06-24.19c-.18-.31-.51-.5-.86-.5h-7.79c-.78 0-1.26.84-.88 1.51z" fill="#009834"/><path d="m29.48 31.86c-.26 0-.51-.13-.65-.37l-16.04-27.58c-.32-.55-.32-1.2 0-1.75s.88-.88 1.52-.88h7.79c.62 0 1.2.33 1.51.87l14.07 24.18c.1.17.13.38.08.57s-.18.36-.35.46l-7.55 4.39c-.12.07-.25.11-.38.11zm-15.39-28.7 15.66 26.92 6.25-3.64-13.68-23.53c-.04-.08-.13-.12-.22-.12h-7.79c-.12 0-.19.08-.22.13-.03.04-.06.13 0 .24z"/></g></g><g><g><path d="m52.14 46.58c-1.05 1.07-1.46 2.6-1.09 4.04v.01c.59 2.23-.74 4.52-2.97 5.13-1.44.39-2.56 1.52-2.95 2.95-.61 2.23-2.9 3.55-5.13 2.97-1.44-.38-2.97.03-4.03 1.08l-.01.01c-1.64 1.62-4.28 1.62-5.92 0l-.01-.01c-1.06-1.05-2.59-1.46-4.03-1.08h-.01c-2.23.59-4.52-.74-5.13-2.97-.39-1.44-1.52-2.56-2.95-2.95-2.23-.61-3.55-2.9-2.97-5.13.38-1.44-.03-2.97-1.08-4.03l-.01-.01c-1.62-1.64-1.62-4.28 0-5.92l.01-.01c1.05-1.06 1.46-2.59 1.08-4.03v-.01c-.59-2.23.74-4.52 2.97-5.13 1.44-.39 2.56-1.52 2.95-2.95.61-2.23 2.9-3.55 5.13-2.97 1.44.38 2.97-.03 4.03-1.08l.01-.01c1.64-1.62 4.28-1.62 5.92 0l.01.01c1.06 1.05 2.59 1.46 4.03 1.08h.01c2.23-.59 4.52.74 5.13 2.97.39 1.44 1.52 2.56 2.95 2.95 2.23.61 3.55 2.9 2.97 5.13-.38 1.44.03 2.97 1.08 4.03l.01.01c1.62 1.64 1.62 4.28 0 5.92z" fill="#fedc00"/><path d="m33 64.72c-1.26 0-2.52-.48-3.48-1.43-.87-.86-2.14-1.2-3.32-.89-2.63.69-5.34-.88-6.05-3.49-.32-1.18-1.25-2.11-2.43-2.43-2.61-.71-4.18-3.42-3.49-6.04.31-1.18-.03-2.45-.89-3.32-1.91-1.93-1.91-5.06-.01-6.98.86-.87 1.2-2.14.89-3.32-.69-2.63.88-5.34 3.49-6.05 1.18-.32 2.11-1.25 2.43-2.43.71-2.61 3.42-4.18 6.05-3.49 1.18.31 2.45-.03 3.32-.89 1.93-1.91 5.06-1.91 6.98-.01.88.86 2.14 1.2 3.32.89 2.62-.69 5.34.88 6.05 3.49.32 1.18 1.25 2.11 2.43 2.43 2.61.71 4.18 3.42 3.49 6.04-.31 1.18.03 2.45.88 3.32 1.91 1.93 1.91 5.06.01 6.98-.87.89-1.2 2.15-.89 3.32.69 2.62-.88 5.34-3.49 6.05-1.18.32-2.11 1.25-2.43 2.43-.71 2.61-3.42 4.18-6.04 3.49-1.18-.31-2.45.03-3.32.88-.97.97-2.24 1.45-3.5 1.45zm-5.94-3.93c1.29 0 2.56.5 3.5 1.43 1.35 1.34 3.53 1.33 4.87.01 1.25-1.23 3.07-1.72 4.75-1.28 1.83.48 3.72-.61 4.22-2.44.46-1.69 1.79-3.02 3.48-3.48 1.82-.5 2.92-2.39 2.44-4.22-.44-1.69.04-3.51 1.27-4.75l.01-.01c1.33-1.34 1.33-3.52 0-4.87-1.23-1.25-1.72-3.07-1.28-4.75.48-1.83-.61-3.72-2.44-4.22-1.69-.46-3.02-1.79-3.48-3.48-.5-1.82-2.39-2.92-4.22-2.44-1.69.44-3.51-.04-4.75-1.27-1.35-1.33-3.53-1.33-4.88-.01-1.25 1.23-3.06 1.72-4.75 1.28-1.83-.48-3.72.61-4.22 2.44-.46 1.69-1.79 3.02-3.48 3.48-1.82.5-2.92 2.39-2.44 4.22.44 1.69-.04 3.51-1.27 4.75-1.33 1.35-1.33 3.53-.01 4.87 1.23 1.25 1.72 3.07 1.28 4.75-.48 1.83.61 3.73 2.44 4.22 1.69.46 3.02 1.79 3.48 3.48.5 1.82 2.39 2.92 4.22 2.44.42-.1.84-.15 1.26-.15z"/></g><g><path d="m46.21 43.62c0 7.29-5.92 13.21-13.22 13.21-7.29 0-13.21-5.92-13.21-13.21s5.92-13.21 13.21-13.21c7.31 0 13.22 5.92 13.22 13.21z" fill="#fff"/><path d="m32.99 57.58c-7.7 0-13.96-6.26-13.96-13.96s6.26-13.96 13.96-13.96 13.97 6.26 13.97 13.96-6.26 13.96-13.97 13.96zm0-26.42c-6.87 0-12.46 5.59-12.46 12.46s5.59 12.46 12.46 12.46c6.88 0 12.47-5.59 12.47-12.46s-5.59-12.46-12.47-12.46z"/></g></g><g><path d="m36.96 45.95.49 2.83c.14.81-.71 1.43-1.44 1.05l-2.55-1.33c-.29-.15-.63-.15-.92 0l-2.54 1.33c-.73.38-1.58-.24-1.44-1.05l.48-2.84c.05-.32-.05-.65-.29-.88l-2.06-2c-.59-.57-.26-1.57.55-1.69l2.84-.41c.32-.05.6-.25.75-.54l1.27-2.57c.36-.74 1.41-.74 1.78 0l1.28 2.58c.14.29.42.49.75.54l2.84.41c.81.12 1.14 1.12.55 1.69l-2.06 2c-.23.23-.34.56-.28.88z" fill="#007edb"/><path d="m36.47 50.7c-.28 0-.55-.07-.81-.2l-2.55-1.34c-.07-.04-.15-.04-.23 0l-2.54 1.33c-.59.31-1.3.26-1.83-.13-.54-.39-.81-1.04-.69-1.7l.48-2.84c.01-.08-.01-.16-.07-.22l-2.05-2c-.48-.47-.65-1.15-.44-1.79s.75-1.09 1.41-1.19l2.84-.41c.08-.01.15-.06.18-.13l1.27-2.57c.29-.6.89-.97 1.56-.97.67 0 1.26.37 1.56.97l1.28 2.58c.04.07.1.12.18.13l2.83.41c.66.1 1.2.55 1.41 1.19s.04 1.32-.44 1.79l-2.05 2c-.06.06-.08.14-.07.22l.49 2.83c.11.66-.15 1.31-.69 1.71-.31.21-.67.33-1.03.33zm-3.47-3.07c.28 0 .56.07.81.2l2.55 1.34c.12.06.21.01.26-.02.04-.03.12-.11.1-.24l-.49-2.83c-.1-.57.09-1.14.5-1.54l2.05-2c.09-.09.08-.2.06-.25s-.07-.15-.2-.17l-2.84-.41c-.57-.08-1.05-.44-1.31-.95l-1.28-2.58c-.06-.12-.16-.13-.22-.13-.06 0-.16.02-.22.13l-1.27 2.57c-.25.51-.74.87-1.31.95l-2.84.41c-.13.02-.18.11-.2.17-.02.05-.03.16.06.25l2.06 2c.41.4.6.98.5 1.54l-.48 2.84c-.02.13.05.2.1.24s.14.08.26.02l2.54-1.33c.25-.14.53-.21.81-.21z"/></g></g></svg>