<svg id="Layer_1" viewBox="0 0 64 64" xmlns="http://www.w3.org/2000/svg" data-name="Layer 1"><path d="m39.124 2.5h-25.124a4 4 0 0 0 -4 4v50a4 4 0 0 0 4 4h36a4 4 0 0 0 4-4v-39.124z" fill="#ededed"/><path d="m53.707 17.083-14.29-14.29a1 1 0 0 0 -1.707.707v11.29a4 4 0 0 0 4 4h11.29a1 1 0 0 0 .707-1.707z" fill="#c6c6c6"/><path d="m53 43.393h-22.914l-2.4-2.745a2 2 0 0 0 -1.505-.683h-15.181a2 2 0 0 0 -2 2v14.535a5.006 5.006 0 0 0 5 5h36a5.006 5.006 0 0 0 5-5v-11.107a2 2 0 0 0 -2-2z" fill="#06fc18"/><path d="m46.339 21.65h-12.675v-11a1 1 0 0 0 -1-1h-15a1 1 0 0 0 -1 1v24.01a1 1 0 0 0 1 1h28.675a1 1 0 0 0 1-1v-12.01a1 1 0 0 0 -1-1zm-1 6h-11.675v-4h11.675zm-26.678-4h13v4h-13zm0-2v-4h13v4zm13-10v4h-13v-4zm-13 18.008h13v4h-13zm15 4v-4h11.678v4z" fill="#c6c6c6"/><g fill="#fff"><path d="m24.98 56.609a3.844 3.844 0 0 1 -1.9-.516 3.009 3.009 0 0 1 -.852-.678 3.965 3.965 0 0 1 -.635-1.062l1.595-.7a4.625 4.625 0 0 0 .312.57 1.928 1.928 0 0 0 .385.438 1.62 1.62 0 0 0 .5.282 1.87 1.87 0 0 0 .641.1 2.52 2.52 0 0 0 .495-.043 1.287 1.287 0 0 0 .425-.162.818.818 0 0 0 .294-.312 1.02 1.02 0 0 0 .109-.5.878.878 0 0 0 -.456-.744 5.925 5.925 0 0 0 -1.212-.6 7.537 7.537 0 0 1 -2.081-1.089 2.1 2.1 0 0 1 -.72-1.692 2.191 2.191 0 0 1 .841-1.764 3.177 3.177 0 0 1 2.1-.7 3.555 3.555 0 0 1 1.9.516 2.869 2.869 0 0 1 .743.648 4.24 4.24 0 0 1 .589 1.008l-1.765.54a2.442 2.442 0 0 0 -.546-.834 1.285 1.285 0 0 0 -.929-.315 1.893 1.893 0 0 0 -.391.042 1.268 1.268 0 0 0 -.359.132.7.7 0 0 0 -.367.642.606.606 0 0 0 .115.348 1.134 1.134 0 0 0 .389.324 8.137 8.137 0 0 0 1.3.576 6.23 6.23 0 0 1 1.824.972 2.161 2.161 0 0 1 .852 1.848 2.523 2.523 0 0 1 -.84 2.028 3.586 3.586 0 0 1 -2.356.697z"/><path d="m32.948 56.489h-1.908v-7.3h-2.256v-1.628h6.432v1.632h-2.268z"/><path d="m39.164 56.609a3.467 3.467 0 0 1 -1.7-.384 3.074 3.074 0 0 1 -1.112-1.025 4.432 4.432 0 0 1 -.6-1.464 7.968 7.968 0 0 1 0-3.414 4.375 4.375 0 0 1 .608-1.47 3.136 3.136 0 0 1 1.118-1.026 3.467 3.467 0 0 1 1.7-.384 3.661 3.661 0 0 1 1.92.5 2.195 2.195 0 0 1 .726.728 4.933 4.933 0 0 1 .534 1.259l-1.752.42a2.523 2.523 0 0 0 -.528-.912 1.247 1.247 0 0 0 -.96-.36 1.277 1.277 0 0 0 -.63.151 1.393 1.393 0 0 0 -.45.4 2.268 2.268 0 0 0 -.294.562 3.968 3.968 0 0 0 -.174.648 5.352 5.352 0 0 0 -.078.659c-.011.218-.017.415-.017.593a4.481 4.481 0 0 0 .42 2.177 1.329 1.329 0 0 0 1.271.714 1.636 1.636 0 0 0 .594-.1 1.283 1.283 0 0 0 .427-.27 2.04 2.04 0 0 0 .323-.414 5.4 5.4 0 0 0 .276-.528l1.8.468a5.27 5.27 0 0 1 -.586 1.135 3.075 3.075 0 0 1 -.737.746 3.532 3.532 0 0 1 -2.099.591z"/></g></svg>