<svg id="Layer_1" enable-background="new 0 0 500 500" viewBox="0 0 500 500" xmlns="http://www.w3.org/2000/svg"><g><g><g><path d="m250 210.056h-130.064l24.597 14.201z" fill="#6fff6e"/><path d="m250.004 285.151-.004-75.095-24.593 60.893z" fill="#6fff6e"/><path d="m144.533 224.257-24.597-14.201h-.179l-94.757-.241 42.578 24.582 76.81-10.121z" fill="#09fd08"/><path d="m250.004 285.254v-.103l-24.597-14.202-.034.084-17.53 44.346 42.16 24.342z" fill="#09fd08"/><path d="m225.407 270.949 24.593-60.893-48.355 47.174z" fill="#97ff96"/><path d="m225.407 270.949-23.762-13.719-.066.065-35.066 34.223 41.33 23.861 17.53-44.346z" fill="#09f208"/><path d="m168.295 237.976 81.705-27.92-105.467 14.201z" fill="#97ff96"/><path d="m168.295 237.976-23.762-13.719-.145.019-76.81 10.121 40.912 23.621 59.693-20.004z" fill="#09f208"/><path d="m201.645 257.23-33.35-19.254-.112.038-59.693 20.004 58.023 33.5 35.066-34.223z" fill="#09e808"/><path d="m201.645 257.23 48.355-47.174-81.705 27.92z" fill="#a9ffa8"/></g><g><path d="m250 210.056-.002-75.092-24.597 14.201z" fill="#6fff6e"/><path d="m119.933 210.057 130.067-.001-105.47-14.2z" fill="#6fff6e"/><path d="m225.401 149.165 24.597-14.201v-.103l.414-54.708-42.577 24.581 17.533 44.348z" fill="#09fd08"/><path d="m119.755 210.057h.178l24.597-14.201-.145-.019-76.811-10.122-42.159 24.34z" fill="#09fd08"/><path d="m144.53 195.856 105.47 14.2-81.709-27.918z" fill="#97ff96"/><path d="m144.53 195.856 23.761-13.718-.112-.039-59.277-20.245-41.328 23.861 76.811 10.122z" fill="#09f208"/><path d="m201.64 162.884 48.36 47.172-24.599-60.891z" fill="#97ff96"/><path d="m201.64 162.884 23.761-13.719-.033-.083-17.533-44.348-40.911 23.62 34.65 34.465z" fill="#09f208"/><path d="m168.291 182.138 33.349-19.254-.066-.065-34.65-34.465-58.022 33.5 59.277 20.245z" fill="#09e808"/><path d="m168.291 182.138 81.709 27.918-48.36-47.172z" fill="#a9ffa8"/></g><g><path d="m250 210.056 130.064.002-24.598-14.202z" fill="#6fff6e"/><path d="m249.996 134.963.004 75.093 24.593-60.891z" fill="#6fff6e"/><path d="m355.466 195.856 24.598 14.202h.178l94.758.241-42.579-24.583-76.809 10.121z" fill="#09fd08"/><path d="m249.996 134.86v.103l24.597 14.202.033-.084 17.531-44.347-42.161-24.341z" fill="#09fd08"/><path d="m274.593 149.165-24.593 60.891 48.354-47.173z" fill="#97ff96"/><path d="m274.593 149.165 23.761 13.718.067-.064 35.065-34.224-41.329-23.861-17.531 44.347z" fill="#09f208"/><path d="m331.704 182.138-81.704 27.918 105.466-14.2z" fill="#97ff96"/><path d="m331.704 182.138 23.762 13.718.146-.019 76.809-10.121-40.911-23.621-59.693 20.004z" fill="#09f208"/><path d="m298.354 162.883 33.35 19.255.113-.039 59.693-20.004-58.024-33.5-35.065 34.224z" fill="#09e808"/><path d="m298.354 162.883-48.354 47.173 81.704-27.918z" fill="#a9ffa8"/></g><g><path d="m250 210.056.002 75.093 24.596-14.201z" fill="#6fff6e"/><path d="m380.066 210.056h-130.066l105.469 14.201z" fill="#6fff6e"/><path d="m274.598 270.948-24.596 14.201v.103l-.414 54.708 42.577-24.582-17.534-44.346z" fill="#09fd08"/><path d="m380.244 210.056h-.178l-24.597 14.201.146.02 76.81 10.122 42.159-24.34z" fill="#09fd08"/><path d="m355.469 224.257-105.469-14.201 81.708 27.92z" fill="#97ff96"/><path d="m355.469 224.257-23.761 13.719.112.038 59.277 20.246 41.328-23.861-76.81-10.122z" fill="#09f208"/><path d="m298.359 257.23-48.359-47.174 24.598 60.892z" fill="#97ff96"/><path d="m298.359 257.23-23.761 13.718.033.084 17.534 44.346 40.911-23.619-34.65-34.465z" fill="#09f208"/><path d="m331.708 237.976-33.349 19.254.067.064 34.65 34.465 58.021-33.499-59.277-20.246z" fill="#09e808"/><path d="m331.708 237.976-81.708-27.92 48.359 47.174z" fill="#a9ffa8"/></g></g><path d="m250 419.848 224.584-209.789-224.588 129.662z" fill="#09e808"/><path d="m250 419.848-224.585-209.789 224.589 129.662z" fill="#08d407"/></g></svg>