<svg enable-background="new 0 0 500 500" height="512" viewBox="0 0 500 500" width="512" xmlns="http://www.w3.org/2000/svg"><g id="ocean_sun" display="none"><g id="water" display="inline" fill="#39f"><path d="m81.71 328.16h331.4c7.99 0 14.54 6.54 14.54 14.54 0 7.99-6.54 14.54-14.54 14.54h-331.4c-7.99 0-14.54-6.54-14.54-14.54 0-8 6.54-14.54 14.54-14.54z"/><path d="m121.57 377.02h257.52c7.99 0 14.54 6.54 14.54 14.54 0 7.99-6.54 14.54-14.54 14.54h-257.52c-7.99 0-14.54-6.54-14.54-14.54.01-8 6.55-14.54 14.54-14.54z"/></g><g id="sun_00000098192256020851195810000002102031141281040828_" display="inline"><g id="sun" fill="#edb61b"><path d="m355.98 296.05h-213.61c-5.64 0-10.25-4.61-10.25-10.25 0-64.51 52.78-117.28 117.28-117.28 64.38 0 117.06 52.68 117.06 117.06 0 5.75-4.71 10.47-10.48 10.47z"/><path d="m119.03 186.38-40.27-40.27c-5.65-5.65-5.65-14.9 0-20.56 5.65-5.65 14.9-5.65 20.56 0l40.27 40.27c5.65 5.65 5.65 14.9 0 20.56-5.65 5.66-14.9 5.66-20.56 0z"/><path d="m355.22 165.83 40.27-40.27c5.65-5.65 14.9-5.65 20.56 0 5.65 5.65 5.65 14.9 0 20.56l-40.27 40.27c-5.65 5.65-14.9 5.65-20.56 0-5.65-5.66-5.65-14.91 0-20.56z"/><path d="m407.86 266.98h56.95c7.99 0 14.54 6.54 14.54 14.54 0 7.99-6.54 14.54-14.54 14.54h-56.95c-7.99 0-14.54-6.54-14.54-14.54 0-8 6.54-14.54 14.54-14.54z"/><path d="m33.77 266.98h56.95c7.99 0 14.54 6.54 14.54 14.54 0 7.99-6.54 14.54-14.54 14.54h-56.95c-7.99 0-14.54-6.54-14.54-14.54.01-8 6.55-14.54 14.54-14.54z"/><path d="m232.87 129.65v-56.95c0-7.99 6.54-14.54 14.54-14.54 7.99 0 14.54 6.54 14.54 14.54v56.95c0 7.99-6.54 14.54-14.54 14.54-8 0-14.54-6.54-14.54-14.54z"/></g></g></g><g id="cloud_and_sun" display="none"><g id="sun_00000022532339957638352150000014137815577447616445_" display="inline"><g fill="#edb61b"><path d="m329.06 216.44-165.81 83.67c-4.38 2.21-9.76.43-11.97-3.94l-6.82-13.52c-25.27-50.07-4.97-111.71 45.1-136.98 49.97-25.22 111.49-4.96 136.71 45.01l6.82 13.52c2.25 4.48.44 9.98-4.03 12.24z"/><path d="m95.35 210.61-47.03-15.49c-6.6-2.17-10.23-9.35-8.05-15.96 2.17-6.6 9.35-10.23 15.96-8.05l47.03 15.49c6.6 2.17 10.23 9.35 8.05 15.96-2.17 6.6-9.35 10.22-15.96 8.05z"/><path d="m270.64 102.14 15.49-47.03c2.17-6.6 9.35-10.23 15.96-8.05 6.6 2.17 10.23 9.35 8.05 15.96l-15.49 47.03c-2.17 6.6-9.35 10.23-15.96 8.05-6.6-2.18-10.23-9.36-8.05-15.96z"/><path d="m351.11 160.04 44.21-22.31c6.21-3.13 13.84-.62 16.98 5.59 3.13 6.21.62 13.84-5.59 16.98l-44.21 22.3c-6.21 3.13-13.84.62-16.98-5.59-3.13-6.2-.61-13.84 5.59-16.97z"/><path d="m60.74 306.56 44.21-22.31c6.21-3.13 13.84-.62 16.98 5.59 3.13 6.21.62 13.84-5.59 16.98l-44.21 22.31c-6.21 3.13-13.84.62-16.98-5.59-3.13-6.2-.61-13.84 5.59-16.98z"/><path d="m161.5 121.99-22.31-44.21c-3.13-6.21-.62-13.84 5.59-16.98 6.21-3.13 13.84-.62 16.98 5.59l22.31 44.21c3.13 6.21.62 13.84-5.59 16.98-6.21 3.13-13.85.61-16.98-5.59z"/></g></g><path d="m458.67 305.17c-3.03-68.48-60.99-121.53-129.46-118.51-47.45 2.1-87.49 30.58-106.6 70.65-4.75-.54-9.6-.73-14.53-.51-50.62 2.24-89.84 45.09-87.6 95.71s45.09 89.84 95.71 87.6c1.11-.05 2.22-.13 3.32-.22.47.02.93.03 1.41.01l124.46-5.5c.95-.04 1.88-.18 2.78-.39 64.55-6.97 113.42-63.05 110.51-128.84z" display="inline" fill="#7bd9ef"/></g><g id="cloudy_with_sun" display="none"><g fill="#edb61b"><path d="m277.1 84.1-11.88-33.72c-1.49-4.23.75-8.9 4.98-10.39l1.22-.43c4.23-1.49 8.9.75 10.39 4.98l11.88 33.72c1.49 4.23-.75 8.9-4.98 10.39l-1.22.43c-4.23 1.48-8.9-.76-10.39-4.98z" display="inline"/><path d="m410.55 134.21 33.72-11.88c4.23-1.49 8.9.75 10.39 4.98l.43 1.22c1.49 4.23-.75 8.9-4.98 10.39l-33.71 11.88c-4.23 1.49-8.9-.75-10.39-4.98l-.43-1.22c-1.49-4.22.75-8.9 4.97-10.39z" display="inline"/><path d="m412.87 202.68 32.25 15.44c4.04 1.94 5.77 6.83 3.83 10.87l-.56 1.17c-1.94 4.04-6.83 5.77-10.87 3.83l-32.25-15.44c-4.04-1.94-5.77-6.83-3.83-10.87l.56-1.17c1.94-4.05 6.83-5.77 10.87-3.83z" display="inline"/><path d="m208.71 104.91 32.25 15.44c4.04 1.94 5.77 6.83 3.83 10.87l-.56 1.17c-1.94 4.04-6.83 5.77-10.87 3.83l-32.25-15.44c-4.04-1.94-5.77-6.83-3.83-10.87l.56-1.17c1.93-4.04 6.82-5.76 10.87-3.83z" display="inline"/><path d="m353.56 82.86 15.44-32.25c1.94-4.04 6.83-5.77 10.87-3.83l1.17.56c4.04 1.94 5.77 6.83 3.83 10.87l-15.44 32.25c-1.94 4.04-6.83 5.77-10.87 3.83l-1.17-.56c-4.04-1.94-5.77-6.83-3.83-10.87z" display="inline"/></g><path d="m321.56 254.4c-.02-55.91-45.36-101.22-101.27-101.2-38.74.01-72.39 21.79-89.4 53.76-3.85-.61-7.8-.94-11.82-.93-41.33.01-74.83 33.53-74.81 74.86.01 41.33 33.53 74.83 74.86 74.81.91 0 1.81-.03 2.71-.06.38.03.76.06 1.15.06l101.62-.03c.78 0 1.54-.08 2.28-.22 52.87-3.38 94.7-47.33 94.68-101.05z" display="inline" fill="#39f"/><circle cx="321.55" cy="170.07" display="inline" fill="#edb61b" r="63.24"/><path d="m419.97 294.14c-.02-68.54-55.61-124.09-124.15-124.06-47.5.02-88.74 26.71-109.59 65.91-4.72-.75-9.56-1.15-14.49-1.14-50.67.02-91.73 41.11-91.71 91.78s41.11 91.73 91.78 91.71c1.11 0 2.22-.03 3.33-.07.46.04.93.07 1.4.07l124.58-.04c.95 0 1.88-.1 2.79-.26 64.81-4.17 116.09-58.05 116.06-123.9z" display="inline" fill="#7bd9ef"/></g><g id="umbrella" display="none"><path d="m148.7 415.72c-4.81-2.58-6.64-8.64-4.05-13.45l155.89-290.34c2.58-4.81 8.64-6.64 13.45-4.05 4.81 2.58 6.64 8.64 4.05 13.45l-155.89 290.34c-2.58 4.81-8.63 6.64-13.45 4.05z" display="inline" fill="#edb61b"/><path d="m214.53 268.24h19.82v12.85h-19.82z" display="inline" fill="#d39c13" transform="matrix(.881 .473 -.473 .881 156.624 -73.495)"/><path d="m350.56 338.64-249.13-133.76c-5.81-3.12-8.02-10.43-4.9-16.25 39.91-74.33 133.37-102.49 207.69-62.58 74.33 39.91 102.49 133.37 62.58 207.69-3.11 5.82-10.42 8.02-16.24 4.9z" display="inline" fill="#db730b"/><path d="m126.24 218.23-27.22-14.61c-5.81-3.12-8.02-10.43-4.9-16.25 39.91-74.33 133.37-102.49 207.69-62.58-120.2-33.84-175.57 93.44-175.57 93.44z" display="inline" fill="#c1610a"/><path d="m139.27 448.89-13-6.98c-3.16-1.7-4.36-5.68-2.66-8.84l16.77-31.24c1.7-3.16 5.68-4.36 8.84-2.66l13 6.98c3.16 1.7 4.36 5.68 2.66 8.84l-16.77 31.24c-1.7 3.16-5.68 4.36-8.84 2.66z" display="inline" fill="#4c4c4c"/><g display="inline"><path d="m181.61 77.2c0 7.6-6.16 13.75-13.75 13.75s-13.75-6.16-13.75-13.75c0-5.96 8.47-22.65 12.12-29.55.69-1.32 2.58-1.32 3.27 0 3.64 6.9 12.11 23.58 12.11 29.55z" fill="#39f"/><path d="m181.61 77.98c-.89 12.96-11.35 13.13-12.15 12.96-24.26-4.97.04-43.3.04-43.3s12.52 24.4 12.11 30.34z" fill="#1683db"/></g><g display="inline"><path d="m245.09 126.42c0 7.6-6.16 13.75-13.75 13.75s-13.75-6.16-13.75-13.75c0-5.96 8.47-22.65 12.12-29.55.69-1.32 2.58-1.32 3.27 0 3.64 6.9 12.11 23.59 12.11 29.55z" fill="#39f"/><path d="m245.09 127.21c-.89 12.96-11.35 13.13-12.15 12.96-24.26-4.97.04-43.3.04-43.3s12.52 24.39 12.11 30.34z" fill="#1683db"/></g><g display="inline"><path d="m277.54 56.02c0 7.6-6.16 13.75-13.75 13.75s-13.75-6.16-13.75-13.75c0-5.96 8.47-22.65 12.12-29.55.69-1.32 2.58-1.32 3.27 0 3.64 6.91 12.11 23.59 12.11 29.55z" fill="#39f"/><path d="m277.54 56.81c-.89 12.96-11.35 13.13-12.15 12.96-24.26-4.97.04-43.3.04-43.3s12.52 24.4 12.11 30.34z" fill="#1683db"/></g></g><g id="rain" display="none"><path d="m421.99 186.65c-.02-68.54-55.61-124.09-124.15-124.06-47.5.02-88.74 26.71-109.59 65.91-4.72-.75-9.56-1.15-14.49-1.14-50.67.02-91.73 41.11-91.71 91.78s41.11 91.73 91.78 91.71c1.11 0 2.22-.03 3.33-.07.46.04.93.07 1.4.07l124.58-.04c.95 0 1.88-.1 2.79-.26 64.81-4.17 116.09-58.05 116.06-123.9z" display="inline" fill="#7bd9ef"/><g display="inline"><path d="m163.86 361.78c-4.29 6.27-12.84 7.88-19.11 3.59s-7.88-12.84-3.59-19.11c3.36-4.92 19.78-13.91 26.68-17.55 1.32-.69 2.87.37 2.7 1.85-.89 7.74-3.32 26.3-6.68 31.22z" fill="#39f"/><path d="m161.85 362.43c-8.05 10.2-16.78 4.43-17.35 3.84-17.23-17.79 24.47-35.72 24.47-35.72s-3.43 27.2-7.12 31.88z" fill="#1683db"/></g><g display="inline"><path d="m247.35 362.81c-4.29 6.27-12.84 7.88-19.11 3.59s-7.88-12.84-3.59-19.11c3.36-4.92 19.78-13.91 26.68-17.55 1.32-.69 2.87.37 2.7 1.85-.89 7.74-3.31 26.3-6.68 31.22z" fill="#39f"/><path d="m245.35 363.46c-8.05 10.2-16.78 4.43-17.35 3.84-17.23-17.79 24.47-35.72 24.47-35.72s-3.43 27.2-7.12 31.88z" fill="#1683db"/></g><g display="inline"><path d="m327.89 361.45c-4.29 6.27-12.84 7.88-19.11 3.59s-7.88-12.84-3.59-19.11c3.36-4.92 19.78-13.91 26.68-17.55 1.32-.69 2.87.37 2.7 1.85-.89 7.74-3.32 26.3-6.68 31.22z" fill="#39f"/><path d="m325.88 362.1c-8.05 10.2-16.78 4.43-17.35 3.84-17.23-17.79 24.47-35.72 24.47-35.72s-3.42 27.2-7.12 31.88z" fill="#1683db"/></g><g display="inline"><path d="m195.65 419.73c-4.29 6.27-12.84 7.88-19.11 3.59s-7.88-12.84-3.59-19.11c3.36-4.92 19.78-13.91 26.68-17.55 1.32-.69 2.87.37 2.7 1.85-.89 7.75-3.31 26.3-6.68 31.22z" fill="#39f"/><path d="m193.64 420.39c-8.05 10.2-16.78 4.43-17.35 3.84-17.23-17.79 24.47-35.72 24.47-35.72s-3.42 27.2-7.12 31.88z" fill="#1683db"/></g><g display="inline"><path d="m279.15 420.77c-4.29 6.27-12.84 7.88-19.11 3.59s-7.88-12.84-3.59-19.11c3.36-4.92 19.78-13.91 26.68-17.55 1.32-.69 2.87.37 2.7 1.85-.9 7.74-3.32 26.29-6.68 31.22z" fill="#39f"/><path d="m277.14 421.42c-8.05 10.2-16.78 4.43-17.35 3.84-17.23-17.79 24.47-35.72 24.47-35.72s-3.43 27.2-7.12 31.88z" fill="#1683db"/></g></g><g id="sun_00000116214476924688472840000015212925004749499026_"><g fill="#edb61b"><path d="m136.58 167.52-43.08-42.1c-3.2-3.13-3.26-8.32-.13-11.52l6.69-6.84c3.13-3.2 8.32-3.26 11.52-.13l43.08 42.11c3.2 3.13 3.26 8.32.13 11.52l-6.69 6.84c-3.13 3.2-8.32 3.26-11.52.12z"/><path d="m339.73 146.92 42.11-43.08c3.13-3.2 8.32-3.26 11.52-.13l6.84 6.69c3.2 3.13 3.26 8.32.13 11.52l-42.11 43.08c-3.13 3.2-8.32 3.26-11.52.13l-6.84-6.69c-3.21-3.13-3.27-8.31-.13-11.52z"/><path d="m386.13 233.01 60.23-.69c4.48-.05 8.19 3.57 8.24 8.06l.11 9.57c.05 4.48-3.57 8.19-8.06 8.24l-60.23.69c-4.48.05-8.19-3.57-8.24-8.06l-.11-9.57c-.04-4.48 3.58-8.19 8.06-8.24z"/><path d="m53.34 236.8 60.23-.69c4.48-.05 8.19 3.57 8.24 8.06l.11 9.57c.05 4.48-3.57 8.19-8.06 8.24l-60.23.69c-4.48.05-8.19-3.57-8.24-8.06l-.11-9.57c-.04-4.48 3.58-8.19 8.06-8.24z"/><path d="m233.91 117.34-.69-60.23c-.05-4.48 3.57-8.19 8.06-8.24l9.57-.11c4.48-.05 8.19 3.57 8.24 8.06l.69 60.23c.05 4.48-3.57 8.19-8.06 8.24l-9.57.11c-4.48.05-8.19-3.58-8.24-8.06z"/><circle cx="248.34" cy="249.33" r="92.98"/><path d="m359.65 331.18 43.55 41.61c3.24 3.1 3.36 8.28.26 11.52l-6.61 6.92c-3.1 3.24-8.28 3.36-11.52.26l-43.55-41.61c-3.24-3.1-3.36-8.28-.26-11.52l6.61-6.92c3.09-3.24 8.27-3.35 11.52-.26z"/><path d="m156.74 354.09-41.61 43.55c-3.1 3.24-8.28 3.36-11.52.26l-6.92-6.61c-3.24-3.1-3.36-8.28-.26-11.52l41.61-43.55c3.1-3.24 8.28-3.36 11.52-.26l6.92 6.61c3.24 3.1 3.36 8.28.26 11.52z"/><path d="m262.89 382.47 1.37 60.22c.1 4.48-3.48 8.23-7.96 8.33l-9.56.22c-4.48.1-8.23-3.48-8.33-7.96l-1.37-60.22c-.1-4.48 3.48-8.23 7.96-8.33l9.56-.22c4.48-.11 8.23 3.48 8.33 7.96z"/></g></g><g id="Snowflake" display="none"><path d="m269.68 138.09h-17.93l9.92-9.92c3.13-3.13 3.13-8.25 0-11.38-3.13-3.13-8.25-3.13-11.38 0l-19.91 19.91c-.43.43-.8.9-1.11 1.4h-41.14l29.16-29.16c.51.1 1.03.16 1.56.16h28.15c4.43 0 8.05-3.62 8.05-8.05 0-4.43-3.62-8.05-8.05-8.05h-13.77l12.55-12.55c3.13-3.13 3.13-8.25 0-11.38l-1.63-1.63c-3.13-3.13-8.25-3.13-11.38 0l-12.68 12.66v-14.03c0-4.43-3.62-8.05-8.05-8.05-4.43 0-8.05 3.62-8.05 8.05v28.15c0 .61.07 1.2.2 1.77l-29.09 29.09v-41.23c.43-.29.84-.62 1.22-1l19.91-19.91c3.13-3.13 3.13-8.25 0-11.38-3.13-3.13-8.25-3.13-11.38 0l-9.74 9.74v-17.75c0-4.43-3.62-8.05-8.05-8.05h-2.31c-4.43 0-8.05 3.62-8.05 8.05v17.93l-9.92-9.92c-3.13-3.13-8.25-3.13-11.38 0-3.13 3.13-3.13 8.25 0 11.38l19.91 19.91c.43.43.9.8 1.4 1.11v41.51l-29.16-29.16c.1-.51.16-1.03.16-1.56v-28.15c0-4.43-3.62-8.05-8.05-8.05s-8.05 3.62-8.05 8.05v13.77l-12.56-12.55c-3.13-3.13-8.25-3.13-11.38 0l-1.63 1.63c-3.13 3.13-3.13 8.25 0 11.38l12.68 12.68h-14.04c-4.43 0-8.05 3.62-8.05 8.05s3.62 8.05 8.05 8.05h28.15c.61 0 1.2-.07 1.77-.2l28.72 28.72h-40.86c-.29-.43-.62-.84-1-1.22l-19.9-19.91c-3.13-3.13-8.25-3.13-11.38 0s-3.13 8.25 0 11.38l9.74 9.74h-17.76c-4.43 0-8.05 3.62-8.05 8.05v2.31c0 4.43 3.62 8.05 8.05 8.05h17.93l-9.92 9.92c-3.13 3.13-3.13 8.25 0 11.38 3.13 3.13 8.25 3.13 11.38 0l19.91-19.91c.43-.43.8-.9 1.11-1.4h41.14l-29.16 29.16c-.51-.1-1.03-.16-1.56-.16h-28.15c-4.43 0-8.05 3.62-8.05 8.05 0 4.43 3.62 8.05 8.05 8.05h13.77l-12.55 12.55c-3.13 3.13-3.13 8.25 0 11.38l1.63 1.63c3.13 3.13 8.25 3.13 11.38 0l12.68-12.68v14.03c0 4.43 3.62 8.05 8.05 8.05 4.43 0 8.05-3.62 8.05-8.05v-28.15c0-.61-.07-1.2-.2-1.77l29.09-29.09v41.24c-.43.29-.84.62-1.22 1l-19.91 19.91c-3.13 3.13-3.13 8.25 0 11.38 3.13 3.13 8.25 3.13 11.38 0l9.74-9.74v17.75c0 4.43 3.62 8.05 8.05 8.05h2.31c4.43 0 8.05-3.62 8.05-8.05v-17.93l9.92 9.92c3.13 3.13 8.25 3.13 11.38 0 3.13-3.13 3.13-8.25 0-11.38l-19.91-19.91c-.43-.43-.9-.8-1.4-1.11v-40.77l29.16 29.16c-.1.51-.16 1.03-.16 1.56v28.15c0 4.43 3.62 8.05 8.05 8.05s8.05-3.62 8.05-8.05v-13.77l12.55 12.55c3.13 3.13 8.25 3.13 11.38 0l1.63-1.63c3.13-3.13 3.13-8.25 0-11.38l-12.68-12.68h14.03c4.43 0 8.05-3.62 8.05-8.05s-3.62-8.05-8.05-8.05h-28.14c-.61 0-1.2.07-1.77.2l-29.46-29.46h41.61c.29.43.62.84 1 1.22l19.91 19.91c3.13 3.13 8.25 3.13 11.38 0 3.13-3.13 3.13-8.25 0-11.38l-9.74-9.74h17.75c4.43 0 8.05-3.62 8.05-8.05v-2.31c0-4.42-3.62-8.04-8.05-8.04z" display="inline" fill="#7bd9ef"/><path d="m241.24 343.02h-10.93l6.04-6.04c1.91-1.91 1.91-5.03 0-6.94-1.91-1.91-5.03-1.91-6.94 0l-12.13 12.13c-.26.26-.48.55-.67.85h-25.07l17.77-17.77c.31.06.63.1.95.1h17.16c2.7 0 4.91-2.21 4.91-4.91 0-2.7-2.21-4.91-4.91-4.91h-8.39l7.65-7.65c1.91-1.91 1.91-5.03 0-6.94l-.99-.99c-1.91-1.91-5.03-1.91-6.94 0l-7.73 7.73v-8.55c0-2.7-2.21-4.91-4.91-4.91-2.7 0-4.91 2.21-4.91 4.91v17.16c0 .37.05.73.12 1.08l-17.72 17.72v-25.13c.26-.17.51-.38.74-.61l12.13-12.13c1.91-1.91 1.91-5.03 0-6.94-1.91-1.91-5.03-1.91-6.94 0l-5.93 5.93v-10.82c0-2.7-2.21-4.91-4.91-4.91h-1.4c-2.7 0-4.91 2.21-4.91 4.91v10.93l-6.04-6.04c-1.91-1.91-5.03-1.91-6.94 0-1.91 1.91-1.91 5.03 0 6.94l12.13 12.13c.26.26.55.48.85.67v25.29l-17.77-17.77c.06-.31.1-.63.1-.95v-17.16c0-2.7-2.21-4.91-4.91-4.91s-4.91 2.21-4.91 4.91v8.39l-7.65-7.65c-1.91-1.91-5.03-1.91-6.94 0l-.99.99c-1.91 1.91-1.91 5.03 0 6.94l7.73 7.73h-8.55c-2.7 0-4.91 2.21-4.91 4.91s2.21 4.91 4.91 4.91h17.16c.37 0 .73-.05 1.08-.12l17.5 17.5h-24.9c-.17-.26-.38-.51-.61-.74l-12.13-12.13c-1.91-1.91-5.03-1.91-6.94 0s-1.91 5.03 0 6.94l5.93 5.93h-10.82c-2.7 0-4.91 2.21-4.91 4.91v1.41c0 2.7 2.21 4.91 4.91 4.91h10.93l-6.04 6.04c-1.91 1.91-1.91 5.03 0 6.94 1.91 1.91 5.03 1.91 6.94 0l12.13-12.13c.26-.26.48-.55.67-.85h25.07l-17.77 17.77c-.31-.06-.63-.1-.95-.1h-17.16c-2.7 0-4.91 2.21-4.91 4.91 0 2.7 2.21 4.91 4.91 4.91h8.42l-7.65 7.65c-1.91 1.91-1.91 5.03 0 6.94l.99.99c1.91 1.91 5.03 1.91 6.94 0l7.73-7.73v8.55c0 2.7 2.21 4.91 4.91 4.91 2.7 0 4.91-2.21 4.91-4.91v-17.16c0-.37-.05-.73-.12-1.08l17.72-17.72v25.13c-.26.17-.51.38-.74.61l-12.13 12.13c-1.91 1.91-1.91 5.03 0 6.94 1.91 1.91 5.03 1.91 6.94 0l5.93-5.93v10.82c0 2.7 2.21 4.91 4.91 4.91h1.41c2.7 0 4.91-2.21 4.91-4.91v-10.93l6.04 6.04c1.91 1.91 5.03 1.91 6.94 0 1.91-1.91 1.91-5.03 0-6.94l-12.13-12.13c-.26-.26-.55-.48-.85-.67v-24.86l17.77 17.77c-.06.31-.1.63-.1.95v17.16c0 2.7 2.21 4.91 4.91 4.91s4.91-2.21 4.91-4.91v-8.39l7.65 7.65c1.91 1.91 5.03 1.91 6.94 0l.99-.99c1.91-1.91 1.91-5.03 0-6.94l-7.73-7.73h8.55c2.7 0 4.91-2.21 4.91-4.91s-2.21-4.91-4.91-4.91h-17.16c-.37 0-.73.05-1.08.12l-17.95-17.95h25.35c.17.26.38.51.61.74l12.13 12.13c1.91 1.91 5.03 1.91 6.94 0 1.91-1.91 1.91-5.03 0-6.94l-5.93-5.93h10.82c2.7 0 4.91-2.21 4.91-4.91v-1.41c-.04-2.68-2.25-4.89-4.95-4.89z" display="inline" fill="#7bd9ef"/><path d="m442.51 266.43h-16.01l8.86-8.86c2.8-2.8 2.8-7.37 0-10.17-2.8-2.8-7.37-2.8-10.17 0l-17.78 17.78c-.38.38-.71.8-.99 1.25h-36.74l26.04-26.04c.45.09.92.14 1.4.14h25.14c3.95 0 7.19-3.23 7.19-7.19 0-3.95-3.23-7.19-7.19-7.19h-12.3l11.21-11.21c2.8-2.8 2.8-7.37 0-10.17l-1.46-1.46c-2.8-2.8-7.37-2.8-10.17 0l-11.32 11.32v-12.53c0-3.95-3.23-7.19-7.19-7.19-3.95 0-7.19 3.23-7.19 7.19v25.14c0 .54.07 1.07.18 1.58l-25.98 25.98v-36.82c.38-.26.75-.55 1.09-.89l17.78-17.78c2.8-2.8 2.8-7.37 0-10.17-2.8-2.8-7.37-2.8-10.17 0l-8.7 8.7v-15.84c0-3.95-3.23-7.19-7.19-7.19h-2.06c-3.95 0-7.19 3.23-7.19 7.19v16.01l-8.86-8.86c-2.8-2.8-7.37-2.8-10.17 0-2.8 2.8-2.8 7.37 0 10.17l17.78 17.78c.38.38.8.71 1.25.99v37.07l-26.04-26.04c.09-.45.14-.92.14-1.4v-25.14c0-3.95-3.23-7.19-7.19-7.19s-7.19 3.23-7.19 7.19v12.3l-11.21-11.21c-2.8-2.8-7.37-2.8-10.17 0l-1.46 1.46c-2.8 2.8-2.8 7.37 0 10.17l11.32 11.32h-12.5c-3.95 0-7.19 3.23-7.19 7.19 0 3.95 3.23 7.19 7.19 7.19h25.14c.54 0 1.07-.07 1.58-.18l25.65 25.65h-36.49c-.26-.38-.55-.75-.89-1.09l-17.78-17.78c-2.8-2.8-7.37-2.8-10.17 0s-2.8 7.37 0 10.17l8.7 8.7h-15.85c-3.95 0-7.19 3.23-7.19 7.19v2.06c0 3.95 3.23 7.19 7.19 7.19h16.01l-8.86 8.86c-2.8 2.8-2.8 7.37 0 10.17 2.8 2.8 7.37 2.8 10.17 0l17.78-17.78c.38-.38.71-.8.99-1.25h36.74l-26.04 26.04c-.45-.09-.92-.14-1.4-.14h-25.14c-3.95 0-7.19 3.23-7.19 7.19 0 3.95 3.23 7.19 7.19 7.19h12.3l-11.21 11.21c-2.8 2.8-2.8 7.37 0 10.17l1.46 1.46c2.8 2.8 7.37 2.8 10.17 0l11.32-11.32v12.53c0 3.95 3.23 7.19 7.19 7.19 3.95 0 7.19-3.23 7.19-7.19v-25.14c0-.54-.07-1.07-.18-1.58l25.98-25.98v36.82c-.38.26-.75.55-1.09.89l-17.79 17.75c-2.8 2.8-2.8 7.37 0 10.17 2.8 2.8 7.37 2.8 10.17 0l8.7-8.7v15.85c0 3.95 3.23 7.19 7.19 7.19h2.06c3.95 0 7.19-3.23 7.19-7.19v-16.01l8.86 8.86c2.8 2.8 7.37 2.8 10.17 0 2.8-2.8 2.8-7.37 0-10.17l-17.78-17.78c-.38-.38-.8-.71-1.25-.99v-36.41l26.04 26.04c-.09.45-.14.92-.14 1.4v25.14c0 3.95 3.23 7.19 7.19 7.19 3.95 0 7.19-3.23 7.19-7.19v-12.3l11.21 11.21c2.8 2.8 7.37 2.8 10.17 0l1.46-1.46c2.8-2.8 2.8-7.37 0-10.17l-11.32-11.32h12.53c3.95 0 7.19-3.23 7.19-7.19s-3.23-7.19-7.19-7.19h-25.14c-.54 0-1.07.07-1.58.18l-26.31-26.31h37.16c.26.38.55.75.89 1.09l17.78 17.78c2.8 2.8 7.37 2.8 10.17 0 2.8-2.8 2.8-7.37 0-10.17l-8.7-8.7h15.85c3.95 0 7.19-3.23 7.19-7.19v-2.06c-.03-3.93-3.27-7.17-7.22-7.17z" display="inline" fill="#39f"/></g><g id="moon" display="none"><path d="m328.52 70.38c-66.13-30.39-131.51-26.15-183.75.28-8.3 4.2-7.82 16.19.79 19.7 62.81 25.61 107.08 87.29 107.08 159.31s-44.27 133.7-107.09 159.32c-8.55 3.49-9.14 15.46-.9 19.64 27.19 13.78 57.93 21.54 90.5 21.54 140.69 0 247.54-144.92 179.42-293.62-17.44-38.06-48.02-68.69-86.05-86.17z" display="inline" fill="#b2b2b2"/><path d="m103.11 141.4 7.93 14.5c.29.53.72.96 1.25 1.25l14.5 7.93c2.18 1.19 2.18 4.32 0 5.51l-14.5 7.93c-.53.29-.96.72-1.25 1.25l-7.93 14.5c-1.19 2.18-4.32 2.18-5.51 0l-7.93-14.5c-.29-.53-.72-.96-1.25-1.25l-14.5-7.93c-2.18-1.19-2.18-4.32 0-5.51l14.5-7.93c.53-.29.96-.72 1.25-1.25l7.93-14.5c1.2-2.18 4.32-2.18 5.51 0z" display="inline" fill="#edb61b"/><path d="m151.92 205.46 13.27 24.26c.48.88 1.21 1.61 2.09 2.09l24.26 13.27c3.64 1.99 3.64 7.22 0 9.21l-24.26 13.27c-.88.48-1.61 1.21-2.09 2.09l-13.27 24.26c-1.99 3.64-7.22 3.64-9.21 0l-13.27-24.26c-.48-.88-1.21-1.61-2.09-2.09l-24.26-13.27c-3.64-1.99-3.64-7.22 0-9.21l24.26-13.27c.88-.48 1.61-1.21 2.09-2.09l13.27-24.26c1.99-3.64 7.21-3.64 9.21 0z" display="inline" fill="#edb61b"/><g display="inline"><circle cx="299.03" cy="119.65" fill="#cecece" r="26.36"/><path d="m299.03 93.29s30.69 15.26 12.15 49.75c0 0 19.76-9.96 13.52-31.94 0 0-5.8-17.81-25.67-17.81z" fill="#c1bfbf"/></g><g display="inline"><circle cx="383.37" cy="216.71" fill="#cecece" r="13.98"/><path d="m393.39 226.46s-17.16 6.02-23.41-13.79c0 0-3.53 11.19 7.14 16.96 0 0 8.92 4.39 16.27-3.17z" fill="#c1bfbf"/></g><g display="inline"><circle cx="250.4" cy="374.15" fill="#cecece" r="13.98"/><path d="m237.17 378.69s2.37-18.03 22.87-14.67c0 0-8.4-8.2-18.35-1.28 0 .01-7.94 5.98-4.52 15.95z" fill="#c1bfbf"/></g><g display="inline"><circle cx="336.71" cy="312.94" fill="#cecece" r="21.18"/><path d="m334.03 333.95s-22.91-15.28-4.63-40.89c0 0-16.76 5.93-14.02 24.08.01.01 2.82 14.79 18.65 16.81z" fill="#c1bfbf"/></g></g><g id="snowing" display="none"><path d="m173.58 352.21h-4.99l2.76-2.76c.87-.87.87-2.3 0-3.17-.87-.87-2.3-.87-3.17 0l-5.54 5.54c-.12.12-.22.25-.31.39h-11.45l8.11-8.11c.14.03.29.04.44.04h7.84c1.23 0 2.24-1.01 2.24-2.24 0-1.23-1.01-2.24-2.24-2.24h-3.83l3.49-3.49c.87-.87.87-2.3 0-3.17l-.45-.45c-.87-.87-2.3-.87-3.17 0l-3.53 3.53v-3.9c0-1.23-1.01-2.24-2.24-2.24-1.23 0-2.24 1.01-2.24 2.24v7.84c0 .17.02.33.06.49l-8.09 8.09v-11.48c.12-.08.23-.17.34-.28l5.54-5.54c.87-.87.87-2.3 0-3.17-.87-.87-2.3-.87-3.17 0l-2.71 2.71v-4.94c0-1.23-1.01-2.24-2.24-2.24h-.64c-1.23 0-2.24 1.01-2.24 2.24v4.99l-2.76-2.76c-.87-.87-2.3-.87-3.17 0-.87.87-.87 2.3 0 3.17l5.54 5.54c.12.12.25.22.39.31v11.55l-8.11-8.11c.03-.14.04-.29.04-.44v-7.83c0-1.23-1.01-2.24-2.24-2.24s-2.24 1.01-2.24 2.24v3.83l-3.49-3.49c-.87-.87-2.3-.87-3.17 0l-.45.45c-.87.87-.87 2.3 0 3.17l3.53 3.53h-3.9c-1.23 0-2.24 1.01-2.24 2.24s1.01 2.24 2.24 2.24h7.84c.17 0 .33-.02.49-.06l7.99 7.99h-11.37c-.08-.12-.17-.23-.28-.34l-5.54-5.54c-.87-.87-2.3-.87-3.17 0s-.87 2.3 0 3.17l2.71 2.71h-4.94c-1.23 0-2.24 1.01-2.24 2.24v.64c0 1.23 1.01 2.24 2.24 2.24h4.99l-2.76 2.76c-.87.87-.87 2.3 0 3.17.87.87 2.3.87 3.17 0l5.54-5.54c.12-.12.22-.25.31-.39h11.45l-8.11 8.11c-.14-.03-.29-.04-.44-.04h-7.84c-1.23 0-2.24 1.01-2.24 2.24 0 1.23 1.01 2.24 2.24 2.24h3.83l-3.49 3.49c-.87.87-.87 2.3 0 3.17l.45.45c.87.87 2.3.87 3.17 0l3.53-3.53v3.9c0 1.23 1.01 2.24 2.24 2.24 1.23 0 2.24-1.01 2.24-2.24v-7.83c0-.17-.02-.33-.06-.49l8.09-8.09v11.48c-.12.08-.23.17-.34.28l-5.54 5.54c-.87.87-.87 2.3 0 3.17.87.87 2.3.87 3.17 0l2.71-2.71v4.94c0 1.23 1.01 2.24 2.24 2.24h.64c1.23 0 2.24-1.01 2.24-2.24v-4.99l2.76 2.76c.87.87 2.3.87 3.17 0 .87-.87.87-2.3 0-3.17l-5.54-5.54c-.12-.12-.25-.22-.39-.31v-11.34l8.11 8.11c-.03.14-.04.29-.04.44v7.84c0 1.23 1.01 2.24 2.24 2.24s2.24-1.01 2.24-2.24v-3.83l3.49 3.49c.87.87 2.3.87 3.17 0l.45-.45c.87-.87.87-2.3 0-3.17l-3.53-3.53h3.9c1.23 0 2.24-1.01 2.24-2.24s-1.01-2.24-2.24-2.24h-7.84c-.17 0-.33.02-.49.06l-8.2-8.2h11.58c.08.12.17.23.28.34l5.54 5.54c.87.87 2.3.87 3.17 0 .87-.87.87-2.3 0-3.17l-2.71-2.71h4.94c1.23 0 2.24-1.01 2.24-2.24v-.64c0-1.25-1.01-2.26-2.24-2.26z" display="inline" fill="#39f"/><path d="m425.08 179.66c-.02-72.59-58.89-131.41-131.47-131.38-50.3.02-93.98 28.29-116.06 69.8-5-.79-10.12-1.21-15.35-1.21-53.66.02-97.14 43.53-97.12 97.19s43.53 97.14 97.19 97.12c1.18 0 2.35-.03 3.52-.08.49.04.99.08 1.49.08l131.93-.04c1.01 0 1.99-.11 2.96-.28 68.64-4.4 122.94-61.46 122.91-131.2z" display="inline" fill="#7bd9ef"/><g fill="#39f"><path d="m269.76 352.21h-4.99l2.76-2.76c.87-.87.87-2.3 0-3.17-.87-.87-2.3-.87-3.17 0l-5.54 5.54c-.12.12-.22.25-.31.39h-11.45l8.11-8.11c.14.03.29.04.44.04h7.84c1.23 0 2.24-1.01 2.24-2.24 0-1.23-1.01-2.24-2.24-2.24h-3.83l3.49-3.49c.87-.87.87-2.3 0-3.17l-.45-.45c-.87-.87-2.3-.87-3.17 0l-3.53 3.53v-3.9c0-1.23-1.01-2.24-2.24-2.24-1.23 0-2.24 1.01-2.24 2.24v7.84c0 .17.02.33.06.49l-8.09 8.09v-11.48c.12-.08.23-.17.34-.28l5.54-5.54c.87-.87.87-2.3 0-3.17-.87-.87-2.3-.87-3.17 0l-2.71 2.71v-4.94c0-1.23-1.01-2.24-2.24-2.24h-.64c-1.23 0-2.24 1.01-2.24 2.24v4.99l-2.76-2.76c-.87-.87-2.3-.87-3.17 0-.87.87-.87 2.3 0 3.17l5.54 5.54c.12.12.25.22.39.31v11.55l-8.11-8.11c.03-.14.04-.29.04-.44v-7.83c0-1.23-1.01-2.24-2.24-2.24s-2.24 1.01-2.24 2.24v3.83l-3.49-3.49c-.87-.87-2.3-.87-3.17 0l-.45.45c-.87.87-.87 2.3 0 3.17l3.53 3.53h-3.9c-1.23 0-2.24 1.01-2.24 2.24s1.01 2.24 2.24 2.24h7.84c.17 0 .33-.02.49-.06l7.99 7.99h-11.37c-.08-.12-.17-.23-.28-.34l-5.54-5.54c-.87-.87-2.3-.87-3.17 0s-.87 2.3 0 3.17l2.71 2.71h-4.94c-1.23 0-2.24 1.01-2.24 2.24v.64c0 1.23 1.01 2.24 2.24 2.24h4.97l-2.76 2.76c-.87.87-.87 2.3 0 3.17.87.87 2.3.87 3.17 0l5.54-5.54c.12-.12.22-.25.31-.39h11.45l-8.11 8.11c-.14-.03-.29-.04-.44-.04h-7.84c-1.23 0-2.24 1.01-2.24 2.24 0 1.23 1.01 2.24 2.24 2.24h3.83l-3.49 3.49c-.87.87-.87 2.3 0 3.17l.45.45c.87.87 2.3.87 3.17 0l3.53-3.53v3.9c0 1.23 1.01 2.24 2.24 2.24 1.23 0 2.24-1.01 2.24-2.24v-7.83c0-.17-.02-.33-.06-.49l8.09-8.09v11.48c-.12.08-.23.17-.34.28l-5.54 5.54c-.87.87-.87 2.3 0 3.17.87.87 2.3.87 3.17 0l2.71-2.71v4.94c0 1.23 1.01 2.24 2.24 2.24h.64c1.23 0 2.24-1.01 2.24-2.24v-4.99l2.76 2.76c.87.87 2.3.87 3.17 0 .87-.87.87-2.3 0-3.17l-5.54-5.54c-.12-.12-.25-.22-.39-.31v-11.34l8.11 8.11c-.03.14-.04.29-.04.44v7.84c0 1.23 1.01 2.24 2.24 2.24s2.24-1.01 2.24-2.24v-3.83l3.49 3.49c.87.87 2.3.87 3.17 0l.45-.45c.87-.87.87-2.3 0-3.17l-3.53-3.53h3.9c1.23 0 2.24-1.01 2.24-2.24s-1.01-2.24-2.24-2.24h-7.83c-.17 0-.33.02-.49.06l-8.2-8.2h11.58c.08.12.17.23.28.34l5.54 5.54c.87.87 2.3.87 3.17 0 .87-.87.87-2.3 0-3.17l-2.71-2.71h4.94c1.23 0 2.24-1.01 2.24-2.24v-.64c.01-1.25-1-2.26-2.23-2.26z" display="inline"/><path d="m367.07 352.21h-4.99l2.76-2.76c.87-.87.87-2.3 0-3.17-.87-.87-2.3-.87-3.17 0l-5.54 5.54c-.12.12-.22.25-.31.39h-11.45l8.11-8.11c.14.03.29.04.44.04h7.83c1.23 0 2.24-1.01 2.24-2.24 0-1.23-1.01-2.24-2.24-2.24h-3.83l3.49-3.49c.87-.87.87-2.3 0-3.17l-.45-.45c-.87-.87-2.3-.87-3.17 0l-3.53 3.53v-3.9c0-1.23-1.01-2.24-2.24-2.24-1.23 0-2.24 1.01-2.24 2.24v7.84c0 .17.02.33.06.49l-8.09 8.09v-11.48c.12-.08.23-.17.34-.28l5.54-5.54c.87-.87.87-2.3 0-3.17-.87-.87-2.3-.87-3.17 0l-2.71 2.71v-4.94c0-1.23-1.01-2.24-2.24-2.24h-.64c-1.23 0-2.24 1.01-2.24 2.24v4.99l-2.76-2.76c-.87-.87-2.3-.87-3.17 0-.87.87-.87 2.3 0 3.17l5.54 5.54c.12.12.25.22.39.31v11.55l-8.11-8.11c.03-.14.04-.29.04-.44v-7.83c0-1.23-1.01-2.24-2.24-2.24s-2.24 1.01-2.24 2.24v3.83l-3.49-3.49c-.87-.87-2.3-.87-3.17 0l-.45.45c-.87.87-.87 2.3 0 3.17l3.53 3.53h-3.9c-1.23 0-2.24 1.01-2.24 2.24s1.01 2.24 2.24 2.24h7.84c.17 0 .33-.02.49-.06l7.99 7.99h-11.37c-.08-.12-.17-.23-.28-.34l-5.54-5.54c-.87-.87-2.3-.87-3.17 0s-.87 2.3 0 3.17l2.71 2.71h-4.94c-1.23 0-2.24 1.01-2.24 2.24v.64c0 1.23 1.01 2.24 2.24 2.24h4.99l-2.76 2.76c-.87.87-.87 2.3 0 3.17.87.87 2.3.87 3.17 0l5.54-5.54c.12-.12.22-.25.31-.39h11.45l-8.11 8.11c-.14-.03-.29-.04-.44-.04h-7.83c-1.23 0-2.24 1.01-2.24 2.24 0 1.23 1.01 2.24 2.24 2.24h3.83l-3.49 3.49c-.87.87-.87 2.3 0 3.17l.45.45c.87.87 2.3.87 3.17 0l3.53-3.53v3.9c0 1.23 1.01 2.24 2.24 2.24 1.23 0 2.24-1.01 2.24-2.24v-7.83c0-.17-.02-.33-.06-.49l8.09-8.09v11.48c-.12.08-.23.17-.34.28l-5.54 5.54c-.87.87-.87 2.3 0 3.17.87.87 2.3.87 3.17 0l2.71-2.71v4.94c0 1.23 1.01 2.24 2.24 2.24h.64c1.23 0 2.24-1.01 2.24-2.24v-4.99l2.76 2.76c.87.87 2.3.87 3.17 0 .87-.87.87-2.3 0-3.17l-5.54-5.54c-.12-.12-.25-.22-.39-.31v-11.34l8.11 8.11c-.03.14-.04.29-.04.44v7.84c0 1.23 1.01 2.24 2.24 2.24s2.24-1.01 2.24-2.24v-3.83l3.49 3.49c.87.87 2.3.87 3.17 0l.45-.45c.87-.87.87-2.3 0-3.17l-3.53-3.53h3.9c1.23 0 2.24-1.01 2.24-2.24s-1.01-2.24-2.24-2.24h-7.84c-.17 0-.33.02-.49.06l-8.2-8.2h11.58c.08.12.17.23.28.34l5.54 5.54c.87.87 2.3.87 3.17 0 .87-.87.87-2.3 0-3.17l-2.71-2.71h4.94c1.23 0 2.24-1.01 2.24-2.24v-.64c0-1.25-1.01-2.26-2.24-2.26z" display="inline"/><path d="m220.11 422.85h-4.28l2.37-2.37c.75-.75.75-1.97 0-2.72-.75-.75-1.97-.75-2.72 0l-4.75 4.75c-.1.1-.19.21-.26.33h-9.81l6.96-6.96c.12.02.25.04.37.04h6.72c1.06 0 1.92-.86 1.92-1.92 0-1.06-.86-1.92-1.92-1.92h-3.29l2.99-2.99c.75-.75.75-1.97 0-2.72l-.39-.39c-.75-.75-1.97-.75-2.72 0l-3.02 3.02v-3.35c0-1.06-.86-1.92-1.92-1.92-1.06 0-1.92.86-1.92 1.92v6.72c0 .15.02.29.05.42l-6.94 6.94v-9.84c.1-.07.2-.15.29-.24l4.75-4.75c.75-.75.75-1.97 0-2.72-.75-.75-1.97-.75-2.72 0l-2.32 2.32v-4.23c0-1.06-.86-1.92-1.92-1.92h-.55c-1.06 0-1.92.86-1.92 1.92v4.28l-2.37-2.37c-.75-.75-1.97-.75-2.72 0-.75.75-.75 1.97 0 2.72l4.75 4.75c.1.1.21.19.33.26v9.9l-6.96-6.96c.02-.12.04-.25.04-.37v-6.72c0-1.06-.86-1.92-1.92-1.92s-1.92.86-1.92 1.92v3.29l-2.99-2.99c-.75-.75-1.97-.75-2.72 0l-.39.39c-.75.75-.75 1.97 0 2.72l3.02 3.02h-3.35c-1.06 0-1.92.86-1.92 1.92s.86 1.92 1.92 1.92h6.72c.15 0 .29-.02.42-.05l6.85 6.85h-9.75c-.07-.1-.15-.2-.24-.29l-4.75-4.75c-.75-.75-1.97-.75-2.72 0s-.75 1.97 0 2.72l2.32 2.32h-4.23c-1.06 0-1.92.86-1.92 1.92v.55c0 1.06.86 1.92 1.92 1.92h4.28l-2.37 2.37c-.75.75-.75 1.97 0 2.72.75.75 1.97.75 2.72 0l4.75-4.75c.1-.1.19-.21.26-.33h9.81l-6.96 6.96c-.12-.02-.25-.04-.37-.04h-6.72c-1.06 0-1.92.86-1.92 1.92 0 1.06.86 1.92 1.92 1.92h3.29l-2.99 2.99c-.75.75-.75 1.97 0 2.72l.39.39c.75.75 1.97.75 2.72 0l3.02-3.02v3.35c0 1.06.86 1.92 1.92 1.92 1.06 0 1.92-.86 1.92-1.92v-6.72c0-.15-.02-.29-.05-.42l6.94-6.94v9.84c-.1.07-.2.15-.29.24l-4.75 4.75c-.75.75-.75 1.97 0 2.72.75.75 1.97.75 2.72 0l2.32-2.32v4.23c0 1.06.86 1.92 1.92 1.92h.55c1.06 0 1.92-.86 1.92-1.92v-4.28l2.37 2.37c.75.75 1.97.75 2.72 0 .75-.75.75-1.97 0-2.72l-4.75-4.75c-.1-.1-.21-.19-.33-.26v-9.73l6.96 6.96c-.02.12-.04.25-.04.37v6.72c0 1.06.86 1.92 1.92 1.92s1.92-.86 1.92-1.92v-3.29l2.99 2.99c.75.75 1.97.75 2.72 0l.39-.39c.75-.75.75-1.97 0-2.72l-3.02-3.02h3.35c1.06 0 1.92-.86 1.92-1.92s-.86-1.92-1.92-1.92h-6.72c-.15 0-.29.02-.42.05l-7.03-7.03h9.93c.07.1.15.2.24.29l4.75 4.75c.75.75 1.97.75 2.72 0 .75-.75.75-1.97 0-2.72l-2.32-2.32h4.23c1.06 0 1.92-.86 1.92-1.92v-.55c0-1.04-.87-1.91-1.92-1.91z" display="inline"/><path d="m302.55 422.85h-4.28l2.37-2.37c.75-.75.75-1.97 0-2.72-.75-.75-1.97-.75-2.72 0l-4.75 4.75c-.1.1-.19.21-.26.33h-9.81l6.96-6.96c.12.02.25.04.37.04h6.72c1.06 0 1.92-.86 1.92-1.92 0-1.06-.86-1.92-1.92-1.92h-3.29l2.99-2.99c.75-.75.75-1.97 0-2.72l-.39-.39c-.75-.75-1.97-.75-2.72 0l-3.02 3.02v-3.35c0-1.06-.86-1.92-1.92-1.92-1.06 0-1.92.86-1.92 1.92v6.72c0 .15.02.29.05.42l-6.94 6.94v-9.84c.1-.07.2-.15.29-.24l4.75-4.75c.75-.75.75-1.97 0-2.72-.75-.75-1.97-.75-2.72 0l-2.32 2.32v-4.23c0-1.06-.86-1.92-1.92-1.92h-.55c-1.06 0-1.92.86-1.92 1.92v4.28l-2.37-2.37c-.75-.75-1.97-.75-2.72 0-.75.75-.75 1.97 0 2.72l4.75 4.75c.1.1.21.19.33.26v9.9l-6.96-6.96c.02-.12.04-.25.04-.37v-6.72c0-1.06-.86-1.92-1.92-1.92s-1.92.86-1.92 1.92v3.29l-2.99-2.99c-.75-.75-1.97-.75-2.72 0l-.39.39c-.75.75-.75 1.97 0 2.72l3.02 3.02h-3.35c-1.06 0-1.92.86-1.92 1.92s.86 1.92 1.92 1.92h6.72c.15 0 .29-.02.42-.05l6.85 6.85h-9.75c-.07-.1-.15-.2-.24-.29l-4.75-4.75c-.75-.75-1.97-.75-2.72 0s-.75 1.97 0 2.72l2.32 2.32h-4.23c-1.06 0-1.92.86-1.92 1.92v.55c0 1.06.86 1.92 1.92 1.92h4.28l-2.37 2.37c-.75.75-.75 1.97 0 2.72.75.75 1.97.75 2.72 0l4.75-4.75c.1-.1.19-.21.26-.33h9.81l-6.96 6.96c-.12-.02-.25-.04-.37-.04h-6.72c-1.06 0-1.92.86-1.92 1.92 0 1.06.86 1.92 1.92 1.92h3.29l-2.99 2.99c-.75.75-.75 1.97 0 2.72l.39.39c.75.75 1.97.75 2.72 0l3.02-3.02v3.35c0 1.06.86 1.92 1.92 1.92 1.06 0 1.92-.86 1.92-1.92v-6.72c0-.15-.02-.29-.05-.42l6.94-6.94v9.84c-.1.07-.2.15-.29.24l-4.75 4.75c-.75.75-.75 1.97 0 2.72.75.75 1.97.75 2.72 0l2.32-2.32v4.23c0 1.06.86 1.92 1.92 1.92h.55c1.06 0 1.92-.86 1.92-1.92v-4.28l2.37 2.37c.75.75 1.97.75 2.72 0 .75-.75.75-1.97 0-2.72l-4.75-4.75c-.1-.1-.21-.19-.33-.26v-9.73l6.96 6.96c-.02.12-.04.25-.04.37v6.72c0 1.06.86 1.92 1.92 1.92s1.92-.86 1.92-1.92v-3.29l2.99 2.99c.75.75 1.97.75 2.72 0l.39-.39c.75-.75.75-1.97 0-2.72l-3.02-3.02h3.35c1.06 0 1.92-.86 1.92-1.92s-.86-1.92-1.92-1.92h-6.72c-.15 0-.29.02-.42.05l-7.03-7.03h9.93c.07.1.15.2.24.29l4.75 4.75c.75.75 1.97.75 2.72 0 .75-.75.75-1.97 0-2.72l-2.32-2.32h4.23c1.06 0 1.92-.86 1.92-1.92v-.55c0-1.04-.86-1.91-1.92-1.91z" display="inline"/></g></g><g id="sunrise" display="none"><path d="m440.97 449.15h-383.61c-6.6 0-12-5.4-12-12v-383.61c0-6.6 5.4-12 12-12h383.61c6.6 0 12 5.4 12 12v383.61c0 6.6-5.4 12-12 12z" display="inline" fill="#7bd9ef"/><path d="m347.89 279.41c-6.6 0-12-5.4-12-12v-49.24c0-6.6 5.4-12 12-12 6.6 0 12 5.4 12 12v49.24c0 6.6-5.4 12-12 12z" display="inline" fill="#4c3112"/><g id="Capa_15" display="inline"><circle cx="187.09" cy="245.34" fill="#f9d2e2" r="118.04"/><circle cx="187.09" cy="245.34" fill="#f7f2d2" r="91.11"/><circle cx="187.09" cy="245.34" fill="#fff" r="68.48"/></g><path d="m45.36 292.65s148.99-80.99 266.14 32.09c0 0 46.35 60.1 141.47 4.07v108.33s1.34 9.07-12 12h-383.61s-12 .07-12-12z" display="inline" fill="#36b253"/><path d="m453.01 292.65s-148.99-80.99-266.14 32.09c0 0-57.72 59.59-141.47 4.07v108.33s-1.34 9.07 12 12h383.61s12 .07 12-12z" display="inline" fill="#299144"/><path d="m393.14 170.31c.29-8.32-5.35-15.47-13.12-17.4 2.54-2.9 4.14-6.66 4.28-10.81.33-9.56-7.15-17.57-16.71-17.9-.71-.02-1.41.01-2.11.07-1.39-7.88-8.13-13.99-16.45-14.28-8.4-.29-15.6 5.45-17.45 13.33-1.13-.27-2.3-.44-3.51-.48-9.56-.33-17.57 7.15-17.9 16.71-.19 5.64 2.34 10.73 6.41 14.03-7.79 1.47-13.8 8.16-14.09 16.41-.29 8.32 5.35 15.47 13.12 17.4-2.54 2.9-4.14 6.66-4.28 10.81-.33 9.56 7.15 17.57 16.71 17.9 1.15.04 2.27-.04 3.36-.22 2.55 6 8.38 10.3 15.33 10.54 7.07.24 13.29-3.79 16.18-9.78 1.47.47 3.02.76 4.64.81 9.56.33 17.57-7.15 17.9-16.71.19-5.64-2.34-10.73-6.41-14.03 7.8-1.46 13.82-8.15 14.1-16.4z" display="inline" fill="#36b253"/></g><g id="night" display="none"><path d="m441.79 453.8h-383.61c-6.6 0-12-5.4-12-12v-383.6c0-6.6 5.4-12 12-12h383.61c6.6 0 12 5.4 12 12v383.6c0 6.6-5.4 12-12 12z" display="inline" fill="#7d7df4"/><circle cx="153.21" cy="146.73" display="inline" fill="#f7f2d2" r="56.02"/><path d="m393.96 174.96c.29-8.32-5.35-15.47-13.12-17.4 2.54-2.9 4.14-6.66 4.28-10.81.33-9.56-7.15-17.57-16.71-17.9-.71-.02-1.41.01-2.11.07-1.39-7.88-8.13-13.99-16.45-14.28-8.4-.29-15.6 5.45-17.45 13.33-1.13-.27-2.3-.44-3.51-.48-9.56-.33-17.57 7.15-17.9 16.71-.19 5.64 2.34 10.73 6.41 14.03-7.79 1.47-13.8 8.16-14.09 16.41-.29 8.32 5.35 15.47 13.12 17.4-2.54 2.9-4.14 6.66-4.28 10.81-.33 9.56 7.15 17.57 16.71 17.9 1.15.04 2.27-.04 3.36-.22 1.02 2.39 2.56 4.5 4.47 6.2v45.32c0 6.6 5.4 12 12 12s12-5.4 12-12v-46.38c1.22-1.29 2.26-2.76 3.04-4.38 1.47.47 3.02.76 4.64.81 9.56.33 17.57-7.15 17.9-16.71.19-5.64-2.34-10.73-6.41-14.03 7.8-1.45 13.81-8.15 14.1-16.4z" display="inline" fill="#3328a3"/><path d="m46.18 297.31s148.99-80.99 266.14 32.09c0 0 46.35 60.1 141.47 4.07v108.33s1.34 9.07-12 12h-383.61s-12 .07-12-12z" display="inline" fill="#5e5ae2"/><path d="m453.82 297.31s-148.99-80.99-266.14 32.09c0 0-57.72 59.59-141.47 4.07v108.33s-1.34 9.07 12 12h383.61s12 .07 12-12z" display="inline" fill="#4d41c9"/><g id="moon_00000155107001623533091610000003208993677583101088_" display="inline" fill="#e8d06d"><circle cx="166.54" cy="128.48" r="12.33"/><circle cx="133.54" cy="159.06" r="16.52"/><circle cx="144.95" cy="173.14" r="9.25"/></g></g><g id="snowy_mountain" display="none"><path d="m445.17 455.64h-390.1c-6.6 0-12-5.4-12-12v-390.1c0-6.6 5.4-12 12-12h390.1c6.6 0 12 5.4 12 12v390.1c0 6.6-5.4 12-12 12z" display="inline" fill="#e2e2e0"/><path d="m281.63 204.6c-2.36-4.09-8.26-4.09-10.63 0l-47.34 81.99-47.34 81.99c-2.36 4.09.59 9.2 5.31 9.2h94.67 94.67c4.72 0 7.67-5.11 5.31-9.2l-47.34-81.99z" display="inline" fill="#fff"/><path d="m300.87 238.22-8.55 15.85-16-11.35-12.72 15.04-10.5-21.85-29.43 50.98-47.34 81.99c-2.36 4.09.59 9.2 5.31 9.2h94.67 94.67c4.72 0 7.67-5.11 5.31-9.2l-47.34-81.99z" display="inline" fill="#666665"/><path d="m163.71 162.65c2.93-5.08 10.26-5.08 13.2 0l58.78 101.82 58.78 101.82c2.93 5.08-.73 11.43-6.6 11.43h-117.57-117.56c-5.86 0-9.53-6.35-6.6-11.43l58.78-101.82z" display="inline" fill="#fff"/><path d="m139.82 204.02 10.62 19.68 19.86-14.1 15.79 18.68 13.04-27.13 36.55 63.31 58.78 101.82c2.93 5.08-.73 11.43-6.6 11.43h-117.56-117.56c-5.86 0-9.53-6.35-6.6-11.43l58.78-101.82z" display="inline" fill="#828281"/><path d="m241.72 455.64h203.46s12-.57 12-12v-105.15c-.01 0-163.51-35.14-215.46 117.15z" display="inline" fill="#7bd9ef"/><path d="m43.07 353.77v89.87s.06 12 12 12h334.87s-97.8-186.93-346.87-101.87z" display="inline" fill="#94e0f7"/><path d="m308.22 168.36h-1.82l1.01-1.01c.32-.32.32-.84 0-1.15-.32-.32-.84-.32-1.15 0l-2.02 2.02c-.04.04-.08.09-.11.14h-4.17l2.96-2.96c.05.01.1.02.16.02h2.85c.45 0 .82-.37.82-.82 0-.45-.37-.82-.82-.82h-1.4l1.27-1.27c.32-.32.32-.84 0-1.15l-.17-.17c-.32-.32-.84-.32-1.15 0l-1.29 1.28v-1.42c0-.45-.37-.82-.82-.82-.45 0-.82.37-.82.82v2.85c0 .06.01.12.02.18l-2.95 2.95v-4.18c.04-.03.08-.06.12-.1l2.02-2.02c.32-.32.32-.84 0-1.15-.32-.32-.84-.32-1.15 0l-.99.99v-1.8c0-.45-.37-.82-.82-.82h-.23c-.45 0-.82.37-.82.82v1.82l-1.01-1.01c-.32-.32-.84-.32-1.15 0-.32.32-.32.84 0 1.15l2.02 2.02c.04.04.09.08.14.11v4.21l-2.96-2.96c.01-.05.02-.1.02-.16v-2.85c0-.45-.37-.82-.82-.82s-.82.37-.82.82v1.4l-1.27-1.27c-.32-.32-.84-.32-1.15 0l-.17.17c-.32.32-.32.84 0 1.15l1.29 1.28h-1.42c-.45 0-.82.37-.82.82s.37.82.82.82h2.85c.06 0 .12-.01.18-.02l2.91 2.91h-4.14c-.03-.04-.06-.08-.1-.12l-2.02-2.02c-.32-.32-.84-.32-1.15 0-.32.32-.32.84 0 1.15l.99.99h-1.8c-.45 0-.82.37-.82.82v.23c0 .45.37.82.82.82h1.82l-1.01 1.01c-.32.32-.32.84 0 1.15.32.32.84.32 1.15 0l2.02-2.02c.04-.04.08-.09.11-.14h4.17l-2.96 2.96c-.05-.01-.1-.02-.16-.02h-2.85c-.45 0-.82.37-.82.82 0 .45.37.82.82.82h1.4l-1.27 1.27c-.32.32-.32.84 0 1.15l.17.17c.32.32.84.32 1.15 0l1.28-1.28v1.42c0 .45.37.82.82.82.45 0 .82-.37.82-.82v-2.85c0-.06-.01-.12-.02-.18l2.95-2.95v4.18c-.04.03-.08.06-.12.1l-2.02 2.02c-.32.32-.32.84 0 1.15.32.32.84.32 1.15 0l.99-.99v1.8c0 .45.37.82.82.82h.23c.45 0 .82-.37.82-.82v-1.82l1.01 1.01c.32.32.84.32 1.15 0 .32-.32.32-.84 0-1.15l-2.02-2.02c-.04-.04-.09-.08-.14-.11v-4.13l2.96 2.96c-.01.05-.02.1-.02.16v2.85c0 .45.37.82.82.82s.82-.37.82-.82v-1.4l1.27 1.27c.32.32.84.32 1.15 0l.17-.17c.32-.32.32-.84 0-1.15l-1.28-1.28h1.42c.45 0 .82-.37.82-.82s-.37-.82-.82-.82h-2.85c-.06 0-.12.01-.18.02l-2.99-2.99h4.22c.03.04.06.08.1.12l2.02 2.02c.32.32.84.32 1.15 0 .32-.32.32-.84 0-1.15l-.99-.99h1.8c.45 0 .82-.37.82-.82v-.23c0-.45-.37-.82-.82-.82z" display="inline" fill="#39f"/><path d="m399.82 105.52c-.01-26.43-21.45-47.86-47.88-47.85-18.32.01-34.23 10.3-42.27 25.42-1.82-.29-3.69-.44-5.59-.44-19.54.01-35.38 15.85-35.37 35.39s15.85 35.38 35.39 35.37c.43 0 .86-.01 1.28-.03.18.02.36.03.54.03l48.05-.02c.37 0 .73-.04 1.08-.1 25-1.59 44.77-22.37 44.77-47.77z" display="inline" fill="#7bd9ef"/><g fill="#39f"><path d="m343.25 168.36h-1.82l1.01-1.01c.32-.32.32-.84 0-1.15-.32-.32-.84-.32-1.15 0l-2.02 2.02c-.04.04-.08.09-.11.14h-4.17l2.96-2.96c.05.01.1.02.16.02h2.85c.45 0 .82-.37.82-.82 0-.45-.37-.82-.82-.82h-1.4l1.27-1.27c.32-.32.32-.84 0-1.15l-.17-.17c-.32-.32-.84-.32-1.15 0l-1.28 1.28v-1.42c0-.45-.37-.82-.82-.82-.45 0-.82.37-.82.82v2.85c0 .06.01.12.02.18l-2.95 2.95v-4.18c.04-.03.08-.06.12-.1l2.02-2.02c.32-.32.32-.84 0-1.15-.32-.32-.84-.32-1.15 0l-.99.99v-1.8c0-.45-.37-.82-.82-.82h-.23c-.45 0-.82.37-.82.82v1.82l-1.01-1.01c-.32-.32-.84-.32-1.15 0-.32.32-.32.84 0 1.15l2.02 2.02c.04.04.09.08.14.11v4.21l-2.96-2.96c.01-.05.02-.1.02-.16v-2.85c0-.45-.37-.82-.82-.82s-.82.37-.82.82v1.4l-1.27-1.27c-.32-.32-.84-.32-1.15 0l-.17.17c-.32.32-.32.84 0 1.15l1.28 1.28h-1.42c-.45 0-.82.37-.82.82s.37.82.82.82h2.85c.06 0 .12-.01.18-.02l2.91 2.91h-4.14c-.03-.04-.06-.08-.1-.12l-2.02-2.02c-.32-.32-.84-.32-1.15 0-.32.32-.32.84 0 1.15l.99.99h-1.8c-.45 0-.82.37-.82.82v.23c0 .45.37.82.82.82h1.82l-1.01 1.01c-.32.32-.32.84 0 1.15.32.32.84.32 1.15 0l2.02-2.02c.04-.04.08-.09.11-.14h4.17l-2.96 2.96c-.05-.01-.1-.02-.16-.02h-2.85c-.45 0-.82.37-.82.82 0 .45.37.82.82.82h1.4l-1.27 1.27c-.32.32-.32.84 0 1.15l.17.17c.32.32.84.32 1.15 0l1.28-1.28v1.42c0 .45.37.82.82.82.45 0 .82-.37.82-.82v-2.85c0-.06-.01-.12-.02-.18l2.95-2.95v4.18c-.04.03-.08.06-.12.1l-2.02 2.02c-.32.32-.32.84 0 1.15.32.32.84.32 1.15 0l.99-.99v1.8c0 .45.37.82.82.82h.23c.45 0 .82-.37.82-.82v-1.82l1.01 1.01c.32.32.84.32 1.15 0 .32-.32.32-.84 0-1.15l-2.02-2.02c-.04-.04-.09-.08-.14-.11v-4.13l2.96 2.96c-.01.05-.02.1-.02.16v2.85c0 .45.37.82.82.82s.82-.37.82-.82v-1.4l1.27 1.27c.32.32.84.32 1.15 0l.17-.17c.32-.32.32-.84 0-1.15l-1.28-1.28h1.42c.45 0 .82-.37.82-.82s-.37-.82-.82-.82h-2.85c-.06 0-.12.01-.18.02l-2.99-2.99h4.22c.03.04.06.08.1.12l2.02 2.02c.32.32.84.32 1.15 0 .32-.32.32-.84 0-1.15l-.99-.99h1.8c.45 0 .82-.37.82-.82v-.23c-.01-.45-.37-.82-.82-.82z" display="inline"/><path d="m378.69 168.36h-1.82l1.01-1.01c.32-.32.32-.84 0-1.15-.32-.32-.84-.32-1.15 0l-2.02 2.02c-.04.04-.08.09-.11.14h-4.17l2.96-2.96c.05.01.1.02.16.02h2.85c.45 0 .82-.37.82-.82 0-.45-.37-.82-.82-.82h-1.4l1.27-1.27c.32-.32.32-.84 0-1.15l-.17-.17c-.32-.32-.84-.32-1.15 0l-1.28 1.28v-1.42c0-.45-.37-.82-.82-.82-.45 0-.82.37-.82.82v2.85c0 .06.01.12.02.18l-2.95 2.95v-4.18c.04-.03.08-.06.12-.1l2.02-2.02c.32-.32.32-.84 0-1.15-.32-.32-.84-.32-1.15 0l-.99.99v-1.8c0-.45-.37-.82-.82-.82h-.23c-.45 0-.82.37-.82.82v1.82l-1.01-1.01c-.32-.32-.84-.32-1.15 0-.32.32-.32.84 0 1.15l2.02 2.02c.04.04.09.08.14.11v4.21l-2.96-2.96c.01-.05.02-.1.02-.16v-2.85c0-.45-.37-.82-.82-.82s-.82.37-.82.82v1.4l-1.27-1.27c-.32-.32-.84-.32-1.15 0l-.17.17c-.32.32-.32.84 0 1.15l1.28 1.28h-1.42c-.45 0-.82.37-.82.82s.37.82.82.82h2.85c.06 0 .12-.01.18-.02l2.91 2.91h-4.14c-.03-.04-.06-.08-.1-.12l-2.02-2.02c-.32-.32-.84-.32-1.15 0-.32.32-.32.84 0 1.15l.99.99h-1.8c-.45 0-.82.37-.82.82v.23c0 .45.37.82.82.82h1.82l-1.01 1.01c-.32.32-.32.84 0 1.15.32.32.84.32 1.15 0l2.02-2.02c.04-.04.08-.09.11-.14h4.17l-2.96 2.96c-.05-.01-.1-.02-.16-.02h-2.85c-.45 0-.82.37-.82.82 0 .45.37.82.82.82h1.4l-1.27 1.27c-.32.32-.32.84 0 1.15l.17.17c.32.32.84.32 1.15 0l1.28-1.28v1.42c0 .45.37.82.82.82.45 0 .82-.37.82-.82v-2.85c0-.06-.01-.12-.02-.18l2.95-2.95v4.18c-.04.03-.08.06-.12.1l-2.02 2.02c-.32.32-.32.84 0 1.15.32.32.84.32 1.15 0l.99-.99v1.8c0 .45.37.82.82.82h.23c.45 0 .82-.37.82-.82v-1.82l1.01 1.01c.32.32.84.32 1.15 0 .32-.32.32-.84 0-1.15l-2.02-2.02c-.04-.04-.09-.08-.14-.11v-4.13l2.96 2.96c-.01.05-.02.1-.02.16v2.85c0 .45.37.82.82.82s.82-.37.82-.82v-1.4l1.27 1.27c.32.32.84.32 1.15 0l.17-.17c.32-.32.32-.84 0-1.15l-1.29-1.28h1.42c.45 0 .82-.37.82-.82s-.37-.82-.82-.82h-2.85c-.06 0-.12.01-.18.02l-2.99-2.99h4.22c.03.04.06.08.1.12l2.02 2.02c.32.32.84.32 1.15 0 .32-.32.32-.84 0-1.15l-.99-.99h1.8c.45 0 .82-.37.82-.82v-.23c0-.45-.36-.82-.81-.82z" display="inline"/><path d="m325.17 194.09h-1.56l.86-.86c.27-.27.27-.72 0-.99-.27-.27-.72-.27-.99 0l-1.73 1.73c-.04.04-.07.08-.1.12h-3.57l2.53-2.53c.04.01.09.01.14.01h2.45c.38 0 .7-.31.7-.7 0-.38-.31-.7-.7-.7h-1.2l1.09-1.09c.27-.27.27-.72 0-.99l-.14-.14c-.27-.27-.72-.27-.99 0l-1.1 1.1v-1.22c0-.38-.31-.7-.7-.7-.38 0-.7.31-.7.7v2.45c0 .05.01.1.02.15l-2.53 2.53v-3.58c.04-.02.07-.05.11-.09l1.73-1.73c.27-.27.27-.72 0-.99-.27-.27-.72-.27-.99 0l-.85.85v-1.54c0-.38-.31-.7-.7-.7h-.2c-.38 0-.7.31-.7.7v1.56l-.86-.86c-.27-.27-.72-.27-.99 0-.27.27-.27.72 0 .99l1.73 1.73c.04.04.08.07.12.1v3.61l-2.53-2.53c.01-.04.01-.09.01-.14v-2.45c0-.38-.31-.7-.7-.7s-.7.31-.7.7v1.2l-1.09-1.09c-.27-.27-.72-.27-.99 0l-.14.14c-.27.27-.27.72 0 .99l1.1 1.1h-1.22c-.38 0-.7.31-.7.7 0 .38.31.7.7.7h2.45c.05 0 .1-.01.15-.02l2.49 2.49h-3.55c-.02-.04-.05-.07-.09-.11l-1.73-1.73c-.27-.27-.72-.27-.99 0s-.27.72 0 .99l.85.85h-1.54c-.38 0-.7.31-.7.7v.2c0 .38.31.7.7.7h1.56l-.86.86c-.27.27-.27.72 0 .99.27.27.72.27.99 0l1.73-1.73c.04-.04.07-.08.1-.12h3.57l-2.53 2.53c-.04-.01-.09-.01-.14-.01h-2.45c-.38 0-.7.31-.7.7 0 .38.31.7.7.7h1.2l-1.09 1.09c-.27.27-.27.72 0 .99l.14.14c.27.27.72.27.99 0l1.1-1.1v1.22c0 .38.31.7.7.7.38 0 .7-.31.7-.7v-2.45c0-.05-.01-.1-.02-.15l2.53-2.53v3.58c-.04.02-.07.05-.11.09l-1.73 1.73c-.27.27-.27.72 0 .99.27.27.72.27.99 0l.85-.85v1.54c0 .38.31.7.7.7h.2c.38 0 .7-.31.7-.7v-1.56l.86.86c.27.27.72.27.99 0 .27-.27.27-.72 0-.99l-1.73-1.73c-.04-.04-.08-.07-.12-.1v-3.54l2.53 2.53c-.01.04-.01.09-.01.14v2.45c0 .38.31.7.7.7.38 0 .7-.31.7-.7v-1.2l1.09 1.09c.27.27.72.27.99 0l.14-.14c.27-.27.27-.72 0-.99l-1.1-1.1h1.22c.38 0 .7-.31.7-.7s-.31-.7-.7-.7h-2.45c-.05 0-.1.01-.15.02l-2.56-2.56h3.61c.02.04.05.07.09.11l1.73 1.73c.27.27.72.27.99 0 .27-.27.27-.72 0-.99l-.85-.85h1.54c.38 0 .7-.31.7-.7v-.2c.01-.39-.31-.7-.69-.7z" display="inline"/><path d="m355.19 194.09h-1.56l.86-.86c.27-.27.27-.72 0-.99-.27-.27-.72-.27-.99 0l-1.73 1.73c-.04.04-.07.08-.1.12h-3.57l2.53-2.53c.04.01.09.01.14.01h2.45c.38 0 .7-.31.7-.7 0-.38-.31-.7-.7-.7h-1.2l1.09-1.09c.27-.27.27-.72 0-.99l-.14-.14c-.27-.27-.72-.27-.99 0l-1.1 1.1v-1.22c0-.38-.31-.7-.7-.7-.38 0-.7.31-.7.7v2.45c0 .05.01.1.02.15l-2.53 2.53v-3.58c.04-.02.07-.05.11-.09l1.73-1.73c.27-.27.27-.72 0-.99-.27-.27-.72-.27-.99 0l-.85.85v-1.54c0-.38-.31-.7-.7-.7h-.2c-.38 0-.7.31-.7.7v1.56l-.86-.86c-.27-.27-.72-.27-.99 0-.27.27-.27.72 0 .99l1.73 1.73c.04.04.08.07.12.1v3.61l-2.53-2.53c.01-.04.01-.09.01-.14v-2.45c0-.38-.31-.7-.7-.7-.38 0-.7.31-.7.7v1.2l-1.09-1.09c-.27-.27-.72-.27-.99 0l-.14.14c-.27.27-.27.72 0 .99l1.1 1.1h-1.22c-.38 0-.7.31-.7.7 0 .38.31.7.7.7h2.45c.05 0 .1-.01.15-.02l2.49 2.49h-3.55c-.02-.04-.05-.07-.09-.11l-1.73-1.73c-.27-.27-.72-.27-.99 0s-.27.72 0 .99l.85.85h-1.54c-.38 0-.7.31-.7.7v.2c0 .38.31.7.7.7h1.56l-.86.86c-.27.27-.27.72 0 .99.27.27.72.27.99 0l1.73-1.73c.04-.04.07-.08.1-.12h3.57l-2.53 2.53c-.04-.01-.09-.01-.14-.01h-2.45c-.38 0-.7.31-.7.7 0 .38.31.7.7.7h1.2l-1.09 1.09c-.27.27-.27.72 0 .99l.14.14c.27.27.72.27.99 0l1.1-1.1v1.22c0 .38.31.7.7.7.38 0 .7-.31.7-.7v-2.45c0-.05-.01-.1-.02-.15l2.53-2.53v3.58c-.04.02-.07.05-.11.09l-1.73 1.73c-.27.27-.27.72 0 .99.27.27.72.27.99 0l.85-.85v1.54c0 .38.31.7.7.7h.2c.38 0 .7-.31.7-.7v-1.56l.86.86c.27.27.72.27.99 0 .27-.27.27-.72 0-.99l-1.73-1.73c-.04-.04-.08-.07-.12-.1v-3.54l2.53 2.53c-.01.04-.01.09-.01.14v2.45c0 .38.31.7.7.7.38 0 .7-.31.7-.7v-1.2l1.09 1.09c.27.27.72.27.99 0l.14-.14c.27-.27.27-.72 0-.99l-1.1-1.1h1.22c.38 0 .7-.31.7-.7s-.31-.7-.7-.7h-2.45c-.05 0-.1.01-.15.02l-2.56-2.56h3.61c.02.04.05.07.09.11l1.73 1.73c.27.27.72.27.99 0 .27-.27.27-.72 0-.99l-.85-.85h1.54c.38 0 .7-.31.7-.7v-.2c.01-.39-.3-.7-.69-.7z" display="inline"/></g></g><g id="sunny" display="none"><path d="m445.05 454.44h-390.1c-6.6 0-12-5.4-12-12v-390.1c0-6.6 5.4-12 12-12h390.1c6.6 0 12 5.4 12 12v390.1c0 6.6-5.4 12-12 12z" display="inline" fill="#7bd9ef"/><path d="m281.51 203.39c-2.36-4.09-8.26-4.09-10.63 0l-47.34 81.99-47.34 81.99c-2.36 4.09.59 9.2 5.31 9.2h94.67 94.67c4.72 0 7.67-5.11 5.31-9.2l-47.34-81.99z" display="inline" fill="#666665"/><path d="m163.59 161.44c2.93-5.08 10.26-5.08 13.2 0l58.78 101.82 58.78 101.82c2.93 5.08-.73 11.43-6.6 11.43h-117.57-117.56c-5.86 0-9.53-6.35-6.6-11.43l58.78-101.82z" display="inline" fill="#828281"/><path d="m241.6 454.44h203.46s12-.57 12-12v-105.15c-.01 0-163.51-35.15-215.46 117.15z" display="inline" fill="#36b253"/><path d="m42.95 352.57v89.87s.06 12 12 12h334.87s-97.8-186.93-346.87-101.87z" display="inline" fill="#299144"/><g fill="#edb61b"><path d="m306.11 105.74-12.34-12.06c-1.73-1.69-1.76-4.5-.07-6.23 1.69-1.73 4.5-1.76 6.23-.07l12.34 12.06c1.73 1.69 1.76 4.5.07 6.23-1.7 1.73-4.5 1.77-6.23.07z" display="inline"/><path d="m377.61 98.7 12.06-12.34c1.69-1.73 4.5-1.76 6.23-.07 1.73 1.69 1.76 4.5.07 6.23l-12.06 12.34c-1.69 1.73-4.5 1.76-6.23.07-1.74-1.7-1.77-4.5-.07-6.23z" display="inline"/><path d="m393.9 129.17 17.26-.2c2.42-.03 4.43 1.93 4.45 4.35.03 2.42-1.93 4.43-4.35 4.45l-17.26.2c-2.42.03-4.43-1.93-4.45-4.35-.03-2.42 1.93-4.43 4.35-4.45z" display="inline"/><path d="m280.55 130.46 17.26-.2c2.42-.03 4.43 1.93 4.45 4.35.03 2.42-1.93 4.43-4.35 4.45l-17.26.2c-2.42.03-4.43-1.93-4.45-4.35-.03-2.42 1.93-4.43 4.35-4.45z" display="inline"/><path d="m340.41 88.16-.2-17.26c-.03-2.42 1.93-4.43 4.35-4.45 2.42-.03 4.43 1.93 4.45 4.35l.2 17.26c.03 2.42-1.93 4.43-4.35 4.45-2.42.03-4.43-1.93-4.45-4.35z" display="inline"/><circle cx="345.34" cy="134.74" display="inline" r="31.67"/><path d="m384.43 163.75 12.48 11.92c1.75 1.67 1.82 4.48.14 6.23-1.67 1.75-4.48 1.82-6.23.14l-12.48-11.92c-1.75-1.67-1.82-4.48-.14-6.23 1.68-1.75 4.48-1.82 6.23-.14z" display="inline"/><path d="m313.02 171.6-11.92 12.48c-1.67 1.75-4.48 1.82-6.23.14-1.75-1.67-1.82-4.48-.14-6.23l11.92-12.48c1.67-1.75 4.48-1.82 6.23-.14 1.75 1.68 1.81 4.48.14 6.23z" display="inline"/><path d="m350.33 181.72.39 17.25c.06 2.42-1.88 4.45-4.3 4.5-2.42.06-4.45-1.88-4.5-4.3l-.39-17.25c-.06-2.42 1.88-4.45 4.3-4.5 2.42-.06 4.45 1.88 4.5 4.3z" display="inline"/></g></g><g id="flooded" display="none"><path d="m446.5 41.5h-393c-6.6 0-12 5.4-12 12v393c0 6.6 5.4 12 12 12h393c6.6 0 12-5.4 12-12v-393c0-6.6-5.4-12-12-12z" display="inline" fill="#d9dadb"/><path d="m421.75 294.6c-13.75 0-25.73-7.55-32.04-18.74-1.03-1.82-3.64-1.82-4.67 0-6.3 11.18-18.28 18.74-32.04 18.74-13.72 0-25.67-7.52-31.99-18.65-1.03-1.81-3.63-1.81-4.66 0-6.31 11.14-18.27 18.65-31.99 18.65-13.75 0-25.73-7.55-32.04-18.74-1.03-1.82-3.64-1.82-4.67 0-6.3 11.18-18.28 18.74-32.04 18.74-13.72 0-25.67-7.52-31.99-18.65-1.03-1.81-3.63-1.81-4.66 0-6.31 11.14-18.27 18.65-31.99 18.65-13.75 0-25.73-7.55-32.04-18.74-1.03-1.82-3.64-1.82-4.67 0-6.3 11.18-18.28 18.74-32.04 18.74-19.63 0-35.66-15.39-36.7-34.76h-.02v98.53c0 1.48 1.2 2.69 2.69 2.69h411.63c1.48 0 2.69-1.2 2.69-2.69v-98.53h-.06c-1.04 19.37-17.07 34.76-36.7 34.76z" display="inline" fill="#39f"/><path d="m351.81 393.29h-197.92c-6.6 0-12-5.4-12-12v-319.05c0-6.6 5.4-12 12-12h197.92c6.6 0 12 5.4 12 12v319.05c0 6.6-5.4 12-12 12z" display="inline" fill="#edb61b"/><g fill="#ce5c0f"><path d="m229.78 149.41h-47.9c-4.71 0-8.57-3.85-8.57-8.57v-47.9c0-4.71 3.85-8.57 8.57-8.57h47.9c4.71 0 8.57 3.85 8.57 8.57v47.9c0 4.72-3.86 8.57-8.57 8.57z" display="inline"/><path d="m326.52 149.41h-47.9c-4.71 0-8.57-3.85-8.57-8.57v-47.9c0-4.71 3.85-8.57 8.57-8.57h47.9c4.71 0 8.57 3.85 8.57 8.57v47.9c-.01 4.72-3.86 8.57-8.57 8.57z" display="inline"/><path d="m229.78 248.46h-47.9c-4.71 0-8.57-3.85-8.57-8.57v-47.9c0-4.71 3.85-8.57 8.57-8.57h47.9c4.71 0 8.57 3.85 8.57 8.57v47.9c0 4.72-3.86 8.57-8.57 8.57z" display="inline"/><path d="m326.52 248.46h-47.9c-4.71 0-8.57-3.85-8.57-8.57v-47.9c0-4.71 3.85-8.57 8.57-8.57h47.9c4.71 0 8.57 3.85 8.57 8.57v47.9c-.01 4.72-3.86 8.57-8.57 8.57z" display="inline"/><path d="m229.78 347.51h-47.9c-4.71 0-8.57-3.85-8.57-8.57v-47.9c0-4.71 3.85-8.57 8.57-8.57h47.9c4.71 0 8.57 3.85 8.57 8.57v47.9c0 4.71-3.86 8.57-8.57 8.57z" display="inline"/><path d="m335.08 393.29h-65.03v-102.25c0-4.71 3.85-8.57 8.57-8.57h47.9c4.71 0 8.57 3.85 8.57 8.57v102.25z" display="inline"/></g><path d="m421.75 357.22c-13.75 0-25.73-7.55-32.04-18.74-1.03-1.82-3.64-1.82-4.67 0-6.3 11.18-18.28 18.74-32.04 18.74-13.72 0-25.67-7.52-31.99-18.65-1.03-1.81-3.63-1.81-4.66 0-6.31 11.14-18.27 18.65-31.99 18.65-13.75 0-25.73-7.55-32.04-18.74-1.03-1.82-3.64-1.82-4.67 0-6.3 11.18-18.28 18.74-32.04 18.74-13.72 0-25.67-7.52-31.99-18.65-1.03-1.81-3.63-1.81-4.66 0-6.31 11.14-18.27 18.65-31.99 18.65-13.75 0-25.73-7.55-32.04-18.74-1.03-1.82-3.64-1.82-4.67 0-6.3 11.18-18.28 18.74-32.04 18.74-19.63 0-35.66-15.39-36.7-34.76h-.02v98.53c0 1.48 1.2 2.69 2.69 2.69h411.63c1.48 0 2.69-1.2 2.69-2.69v-98.53h-.06c-1.04 19.38-17.07 34.76-36.7 34.76z" display="inline" fill="#05429b"/><path d="m421.75 392.05c-13.75 0-25.73-7.55-32.04-18.74-1.03-1.82-3.64-1.82-4.67 0-6.3 11.18-18.28 18.74-32.04 18.74-13.72 0-25.67-7.52-31.99-18.65-1.03-1.81-3.63-1.81-4.66 0-6.31 11.14-18.27 18.65-31.99 18.65-13.75 0-25.73-7.55-32.04-18.74-1.03-1.82-3.64-1.82-4.67 0-6.3 11.18-18.28 18.74-32.04 18.74-13.72 0-25.67-7.52-31.99-18.65-1.03-1.81-3.63-1.81-4.66 0-6.31 11.14-18.27 18.65-31.99 18.65-13.75 0-25.73-7.55-32.04-18.74-1.03-1.82-3.64-1.82-4.67 0-6.3 11.18-18.28 18.74-32.04 18.74-19.63 0-35.66-15.39-36.7-34.76h-.02v84.38c0 9.3 7.54 16.83 16.83 16.83h384.23c8.81 0 15.94-7.14 15.94-15.94v-85.27h-.06c-1.03 19.37-17.06 34.76-36.69 34.76z" display="inline" fill="#39f"/></g><g id="rainy_area" display="none"><path d="m415.36 447.65h-330.72l52.76-196.32 225.2-.94z" display="inline" fill="#36b253"/><g display="inline"><path d="m362.49 144.03c-3.13-62.06-50.37-112.51-112.51-112.51s-109.74 50.43-112.51 112.51c-3.38 75.87 112.51 221.92 112.51 221.92s116.65-139.95 112.51-221.92z" fill="#cc0909"/><circle cx="249.98" cy="144.24" fill="#fff" r="54.49"/></g><g fill="#7bd9ef"><path d="m153.64 312.7c-5.67 8.3-17 10.42-25.29 4.75-8.3-5.67-10.42-17-4.75-25.29 4.45-6.51 26.17-18.41 35.3-23.23 1.74-.92 3.8.49 3.57 2.44-1.17 10.27-4.37 34.82-8.83 41.33z" display="inline"/><path d="m264.13 314.07c-5.67 8.3-17 10.42-25.29 4.75-8.3-5.67-10.42-17-4.75-25.29 4.45-6.51 26.17-18.41 35.3-23.23 1.74-.92 3.8.49 3.57 2.44-1.18 10.26-4.38 34.81-8.83 41.33z" display="inline"/><path d="m370.69 312.27c-5.67 8.3-17 10.42-25.29 4.75-8.3-5.67-10.42-17-4.75-25.29 4.45-6.51 26.17-18.41 35.3-23.23 1.74-.92 3.8.49 3.57 2.44-1.17 10.26-4.37 34.81-8.83 41.33z" display="inline"/><path d="m195.71 389.39c-5.67 8.3-17 10.42-25.29 4.75-8.3-5.67-10.42-17-4.75-25.29 4.45-6.51 26.17-18.41 35.3-23.23 1.74-.92 3.8.49 3.57 2.44-1.17 10.27-4.37 34.82-8.83 41.33z" display="inline"/><path d="m306.2 390.76c-5.67 8.3-17 10.42-25.29 4.75-8.3-5.67-10.42-17-4.75-25.29 4.45-6.51 26.17-18.41 35.3-23.23 1.74-.92 3.8.49 3.57 2.44-1.17 10.26-4.38 34.81-8.83 41.33z" display="inline"/></g></g><g id="thermometer" display="none"><path d="m370.9 459.67h-241.8c-6.6 0-12-5.4-12-12v-395.34c0-6.6 5.4-12 12-12h241.8c6.6 0 12 5.4 12 12v395.33c0 6.61-5.4 12.01-12 12.01z" display="inline" fill="#7bd9ef"/><g display="inline"><path d="m289.62 291.43v-182.14c0-21.79-17.83-39.62-39.62-39.62-21.79 0-39.62 17.83-39.62 39.62v182.14c-21.3 13.26-35.48 36.87-35.48 63.8 0 41.48 33.63 75.11 75.11 75.11s75.11-33.63 75.11-75.11c-.01-26.94-14.2-50.55-35.5-63.8z" fill="#d8d8d8"/><path d="m263.62 313.43v-204.1c0-7.13-5.83-12.96-12.96-12.96h-1.31c-7.13 0-12.96 5.83-12.96 12.96v204.1c-20.27 5.57-35.08 23.24-35.08 44.19 0 25.42 21.8 46.03 48.7 46.03s48.7-20.61 48.7-46.03c-.01-20.96-14.82-38.62-35.09-44.19z" fill="#39f"/><path d="m263.62 313.43v-90.37h-27.24v90.37c-20.27 5.57-35.08 23.24-35.08 44.19 0 25.42 21.8 46.03 48.7 46.03s48.7-20.61 48.7-46.03c0-20.96-14.81-38.62-35.08-44.19z" fill="#cc0909"/></g><path d="m360.14 101.64h-45.84c-2.94 0-5.35-2.41-5.35-5.35 0-2.94 2.41-5.35 5.35-5.35h45.84c2.94 0 5.35 2.41 5.35 5.35 0 2.95-2.41 5.35-5.35 5.35z" display="inline"/><path d="m331.87 124.31h-17.57c-2.94 0-5.35-2.41-5.35-5.35 0-2.94 2.41-5.35 5.35-5.35h17.57c2.94 0 5.35 2.41 5.35 5.35 0 2.94-2.41 5.35-5.35 5.35z" display="inline"/><path d="m331.87 146.98h-17.57c-2.94 0-5.35-2.41-5.35-5.35 0-2.94 2.41-5.35 5.35-5.35h17.57c2.94 0 5.35 2.41 5.35 5.35 0 2.94-2.41 5.35-5.35 5.35z" display="inline"/><path d="m360.14 169.64h-45.84c-2.94 0-5.35-2.41-5.35-5.35 0-2.94 2.41-5.35 5.35-5.35h45.84c2.94 0 5.35 2.41 5.35 5.35 0 2.95-2.41 5.35-5.35 5.35z" display="inline"/><path d="m331.87 192.31h-17.57c-2.94 0-5.35-2.41-5.35-5.35 0-2.94 2.41-5.35 5.35-5.35h17.57c2.94 0 5.35 2.41 5.35 5.35 0 2.94-2.41 5.35-5.35 5.35z" display="inline"/><path d="m331.87 214.97h-17.57c-2.94 0-5.35-2.41-5.35-5.35 0-2.94 2.41-5.35 5.35-5.35h17.57c2.94 0 5.35 2.41 5.35 5.35 0 2.95-2.41 5.35-5.35 5.35z" display="inline"/><path d="m360.14 237.64h-45.84c-2.94 0-5.35-2.41-5.35-5.35 0-2.94 2.41-5.35 5.35-5.35h45.84c2.94 0 5.35 2.41 5.35 5.35 0 2.94-2.41 5.35-5.35 5.35z" display="inline"/></g><g id="time_calendar" display="none"><path d="m412.58 432.35h-325.16c-6.6 0-12-5.4-12-12v-325.16c0-6.6 5.4-12 12-12h325.16c6.6 0 12 5.4 12 12v325.16c0 6.6-5.4 12-12 12z" display="inline" fill="#0b61a8"/><path d="m424.58 166.22h-349.16v-71.03c0-6.6 5.4-12 12-12h325.16c6.6 0 12 5.4 12 12z" display="inline" fill="#7bd9ef"/><g display="inline" fill="#edb61b"><path d="m264.63 230.88-15.71-15.35c-2.2-2.16-2.25-5.72-.09-7.93 2.16-2.2 5.72-2.25 7.93-.09l15.71 15.35c2.2 2.16 2.25 5.72.09 7.93-2.16 2.21-5.72 2.25-7.93.09z"/><path d="m355.63 221.92 15.35-15.71c2.16-2.2 5.72-2.25 7.93-.09 2.2 2.16 2.25 5.72.09 7.93l-15.35 15.71c-2.16 2.2-5.72 2.25-7.93.09-2.2-2.16-2.24-5.73-.09-7.93z"/><path d="m376.37 260.7 21.96-.25c3.08-.04 5.63 2.46 5.67 5.54.04 3.08-2.46 5.63-5.54 5.67l-21.96.25c-3.08.04-5.63-2.46-5.67-5.54-.03-3.09 2.46-5.64 5.54-5.67z"/><path d="m232.1 262.34 21.96-.25c3.08-.04 5.63 2.46 5.67 5.54.04 3.08-2.46 5.63-5.54 5.67l-21.96.25c-3.08.04-5.63-2.46-5.67-5.54-.03-3.08 2.46-5.63 5.54-5.67z"/><path d="m308.29 208.51-.25-21.96c-.04-3.08 2.46-5.63 5.54-5.67 3.08-.04 5.63 2.46 5.67 5.54l.25 21.96c.04 3.08-2.46 5.63-5.54 5.67-3.09.03-5.64-2.46-5.67-5.54z"/><circle cx="314.57" cy="267.8" r="40.31"/><path d="m364.32 304.71 15.88 15.17c2.23 2.13 2.31 5.7.18 7.93-2.13 2.23-5.7 2.31-7.93.18l-15.88-15.17c-2.23-2.13-2.31-5.7-.18-7.93 2.13-2.23 5.7-2.31 7.93-.18z"/><path d="m273.42 314.71-15.17 15.88c-2.13 2.23-5.7 2.31-7.93.18-2.23-2.13-2.31-5.7-.18-7.93l15.17-15.88c2.13-2.23 5.7-2.31 7.93-.18 2.23 2.14 2.31 5.7.18 7.93z"/><path d="m320.92 327.59.5 21.96c.07 3.08-2.39 5.66-5.48 5.73-3.08.07-5.66-2.39-5.73-5.48l-.5-21.96c-.07-3.08 2.39-5.66 5.48-5.73 3.08-.07 5.66 2.39 5.73 5.48z"/></g><g fill="#39f"><path d="m134.73 124.7h-11.42c-4 0-7.28-3.28-7.28-7.28v-56.76c0-4 3.28-7.28 7.28-7.28h11.42c4 0 7.28 3.28 7.28 7.28v56.77c0 4-3.28 7.27-7.28 7.27z" display="inline"/><path d="m194.4 124.7h-11.42c-4 0-7.28-3.28-7.28-7.28v-56.76c0-4 3.28-7.28 7.28-7.28h11.42c4 0 7.28 3.28 7.28 7.28v56.77c0 4-3.27 7.27-7.28 7.27z" display="inline"/><path d="m255.03 124.7h-11.42c-4 0-7.28-3.28-7.28-7.28v-56.76c0-4 3.28-7.28 7.28-7.28h11.42c4 0 7.28 3.28 7.28 7.28v56.77c0 4-3.28 7.27-7.28 7.27z" display="inline"/><path d="m315.25 124.7h-11.42c-4 0-7.28-3.28-7.28-7.28v-56.76c0-4 3.28-7.28 7.28-7.28h11.42c4 0 7.28 3.28 7.28 7.28v56.77c0 4-3.28 7.27-7.28 7.27z" display="inline"/><path d="m374.92 124.7h-11.42c-4 0-7.28-3.28-7.28-7.28v-56.76c0-4 3.28-7.28 7.28-7.28h11.42c4 0 7.28 3.28 7.28 7.28v56.77c0 4-3.27 7.27-7.28 7.27z" display="inline"/></g><path d="m338.08 324c-.01-43.12-34.99-78.07-78.11-78.06-29.88.01-55.83 16.81-68.95 41.47-2.97-.47-6.01-.72-9.12-.72-31.88.01-57.71 25.86-57.7 57.74s25.86 57.71 57.74 57.7c.7 0 1.4-.02 2.09-.05.29.03.59.04.88.04l78.38-.03c.6 0 1.18-.06 1.76-.17 40.78-2.58 73.04-36.48 73.03-77.92z" display="inline" fill="#7bd9ef"/></g><g id="time_calendar_snowing" display="none"><path d="m404.88 435.79h-325.16c-6.6 0-12-5.4-12-12v-325.16c0-6.6 5.4-12 12-12h325.16c6.6 0 12 5.4 12 12v325.16c0 6.6-5.4 12-12 12z" display="inline" fill="#0b61a8"/><path d="m416.88 169.66h-349.16v-71.03c0-6.6 5.4-12 12-12h325.16c6.6 0 12 5.4 12 12z" display="inline" fill="#7bd9ef"/><g fill="#39f"><path d="m127.03 128.14h-11.42c-4 0-7.28-3.28-7.28-7.28v-56.77c0-4 3.28-7.28 7.28-7.28h11.42c4 0 7.28 3.28 7.28 7.28v56.77c0 4.01-3.28 7.28-7.28 7.28z" display="inline"/><path d="m186.7 128.14h-11.42c-4 0-7.28-3.28-7.28-7.28v-56.77c0-4 3.28-7.28 7.28-7.28h11.42c4 0 7.28 3.28 7.28 7.28v56.77c0 4.01-3.27 7.28-7.28 7.28z" display="inline"/><path d="m247.33 128.14h-11.42c-4 0-7.28-3.28-7.28-7.28v-56.77c0-4 3.28-7.28 7.28-7.28h11.42c4 0 7.28 3.28 7.28 7.28v56.77c0 4.01-3.28 7.28-7.28 7.28z" display="inline"/><path d="m307.55 128.14h-11.42c-4 0-7.28-3.28-7.28-7.28v-56.77c0-4 3.28-7.28 7.28-7.28h11.42c4 0 7.28 3.28 7.28 7.28v56.77c0 4.01-3.28 7.28-7.28 7.28z" display="inline"/><path d="m367.22 128.14h-11.42c-4 0-7.28-3.28-7.28-7.28v-56.77c0-4 3.28-7.28 7.28-7.28h11.42c4 0 7.28 3.28 7.28 7.28v56.77c0 4.01-3.28 7.28-7.28 7.28z" display="inline"/></g><path d="m264.66 249.21h-10.15l5.61-5.61c1.77-1.77 1.77-4.67 0-6.44-1.77-1.77-4.67-1.77-6.44 0l-11.27 11.27c-.24.24-.45.51-.63.79h-23.28l16.5-16.5c.29.06.58.09.88.09h15.93c2.51 0 4.56-2.05 4.56-4.56 0-2.51-2.05-4.56-4.56-4.56h-7.79l7.1-7.1c1.77-1.77 1.77-4.67 0-6.44l-.92-.92c-1.77-1.77-4.67-1.77-6.44 0l-7.18 7.18v-7.94c0-2.51-2.05-4.56-4.56-4.56-2.51 0-4.56 2.05-4.56 4.56v15.93c0 .34.04.68.12 1l-16.46 16.46v-23.34c.24-.16.47-.35.69-.56l11.27-11.27c1.77-1.77 1.77-4.67 0-6.44-1.77-1.77-4.67-1.77-6.44 0l-5.51 5.51v-10.05c0-2.51-2.05-4.56-4.56-4.56h-1.3c-2.51 0-4.56 2.05-4.56 4.56v10.15l-5.61-5.61c-1.77-1.77-4.67-1.77-6.44 0-1.77 1.77-1.77 4.67 0 6.44l11.27 11.27c.24.24.51.45.79.63v23.49l-16.5-16.5c.06-.29.09-.58.09-.88v-15.93c0-2.51-2.05-4.56-4.56-4.56s-4.56 2.05-4.56 4.56v7.79l-7.1-7.1c-1.77-1.77-4.67-1.77-6.44 0l-.92.92c-1.77 1.77-1.77 4.67 0 6.44l7.18 7.18h-7.94c-2.51 0-4.56 2.05-4.56 4.56s2.05 4.56 4.56 4.56h15.93c.34 0 .68-.04 1-.12l16.25 16.25h-23.13c-.16-.24-.35-.47-.56-.69l-11.27-11.27c-1.77-1.77-4.67-1.77-6.44 0s-1.77 4.67 0 6.44l5.51 5.51h-10.05c-2.51 0-4.56 2.05-4.56 4.56v1.3c0 2.51 2.05 4.56 4.56 4.56h10.15l-5.61 5.61c-1.77 1.77-1.77 4.67 0 6.44 1.77 1.77 4.67 1.77 6.44 0l11.27-11.27c.24-.24.45-.51.63-.79h23.28l-16.5 16.5c-.29-.06-.58-.09-.88-.09h-15.93c-2.51 0-4.56 2.05-4.56 4.56 0 2.51 2.05 4.56 4.56 4.56h7.79l-7.1 7.1c-1.77 1.77-1.77 4.67 0 6.44l.92.92c1.77 1.77 4.67 1.77 6.44 0l7.18-7.18v7.94c0 2.51 2.05 4.56 4.56 4.56 2.51 0 4.56-2.05 4.56-4.56v-15.93c0-.34-.04-.68-.12-1l16.46-16.47v23.34c-.24.16-.47.35-.69.56l-11.27 11.27c-1.77 1.77-1.77 4.67 0 6.44 1.77 1.77 4.67 1.77 6.44 0l5.51-5.51v10.05c0 2.51 2.05 4.56 4.56 4.56h1.3c2.51 0 4.56-2.05 4.56-4.56v-10.15l5.61 5.61c1.77 1.77 4.67 1.77 6.44 0 1.77-1.77 1.77-4.67 0-6.44l-11.27-11.27c-.24-.24-.51-.45-.79-.63v-23.07l16.5 16.5c-.06.29-.09.58-.09.88v15.93c0 2.51 2.05 4.56 4.56 4.56s4.56-2.05 4.56-4.56v-7.79l7.1 7.1c1.77 1.77 4.67 1.77 6.44 0l.92-.92c1.77-1.77 1.77-4.67 0-6.44l-7.18-7.18h7.94c2.51 0 4.56-2.05 4.56-4.56s-2.05-4.56-4.56-4.56h-15.93c-.34 0-.68.04-1 .12l-16.67-16.67h23.54c.16.24.35.47.56.69l11.27 11.27c1.77 1.77 4.67 1.77 6.44 0 1.77-1.77 1.77-4.67 0-6.44l-5.51-5.51h10.05c2.51 0 4.56-2.05 4.56-4.56v-1.3c.01-2.5-2.04-4.55-4.55-4.55z" display="inline" fill="#7bd9ef"/><path d="m248.57 365.18h-6.18l3.42-3.42c1.08-1.08 1.08-2.85 0-3.93-1.08-1.08-2.85-1.08-3.93 0l-6.86 6.86c-.15.15-.27.31-.38.48h-14.18l10.05-10.05c.17.03.35.05.54.05h9.71c1.53 0 2.78-1.25 2.78-2.78 0-1.53-1.25-2.78-2.78-2.78h-4.76l4.33-4.33c1.08-1.08 1.08-2.85 0-3.93l-.56-.56c-1.08-1.08-2.85-1.08-3.93 0l-4.37 4.37v-4.84c0-1.53-1.25-2.78-2.78-2.78-1.53 0-2.78 1.25-2.78 2.78v9.71c0 .21.03.41.07.61l-10.03 10.03v-14.22c.15-.1.29-.21.42-.34l6.86-6.86c1.08-1.08 1.08-2.85 0-3.93-1.08-1.08-2.85-1.08-3.93 0l-3.36 3.36v-6.12c0-1.53-1.25-2.78-2.78-2.78h-.8c-1.53 0-2.78 1.25-2.78 2.78v6.18l-3.42-3.42c-1.08-1.08-2.85-1.08-3.93 0-1.08 1.08-1.08 2.85 0 3.93l6.86 6.86c.15.15.31.27.48.38v14.31l-10.05-10.05c.03-.17.05-.35.05-.54v-9.71c0-1.53-1.25-2.78-2.78-2.78s-2.78 1.25-2.78 2.78v4.75l-4.33-4.33c-1.08-1.08-2.85-1.08-3.93 0l-.56.56c-1.08 1.08-1.08 2.85 0 3.93l4.37 4.37h-4.84c-1.53 0-2.78 1.25-2.78 2.78s1.25 2.78 2.78 2.78h9.71c.21 0 .41-.03.61-.07l9.9 9.9h-14.09c-.1-.15-.21-.29-.34-.42l-6.86-6.86c-1.08-1.08-2.85-1.08-3.93 0s-1.08 2.85 0 3.93l3.36 3.36h-6.12c-1.53 0-2.78 1.25-2.78 2.78v.8c0 1.53 1.25 2.78 2.78 2.78h6.18l-3.42 3.42c-1.08 1.08-1.08 2.85 0 3.93 1.08 1.08 2.85 1.08 3.93 0l6.86-6.86c.15-.15.27-.31.38-.48h14.18l-10.05 10.05c-.17-.03-.35-.05-.54-.05h-9.71c-1.53 0-2.78 1.25-2.78 2.78 0 1.53 1.25 2.78 2.78 2.78h4.75l-4.33 4.33c-1.08 1.08-1.08 2.85 0 3.93l.56.56c1.08 1.08 2.85 1.08 3.93 0l4.37-4.37v4.84c0 1.53 1.25 2.78 2.78 2.78 1.53 0 2.78-1.25 2.78-2.78v-9.71c0-.21-.03-.41-.07-.61l10.03-10.03v14.22c-.15.1-.29.21-.42.34l-6.86 6.86c-1.08 1.08-1.08 2.85 0 3.93 1.08 1.08 2.85 1.08 3.93 0l3.36-3.36v6.12c0 1.53 1.25 2.78 2.78 2.78h.8c1.53 0 2.78-1.25 2.78-2.78v-6.18l3.42 3.42c1.08 1.08 2.85 1.08 3.93 0 1.08-1.08 1.08-2.85 0-3.93l-6.86-6.86c-.15-.15-.31-.27-.48-.38v-14.06l10.05 10.05c-.03.17-.05.35-.05.54v9.71c0 1.53 1.25 2.78 2.78 2.78s2.78-1.25 2.78-2.78v-4.75l4.33 4.33c1.08 1.08 2.85 1.08 3.93 0l.56-.56c1.08-1.08 1.08-2.85 0-3.93l-4.37-4.37h4.84c1.53 0 2.78-1.25 2.78-2.78s-1.25-2.78-2.78-2.78h-9.71c-.21 0-.41.03-.61.07l-10.16-10.16h14.35c.1.15.21.29.34.42l6.86 6.86c1.08 1.08 2.85 1.08 3.93 0 1.08-1.08 1.08-2.85 0-3.93l-3.36-3.36h6.12c1.53 0 2.78-1.25 2.78-2.78v-.8c.01-1.52-1.24-2.77-2.77-2.77z" display="inline" fill="#7bd9ef"/><path d="m362.47 321.83h-9.06l5.01-5.01c1.58-1.58 1.58-4.17 0-5.75-1.58-1.58-4.17-1.58-5.75 0l-10.06 10.06c-.22.22-.4.45-.56.71h-20.79l14.74-14.74c.26.05.52.08.79.08h14.23c2.24 0 4.07-1.83 4.07-4.07 0-2.24-1.83-4.07-4.07-4.07h-6.96l6.34-6.34c1.58-1.58 1.58-4.17 0-5.75l-.82-.82c-1.58-1.58-4.17-1.58-5.75 0l-6.41 6.41v-7.09c0-2.24-1.83-4.07-4.07-4.07-2.24 0-4.07 1.83-4.07 4.07v14.23c0 .31.04.61.1.89l-14.7 14.7v-20.84c.22-.14.42-.31.61-.5l10.06-10.06c1.58-1.58 1.58-4.17 0-5.75-1.58-1.58-4.17-1.58-5.75 0l-4.92 4.92v-8.97c0-2.24-1.83-4.07-4.07-4.07h-1.17c-2.24 0-4.07 1.83-4.07 4.07v9.06l-5.01-5.01c-1.58-1.58-4.17-1.58-5.75 0-1.58 1.58-1.58 4.17 0 5.75l10.06 10.06c.22.22.45.4.71.56v20.98l-14.74-14.74c.05-.26.08-.52.08-.79v-14.23c0-2.24-1.83-4.07-4.07-4.07s-4.07 1.83-4.07 4.07v6.96l-6.34-6.34c-1.58-1.58-4.17-1.58-5.75 0l-.82.82c-1.58 1.58-1.58 4.17 0 5.75l6.41 6.41h-7.09c-2.24 0-4.07 1.83-4.07 4.07s1.83 4.07 4.07 4.07h14.23c.31 0 .61-.04.89-.1l14.51 14.51h-20.65c-.14-.22-.31-.42-.5-.61l-10.06-10.06c-1.58-1.58-4.17-1.58-5.75 0s-1.58 4.17 0 5.75l4.92 4.92h-8.97c-2.24 0-4.07 1.83-4.07 4.07v1.17c0 2.24 1.83 4.07 4.07 4.07h9.06l-5.01 5.01c-1.58 1.58-1.58 4.17 0 5.75 1.58 1.58 4.17 1.58 5.75 0l10.06-10.06c.22-.22.4-.45.56-.71h20.79l-14.74 14.74c-.26-.05-.52-.08-.79-.08h-14.23c-2.24 0-4.07 1.83-4.07 4.07 0 2.24 1.83 4.07 4.07 4.07h6.96l-6.34 6.34c-1.58 1.58-1.58 4.17 0 5.75l.82.82c1.58 1.58 4.17 1.58 5.75 0l6.41-6.41v7.09c0 2.24 1.83 4.07 4.07 4.07 2.24 0 4.07-1.83 4.07-4.07v-14.23c0-.31-.04-.61-.1-.89l14.7-14.7v20.84c-.22.14-.42.31-.61.5l-10.06 10.06c-1.58 1.58-1.58 4.17 0 5.75 1.58 1.58 4.17 1.58 5.75 0l4.92-4.92v8.97c0 2.24 1.83 4.07 4.07 4.07h1.17c2.24 0 4.07-1.83 4.07-4.07v-9.06l5.01 5.01c1.58 1.58 4.17 1.58 5.75 0 1.58-1.58 1.58-4.17 0-5.75l-10.06-10.06c-.22-.22-.45-.4-.71-.56v-20.6l14.74 14.74c-.05.26-.08.52-.08.79v14.23c0 2.24 1.83 4.07 4.07 4.07s4.07-1.83 4.07-4.07v-6.96l6.34 6.34c1.58 1.58 4.17 1.58 5.75 0l.82-.82c1.58-1.58 1.58-4.17 0-5.75l-6.41-6.41h7.09c2.24 0 4.07-1.83 4.07-4.07s-1.83-4.07-4.07-4.07h-14.23c-.31 0-.61.04-.89.1l-14.89-14.89h21.03c.14.22.31.42.5.61l10.06 10.06c1.58 1.58 4.17 1.58 5.75 0 1.58-1.58 1.58-4.17 0-5.75l-4.92-4.92h8.97c2.24 0 4.07-1.83 4.07-4.07v-1.17c-.01-2.24-1.84-4.07-4.07-4.07z" display="inline" fill="#39f"/></g><g id="time_calendar_sunny" display="none"><path d="m412.58 435.79h-325.16c-6.6 0-12-5.4-12-12v-325.16c0-6.6 5.4-12 12-12h325.16c6.6 0 12 5.4 12 12v325.16c0 6.6-5.4 12-12 12z" display="inline" fill="#0b61a8"/><path d="m424.58 169.66h-349.16v-71.03c0-6.6 5.4-12 12-12h325.16c6.6 0 12 5.4 12 12z" display="inline" fill="#7bd9ef"/><g fill="#39f"><path d="m134.73 128.14h-11.42c-4 0-7.28-3.28-7.28-7.28v-56.77c0-4 3.28-7.28 7.28-7.28h11.42c4 0 7.28 3.28 7.28 7.28v56.77c0 4.01-3.28 7.28-7.28 7.28z" display="inline"/><path d="m194.4 128.14h-11.42c-4 0-7.28-3.28-7.28-7.28v-56.77c0-4 3.28-7.28 7.28-7.28h11.42c4 0 7.28 3.28 7.28 7.28v56.77c0 4.01-3.27 7.28-7.28 7.28z" display="inline"/><path d="m255.03 128.14h-11.42c-4 0-7.28-3.28-7.28-7.28v-56.77c0-4 3.28-7.28 7.28-7.28h11.42c4 0 7.28 3.28 7.28 7.28v56.77c0 4.01-3.28 7.28-7.28 7.28z" display="inline"/><path d="m315.25 128.14h-11.42c-4 0-7.28-3.28-7.28-7.28v-56.77c0-4 3.28-7.28 7.28-7.28h11.42c4 0 7.28 3.28 7.28 7.28v56.77c0 4.01-3.28 7.28-7.28 7.28z" display="inline"/><path d="m374.92 128.14h-11.42c-4 0-7.28-3.28-7.28-7.28v-56.77c0-4 3.28-7.28 7.28-7.28h11.42c4 0 7.28 3.28 7.28 7.28v56.77c0 4.01-3.27 7.28-7.28 7.28z" display="inline"/></g><g display="inline" fill="#edb61b"><path d="m186.25 255.57-19.77-19.32c-2.77-2.71-2.83-7.2-.11-9.98 2.71-2.77 7.2-2.83 9.98-.11l19.77 19.32c2.77 2.71 2.83 7.2.11 9.98-2.71 2.77-7.2 2.82-9.98.11z"/><path d="m300.77 244.28 19.32-19.77c2.71-2.77 7.2-2.83 9.98-.11 2.77 2.71 2.83 7.2.11 9.98l-19.32 19.77c-2.71 2.77-7.2 2.83-9.98.11-2.77-2.71-2.82-7.2-.11-9.98z"/><path d="m326.88 293.09 27.64-.31c3.88-.04 7.09 3.09 7.13 6.97.04 3.88-3.09 7.09-6.97 7.13l-27.64.31c-3.88.04-7.09-3.09-7.13-6.97-.05-3.88 3.09-7.09 6.97-7.13z"/><path d="m145.32 295.15 27.64-.31c3.88-.04 7.09 3.09 7.13 6.97.04 3.88-3.09 7.09-6.97 7.13l-27.64.31c-3.88.04-7.09-3.09-7.13-6.97-.05-3.87 3.09-7.08 6.97-7.13z"/><path d="m241.19 227.4-.31-27.64c-.04-3.88 3.09-7.09 6.97-7.13 3.88-.04 7.09 3.09 7.13 6.97l.31 27.64c.04 3.88-3.09 7.09-6.97 7.13-3.87.05-7.08-3.09-7.13-6.97z"/><circle cx="249.1" cy="302.02" r="50.73"/><path d="m311.7 348.48 19.99 19.1c2.81 2.68 2.91 7.17.23 9.97-2.68 2.81-7.17 2.91-9.97.23l-19.99-19.1c-2.81-2.68-2.91-7.17-.23-9.97 2.68-2.81 7.17-2.91 9.97-.23z"/><path d="m197.32 361.06-19.1 19.99c-2.68 2.81-7.17 2.91-9.97.23-2.81-2.68-2.91-7.17-.23-9.97l19.1-19.99c2.68-2.81 7.17-2.91 9.97-.23 2.81 2.68 2.91 7.17.23 9.97z"/><path d="m257.09 377.26.63 27.64c.09 3.88-3.01 7.13-6.89 7.21-3.88.09-7.13-3.01-7.21-6.89l-.63-27.64c-.09-3.88 3.01-7.13 6.89-7.21 3.88-.09 7.12 3.01 7.21 6.89z"/></g></g><g id="time_calendar_rain" display="none"><path d="m412.58 439.49h-325.16c-6.6 0-12-5.4-12-12v-325.16c0-6.6 5.4-12 12-12h325.16c6.6 0 12 5.4 12 12v325.16c0 6.6-5.4 12-12 12z" display="inline" fill="#0b61a8"/><path d="m424.58 173.36h-349.16v-71.03c0-6.6 5.4-12 12-12h325.16c6.6 0 12 5.4 12 12z" display="inline" fill="#7bd9ef"/><g fill="#39f"><path d="m134.73 131.84h-11.42c-4 0-7.28-3.28-7.28-7.28v-56.77c0-4 3.28-7.28 7.28-7.28h11.42c4 0 7.28 3.28 7.28 7.28v56.77c0 4.01-3.28 7.28-7.28 7.28z" display="inline"/><path d="m194.4 131.84h-11.42c-4 0-7.28-3.28-7.28-7.28v-56.77c0-4 3.28-7.28 7.28-7.28h11.42c4 0 7.28 3.28 7.28 7.28v56.77c0 4.01-3.27 7.28-7.28 7.28z" display="inline"/><path d="m255.03 131.84h-11.42c-4 0-7.28-3.28-7.28-7.28v-56.77c0-4 3.28-7.28 7.28-7.28h11.42c4 0 7.28 3.28 7.28 7.28v56.77c0 4.01-3.28 7.28-7.28 7.28z" display="inline"/><path d="m315.25 131.84h-11.42c-4 0-7.28-3.28-7.28-7.28v-56.77c0-4 3.28-7.28 7.28-7.28h11.42c4 0 7.28 3.28 7.28 7.28v56.77c0 4.01-3.28 7.28-7.28 7.28z" display="inline"/><path d="m374.92 131.84h-11.42c-4 0-7.28-3.28-7.28-7.28v-56.77c0-4 3.28-7.28 7.28-7.28h11.42c4 0 7.28 3.28 7.28 7.28v56.77c0 4.01-3.27 7.28-7.28 7.28z" display="inline"/></g><path d="m206.14 397.84c-2.59-1.39-3.56-4.64-2.18-7.22l83.73-155.95c1.39-2.59 4.64-3.56 7.22-2.18 2.59 1.39 3.56 4.64 2.18 7.22l-83.73 155.95c-1.39 2.59-4.64 3.56-7.22 2.18z" display="inline" fill="#edb61b"/><path d="m241.49 318.62h10.65v6.9h-10.65z" display="inline" fill="#d39c13" transform="matrix(.881 .473 -.473 .881 181.712 -78.44)"/><path d="m314.56 356.44-133.81-71.85c-3.12-1.68-4.31-5.6-2.63-8.73 21.43-39.92 71.63-55.05 111.56-33.61 39.92 21.43 55.05 71.63 33.61 111.56-1.68 3.12-5.61 4.3-8.73 2.63z" display="inline" fill="#db730b"/><path d="m194.07 291.76-14.62-7.85c-3.12-1.68-4.31-5.6-2.63-8.73 21.43-39.92 71.63-55.05 111.56-33.61-64.57-18.18-94.31 50.19-94.31 50.19z" display="inline" fill="#c1610a"/><path d="m198.41 414.22-1.66-.89c-3.16-1.7-4.36-5.68-2.66-8.84l6.15-11.46c1.7-3.16 5.68-4.36 8.84-2.66l1.66.89c3.16 1.7 4.36 5.68 2.66 8.84l-6.15 11.46c-1.7 3.16-5.68 4.36-8.84 2.66z" display="inline" fill="#4c4c4c"/><g display="inline"><path d="m223.81 216.01c0 4.08-3.31 7.39-7.39 7.39s-7.39-3.31-7.39-7.39c0-3.2 4.55-12.16 6.51-15.87.37-.71 1.38-.71 1.76 0 1.96 3.7 6.51 12.67 6.51 15.87z" fill="#39f"/><path d="m223.81 216.43c-.48 6.96-6.1 7.05-6.53 6.96-13.03-2.67.02-23.26.02-23.26s6.73 13.11 6.51 16.3z" fill="#1683db"/></g><g display="inline"><path d="m257.91 242.44c0 4.08-3.31 7.39-7.39 7.39s-7.39-3.31-7.39-7.39c0-3.2 4.55-12.16 6.51-15.87.37-.71 1.38-.71 1.76 0 1.96 3.71 6.51 12.67 6.51 15.87z" fill="#39f"/><path d="m257.91 242.87c-.48 6.96-6.1 7.05-6.53 6.96-13.03-2.67.02-23.26.02-23.26s6.73 13.1 6.51 16.3z" fill="#1683db"/></g><g display="inline"><path d="m275.34 204.64c0 4.08-3.31 7.39-7.39 7.39s-7.39-3.31-7.39-7.39c0-3.2 4.55-12.16 6.51-15.87.37-.71 1.38-.71 1.76 0 1.96 3.7 6.51 12.66 6.51 15.87z" fill="#39f"/><path d="m275.34 205.06c-.48 6.96-6.1 7.05-6.53 6.96-13.03-2.67.02-23.26.02-23.26s6.73 13.1 6.51 16.3z" fill="#1683db"/></g></g></svg>