<svg id="Layer_1" enable-background="new 0 0 68 68" viewBox="0 0 68 68" xmlns="http://www.w3.org/2000/svg"><g><g><g><path d="m63.9854965 30.552599c-.0600586 1-.1601563 1.9999981-.3000488 2.9999981-.130127 1-.3100586 2-.5700684 3-.2600098-1-.4399414-2-.5700684-3-.1398926-1-.2399902-1.9999981-.3000488-2.9999981-.1298828-1.699707-.1499023-3.4101563-.1098633-5.1098633l-.8598633-.050293-1.8500977-.1894531c-1.2299805-.1503906-2.4599609-.340332-3.6899414-.6503906 1.2299805-.3198242 2.4599609-.5097656 3.6899414-.6601563l1.8500977-.1894531 1.8398438-.1103516c.4899902-.0200195.9199219.3500977.9499512.8500977v.1098633c.0800781 2 .0700684 4-.079834 6z" fill="#b53016"/></g></g><g><g><path d="m45.6158142 62.9009895h-16.3570309l-5.7284107-14.4935722h16.357029z" fill="#255299"/></g></g><g><g><path d="m59.1359482 12.7615137-3.3128166 33.3934441c-.1649933 1.5577354-1.4574432 2.749897-3.0475311 2.749897h-44.6235352c-1.7890496 0-3.2133341-1.556118-3.0143709-3.3451691l3.3128156-33.3934431c.1326418-1.5577354 1.4574451-2.749896 3.0143719-2.749896h44.6235352c1.8222084-.0000001 3.2141418 1.556117 3.0475311 3.3451671z" fill="#255299"/></g></g><g><g><path d="m55.7801819 12.6781807-3.3128128 33.3934441c-.1649971 1.5577354-1.4574471 2.749897-3.0475349 2.749897h-44.6235338c-1.7890499 0-3.2133343-1.556118-3.0143714-3.3451691l3.3128161-33.3934441c.1326423-1.5577354 1.4574451-2.749896 3.0143714-2.749896h44.6235352c1.8222113 0 3.2141447 1.556118 3.0475302 3.3451681z" fill="#4269c4"/></g></g><g><g><path d="m53.7378693 12.6889353-3.2770348 32.9715757c-.0649681.4547882-.4223061.7796402-.8763046.7796402h-44.8508177c-.5189691 0-.9087899-.454792-.8763049-.9745522l3.2778247-32.9715747c.0324855-.4547911.421514-.7796421.8763056-.7796421h44.8183289c.5514583 0 .9412784.454791.9080028.9745531z" fill="#fff"/></g></g><g><g><path d="m46.7996674 63.6279335h-30.7998028c-.75 0-1.0300293-1.0200195-.3701172-1.3798828 2.9699707-1.6201172 8.9101563-2.7299805 15.7700195-2.7299805s12.8000469 1.1098633 15.7700176 2.7299805c.6599122.3598633.3798829 1.3798828-.3701171 1.3798828z" fill="#4269c4"/></g></g><g><g><path d="m44.4313736 28.7087402c0 3.1873722-2.5806313 5.7762985-5.7680054 5.7762985-2.0791588 0-17.8706589 0-19.7230797 0-3.1875706 0-5.7762985-2.5889263-5.7762985-5.7762985s2.588728-5.7762985 5.7762985-5.7762985c.0321941 0 .0645847 0 .0969753.0082951.6391354-4.5059319 4.5223255-7.976531 9.2064095-7.976531 4.7243748 0 8.6318607 3.5270853 9.2224064 8.0978003.388298-.0888786.7846985-.1295643 1.1972885-.1295643 3.1873741-.0000001 5.7680054 2.5889243 5.7680054 5.7762984z" fill="#d1dafe"/></g></g><g><g><path d="m45.6754379 40.3626556c0 .7402344-.3000488 1.4101563-.7800293 1.8901367-.4899902.4897461-1.1599121.7900391-1.9001465.7900391h-32.1298847c-1.4799805 0-2.6899414-1.2001953-2.6899414-2.6801758 0-.75.2998047-1.4199219.7900391-1.8999023.4899902-.4902344 1.1599121-.7900391 1.8999023-.7900391h32.1298828c1.4799824 0 2.6801777 1.2001953 2.6801777 2.6899414z" fill="#d1dafe"/></g></g><g><g><path d="m36.6754379 40.3626556c0 .7402344-.3000488 1.4101563-.7800293 1.8901367-.4899902.4897461-1.1599121.7900391-1.9001465.7900391h-23.1298847c-1.4799805 0-2.6899414-1.2001953-2.6899414-2.6801758 0-.75.2998047-1.4199219.7900391-1.8999023.4899902-.4902344 1.1599121-.7900391 1.8999023-.7900391h23.1298847c1.4799805 0 2.6801758 1.2001953 2.6801758 2.6899414z" fill="#8a9bea"/></g></g><g><g><g><path d="m33.260498 26.2153625-3.5331841 4.7492962c-.4664669.624939-1.399807.624939-1.8662739 0l-3.524641-4.7492962c-.5667591-.7669334-.0252266-1.8499985.933136-1.8499985h.9998627v-5.1911469c0-.6416206.5167141-1.1583347 1.1583347-1.1583347h2.7414322c.6416206 0 1.1581326.5167141 1.1581326 1.1583347v5.1911469h.9998627c.9500198.0000001 1.4998932 1.0916081.9333381 1.8499985z" fill="#fbad3e"/></g></g><g><g><path d="m33.2645798 26.2182751-3.5400391 4.75c-.4599609.6201172-1.3999023.6201172-1.8601074 0l-2.0998535-2.8300781c1.9199219.0498047 4.1398926-1.3901367 5.5600586-3.7700195h1c.9499511-.0000001 1.5 1.0898437.9399414 1.8500976z" fill="#fa990e"/></g></g></g><g><g><g><path d="m65.7354965 60.9827728c-.1101074 1.2099609-1.0600586 2.159668-2.2602539 2.2700195-5.4199219.5-10.829834.5-16.25 0-1.199707-.1103516-2.1398926-1.0600586-2.2597656-2.2602539-.7402344-7.8598633-.7402344-15.7299805 0-23.6098633.119873-1.2001953 1.0698242-2.1601563 2.2700195-2.2597656 5.2597656-.4501953 10.6699219-.4199219 16.1999512.0195313 1.2199707.090332 2.1899414 1.0605469 2.2897949 2.2802734.6801758 7.9697266.6801758 15.8300782.0102539 23.5600586z" fill="#51504f"/></g></g><g><g><g><g><path d="m47.0466499 40.8297806v-2.8369789c0-.5096397.4016838-.9299736.9110107-.9477005 4.7692528-.1660156 9.6878242-.1538086 14.7280617.0037041.5107155.0159607.918396.4363441.918396.9473114v2.8328133c0 .502182-.3936577.9202805-.8950615.9483032-4.9984512.2793541-9.9209023.2754784-14.7703972.0006561-.5010337-.0283967-.8920097-.44627-.8920097-.9481087z" fill="#3a3a3a"/></g></g><g><g><g><g><path d="m49.9150848 39.4026184c0 .2264862-.0900421.4284401-.2401466.5785255-.1473541.1473579-.3520241.2401466-.5785255.2401466-.4529915 0-.8186722-.368412-.8186722-.8186722 0-.2265053.0900574-.4311714.2401428-.5785255.1473732-.1501045.3520432-.2401466.5785294-.2401466.2265015 0 .4311714.0900421.5785255.2401466.1501045.1473542.2401466.3520203.2401466.5785256z" fill="#aec46e"/></g></g><g><g><path d="m52.1219406 39.4026184c0 .154274-.0613327.2918358-.163578.3940697-.1003723.1003723-.2397842.163578-.3940697.163578-.3085594 0-.5576477-.2509499-.5576477-.5576477 0-.1542854.0613441-.2936974.163578-.3940697.1003838-.1022415.2397957-.1635742.3940697-.1635742.1542854 0 .2936974.0613327.3940697.1635742.1022453.1003724.163578.2397843.163578.3940697z" fill="#d1dafe"/></g></g><g><g><path d="m54.2576065 39.4026184c0 .154274-.0613327.2918358-.163578.3940697-.1003723.1003723-.2397842.163578-.3940697.163578-.3085594 0-.5576477-.2509499-.5576477-.5576477 0-.1542854.0613441-.2936974.163578-.3940697.1003838-.1022415.2397957-.1635742.3940697-.1635742.1542854 0 .2936974.0613327.3940697.1635742.1022453.1003724.163578.2397843.163578.3940697z" fill="#e2e6f1"/></g></g><g><g><path d="m62.3731117 38.8479271v1.1066055c0 .2118416-.1628075.3899612-.3741531.4044342-1.5591354.1067886-3.1751747.098999-4.838089-.0030479-.2125244-.0130424-.3797417-.1911049-.3797417-.4040298v-1.1039619c0-.2114105.1637077-.3892555.3745766-.4043503 1.6142998-.115551 3.2285309-.115551 4.8428268 0 .2108727.0150947.3745804.1929397.3745804.4043502z" fill="#d1dafe"/></g></g></g></g></g><g><g><g><path d="m47.0466499 47.3609886v-2.8369789c0-.5096359.4016838-.9299698.9110107-.9477005 4.7692528-.1660118 9.6878242-.1538086 14.7280617.0037079.5107155.0159569.918396.4363441.918396.9473114v2.8328094c0 .5021858-.3936577.9202843-.8950615.948307-4.9984512.2793541-9.9209023.2754784-14.7703972.0006523-.5010337-.0283927-.8920097-.4462699-.8920097-.9481086z" fill="#3a3a3a"/></g></g><g><g><g><g><path d="m49.9150848 45.9338303c0 .2264862-.0900421.4284401-.2401466.5785255-.1473541.1473541-.3520241.2401466-.5785255.2401466-.4529915 0-.8186722-.368412-.8186722-.8186722 0-.2265053.0900574-.4311714.2401428-.5785255.1473732-.1501045.3520432-.2401466.5785294-.2401466.2265015 0 .4311714.0900421.5785255.2401466.1501045.1473541.2401466.3520203.2401466.5785256z" fill="#aec46e"/></g></g><g><g><path d="m52.1219406 45.9338303c0 .154274-.0613327.2918358-.163578.3940697-.1003723.1003723-.2397842.1635742-.3940697.1635742-.3085594 0-.5576477-.250946-.5576477-.5576439 0-.1542854.0613441-.2936974.163578-.3940697.1003838-.1022453.2397957-.163578.3940697-.163578.1542854 0 .2936974.0613327.3940697.163578.1022453.1003723.163578.2397842.163578.3940697z" fill="#d1dafe"/></g></g><g><g><path d="m54.2576065 45.9338303c0 .154274-.0613327.2918358-.163578.3940697-.1003723.1003723-.2397842.1635742-.3940697.1635742-.3085594 0-.5576477-.250946-.5576477-.5576439 0-.1542854.0613441-.2936974.163578-.3940697.1003838-.1022453.2397957-.163578.3940697-.163578.1542854 0 .2936974.0613327.3940697.163578.1022453.1003723.163578.2397842.163578.3940697z" fill="#e2e6f1"/></g></g><g><g><path d="m62.3731117 45.3791389v1.1066055c0 .2118416-.1628075.3899612-.3741531.4044342-1.5591354.1067886-3.1751747.098999-4.838089-.0030479-.2125244-.0130424-.3797417-.1911049-.3797417-.4040298v-1.1039619c0-.2114105.1637077-.3892593.3745766-.4043503 1.6142998-.115551 3.2285309-.115551 4.8428268 0 .2108727.0150909.3745804.1929397.3745804.4043502z" fill="#d1dafe"/></g></g></g></g></g><g><g><g><path d="m47.0466499 53.8538246v-2.8369789c0-.5096359.4016838-.9299698.9110107-.9477005 4.7692528-.1660156 9.6878242-.1538086 14.7280617.0037041.5107155.0159607.918396.436348.918396.9473114v2.8328133c0 .5021858-.3936577.9202843-.8950615.948307-4.9984512.2793541-9.9209023.2754745-14.7703972.0006523-.5010337-.0283928-.8920097-.44627-.8920097-.9481087z" fill="#3a3a3a"/></g></g><g><g><g><g><path d="m49.9150848 52.4266624c0 .22649-.0900421.4284439-.2401466.5785294-.1473541.1473541-.3520241.2401428-.5785255.2401428-.4529915 0-.8186722-.368412-.8186722-.8186722 0-.2265015.0900574-.4311714.2401428-.5785255.1473732-.1501045.3520432-.2401466.5785294-.2401466.2265015 0 .4311714.0900421.5785255.2401466.1501045.1473541.2401466.3520241.2401466.5785255z" fill="#aec46e"/></g></g><g><g><path d="m52.1219406 52.4266624c0 .154274-.0613327.2918396-.163578.3940697-.1003723.1003723-.2397842.163578-.3940697.163578-.3085594 0-.5576477-.250946-.5576477-.5576477 0-.1542854.0613441-.2936935.163578-.3940659.1003838-.1022453.2397957-.163578.3940697-.163578.1542854 0 .2936974.0613327.3940697.163578.1022453.1003724.163578.2397805.163578.3940659z" fill="#d1dafe"/></g></g><g><g><path d="m54.2576065 52.4266624c0 .154274-.0613327.2918396-.163578.3940697-.1003723.1003723-.2397842.163578-.3940697.163578-.3085594 0-.5576477-.250946-.5576477-.5576477 0-.1542854.0613441-.2936935.163578-.3940659.1003838-.1022453.2397957-.163578.3940697-.163578.1542854 0 .2936974.0613327.3940697.163578.1022453.1003724.163578.2397805.163578.3940659z" fill="#e2e6f1"/></g></g><g><g><path d="m62.3731117 51.8719711v1.1066093c0 .2118378-.1628075.3899574-.3741531.4044342-1.5591354.1067886-3.1751747.0989952-4.838089-.0030479-.2125244-.0130424-.3797417-.1911087-.3797417-.4040298v-1.1039658c0-.2114105.1637077-.3892555.3745766-.4043503 1.6142998-.1155472 3.2285309-.1155472 4.8428268 0 .2108727.0150948.3745804.1929398.3745804.4043503z" fill="#d1dafe"/></g></g></g></g></g><g><g><g><path d="m47.0466499 60.3466606v-2.8369789c0-.5096397.4016838-.9299736.9110107-.9477043 4.7692528-.1660118 9.6878242-.1538048 14.7280617.0037079.5107155.0159607.918396.4363441.918396.9473114v2.8328133c0 .502182-.3936577.9202805-.8950615.9483032-4.9984512.2793541-9.9209023.2754784-14.7703972.0006561-.5010337-.0283966-.8920097-.4462738-.8920097-.9481087z" fill="#3a3a3a"/></g></g><g><g><g><g><path d="m49.9150848 58.9194984c0 .2264862-.0900421.4284401-.2401466.5785255-.1473541.1473579-.3520241.2401466-.5785255.2401466-.4529915 0-.8186722-.368412-.8186722-.8186722 0-.2265053.0900574-.4311714.2401428-.5785255.1473732-.1501045.3520432-.2401466.5785294-.2401466.2265015 0 .4311714.0900421.5785255.2401466.1501045.1473542.2401466.3520204.2401466.5785256z" fill="#aec46e"/></g></g><g><g><path d="m52.1219406 58.9194984c0 .154274-.0613327.2918358-.163578.3940697-.1003723.1003723-.2397842.163578-.3940697.163578-.3085594 0-.5576477-.2509499-.5576477-.5576477 0-.1542854.0613441-.2936974.163578-.3940697.1003838-.1022453.2397957-.163578.3940697-.163578.1542854 0 .2936974.0613327.3940697.163578.1022453.1003724.163578.2397843.163578.3940697z" fill="#d1dafe"/></g></g><g><g><path d="m54.2576065 58.9194984c0 .154274-.0613327.2918358-.163578.3940697-.1003723.1003723-.2397842.163578-.3940697.163578-.3085594 0-.5576477-.2509499-.5576477-.5576477 0-.1542854.0613441-.2936974.163578-.3940697.1003838-.1022453.2397957-.163578.3940697-.163578.1542854 0 .2936974.0613327.3940697.163578.1022453.1003724.163578.2397843.163578.3940697z" fill="#e2e6f1"/></g></g><g><g><path d="m62.3731117 58.3648071v1.1066055c0 .2118416-.1628075.3899612-.3741531.4044342-1.5591354.1067886-3.1751747.098999-4.838089-.0030479-.2125244-.0130424-.3797417-.1911049-.3797417-.4040298v-1.1039619c0-.2114105.1637077-.3892555.3745766-.4043503 1.6142998-.115551 3.2285309-.115551 4.8428268 0 .2108727.0150947.3745804.1929397.3745804.4043502z" fill="#d1dafe"/></g></g></g></g></g></g></g><g><g><g><g><g><g><g><g><g><path d="m51.9604073 15.4441214c.0570755.6201258.5246162 1.1163187 1.1354218 1.2402506.2669678.0573063.5246124.1052952.7918129.1434994v1.1545238c0 .5055103.6108055.7729435.9732857.4099998l1.1547546-1.1256371c.1143799-.1052952.2669678-.1621361.4291039-.1528187 2.0802841.1239319 4.1794357-.0475216 6.2785912-.4677715.5535011-.1048298.9828339-.5530357 1.0687943-1.106535.4388847-2.652421.4197884-5.2386827.009552-7.7764902-.0955124-.5726023-.5535011-1.030591-1.1165504-1.1261024-3.1295128-.5246134-6.3261147-.5343976-9.5800247-.0097837-.6201248.095511-1.0972176.6108069-1.1545219 1.2309318-.2098926 2.480966-.2098926 5.0094552.0097806 7.5859332z" fill="#3d5e2a"/></g></g><g><g><path d="m50.7771454 15.5568132c.0570717.6201258.5246124 1.1163187 1.1354218 1.2402506.266964.0573063.5246124.1052952.7918129.1434994v1.1545238c0 .5055103.6108055.7729416.9732819.4099998l1.1547546-1.1256371c.1143837-.1052952.2669678-.1621361.4291039-.1528187 2.0802841.1239319 4.1794395-.0475216 6.2785912-.4677715.5535011-.1048298.9828377-.5530357 1.0687981-1.106535.4388847-2.652421.4197845-5.2386827.0095482-7.7764902-.0955086-.5726023-.5534973-1.030591-1.1165504-1.1261024-3.1295128-.5246139-6.3261147-.5343976-9.5800247-.0097842-.6201248.0955114-1.0972137.6108069-1.1545219 1.2309322-.2098926 2.4809662-.2098926 5.0094553.0097844 7.5859333z" fill="#aec46e"/></g></g><g><g><path d="m50.6147766 11.8071756c0 1.2402506.0477562 2.4805012.1623688 3.7496376.0570717.6201258.5246124 1.1163187 1.1354218 1.2402506.266964.0573063.5246124.1052952.7918129.1434994v1.1545238c0 .5055103.6108055.7729416.9732819.4099998l1.1547546-1.1256371c.1143837-.1052952.2669678-.1621361.4291039-.1528187 2.0802841.1239319 4.1794395-.0475216 6.2785912-.4677715.5535011-.1048298.9828377-.5530357 1.0687981-1.106535.0666237-.4295683.1334801-.8586712.1716843-1.2789211-1.2977867.582387-2.8147888.9066591-4.4464035.9066591-3.3873904.0000002-6.3263476-1.4121702-7.719414-3.4728869z" fill="#617f4d"/></g></g></g></g></g></g></g></g></g><g><g><g><g><path d="m2.5251787 10.6862516.5857151-.1691933c.2502146-.0723677.4572845-.2563601.5435112-.5021849.0739357-.2105818.1588457-.4161463.2539146-.6150637.1120009-.2345371.0960722-.5099611-.0292232-.7375994l-.2944254-.5349196c-.1776585-.3227081-.1206548-.7240548.1399069-.9846792l.9732027-.9731402c.260499-.260499.6617832-.31744.9845538-.1398444l.5357976.2948646c.2277017.1254206.5031881.1412239.7377882.029223.1996069-.0951944.4045448-.1803551.6148129-.2543536.2454486-.0864148.4290643-.2932339.5013065-.5431976l.1693182-.5860915c.1023436-.3541884.4266815-.5980062.7953568-.5980062h.8418865v15.5923166h-.8424511c-.3684235 0-.6925735-.2435665-.7951059-.5973797l-.1687536-.582077c-.0723677-.249588-.2558579-.4561558-.5009303-.5424461-.2104564-.0741234-.4155192-.1592846-.615252-.2547302-.2346625-.1119995-.5102744-.0961971-.738039.0292244l-.5349197.294487c-.3230839.1779728-.7249951.1205292-.9854312-.1405964l-.9737673-.9764004c-.2601855-.2610016-.3165622-.6623478-.1384647-.98493l.2926695-.5296526c.1258597-.2278891.1419764-.5038147.0297875-.7387285-.0948811-.1987915-.179728-.4041061-.2535384-.6144361-.0862267-.2459507-.2933593-.430068-.5436993-.5023108l-.5854015-.1690674c-.3542511-.1023436-.598132-.4266815-.598132-.7954187v-1.3782492c0-.3687373.2438181-.6930763.5980066-.7954189z" fill="#912010"/></g></g></g><g><g><path d="m18.2852993 11.4827738v1.3798828c0 .3701172-.25.6899414-.5998535.7900391l-.5900879.1699219c-.25.0698242-.4499512.2602539-.5400391.5-.0698242.2099609-.1599121.4199219-.25.6201172-.119873.2299805-.0998535.5102539.0300293.7397461l.2900391.5302744c.1799316.3198242.119873.7197266-.1398926.9799805l-.9702148.9799805c-.2597656.2597656-.6699219.3198242-.9897461.1401367l-.5302734-.300293c-.2299805-.1201172-.5097656-.1396484-.7397461-.0200195-.2001953.090332-.4101563.1801758-.6201172.25-.2399902.090332-.4299316.2900391-.5.5400391l-.1699219.5800781c-.1000977.3598633-.420166.6000977-.7900391.6000977h-1.380127c-.369873 0-.6899414-.2402344-.7897949-.6000977l-.170166-.5800781c-.0700684-.25-.2600098-.449707-.5-.5400391-.2099609-.0698242-.4199219-.159668-.619873-.25-.2299805-.1196289-.5100098-.1000977-.7299805.0200195l-.5400391.300293c-.3200684.1796875-.7202148.1196289-.9899902-.1401367l-.9699707-.9799805c-.2602539-.2602539-.3200684-.6601563-.1401367-.9799805l.3000488-.5302744c.119873-.2294922.1398926-.5097656.0300293-.7397461-.1000977-.2001953-.1801758-.4101563-.2600098-.6201172-.0800781-.2397461-.2900391-.4301758-.5400391-.5l-.5900879-.1699219c-.3498535-.1000977-.5998535-.4199219-.5998535-.7900391v-1.3798828c0-.3701172.25-.6899414.5998535-.800293l.5900879-.1699219c.25-.0698242.4599609-.25.5400391-.5.079834-.2099609.1599122-.4096679.2600098-.6098632.1098633-.2397461.0898438-.5102539-.0300293-.7397461l-.3000488-.5400391c-.1799316-.320312-.1201172-.7202144.1401367-.9804683l.9699707-.9697266c.2697754-.2597656.6699219-.3198242.9899903-.1401367l.540039.2900391c.2199707.1303711.5.1401367.7299805.0302734.1999512-.090332.4099121-.1801758.619873-.25.2399902-.090332.4299316-.300293.5-.550293l.170166-.5800781c.0998536-.3598632.4299317-.5996093.789795-.5996093h1.380127c.369873 0 .6899414.2397461.7900391.5996094l.1699219.5800781c.0700684.25.2600098.4599609.5.550293.2099609.0698242.4199219.159668.6201172.25.2299805.1098633.5097656.1000977.7397461-.0302734l.5302734-.2900391c.3198242-.1796875.7299805-.1196289.9897461.1401367l.9702148.9697266c.2597656.2602539.3198242.6601563.1398926.9804683l-.3000488.5400391c-.119873.2294922-.1398926.5-.0200195.7397461.0900879.2001953.1801758.3999023.25.6098633.0900879.25.2900391.4301758.5400391.5l.5900879.1699219c.3498533.1103514.5998533.4301756.5998533.8002928z" fill="#b53016"/></g></g><g><g><circle cx="10.486" cy="12.168" fill="#912010" r="4.081"/></g></g><g><g><circle cx="10.486" cy="12.168" fill="#fff" r="2.92"/></g></g></g><g><g><g><path d="m51.7740288 11.6470776c1.0153809-1.639535 3.0347519-2.6207418 5.0288506-2.6157665 1.9940987-.0075941 4.0151711.9746599 5.0288506 2.6160278-.8170204-.4975424-1.6270981-.8898163-2.4674225-1.1527281-.8391457-.2623882-1.7006798-.3870363-2.5614281-.3909636-.8610115.0020943-1.7226791.1277895-2.5620842.3893929-.8405877.2626495-1.650795.6557093-2.4667664 1.1540375z" fill="#fff"/></g></g><g><g><path d="m53.6395531 13.0145006c.5272636-1.1493244 1.8593712-1.8513832 3.1633263-1.8443127 1.3038254-.0089035 2.637764.6931553 3.1633263 1.8445749-.5729599-.2524376-1.0889664-.4532881-1.6125641-.578721-.5196686-.1293612-1.0347595-.1916847-1.5507622-.1935177-.5161362.0005236-1.0316162.0628471-1.5514183.1922083-.5239907.1246472-1.0399972.3265458-1.611908.5797682z" fill="#fff"/></g></g><g><g><path d="m55.1227303 14.3353043c.2800484-.6104441.9875755-.9833317 1.6801491-.9795761.6925049-.0047293 1.4010048.3681583 1.6801453.9797153-.3043175-.134078-.5783844-.240756-.8564835-.3073778-.2760162-.0687084-.5495949-.1018105-.8236618-.1027842-.2741356.0002785-.5479279.0333805-.8240089.102088-.278309.066205-.5523759.173439-.8561402.3079348z" fill="#fff"/></g></g></g></g></svg>