<svg id="Capa_1" enable-background="new 0 0 512.016 512.016" height="512" viewBox="0 0 512.016 512.016" width="512" xmlns="http://www.w3.org/2000/svg"><g><g><path d="m469.153 148.036h-6.845l-17.087 12.511-14.057 21.562v64.788l4.486 4.379 6.302 2.382h50.391c6.709 0 12.149-5.439 12.149-12.149v-39.284c.001-24.095-14.573-44.947-35.339-54.189z" fill="#ff5ca8"/><path d="m253.736 164.491c-6.236-7.515-14.283-13.478-23.452-17.208h-7.357l-20.051 14.108-8.297 17.977-5.003 12.906v50.012l4.542 8.451 7.544 2.92h48.404l10.119-7.683v-73.443z" fill="#73d578"/><path d="m193.118 241.509v-38.404c0-24.963 15.231-46.853 37.165-55.821-7.752-3.153-16.305-4.712-25.252-4.248-31.639 1.638-56.163 28.388-56.163 60.07v38.404c0 6.71 5.439 12.149 12.149 12.149h44.25c-6.71-.002-12.149-5.441-12.149-12.15z" fill="#00c63a"/><path d="m433.814 241.508v-39.284c0-24.095 14.574-44.947 35.339-54.189-8.217-3.657-17.401-5.5-27.039-5.001-17.082.885-32.08 9.097-42.274 21.445l-6.665 8.358v71.292l10.119 9.527h42.667c-6.708.001-12.147-5.438-12.147-12.148z" fill="#ff3c98"/><path d="m348.864 113.86-15.311 3.051-19.206 7.068-26.848 29.961v84.671l6.817 15.047h108.98v-66.483c-.001-34.433-23.023-63.744-54.432-73.315z" fill="#00c2fb"/><path d="m348.864 113.86c-7.345-2.238-15.146-3.402-23.221-3.293-42.072.565-75.577 35.538-75.577 77.614v65.477h44.25v-65.478c0-34.76 22.875-64.65 54.548-74.32z" fill="#00abf2"/><path d="m225.225 67.079h-7.837l-16.587 12.648s-3.491 19.974-4.05 20.896-2.206 20.589 0 21.511 18.647 15.826 18.647 15.826l9.827 1.157c13.464-6.399 22.775-20.12 22.775-36.019s-9.311-29.62-22.775-36.019z" fill="#ffcebe"/><path d="m202.45 103.098c0-15.899 9.311-29.62 22.775-36.019-5.179-2.461-10.971-3.843-17.087-3.843-22.015 0-39.861 17.847-39.861 39.861s17.847 39.861 39.861 39.861c6.116 0 11.908-1.381 17.087-3.843-13.464-6.397-22.775-20.118-22.775-36.017z" fill="#ffb1a0"/><path d="m462.308 67.079h-7.221l-11.677 12.495s-5.992 17.977-6.299 19.052c-.307 1.076 0 9.833 0 9.833l4.148 17.823 10.141 9.219 10.908 3.615c13.464-6.399 22.775-20.12 22.775-36.019s-9.31-29.619-22.775-36.018z" fill="#ffcebe"/><path d="m439.533 103.098c0-15.899 9.311-29.62 22.775-36.019-5.179-2.461-10.971-3.843-17.087-3.843-22.015 0-39.861 17.847-39.861 39.861s17.846 39.861 39.861 39.861c6.116 0 11.908-1.381 17.087-3.843-13.464-6.397-22.775-20.118-22.775-36.017z" fill="#ffb1a0"/><path d="m348.498 12.36h-5.957l-21.664 16.05-6.453 20.281v23.508l14.673 23.585 8.374 7.221 5.378 2.074 5.65.641c17.548-8.216 29.708-26.024 29.708-46.68s-12.161-38.464-29.709-46.68z" fill="#ffcebe"/><path d="m318.79 59.04c0-20.656 12.16-38.464 29.708-46.68-6.627-3.103-14.017-4.846-21.818-4.846-28.457 0-51.526 23.069-51.526 51.526s23.069 51.526 51.526 51.526c7.801 0 15.191-1.743 21.818-4.846-17.548-8.215-29.708-26.023-29.708-46.68z" fill="#ffb1a0"/><path d="m501.654 358.166c-12.898-26.934-42.583-14.202-45.076-13.27l-124.589 36.859c-.618.183-1.2-.367-1.046-.993 1.352-5.483 4.517-25.411-17.898-34.357-72.411-28.907-81.046-33.795-99.372-34.086l-.002-.002c-39.865.133-56.759.402-73.081 4.94l-16.927 11.923-13.941 24.667-3.333 63 34.201 33.333 11.209 4.919c22.295-5.132 44.739-4.609 63.294 2.795l46.729 18.655c10.214 3.521 33.679 9.002 58.028-3.478.012-.005.02-.009.02-.009 2.271-1.004 22.929-10.143 48.833-21.601l32.01-14.159c39.442-17.447 79.108-34.992 82.292-36.4 4.94-2.534 29.777-17.435 18.649-42.736z" fill="#ffcebe"/><g><path d="m112.849 381.673c0-25.372 10.659-48.253 27.741-64.415-6.873 1.911-13.644 4.579-21.986 8.313-14.73 6.592-28.718 14.579-41.823 23.791-8.574 6.027-18.087 10.59-28.192 13.369l-34.389 9.454c-3.958 1.089-6.702 4.688-6.702 8.794v114.403c0 6.383 6.389 10.792 12.357 8.526l119.551-45.389c4.109-1.339 8.249-2.466 12.394-3.42-23.506-15.946-38.951-42.882-38.951-73.426z" fill="#ffb1a0"/></g><path d="m342.056 206.115h-8.606l-22.333 18.59-5.833 14.667v27.833l12.667 24.333 15.083 9.75 9.022-.088c20.069-6.486 34.589-25.314 34.589-47.542-.001-22.229-14.521-41.057-34.589-47.543z" fill="#ffe02f"/><path d="m307.467 253.657c0-22.228 14.52-41.056 34.589-47.542-4.845-1.566-10.009-2.421-15.375-2.421-27.594 0-49.964 22.37-49.964 49.964s22.37 49.964 49.964 49.964c5.366 0 10.53-.856 15.375-2.421-20.07-6.487-34.589-25.316-34.589-47.544z" fill="#fbc700"/></g><g><path d="m341.794 239.618-17.583 17.582-10.351-10.352c-2.93-2.928-7.678-2.928-10.607 0-2.929 2.93-2.929 7.678 0 10.607l15.654 15.654c2.932 2.93 7.679 2.927 10.606 0l22.886-22.885c2.93-2.929 2.93-7.678.001-10.606s-7.677-2.929-10.606 0z"/><path d="m242.567 188.18v57.977h-23.763c-4.143 0-7.5 3.357-7.5 7.5s3.357 7.5 7.5 7.5h50.919c3.688 28.152 27.816 49.964 56.958 49.964s53.27-21.812 56.958-49.964h108.706c10.834 0 19.648-8.814 19.648-19.648v-39.283c0-25.489-14.918-49.632-39.077-60.742 11.902-8.611 19.667-22.604 19.667-38.385 0-26.115-21.246-47.361-47.361-47.361s-47.361 21.246-47.361 47.361c0 15.822 7.806 29.846 19.761 38.451-5.367 2.481-10.406 5.681-14.976 9.522-8.932-18.656-24.927-34.019-44.722-41.986 16.669-10.444 27.784-28.966 27.784-50.045 0-32.547-26.479-59.026-59.026-59.026s-59.025 26.479-59.025 59.026c0 21.132 11.169 39.696 27.908 50.126-19.458 7.922-35.378 23.008-44.527 41.971-4.644-3.934-9.748-7.173-15.182-9.669 11.891-8.613 19.647-22.599 19.647-38.37 0-26.115-21.246-47.361-47.361-47.361s-47.361 21.246-47.361 47.361c0 15.793 7.777 29.795 19.695 38.404-23.153 10.665-39.104 34.3-39.104 61.602v38.404c0 10.834 8.814 19.648 19.648 19.648h22.785c4.143 0 7.5-3.357 7.5-7.5s-3.357-7.5-7.5-7.5h-22.785c-2.563 0-4.648-2.085-4.648-4.648v-38.404c0-28.06 21.546-51.155 49.051-52.579 14.703-.765 29.203 4.641 39.96 15.857-1.897 7.191-2.816 14.78-2.816 21.797zm170.296-85.082c0-17.844 14.518-32.361 32.361-32.361s32.361 14.518 32.361 32.361c0 17.799-14.445 32.285-32.227 32.358-.102 0-.204-.001-.306-.001-17.764-.093-32.189-14.571-32.189-32.357zm29.642 47.427c29.4-1.541 54.49 22 54.49 51.7v39.283c0 2.563-2.085 4.648-4.648 4.648h-81.549v-58.982c0-7.119-.986-14.478-2.603-20.816 9.114-9.564 21.159-15.152 34.31-15.833zm-115.822 145.596c-23.415 0-42.464-19.049-42.464-42.464 0-23.414 19.049-42.463 42.464-42.463s42.464 19.049 42.464 42.463c-.001 23.415-19.049 42.464-42.464 42.464zm-44.026-237.08c0-24.276 19.75-44.026 44.025-44.026 24.276 0 44.026 19.75 44.026 44.026 0 24.233-19.682 43.954-43.901 44.022-.037 0-.073-.003-.111-.003-.064 0-.129.001-.194.001-24.191-.097-43.845-19.805-43.845-44.02zm-25.09 129.139c0-38.392 30.802-69.612 68.178-70.114 38.828-.522 70.053 31.131 70.053 69.108v58.982h-12.139c-3.702-28.294-28.026-49.963-56.977-49.963-29.075 0-53.288 21.771-56.977 49.963h-12.139v-57.976zm-49.296-52.724c-.065 0-.13.002-.194.002-17.814-.035-32.297-14.538-32.297-32.36 0-17.844 14.518-32.361 32.361-32.361s32.361 14.518 32.361 32.361c.001 17.801-14.447 32.288-32.231 32.358z"/><path d="m508.421 354.926c-10.426-21.768-32.206-25.748-54.217-17.152l-114.714 33.94c-.3-11.396-5.632-25.078-23.662-32.274-72.496-28.938-82.066-34.273-101.861-34.616-.104-.004-.202-.006-.318-.006-56.84.19-68.479.646-98.105 13.906-40.054 17.926-43.85 29.875-68.94 36.774l-34.39 9.454c-7.192 1.978-12.214 8.568-12.214 16.026v114.403c0 5.463 2.685 10.577 7.181 13.68 4.502 3.107 10.239 3.794 15.338 1.858l119.381-45.324c25.329-8.219 50.985-8.488 70.414-.735l46.73 18.655c.11.044.223.086.336.125 10.104 3.482 36.521 10.07 63.715-3.804l69.888-30.913c3.788-1.676 5.5-6.105 3.824-9.894s-6.105-5.497-9.893-3.825l-70.075 30.997c-.131.058-.279.129-.407.194-22.01 11.28-43.575 5.995-51.998 3.119l-46.56-18.587c-23.014-9.184-51.706-9.02-80.791.46-.113.037-.227.077-.338.119l-119.551 45.39c-.658.248-1.176.04-1.494-.181-.319-.221-.7-.631-.7-1.334v-114.403c0-.728.49-1.369 1.19-1.562l34.389-9.454c27.957-7.685 32.348-20.208 71.092-37.546 26.871-12.028 36.809-12.412 91.861-12.597h.024c16.752.265 24.875 4.876 96.711 33.553 19.204 7.664 13.18 24.209 13.18 26.394-.011.033-.016.068-.027.101-.021.065-.048.126-.067.191-.44 1.49-4.709 14.458-19.07 10.945-21.481-5.263-72.662-17.588-73.177-17.712-4.028-.969-8.078 1.51-9.048 5.536-.97 4.027 1.509 8.078 5.536 9.048.515.123 51.667 12.441 73.12 17.696 16.476 4.037 29.327-3.79 35.497-17.244 128.359-37.974 122.448-36.195 123.448-36.58 9.608-3.754 26.938-7.489 35.179 9.549 8.379 19.26-10.655 30.535-15.072 32.838-3.596 1.591-30.159 13.34-60.84 26.912-3.788 1.675-5.5 6.104-3.825 9.893 1.677 3.788 6.107 5.5 9.894 3.824 31.372-13.877 58.439-25.85 61.045-27.002.132-.058.262-.12.391-.186 13.683-7.018 33.733-25.957 22.091-52.429-.033-.074-.067-.147-.101-.22z"/></g></g></svg>