<svg id="Capa_1" enable-background="new 0 0 512 512" height="512" viewBox="0 0 512 512" width="512" xmlns="http://www.w3.org/2000/svg"><g><g><g><g><g><g id="XMLID_1325_"><g id="XMLID_1326_"><g id="XMLID_1327_"><g id="XMLID_1328_"><g id="XMLID_1329_"><g id="XMLID_1330_"><g id="XMLID_1331_"><g id="XMLID_1332_"><g id="XMLID_1399_"><g id="XMLID_1400_"><g id="XMLID_1401_"><g id="XMLID_1402_"><g id="XMLID_1403_"><g id="XMLID_1404_"><g id="XMLID_1405_"><circle cx="256" cy="256" fill="#f55" r="256"/></g></g></g></g></g></g></g></g></g></g></g></g></g></g></g></g></g></g></g><path d="m496.783 168.849-91.533-91.533-63.038 33.564-43.305-43.955-82.078 53.222-42.831-42.831-67.247 34 53.501 53.501-21.193 37.88 87.998 87.998 5.399 25.375-63.828-63.828-112.289 144.13 91.919 91.918c32.749 15.216 69.254 23.71 107.742 23.71 141.385 0 256-114.615 256-256 0-30.602-5.37-59.949-15.217-87.151z" fill="#d3205c"/><g><path d="m124.034 152.931h67.247v34h-67.247z" fill="#fff" transform="matrix(.833 -.553 .553 .833 -67.698 115.639)"/><g><path d="m106.75 77.316h67.247v34h-67.247z" fill="#fff"/><path d="m338.003 77.316h67.247v34h-67.247z" fill="#eaeaea"/></g><path d="m338.926 136.307h34v67.247h-34z" fill="#eaeaea" transform="matrix(.553 -.833 .833 .553 17.419 372.349)"/></g><g><g><path d="m290.675 106.527c0-31.66-34.675-59.164-34.675-59.164-30.752.432-56.6 25.642-56.831 56.396-.092 12.273 3.706 23.654 10.235 32.984 4.325 6.18 7.227 13.241 8.223 20.719l3.523 26.461h59.442v-26.15c.991-7.441-8.031-16.352-3.683-22.471 6.594-9.281 13.766-16.523 13.766-28.775z" fill="#fee45a"/><g><path d="m256 47.363v136.56h34.85l3.482-26.15c.991-7.441 3.684-14.579 8.031-20.699 6.594-9.281 10.47-20.627 10.47-32.878 0-31.388-25.445-56.833-56.833-56.833z" fill="#ffc344"/></g></g><path d="m256 208.345c-21.17 0-38.332-17.162-38.332-38.332v-12.24h76.664v12.24c0 21.17-17.162 38.332-38.332 38.332z" fill="#545454"/><path d="m256 208.345v-50.572h38.332v12.24c0 21.17-17.162 38.332-38.332 38.332z" fill="#333"/></g><g><g><path d="m329.619 390.725-21.195 5.647h-104.847l-21.195-5.647v-30.1c0-32.042 25.975-58.018 58.018-58.018h31.202c32.042 0 58.018 25.975 58.018 58.018v30.1z" fill="#a9e54a"/><path d="m308.423 396.372 21.195-5.647v-30.1c0-32.042-25.976-58.018-58.018-58.018h-15.6v93.765z" fill="#2cb737"/><path d="m214.181 276.012c0-23.096 18.723-41.819 41.819-41.819 0 0 24.592 18.723 24.592 41.819s-24.592 41.819-24.592 41.819c-23.096 0-41.819-18.723-41.819-41.819z" fill="#ffdaae"/><g><path d="m256 234.193v83.637c23.096 0 41.819-18.723 41.819-41.819 0-23.095-18.723-41.818-41.819-41.818z" fill="#ffb985"/></g></g><g><g><path d="m203.577 396.372h-147.238v-27.297c0-32.042 25.975-58.018 58.018-58.018h31.202c32.042 0 58.018 25.975 58.018 58.018z" fill="#4f66d0"/><circle cx="141.971" cy="284.463" fill="#ffdaae" r="41.819"/></g><g><path d="m308.423 396.372h147.237v-27.297c0-32.042-25.975-58.018-58.018-58.018h-31.202c-32.042 0-58.018 25.975-58.018 58.018v27.297z" fill="#2740b0"/><circle cx="370.029" cy="284.463" fill="#ffb985" r="41.819"/></g></g></g></g></svg>