<svg id="Capa_1" enable-background="new 0 0 512 512" height="512" viewBox="0 0 512 512" width="512" xmlns="http://www.w3.org/2000/svg"><g><g><path clip-rule="evenodd" d="m426.492 149.779c39.147 0 71.106-31.974 71.106-71.139 0-39.194-31.959-71.139-71.106-71.139-39.175 0-71.106 31.946-71.106 71.139 0 39.165 31.931 71.139 71.106 71.139z" fill="#22a6fe" fill-rule="evenodd"/></g><g><path clip-rule="evenodd" d="m426.492 7.5c39.259 0 71.106 31.834 71.106 71.139 0 39.277-31.847 71.139-71.106 71.139-7.913 0-15.547-1.31-22.652-3.707 27.751-9.673 47.701-36.099 47.701-67.181 0-31.36-20.312-57.982-48.481-67.46 7.355-2.536 15.213-3.93 23.432-3.93z" fill="#0182fc" fill-rule="evenodd"/></g><g><path clip-rule="evenodd" d="m407.685 91.184c-15.91 7.22-27.055 23.276-27.055 41.814 12.371 10.453 28.392 16.781 45.862 16.781s33.463-6.328 45.862-16.781c0-18.538-11.145-34.594-27.055-41.814z" fill="#fd4755" fill-rule="evenodd"/></g><g><path clip-rule="evenodd" d="m396.484 67.796c0 9.45 4.374 17.868 11.201 23.388 5.127 4.154 11.674 6.634 18.807 6.634s13.653-2.481 18.807-6.634c6.826-5.519 11.201-13.938 11.201-23.388 0-16.586-13.43-30.022-30.008-30.022-16.578-.001-30.008 13.435-30.008 30.022z" fill="#ffe5c1" fill-rule="evenodd"/></g><g><path clip-rule="evenodd" d="m418.969 38.721c12.928 3.345 22.457 15.081 22.457 29.075 0 9.45-4.347 17.868-11.173 23.388 0 0 0 0-.028 0-3.26 2.62-7.077 4.6-11.284 5.659 2.424.641 4.932.976 7.551.976 7.133 0 13.653-2.481 18.807-6.634 6.826-5.519 11.201-13.938 11.201-23.388 0-16.586-13.43-30.022-30.008-30.022-2.591-.002-5.127.305-7.523.946z" fill="#fed1a3" fill-rule="evenodd"/></g><g><path clip-rule="evenodd" d="m434.544 96.703c12.845 9.422 21.566 30.106 21.928 46.441 5.768-2.676 11.089-6.105 15.882-10.147 0-18.538-11.145-34.594-27.055-41.814-3.12 2.509-6.77 4.433-10.755 5.52z" fill="#e41e2b" fill-rule="evenodd"/></g><g><path clip-rule="evenodd" d="m81.106 504.165c39.147 0 71.106-31.974 71.106-71.139 0-39.194-31.959-71.139-71.106-71.139-39.175 0-71.106 31.946-71.106 71.139 0 39.166 31.931 71.139 71.106 71.139z" fill="#22a6fe" fill-rule="evenodd"/></g><g><path clip-rule="evenodd" d="m81.106 361.887c39.259 0 71.106 31.834 71.106 71.139 0 39.277-31.847 71.139-71.106 71.139-7.941 0-15.547-1.31-22.652-3.708 27.751-9.673 47.673-36.099 47.673-67.181 0-31.36-20.284-57.982-48.453-67.432 7.327-2.563 15.212-3.957 23.432-3.957z" fill="#0182fc" fill-rule="evenodd"/></g><g><path clip-rule="evenodd" d="m62.27 445.57c-15.91 7.22-27.027 23.276-27.027 41.814 12.371 10.453 28.364 16.781 45.862 16.781 17.47 0 33.463-6.328 45.862-16.781 0-18.538-11.145-34.594-27.055-41.814z" fill="#fd4755" fill-rule="evenodd"/></g><g><path clip-rule="evenodd" d="m51.098 422.182c0 9.45 4.347 17.868 11.173 23.388 5.155 4.154 11.702 6.634 18.835 6.634 7.105 0 13.653-2.481 18.807-6.634 6.826-5.519 11.201-13.938 11.201-23.388 0-16.586-13.458-30.022-30.008-30.022-16.579 0-30.008 13.436-30.008 30.022z" fill="#ffe5c1" fill-rule="evenodd"/></g><g><path clip-rule="evenodd" d="m73.583 393.108c12.928 3.345 22.457 15.081 22.457 29.075 0 9.45-4.374 17.868-11.201 23.388-3.26 2.62-7.105 4.6-11.284 5.687 2.424.613 4.932.948 7.551.948 7.105 0 13.653-2.481 18.807-6.634 6.826-5.519 11.201-13.938 11.201-23.388 0-16.586-13.458-30.022-30.008-30.022-2.619-.002-5.127.332-7.523.946z" fill="#fed1a3" fill-rule="evenodd"/></g><g><path clip-rule="evenodd" d="m89.158 451.118c12.845 9.394 21.538 30.078 21.928 46.413 5.74-2.676 11.089-6.105 15.882-10.147 0-18.538-11.145-34.594-27.055-41.814-3.121 2.509-6.771 4.433-10.755 5.548z" fill="#e41e2b" fill-rule="evenodd"/></g><g><path clip-rule="evenodd" d="m430.894 504.5c39.175 0 71.106-31.946 71.106-71.139 0-39.166-31.931-71.139-71.106-71.139-39.147 0-71.106 31.974-71.106 71.139.001 39.193 31.959 71.139 71.106 71.139z" fill="#22a6fe" fill-rule="evenodd"/></g><g><path clip-rule="evenodd" d="m430.894 362.221c39.286 0 71.106 31.862 71.106 71.139 0 39.305-31.819 71.139-71.106 71.139-7.913 0-15.52-1.282-22.625-3.68 27.751-9.673 47.673-36.099 47.673-67.181 0-31.36-20.284-57.982-48.453-67.46 7.329-2.563 15.214-3.957 23.405-3.957z" fill="#0182fc" fill-rule="evenodd"/></g><g><path clip-rule="evenodd" d="m412.087 445.905c-15.91 7.22-27.055 23.304-27.055 41.842 12.399 10.453 28.392 16.753 45.862 16.753 17.498 0 33.491-6.3 45.862-16.753 0-18.538-11.117-34.622-27.027-41.842z" fill="#fdb440" fill-rule="evenodd"/></g><g><path clip-rule="evenodd" d="m400.886 422.517c0 9.45 4.374 17.896 11.201 23.388 5.155 4.154 11.702 6.634 18.807 6.634 7.133 0 13.681-2.481 18.835-6.634 6.826-5.492 11.173-13.938 11.173-23.388 0-16.558-13.43-30.022-30.008-30.022-16.55-.001-30.008 13.464-30.008 30.022z" fill="#ffe5c1" fill-rule="evenodd"/></g><g><path clip-rule="evenodd" d="m423.371 393.442c12.928 3.345 22.485 15.109 22.485 29.075 0 9.45-4.374 17.896-11.201 23.388-3.26 2.648-7.105 4.6-11.284 5.687 2.396.613 4.932.948 7.523.948 7.133 0 13.681-2.481 18.835-6.634 6.826-5.492 11.173-13.938 11.173-23.388 0-16.558-13.43-30.022-30.008-30.022-2.591-.002-5.099.333-7.523.946z" fill="#fed1a3" fill-rule="evenodd"/></g><g><path clip-rule="evenodd" d="m438.947 451.452c12.873 9.394 21.566 30.106 21.956 46.441 5.74-2.676 11.061-6.105 15.854-10.147 0-18.538-11.117-34.622-27.027-41.842-3.149 2.537-6.799 4.433-10.783 5.548z" fill="#fe9900" fill-rule="evenodd"/></g><g><path clip-rule="evenodd" d="m85.508 149.779c39.175 0 71.106-31.974 71.106-71.139 0-39.194-31.931-71.139-71.106-71.139-39.147 0-71.106 31.946-71.106 71.139 0 39.165 31.959 71.139 71.106 71.139z" fill="#22a6fe" fill-rule="evenodd"/></g><g><path clip-rule="evenodd" d="m85.508 7.5c39.286 0 71.106 31.834 71.106 71.139 0 39.277-31.819 71.139-71.106 71.139-7.913 0-15.52-1.31-22.652-3.707 27.779-9.673 47.701-36.099 47.701-67.181 0-31.36-20.284-57.982-48.453-67.46 7.327-2.536 15.212-3.93 23.404-3.93z" fill="#0182fc" fill-rule="evenodd"/></g><g><path clip-rule="evenodd" d="m66.701 91.184c-15.91 7.22-27.055 23.276-27.055 41.814 12.399 10.453 28.392 16.781 45.862 16.781s33.491-6.328 45.862-16.781c0-18.538-11.145-34.594-27.055-41.814z" fill="#fdb440" fill-rule="evenodd"/></g><g><path clip-rule="evenodd" d="m55.5 67.796c0 9.45 4.374 17.868 11.201 23.388 5.155 4.154 11.702 6.634 18.807 6.634 7.133 0 13.681-2.481 18.807-6.634 6.826-5.519 11.201-13.938 11.201-23.388 0-16.586-13.43-30.022-30.008-30.022s-30.008 13.435-30.008 30.022z" fill="#ffe5c1" fill-rule="evenodd"/></g><g><path clip-rule="evenodd" d="m77.985 38.721c12.928 3.345 22.485 15.081 22.485 29.075 0 9.45-4.374 17.868-11.201 23.388-3.288 2.62-7.105 4.6-11.284 5.659 2.396.641 4.932.976 7.523.976 7.133 0 13.681-2.481 18.807-6.634 6.826-5.519 11.201-13.938 11.201-23.388 0-16.586-13.43-30.022-30.008-30.022-2.591-.002-5.099.305-7.523.946z" fill="#fed1a3" fill-rule="evenodd"/></g><g><path clip-rule="evenodd" d="m93.56 96.703c12.845 9.422 21.566 30.106 21.956 46.441 5.74-2.676 11.061-6.105 15.854-10.147 0-18.538-11.145-34.594-27.055-41.814-3.12 2.509-6.77 4.433-10.755 5.52z" fill="#fe9900" fill-rule="evenodd"/></g><g><path clip-rule="evenodd" d="m256 391.073c73.223 0 132.961-59.766 132.961-133.052 0-73.258-59.738-133.024-132.961-133.024s-132.961 59.766-132.961 133.024c0 73.286 59.738 133.052 132.961 133.052z" fill="#f8f2f0" fill-rule="evenodd"/></g><g><path clip-rule="evenodd" d="m213.203 316.839 35.135 31.6c5.963 3.875 9.362 3.875 15.325 0l35.135-31.6c-3.26-.92-6.548-1.756-9.724-2.648-7.439-2.007-9.39-11.596-10.922-14.691-1.776-5.563-5.266-20.504-7.997-19.5-10.226 3.819-18.083 3.819-28.309 0-2.731-1.004-5.721 11.75-7.997 19.5-1.532 3.094-3.483 12.684-10.922 14.691-3.176.892-6.464 1.728-9.724 2.648z" fill="#fed1a3" fill-rule="evenodd"/></g><g><path clip-rule="evenodd" d="m177.037 355.642v9.422c22.095 16.335 49.401 26.008 78.963 26.008s56.868-9.673 78.963-26.008v-9.422c0-26.287-17.888-33.674-36.166-38.803l-35.135 20.6c-5.963 3.875-9.362 3.875-15.325 0l-35.135-20.6c-18.277 5.129-36.165 12.516-36.165 38.803z" fill="#fd4755" fill-rule="evenodd"/></g><g><path clip-rule="evenodd" d="m199.467 248.766c0 17.924 14.851 39.89 34.383 50.734 2.591 1.422 5.266 2.676 7.997 3.68 10.226 3.819 18.083 3.819 28.309 0 2.731-1.004 5.405-2.258 7.997-3.68 19.532-10.844 34.383-32.81 34.383-50.734v-17.283c-14.607-4.658-19.476-28.095-35.274-24.025-12.204 3.15-16.718 4.739-21.259 4.739s-9.055-1.589-21.259-4.739c-15.798-4.07-17.37 16.723-35.274 24.025v17.283z" fill="#ffe5c1" fill-rule="evenodd"/></g><g><path clip-rule="evenodd" d="m256 167.703c-28.281.474-56.533 21.771-56.533 63.78 22.875-1.617 19.476-19.095 35.274-15.025 12.204 3.15 16.718 4.739 21.259 4.739s9.055-1.589 21.259-4.739c15.798-4.07 12.399 13.408 35.274 15.025 0-42.009-28.252-63.306-56.533-63.78z" fill="#6d80aa" fill-rule="evenodd"/></g><g><path clip-rule="evenodd" d="m282.442 246.982c0 20.294-19.058 45.772-42.379 54.414-.474.167-.919.335-1.393.502 1.059.474 2.118.892 3.176 1.282 10.226 3.819 18.083 3.819 28.309 0 2.731-1.004 5.405-2.258 7.997-3.68 19.532-10.844 34.383-32.81 34.383-50.734v-17.283c-20.674-1.45-19.894-15.861-31.178-15.638.724 4.349 1.087 8.948 1.087 13.826v17.311z" fill="#fed1a3" fill-rule="evenodd"/></g><g><path clip-rule="evenodd" d="m244.047 169.153c17.944 6.356 33.157 21.91 37.308 46.692 11.284-.223 10.504 14.189 31.178 15.638 0-42.009-28.253-63.306-56.533-63.78-4.012.056-8.024.557-11.953 1.45z" fill="#49679b" fill-rule="evenodd"/></g><g><path clip-rule="evenodd" d="m312.032 369.887v8.809c8.108-3.763 15.798-8.335 22.931-13.631v-9.422c0-26.287-17.888-33.674-36.166-38.803l-17.47 10.258c13.291 3.512 30.705 6.913 30.705 42.789z" fill="#e41e2b" fill-rule="evenodd"/></g><g><path clip-rule="evenodd" d="m233.849 299.5c-1.142 2.314-2.536 8.279-6.297 11.987 1.811.892 3.678 1.7 5.545 2.397 10.253 3.819 22.429 7.304 32.683 3.512 2.062-.446 2.898-1.617 4.235.948 2.563 4.934 6.325 7.499 11.229 8.809l17.553-10.314c-3.26-.92-6.548-1.756-9.724-2.648-7.439-2.007-9.39-11.596-10.922-14.691-2.591 1.422-5.266 2.676-7.997 3.68-10.226 3.819-18.083 3.819-28.309 0-1.059-.39-2.118-.808-3.176-1.282-1.644-.725-3.232-1.533-4.82-2.398z" fill="#ffbc85" fill-rule="evenodd"/></g><g><path clip-rule="evenodd" d="m230.868 127.366c63.388 10.147 111.785 65.09 111.785 131.351 0 25.339-7.077 49.034-19.365 69.216 6.994 5.77 11.674 14.272 11.674 27.709v9.422c32.767-24.224 53.998-63.139 53.998-107.044 0-73.453-59.515-133.024-132.961-133.024-8.581.001-16.995.809-25.131 2.37z" fill="#eee1dc" fill-rule="evenodd"/></g><g><path clip-rule="evenodd" d="m88.573 258.021c0-21.214-17.219-38.413-38.423-38.413s-38.423 17.199-38.423 38.413c0 21.241 17.219 38.441 38.423 38.441s38.423-17.2 38.423-38.441z" fill="#80d261" fill-rule="evenodd"/></g><g><path clip-rule="evenodd" d="m423.427 258.021c0-21.214 17.219-38.413 38.423-38.413s38.423 17.199 38.423 38.413c0 21.241-17.219 38.441-38.423 38.441s-38.423-17.2-38.423-38.441z" fill="#80d261" fill-rule="evenodd"/></g><g><path clip-rule="evenodd" d="m256 425.555c21.204 0 38.423 17.199 38.423 38.413 0 21.241-17.219 38.441-38.423 38.441s-38.423-17.199-38.423-38.441c0-21.213 17.219-38.413 38.423-38.413z" fill="#80d261" fill-rule="evenodd"/></g><g><path clip-rule="evenodd" d="m256 90.514c21.204 0 38.423-17.199 38.423-38.441 0-21.214-17.219-38.413-38.423-38.413s-38.423 17.199-38.423 38.413c0 21.242 17.219 38.441 38.423 38.441z" fill="#80d261" fill-rule="evenodd"/></g><g><path clip-rule="evenodd" d="m39.534 221.085c14.879 5.296 25.522 19.513 25.522 36.211 0 17.534-11.73 32.336-27.779 36.963 4.012 1.422 8.359 2.202 12.873 2.202 21.204 0 38.423-17.199 38.423-38.441 0-21.214-17.219-38.413-38.423-38.413-3.678.001-7.244.503-10.616 1.478z" fill="#4fc122" fill-rule="evenodd"/></g><g><path clip-rule="evenodd" d="m245.384 15.138c14.879 5.296 25.522 19.513 25.522 36.211 0 17.562-11.73 32.336-27.779 36.963 4.012 1.422 8.359 2.202 12.873 2.202 21.204 0 38.423-17.199 38.423-38.441 0-21.158-17.136-38.329-38.283-38.413h-.14-.139c-3.65.001-7.161.53-10.477 1.478z" fill="#4fc122" fill-rule="evenodd"/></g><g><path clip-rule="evenodd" d="m476.756 257.296c0 17.534-11.73 32.336-27.779 36.963 4.012 1.422 8.359 2.202 12.873 2.202 21.204 0 38.423-17.199 38.423-38.441 0-21.214-17.219-38.413-38.423-38.413-3.678 0-7.244.502-10.616 1.477 14.879 5.298 25.522 19.515 25.522 36.212z" fill="#4fc122" fill-rule="evenodd"/></g><g><path clip-rule="evenodd" d="m270.907 463.244c0 17.534-11.73 32.336-27.779 36.936 4.012 1.45 8.359 2.23 12.873 2.23 21.204 0 38.423-17.199 38.423-38.441 0-21.214-17.219-38.413-38.423-38.413-3.678 0-7.244.502-10.616 1.477 14.878 5.296 25.522 19.513 25.522 36.211z" fill="#4fc122" fill-rule="evenodd"/></g><path d="m430.895 354.721c-18.964 0-36.381 6.753-49.974 17.982l-20.531-20.747c20.848-23.175 34.112-53.302 35.862-86.436h20.297c3.591 21.776 22.532 38.441 45.301 38.441 25.322 0 45.923-20.609 45.923-45.941 0-25.316-20.601-45.913-45.923-45.913-22.767 0-41.708 16.653-45.3 38.413h-20.297c-.464-8.851-1.738-17.6-3.826-26.097-.988-4.022-5.056-6.481-9.073-5.493-4.022.989-6.481 5.051-5.493 9.073 2.39 9.72 3.601 19.819 3.601 30.017 0 35.89-15.13 68.307-39.337 91.21-3.19-29.422-28.516-36.219-47.339-41.266-1.253-.336-2.498-.67-3.759-1.015-1.467-.396-2.667-2.38-3.596-4.442 18.703-12.82 32.602-34.664 32.602-53.742v-17.283c0-21.486-6.863-39.73-19.85-52.76-11.62-11.661-27.268-18.238-44.058-18.519-.085-.001-.17-.001-.257 0-9.162.16-18.302 2.279-26.429 6.129-3.743 1.773-5.34 6.245-3.567 9.989s6.247 5.34 9.989 3.567c6.176-2.925 13.138-4.544 20.14-4.684 21.575.417 44.607 15.269 48.468 46.772-2.987-1.424-4.953-3.431-7.088-5.61-4.24-4.326-10.047-10.25-21.997-7.171-2.93.756-5.42 1.423-7.576 2.001-6.215 1.665-9.334 2.5-11.809 2.5s-5.594-.835-11.809-2.5c-2.156-.578-4.646-1.245-7.579-2.001-11.952-3.081-17.756 2.846-21.994 7.171-2.138 2.182-4.106 4.191-7.101 5.616 1.089-9.066 3.789-17.1 8.068-23.973 2.188-3.516 1.113-8.142-2.403-10.331s-8.141-1.114-10.331 2.403c-7.223 11.601-10.885 25.53-10.885 41.401v17.283c0 19.08 13.904 40.928 32.6 53.744-.931 2.062-2.137 4.047-3.622 4.448-1.232.337-2.478.671-3.73 1.007-18.823 5.047-44.149 11.844-47.339 41.266-24.208-22.903-39.337-55.32-39.337-91.21 0-69.214 56.281-125.524 125.461-125.524 44.306 0 85.793 23.779 108.271 62.057.019.03.036.06.054.09.394.649.77 1.33 1.145 2.004l.338.608c2.02 3.617 6.59 4.913 10.205 2.891 3.616-2.02 4.91-6.588 2.891-10.205l-.319-.574c-.458-.826-.922-1.658-1.403-2.454-4.806-8.177-10.436-15.823-16.752-22.841l20.907-21.126c12.788 9.015 28.359 14.331 45.157 14.331 19.038 0 36.514-6.81 50.131-18.118.435-.302.834-.651 1.195-1.036 16.688-14.431 27.279-35.738 27.279-59.485.001-43.361-35.262-78.638-78.605-78.638s-78.605 35.277-78.605 78.639c0 21.153 8.407 40.368 22.035 54.516l-20.104 20.315c-7.061-6.346-14.754-11.999-22.984-16.816-19.258-11.273-41.012-17.747-63.334-18.939v-20.323c21.766-3.593 38.423-22.542 38.423-45.318 0-25.316-20.601-45.913-45.923-45.913s-45.923 20.597-45.923 45.913c0 22.776 16.657 41.725 38.423 45.318v20.306c-33.088 1.75-63.17 15.016-86.323 35.846l-20.235-20.245c13.709-14.162 22.172-33.436 22.172-54.66-.001-43.362-35.263-78.639-78.606-78.639s-78.606 35.277-78.606 78.639c0 23.748 10.591 45.054 27.279 59.485.361.385.76.734 1.195 1.036 13.617 11.308 31.093 18.118 50.131 18.118 16.724 0 32.233-5.269 44.989-14.211l21.074 21.084c-20.824 23.163-34.077 53.265-35.827 86.37h-20.293c-3.593-21.76-22.533-38.413-45.3-38.413-25.322 0-45.923 20.597-45.923 45.913 0 25.332 20.601 45.941 45.923 45.941 22.769 0 41.71-16.665 45.301-38.441h20.288c1.748 33.114 15.013 63.217 35.838 86.386l-20.484 20.475c-13.596-11.236-31.018-17.995-49.989-17.995-43.343 0-78.605 35.277-78.605 78.639s35.263 78.64 78.605 78.64 78.605-35.278 78.605-78.64c0-18.992-6.766-36.432-18.011-50.037l20.481-20.473c1.801 1.621 3.642 3.199 5.522 4.728 1.792 1.458 3.641 3.216 5.653 4.352 21.314 15.572 47.154 25.29 75.143 26.772v20.31c-21.766 3.591-38.423 22.528-38.423 45.291 0 25.332 20.601 45.941 45.923 45.941s45.923-20.609 45.923-45.941c0-22.762-16.657-41.7-38.423-45.291v-20.31c27.987-1.482 53.825-11.199 75.138-26.769.51-.288.981-.636 1.408-1.031 3.366-2.523 6.61-5.199 9.734-8.007l20.532 20.748c-11.252 13.608-18.023 31.053-18.023 50.052 0 23.692 10.542 44.953 27.161 59.383.431.481.919.909 1.461 1.266 13.595 11.234 31.015 17.99 49.984 17.99s36.389-6.757 49.984-17.99c.541-.357 1.03-.785 1.461-1.266 16.62-14.43 27.161-35.691 27.161-59.383.002-43.362-35.261-78.64-78.603-78.64zm30.955-127.613c17.051 0 30.923 13.868 30.923 30.913 0 17.061-13.872 30.941-30.923 30.941s-30.923-13.88-30.923-30.941c0-17.045 13.872-30.913 30.923-30.913zm-35.358-84.829c-14.316 0-27.54-4.76-38.182-12.777 1.136-12.261 8.18-23.294 18.834-29.574 5.653 3.419 12.274 5.39 19.348 5.39s13.695-1.971 19.348-5.39c10.654 6.28 17.698 17.313 18.834 29.574-10.642 8.017-23.866 12.777-38.182 12.777zm-22.509-74.484c0-12.418 10.098-22.522 22.509-22.522s22.508 10.104 22.508 22.522c0 12.419-10.097 22.522-22.508 22.522s-22.509-10.103-22.509-22.522zm-41.096 10.844c0-35.091 28.533-63.639 63.605-63.639s63.605 28.548 63.605 63.639c0 14.328-4.76 27.562-12.777 38.21-3.531-11.027-10.61-20.71-20.179-27.466 4.314-6.11 6.859-13.555 6.859-21.588 0-20.689-16.826-37.522-37.508-37.522-20.683 0-37.509 16.833-37.509 37.522 0 8.033 2.545 15.478 6.859 21.589-9.569 6.756-16.647 16.438-20.179 27.465-8.016-10.648-12.776-23.882-12.776-38.21zm-137.81-26.565c0-17.045 13.872-30.913 30.923-30.913s30.923 13.868 30.923 30.913c0 17.061-13.872 30.941-30.923 30.941s-30.923-13.88-30.923-30.941zm-139.569 90.205c-14.316 0-27.54-4.76-38.182-12.777 1.136-12.261 8.18-23.294 18.834-29.574 5.653 3.419 12.274 5.39 19.348 5.39s13.695-1.971 19.348-5.39c10.653 6.28 17.698 17.313 18.834 29.574-10.642 8.017-23.866 12.777-38.182 12.777zm-22.508-74.484c0-12.418 10.097-22.522 22.508-22.522s22.509 10.104 22.509 22.522c0 12.419-10.098 22.522-22.509 22.522s-22.508-10.103-22.508-22.522zm53.158 21.589c4.314-6.111 6.859-13.556 6.859-21.589 0-20.689-16.826-37.522-37.509-37.522-20.682 0-37.508 16.833-37.508 37.522 0 8.033 2.545 15.478 6.858 21.589-9.569 6.756-16.648 16.438-20.179 27.466-8.017-10.648-12.777-23.883-12.777-38.21 0-35.092 28.534-63.64 63.606-63.64s63.605 28.548 63.605 63.639c0 14.328-4.76 27.562-12.777 38.21-3.531-11.027-10.609-20.709-20.178-27.465zm-66.008 199.578c-17.051 0-30.923-13.88-30.923-30.941 0-17.045 13.872-30.913 30.923-30.913s30.923 13.868 30.923 30.913c0 17.061-13.872 30.941-30.923 30.941zm30.955 207.704c-14.316 0-27.541-4.76-38.182-12.777 1.135-12.271 8.175-23.306 18.825-29.579 5.655 3.422 12.279 5.395 19.357 5.395 7.072 0 13.692-1.97 19.344-5.388 10.657 6.279 17.702 17.31 18.838 29.571-10.641 8.017-23.865 12.778-38.182 12.778zm-22.507-74.484c0-12.418 10.097-22.522 22.508-22.522s22.509 10.104 22.509 22.522c0 12.419-10.098 22.522-22.509 22.522s-22.508-10.103-22.508-22.522zm73.336 49.054c-3.531-11.028-10.599-20.722-20.171-27.476 4.309-6.109 6.851-13.55 6.851-21.578 0-20.689-16.826-37.522-37.509-37.522-20.682 0-37.508 16.833-37.508 37.522 0 8.023 2.538 15.46 6.842 21.566-9.57 6.753-16.636 16.45-20.166 27.485-8.014-10.648-12.773-23.881-12.773-38.207 0-35.091 28.533-63.639 63.605-63.639s63.605 28.548 63.605 63.639c.001 14.328-4.759 27.562-12.776 38.21zm75.033-222.47v-10.841c9.747-2.284 14.81-7.432 18.366-11.061 3.524-3.597 3.976-4.061 7.534-3.145 2.878.743 5.325 1.398 7.443 1.966 7.248 1.941 11.241 3.011 15.689 3.011s8.441-1.069 15.689-3.011c2.118-.568 4.565-1.223 7.44-1.965 3.556-.915 4.012-.455 7.537 3.144 3.556 3.629 8.619 8.777 18.366 11.061v10.841c0 17.528-17.866 40.112-37.503 47.388-8.515 3.18-14.549 3.178-23.079-.007-19.616-7.269-37.482-29.853-37.482-47.381zm74.168 69.735-21.266 12.468c-.1.058-.197.118-.294.181-3.475 2.258-3.676 2.258-7.15 0-.097-.063-.194-.123-.294-.181l-21.27-12.471c3.274-2.465 5.437-5.816 6.922-8.861.479.192.956.39 1.438.568 5.962 2.227 11.372 3.339 16.782 3.339 5.405 0 10.81-1.111 16.756-3.332.488-.181.971-.381 1.456-.575 1.486 3.048 3.649 6.401 6.92 8.864zm5.788 145.467c0 17.061-13.872 30.941-30.923 30.941s-30.923-13.88-30.923-30.941c0-17.045 13.872-30.913 30.923-30.913s30.923 13.868 30.923 30.913zm40.54-102.814c-20.292 14.125-44.926 22.419-71.463 22.419s-51.171-8.295-71.463-22.419v-5.511c0-18.812 10.282-25.324 27.704-30.674l32.162 18.857c4.165 2.682 7.881 4.023 11.597 4.023s7.432-1.341 11.597-4.023l32.162-18.857c17.422 5.35 27.704 11.862 27.704 30.674zm103.432 135.846c-14.315 0-27.538-4.759-38.179-12.775 1.142-12.266 8.184-23.297 18.835-29.573 5.652 3.417 12.272 5.387 19.344 5.387 7.077 0 13.702-1.973 19.357-5.395 10.644 6.271 17.682 17.305 18.823 29.581-10.642 8.016-23.865 12.775-38.18 12.775zm-22.509-74.483c0-12.419 10.098-22.522 22.509-22.522s22.508 10.104 22.508 22.522-10.097 22.522-22.508 22.522-22.509-10.103-22.509-22.522zm73.336 49.055c-3.531-11.038-10.595-20.737-20.162-27.489 4.304-6.106 6.843-13.543 6.843-21.566 0-20.69-16.826-37.522-37.508-37.522-20.683 0-37.509 16.833-37.509 37.522 0 8.028 2.542 15.469 6.851 21.578-9.569 6.755-16.635 16.45-20.167 27.481-8.019-10.649-12.78-23.885-12.78-38.215 0-35.091 28.533-63.64 63.605-63.64s63.605 28.549 63.605 63.64c0 14.328-4.761 27.563-12.778 38.211z"/></g></svg>