<svg id="Layer_1" viewBox="0 0 512 512" xmlns="http://www.w3.org/2000/svg" data-name="Layer 1"><g fill-rule="evenodd"><path d="m202.497 52.381h63.75v112.877l-63.75-8.625z" fill="#fcdb35"/><path d="m247.884 52.381h18.363v112.877l-18.363-2.485z" fill="#fdc72e"/><path d="m297.747 11.004h63.75v168l-63.75 1.875z" fill="#85caff"/><path d="m343.134 11.004h18.363v168l-18.363.54z" fill="#4eb1fc"/><path d="m107.247 83.132h63.75v65.625l-63.75 13.5z" fill="#ff5471"/><path d="m152.634 83.132h18.363v65.625l-18.363 3.889z" fill="#f23353"/><path d="m488.789 91.745c2.793.236 4.705-2.734 3.334-5.18l-35.217-62.815c-1.205-2.146-4.161-2.411-5.729-.515l-46.216 55.944c-1.796 2.175-.415 5.458 2.395 5.696l25.76 2.173-1.969 14.018c-4.026 28.658-29.4 49.729-54.028 61.51-58.952 28.199-109.716-5.789-166.72-19.022-29.275-6.796-57.091-7.514-85.989 1.769-38.542 12.38-71.139 40.275-97.88 69.814-5.514 6.083-5.142 15.561.974 21.097l.157.142c6.133 5.552 15.567 4.987 21.09-1.124 22.934-25.334 51.688-50.748 84.826-61.393 23.65-7.597 46.121-6.662 70.044-1.109 9.831 2.282 19.503 5.229 29.096 8.351 23.296 7.581 46.251 16.188 70.535 20.175 30.594 5.025 58.678 1.79 86.8-11.662 34.152-16.336 65.274-45.208 70.777-84.379l2.2-15.665 25.76 2.173z" fill="#2dd62d"/><path d="m449.885 24.799-43.965 53.219 28.122 2.427-.928 6.604-1.969 14.018c-4.026 28.658-29.4 49.729-54.028 61.51-58.952 28.199-109.716-5.789-166.72-19.022-29.275-6.796-57.091-7.514-85.989 1.769-38.542 12.38-71.139 40.275-97.88 69.814-3.805 4.197-4.806 10.01-3.053 15.03 6.109 4.467 14.704 3.606 19.874-2.114 22.934-25.334 51.688-50.748 84.826-61.393 23.65-7.597 46.121-6.663 70.044-1.109 9.831 2.282 19.504 5.229 29.097 8.351 23.296 7.581 46.25 16.188 70.535 20.175 30.594 5.025 58.678 1.79 86.8-11.662 34.152-16.336 65.274-45.208 70.777-84.379l2.2-15.665 19.206 1.62c2.793.236 4.705-2.734 3.334-5.18l-30.283-54.014z" fill="#43f043"/><path d="m64.326 328.413c-15.315-22.187-10.606-60.34 26.076-60.34s41.391 38.153 26.076 60.34c-7.03 10.184-16.571 15.175-26.076 15.165-9.505.011-19.047-4.98-26.076-15.165z" fill="#d9c5bf"/><path d="m64.327 328.413c-14.1-20.428-11.226-54.389 17.949-59.646 29.175 5.257 32.049 39.218 17.949 59.646-5.014 7.264-11.305 11.884-17.949 13.934-6.644-2.05-12.936-6.671-17.949-13.934z" fill="#f0e3df"/><path d="m75.878 345.419-24.751 6.088c-10.032 2.566-21.02 5.476-27.305 9.162-8.199 4.807-11.121 9.715-12.125 22.775-1.271 23.073-.849 44.52.081 66.561.462 10.933 9.455 19.555 20.398 19.555h116.451c10.943 0 19.936-8.622 20.398-19.555.93-22.041 1.352-43.488.081-66.561-1.004-13.06-3.926-17.968-12.125-22.775-6.285-3.686-17.273-6.596-27.305-9.162l-24.751-6.088c-4.994-1.228-9.759-1.842-14.524-1.842s-9.53.614-14.524 1.842z" fill="#fdc72e"/><path d="m75.878 345.419-24.751 6.088c-10.032 2.566-21.02 5.476-27.305 9.161-8.199 4.807-11.121 9.715-12.125 22.775-1.271 23.074-.849 44.52.081 66.561.462 10.933 9.456 19.555 20.399 19.555h100.787c10.943 0 19.937-8.622 20.398-19.555.93-22.041 1.352-43.488.081-66.561-1.004-13.06-3.926-17.968-12.125-22.775-6.285-3.685-17.273-6.595-27.305-9.161l-24.751-6.088c-2.271-.559-4.495-.99-6.693-1.295-2.198.304-4.422.736-6.693 1.295z" fill="#fcdb35"/><path d="m395.512 328.413c-15.314-22.187-10.606-60.34 26.076-60.34s41.391 38.153 26.076 60.34c-7.03 10.184-16.571 15.175-26.076 15.165-9.505.011-19.047-4.98-26.076-15.165z" fill="#d9c5bf"/><path d="m395.512 328.413c-14.1-20.428-11.226-54.389 17.949-59.646 29.174 5.257 32.049 39.218 17.949 59.646-5.014 7.264-11.305 11.884-17.949 13.934-6.644-2.05-12.936-6.671-17.949-13.934z" fill="#f0e3df"/><path d="m407.064 345.419-24.751 6.088c-10.032 2.566-21.02 5.476-27.305 9.162-8.199 4.807-11.121 9.715-12.125 22.775-1.271 23.073-.849 44.52.081 66.561.462 10.933 9.455 19.555 20.398 19.555h116.451c10.943 0 19.936-8.622 20.398-19.555.93-22.041 1.352-43.488.081-66.561-1.004-13.06-3.926-17.968-12.125-22.775-6.285-3.686-17.273-6.596-27.305-9.162l-24.751-6.088c-4.994-1.228-9.759-1.842-14.524-1.842s-9.53.614-14.524 1.842z" fill="#fdc72e"/><path d="m407.064 345.419-24.751 6.088c-10.032 2.566-21.02 5.476-27.305 9.161-8.199 4.807-11.121 9.715-12.125 22.775-1.271 23.074-.849 44.52.081 66.561.462 10.933 9.456 19.555 20.399 19.555h100.787c10.943 0 19.937-8.622 20.398-19.555.93-22.041 1.352-43.488.081-66.561-1.004-13.06-3.926-17.968-12.125-22.775-6.285-3.685-17.273-6.595-27.305-9.161l-24.751-6.088c-2.271-.559-4.495-.99-6.693-1.295-2.198.304-4.422.736-6.693 1.295z" fill="#fcdb35"/><path d="m218.603 298.726c-21.96-31.816-15.209-86.525 37.392-86.525s59.352 54.71 37.392 86.525c-10.08 14.604-23.761 21.76-37.392 21.745-13.631.015-27.312-7.141-37.392-21.745z" fill="#d9c5bf"/><path d="m218.603 298.726c-20.219-29.293-16.097-77.991 25.738-85.53 41.835 7.539 45.957 56.237 25.738 85.53-7.189 10.416-16.21 17.041-25.738 19.981-9.528-2.939-18.549-9.565-25.738-19.981z" fill="#f0e3df"/><path d="m235.168 323.113-35.492 8.73c-14.385 3.679-30.141 7.852-39.154 13.137-11.757 6.893-15.947 13.931-17.387 32.658-1.822 33.087-1.218 63.84.116 95.446.662 15.678 13.559 28.042 29.25 28.042h166.986c15.691 0 28.588-12.364 29.25-28.042 1.334-31.606 1.938-62.359.116-95.446-1.44-18.727-5.63-25.766-17.386-32.658-9.013-5.285-24.769-9.458-39.154-13.137l-35.492-8.73c-7.161-1.761-13.994-2.642-20.827-2.642s-13.667.88-20.827 2.642z" fill="#4eb1fc"/><path d="m235.168 323.113-35.491 8.729c-14.385 3.68-30.141 7.853-39.154 13.137-11.757 6.893-15.947 13.931-17.386 32.659-1.822 33.087-1.218 63.84.116 95.446.662 15.678 13.559 28.041 29.251 28.041h144.525c15.692 0 28.589-12.364 29.25-28.041 1.334-31.606 1.938-62.36.116-95.446-1.439-18.727-5.63-25.766-17.386-32.659-9.013-5.285-24.769-9.457-39.154-13.137l-35.492-8.729c-3.256-.801-6.445-1.42-9.597-1.857-3.152.436-6.341 1.056-9.597 1.857z" fill="#85caff"/><path d="m246.347 321.083-16.265 116.87 25.913 36.3 25.913-36.3-16.265-116.871c-3.238-.387-6.443-.581-9.647-.581s-6.409.194-9.648.582z" fill="#f23353"/><path d="m246.347 321.083-16.265 116.87 19.163 26.845 20.663-28.945-16.05-115.323c-2.494.067-4.992.252-7.511.553z" fill="#ff6b84"/><path d="m31.728 219.83c32.102-35.471 63.094-57.657 94.81-67.847 13.689-4.381 27.474-6.574 42.079-6.574 12.677 0 25.98 1.663 40.199 4.965 14.508 3.364 28.92 8.218 42.85 12.908 25.209 8.469 50.899 17.13 77.892 17.13 16.34 0 33.162-3.191 50.562-11.52 15.665-7.49 52.635-28.993 57.937-66.849l1.976-14.022c.289-1.909-.241-3.841-1.446-5.341-1.205-1.499-2.989-2.449-4.868-2.612l-19.087-1.61 38.657-46.817 29.499 52.567-19.184-1.62c-3.663-.299-6.989 2.333-7.519 6.011l-2.169 15.66c-6.411 45.53-48.924 70.44-66.902 79.039-26.125 12.513-52.442 16.031-82.615 11.071-19.28-3.171-38.271-9.519-56.636-15.66-4.29-1.432-8.58-2.868-12.869-4.271-8.628-2.8-18.895-6.001-29.692-8.507-27.667-6.42-51.092-6.025-73.747 1.258-28.968 9.298-57.744 30.029-87.917 63.369-1.398 1.581-3.374 2.521-5.495 2.641-2.121.111-4.145-.602-5.688-2.029l-.145-.13c-1.542-1.403-2.458-3.34-2.554-5.461-.096-2.131.627-4.169 2.073-5.75zm82.519-129.697v51.348c2.651-1.022 5.35-1.962 8.001-2.82 13.641-4.391 27.426-6.758 41.742-7.182v-41.346zm95.244-30.752v76.807c.82.183 1.639.352 2.507.545 15.135 3.519 29.884 8.478 44.151 13.279 1.012.347 2.073.699 3.085 1.041v-91.672zm95.244-41.38v145.951c16.388 3.08 32.825 3.668 49.743-.583v-145.368zm-281.924 223.428.145.13c4.049 3.673 9.206 5.654 14.653 5.654.386 0 .819-.01 1.205-.043 5.832-.318 11.182-2.887 15.135-7.22 28.486-31.46 55.238-50.899 81.748-59.426 20.437-6.56 40.922-6.864 66.324-.954 10.315 2.391 20.196 5.485 28.535 8.194 4.242 1.379 8.531 2.81 12.773 4.227 18.895 6.319 38.416 12.85 58.804 16.19 32.68 5.379 62.468 1.369 90.954-12.248 42.272-20.229 69.505-52.943 74.662-89.72l1.301-9.11 19.136 1.62c3.904.318 7.616-1.499 9.737-4.772 2.072-3.268 2.217-7.418.289-10.807l-35.186-62.825c-1.687-3.017-4.772-5.008-8.242-5.321-3.422-.308-6.796 1.104-9.014 3.784l-46.224 55.942c-2.458 3.017-3.085 7.138-1.591 10.749 1.542 3.601 4.916 6.049 8.821 6.382l18.364 1.547-.916 6.69c-4.386 31.147-36.536 49.661-50.128 56.168-1.88.901-3.76 1.701-5.591 2.473v-147.731c0-3.87-3.133-7.003-6.989-7.003h-63.769c-3.856 0-6.989 3.133-6.989 7.003v149.788c-5.832-1.519-11.664-3.268-17.497-5.129v-103.279c0-3.87-3.133-6.999-7.037-6.999h-63.721c-3.856 0-6.989 3.128-6.989 6.999v81.169c-5.977-.911-11.809-1.542-17.497-1.861v-48.562c0-3.87-3.133-6.999-7.037-6.999h-63.721c-3.904 0-7.037 3.128-7.037 6.999v64.42c-26.414 12.884-52.394 33.629-78.904 62.882-3.904 4.328-5.929 9.929-5.64 15.771.241 5.88 2.796 11.289 7.134 15.227zm470.291 208.182c-.289 7.187-6.17 12.831-13.352 12.831h-3.326v-46.292c0-3.87-3.133-6.999-6.989-6.999s-6.989 3.128-6.989 6.999v46.292h-86.375c.916-25.112 1.398-54.081-.338-85.209v-.154c-.482-6.228-1.301-11.409-2.555-15.849 3.567-1.022 7.278-1.99 10.845-2.911l24.727-6.078c4.386-1.08 8.483-1.62 12.581-1.639h.482c4.097.019 8.242.559 12.629 1.639l24.63 6.068c7.857 2.01 19.762 5.042 25.45 8.401 5.591 3.268 7.809 5.601 8.676 17.169 1.35 24.361.723 46.899-.096 65.731zm-131.443 23.078c-.53 11.954-10.267 21.309-22.269 21.309h-7.76v-69.438c0-3.87-3.133-7.003-6.989-7.003-3.904 0-7.037 3.133-7.037 7.003v69.438h-123.248v-69.438c0-3.87-3.133-7.003-6.989-7.003s-6.989 3.133-6.989 7.003v69.438h-7.808c-11.954 0-21.739-9.356-22.221-21.309-1.157-27.098-2.073-59.527-.145-94.608 1.301-16.933 4.627-21.608 13.93-27.06 8.58-5.032 25.883-9.452 37.259-12.364l35.475-8.729c.386-.096.82-.188 1.205-.28l-14.942 107.342c-.241 1.769.193 3.567 1.253 5.027l25.932 36.3c1.301 1.841 3.422 2.931 5.688 2.931s4.386-1.089 5.688-2.931l25.932-36.3c1.012-1.46 1.446-3.258 1.205-5.027l-14.942-107.342c.434.092.819.183 1.253.28l35.379 8.71c11.472 2.931 28.728 7.351 37.307 12.392 9.303 5.442 12.629 10.117 13.93 27.05 1.928 35.08 1.06 67.51-.096 94.608zm-342.801-23.078c-.771-18.832-1.446-41.37-.096-65.731.916-11.568 3.085-13.901 8.676-17.169 5.736-3.36 17.593-6.391 25.401-8.392l24.727-6.078c4.386-1.08 8.483-1.62 12.581-1.639h.53c4.049.019 8.146.559 12.58 1.639l24.63 6.068c3.615.921 7.375 1.889 10.893 2.921-1.253 4.439-2.072 9.621-2.555 15.849v.154c-1.687 31.128-1.205 60.096-.289 85.209h-86.374v-46.292c0-3.87-3.133-6.999-6.989-6.999-3.904 0-7.037 3.128-7.037 6.999v46.292h-3.278c-7.23 0-13.111-5.644-13.4-12.831zm47.526-161.891c4.29-8.199 12.628-12.532 24.004-12.532s19.714 4.333 24.004 12.532c5.447 10.319 3.856 25.782-3.711 36.758-5.302 7.693-12.34 11.973-19.907 12.113h-.771c-7.519-.14-14.557-4.42-19.907-12.113-7.567-10.975-9.11-26.438-3.711-36.758zm152.458-48.798c-8.242 15.747-5.929 39.25 5.543 55.869 8.194 11.886 19.232 18.499 31.041 18.687h1.109c11.857-.188 22.847-6.801 31.041-18.687 11.471-16.619 13.833-40.122 5.543-55.869-6.748-12.821-19.569-19.603-37.114-19.603s-30.414 6.782-37.162 19.603zm36.632 88.559c-.964.01-1.976.039-2.989.087l-15.086 108.581 18.605 26.052 18.557-26.052-15.087-108.581c-1.012-.048-1.976-.077-2.988-.087-.145 0-.289.019-.434.019h-.096c-.193 0-.289-.019-.482-.019zm142.095-39.761c4.29-8.199 12.628-12.532 24.004-12.532s19.714 4.333 24.052 12.532c5.398 10.319 3.808 25.782-3.76 36.758-5.302 7.693-12.339 11.973-19.907 12.113h-.771c-7.519-.13-14.557-4.42-19.858-12.113-7.616-10.975-9.158-26.438-3.76-36.758zm109.608 95.321v-.15c-1.157-14.98-5.061-22.109-15.569-28.25-6.844-4.03-17.641-6.984-29.113-9.91l-16.34-4.02c2.651-2.381 5.061-5.143 7.23-8.281 10.556-15.251 12.436-36.319 4.627-51.218-6.796-12.913-19.714-20.022-36.439-20.022s-29.595 7.11-36.392 20.022c-7.808 14.899-5.929 35.967 4.579 51.218 2.169 3.138 4.627 5.9 7.278 8.281l-16.436 4.029c-4.579 1.181-9.351 2.43-13.833 3.789-2.989-3.61-6.844-6.661-11.857-9.582-9.495-5.577-24.775-9.737-40.97-13.887l-29.354-7.22c5.399-3.938 10.315-9.009 14.508-15.092 14.508-20.996 17.159-49.916 6.411-70.329-9.158-17.478-26.751-27.098-49.502-27.098s-40.392 9.621-49.55 27.098c-10.701 20.413-8.05 49.333 6.41 70.329 4.194 6.083 9.158 11.154 14.556 15.092l-29.45 7.24c-16.147 4.131-31.427 8.291-40.922 13.867-4.965 2.921-8.821 5.972-11.809 9.582-4.483-1.359-9.303-2.608-13.93-3.798l-16.34-4.02c2.651-2.381 5.061-5.143 7.23-8.281 10.556-15.251 12.436-36.319 4.627-51.218-6.796-12.913-19.714-20.022-36.439-20.022s-29.643 7.11-36.391 20.022c-7.808 14.899-5.929 35.967 4.579 51.218 2.169 3.138 4.627 5.9 7.278 8.281l-16.436 4.029c-11.375 2.916-22.172 5.871-29.065 9.901-10.459 6.141-14.364 13.27-15.569 28.25v.15c-1.35 24.977-.723 47.969.096 67.158.627 14.711 12.629 26.24 27.378 26.24h104.354c2.314 17.931 17.545 31.561 35.958 31.561h166.821c18.461 0 33.644-13.631 35.958-31.561h104.402c14.701 0 26.751-11.53 27.378-26.24.819-19.189 1.446-42.18.048-67.158z"/></g></svg>