<svg id="&#x421;&#x43B;&#x43E;&#x439;_1" enable-background="new 0 0 4000 4000" viewBox="0 0 4000 4000" xmlns="http://www.w3.org/2000/svg" xmlns:xlink="http://www.w3.org/1999/xlink"><linearGradient id="SVGID_1_" gradientTransform="matrix(1 0 0 -1 0 5905)" gradientUnits="userSpaceOnUse" x1="746.703" x2="3514.498" y1="5188.929" y2="2421.133"><stop offset=".3575" stop-color="#ffc35c"/><stop offset=".714" stop-color="#614ae0"/></linearGradient><path d="m3367.188 933.594c-116.867 0-214.785 81.977-239.75 191.406h-963.375c-30.188 0-54.688 24.5-54.688 54.688s24.5 54.688 54.688 54.688h963.375c20.946 91.793 93.27 164.117 185.063 185.062v580.562c0 30.16-24.527 54.688-54.688 54.688h-765.625v-54.688c0-30.187-24.5-54.688-54.688-54.688h-437.5v-136.719c0-20.945-11.949-40.031-30.789-49.192-18.813-9.16-41.234-6.754-57.668 6.18l-367.965 289.106h-671.016c-24.965-109.43-122.883-191.406-239.75-191.406-135.707 0-246.094 110.387-246.094 246.094 0 116.867 81.977 214.785 191.406 239.75v635.25c0 90.481 73.582 164.062 164.062 164.062h389.156c24.965 109.43 122.883 191.406 239.75 191.406 135.707 0 246.094-110.387 246.094-246.094s-110.387-246.094-246.094-246.094c-116.867 0-214.785 81.977-239.75 191.406h-389.154c-30.16 0-54.688-24.527-54.688-54.688v-635.25c91.793-20.945 164.117-93.27 185.063-185.062h671.016l367.965 289.105c9.816 7.711 21.738 11.676 33.77 11.676 8.148 0 16.324-1.805 23.898-5.496 18.84-9.16 30.789-28.246 30.789-49.191v-136.719h437.5c30.188 0 54.688-24.5 54.688-54.688v-54.688h765.625c90.481 0 164.062-73.582 164.062-164.062v-580.563c109.43-24.965 191.406-122.883 191.406-239.75-.001-135.705-110.387-246.091-246.094-246.091zm-1996.094 2023.437c75.387 0 136.719 61.332 136.719 136.719s-61.332 136.719-136.719 136.719-136.719-61.332-136.719-136.719 61.332-136.719 136.719-136.719zm-738.282-710.937c-75.387 0-136.719-61.332-136.719-136.719s61.332-136.719 136.719-136.719 136.719 61.332 136.719 136.719-61.332 136.719-136.719 136.719zm1750-82.032h-437.5c-30.187 0-54.688 24.5-54.688 54.688v78.887l-239.613-188.262 239.613-188.262v78.887c0 30.187 24.5 54.688 54.688 54.688h437.5zm984.376-847.656c-75.387 0-136.719-61.332-136.719-136.719s61.332-136.719 136.719-136.719 136.719 61.332 136.719 136.719-61.333 136.719-136.719 136.719zm109.374 1394.532h-492.188c-60.32 0-109.375 49.055-109.375 109.375 0 20.672-8.039 40.086-22.641 54.688l-196.109 196.082-196.108-196.083c-14.601-14.602-22.641-34.016-22.641-54.688 0-60.32-49.055-109.375-109.375-109.375h-492.188c-60.32 0-109.375 49.055-109.375 109.375 0 49.875 19.414 96.77 54.688 132.043l218.75 218.75v469.52c0 60.32 49.055 109.375 109.375 109.375h1093.75c60.32 0 109.375-49.055 109.375-109.375v-469.52l218.75-218.75c35.273-35.273 54.688-82.14 54.688-132.043 0-60.32-49.055-109.374-109.376-109.374zm-1640.624 109.374h492.188c0 49.875 19.414 96.77 54.688 132.043l141.395 141.395h-446.879l-218.752-218.75c-14.601-14.602-22.64-34.016-22.64-54.688zm273.437 382.813h492.188v437.5h-492.188zm601.563 437.5v-437.5h492.188l.055 437.5zm742.984-765.625-218.75 218.75h-446.879l141.395-141.395c35.273-35.273 54.688-82.14 54.688-132.043h492.188c-.002 20.672-8.041 40.086-22.642 54.688zm-2657.047-1531.25v109.375c0 60.32 49.055 109.375 109.375 109.375h929.688c60.32 0 109.375-49.055 109.375-109.375v-109.375c0-150.773-122.664-273.438-273.438-273.438h-601.562c-150.774 0-273.438 122.665-273.438 273.438zm109.375 0c0-90.48 73.582-164.062 164.062-164.062h601.562c90.48 0 164.062 73.582 164.062 164.062l.055 109.375h-929.741zm464.844-328.125c211.094 0 382.812-171.719 382.812-382.812s-171.718-382.813-382.812-382.813-382.813 171.719-382.813 382.812 171.719 382.813 382.813 382.813zm0-656.25c150.773 0 273.438 122.664 273.438 273.438s-122.665 273.437-273.438 273.437-273.438-122.664-273.438-273.438 122.664-273.437 273.438-273.437z" fill="url(#SVGID_1_)"/></svg>