<svg id="Layer_1" enable-background="new 0 0 512 512" viewBox="0 0 512 512" xmlns="http://www.w3.org/2000/svg"><g clip-rule="evenodd" fill-rule="evenodd"><g><ellipse cx="149.253" cy="386.599" fill="#ffd6bd" rx="37.418" ry="37.418" transform="matrix(.707 -.707 .707 .707 -229.652 218.77)"/><path d="m149.253 349.181c-1.696 0-3.364.115-5 .334 18.301 2.444 32.418 18.115 32.418 37.085s-14.117 34.64-32.418 37.084c1.636.219 3.304.334 5 .334 20.666 0 37.419-16.753 37.419-37.418 0-20.666-16.753-37.419-37.419-37.419z" fill="#f9c6aa"/><path d="m80.214 491.673c2.677-35.678 32.707-64.043 69.04-64.043s66.363 28.364 69.04 64.043c.212 2.819-1.99 5.191-4.816 5.191h-128.448c-2.827 0-5.027-2.372-4.816-5.191z" fill="#fc685b"/><path d="m144.253 427.811c1.652-.119 3.319-.181 5-.181 36.333 0 66.363 28.364 69.04 64.043.212 2.819-1.99 5.191-4.816 5.191h-10c2.827 0 5.028-2.372 4.816-5.191-2.553-34.027-29.987-61.401-64.04-63.862z" fill="#fb4737"/></g><g><path d="m226.074 491.673c2.677-35.678 32.707-64.043 69.04-64.043s66.363 28.364 69.04 64.043c.211 2.819-1.99 5.191-4.816 5.191h-128.447c-2.827 0-5.028-2.372-4.817-5.191z" fill="#ffda2d"/><path d="m290.114 427.811c1.652-.119 3.319-.181 5-.181 36.333 0 66.363 28.364 69.04 64.043.211 2.819-1.99 5.191-4.816 5.191h-10c2.827 0 5.028-2.372 4.816-5.191-2.554-34.027-29.988-61.401-64.04-63.862z" fill="#ffc700"/><ellipse cx="295.113" cy="386.599" fill="#ffd6bd" rx="37.418" ry="37.418" transform="matrix(.707 -.707 .707 .707 -186.93 321.909)"/><path d="m295.113 349.181c-1.696 0-3.364.115-5 .334 18.301 2.444 32.418 18.115 32.418 37.085s-14.117 34.64-32.418 37.084c1.636.219 3.304.334 5 .334 20.666 0 37.418-16.753 37.418-37.418.001-20.666-16.752-37.419-37.418-37.419z" fill="#f9c6aa"/></g><g><path d="m364.907 491.673c2.677-35.678 32.707-64.043 69.04-64.043s66.363 28.364 69.039 64.043c.212 2.819-1.99 5.191-4.816 5.191h-128.447c-2.826 0-5.027-2.372-4.816-5.191z" fill="#72d561"/><path d="m428.947 427.811c1.652-.119 3.319-.181 5-.181 36.333 0 66.363 28.364 69.039 64.043.212 2.819-1.99 5.191-4.816 5.191h-10c2.826 0 5.028-2.372 4.816-5.191-2.553-34.027-29.987-61.401-64.039-63.862z" fill="#42c345"/><ellipse cx="433.946" cy="386.599" fill="#ffd6bd" rx="37.418" ry="37.418" transform="matrix(.707 -.707 .707 .707 -146.267 420.079)"/><path d="m433.946 349.181c-1.696 0-3.364.115-5 .333 18.301 2.444 32.418 18.115 32.418 37.085s-14.117 34.641-32.418 37.085c1.636.219 3.304.333 5 .333 20.666 0 37.419-16.753 37.419-37.418s-16.753-37.418-37.419-37.418z" fill="#f9c6aa"/></g><g><path d="m167.998 29.714h221.216c4.4 0 8 3.6 8 8v265.822c0 4.4-3.6 8-8 8h-221.216c-4.4 0-8-3.599-8-8v-265.822c0-4.4 3.6-8 8-8z" fill="#b4d2d7"/><path d="m167.998 29.714h221.216c4.4 0 8 3.6 8 8v265.822c0 4.4-3.6 8-8 8h-2v-263.822c0-4.4-3.6-8-8-8h-219.216v-2c0-4.4 3.6-8 8-8z" fill="#a1c6cc"/><path d="m365.7 74.374c4.418 0 8 3.582 8 8s-3.582 8-8 8h-174.188c-4.418 0-8-3.582-8-8s3.582-8 8-8zm2.038 192.583c4.418 0 8 3.582 8 8s-3.582 8-8 8h-178.264c-4.418 0-8-3.582-8-8s3.582-8 8-8zm-28.664-48.146c4.418 0 8 3.582 8 8s-3.582 8-8 8h-120.935c-4.418 0-8-3.582-8-8s3.582-8 8-8zm27.136-48.146c4.418 0 8 3.582 8 8s-3.582 8-8 8h-175.208c-4.418 0-8-3.582-8-8s3.582-8 8-8zm-27.136-48.145c4.418 0 8 3.582 8 8s-3.582 8-8 8h-120.935c-4.418 0-8-3.582-8-8s3.582-8 8-8z" fill="#eff4f7"/><path d="m143.455 15.136h270.302c2.2 0 4 1.8 4 4v21.156c0 2.2-1.8 4-4 4h-270.302c-2.2 0-4-1.8-4-4v-21.156c0-2.2 1.799-4 4-4z" fill="#465759"/><path d="m143.455 15.136h270.302c2.2 0 4 1.8 4 4v6h-264.302c-2.2 0-4 1.8-4 4v15.156h-6c-2.2 0-4-1.8-4-4v-21.156c0-2.2 1.799-4 4-4z" fill="#3e4d4f"/></g><g><path d="m25.866 118.167h49.938c25.803 0 46.997 21.047 46.849 46.849l-.686 119.48c-.019 3.292-2.707 5.965-6 5.965h-81.668c-13.933 0-25.299-11.364-25.299-25.298v-130.13c0-9.29 7.577-16.866 16.866-16.866z" fill="#64b5f6"/><path d="m25.866 118.167h49.938c15.458 0 29.259 7.555 37.811 19.159-7.799-5.751-17.431-9.159-27.811-9.159h-49.938c-9.289 0-16.866 7.576-16.866 16.866v130.131c0 4.405 1.137 8.553 3.131 12.166-7.816-4.314-13.131-12.639-13.131-22.167v-130.13c0-9.29 7.577-16.866 16.866-16.866z" fill="#42a5f5"/><path d="m82.152 196.489c-7.77-2.177-12.304-10.242-10.126-18.011 2.177-7.77 10.242-12.303 18.011-10.126l34.834 9.839 62.756-29.127c7.339-3.406 16.049-.218 19.455 7.121s.218 16.049-7.121 19.455l-67.627 31.388-.016-.036c-3.05 1.417-6.601 1.795-10.094.816z" fill="#ffd6bd"/><path d="m82.152 196.489c-7.77-2.177-12.304-10.242-10.126-18.011.101-.36.215-.712.34-1.058 1.558 4.268 5.078 7.75 9.786 9.069l40.072 11.318c3.492.979 7.044.601 10.094-.816l.016.035 67.627-31.388c3.682-1.709 6.318-4.752 7.602-8.288 2.577 7.072-.649 15.061-7.602 18.288l-67.627 31.388-.016-.036c-3.05 1.417-6.601 1.795-10.094.816z" fill="#f9c6aa"/><ellipse cx="56.321" cy="66.057" fill="#ffd6bd" rx="41.284" ry="41.284" transform="matrix(.707 -.707 .707 .707 -30.213 59.173)"/><path d="m56.321 24.773c22.801 0 41.284 18.483 41.284 41.284 0 22.8-18.483 41.284-41.284 41.284-1.693 0-3.361-.104-5-.302 20.442-2.468 36.284-19.874 36.284-40.982s-15.842-38.513-36.284-40.981c1.639-.199 3.308-.303 5-.303z" fill="#f9c6aa"/></g></g></svg>