<svg id="Layer_1" viewBox="0 0 64 64" xmlns="http://www.w3.org/2000/svg" data-name="Layer 1"><g fill="#0e5952"><path d="m55.18861 54.99997h-.71912c.95374-1.06256 1.53943-2.4621 1.53943-4v-16.67999c-.62.29999-1.29004.50995-2 .59998v16.08002c0 2.20996-1.79004 4-4 4h-36c-2.21002 0-4-1.79004-4-4v-25c0-1.48004.79999-2.77002 2-3.46002v-2.19c-2.33002.81-4 3.04004-4 5.65002v25c0 1.5379.58563 2.93744 1.53943 4-5.5871-.58783-6.26709 7.70789-.71912 8.00006 0-.00006 46.35938-.00006 46.35938-.00006 5.07507-.09161 5.09741-7.90186 0-8zm1.82031 4.17969c0 1.00391-.81641 1.82031-1.82031 1.82031h-46.35937c-2.43158.01025-2.43677-4.00671.00006-4-.00006 0 16.32159 0 16.32159 0 .44714 1.72052 1.99939 3 3.85803 3h6c1.85864 0 3.41089-1.27948 3.85803-3h16.32166c1.1676-.00952 1.95618 1.06207 1.82031 2.17969z"/><path d="m12.00892 27.99997v11c0 2.20996 1.78998 4 4 4h26c2.20996 0 4-1.79004 4-4v-4h-2v4c0 1.09998-.90002 2-2 2h-26c-1.09998 0-2-.90002-2-2v-6.10999c-1.23999-1.26001-2-2.99005-2-4.89001z"/><rect height="8" rx="3" width="12" x="12.009" y="45"/><rect height="8" rx="3" width="12" x="26.009" y="45"/><rect height="8" rx="3" width="12" x="40.009" y="45"/><path d="m51.00892 35.99997c1.31372-.02148 1.31519-1.97833 0-2h-3c-1.31372.02142-1.31519 1.97833 0 2z"/><path d="m48.00892 39.99997h3c1.31372-.02148 1.31519-1.97833 0-2h-3c-1.31372.02142-1.31519 1.97833 0 2z"/></g><path d="m53 1.99997h-34c-2.76141 0-5 2.23859-5 5v20c0 2.76141 2.23859 5 5 5h7.29999l2.20001 4 2.20001-4h22.29999c2.76141 0 5-2.23859 5-5v-20c0-2.76141-2.23859-5-5-5z" fill="#f2be22"/><path d="m28.5 36.99997c-.36426 0-.7002-.19824-.87598-.51758l-1.91504-3.48242h-6.70898c-3.30859 0-6-2.69141-6-6v-20c0-3.30859 2.69141-6 6-6h34c3.30859 0 6 2.69141 6 6v20c0 3.30859-2.69141 6-6 6h-21.70898l-1.91504 3.48242c-.17578.31934-.51172.51758-.87598.51758zm-9.5-34c-2.20605 0-4 1.79395-4 4v20c0 2.20605 1.79395 4 4 4h7.2998c.36426 0 .7002.19824.87598.51758l1.32422 2.40723 1.32422-2.40723c.17578-.31934.51172-.51758.87598-.51758h22.2998c2.20605 0 4-1.79395 4-4v-20c0-2.20605-1.79395-4-4-4z" fill="#0e5952"/><path d="m46.14169 14.75569-14.1127-8.46762c-1.33305-.79983-3.02899.1604-3.02899 1.71499v16.93524c0 1.55459 1.69594 2.51482 3.02899 1.71499l14.1127-8.46762c1.29468-.77681 1.29468-2.65316 0-3.42997z" fill="#0e5952"/></svg>