<svg id="Layer_1" enable-background="new 0 0 512 512" viewBox="0 0 512 512" xmlns="http://www.w3.org/2000/svg"><g clip-rule="evenodd" fill-rule="evenodd"><g><g><path d="m29.344 467.607c2.718-36.227 33.21-65.027 70.101-65.027 36.892 0 67.383 28.8 70.101 65.027.215 2.862-2.02 5.271-4.89 5.271h-130.421c-2.87 0-5.105-2.409-4.891-5.271z" fill="#ffda2d"/><path d="m91.601 403.023c2.577-.29 5.193-.443 7.844-.443 36.892 0 67.383 28.8 70.101 65.027.215 2.862-2.02 5.271-4.89 5.271h-15.689c2.87 0 5.105-2.409 4.89-5.271-2.523-33.624-28.972-60.845-62.256-64.584z" fill="#ffc700"/><circle cx="99.445" cy="360.918" fill="#ffd6bd" r="37.993"/><path d="m70.635 385.685c6.968 8.098 17.29 13.226 28.81 13.226 20.984 0 37.994-17.01 37.994-37.994 0-13.476-7.017-25.313-17.596-32.058 5.723 6.651 9.183 15.305 9.183 24.767 0 20.983-17.01 37.994-37.994 37.994-7.507 0-14.504-2.177-20.397-5.935z" fill="#f9c6aa"/></g><g><path d="m342.441 287.979c2.718-36.227 33.21-65.027 70.101-65.027 36.892 0 67.383 28.8 70.1 65.027.215 2.862-2.02 5.271-4.89 5.271h-130.42c-2.871 0-5.105-2.409-4.891-5.271z" fill="#72d561"/><path d="m404.698 223.395c2.577-.29 5.193-.443 7.844-.443 36.892 0 67.383 28.8 70.1 65.027.215 2.862-2.02 5.271-4.89 5.271h-15.689c2.87 0 5.105-2.409 4.89-5.271-2.522-33.623-28.971-60.845-62.255-64.584z" fill="#42c345"/><circle cx="412.542" cy="181.29" fill="#ffd6bd" r="37.993"/><path d="m383.732 206.057c6.968 8.098 17.29 13.226 28.81 13.226 20.984 0 37.994-17.01 37.994-37.994 0-13.476-7.017-25.313-17.595-32.058 5.723 6.651 9.183 15.305 9.183 24.767 0 20.983-17.01 37.994-37.994 37.994-7.508.001-14.506-2.177-20.398-5.935z" fill="#f9c6aa"/></g><g><path d="m243.149 9.002h-165.708c-6.985 0-12.682 5.697-12.682 12.682v103.835c0 6.985 5.697 12.682 12.682 12.682h94.235l53.696 38.556v-38.556h17.777c6.985 0 12.682-5.697 12.682-12.682v-103.835c0-6.985-5.697-12.682-12.682-12.682z" fill="#64b5f6"/><path d="m243.149 9.002h-165.708c-6.15 0-11.3 4.415-12.444 10.238.791-.156 1.608-.238 2.444-.238h165.708c6.985 0 12.682 5.697 12.682 12.682v103.835c0 .836-.083 1.653-.238 2.444 5.823-1.144 10.238-6.295 10.238-12.444v-103.835c0-6.985-5.697-12.682-12.682-12.682zm-27.777 160.575 10 7.18v-28.556h-10z" fill="#42a5f5"/></g></g><path d="m208.83 235.442h68.143v-51.123c0-4.414 3.579-7.998 7.998-7.998h37.382l-6.404-5.687c-3.306-2.933-3.607-7.988-.665-11.29 2.928-3.306 7.988-3.607 11.289-.674l22.155 19.67c1.721 1.532 2.702 3.73 2.693 6.036-.019 2.306-1.028 4.494-2.778 6.003l-22.423 19.358c-3.348 2.886-8.399 2.518-11.29-.83-2.881-3.344-2.509-8.394.83-11.28l6.149-5.305h-28.941v51.118c0 4.419-3.579 7.998-7.998 7.998h-68.138v51.119c0 4.423-3.584 8.002-8.003 8.002h-76.131c-4.419 0-7.998-3.579-7.998-8.002 0-4.419 3.579-7.998 7.998-7.998h68.133v-51.119c.001-4.419 3.59-7.998 7.999-7.998zm141.93 49.807h123.572c-3.98-30.709-30.492-54.302-61.781-54.302s-57.811 23.594-61.791 54.302zm61.791-133.96c16.538 0 29.987 13.459 29.987 29.997s-13.449 29.997-29.987 29.997-30.002-13.459-30.002-29.997 13.463-29.997 30.002-29.997zm78.078 136.092c-2.376-31.647-23.73-57.947-52.307-68.02 12.199-8.281 20.216-22.258 20.216-38.075 0-25.361-20.627-45.993-45.988-45.993s-46.002 20.631-46.002 45.993c0 15.817 8.036 29.794 20.221 38.075-28.577 10.073-49.93 36.373-52.298 68.02-.269 3.579.971 7.125 3.4 9.747 2.428 2.622 5.88 4.122 9.469 4.122h130.42c3.594 0 7.041-1.5 9.469-4.122 2.434-2.621 3.674-6.168 3.4-9.747zm-58.551 38.259c0 4.419-3.579 7.998-7.998 7.998h-68.142v51.123c0 4.419-3.579 7.998-7.998 7.998h-68.128v51.119c0 4.423-3.594 8.003-7.998 8.003h-68.143v51.119c0 4.419-3.579 8.002-8.003 8.002h-76.14c-4.409 0-7.998-3.584-7.998-8.002 0-4.419 3.589-7.998 7.998-7.998h68.143v-51.123c0-4.419 3.579-7.998 7.998-7.998h68.143v-51.119c0-4.423 3.579-8.003 8.003-8.003h68.129v-51.119c0-4.423 3.579-8.003 7.998-8.003h76.14c4.417 0 7.996 3.58 7.996 8.003zm-394.406 141.067h123.567c-3.975-30.709-30.497-54.297-61.786-54.297-31.294 0-57.801 23.597-61.781 54.297zm61.781-133.946c-16.543 0-29.992 13.449-29.992 29.987 0 16.543 13.449 29.992 29.992 29.992 16.538 0 29.997-13.449 29.997-29.992 0-16.538-13.459-29.987-29.997-29.987zm74.679 145.829c2.429-2.622 3.669-6.173 3.4-9.752-2.372-31.638-23.72-57.938-52.302-68.02 12.19-8.281 20.221-22.249 20.221-38.07 0-25.361-20.641-45.988-45.997-45.988-25.361 0-45.993 20.627-45.993 45.988 0 15.821 8.021 29.789 20.221 38.07-28.591 10.082-49.93 36.382-52.312 68.02-.269 3.579.971 7.13 3.4 9.752 2.428 2.617 5.88 4.117 9.469 4.117h130.423c3.589 0 7.041-1.499 9.47-4.117zm-54.161-408.742c1.019-1.047 2.368-1.575 3.73-1.575 1.306 0 2.608.486 3.617 1.466l12.454 12.134c3.141 3.065 8.167 3.023 11.256-.099l34.892-35.208c2.018-2.033 5.319-2.047 7.347-.024 2.032 2.023 2.042 5.324.014 7.366l-44.083 44.498c-2 2.009-5.277 2.037-7.309.066l-21.82-21.268c-.99-.972-1.551-2.268-1.57-3.659-.018-1.391.501-2.702 1.472-3.697zm10.757 40.089c4.103 3.985 9.441 5.97 14.784 5.97 5.461 0 10.917-2.08 15.048-6.229l44.078-44.493c8.243-8.29 8.201-21.74-.085-29.983-8.295-8.243-21.735-8.21-29.983.08 0 .005-.009.01-.009.01l-29.308 29.582-6.772-6.597c-8.38-8.154-21.829-7.965-29.978.415-3.952 4.06-6.083 9.413-6.003 15.076.08 5.664 2.362 10.954 6.409 14.897zm-57.966-88.255v103.836c0 2.58 2.108 4.683 4.688 4.683h94.23c1.684 0 3.311.523 4.674 1.499l41.027 29.459v-22.961c0-4.419 3.579-7.998 7.998-7.998h17.783c2.58 0 4.678-2.103 4.678-4.683v-103.835c0-2.584-2.098-4.683-4.678-4.683h-165.713c-2.579 0-4.687 2.098-4.687 4.683zm4.687 124.519h91.66l51.6 37.051c1.391.995 3.032 1.504 4.669 1.504 1.254 0 2.504-.292 3.655-.886 2.669-1.368 4.348-4.117 4.348-7.116v-30.553h9.781c11.398 0 20.678-9.281 20.678-20.684v-103.835c0-11.403-9.281-20.683-20.678-20.683h-165.713c-11.408 0-20.688 9.281-20.688 20.683v103.836c0 11.402 9.281 20.683 20.688 20.683z"/></g></svg>