<svg id="Capa_1" enable-background="new 0 0 512 512" height="512" viewBox="0 0 512 512" width="512" xmlns="http://www.w3.org/2000/svg"><g><path d="m5.5 267c0-135.31 109.69-245 245-245s245 109.69 245 245c0 74.156-32.946 140.618-85 185.545-1.732 1.495-318.268 1.495-320 0-52.054-44.927-85-111.389-85-185.545z" fill="#00d1fc"/><path d="m450.5 267c0 110.457-89.543 200-200 200s-200-89.543-200-200 89.543-200 200-200 200 89.543 200 200z" fill="#64dcfc"/><path d="m132.403 77.89c6.613-16.744 30.431-16.744 37.045 0 5.526 13.992 8.563 29.239 8.563 45.195v7.511c0 29.159-10.14 55.949-27.085 77.039-16.945-21.089-27.085-47.88-27.085-77.039v-7.511c-.001-15.956 3.036-31.204 8.562-45.195z" fill="#883f2e"/><path d="m332.854 78.477c6.362-16.355 29.611-16.355 35.973 0 5.38 13.831 8.332 28.875 8.332 44.608v7.511c0 28.717-9.835 55.137-26.319 76.076-16.485-20.939-26.319-47.359-26.319-76.076v-7.511c0-15.733 2.952-30.777 8.333-44.608z" fill="#a44f3e"/><path d="m140.5 208.128c-13.807 0-25-11.193-25-25v-10c0-13.807 11.193-25 25-25 13.807 0 25 11.193 25 25v10c0 13.807-11.193 25-25 25z" fill="#f6a96c"/><path d="m160.5 298.128h42.894c-38.66 0-70 31.34-70 70v114.125c-15.369-8.379-29.741-18.356-42.894-29.708v-84.417c0-38.66 31.34-70 70-70z" fill="#00b327"/><path d="m410.5 368.128v84.417c-42.926 37.049-98.847 59.455-160 59.455-47.757 0-92.322-13.664-130-37.296v-106.576c0-38.66 31.34-70 70-70h150c38.66 0 70 31.34 70 70z" fill="#00c53b"/><path d="m130.5 168.128v20c0 8.178 3.927 15.439 9.998 20-13.806-.001-24.998-11.194-24.998-25v-10c0-13.806 11.192-24.999 24.998-25-6.071 4.561-9.998 11.821-9.998 20zm230-20v-20c0-60.751-49.249-110-110-110-60.751 0-110 49.249-110 110v40c0 50.351 33.83 92.801 80 105.859v40.886c0 16.568 13.431 30 30 30s30-13.431 30-30v-40.886c33.586-9.499 60.641-34.551 72.895-66.883 2.252.666 4.637 1.024 7.105 1.024 13.807 0 25-11.193 25-25v-10c0-13.807-11.193-25-25-25z" fill="#ea9b58"/><path d="m360.5 128.128v40c0 50.792-34.425 93.543-81.216 106.195-9.023 2.44-18.545 2.44-27.568 0-46.791-12.652-81.216-55.403-81.216-106.195v-40c0-55.663 41.345-101.669 95-108.985 53.655 7.315 95 53.321 95 108.985z" fill="#f6a96c"/><path d="m350.659 397.253v93.406c-4.916 2.205-9.918 4.252-15 6.136v-99.542c0-4.142 3.358-7.5 7.5-7.5s7.5 3.357 7.5 7.5zm-192.818-7.5c-4.142 0-7.5 3.358-7.5 7.5v93.406c4.916 2.205 9.918 4.252 15 6.136v-99.542c0-4.143-3.358-7.5-7.5-7.5z" fill="#00b327"/><path d="m182.478 84.123c-.49.817-3.187 3.045-4.074 3.303-5.196 1.509-10.689 2.318-16.372 2.318-11.303 0-21.857-3.201-30.808-8.745 17.192-47.252 62.505-80.999 115.701-80.999h7.149c36 0 68.389 15.455 90.896 40.092 5.125 5.61-.813 3.748-3.069 2.45-17.239-9.927-37.235-15.605-58.556-15.605-42.845-.001-80.334 22.929-100.867 57.186z" fill="#883f2e"/><path d="m228.945 128.538c2.929 2.929 2.929 7.678 0 10.606-2.93 2.93-7.677 2.929-10.607.001-4.874-4.873-12.804-4.873-17.678 0-2.929 2.929-7.678 2.928-10.607-.001s-2.928-7.678 0-10.606c5.361-5.36 12.403-8.041 19.445-8.041s14.086 2.681 19.447 8.041zm82 0c-5.361-5.36-12.403-8.041-19.445-8.041s-14.084 2.681-19.445 8.041c-2.929 2.929-2.929 7.678 0 10.606 2.929 2.929 7.678 2.93 10.607.001 4.874-4.873 12.804-4.873 17.678 0 2.93 2.928 7.677 2.929 10.607-.001 2.928-2.928 2.927-7.677-.002-10.606z" fill="#a44f3e"/><path d="m146.073 438.162 29.321-29.321c4.393-4.393 11.516-4.393 15.91 0l.879.879c4.393 4.393 4.393 11.517 0 15.91l-29.321 29.321c-2.603 2.603-6.825 2.603-9.428 0l-7.361-7.361c-2.604-2.603-2.604-6.824 0-9.428zm192.065 16.789-29.321-29.321c-4.393-4.393-4.393-11.517 0-15.91l.879-.879c4.393-4.393 11.516-4.393 15.91 0l29.321 29.321c2.603 2.603 2.603 6.825 0 9.428l-7.361 7.361c-2.603 2.604-6.824 2.604-9.428 0z" fill="#d88a55"/><path d="m229.5 512h-24c-8.284 0-15-6.716-15-15v-160c0-8.284 6.716-15 15-15h24c8.284 0 15 6.716 15 15v160c0 8.284-6.716 15-15 15z" fill="#444"/><path d="m295.5 512h-66c-8.284 0-15-6.716-15-15v-160c0-8.284 6.716-15 15-15h66c8.284 0 15 6.716 15 15v160c0 8.284-6.716 15-15 15z" fill="#595959"/><path d="m224.5 352c0 5.523-4.477 10-10 10s-10-4.477-10-10 4.477-10 10-10 10 4.477 10 10zm-10 20c-5.523 0-10 4.477-10 10s4.477 10 10 10 10-4.477 10-10-4.477-10-10-10zm30-30c-5.523 0-10 4.477-10 10s4.477 10 10 10 10-4.477 10-10-4.477-10-10-10z" fill="#848484"/><path d="m427.394 289.106h-28.213c-19.33 0-35-15.67-35-35 0-19.33 15.67-35 35-35h28.213c19.33 0 35 15.67 35 35 0 19.33-15.67 35-35 35z" fill="#ff5426"/><path d="m471.5 289.106h-39.128c-19.33 0-35-15.67-35-35 0-19.33 15.67-35 35-35h39.128c19.33 0 35 15.67 35 35 0 19.33-15.67 35-35 35z" fill="#ff6930"/><path d="m186.309 170.319c0 8.284-6.716 15-15 15s-15-6.716-15-15 6.716-15 15-15 15 6.716 15 15zm143.382-15c-8.284 0-15 6.716-15 15s6.716 15 15 15 15-6.716 15-15-6.715-15-15-15zm-93.691 19.54c-2.929-2.93-2.929-7.678 0-10.607 2.929-2.928 7.678-2.928 10.606 0 1.042 1.042 2.424 1.616 3.893 1.616s2.851-.574 3.893-1.616c2.929-2.928 7.678-2.928 10.606 0 2.929 2.93 2.929 7.678 0 10.607-3.875 3.875-9.024 6.009-14.5 6.009s-10.623-2.134-14.498-6.009z" fill="#d88a55"/><path d="m280.5 208.128c0 14.257-9.945 26.191-23.277 29.243-1.314.301-2.685.301-4 0-13.331-3.052-23.277-14.986-23.277-29.243 0-4.142 3.358-7.5 7.5-7.5h35.554c4.142 0 7.5 3.357 7.5 7.5z" fill="#fff5f5"/><path d="m258 237.182c-2.397.617-4.91.945-7.5.945-16.568 0-30-13.431-30-30 0-4.142 3.358-7.5 7.5-7.5h15c-4.142 0-7.5 3.358-7.5 7.5 0 13.979 9.561 25.725 22.5 29.055z" fill="#e7e7e7"/><path d="m335.479 350h-25.979c-19.33 0-35-15.67-35-35 0-19.33 15.67-35 35-35h25.979c19.33 0 35 15.67 35 35 0 19.33-15.67 35-35 35z" fill="#e7e7e7"/><path d="m389.5 350h-53.979c-19.33 0-35-15.67-35-35 0-19.33 15.67-35 35-35h53.979c19.33 0 35 15.67 35 35 0 19.33-15.67 35-35 35z" fill="#fff5f5"/><path d="m299.5 270h-10c-8.284 0-15-6.716-15-15 0-8.284 6.716-15 15-15h10c8.284 0 15 6.716 15 15 0 8.284-6.716 15-15 15z" fill="#fff5f5"/><path d="m369.776 80.999c-8.951 5.544-19.505 8.745-30.808 8.745-17.19 0-32.65-7.403-43.367-19.195-5.69-6.26-14.613-8.555-22.411-5.276-6.979 2.934-14.645 4.556-22.69 4.556s-15.712-1.622-22.69-4.556c-7.798-3.279-16.722-.984-22.411 5.276-7.174 7.894-16.474 13.82-26.995 16.877 16.181-40.603 55.851-69.299 102.224-69.299 22.569 0 43.551 6.797 61.01 18.456 12.334 12.486 22.018 27.595 28.138 44.416z" fill="#a44f3e"/><path d="m359.5 315c0 5.523-4.477 10-10 10s-10-4.477-10-10 4.477-10 10-10 10 4.477 10 10zm-40.83-10c-5.523 0-10 4.477-10 10s4.477 10 10 10 10-4.477 10-10-4.477-10-10-10zm61.66 0c-5.523 0-10 4.477-10 10s4.477 10 10 10 10-4.477 10-10-4.477-10-10-10z" fill="#ff6930"/><path d="m445.34 254.106c0 5.523-4.477 10-10 10s-10-4.477-10-10 4.477-10 10-10 10 4.478 10 10zm-40.829-10c-5.523 0-10 4.477-10 10s4.477 10 10 10 10-4.477 10-10c0-5.522-4.478-10-10-10zm61.659 0c-5.523 0-10 4.477-10 10s4.477 10 10 10 10-4.477 10-10c0-5.522-4.477-10-10-10z" fill="#fff5f5"/><path d="m160.518 467c0 24.853-20.147 45-45 45s-45-20.147-45-45 20.147-45 45-45 45 20.147 45 45zm224.964-45c24.853 0 45 20.147 45 45s-20.147 45-45 45-45-20.147-45-45 20.148-45 45-45z" fill="#00b327"/><path d="m217.519 441.641c-1.576 1.904-1.576 4.608 0 6.512 1.612 1.946 2.58 4.444 2.58 7.169v1.243c0 2.725-.969 5.223-2.58 7.169-1.576 1.904-1.576 4.608 0 6.512 1.612 1.946 2.58 4.444 2.58 7.169v1.243c0 2.725-.969 5.223-2.58 7.169-1.576 1.904-1.576 4.608 0 6.512 1.186 1.432 2.023 3.162 2.383 5.061.129.683-.7 1.387-.7 2.108v1.243c0 6.213-5.106 9.952-11.319 9.952l-37.915-.766c-9.995 0-17.82-4.074-24-10.979l-16.213-.511c-13.98 0-26.199-6.196-31.323-18.31-1.708-4.038-2.652-8.477-2.652-13.137 0-18.64 15.11-33.75 33.75-33.75h15.288c6.18-6.904 15.16-11.25 25.155-11.25h8.874c.177-.014.355-.021.536-.021h29.466c6.213 0 11.25 5.037 11.25 11.25v1.243c0 2.724-.968 5.222-2.58 7.169zm63.382-7.169v-1.243c0-6.213 5.037-11.25 11.25-11.25h29.466c.18 0 .359.007.536.021h8.874c9.995 0 18.976 4.346 25.155 11.25h15.288c18.64 0 33.75 15.11 33.75 33.75 0 4.66-.944 9.099-2.652 13.137-5.124 12.113-17.343 18.31-31.323 18.31l-16.213.511c-6.18 6.904-14.005 10.979-24 10.979l-37.915.766c-6.213 0-11.319-3.739-11.319-9.952v-1.243c0-.72-.83-1.425-.7-2.108.36-1.899 1.198-3.63 2.383-5.061 1.576-1.904 1.576-4.608 0-6.512-1.612-1.946-2.58-4.444-2.58-7.169v-1.243c0-2.725.969-5.223 2.58-7.169 1.576-1.904 1.576-4.608 0-6.512-1.612-1.946-2.58-4.444-2.58-7.169v-1.243c0-2.725.969-5.223 2.58-7.169 1.576-1.904 1.576-4.608 0-6.512-1.612-1.947-2.58-4.445-2.58-7.169z" fill="#ea9b58"/><path d="m219.902 497.399c.13.683.198 1.387.198 2.107v1.243c0 6.213-5.037 11.25-11.25 11.25h-38.876c-9.995 0-18.976-4.346-25.155-11.25h-15.289c-14.545 0-26.941-9.201-31.685-22.101 5.858 4.897 13.401 7.845 21.634 7.845h27.328c3.719 0 7.283 1.354 10.169 3.701 5.805 4.72 13.21 7.549 21.275 7.549h38.876c.957.002 1.887-.118 2.775-.344zm63.972.346h38.876c8.065 0 15.47-2.829 21.275-7.549 2.886-2.346 6.449-3.701 10.169-3.701h27.328c8.233 0 15.776-2.948 21.634-7.845-4.744 12.899-17.14 22.101-31.685 22.101h-15.288c-6.18 6.904-15.16 11.25-25.155 11.25h-38.876c-6.213 0-11.25-5.037-11.25-11.25v-1.243c0-.721.068-1.425.198-2.107.886.224 1.816.344 2.774.344z" fill="#d88a55"/></g></svg>