<svg id="Capa_1" enable-background="new 0 0 512 512" height="512" viewBox="0 0 512 512" width="512" xmlns="http://www.w3.org/2000/svg"><g><path d="m62.14 179.924c41.641.006 41.631 75.7-.01 75.695-22.946 3.278-43.605-14.541-43.605-37.852-.001-23.254 20.579-41.115 43.615-37.843z" fill="#ffb09e"/><path d="m441.235 217.766c0 22.74-19.697 40.476-42.451 38.003-35.041 0-35.041-75.996 0-75.996 22.72-2.469 42.451 15.225 42.451 37.993z" fill="#ffcebf"/><path d="m314.957 362.639c-51.773-26.383-116.962-26.39-168.96 0-48.274 28.816-80.604 81.558-80.604 141.861h131.198 67.773 131.198c0-60.303-32.341-113.055-80.605-141.861z" fill="#4e3a65"/><path d="m255.679 423.163-.01.01-10.131 28.615c-9.516 18.073-19.557 18.073-30.121 0l-10.131-28.615-.01-.01c-5.825-22.866 3.472-35.705 25.201-40.302 23.102 5.797 32.658 18.631 25.202 40.302z" fill="#d1d1ef"/><path d="m314.957 362.639-23.705 48.937c-6.868 14.167-23.424 18.043-35.573 11.587-4.508-2.39-8.404-6.205-10.984-11.436l-14.217-28.866c.003-53.777 84.479-57.833 84.479-20.222z" fill="#edebfd"/><path d="m230.477 382.861-14.217 28.866c-2.58 5.231-6.476 9.046-10.984 11.436-12.149 6.456-28.706 2.58-35.573-11.587l-23.705-48.937c-.001-40.121 84.474-29.243 84.479 20.222z" fill="#edebfd"/><path d="m245.538 451.788 18.826 52.712h-67.773l18.826-52.712z" fill="#bfbfe4"/><path d="m389.256 284.344c16.689-37.717 17.701-80.634 6.115-117.011-36.332-54.222-132.917-75.623-213.412-64.209-137.289 44.861-98.132 255.288 48.625 279.736 18.336-.01 35.991-2.599 52.566-7.459 53.062-17.331 89.301-47.124 106.106-91.057z" fill="#ffdfcf"/><path d="m155.055 212.638c0-40.058 9.828-77.524 26.904-109.514-52.507 7.446-98.17 28.852-115.793 64.229l-.532-.171c-5.012 15.638-7.751 32.713-7.751 50.584 0 95.949 77.938 165.094 172.595 165.094.035 0 .071-.001.106-.001-45.859-38.794-75.529-100.599-75.529-170.221z" fill="#ffcebf"/><path d="m389.532 449.988c59.964-.593 103.944-39.482 103.944-82.82 0-41.111-38.13-75.237-88.127-81.718-105.151 11.382-113.853 138.653-31.743 169.576.48-.289.959-.559 1.439-.861 4.333-2.733 9.365-4.127 14.487-4.177z" fill="#00da77"/><path d="m405.349 285.449c-66.056-8.563-122.722 31.932-122.722 81.718 0 23.88 12.823 44.643 31.578 59.111 3.528 2.721 4.28 7.767 1.715 11.41-1.021 1.45-2.078 2.865-3.172 4.23-7.611 9.478-1.627 23.555 10.482 24.599 14.643 1.255 32.567-.745 50.376-11.492-27.225-53.916-12.817-129.959 31.743-169.576z" fill="#00c344"/><path d="m395.371 167.333c-53.144 1.958-85.323-19.639-103.436-39.258-21.189-27.932 18.509-61.169 50.001-37.722 24.8 19.629 43.595 46.026 53.435 76.98z" fill="#df6d2b"/><path d="m116.619 92.291c35.65-25.553 69.62 19.796 39.358 47.923-19.137 15.302-47.933 28.555-89.811 27.139l-.532-.171c9.528-29.89 27.41-55.513 50.985-74.891z" fill="#bb521d"/><path d="m291.935 128.075c33.938-13.599 64.048-36.127 50.483-70.082-8.703-21.795-38.271-34.747-70.534-42.067-116.832-11.438-175.506 74.427-106.686 127.753 8.999 2.818 18.792 4.306 29.043 4.306 21.326 0 63.325-6.134 97.694-19.91z" fill="#f68953"/><path d="m271.884 15.926c-27.737-6.294-57.466-8.426-77.643-8.426-43.646 0-79.028 26.597-79.028 70.243 0 33.421 20.753 56.782 49.985 65.937 17.602-57.932 56.762-104.569 106.686-127.754z" fill="#df6d2b"/><path d="m310.439 216.531c16.296 0 29.509 10.522 29.509 23.505 0 12.972-13.213 23.495-29.509 23.495s-29.499-10.522-29.499-23.495c0-12.982 13.203-23.505 29.499-23.505z" fill="#ffa1ac"/><path d="m230.477 205.898c13.143 0 23.786 1.376 23.786 16.085 0 14.699-10.643 26.617-23.786 26.617s-23.786-11.918-23.786-26.617c.001-14.709 10.643-16.085 23.786-16.085z" fill="#334151"/><path d="m150.516 216.531c16.296 0 29.499 10.522 29.499 23.505 0 12.972-13.203 23.495-29.499 23.495s-29.509-10.522-29.509-23.495c0-12.982 13.213-23.505 29.509-23.505z" fill="#ffa1ac"/><path d="m155.445 219.482c4.143 0 7.5-3.357 7.5-7.5v-12.048c0-4.143-3.357-7.5-7.5-7.5s-7.5 3.357-7.5 7.5v12.048c0 4.143 3.358 7.5 7.5 7.5z"/><path d="m230.478 256.101c17.251 0 31.285-15.305 31.285-34.117 0-23.585-21.924-23.585-31.285-23.585-9.362 0-31.286 0-31.286 23.585-.001 18.812 14.035 34.117 31.286 34.117zm0-42.703c15.627 0 16.285 2.632 16.285 8.585 0 10.541-7.306 19.117-16.285 19.117-8.98 0-16.286-8.576-16.286-19.117-.001-5.953.658-8.585 16.286-8.585z"/><path d="m305.509 219.482c4.143 0 7.5-3.357 7.5-7.5v-12.048c0-4.143-3.357-7.5-7.5-7.5s-7.5 3.357-7.5 7.5v12.048c0 4.143 3.357 7.5 7.5 7.5z"/><path d="m440.764 337.076h-105.425c-4.143 0-7.5 3.357-7.5 7.5s3.357 7.5 7.5 7.5h105.425c4.143 0 7.5-3.357 7.5-7.5s-3.358-7.5-7.5-7.5z"/><path d="m440.764 382.258h-105.425c-4.143 0-7.5 3.357-7.5 7.5s3.357 7.5 7.5 7.5h105.425c4.143 0 7.5-3.357 7.5-7.5s-3.358-7.5-7.5-7.5z"/><path d="m500.976 367.167c0-24.294-11.833-47.068-33.318-64.131-18.367-14.584-42.02-23.528-67.502-25.684 1.671-4.557 3.144-9.196 4.417-13.891 24.491-.827 44.164-20.999 44.164-45.694 0-24.687-19.668-44.853-44.154-45.685-9.035-33.356-27.861-62.226-53.622-84.02 3.506-10.394 2.993-21.415-1.576-32.85-17.776-44.515-107.757-55.212-155.144-55.212-7.952 0-15.753.833-23.185 2.476-4.045.894-6.599 4.897-5.705 8.941.894 4.046 4.897 6.595 8.941 5.705 6.372-1.408 13.084-2.122 19.949-2.122 49.415 0 127.801 12.19 141.212 45.775 3.812 9.54 3.728 18.137-.258 26.288-17.139 35.107-102.513 53.422-140.954 53.422-39.254 0-71.527-23.143-71.527-62.743 0-19.681 7.858-36.131 22.726-47.57 3.283-2.526 3.896-7.235 1.371-10.518-2.525-3.281-7.234-3.897-10.518-1.371-22.265 17.132-31.591 43.871-27.769 71.053-24.572 21.268-43.16 49.541-52.14 82.715-25.044.197-45.359 20.625-45.359 45.715 0 25.098 20.32 45.531 45.368 45.724 11.227 41.284 38.102 76.795 75.184 99.581-45.811 32.113-73.684 84.409-73.684 141.429 0 4.143 3.357 7.5 7.5 7.5h241.834c4.143 0 7.5-3.357 7.5-7.5s-3.357-7.5-7.5-7.5h-37.577l-16.151-45.223 6.721-18.985c13.277 3.095 27.411-1.932 35.347-13.717 4.305 4.917 9.207 9.473 14.686 13.628-1.118 1.62-2.238 3.13-3.354 4.521-11.342 14.128-2.395 35.206 15.69 36.768 20.769 1.78 41.047-3.13 58.778-15.014 3.719 12.331 5.914 25.065 6.519 38.023h-45.52c-4.143 0-7.5 3.357-7.5 7.5s3.357 7.5 7.5 7.5h53.194c4.143 0 7.5-3.357 7.5-7.5 0-16.099-2.206-31.948-6.559-47.252 58.337-3.47 104.475-42.546 104.475-90.082zm-67.241-149.4c0 15.252-11.167 27.94-25.75 30.325 1.716-9.894 2.587-20.056 2.587-30.325 0-10.267-.872-20.427-2.588-30.318 14.608 2.382 25.751 15.069 25.751 30.318zm-89.965-116.073c18.202 16.072 32.184 35.922 40.981 58.201-37.999-.934-63.436-14.976-79.618-29.372 17.724-8.318 30.66-17.973 38.637-28.829zm-231.051 4.077c5.542 14.539 15.529 26.652 29.149 35.345-18.557 11.907-40.564 18.214-65.672 18.796 8.055-20.407 20.486-38.834 36.523-54.141zm-86.695 111.996c0-15.674 11.8-28.635 26.981-30.489-1.737 9.945-2.623 20.162-2.623 30.489 0 10.316.884 20.536 2.62 30.497-15.179-1.856-26.978-14.82-26.978-30.497zm39.359 0c0-15.249 2.099-29.66 5.763-42.828 31.468.203 60.919-7.508 85.962-26.136 11.304 4.378 24.04 6.683 37.133 6.683 19.051 0 59.474-5.005 95.747-18.618 26.513 26.455 61.507 38.31 99.824 38.08 3.797 13.63 5.76 28.082 5.76 42.82 0 21.47-4.121 41.357-11.314 59.124-60.517 1.607-109.131 41.483-109.131 90.276 0 .882.02 1.762.051 2.639-14.419 3.685-29.426 5.554-44.701 5.554-91.785-.001-165.094-67.209-165.094-157.594zm174.854 226.521h-19.519l-6.442-18.195c3.598-2.976 6.568-6.704 8.712-11.053l7.489-15.205 7.49 15.209c2.144 4.346 5.114 8.074 8.711 11.049zm-30.704-35.879c-6.791 13.772-26.381 13.718-33.08-.103l-14.748-30.445c17.967 6.834 37.213 10.956 56.895 12.138zm-66.616-34.926 20.037 41.364c7.127 14.704 22.933 21.406 37.781 17.945l6.721 18.985-16.151 45.223h-118.231c2.402-49.642 28.533-95.806 69.843-123.517zm64.316 123.517 13.469-37.712h19.551l13.468 37.712zm66.559-79.236c-8.399 2.741-18.035-.564-22.369-9.351l-9.067-18.411c11.867-.703 23.544-2.462 34.903-5.257 1.766 7.221 4.628 14.203 8.552 20.864-.836 1.064-2.783 9.141-12.019 12.155zm114.26 24.737c-1.969 0-3.733-.036-6.39-.162-1.752-.087-3.482.451-4.883 1.511-15.542 11.759-33.347 16.869-52.904 15.195-6.133-.529-9.144-7.619-5.275-12.436 2.794-3.483 5.576-7.539 8.271-12.053 2.058-3.447 1.035-7.903-2.318-10.109-19.879-13.077-34.425-33.296-34.425-57.28 0-39.766 41.611-75.333 98.077-75.333.733 0 .905.01 1.057.011 53.335.493 96.715 34.271 96.715 75.322-.001 41.539-43.93 75.334-97.925 75.334z"/></g></svg>