<svg id="Layer_1" viewBox="0 0 512 512" xmlns="http://www.w3.org/2000/svg" data-name="Layer 1"><path d="m357 45.44s25-48.78 80.17-3.72 28.83 219.87 7.77 257.94-59.49 67.6-93.37 64.49c0 0 27.49-24.43 29.82-77.87s-48.62-199.05-24.39-240.84z" fill="#352120"/><ellipse cx="396.9" cy="97.12" fill="#fc6c54" rx="28.37" ry="35.74"/><path d="m116.07 108s-35.23 96.86 26.41 110.33 30.52-110.33 30.52-110.33z" fill="#352120"/><path d="m318.72 483.85h-121.23c2.09-21.26 5.23-53 8.38-85.09 3.31-33.66 6.65-67.63 8.85-90h98.66l1.76 57.46c1.3 42.95 2.86 94.32 3.58 117.63z" fill="#feb4a9"/><path d="m474.06 512h-436.12a90.21 90.21 0 0 1 65.79-86.83l89.7-23.17 12.44-3.21c-7.81 65.87-3.35 74.9 34.08 76.21 52.32 0 74.41-28.28 76.18-76.21l7.3 2.09 84.79 24.3a90.21 90.21 0 0 1 65.84 86.82z" fill="#2a7868"/><path d="m315.14 366.24c-26.58 21.9-59.18 35-90.75 35a71 71 0 0 1 -18.52-2.48c3.31-33.66 6.65-67.63 8.85-90h98.66z" fill="#f47d71"/><path d="m373.05 215.21c0 84.74-77 152.28-148.65 152.28-55.94 0-104.72-66.84-104.72-151.59s52-146.75 123.62-146.75 129.75 61.31 129.75 146.06z" fill="#feb4a9"/><path d="m199.91 219.17-23.32 38.22 31.12 8.82" fill="none" stroke="#f47d71" stroke-linecap="round" stroke-linejoin="round" stroke-width="7.91"/><ellipse cx="170.34" cy="201.4" fill="#352120" rx="11.69" ry="17.77"/><ellipse cx="269.79" cy="201.4" fill="#352120" rx="11.69" ry="17.77"/><g fill="none" stroke-linecap="round" stroke-linejoin="round"><path d="m135.26 157.14c18.23-8.49 34.39-7.19 48.21 5.18" stroke="#352120" stroke-width="6.78"/><path d="m247.57 157.14c18.23-8.49 34.39-7.19 48.2 5.18" stroke="#352120" stroke-width="6.78"/><path d="m192.66 295.32s25.15 3.23 54.81-8.78" stroke="#f44945" stroke-width="6.78"/></g><path d="m201.1 303.21a15.18 15.18 0 0 1 2.79-.69c.94-.16 1.87-.27 2.79-.34 1.86-.15 3.69-.13 5.53-.17l5.53-.11c1.87 0 3.71-.09 5.67 0h.25a3.49 3.49 0 0 1 3.33 3.64 3.53 3.53 0 0 1 -1.74 2.87 26.35 26.35 0 0 1 -6.07 2.53 33.66 33.66 0 0 1 -6.42 1.15 27.55 27.55 0 0 1 -6.48-.08 19.84 19.84 0 0 1 -3.19-.72 15.72 15.72 0 0 1 -3.18-1.42 3.57 3.57 0 0 1 -1.27-4.89 3.53 3.53 0 0 1 1.75-1.5z" fill="#f44945"/><path d="m304.08 101.26s-6.37 116 49.73 117.06c0 0 20.53 36.7-5.53 77.39 0 0 61.94-24.85 77.52-112.08 15.02-84.08-32.63-172.31-124.8-172.31-114.16 0-128 62.49-128 62.49z" fill="#543838"/><path d="m340.86 55.62s-29.81 70.55-121.6 84.29-6.72-13.4 0-25.12-91.91 39.8-147.37 42.21c0 0-20.13-63.44 36.46-119.82s170.46-47.42 232.51 18.44z" fill="#543838"/><path d="m410.25 213.79c0 24.29-19.11 46.1-39.65 46.1s-34.75-21.81-34.75-46.1 16.66-41.88 37.2-41.88 37.2 17.58 37.2 41.88z" fill="#feb4a9"/><path d="m388.48 200.38c-6.33-16.11-31.86-2.44-30.17 25.41" fill="none" stroke="#f47d71" stroke-linecap="round" stroke-linejoin="round" stroke-width="5.65"/><path d="m360.56 209.89s17.29 2 16.76 16.08-13.61 12.67-13.61 12.67" fill="none" stroke="#f47d71" stroke-linecap="round" stroke-linejoin="round" stroke-width="5.65"/></svg>