<svg id="Layer_2" height="512" viewBox="0 0 512 512" width="512" xmlns="http://www.w3.org/2000/svg" xmlns:xlink="http://www.w3.org/1999/xlink" data-name="Layer 2"><linearGradient id="linear-gradient" gradientUnits="userSpaceOnUse" x1="43.93" x2="468.07" y1="43.93" y2="468.07"><stop offset="0" stop-color="#64b5f6"/><stop offset="1" stop-color="#1976d2"/></linearGradient><linearGradient id="linear-gradient-2" gradientUnits="userSpaceOnUse" x1="159.69" x2="430.06" y1="235.7" y2="506.07"><stop offset="0" stop-opacity=".35"/><stop offset="1" stop-opacity="0"/></linearGradient><g id="Icon"><g id="UserPen"><rect fill="url(#linear-gradient)" height="512" rx="150" width="512"/><path d="m512 348.71v13.29c0 82.84-67.16 150-150 150h-165.32l-111.97-111.98 146.76-103.54-66.28-66.28 105.38-105.37 134.3 134.3 25.49 7.94z" fill="url(#linear-gradient-2)"/><path id="UserPen-2" d="m330.34 286.63-61.87 61.87c-3.35 3.35-5.54 7.78-6.16 12.48l-4.99 37.55c-.46 3.44-.08 6.89 1.06 10.08h-153.11c-19.59 0-33.5-19.07-27.53-37.73l23.8-74.29c7.63-23.81 33.74-36.2 57.05-27.16 15.46 6 35.35 10.72 59.66 10.72s44.2-4.72 59.66-10.72c19.79-7.67 41.61.09 52.41 17.2zm-112.07-183.24c-41.15 0-74.52 33.36-74.52 74.52s33.36 74.52 74.52 74.52 74.52-33.36 74.52-74.52-33.36-74.52-74.52-74.52zm143.82 171.94-83.39 83.39c-1.13 1.12-1.84 2.58-2.05 4.16l-4.99 37.55c-.63 4.72 3.4 8.74 8.12 8.12l37.55-4.99c1.57-.21 3.04-.93 4.16-2.05l83.39-83.39-42.78-42.78zm68.28-8.26-17.24-17.24c-7.05-7.06-18.49-7.06-25.55 0l-10.65 10.65 42.78 42.78 10.65-10.65c7.05-7.05 7.05-18.49 0-25.55z" fill="#fff" data-name="UserPen"/></g></g></svg>