<svg id="Layer_1" height="512" viewBox="0 0 512 512" width="512" xmlns="http://www.w3.org/2000/svg" data-name="Layer 1"><path d="m256 0c141.385 0 256 114.615 256 256s-114.615 256-256 256-256-114.615-256-256 114.615-256 256-256zm-25.993 290.7a10.156 10.156 0 0 0 6.993 3.493c.236 0 .463.045.7.045a10.149 10.149 0 0 0 6.7-2.539l63.957-56.139a10.145 10.145 0 1 0 -13.4-15.236l-56.257 49.337-20.651-23.9a10.159 10.159 0 0 0 -15.372 13.287zm25.993-105.928a71.24 71.24 0 1 0 71.253 71.239 71.3 71.3 0 0 0 -71.253-71.239zm0 162.794a91.555 91.555 0 1 0 -91.559-91.555 91.671 91.671 0 0 0 91.559 91.555zm-139.908-96.316a7.837 7.837 0 0 0 -2.281 5.532 7.687 7.687 0 0 0 2.281 5.533l14.008 14.012a27.9 27.9 0 0 1 7.284 27.207l-4.916 18.321a7.8 7.8 0 0 0 5.532 9.568l19.14 5.124a27.827 27.827 0 0 1 19.894 19.907l4.92 18.365a7.705 7.705 0 0 0 3.65 4.717 7.976 7.976 0 0 0 5.927.816l19.141-5.17a29.67 29.67 0 0 1 7.405-.952 27.77 27.77 0 0 1 19.767 8.253l13.427 13.423a7.855 7.855 0 0 0 11.064 0l14.008-14.013a27.9 27.9 0 0 1 27.176-7.255l18.343 4.9a7.578 7.578 0 0 0 5.927-.817 7.739 7.739 0 0 0 3.65-4.716l5.129-19.136a27.834 27.834 0 0 1 19.893-19.907l18.347-4.9a7.826 7.826 0 0 0 4.735-3.673 7.684 7.684 0 0 0 .793-5.895l-5.136-19.136a27.9 27.9 0 0 1 7.283-27.208l13.432-13.423a7.871 7.871 0 0 0 0-11.064l-14.012-14.012a27.808 27.808 0 0 1 -7.288-27.163l4.921-18.365a7.844 7.844 0 0 0 -5.536-9.568l-19.137-5.124a27.852 27.852 0 0 1 -19.893-19.908l-4.91-18.323a7.985 7.985 0 0 0 -3.651-4.761 7.76 7.76 0 0 0 -5.931-.771l-19.136 5.124a27.9 27.9 0 0 1 -27.176-7.255l-13.432-13.468a7.844 7.844 0 0 0 -11.055 0l-14.013 14.012a27.828 27.828 0 0 1 -27.18 7.3l-18.339-4.9a7.811 7.811 0 0 0 -9.577 5.533l-5.128 19.136a27.86 27.86 0 0 1 -19.894 19.862l-18.342 4.943a7.821 7.821 0 0 0 -5.533 9.568l5.129 19.136a27.808 27.808 0 0 1 -7.287 27.162zm-.358 39.451a7.47 7.47 0 0 1 2.027 7.573l-4.911 18.326a28.171 28.171 0 0 0 19.889 34.463l19.141 5.124a7.448 7.448 0 0 1 5.527 5.532l4.92 18.366a28.158 28.158 0 0 0 34.455 19.862l19.141-5.125a7.451 7.451 0 0 1 7.55 2.041l13.427 13.417a28.212 28.212 0 0 0 39.787 0l14.013-14.011a7.448 7.448 0 0 1 7.55-2.041l18.347 4.943a28.231 28.231 0 0 0 34.454-19.908l5.129-19.136a7.464 7.464 0 0 1 5.528-5.532l18.347-4.9a28.219 28.219 0 0 0 19.894-34.464l-5.125-19.131a7.486 7.486 0 0 1 2.027-7.573l13.422-13.427a28.146 28.146 0 0 0 0-39.769l-14.007-14.012a7.513 7.513 0 0 1 -2.027-7.573l4.92-18.32a28.157 28.157 0 0 0 -19.894-34.463l-19.14-5.17a7.34 7.34 0 0 1 -5.533-5.486l-4.915-18.366a28.231 28.231 0 0 0 -34.454-19.907l-19.137 5.124a7.443 7.443 0 0 1 -7.559-1.995l-13.427-13.421a28.159 28.159 0 0 0 -39.787 0l-14.008 14.013a7.44 7.44 0 0 1 -7.555 2l-18.347-4.9a28.133 28.133 0 0 0 -34.454 19.908l-5.129 19.137a7.462 7.462 0 0 1 -5.536 5.532l-18.339 4.9a28.148 28.148 0 0 0 -19.889 34.464l5.124 19.136a7.511 7.511 0 0 1 -2.022 7.573l-13.432 13.423a28.149 28.149 0 0 0 0 39.769z" fill="#5eac24" fill-rule="evenodd"/></svg>