<svg id="Layer_1" viewBox="0 0 64 64" xmlns="http://www.w3.org/2000/svg" data-name="Layer 1"><path d="m53.707 17.083-14.29-14.29a1 1 0 0 0 -.707-.293h-24.71a4 4 0 0 0 -4 4v50a4 4 0 0 0 4 4h36a4 4 0 0 0 4-4v-38.71a1 1 0 0 0 -.293-.707z" fill="#ededed"/><path d="m53.707 17.083-14.29-14.29a1 1 0 0 0 -1.707.707v11.29a4 4 0 0 0 4 4h11.29a1 1 0 0 0 .707-1.707z" fill="#c6c6c6"/><path d="m53 43.393h-22.914l-2.4-2.745a2 2 0 0 0 -1.505-.683h-15.181a2 2 0 0 0 -2 2v14.535a5.006 5.006 0 0 0 5 5h36a5.006 5.006 0 0 0 5-5v-11.107a2 2 0 0 0 -2-2z" fill="#008d36"/><path d="m39.234 20.955-6.234 3.599v-7.2l-8.234-4.754-8.235 4.755v9.508l8.235 4.755 6.234-3.599v7.2l8.234 4.755 8.235-4.755v-9.509zm5.235 5.332-5.227 3.022-5.242-3.024 5.232-3.021zm-14.469-8.355-5.227 3.023-5.24-3.025 5.233-3.02zm-11.469 1.729 5.232 3.02v6.048l-5.232-3.02zm7.232 9.072v-6.04l5.237-3.029v6.045zm7.237-.717 5.232 3.02v6.049l-5.232-3.021zm7.232 9.071v-6.04l5.237-3.028v6.045z" fill="#c6c6c6"/><g fill="#fff"><path d="m23.2 56.931-2.359-8.931h1.907l1.44 6.012 1.512-6.012h1.92l-2.376 8.928z"/><path d="m31.893 57.051a3.5 3.5 0 0 1 -2.55-.882 3.378 3.378 0 0 1 -.906-2.538v-5.631h1.908v5.514a2.347 2.347 0 0 0 .347 1.468 1.381 1.381 0 0 0 1.176.434 2.2 2.2 0 0 0 .75-.108 1.062 1.062 0 0 0 .462-.308 2.324 2.324 0 0 0 .349-1.457v-5.543h1.907v5.544a3.557 3.557 0 0 1 -.888 2.605 3.435 3.435 0 0 1 -2.555.902z"/><path d="m36.656 48h5.989v1.632h-4.081v1.824h2.976v1.632l-2.976.013v2.2h4.224v1.632h-6.132z"/></g></svg>