<svg viewBox="0 0 512 512" xmlns="http://www.w3.org/2000/svg" xmlns:xlink="http://www.w3.org/1999/xlink"><linearGradient id="linear-gradient" gradientUnits="userSpaceOnUse" x1="170.25" x2="292.92" y1="310.46" y2="97.99"><stop offset="0" stop-color="#34344f"/><stop offset=".54" stop-color="#353551"/><stop offset="1" stop-color="#666684"/></linearGradient><linearGradient id="linear-gradient-2" gradientUnits="userSpaceOnUse" x1="379.05" x2="132.97" y1="406.42" y2="160.34"><stop offset="0" stop-color="#1eb4eb"/><stop offset=".54" stop-color="#1eb4eb"/><stop offset="1" stop-color="#92f4fe"/></linearGradient><linearGradient id="linear-gradient-3" gradientUnits="userSpaceOnUse" x1="383.49" x2="350.15" y1="303.83" y2="270.49"><stop offset="0" stop-color="#bce4ed"/><stop offset=".57" stop-color="#fff"/><stop offset="1" stop-color="#fff"/></linearGradient><g id="Layer_12" data-name="Layer 12"><path d="m496.52 129.86c-13.43-49.48-64.89-100.94-114.37-114.37-30.33-7.57-70.98-15.36-126.15-15.49-55.16.14-95.81 7.92-126.14 15.49-49.48 13.44-100.94 64.89-114.37 114.37-7.57 30.33-15.35 70.98-15.49 126.14.14 55.17 7.92 95.82 15.49 126.15 13.43 49.48 64.89 100.93 114.37 114.37 30.33 7.57 71 15.35 126.14 15.49 55.17-.14 95.82-7.92 126.15-15.49 49.48-13.44 100.94-64.89 114.37-114.37 7.57-30.33 15.35-71 15.49-126.15-.14-55.16-7.92-95.81-15.49-126.14z" fill="#dff8ff"/><g id="WALLET"><path d="m353 152.54c-8.41-23.78-29.84-42.71-54.24-45.84-17.16-2.14-40.58-3.89-72.6-3.46s-55.48 2.9-72.69 5.5c-28.44 4.48-53.84 29.49-58.72 58.13 0 0-7.53 40.41-9 94.83h275.66s0-72.07-8.41-109.16z" fill="url(#linear-gradient)"/><path d="m423.39 220.58c-3.24-25.32-25.79-46.74-52.18-50.24-46.5-4.61-115.19-5-115.21-4.83-29.71-.31-99.27 2.53-115.2 4.83-16.14 2.08-30.72 11-40.48 23.22a54.44 54.44 0 0 0 -11.7 27c-1.89 15.3-3.39 36.2-2.63 64.8s3.44 49.56 6.12 64.91c4.62 25.41 27.48 47.73 52.92 52 15.41 2.94 82.38 7 111 6.5 28.6.52 95.57-3.56 111-6.5 25.44-4.27 48.3-26.59 52.92-52 2.68-15.35 5.31-36.3 6.12-64.91s-.79-49.48-2.68-64.78z" fill="url(#linear-gradient-2)"/><path d="m366.82 310.73a23.58 23.58 0 1 1 23.57-23.57 23.57 23.57 0 0 1 -23.57 23.57z" fill="url(#linear-gradient-3)"/></g></g></svg>