<svg clip-rule="evenodd" fill-rule="evenodd" height="2.667in" image-rendering="optimizeQuality" shape-rendering="geometricPrecision" text-rendering="geometricPrecision" viewBox="0 0 2667 2667" width="2.667in" xmlns="http://www.w3.org/2000/svg"><g id="Layer_x0020_1"><circle cx="1333" cy="1333" fill="#007c29" r="1333"/><path d="m935 1191c-4 0-9-1-12-3-67-31-112-95-120-167-134-32-265 70-265 209 0 117 95 213 211 215-51-82 8-189 105-189 38 0 38 58 0 58-86 0-86 131 0 131h120c161-275 558-275 719 0h116c-51-82 7-189 105-189 38 0 38 58 0 58-86 0-86 131 0 131 118 0 215-96 215-215 0-158-166-261-307-194-18 9-39-3-42-23-8-78-74-136-152-136-14 0-28 1-41 5-52 25-85 78-85 135 0 38-58 38-58 0 0-74 39-142 102-179-15-105-105-185-213-185-117 0-213 96-214 213-1 21-23 35-42 26-20-10-43-15-66-15-74 0-137 52-151 125 1 57 35 109 87 133 28 13 18 56-12 56zm300 746c-29 0-40-39-15-54l247-150c33-20 63 30 31 49l-248 151c-5 2-10 4-15 4zm-52-378c-29 0-40-39-15-54l211-128c32-20 62 30 30 50l-211 128c-5 3-10 4-15 4zm-3 275c-6 0-12-2-17-5l-113-77c-8-5-13-14-13-24v-136c0-23 26-37 45-24l98 66 289-175c9-5 21-5 30 0l117 74c9 6 14 15 14 25v136c0 23-25 37-45 25l-102-65-288 176c-5 2-10 4-15 4zm-85-121 85 57 289-174c9-6 21-6 30 0l73 46v-68l-89-56-288 175c-10 6-22 6-32-1l-68-46zm-149-210h-193c-151 0-273-122-273-273 0-174 161-303 330-266 35-106 146-167 254-139 21-130 134-230 269-230 134 0 246 97 269 225 104-12 200 52 229 150 174-55 356 74 356 260 0 150-121 272-273 273h-193c106 270-93 568-388 568s-494-298-387-568zm387-207c-197 0-358 161-358 359s161 358 358 358c198 0 359-160 359-358s-161-359-359-359z" fill="#fff"/></g></svg>