<svg height="512" viewBox="0 0 32 32" width="512" xmlns="http://www.w3.org/2000/svg"><g id="Layer_2" data-name="Layer 2"><path d="m31 16v1a14.71 14.71 0 0 1 -2.61 7.5 15 15 0 0 1 -24.55.21l-.15-.21a14.71 14.71 0 0 1 -2.69-7.5c0-.33 0-.66 0-1s0-.67 0-1a14.71 14.71 0 0 1 2.65-7.5 15 15 0 0 1 24.7 0 14.71 14.71 0 0 1 2.65 7.5z" fill="#66c73c"/><path d="m27.5 12.5v1a14.71 14.71 0 0 1 -2.65 7.5 15 15 0 0 1 -21 3.71l-.15-.21a14.71 14.71 0 0 1 -2.7-7.5c0-.33 0-.66 0-1s0-.67 0-1a14.71 14.71 0 0 1 2.65-7.5 15 15 0 0 1 21.05-3.71l.15.21a14.71 14.71 0 0 1 2.61 7.5c.03.33.04.66.04 1z" fill="#7ddb46"/><g fill="#fff"><path d="m23 15a30.7 30.7 0 0 0 -.62-5.5c-.15-.7-.32-1.37-.52-2-1.26-3.98-3.37-6.5-5.86-6.5s-4.6 2.52-5.84 6.5c-.2.63-.37 1.3-.52 2a30.7 30.7 0 0 0 -.64 5.5v1s0 .67 0 1a30.7 30.7 0 0 0 .62 5.5c.15.7.32 1.37.52 2 1.24 4 3.35 6.5 5.84 6.5s4.6-2.52 5.84-6.5c.2-.63.37-1.3.52-2a30.7 30.7 0 0 0 .66-5.5c0-.33 0-.66 0-1s0-.67 0-1zm-2.7 7.5c-.17.72-.37 1.38-.58 2-1 2.82-2.39 4.5-3.72 4.5s-2.74-1.68-3.72-4.5c-.21-.62-.41-1.28-.58-2a28.39 28.39 0 0 1 -.7-5.5c0-.33 0-.66 0-1s0-.67 0-1a28.39 28.39 0 0 1 .68-5.5c.17-.72.37-1.38.58-2 1-2.82 2.41-4.5 3.74-4.5s2.74 1.68 3.72 4.5c.21.62.41 1.28.58 2a28.39 28.39 0 0 1 .7 5.5v1s0 .67 0 1a28.39 28.39 0 0 1 -.7 5.5z"/><path d="m29.52 22.5a14.73 14.73 0 0 1 -1.17 2h-24.7a14.73 14.73 0 0 1 -1.17-2z"/><path d="m29.52 9.5h-27a14.73 14.73 0 0 1 1.17-2h24.7a14.73 14.73 0 0 1 1.13 2z"/><path d="m31 16v1h-30c0-.33 0-.66 0-1s0-.67 0-1h30z"/></g></g></svg>