<svg enable-background="new 0 0 58 58" height="512" viewBox="0 0 58 58" width="512" xmlns="http://www.w3.org/2000/svg"><path d="m54.75 58h-51.5c-1.795 0-3.25-1.455-3.25-3.25v-43.75h58v43.75c0 1.795-1.455 3.25-3.25 3.25z" fill="#e7eced"/><path d="m58 12h-58v-8.75c0-1.795 1.455-3.25 3.25-3.25h51.5c1.795 0 3.25 1.455 3.25 3.25z" fill="#556080"/><path d="m4 4h4v4h-4z" fill="#dd352e"/><path d="m12 4h4v4h-4z" fill="#ebba16"/><path d="m20 4h4v4h-4z" fill="#23a24d"/><path d="m32 40h22v14h-22z" fill="#fff"/><path d="m37 48-5 6h10z" fill="#19893b"/><path d="m47 45-7 9h14z" fill="#23a24d"/><path d="m4 40h24v5h-24z" fill="#75348b"/><path d="m4 49h24v5h-24z" fill="#366db6"/><path d="m4 16h8v8h-8z" fill="#ebba16"/><path d="m46 16h8v8h-8z" fill="#366db6"/><path d="m32 16h8v8h-8z" fill="#ed8a19"/><path d="m18 16h8v8h-8z" fill="#dd352e"/><path d="m4 28h8v8h-8z" fill="#23a24d"/><path d="m46 28h8v8h-8z" fill="#cb465f"/><path d="m32 28h8v8h-8z" fill="#57abc1"/><path d="m18 28h8v8h-8z" fill="#c5411e"/></svg>