<svg id="Capa_1" enable-background="new 0 0 512.298 512.298" height="512" viewBox="0 0 512.298 512.298" width="512" xmlns="http://www.w3.org/2000/svg"><g><g><g><g><path d="m386.784 379.536-25.694 41.452-5.66 52.808 5.66 38.503h51.739c1.002-49.424 1.706-92.233-26.045-132.763z" fill="#6e91ef"/></g><g><path d="m384.069 496.285v-69.639l15.253-24.608c-3.345-7.594-7.461-15.087-12.538-22.502l-25.694 41.451v91.311h51.739v-16.013z" fill="#3d6dea"/></g><g><path d="m335.973 330.92c-19.88-11.744-46.386-21.361-79.883-21.361-33.788 0-60.366 9.785-80.185 21.668l20.185 30.071 59.849 4.66 60.151-4.66z" fill="#6e91ef"/></g><g><path d="m328.292 339.616h-120l-12.38-18.444c-7.303 3.013-13.97 6.435-20.006 10.054l20.185 30.071h120l19.883-30.378c-.473-.279-.968-.551-1.448-.828z" fill="#3d6dea"/></g><g><path d="m125.826 379.829c-27.571 40.484-26.837 83.175-25.847 132.469h51.422v-91.31z" fill="#6e91ef"/></g><g><path d="m122.169 496.073s-2.339-67.433 14.775-98.352l-11.118-17.893c-21.257 31.213-25.684 63.742-26.146 99.594 0 0 0 0 0-.001v.002c-.034 2.659.299 32.874.299 32.874h51.422v-16.225h-29.232z" fill="#3d6dea"/></g><g><path d="m316.09 417.135v-55.837l19.883-30.377 23.616 16.589z" fill="#c4e5f9"/></g><g><path d="m335.973 330.92-19.883 30.378v55.837l19.883-31.826z" fill="#a4d7f5"/></g><g><path d="m195.604 417.135v-55.837l-19.883-30.377-23.615 16.589z" fill="#c4e5f9"/></g><g><path d="m164.518 364.099 22.551-15.841-11.348-17.338-23.615 16.59z" fill="#a4d7f5"/></g><g><path d="m151.401 512.298v-91.31l-25.902-41.382 27.608-31.274 42.984 68.803v19.163c0 33.137 26.863 60 60 60 33.137 0 60-26.863 60-60v-20.846l43.499-67.942 27.093 32.096-25.592 41.382v91.31z" fill="#faef93"/></g><g><path d="m173.855 496.073v-78.925l-23.389-37.366 13.051-14.785-10.411-16.665-27.608 31.274 25.903 41.381v91.311h209.689v-16z" fill="#f6e23d"/></g><g><path d="m203.675 238.532v40.33h104.936v-39.913z" fill="#72869e"/></g><g><path d="m203.675 238.532v40.33h22.309v-40.241z" fill="#536275"/></g><g><circle cx="256.09" cy="128.404" fill="#c4e5f9" r="120.904"/></g><g><path d="m272.021 233.377c-66.774 0-120.904-54.131-120.904-120.904 0-29.33 10.447-56.219 27.819-77.155-26.726 22.177-43.75 55.642-43.75 93.086 0 66.774 54.131 120.904 120.904 120.904 37.443 0 70.908-17.023 93.085-43.75-20.935 17.373-47.824 27.819-77.154 27.819z" fill="#a4d7f5"/></g><g><path d="m301.196 174.554h-22.744v-22.744c0-20.858 16.909-37.767 37.767-37.767h22.744v22.744c-.001 20.859-16.909 37.767-37.767 37.767z" fill="#6e91ef"/></g><g><path d="m322.643 153.108h-22.744v-22.744c0-4.847.923-9.476 2.586-13.733-14.065 5.495-24.033 19.169-24.033 35.18v22.744h22.744c16.011 0 29.685-9.969 35.18-24.033-4.258 1.663-8.886 2.586-13.733 2.586z" fill="#3d6dea"/></g><g><g><path d="m192.57 74.563-11.481-9.652c3.489-4.151 7.362-8.023 11.509-11.509l9.65 11.483c-3.487 2.931-6.743 6.187-9.678 9.678z" fill="#fff"/></g><g><path d="m213.494 56.833-7.781-12.823c4.378-2.657 9.293-5.063 14.607-7.15l5.483 13.962c-4.519 1.775-8.66 3.797-12.309 6.011z" fill="#fff"/></g></g><g><path d="m211.186 174.554h22.744v-22.744c0-20.858-16.909-37.767-37.767-37.767h-22.743v22.744c0 20.859 16.909 37.767 37.766 37.767z" fill="#6e91ef"/></g><g><path d="m214.681 152.278c-10.485 0-18.985-8.5-18.985-18.985v-19.249h-22.276v22.744c0 20.858 16.909 37.767 37.767 37.767h22.744v-22.277z" fill="#3d6dea"/></g><g><path d="m196.09 361.298v75c0 33.137 26.863 60 60 60 33.137 0 60-26.863 60-60v-75z" fill="#72869e"/></g><g><path d="m218.347 436.298v-75h-22.257v75c0 33.137 26.863 60 60 60 3.804 0 7.521-.37 11.129-1.047-27.817-5.22-48.872-29.62-48.872-58.953z" fill="#536275"/></g><g><circle cx="256.09" cy="436.298" fill="#8edf78" r="30"/></g><g><path d="m271.635 451.753c-16.568 0-30-13.431-30-30 0-4.742 1.104-9.224 3.063-13.21-10.918 4.486-18.608 15.22-18.608 27.755 0 16.569 13.431 30 30 30 11.827 0 22.051-6.846 26.937-16.79-3.513 1.444-7.358 2.245-11.392 2.245z" fill="#53c933"/></g><g><circle cx="121.09" cy="271.298" fill="#6e91ef" r="30"/></g><g><path d="m136.537 285.851c-16.568 0-30-13.432-30-30 0-4.281.903-8.35 2.519-12.034-10.576 4.638-17.966 15.193-17.966 27.481 0 16.569 13.431 30 30 30 12.287 0 22.843-7.39 27.481-17.966-3.684 1.616-7.753 2.519-12.034 2.519z" fill="#3d6dea"/></g><g><circle cx="76.09" cy="196.298" fill="#a4d7f5" r="15"/></g><g><circle cx="406.09" cy="47.131" fill="#a4d7f5" r="15"/></g><g><circle cx="436.09" cy="166.298" fill="#a4d7f5" r="15"/></g></g></g><g><path d="m256.149 302.059c-90.562 0-164.239 73.677-164.239 164.239v46h15v-46c0-26.244 6.818-50.922 18.763-72.372l18.287 29.215v89.157h15v-93.464l-24.399-38.981c5.085-7.132 10.787-13.794 17.018-19.92l37.071 59.225v17.14c0 37.22 30.28 67.5 67.5 67.5s67.5-30.28 67.5-67.5v-17.14l37.071-59.225c6.237 6.133 11.945 12.802 17.035 19.943l-24.106 38.979v32.442h15v-28.179l18.013-29.127c11.922 21.434 18.726 46.089 18.726 72.306v46h15v-46c-.001-90.561-73.679-164.238-164.24-164.238zm-93.199 47.77c3.642-2.92 7.422-5.672 11.331-8.246l14.368 21.951v27.352zm145.699 86.469c0 28.949-23.552 52.5-52.5 52.5-28.949 0-52.5-23.551-52.5-52.5v-67.5h22.5v-15h-25.945l-12.983-19.836c20.631-10.79 44.078-16.903 68.928-16.903s48.297 6.114 68.928 16.903l-12.983 19.836h-71.116v15h67.67v67.5zm15-45.412v-27.352l14.368-21.951c3.908 2.574 7.689 5.326 11.331 8.246z"/><path d="m196.234 241.943v44.419h119.936v-44.475c40.64-21.581 68.383-64.349 68.383-113.482 0-45.926-24.782-88.649-64.676-111.498l-7.455 13.017c35.239 20.183 57.131 57.918 57.131 98.481 0 62.531-50.873 113.404-113.404 113.404s-113.404-50.873-113.404-113.404 50.873-113.405 113.404-113.405c14.715 0 29.026 2.774 42.538 8.246l5.631-13.903c-15.31-6.199-31.516-9.343-48.169-9.343-70.802 0-128.404 57.602-128.404 128.404 0 49.176 27.791 91.975 68.489 113.539zm104.936 6.712v22.707h-89.937v-22.667c13.987 5.24 29.121 8.113 44.915 8.113 15.835 0 31.005-2.888 45.022-8.153z"/><path d="m271.01 151.81v30.244h30.244c24.96 0 45.267-20.307 45.267-45.267v-30.244h-30.244c-24.96.001-45.267 20.307-45.267 45.267zm15 0c0-16.689 13.577-30.266 30.267-30.266h15.244v15.244c0 16.689-13.577 30.267-30.267 30.267h-15.244z"/><path d="m165.979 136.788c0 24.96 20.307 45.267 45.267 45.267h30.244v-30.245c0-24.96-20.307-45.266-45.267-45.266h-30.244zm15-15.244h15.244c16.689 0 30.267 13.577 30.267 30.266v15.244h-15.244c-16.689 0-30.267-13.578-30.267-30.267z"/><path d="m353.649 496.298h15v16h-15z"/><path d="m353.649 466.298h15v15h-15z"/><path d="m218.649 436.298c0 20.678 16.822 37.5 37.5 37.5s37.5-16.822 37.5-37.5-16.822-37.5-37.5-37.5-37.5 16.822-37.5 37.5zm37.5-22.5c12.406 0 22.5 10.093 22.5 22.5s-10.094 22.5-22.5 22.5c-12.407 0-22.5-10.093-22.5-22.5s10.093-22.5 22.5-22.5z"/><path d="m121.149 308.798c20.678 0 37.5-16.822 37.5-37.5s-16.822-37.5-37.5-37.5-37.5 16.822-37.5 37.5 16.822 37.5 37.5 37.5zm0-60c12.407 0 22.5 10.093 22.5 22.5s-10.093 22.5-22.5 22.5-22.5-10.093-22.5-22.5 10.093-22.5 22.5-22.5z"/><path d="m98.649 196.298c0-12.407-10.093-22.5-22.5-22.5s-22.5 10.093-22.5 22.5 10.093 22.5 22.5 22.5 22.5-10.093 22.5-22.5zm-22.5 7.5c-4.136 0-7.5-3.364-7.5-7.5s3.364-7.5 7.5-7.5 7.5 3.364 7.5 7.5-3.364 7.5-7.5 7.5z"/><path d="m436.149 143.798c-12.406 0-22.5 10.093-22.5 22.5s10.094 22.5 22.5 22.5 22.5-10.093 22.5-22.5-10.094-22.5-22.5-22.5zm0 30c-4.136 0-7.5-3.364-7.5-7.5s3.364-7.5 7.5-7.5 7.5 3.364 7.5 7.5-3.364 7.5-7.5 7.5z"/><path d="m406.149 68.798c12.406 0 22.5-10.093 22.5-22.5s-10.094-22.5-22.5-22.5-22.5 10.093-22.5 22.5 10.094 22.5 22.5 22.5zm0-30c4.136 0 7.5 3.364 7.5 7.5s-3.364 7.5-7.5 7.5-7.5-3.364-7.5-7.5 3.364-7.5 7.5-7.5z"/></g></g></svg>