<svg viewBox="0 0 512 512" xmlns="http://www.w3.org/2000/svg" xmlns:xlink="http://www.w3.org/1999/xlink"><linearGradient id="linear-gradient" gradientUnits="userSpaceOnUse" x1="12.18" x2="499.82" y1="256" y2="256"><stop offset="0" stop-color="#ed6c14"/><stop offset=".6" stop-color="#ff9045"/><stop offset="1" stop-color="#ffb54a"/></linearGradient><g id="Layer_29" data-name="Layer 29"><path d="m497.7 28.35-103.65 205.36c-1.61-1.73-3.24-3.44-4.92-5.12a187.91 187.91 0 0 0 -80.82-47.77l-31-61.49 54.78-108.59a19.53 19.53 0 0 1 17.44-10.74h130.72a19.55 19.55 0 0 1 17.45 28.35zm-374.83 200.24a187.86 187.86 0 0 1 133.13-55.15c2 0 4.06.05 6.08.11l-82.17-162.81a19.53 19.53 0 0 0 -17.44-10.74h-130.72a19.55 19.55 0 0 0 -17.45 28.35l103.7 205.36c1.56-1.71 3.19-3.44 4.87-5.12zm283.41 133.13a150.28 150.28 0 1 1 -150.28-150.28 150.28 150.28 0 0 1 150.28 150.28zm-66.4-32.72q-24.58-4-49.08-7.91c-7.48-14.88-14.94-29.83-22.19-44.76a13.83 13.83 0 0 0 -25.22 0c-7.25 14.93-14.71 29.88-22.19 44.76q-24.48 3.84-49.08 7.91c-11.91 2-17 16.08-8.43 24.11 11.79 11.09 23.78 22.52 35.78 34.09-2.57 16.1-4.91 32.13-6.92 48.08-1.4 11.54 11 21.1 21 15.9 13.86-7.17 28-14.71 42.41-22.42 14.38 7.71 28.55 15.25 42.41 22.42 10 5.2 22.44-4.36 21-15.9-2-15.95-4.35-32-6.92-48.08 12-11.57 24-23 35.78-34.09 8.68-8.04 3.56-22.11-8.35-24.11z" fill="url(#linear-gradient)"/></g></svg>