<svg height="512" viewBox="0 0 64 64" width="512" xmlns="http://www.w3.org/2000/svg"><g id="Home_Page" data-name="Home Page"><rect id="Frame" fill="#d6ecf9" height="48" rx="4" width="58" x="3" y="8"/><path d="m7 8h50a4 4 0 0 1 4 4v8a0 0 0 0 1 0 0h-58a0 0 0 0 1 0 0v-8a4 4 0 0 1 4-4z" fill="#1a1a1a"/><circle id="Button_3" cx="11" cy="14" fill="#f00" r="2"/><circle id="Button_2" cx="20" cy="14" fill="#ff0" r="2"/><circle id="Button_1" cx="29" cy="14" fill="#0f0" r="2"/><path d="m57 7h-50a5 5 0 0 0 -5 5v40a5 5 0 0 0 5 5h50a5 5 0 0 0 5-5v-40a5 5 0 0 0 -5-5zm-50 2h50a3 3 0 0 1 3 3v7h-56v-7a3 3 0 0 1 3-3zm50 46h-50a3 3 0 0 1 -3-3v-31h56v31a3 3 0 0 1 -3 3z" fill="#050505"/><path d="m32 26-15 12h4v12h8v-9h6v9h8v-12h4z" fill="#98d5f9"/><path d="m43 51h-8a1 1 0 0 1 -1-1v-8h-4v8a1 1 0 0 1 -1 1h-8a1 1 0 0 1 -1-1v-11h-3a1 1 0 0 1 -.62-1.78l15-12a1 1 0 0 1 1.25 0l15 12a1 1 0 0 1 -.63 1.78h-3v11a1 1 0 0 1 -1 1zm-7-2h6v-11a1 1 0 0 1 1-1h1.15l-12.15-9.72-12.15 9.72h1.15a1 1 0 0 1 1 1v11h6v-8a1 1 0 0 1 1-1h6a1 1 0 0 1 1 1z" fill="#0c68af"/></g></svg>