<svg clip-rule="evenodd" fill-rule="evenodd" height="512" image-rendering="optimizeQuality" shape-rendering="geometricPrecision" text-rendering="geometricPrecision" viewBox="0 0 173.397 173.397" width="512" xmlns="http://www.w3.org/2000/svg"><g id="Layer_x0020_1"><g id="_300057984"><g><path id="_300062064" d="m12.5309 154.119h148.336v-134.841h-148.336zm150.029 3.3865h-151.722c-.9352 0-1.6938-.7582-1.6938-1.6931v-138.228c0-.9348.7585-1.693 1.6936-1.693l151.722-.0001c.9348 0 1.6931.7584 1.6931 1.6933l.0001 138.228c0 .9348-.7586 1.6932-1.6932 1.6931z"/><path id="_300062184" d="m162.56 45.0008h-151.723c-.9352 0-1.6934-.7582-1.6934-1.693 0-.9349.7581-1.6933 1.6932-1.6933h151.723c.9348 0 1.6931.7585 1.6931 1.6933.0001.9347-.7585 1.6932-1.6931 1.693z"/><path id="_300061536" d="m139.065 27.2608c-.1841 0-.3393.1553-.3393.3423v5.6898c0 .1834.1552.3387.3393.3387l12.4711-.0001c.1836 0 .3386-.1551.3386-.3385l.0002-5.6901c0-.1869-.1554-.342-.3388-.342zm12.4711 9.7572h-12.4711c-2.0542 0-3.7257-1.6719-3.7257-3.725v-5.6901c0-2.0565 1.6713-3.7285 3.7257-3.7285l12.4711-.0001c2.0566 0 3.725 1.6722 3.725 3.7288l.0002 5.6898c0 2.0532-1.6687 3.7252-3.7252 3.7251z"/><path id="_300062208" d="m112.737 27.2608c-.1838 0-.3391.1553-.3391.3423l.0001 5.6898c0 .1834.1552.3387.339.3387l12.4715-.0001c.1841 0 .3395-.1551.3395-.3385l.0001-5.6901c0-.1869-.1556-.342-.3397-.342zm12.4715 9.7572h-12.4715c-2.0544 0-3.7259-1.6719-3.7259-3.725l.0002-5.6901c0-2.0565 1.6712-3.7285 3.7257-3.7285l12.4715-.0001c2.0546 0 3.7259 1.6722 3.7259 3.7288l.0002 5.6898c0 2.0532-1.6715 3.7252-3.7261 3.7251z"/><path id="_300061272" d="m86.4083 27.2608c-.1842 0-.3394.1553-.3394.3423l.0001 5.6898c0 .1834.1551.3387.3392.3387l12.4716-.0001c.1841 0 .3391-.1551.3391-.3385l.0001-5.6901c0-.1869-.1552-.342-.3394-.342zm12.4715 9.7572h-12.4715c-2.0545 0-3.7259-1.6719-3.7259-3.725v-5.6901c0-2.0565 1.6713-3.7285 3.7258-3.7285l12.4716-.0001c2.0544 0 3.7256 1.6722 3.7256 3.7288l.0001 5.6898c0 2.0532-1.6715 3.7252-3.7257 3.7251z"/><path id="_300061224" d="m23.0495 57.7672c-1.0245 0-1.8581.8326-1.8581 1.8555v37.2899c0 .7223.4126 1.3485 1.014 1.6563l11.1449-20.7229c.2949-.5466.868-.8888 1.4909-.8888.6235-.0001 1.1963.3387 1.4916.8889l5.2825 9.8216 7.4817-13.91c.2953-.5505.868-.8925 1.4913-.8925.623-.0001 1.1958.3422 1.4911.8925l6.766 12.5794c1.1367.1707 2.1838.5821 3.1338.9559 1.0502.4126 2.0421.8007 2.9504.8007.9223 0 1.9765-.3951 3.0929-.8148 1.3497-.5045 2.7456-1.0301 4.2818-1.0301 1.536-.0001 2.9318.5256 4.2814 1.0301 1.1166.4195 2.1709.8148 3.093.8148.9223 0 1.9765-.3951 3.0926-.8148 1.3502-.5045 2.7456-1.0301 4.2818-1.0301 1.5363-.0001 2.9321.5256 4.2821 1.0301.4797.1803.948.3561 1.3993.498l.0002-28.1543c0-1.0228-.8337-1.8553-1.8585-1.8553zm38.0877 32.831 4.3962 8.1734h25.3428c1.0249 0 1.8583-.8324 1.8583-1.859v-5.6288c-.8957-.1979-1.7511-.5184-2.5888-.8336-1.116-.4165-2.1705-.815-3.0926-.815-.9216-.0001-1.9762.3987-3.0926.815-1.3497.5078-2.7456 1.03-4.2818 1.03-1.5362-.0002-2.9321-.5221-4.2821-1.03-1.116-.4165-2.1702-.815-3.0923-.815-.922-.0001-1.9764.3987-3.0925.815-1.35.5078-2.746 1.03-4.2822 1.03-1.3865-.0002-2.6548-.4406-3.7924-.882zm-10.5489-12.4664c-3.7004 6.88-7.4009 13.7599-11.1013 20.6399l22.2023-.0001c-3.7004-6.8799-7.4007-13.7599-11.101-20.6398zm-10.896 13.1112-4.8511-9.0193-8.9006 16.548h9.7023zm51.1839 10.9152c-22.6089 0-45.2178 0-67.8267 0-2.8921 0-5.2446-2.353-5.2446-5.2456v-37.29c0-2.889 2.3525-5.2417 5.2445-5.2417l67.8268-.0002c2.8921 0 5.2448 2.353 5.2448 5.242v30.1643 7.1256c0 2.8926-2.3528 5.2456-5.2448 5.2456z"/><path id="_300061056" d="m75.8243 65.8066c-2.8306 0-5.1331 2.3035-5.1331 5.1326 0 2.8326 2.3024 5.1361 5.133 5.1361 2.8302-.0001 5.1325-2.3035 5.1325-5.1361 0-2.8291-2.3024-5.1326-5.1324-5.1326zm0 13.655c-4.6978 0-8.5199-3.8237-8.5199-8.5224.0001-4.6953 3.822-8.519 8.5198-8.519 4.6976-.0001 8.5189 3.8238 8.5189 8.519.0001 4.6986-3.8213 8.5226-8.5188 8.5224z"/><path id="_300061368" d="m152.863 65.8878h-48.5192c-.9352 0-1.6938-.7585-1.6938-1.6933.0002-.9349.7585-1.6932 1.6936-1.6932l48.5194-.0001c.9347 0 1.6931.7585 1.6931 1.6933.0001.9346-.7585 1.6933-1.6931 1.6933z"/><path id="_300061152" d="m153.381 79.9626h-48.5198c-.9352 0-1.6938-.7583-1.6938-1.6932s.7585-1.6931 1.6936-1.6931l48.52-.0002c.9347 0 1.6931.7586 1.6931 1.6933.0001.9349-.7584 1.6933-1.6931 1.6932z"/><path id="_300061032" d="m153.9 94.0376h-48.5205c-.9352 0-1.6933-.7583-1.6933-1.6931.0001-.9349.7581-1.6933 1.6933-1.6933l48.5205-.0001c.9349 0 1.6932.7585 1.6932 1.6934.0002.9347-.7584 1.6933-1.6932 1.6931z"/><path id="_300060840" d="m21.1914 141.353h32.7704v-24.3224h-32.7704zm34.4636 3.3866h-36.1567c-.9353 0-1.6934-.7584-1.6934-1.6932v-27.7091c0-.9349.758-1.6931 1.6932-1.6931l36.1569-.0001c.9351 0 1.6932.7585 1.6932 1.6933l.0001 27.709c0 .9347-.7582 1.6933-1.6933 1.6932z"/><path id="_300060792" d="m70.3132 141.353h32.77v-24.3224h-32.77zm34.4635 3.3866h-36.1572c-.9348 0-1.6933-.7584-1.6933-1.6932l.0001-27.7091c0-.9349.7584-1.6931 1.6931-1.6931l36.1573-.0001c.9348 0 1.6932.7585 1.6932 1.6933v27.709c0 .9347-.7585 1.6933-1.6932 1.6932z"/><path id="_300060768" d="m119.434 141.353h32.7686v-24.3224h-32.7686zm34.4653 3.3866h-36.1584c-.9352 0-1.6934-.7584-1.6934-1.6932v-27.7091c0-.9349.7581-1.6931 1.6932-1.6931l36.1586-.0001c.9349 0 1.6932.7585 1.6932 1.6933l.0002 27.709c0 .9347-.7586 1.6933-1.6934 1.6932z"/><path id="_300060552" d="m32.69 124.526v9.3305l8.0795-4.6669zm-1.693 13.9551c-.2925 0-.585-.0739-.8467-.2256-.524-.3034-.8469-.8608-.8469-1.4674l.0001-15.1934c0-.6068.3226-1.164.8468-1.4673.5239-.3035 1.1691-.3035 1.6932 0l13.1593 7.5982c.5239.2999.8466.8609.8466 1.464.0002.6066-.3228 1.1642-.8467 1.4675l-13.159 7.5982c-.2622.1518-.5547.226-.8467.2258z"/><path id="_300060456" d="m81.4252 126.505c-.9665 0-1.7525.7867-1.7525 1.7533v1.866c0 .9665.786 1.7498 1.7525 1.7498h1.7525v-5.3691zm3.4459 8.7554h-3.4459c-2.8337 0-5.139-2.3034-5.139-5.136l.0002-1.8661c0-2.8327 2.3051-5.1397 5.1388-5.1397l3.4459-.0001c.935 0 1.6931.7585 1.6931 1.6934l.0001 8.7553c0 .9383-.7582 1.6933-1.6932 1.6932z"/><path id="_300060264" d="m95.4163 139.43c-.2098 0-.4213-.0389-.6223-.1165l-10.5456-4.1695c-.8699-.3457-1.2962-1.3299-.9525-2.1976.344-.868 1.3277-1.2982 2.1973-.9525l8.2303 3.2523v-12.1137l-8.2301 3.256c-.8698.3423-1.8536-.0811-2.1975-.9523-.3436-.8715.0825-1.8555.9524-2.1977l10.5457-4.1698c.5214-.2046 1.1111-.1409 1.5747.1765.4637.3138.7411.8396.7411 1.3969l.0002 17.0945c0 .561-.2778 1.0866-.7413 1.4005-.285.194-.6173.2929-.9524.2929z"/><path id="_300060192" d="m146.02 126.974h-20.4014c-.9351 0-1.6936-.7583-1.6936-1.6931.0001-.9349.7584-1.6931 1.6935-1.6931l20.4015-.0001c.9351 0 1.6935.7584 1.6935 1.6932 0 .9347-.7585 1.6933-1.6935 1.6931z"/><path id="_300060144" d="m146.02 134.795h-20.4014c-.9351 0-1.6936-.7585-1.6936-1.6932.0001-.935.7584-1.6933 1.6935-1.6933l20.4015-.0001c.9351 0 1.6935.7585 1.6935 1.6934 0 .9345-.7585 1.6932-1.6935 1.6932z"/></g><path id="_300060648" d="m117.741 113.644 36.1586-.0001c.9349 0 1.6932.7585 1.6932 1.6933l.0002 27.709c0 .9347-.7586 1.6933-1.6934 1.6932h-36.1584c-.9352 0-1.6934-.7584-1.6934-1.6932v-27.7091c0-.9349.7581-1.6931 1.6932-1.6931zm-12.9644-.0001c.9348 0 1.6932.7585 1.6932 1.6933v27.709c0 .9347-.7585 1.6933-1.6932 1.6932h-36.1572c-.9348 0-1.6933-.7584-1.6933-1.6932l.0001-27.7091c0-.9349.7584-1.6931 1.6931-1.6931zm-92.2458 40.4752h148.336v-109.118h-148.336zm44.8173-38.7819.0001 27.709c0 .9347-.7582 1.6933-1.6933 1.6932h-36.1567c-.9353 0-1.6934-.7584-1.6934-1.6932v-27.7091c0-.9349.758-1.6931 1.6932-1.6931l36.1569-.0001c.9351 0 1.6932.7585 1.6932 1.6933zm96.5515-21.2995h-48.5205c-.9352 0-1.6933-.7583-1.6933-1.6931.0001-.9349.7581-1.6933 1.6933-1.6933l48.5205-.0001c.9349 0 1.6932.7585 1.6932 1.6934.0002.9347-.7584 1.6933-1.6932 1.6931zm-.5184-14.075h-48.5198c-.9352 0-1.6938-.7583-1.6938-1.6932s.7585-1.6931 1.6936-1.6931l48.52-.0002c.9347 0 1.6931.7586 1.6931 1.6933.0001.9349-.7584 1.6933-1.6931 1.6932zm-.5185-14.0748h-48.5192c-.9352 0-1.6938-.7585-1.6938-1.6933.0002-.9349.7585-1.6932 1.6936-1.6932l48.5194-.0001c.9347 0 1.6931.7585 1.6931 1.6933.0001.9346-.7585 1.6933-1.6931 1.6933zm-56.7418-6.2651v30.1643 7.1256c0 2.8926-2.3528 5.2456-5.2448 5.2456h-67.8267c-2.8921 0-5.2446-2.353-5.2446-5.2456v-37.29c0-2.889 2.3525-5.2417 5.2445-5.2417l67.8268-.0002c2.8921 0 5.2448 2.353 5.2448 5.242z" fill="#93f9e5"/><path id="_300059472" d="m103.083 141.353v-24.3224h-32.77v24.3224zm-5.9734-20.7102.0002 17.0945c0 .561-.2778 1.0866-.7413 1.4005-.285.194-.6173.2929-.9524.2929-.2098 0-.4213-.0389-.6223-.1165l-10.2515-4.0532h-3.1173c-2.8337 0-5.139-2.3034-5.139-5.136l.0002-1.8661c0-2.8327 2.3051-5.1397 5.1388-5.1397l3.1268-.0001 10.242-4.0497c.5214-.2046 1.1111-.1409 1.5747.1765.4637.3138.7411.8396.7411 1.3969z" fill="#ff9801"/><path id="_300059328" d="m93.7235 135.247v-12.114l-7.1593 2.832.0001 6.453z" fill="#62dbfb"/><path id="_300059880" d="m53.9618 141.353v-24.3224h-32.7704v24.3224zm-22.1183-21.2251 13.1593 7.5982c.5239.2999.8466.8609.8466 1.464.0002.6066-.3228 1.1642-.8467 1.4675l-13.159 7.5982c-.2622.1518-.5547.226-.8467.2258-.2925 0-.585-.0739-.8467-.2256-.524-.3034-.8469-.8608-.8469-1.4674l.0001-15.1934c0-.6068.3226-1.164.8468-1.4673.5239-.3035 1.1691-.3035 1.6932 0z" fill="#fe5694"/><path id="_300059760" d="m32.69 133.857 8.0795-4.667-8.0795-4.664z" fill="#ffe600"/><path id="_300059856" d="m79.6727 128.259v1.866c0 .9665.786 1.7498 1.7525 1.7498h1.7525v-5.3691h-1.7525c-.9665 0-1.7525.7867-1.7525 1.7533z" fill="#62dbfb"/><path id="_300059664" d="m119.434 117.03v24.3224h32.7686v-24.3224zm4.4909 8.251c.0001-.9349.7584-1.6931 1.6935-1.6931l20.4015-.0001c.9351 0 1.6935.7584 1.6935 1.6932 0 .9347-.7585 1.6933-1.6935 1.6931h-20.4014c-.9351 0-1.6936-.7583-1.6936-1.6931zm1.6935 6.1274 20.4015-.0001c.9351 0 1.6935.7585 1.6935 1.6934 0 .9345-.7585 1.6932-1.6935 1.6932h-20.4014c-.9351 0-1.6936-.7585-1.6936-1.6932.0001-.935.7584-1.6933 1.6935-1.6933z" fill="#fd481e"/><path id="_300058392" d="m68.0225 87.2789c1.3497-.5045 2.7456-1.0301 4.2818-1.0301 1.536-.0001 2.9318.5256 4.2814 1.0301 1.1166.4195 2.1709.8148 3.093.8148.9223 0 1.9765-.3951 3.0926-.8148 1.3502-.5045 2.7456-1.0301 4.2818-1.0301 1.5363-.0001 2.9321.5256 4.2821 1.0301.4797.1803.948.3561 1.3993.498l.0002-28.1543c0-1.0228-.8337-1.8553-1.8585-1.8553l-67.8267-.0001c-1.0245 0-1.8581.8326-1.8581 1.8555v37.2899c0 .7223.4126 1.3485 1.014 1.6563l11.1449-20.7229c.2949-.5466.868-.8888 1.4909-.8888.6235-.0001 1.1963.3387 1.4916.8889l5.2825 9.8216 7.4817-13.91c.2953-.5505.868-.8925 1.4913-.8925.623-.0001 1.1958.3422 1.4911.8925l6.766 12.5794c1.1367.1707 2.1838.5821 3.1338.9559 1.0502.4126 2.0421.8007 2.9504.8007.9223 0 1.9765-.3951 3.0929-.8148zm-.7181-16.3397c.0001-4.6953 3.822-8.519 8.5198-8.519 4.6976-.0001 8.5189 3.8238 8.5189 8.519.0001 4.6986-3.8213 8.5226-8.5188 8.5224-4.6978 0-8.5199-3.8237-8.5199-8.5224z" fill="#e5ecf5"/><path id="_300058968" d="m61.6893 98.7716-11.101-20.6398-11.1013 20.6399z" fill="#32d736"/><path id="_300058824" d="m35.6429 98.7717 4.0494-7.5287-4.8511-9.0193-8.9006 16.548z" fill="#32d736"/><path id="_300058920" d="m61.1372 90.5982 4.3962 8.1734h25.3428c1.0249 0 1.8583-.8324 1.8583-1.859v-5.6288c-.8957-.1979-1.7511-.5184-2.5888-.8336-1.116-.4165-2.1705-.815-3.0926-.815-.9216-.0001-1.9762.3987-3.0926.815-1.3497.5078-2.7456 1.03-4.2818 1.03-1.5362-.0002-2.9321-.5221-4.2821-1.03-1.116-.4165-2.1702-.815-3.0923-.815-.922-.0001-1.9764.3987-3.0925.815-1.35.5078-2.746 1.03-4.2822 1.03-1.3865-.0002-2.6548-.4406-3.7924-.882z" fill="#62dbfb"/><path id="_300058656" d="m70.6912 70.9392c0 2.8326 2.3024 5.1361 5.133 5.1361 2.8302-.0001 5.1325-2.3035 5.1325-5.1361 0-2.8291-2.3024-5.1326-5.1324-5.1326-2.8306 0-5.1331 2.3035-5.1331 5.1326z" fill="#ffea00"/><path id="_300058488" d="m12.5309 41.6145h148.336v-22.3365h-148.336zm70.1515-8.3215v-5.6901c0-2.0565 1.6713-3.7285 3.7258-3.7285l12.4716-.0001c2.0544 0 3.7256 1.6722 3.7256 3.7288l.0001 5.6898c0 2.0532-1.6715 3.7252-3.7257 3.7251h-12.4715c-2.0545 0-3.7259-1.6719-3.7259-3.725zm26.3283 0 .0002-5.6901c0-2.0565 1.6712-3.7285 3.7257-3.7285l12.4715-.0001c2.0546 0 3.7259 1.6722 3.7259 3.7288l.0002 5.6898c0 2.0532-1.6715 3.7252-3.7261 3.7251h-12.4715c-2.0544 0-3.7259-1.6719-3.7259-3.725zm26.3288 0v-5.6901c0-2.0565 1.6713-3.7285 3.7257-3.7285l12.4711-.0001c2.0566 0 3.725 1.6722 3.725 3.7288l.0002 5.6898c0 2.0532-1.6687 3.7252-3.7252 3.7251h-12.4711c-2.0542 0-3.7257-1.6719-3.7257-3.725z" fill="#17ace8"/><path id="_300058536" d="m86.4082 33.6316 12.4716-.0001c.1841 0 .3391-.1551.3391-.3385l.0001-5.6901c0-.1869-.1552-.342-.3394-.342l-12.4713-.0001c-.1842 0-.3394.1553-.3394.3423l.0001 5.6898c0 .1834.1551.3387.3392.3387z" fill="#ffea00"/><path id="_300058464" d="m112.398 27.6031.0001 5.6898c0 .1834.1552.3387.339.3387l12.4715-.0001c.1841 0 .3395-.1551.3395-.3385l.0001-5.6901c0-.1869-.1556-.342-.3397-.342l-12.4714-.0001c-.1838 0-.3391.1553-.3391.3423z" fill="#c85aed"/><path id="_300057888" d="m138.726 27.6031v5.6898c0 .1834.1552.3387.3393.3387l12.4711-.0001c.1836 0 .3386-.1551.3386-.3385l.0002-5.6901c0-.1869-.1554-.342-.3388-.342l-12.4711-.0001c-.1841 0-.3393.1553-.3393.3423z" fill="#fd481e"/></g></g></svg>