<svg id="Capa_1" enable-background="new 0 0 512 512" height="512" viewBox="0 0 512 512" width="512" xmlns="http://www.w3.org/2000/svg"><g><g><path clip-rule="evenodd" d="m452.598 21.021h-393.224c-28.48 0-51.803 23.328-51.803 51.843v53.714l247.281 24.036 249.577-24.036v-53.714c0-28.515-23.323-51.843-51.831-51.843z" fill="#eee1dc" fill-rule="evenodd"/></g><g><path clip-rule="evenodd" d="m7.571 126.577v312.559c0 28.515 23.323 51.843 51.803 51.843h393.224c28.508 0 51.831-23.328 51.831-51.843v-312.559z" fill="#60b7ff" fill-rule="evenodd"/></g><g><path clip-rule="evenodd" d="m456.905 131.169v307.967c0 28.515-23.323 51.843-51.831 51.843h47.524c28.508 0 51.831-23.328 51.831-51.843v-312.559h-47.524z" fill="#22a6fe" fill-rule="evenodd"/></g><g><path clip-rule="evenodd" d="m452.598 21.021h-47.524c28.508 0 51.831 23.328 51.831 51.843v53.714h47.524v-53.714c0-28.515-23.323-51.843-51.831-51.843z" fill="#cdbeb9" fill-rule="evenodd"/></g><g><path clip-rule="evenodd" d="m54.868 339.759v91.979c0 3.175 2.579 5.754 5.724 5.754h30.748l12.781-32.795-12.781-48.016c-2.862 1.304-1.275 1.814-9.267 2.353-8.02.538-23.946-7.427-27.205-19.275z" fill="#9d9696" fill-rule="evenodd"/></g><g><path clip-rule="evenodd" d="m78.502 316.63c-14.538.964-25.505 13.549-24.541 28.09.142 1.814.453 3.571.907 5.244 3.259 11.848 14.481 20.153 27.205 19.275 3.287-.227 6.404-1.049 9.267-2.353l12.781-22.449-12.781-25.455c-3.883-1.814-8.275-2.664-12.838-2.352z" fill="#fdb440" fill-rule="evenodd"/></g><g><path clip-rule="evenodd" d="m261.512 356.681-19.894 41.185 19.894 39.626h30.719c3.146 0 5.724-2.579 5.724-5.754v-91.979c-3.259 11.848-19.185 19.813-27.177 19.275-8.019-.539-6.432-1.049-9.266-2.353z" fill="#9d9696" fill-rule="evenodd"/></g><g><path clip-rule="evenodd" d="m274.321 316.63c-4.563-.312-8.927.539-12.809 2.353l-15.841 25.454 15.841 22.449c2.834 1.304 5.951 2.126 9.267 2.353 12.696.879 23.918-7.426 27.177-19.275.482-1.672.765-3.43.907-5.244.962-14.541-10.005-27.126-24.542-28.09z" fill="#fdb440" fill-rule="evenodd"/></g><g><path clip-rule="evenodd" d="m247.824 305.292c0-99.065-142.826-99.065-142.826 0z" fill="#eee1dc" fill-rule="evenodd"/></g><g><path clip-rule="evenodd" d="m176.411 168.103c-9.04 0-16.38 7.313-16.38 16.383 0 9.042 7.34 16.383 16.38 16.383s16.38-7.341 16.38-16.383c0-9.07-7.34-16.383-16.38-16.383z" fill="#fd4755" fill-rule="evenodd"/></g><g><path clip-rule="evenodd" d="m331.99 196.533v48.583c0 2.494 2.04 4.535 4.534 4.535h111.597c2.494 0 4.534-2.041 4.534-4.535v-48.583c0-2.494-2.04-4.535-4.534-4.535h-111.597c-2.494-.001-4.534 2.04-4.534 4.535z" fill="#80d261" fill-rule="evenodd"/></g><g><path clip-rule="evenodd" d="m396.034 222.808c-10.712-4.734-16.436-.539-17.286 8.787l-.935 18.056-.623 12.188c-.425 8.418 5.299 16.837 15.671 10.884l4.222-2.693 14.934 23.129c1.105 1.729 3.429 2.239 5.129 1.134l17.854-11.535c1.729-1.105 2.239-3.43 1.105-5.13l-14.906-23.158 4.194-2.721c.964-.68 1.757-1.389 2.437-2.098 6.178-6.548 1.19-13.917-5.894-16.667z" fill="#eee1dc" fill-rule="evenodd"/></g><g><path clip-rule="evenodd" d="m293.591 57.076c-8.87 0-16.068 7.171-16.068 16.043s7.198 16.043 16.068 16.043c8.842 0 16.04-7.171 16.04-16.043-.001-8.872-7.198-16.043-16.04-16.043z" fill="#fd8087" fill-rule="evenodd"/></g><g><path clip-rule="evenodd" d="m361.745 57.076c-8.842 0-16.04 7.171-16.04 16.043s7.198 16.043 16.04 16.043c8.87 0 16.068-7.171 16.068-16.043s-7.198-16.043-16.068-16.043z" fill="#fdb440" fill-rule="evenodd"/></g><g><path clip-rule="evenodd" d="m429.927 57.076c-8.842 0-16.04 7.171-16.04 16.043s7.198 16.043 16.04 16.043c8.87 0 16.068-7.171 16.068-16.043s-7.198-16.043-16.068-16.043z" fill="#80d261" fill-rule="evenodd"/></g><g><path clip-rule="evenodd" d="m104.999 305.292c-7.51 0-13.659 6.151-13.659 13.691v30.981 16.922 70.607h170.172v-70.607-16.922-30.981c0-7.54-6.178-13.691-13.687-13.691z" fill="#cdbeb9" fill-rule="evenodd"/></g><g><path clip-rule="evenodd" d="m247.824 305.292h-142.825c-7.51 0-13.659 6.151-13.659 13.691v23.951c0-7.54 6.149-13.691 13.659-13.691h142.826c7.51 0 13.687 6.151 13.687 13.691v-23.951c0-7.54-6.178-13.691-13.688-13.691z" fill="#9d9696" fill-rule="evenodd"/></g><g><path clip-rule="evenodd" d="m165.615 231.737c31.767 4.507 60.616 29.025 60.616 73.555h21.594c-.001-54.536-43.302-79.054-82.21-73.555z" fill="#cdbeb9" fill-rule="evenodd"/></g><g><path clip-rule="evenodd" d="m118.403 357.39v21.882c0 2.608 2.125 4.734 4.733 4.734h107.743c2.579 0 4.704-2.126 4.704-4.734v-21.882c0-2.579-2.125-4.705-4.704-4.705h-107.744c-2.607 0-4.732 2.125-4.732 4.705z" fill="#fd8087" fill-rule="evenodd"/></g><g><path clip-rule="evenodd" d="m123.135 352.685c-2.607 0-4.733 2.126-4.733 4.705v15.164c0 2.579 2.125-4.734 4.733-4.734h107.743c2.579 0 4.704 2.126 4.704 4.734v-15.164c0-2.579-2.125-4.705-4.704-4.705z" fill="#fd4755" fill-rule="evenodd"/></g><g><path clip-rule="evenodd" d="m430.466 196.533v48.583c0 2.494-2.012 4.535-4.506 4.535h22.161c2.494 0 4.534-2.041 4.534-4.535v-48.583c0-2.494-2.04-4.535-4.534-4.535h-22.161c2.494-.001 4.506 2.04 4.506 4.535z" fill="#4fc122" fill-rule="evenodd"/></g><g><path clip-rule="evenodd" d="m405.726 249.651c.652 4.535.992 9.212.992 14.031 0 6.434-.623 12.642-1.757 18.538l7.056 10.941c1.105 1.729 3.429 2.239 5.129 1.134l17.854-11.537c1.729-1.105 2.239-3.43 1.105-5.13l-14.906-23.158 4.194-2.721c.964-.68 1.757-1.389 2.437-2.098 6.178-6.548 1.19-13.917-5.894-16.667l-24.258-9.524c3.854 7.682 6.66 16.554 8.048 26.191z" fill="#cdbeb9" fill-rule="evenodd"/></g><g><path d="m452.598 13.448h-393.224c-32.739 0-59.374 26.654-59.374 59.416v366.272c0 32.762 26.635 59.415 59.374 59.415h393.224c32.754 0 59.402-26.654 59.402-59.415v-366.272c0-32.762-26.648-59.416-59.402-59.416zm0 469.959h-393.224c-24.39 0-44.231-19.859-44.231-44.27v-304.987h202.388c4.181 0 7.571-3.39 7.571-7.573s-3.39-7.573-7.571-7.573h-202.389v-46.14c0-24.411 19.842-44.271 44.231-44.271h393.224c24.405 0 44.26 19.86 44.26 44.271v46.14h-237.357c-4.181 0-7.571 3.39-7.571 7.573s3.39 7.573 7.571 7.573h237.358v304.987c0 24.41-19.855 44.27-44.26 44.27z"/><path d="m440.072 334.681h-69.032c-4.181 0-7.571 3.39-7.571 7.573s3.39 7.573 7.571 7.573h69.032c4.181 0 7.571-3.39 7.571-7.573s-3.389-7.573-7.571-7.573z"/><path d="m440.072 389.783h-69.032c-4.181 0-7.571 3.39-7.571 7.573s3.39 7.573 7.571 7.573h69.032c4.181 0 7.571-3.39 7.571-7.573s-3.389-7.573-7.571-7.573z"/><path d="m429.927 96.735c13.034 0 23.639-10.594 23.639-23.616s-10.604-23.616-23.639-23.616c-13.019 0-23.611 10.594-23.611 23.616s10.592 23.616 23.611 23.616zm0-32.086c4.685 0 8.497 3.8 8.497 8.47s-3.811 8.47-8.497 8.47c-4.67 0-8.469-3.8-8.469-8.47s3.8-8.47 8.469-8.47z"/><path d="m361.745 96.735c13.035 0 23.639-10.594 23.639-23.616s-10.604-23.616-23.639-23.616c-13.019 0-23.61 10.594-23.61 23.616s10.591 23.616 23.61 23.616zm0-32.086c4.685 0 8.497 3.8 8.497 8.47s-3.812 8.47-8.497 8.47c-4.67 0-8.468-3.8-8.468-8.47s3.798-8.47 8.468-8.47z"/><path d="m293.591 96.735c13.019 0 23.611-10.594 23.611-23.616s-10.592-23.616-23.611-23.616c-13.034 0-23.639 10.594-23.639 23.616s10.604 23.616 23.639 23.616zm0-32.086c4.67 0 8.469 3.8 8.469 8.47s-3.799 8.47-8.469 8.47c-4.685 0-8.497-3.8-8.497-8.47s3.812-8.47 8.497-8.47z"/><path d="m448.12 184.424h-111.596c-6.675 0-12.105 5.432-12.105 12.109v48.583c0 6.676 5.431 12.108 12.105 12.108h33.322l-.218 4.234c-.402 7.958 2.893 15.075 8.599 18.576 2.859 1.753 8.639 3.961 16.474.266l10.937 16.939c1.632 2.554 4.167 4.314 7.136 4.956.803.174 1.611.26 2.413.26 2.142 0 4.236-.613 6.07-1.801l17.823-11.516c2.535-1.623 4.343-4.244 4.961-7.193.618-2.95.052-5.95-1.595-8.456l-10.47-16.266h16.145c6.675 0 12.105-5.431 12.105-12.108v-48.583c0-6.676-5.431-12.108-12.106-12.108zm-31.824 101.404-12.853-19.906c-1.448-2.243-3.881-3.466-6.367-3.466-1.393 0-2.803.385-4.064 1.188l-4.057 2.588c-1.815 1.014-2.718.948-2.812.89-.537-.329-1.531-2.161-1.393-4.893l1.55-30.081c.258-2.599.977-3.543 1.111-3.622.257-.151 1.952-.386 5.563 1.209.097.043.194.084.292.122l25.919 10.182c2.538.99 3.793 2.644 3.872 3.269.023.18-.421 1.058-1.962 2.202l-4.017 2.606c-3.499 2.27-4.504 6.945-2.245 10.453l12.822 19.92zm28.788-43.75h-6.935c-.019-.24-.043-.469-.071-.686-.848-6.648-5.979-12.573-13.375-15.457l-25.763-10.12c-9.384-4.099-15.622-2.453-19.21-.342-3.431 2.019-7.694 6.337-8.523 15.435-.009.099-.016.198-.021.298l-.56 10.872h-31.066v-42.508h105.523v42.508z"/><path d="m274.838 309.075c-2.689-.182-5.378-.034-8.005.41-2.407-4.785-6.573-8.539-11.641-10.422-1.31-22.393-9.714-41.339-24.545-55.056-12.582-11.637-28.934-18.689-46.665-20.254v-16.572c9.506-3.174 16.38-12.145 16.38-22.696 0-13.209-10.744-23.956-23.951-23.956s-23.951 10.746-23.951 23.956c0 10.551 6.873 19.523 16.38 22.696v16.572c-17.731 1.565-34.083 8.617-46.665 20.254-14.832 13.717-23.236 32.665-24.545 55.059-5.056 1.883-9.199 5.631-11.598 10.417-2.636-.448-5.333-.596-8.031-.41-18.66 1.237-32.833 17.452-31.594 36.162.134 1.958.441 3.863.889 5.709v80.794c0 7.348 5.964 13.326 13.296 13.326h30.748 170.172 30.719c7.331 0 13.296-5.978 13.296-13.326v-80.783c.451-1.866.756-3.78.89-5.735 1.238-18.694-12.935-34.909-31.579-36.145zm-191.069 120.844h-21.33v-58.135c5.21 3.23 11.328 5.087 17.819 5.087.541 0 2.094-.062 2.335-.079.393-.027.785-.062 1.175-.102v53.229zm0-68.52c-.73.138-1.467.231-2.211.283-8.955.599-16.88-5.187-19.312-13.448-.026-.093-.052-.188-.078-.28-.013-.049-.032-.095-.046-.143-.311-1.156-.521-2.355-.606-3.593-.686-10.361 7.158-19.347 17.504-20.033.439-.03.878-.045 1.315-.045 1.16 0 2.31.105 3.434.312zm83.834-176.913c0-4.858 3.952-8.81 8.809-8.81s8.809 3.952 8.809 8.81c0 4.842-3.952 8.783-8.809 8.783s-8.809-3.941-8.809-8.783zm8.808 54.079c16.797 0 32.408 5.882 43.956 16.563 11.396 10.538 18.085 25.156 19.57 42.591h-127.053c3.439-40.576 34.526-59.154 63.527-59.154zm77.53 128.32v63.034h-155.03v-63.034-47.902c0-3.374 2.731-6.118 6.088-6.118h142.825c3.315 0 6.116 2.802 6.116 6.118v47.902zm36.443 63.034h-21.302v-53.227c.39.04.828.288 1.173.101h.001.005c.789.054 1.574.081 2.357.081 6.329 0 12.436-1.758 17.765-5.067v58.112zm.924-85.716c-.083 1.216-.285 2.406-.59 3.559-.02.065-.045.127-.063.193-.032.115-.069.235-.103.352-1.003 3.373-2.925 6.408-5.643 8.782-3.784 3.303-8.616 4.932-13.615 4.593-.747-.051-1.485-.145-2.212-.279v-36.959c1.532-.282 3.116-.367 4.737-.258 10.33.685 18.175 9.672 17.489 20.017z"/><path d="m230.878 345.112h-107.771c-6.769 0-12.275 5.507-12.275 12.278v21.883c0 6.786 5.507 12.306 12.275 12.306h37.435c4.181 0 7.571-3.39 7.571-7.573s-3.39-7.573-7.571-7.573h-34.568v-16.175h102.037v16.175h-35.985c-4.181 0-7.571 3.39-7.571 7.573s3.39 7.573 7.571 7.573h38.852c6.769 0 12.275-5.52 12.275-12.306v-21.883c0-6.771-5.507-12.278-12.275-12.278z"/><path d="m159.862 267.022h-15.274c-4.181 0-7.571 3.39-7.571 7.573s3.39 7.573 7.571 7.573h15.274c4.181 0 7.571-3.39 7.571-7.573s-3.39-7.573-7.571-7.573z"/><path d="m207.952 267.022h-15.274c-4.181 0-7.571 3.39-7.571 7.573s3.39 7.573 7.571 7.573h15.274c4.181 0 7.571-3.39 7.571-7.573s-3.389-7.573-7.571-7.573z"/></g></g></svg>