<svg id="Capa_1" enable-background="new 0 0 512 512" height="512" viewBox="0 0 512 512" width="512" xmlns="http://www.w3.org/2000/svg"><g><path d="m108.571 458-4.756 1c41.799 33.176 94.674 53 152.185 53s110.385-19.824 152.185-53l-4.756-1z" fill="#bec6ed"/><path d="m464.337 138.047-1 5.255v247.313l1 5.337c23.234-37.456 36.663-81.633 36.663-128.952s-13.429-91.496-36.663-128.953z" fill="#bec6ed"/><path d="m48.662 141.817-1-3.77c-23.233 37.457-36.662 81.634-36.662 128.953s13.429 91.496 36.663 128.953l1-4.202v-249.934z" fill="#bec6ed"/><g><g><path d="m453.936 0h-395.872c-5.744 0-10.401 4.657-10.401 10.401v42.056l8.903 1.04h399.716l8.056-1.04v-42.056c-.001-5.744-4.657-10.401-10.402-10.401z" fill="#26a6fe"/></g><g><path d="m95.325 10.401c0-5.744 4.657-10.401 10.401-10.401h-47.662c-5.744 0-10.401 4.657-10.401 10.401v42.056h47.662z" fill="#0593fc"/></g><g><path d="m464.337 52.457h-416.674v343.496c14.965 24.127 33.999 45.464 56.152 63.047h304.369c22.153-17.583 41.187-38.92 56.153-63.047z" fill="#eaf6ff"/></g><g><g><path d="m47.663 52.457v343.496c13.017 20.986 29.115 39.857 47.663 55.987v-399.483z" fill="#d8ecfe"/></g></g><g><g><circle cx="392.5" cy="25.5" fill="#fe646f" r="7.5"/></g><g><circle cx="414.5" cy="25.5" fill="#ffd15b" r="7.5"/></g><g><circle cx="436.5" cy="25.5" fill="#80d261" r="7.5"/></g></g></g><g><g><g><path d="m143.104 288.069c-38.175 1.671-68.497 33.593-67.584 72.387.883 37.531 31.493 68.141 69.024 69.024 38.794.913 70.717-29.408 72.387-67.584.075-1.712-1.292-3.146-3.005-3.146h-67.676v-67.676c0-1.714-1.435-3.08-3.146-3.005z" fill="#8ac9fe"/></g><g><path d="m100.58 358.75c.002-30.243 18.974-56.039 45.67-66.159v-1.517c0-1.713-1.435-3.08-3.146-3.005-37.612 1.646-67.578 32.664-67.581 70.681z" fill="#60b7ff"/></g><g><path d="m229.301 342.875c1.713 0 3.08-1.434 3.005-3.146-.89-20.342-10.37-38.454-24.902-50.798-11.596-9.851-26.409-16.029-42.642-16.737-1.708-.075-3.138 1.295-3.138 3.005v64.677c0 1.657 1.343 3 3 3h64.677z" fill="#fe646f"/></g><path d="m178.316 339.875v-64.677c0-.365.077-.708.196-1.031-4.435-1.086-9.029-1.768-13.749-1.974-1.708-.075-3.138 1.295-3.138 3.005v64.677c0 1.657 1.343 3 3 3h16.691c-1.657 0-3-1.343-3-3z" fill="#fd4755"/><g><path d="m75.5 358.75c0 39.074 31.676 70.75 70.75 70.75 38.025 0 69.043-29.997 70.682-67.618.074-1.706-1.297-3.132-3.005-3.132z" fill="#26a6fe"/></g></g><g><g><path d="m311 337.25h-52c-4.143 0-7.5-3.357-7.5-7.5s3.357-7.5 7.5-7.5h52c4.143 0 7.5 3.357 7.5 7.5s-3.357 7.5-7.5 7.5z" fill="#a2aee6"/></g><g><path d="m311 366.25h-52c-4.143 0-7.5-3.357-7.5-7.5s3.357-7.5 7.5-7.5h52c4.143 0 7.5 3.357 7.5 7.5s-3.357 7.5-7.5 7.5z" fill="#a2aee6"/></g><g><path d="m311 395.25h-52c-4.143 0-7.5-3.357-7.5-7.5s3.357-7.5 7.5-7.5h52c4.143 0 7.5 3.357 7.5 7.5s-3.357 7.5-7.5 7.5z" fill="#a2aee6"/></g></g><g><g><path d="m429 337.25h-91c-4.143 0-7.5-3.357-7.5-7.5s3.357-7.5 7.5-7.5h91c4.143 0 7.5 3.357 7.5 7.5s-3.357 7.5-7.5 7.5z" fill="#6c7fd8"/></g><g><path d="m429 366.25h-91c-4.143 0-7.5-3.357-7.5-7.5s3.357-7.5 7.5-7.5h91c4.143 0 7.5 3.357 7.5 7.5s-3.357 7.5-7.5 7.5z" fill="#6c7fd8"/></g><g><path d="m429 395.25h-91c-4.143 0-7.5-3.357-7.5-7.5s3.357-7.5 7.5-7.5h91c4.143 0 7.5 3.357 7.5 7.5s-3.357 7.5-7.5 7.5z" fill="#6c7fd8"/></g></g></g><g><g><path d="m102.189 164.5c-1.919 0-3.839-.732-5.304-2.196-2.929-2.93-2.929-7.678 0-10.607l56-56c2.93-2.928 7.678-2.928 10.607 0l31.196 31.197 30.696-30.697c2.93-2.928 7.678-2.928 10.607 0l45.696 45.697 33.696-33.697c2.93-2.928 7.678-2.928 10.607 0l30.196 30.197 50.696-50.697c2.93-2.928 7.678-2.928 10.607 0 2.929 2.93 2.929 7.678 0 10.607l-56 56c-2.93 2.928-7.678 2.928-10.607 0l-30.196-30.197-33.696 33.697c-2.93 2.928-7.678 2.928-10.607 0l-45.696-45.697-30.696 30.697c-2.93 2.928-7.678 2.928-10.607 0l-31.196-31.197-50.696 50.697c-1.464 1.464-3.384 2.196-5.303 2.196z" fill="#a2aee6"/></g><g><circle cx="101" cy="158.81" fill="#fe646f" r="13.81"/></g><path d="m99 158.81c0-5.511 3.236-10.255 7.905-12.47-1.792-.851-3.789-1.34-5.905-1.34-7.627 0-13.81 6.183-13.81 13.81s6.183 13.81 13.81 13.81c2.116 0 4.113-.49 5.905-1.341-4.669-2.214-7.905-6.957-7.905-12.469z" fill="#fd4755"/><g><circle cx="194.379" cy="136.19" fill="#fe646f" r="13.81"/></g><g><circle cx="282" cy="150.19" fill="#fe646f" r="13.81"/></g><g><circle cx="355.379" cy="150.19" fill="#fe646f" r="13.81"/></g><g><circle cx="158.379" cy="104.19" fill="#26a6fe" r="13.81"/></g><g><circle cx="230" cy="104.19" fill="#26a6fe" r="13.81"/></g><g><circle cx="320.379" cy="116.19" fill="#26a6fe" r="13.81"/></g><g><circle cx="411" cy="92.81" fill="#26a6fe" r="13.81"/></g></g><g><path d="m320.5 242.5v-52.5c0-4.143-3.357-7.5-7.5-7.5s-7.5 3.357-7.5 7.5v52.5z" fill="#68ca44"/><path d="m349.5 242.5v-36.5c0-4.143-3.357-7.5-7.5-7.5s-7.5 3.357-7.5 7.5v36.5z" fill="#fb8801"/><path d="m407.5 242.5v-52.5c0-4.143-3.357-7.5-7.5-7.5s-7.5 3.357-7.5 7.5v52.5z" fill="#68ca44"/><g fill="#fe646f"><path d="m378.5 242.5v-20.5c0-4.143-3.357-7.5-7.5-7.5s-7.5 3.357-7.5 7.5v20.5z"/><path d="m291.5 242.5v-28.5c0-4.143-3.357-7.5-7.5-7.5s-7.5 3.357-7.5 7.5v28.5z"/><path d="m117.5 242.5v-28.5c0-4.143-3.357-7.5-7.5-7.5s-7.5 3.357-7.5 7.5v28.5z"/></g><path d="m262.5 242.5v-44.5c0-4.143-3.357-7.5-7.5-7.5s-7.5 3.357-7.5 7.5v44.5z" fill="#fb8801"/><path d="m175.5 242.5v-44.5c0-4.143-3.357-7.5-7.5-7.5s-7.5 3.357-7.5 7.5v44.5z" fill="#fb8801"/><path d="m146.5 242.5v-68.5c0-4.143-3.357-7.5-7.5-7.5s-7.5 3.357-7.5 7.5v68.5z" fill="#68ca44"/><path d="m233.5 242.5v-60.5c0-4.143-3.357-7.5-7.5-7.5s-7.5 3.357-7.5 7.5v60.5z" fill="#68ca44"/><path d="m204.5 242.5v-28.5c0-4.143-3.357-7.5-7.5-7.5s-7.5 3.357-7.5 7.5v28.5z" fill="#fe646f"/></g><g><g><path d="m422 256.5h-332c-4.143 0-7.5-3.357-7.5-7.5s3.357-7.5 7.5-7.5h332c4.143 0 7.5 3.357 7.5 7.5s-3.357 7.5-7.5 7.5z" fill="#6c7fd8"/></g></g><g><g><path d="m114 80.5h-31c-4.143 0-7.5-3.357-7.5-7.5s3.357-7.5 7.5-7.5h31c4.143 0 7.5 3.357 7.5 7.5s-3.357 7.5-7.5 7.5z" fill="#6c7fd8"/></g><g><path d="m114 104.5h-31c-4.143 0-7.5-3.357-7.5-7.5s3.357-7.5 7.5-7.5h31c4.143 0 7.5 3.357 7.5 7.5s-3.357 7.5-7.5 7.5z" fill="#6c7fd8"/></g></g><path d="m192.38 136.19c0-5.511 3.236-10.255 7.905-12.47-1.792-.851-3.789-1.34-5.905-1.34-7.627 0-13.81 6.183-13.81 13.81s6.182 13.81 13.81 13.81c2.116 0 4.113-.49 5.905-1.341-4.669-2.215-7.905-6.958-7.905-12.469z" fill="#fd4755"/><g fill="#0593fc"><path d="m156.38 104.19c0-5.511 3.236-10.255 7.905-12.47-1.792-.851-3.789-1.34-5.905-1.34-7.627 0-13.81 6.183-13.81 13.81s6.182 13.81 13.81 13.81c2.116 0 4.113-.49 5.905-1.341-4.669-2.215-7.905-6.958-7.905-12.469z"/><path d="m228 104.19c0-5.511 3.236-10.255 7.905-12.47-1.792-.851-3.789-1.34-5.905-1.34-7.627 0-13.81 6.183-13.81 13.81s6.183 13.81 13.81 13.81c2.116 0 4.113-.49 5.905-1.341-4.669-2.215-7.905-6.958-7.905-12.469z"/><path d="m318.38 116.19c0-5.511 3.236-10.255 7.905-12.47-1.792-.851-3.789-1.34-5.905-1.34-7.627 0-13.81 6.183-13.81 13.81s6.182 13.81 13.81 13.81c2.116 0 4.113-.49 5.905-1.341-4.669-2.215-7.905-6.958-7.905-12.469z"/><path d="m409 92.81c0-5.511 3.236-10.255 7.905-12.47-1.792-.85-3.789-1.34-5.905-1.34-7.627 0-13.81 6.183-13.81 13.81s6.183 13.81 13.81 13.81c2.116 0 4.113-.49 5.905-1.341-4.669-2.214-7.905-6.957-7.905-12.469z"/></g><path d="m280 150.19c0-5.511 3.236-10.255 7.905-12.47-1.792-.851-3.789-1.34-5.905-1.34-7.627 0-13.81 6.183-13.81 13.81s6.183 13.81 13.81 13.81c2.116 0 4.113-.49 5.905-1.341-4.669-2.215-7.905-6.958-7.905-12.469z" fill="#fd4755"/><path d="m353.38 150.19c0-5.511 3.236-10.255 7.905-12.47-1.792-.851-3.789-1.34-5.905-1.34-7.627 0-13.81 6.183-13.81 13.81s6.182 13.81 13.81 13.81c2.116 0 4.113-.49 5.905-1.341-4.669-2.215-7.905-6.958-7.905-12.469z" fill="#fd4755"/><path d="m75.52 360.456c.883 37.531 31.493 68.141 69.024 69.024 4.887.115 9.665-.268 14.287-1.098-32.447-5.842-57.448-34.062-58.245-67.926-.013-.571-.006-1.138-.006-1.706h-25.058c0 .569-.015 1.134-.002 1.706z" fill="#0593fc"/></g></svg>