<svg height="512" viewBox="0 0 64 64" width="512" xmlns="http://www.w3.org/2000/svg"><g id="Sale"><path d="m61 5v10h-58v-10a2.006 2.006 0 0 1 2-2h54a2.006 2.006 0 0 1 2 2z" fill="#1a6fb0"/><path d="m61 15v44a2.006 2.006 0 0 1 -2 2h-54a2.006 2.006 0 0 1 -2-2v-44z" fill="#e6e7e8"/><path d="m59 3h-3a2.006 2.006 0 0 1 2 2v10h3v-10a2.006 2.006 0 0 0 -2-2z" fill="#17619a"/><path d="m58 15v44a2.006 2.006 0 0 1 -2 2h3a2.006 2.006 0 0 0 2-2v-44z" fill="#bcbec0"/><circle cx="9" cy="9" fill="#d80027" r="2"/><circle cx="17" cy="9" fill="#ffcd00" r="2"/><circle cx="25" cy="9" fill="#5eac24" r="2"/><rect fill="#d80027" height="26" rx="4" width="42" x="11" y="25"/><path d="m49 25h-3a4 4 0 0 1 4 4v18a4 4 0 0 1 -4 4h3a4 4 0 0 0 4-4v-18a4 4 0 0 0 -4-4z" fill="#bd0022"/><path d="m32 35a3 3 0 0 0 -6 0v3h6z" fill="#d80027"/><g fill="#f1f2f2"><path d="m26 45a1 1 0 0 0 1-1v-5h4v5a1 1 0 0 0 2 0v-9a4 4 0 0 0 -8 0v9a1 1 0 0 0 1 1zm3-12a2 2 0 0 1 2 2v2h-4v-2a2 2 0 0 1 2-2z"/><path d="m37 45h3a1 1 0 0 0 0-2h-3a1 1 0 0 1 -1-1v-10a1 1 0 0 0 -2 0v10a3 3 0 0 0 3 3z"/><path d="m44 45h3a1 1 0 0 0 0-2h-3a1 1 0 0 1 -1-1v-3h3a1 1 0 0 0 0-2h-3v-3a1 1 0 0 1 1-1h3a1 1 0 0 0 0-2h-3a3 3 0 0 0 -3 3v8a3 3 0 0 0 3 3z"/><path d="m20 43a2 2 0 0 1 -2-2 1 1 0 0 0 -2 0 4 4 0 1 0 4-4 2 2 0 1 1 2-2 1 1 0 0 0 2 0 4 4 0 1 0 -4 4 2 2 0 0 1 0 4z"/></g></g></svg>