<svg id="flat" enable-background="new 0 0 32 32" viewBox="0 0 32 32" xmlns="http://www.w3.org/2000/svg"><g><path d="m26.5 0c-3 0-5.5 2.5-5.5 5.5s2.5 5.5 5.5 5.5 5.5-2.5 5.5-5.5-2.5-5.5-5.5-5.5zm2.4 6.7c.1-.4.1-.8.1-1.2s0-.8-.1-1.2c1.3.3 2.1.8 2.1 1.2s-.8.9-2.1 1.2zm-2.4 3.3c-.4 0-.9-.8-1.2-2.1.4.1.8.1 1.2.1s.8 0 1.2-.1c-.3 1.3-.8 2.1-1.2 2.1zm0-3c-.5 0-1 0-1.4-.1-.1-.4-.1-.9-.1-1.4s0-1 .1-1.4c.4-.1.9-.1 1.4-.1s1 0 1.4.1c.1.4.1.9.1 1.4s0 1-.1 1.4c-.4.1-.9.1-1.4.1zm-4.5-1.5c0-.4.8-.9 2.1-1.2-.1.4-.1.8-.1 1.2s0 .8.1 1.2c-1.3-.3-2.1-.8-2.1-1.2zm4.5-4.5c.4 0 .9.8 1.2 2.1-.4-.1-.8-.1-1.2-.1s-.8 0-1.2.1c.3-1.3.8-2.1 1.2-2.1zm4.2 2.8c-.5-.3-1.2-.5-1.9-.6-.1-.7-.3-1.4-.6-1.9 1.1.5 2 1.4 2.5 2.5zm-5.9-2.5c-.3.5-.5 1.2-.6 1.9-.7.1-1.4.3-1.9.6.5-1.1 1.4-2 2.5-2.5zm-2.5 5.9c.5.3 1.2.5 1.9.6.1.7.3 1.4.6 1.9-1.1-.5-2-1.4-2.5-2.5zm5.9 2.5c.3-.5.5-1.2.6-1.9.7-.1 1.4-.3 1.9-.6-.5 1.1-1.4 2-2.5 2.5z" fill="#009be0"/><g fill="#767684"><path d="m20 26h-.5c-.3 0-.5-.2-.5-.5s.2-.5.5-.5h.5c.3 0 .5.2.5.5s-.2.5-.5.5z"/><path d="m23.6 26h-.9c-.3 0-.5-.2-.5-.5s.2-.5.5-.5h.9c.3 0 .5.2.5.5s-.2.5-.5.5zm2.5-.8c-.1 0-.2 0-.3-.1-.2-.2-.3-.5-.1-.7.1-.2.2-.4.3-.6.1-.3.3-.4.6-.4.3.1.4.3.4.6-.1.4-.2.7-.5 1-.1.2-.3.2-.4.2zm.4-3.5c-.3 0-.5-.2-.5-.5v-.9c0-.3.2-.5.5-.5s.5.2.5.5v.9c0 .3-.2.5-.5.5zm0-3.6c-.3 0-.5-.2-.5-.5v-.9c0-.3.2-.5.5-.5s.5.2.5.5v.9c0 .3-.2.5-.5.5z"/><path d="m26.5 14.5c-.3 0-.5-.2-.5-.5v-.5c0-.3.2-.5.5-.5s.5.2.5.5v.5c0 .3-.2.5-.5.5z"/></g><path d="m17 31.4-.7-2.8c-.1-.5-.4-.9-.8-1.3-.1-.1-.3-.2-.5-.1l-5 1.8c-.7-.2-3.8-1.2-4.9-1.8-.2-.1-.4-.1-.5.1-.4.3-.7.8-.8 1.3l-.8 2.8c0 .1 0 .3.1.4s.2.2.4.2h13c.2 0 .3-.1.4-.2s.1-.3.1-.4z" fill="#333338"/><path d="m15.5 27.3c-.3-.3-.7-.5-1-.6l-2.9-.7h-.1-3-.1l-2.8.7c-.4.1-.7.3-1 .6-.1.1-.2.3-.2.4 0 .2.1.3.3.4 1.3.7 5 1.8 5.2 1.9h.1.2l5.2-1.8c.2-.1.3-.2.3-.4s-.1-.4-.2-.5z" fill="#09ad4f"/><path d="m6.5 22c-.1 0-.3 0-.4-.1l-.4-.4c-.4-.5-.7-1.2-.7-1.8v-1.2c0-.3.2-.5.5-.5s.5.2.5.5v1.2c0 .4.2.8.4 1.1l.4.4c.2.2.2.5 0 .7 0 .1-.2.1-.3.1z" fill="#333338"/><path d="m13.5 22c-.1 0-.3 0-.4-.1-.2-.2-.2-.5 0-.7l.4-.4c.3-.3.4-.7.4-1.1v-1.2c0-.3.2-.5.5-.5s.5.2.5.5v1.2c0 .7-.3 1.3-.7 1.8l-.4.4c0 .1-.2.1-.3.1z" fill="#333338"/><path d="m11.5 25h-3c-.3 0-.5.2-.5.5v.5c0 1.1.9 2 2 2s2-.9 2-2v-.5c0-.3-.2-.5-.5-.5z" fill="#f2a057"/><path d="m10 26c-.3 0-.5 0-.8-.1-1.7-.3-3.2-2.2-3.2-4.1v-2.7c0-.3.2-.5.5-.5h7c.3 0 .5.2.5.5v2.9c0 1.1-.4 2.1-1.2 2.8-.7.8-1.7 1.2-2.8 1.2z" fill="#ffbe7d"/><path d="m19.7 15.5-9.5-3.5c-.1 0-.2 0-.3 0l-9.5 3.5c-.3.1-.4.3-.4.5s.1.4.3.5l5 2.2h.2 9 .2l5-2.2c.2-.1.3-.3.3-.5s-.1-.4-.3-.5z" fill="#333338"/><path d="m14.7 15.7c-.9-.5-3-.7-4.7-.7s-3.8.2-4.7.7c-.2.1-.3.3-.3.4v3c0 .2.1.3.2.4s.3.1.5 0c.6-.3 2.4-.5 4.3-.5s3.7.2 4.3.6c.1 0 .2.1.2.1.1 0 .2 0 .3-.1.2-.1.2-.3.2-.4v-3c0-.2-.1-.4-.3-.5z" fill="#444449"/><path d="m18.5 20c-.3 0-.5-.2-.5-.5v-3.9c0-.3.2-.5.5-.5s.5.2.5.5v3.9c0 .3-.2.5-.5.5z" fill="#ffb000"/><circle cx="18.5" cy="20.5" fill="#ed412f" r="1.5"/></g></svg>