<svg clip-rule="evenodd" fill-rule="evenodd" height="512" image-rendering="optimizeQuality" shape-rendering="geometricPrecision" text-rendering="geometricPrecision" viewBox="0 0 11806 11806" width="512" xmlns="http://www.w3.org/2000/svg"><g id="Layer_x0020_1"><circle cx="5903" cy="5903" fill="#05b443" r="5903"/><g fill="#fff"><path d="m4803 8566c-1152-276-2058-1185-2332-2336 299 373 816 684 1441 887 202 628 515 1148 891 1449zm-661-1381c402 109 842 173 1292 182v1279c-539-67-1011-654-1292-1461zm-1745-1587h1267c9 446 71 881 178 1281-798-281-1377-747-1445-1281zm1470 0h1567v1039c-38 171-47 348-26 521-470-12-929-85-1341-206-120-417-192-880-200-1354zm1775 0h609c-146 72-283 169-405 290-78 78-146 162-204 251zm1979 0h868c-22 195-104 386-245 566-61-98-134-191-219-276-121-121-258-218-404-290zm726 763c194-224 309-467 341-717-17 368-98 729-237 1067-21-120-56-237-104-350zm-1774 2118c-158 54-321 97-488 126 81-65 159-137 235-211 82 35 166 64 253 85zm-437-181c-157 156-324 298-494 341v-826c58 90 125 175 203 254 89 90 187 167 291 231zm-3665-3532c273-1142 1169-2044 2306-2326-365 307-669 821-866 1438-623 203-1140 514-1440 888zm2953-2417c4-1 7-1 10-1v1278c-448 9-886 74-1288 182 280-801 746-1386 1278-1459zm10 1474v1573h-1567c10-479 84-946 208-1367 417-122 883-196 1359-206zm-1769 1573h-1268c63-538 645-1009 1448-1292-108 403-172 842-180 1292zm1977-3048c3 0 7 0 10 1 533 74 998 662 1277 1466-391-113-826-181-1287-189zm651 90c1331 328 2329 1503 2395 2915-81-622-673-1159-1525-1462-198-624-503-1144-870-1453zm2197 2958h-1084c-9-442-71-874-176-1273 719 286 1205 747 1260 1273zm-1287 0h-1561v-1573c493 9 955 87 1358 218 121 417 193 881 203 1355z"/><path d="m8148 8294c-24 0-52-11-70-29l-324-324c-40-40-40-104 0-144 41-41 104-41 145 0l324 324c40 40 40 104 0 144-23 18-52 29-75 29z"/><path d="m8987 9457c-110 0-220-40-301-121l-608-619c-162-162-162-434 0-596 81-81 185-122 301-122s220 47 301 122l608 613c162 162 162 434 0 602-82 81-191 121-301 121z"/><path d="m6938 8335c-364 0-706-139-960-399-527-527-527-1389 0-1916 532-526 1389-526 1915 0 527 527 527 1389 0 1916-255 260-590 399-955 399zm0-388c-248 0-491-92-682-283-377-376-377-990 0-1366 376-376 989-376 1365 0s376 990 0 1366c-191 185-434 283-683 283zm0-1730c-196 0-387 75-538 220-295 295-295 781 0 1076s781 295 1076 0c296-295 296-781 0-1076-150-145-341-220-538-220z"/></g></g></svg>