<svg id="Layer_1" enable-background="new 0 0 100 100" viewBox="0 0 100 100" xmlns="http://www.w3.org/2000/svg" xmlns:xlink="http://www.w3.org/1999/xlink"><linearGradient id="Background_13_" gradientTransform="matrix(60 0 0 -60 -2993 37639)" gradientUnits="userSpaceOnUse" x1="50.723" x2="50.723" y1="627.233" y2="625.746"><stop offset="0" stop-color="#62fa7f"/><stop offset=".6865" stop-color="#22cc40"/><stop offset="1" stop-color="#05b723"/></linearGradient><g id="Graphics-_x2F_-App-Icons-_x2F_-WhatsApp"><g id="Icon_6_"><path id="Background_7_" d="m28.4 5c-.5 0-1.5 0-2.4 0-2 .1-4.6.2-5.7.5-1.8.4-3.5.9-4.9 1.6-1.6.8-3.1 1.9-4.4 3.2s-2.3 2.7-3.2 4.4c-.7 1.4-1.3 3.1-1.6 4.8-.2 1.2-.4 3.8-.5 5.8v2.4 43.9 2.4c.1 2 .2 4.6.5 5.7.4 1.8.9 3.5 1.6 4.9.8 1.6 1.9 3.1 3.2 4.4s2.7 2.3 4.4 3.2c1.4.7 3.1 1.3 4.8 1.6 1.2.2 3.8.4 5.8.5h2.4 43.9 2.4c2-.1 4.6-.2 5.7-.5 1.8-.4 3.5-.9 4.9-1.6 1.6-.8 3.1-1.9 4.4-3.2s2.3-2.7 3.2-4.4c.7-1.4 1.3-3.1 1.6-4.8.2-1.2.4-3.8.5-5.8 0-.8 0-1.9 0-2.4v-43.9c0-.5 0-1.5 0-2.4-.1-2-.2-4.6-.5-5.7-.4-1.8-.9-3.5-1.6-4.9-.8-1.6-1.9-3.1-3.2-4.4s-2.7-2.3-4.4-3.2c-1.4-.7-3.1-1.3-4.8-1.6-1.2-.2-3.8-.4-5.8-.5-.8 0-1.9 0-2.4 0z" fill="url(#Background_13_)"/><path id="WhatsApp-Icon" d="m66.6 54.4c-.8-.4-4.8-2.3-5.5-2.6s-1.3-.4-1.8.4-2.1 2.6-2.5 3.1c-.5.5-.9.6-1.7.2s-3.4-1.2-6.5-3.9c-2.4-2.1-4-4.7-4.5-5.5s0-1.2.4-1.6.8-.9 1.2-1.4.5-.8.8-1.3.1-1-.1-1.4-1.8-4.3-2.5-5.9c-.7-1.5-1.3-1.3-1.8-1.4-.5 0-1 0-1.5 0s-1.4.2-2.1 1-2.8 2.7-2.8 6.6 2.9 7.6 3.3 8.2c.4.5 5.7 8.5 13.7 11.9 1.9.8 3.4 1.3 4.6 1.7 1.9.6 3.7.5 5.1.3 1.5-.2 4.8-1.9 5.4-3.7.7-1.8.7-3.4.5-3.7-.4-.4-.9-.6-1.7-1m-15.3 20.6c-4.8 0-9.4-1.3-13.5-3.7l-1-.6-10 2.6 2.7-9.7-.6-1c-2.6-4.2-4-9-4-14 0-14.5 11.9-26.3 26.5-26.3 6.9 0 13.6 2.7 18.6 7.7s7.7 11.6 7.7 18.6c0 14.5-11.9 26.4-26.4 26.4m22.5-48.8c-6-6-14-9.3-22.5-9.3-17.5 0-31.8 14.2-31.8 31.7 0 5.6 1.5 11 4.2 15.8l-4.5 16.4 16.8-4.4c4.6 2.5 9.9 3.9 15.2 3.9 17.5 0 31.8-14.2 31.8-31.7.1-8.4-3.2-16.4-9.2-22.4" fill="#fff"/></g></g></svg>