<svg id="Capa_1" enable-background="new 0 0 512 512" height="512" viewBox="0 0 512 512" width="512" xmlns="http://www.w3.org/2000/svg"><g><g><path d="m499.952 216.46-43.544 43.544c-6.072 6.062-15.917 6.062-21.979 0l-43.544-43.544c-6.072-6.073-6.072-15.906 0-21.979 3.036-3.036 7.016-4.56 10.995-4.56s7.958 1.524 10.995 4.56l16.995 16.995v-71.285c0-3.503-2.839-6.342-6.342-6.342h-70.254v-31.088h70.265c20.672 0 37.43 16.758 37.43 37.43v71.285l16.684-16.684c5.917-5.927 15.565-6.466 21.751-.829 6.61 6.01 6.786 16.248.548 22.497z" fill="#8ac9fe"/><g fill="#60b7ff"><path d="m499.403 193.963c-5.809-5.294-14.67-5.14-20.628-.193.069.064.133.128.204.193 6.611 6.01 6.787 16.249.549 22.497l-35.485 35.485c-3.63 3.624-8.605 5.064-13.317 4.355l3.703 3.703c6.062 6.062 15.907 6.062 21.979 0l43.544-43.544c6.238-6.248 6.062-16.486-.549-22.496z"/><path d="m440.544 140.191v67.285c0 2.209 1.791 4 4 4h16.424v-71.285c0-20.672-16.758-37.43-37.43-37.43h-20.424c20.672 0 37.43 16.758 37.43 37.43z"/><path d="m390.885 194.481c-.241.241-.455.497-.677.749 2.57.679 5.004 2.013 7.019 4.028l10.139 10.139c1.331 1.331 3.136 2.079 5.019 2.079h17.484l-16.995-16.995c-3.036-3.036-7.016-4.56-10.995-4.56-3.978 0-7.957 1.524-10.994 4.56z"/></g><path d="m12.048 216.46 43.544 43.544c6.072 6.062 15.917 6.062 21.979 0l43.544-43.544c6.072-6.073 6.072-15.906 0-21.979-3.036-3.036-7.016-4.56-10.995-4.56s-7.958 1.524-10.995 4.56l-16.995 16.995v-71.285c0-3.503 2.839-6.342 6.342-6.342h71.208v-31.088h-71.218c-20.672 0-37.43 16.758-37.43 37.43v71.285l-16.684-16.684c-5.917-5.927-15.565-6.466-21.751-.829-6.612 6.01-6.788 16.248-.549 22.497z" fill="#8ac9fe"/><g fill="#60b7ff"><path d="m61.706 140.191v67.3c0 2.201 1.784 3.985 3.985 3.985h16.439v-71.285c0-3.503 2.839-6.342 6.342-6.342h-20.424c-3.503 0-6.342 2.839-6.342 6.342z"/><path d="m21.489 202.357 7.171 7.171c1.247 1.247 2.938 1.948 4.702 1.948h17.67l-16.684-16.684c-5.917-5.927-15.565-6.466-21.751-.829-1.2 1.091-2.182 2.325-2.958 3.646 4.282-.103 8.621 1.513 11.85 4.748z"/><path d="m138.302 102.761h21.378v31.088h-21.378z"/><path d="m110.119 189.921c-3.649 0-7.289 1.297-10.211 3.851.284.249.571.495.841.768 6.068 6.132 5.718 16.144-.382 22.244l-34.587 34.587c-3.997 3.997-9.634 5.341-14.754 4.068l4.566 4.566c6.073 6.062 15.917 6.062 21.979 0l43.544-43.544c6.072-6.073 6.072-15.906 0-21.979-3.037-3.037-7.016-4.561-10.996-4.561z"/></g><path d="m271.646 370.719v-154.417h-30.338v154.417c0 3.851-3.122 6.974-6.974 6.974h-32.287v30.338h108.861v-30.338h-32.288c-3.852-.001-6.974-3.123-6.974-6.974z" fill="#8ac9fe"/><g fill="#60b7ff"><path d="m258.196 377.692h20.424c-3.851 0-6.974-3.122-6.974-6.974v-154.416h-20.424v154.417c0 3.851 3.122 6.973 6.974 6.973z"/><path d="m290.483 377.692h20.424v30.338h-20.424z"/></g><g><path d="m307.703 216.302h-102.452c-25.168 0-45.57-20.402-45.57-45.57v-102.453c0-25.168 20.402-45.57 45.57-45.57h102.452c25.168 0 45.57 20.402 45.57 45.57v102.452c0 25.169-20.402 45.571-45.57 45.571z" fill="#22b27f"/><path d="m307.703 22.709h-36.632c25.168 0 45.57 20.403 45.57 45.57v102.452c0 25.168-20.402 45.57-45.57 45.57h36.632c25.168 0 45.57-20.402 45.57-45.57v-102.451c0-25.168-20.402-45.571-45.57-45.571z" fill="#09a76d"/><g><path d="m256.477 136.394c-13.746 0-24.889-11.143-24.889-24.889v-10.211c0-13.746 11.143-24.889 24.889-24.889 13.746 0 24.889 11.143 24.889 24.889v10.211c0 13.746-11.143 24.889-24.889 24.889z" fill="#ffe5c2"/><path d="m256.477 76.406c-3.641 0-7.095.788-10.212 2.193 8.651 3.899 14.677 12.591 14.677 22.696v10.211c0 10.105-6.026 18.797-14.677 22.696 3.117 1.405 6.571 2.193 10.212 2.193 13.746 0 24.889-11.143 24.889-24.889v-10.211c0-13.746-11.143-24.889-24.889-24.889z" fill="#fed2a4"/><path d="m282.305 136.394h-51.657c-13.051 0-23.63 10.58-23.63 23.63v56.278h98.917v-56.278c0-13.05-10.579-23.63-23.63-23.63z" fill="#d8ecfe"/><g fill="#c4e2ff"><path d="m271.071 216.302h34.864v-16.237c-8.359 9.925-20.872 16.237-34.864 16.237z"/><path d="m282.305 136.394h-20.424c13.05 0 23.63 10.579 23.63 23.63v56.278h20.424v-56.278c0-13.05-10.579-23.63-23.63-23.63z"/></g></g></g><g><g><path d="m156.476 489.291h-102.452c-25.168 0-45.57-20.402-45.57-45.57v-102.453c0-25.168 20.402-45.57 45.57-45.57h102.452c25.168 0 45.57 20.402 45.57 45.57v102.452c.001 25.168-20.402 45.571-45.57 45.571z" fill="#e759aa"/><path d="m156.476 295.698h-36.632c25.168 0 45.57 20.402 45.57 45.57v102.452c0 25.168-20.402 45.57-45.57 45.57h36.632c25.168 0 45.57-20.402 45.57-45.57v-102.452c.001-25.168-20.402-45.57-45.57-45.57z" fill="#dd4aa5"/><g><path d="m105.25 409.383c-13.746 0-24.889-11.143-24.889-24.889v-10.211c0-13.746 11.143-24.889 24.889-24.889 13.746 0 24.889 11.143 24.889 24.889v10.211c0 13.746-11.143 24.889-24.889 24.889z" fill="#fff3de"/><path d="m105.25 349.395c-3.641 0-7.095.788-10.212 2.193 8.651 3.899 14.677 12.591 14.677 22.696v10.211c0 10.105-6.026 18.797-14.677 22.696 3.117 1.405 6.571 2.193 10.212 2.193 13.746 0 24.889-11.143 24.889-24.889v-10.211c0-13.746-11.143-24.889-24.889-24.889z" fill="#ffe5c2"/><path d="m131.079 409.383h-51.657c-13.051 0-23.63 10.58-23.63 23.63v56.278h98.917v-56.278c0-13.051-10.58-23.63-23.63-23.63z" fill="#f6a6d2"/><g fill="#f28cc4"><path d="m119.844 489.29h34.864v-16.237c-8.359 9.926-20.872 16.237-34.864 16.237z"/><path d="m131.079 409.383h-20.424c13.05 0 23.63 10.58 23.63 23.63v56.278h20.424v-56.278c0-13.051-10.58-23.63-23.63-23.63z"/></g></g></g><g><path d="m458.93 489.291h-102.453c-25.168 0-45.57-20.402-45.57-45.57v-102.453c0-25.168 20.402-45.57 45.57-45.57h102.453c25.168 0 45.57 20.402 45.57 45.57v102.452c0 25.168-20.403 45.571-45.57 45.571z" fill="#80d261"/><path d="m458.93 295.698h-36.632c25.168 0 45.57 20.402 45.57 45.57v102.452c0 25.168-20.402 45.57-45.57 45.57h36.632c25.168 0 45.57-20.402 45.57-45.57v-102.452c0-25.168-20.403-45.57-45.57-45.57z" fill="#62c13a"/><g><path d="m407.703 409.383c-13.746 0-24.889-11.143-24.889-24.889v-10.211c0-13.746 11.143-24.889 24.889-24.889 13.746 0 24.889 11.143 24.889 24.889v10.211c0 13.746-11.143 24.889-24.889 24.889z" fill="#ffe5c2"/><path d="m407.703 349.395c-3.641 0-7.095.788-10.212 2.193 8.651 3.899 14.677 12.591 14.677 22.696v10.211c0 10.105-6.026 18.797-14.677 22.696 3.117 1.405 6.571 2.193 10.212 2.193 13.746 0 24.889-11.143 24.889-24.889v-10.211c0-13.746-11.143-24.889-24.889-24.889z" fill="#fed2a4"/><path d="m433.532 409.383h-51.657c-13.051 0-23.63 10.58-23.63 23.63v56.278h98.917v-56.278c0-13.051-10.58-23.63-23.63-23.63z" fill="#22b27f"/><g fill="#09a76d"><path d="m422.297 489.29h34.864v-16.237c-8.358 9.926-20.871 16.237-34.864 16.237z"/><path d="m433.532 409.383h-20.424c13.051 0 23.63 10.58 23.63 23.63v56.278h20.424v-56.278c0-13.051-10.58-23.63-23.63-23.63z"/></g></g></g></g></g><path d="m458.93 288.198h-102.453c-29.263 0-53.07 23.808-53.07 53.07v28.924h-24.261v-146.39h28.557c29.263 0 53.07-23.807 53.07-53.069v-29.383h61.597v52.02l-4.191-4.192c-4.357-4.356-10.146-6.756-16.299-6.756-6.152 0-11.94 2.399-16.298 6.757-8.983 8.984-8.982 23.603 0 32.586l43.543 43.544c4.489 4.488 10.388 6.733 16.288 6.732 5.899 0 11.803-2.244 16.299-6.732l43.548-43.549c4.432-4.438 6.886-10.58 6.733-16.851-.153-6.354-2.833-12.211-7.538-16.489-9.114-8.305-23.219-7.834-32.107 1.069l-3.88 3.881v-53.178c0-24.774-20.155-44.93-44.93-44.93h-35.186c-4.143 0-7.5 3.357-7.5 7.5s3.357 7.5 7.5 7.5h35.186c16.503 0 29.93 13.427 29.93 29.93v71.284c0 3.033 1.827 5.769 4.63 6.929 2.803 1.162 6.027.52 8.174-1.625l16.688-16.688c3.163-3.168 8.272-3.428 11.399-.578 1.648 1.498 2.586 3.544 2.64 5.759.054 2.224-.782 4.315-2.35 5.885l-43.539 43.54c-3.142 3.135-8.245 3.138-11.377.004l-43.543-43.544c-3.136-3.135-3.136-8.237 0-11.372 1.523-1.524 3.544-2.363 5.69-2.363s4.168.839 5.691 2.363l16.995 16.995c2.146 2.144 5.37 2.786 8.174 1.625 2.803-1.16 4.63-3.896 4.63-6.929v-71.284c0-7.633-6.21-13.842-13.843-13.842h-62.754v-58.07c0-29.263-23.808-53.07-53.07-53.07h-102.452c-29.263 0-53.07 23.808-53.07 53.07v26.982h-63.719c-24.774 0-44.93 20.155-44.93 44.93v53.178l-3.875-3.876c-8.891-8.907-22.996-9.38-32.104-1.08-4.711 4.284-7.391 10.143-7.545 16.495-.152 6.271 2.302 12.412 6.733 16.851.001.001.003.003.004.005l43.548 43.548c4.494 4.486 10.394 6.729 16.292 6.729 5.9 0 11.8-2.245 16.289-6.733l43.544-43.544c8.983-8.983 8.983-23.602 0-32.587-4.357-4.356-10.145-6.756-16.298-6.756s-11.941 2.399-16.298 6.757l-4.191 4.19v-52.02h62.55v29.383c0 29.263 23.807 53.069 53.07 53.069h28.557v146.391h-24.261v-28.924c0-29.263-23.807-53.07-53.07-53.07h-17.441c-4.142 0-7.5 3.357-7.5 7.5s3.358 7.5 7.5 7.5h17.441c20.992 0 38.07 17.078 38.07 38.07v102.452c0 19.044-14.056 34.865-32.338 37.638v-48.346c0-16.678-13.185-30.332-29.678-31.093 3.228-5.035 5.109-11.013 5.109-17.426v-10.211c0-17.859-14.529-32.389-32.389-32.389s-32.389 14.529-32.389 32.389v10.211c0 6.412 1.881 12.39 5.108 17.426-16.494.761-29.678 14.415-29.678 31.093v48.346c-18.282-2.773-32.338-18.594-32.338-37.638v-102.453c0-20.992 17.078-38.07 38.07-38.07h49.874c4.142 0 7.5-3.357 7.5-7.5s-3.358-7.5-7.5-7.5h-49.874c-29.263 0-53.07 23.808-53.07 53.07v102.452c0 29.263 23.807 53.07 53.07 53.07h102.452c29.263 0 53.07-23.808 53.07-53.07v-28.189h93.86v28.189c0 29.263 23.808 53.07 53.07 53.07h102.452c29.263 0 53.07-23.808 53.07-53.07v-102.452c.002-29.262-23.806-53.07-53.068-53.07zm-371.068 86.085c0-9.588 7.8-17.389 17.389-17.389s17.389 7.801 17.389 17.389v10.211c0 9.588-7.8 17.389-17.389 17.389s-17.389-7.801-17.389-17.389zm-24.57 107.508v-48.778c0-8.895 7.236-16.13 16.13-16.13h18.328v17.304c0 4.143 3.358 7.5 7.5 7.5s7.5-3.357 7.5-7.5v-17.304h18.328c8.895 0 16.13 7.235 16.13 16.13v48.778zm25.18-355.441c-7.632 0-13.842 6.209-13.842 13.842v71.284c0 3.033 1.827 5.769 4.63 6.929 2.804 1.162 6.029.521 8.173-1.626l16.995-16.994c1.524-1.524 3.545-2.363 5.691-2.363s4.168.839 5.691 2.362c3.135 3.136 3.136 8.238 0 11.373l-43.543 43.543c-3.133 3.133-8.237 3.133-11.373 0l-43.543-43.544c-1.568-1.573-2.402-3.663-2.349-5.885.054-2.215.991-4.26 2.646-5.765 3.121-2.846 8.231-2.582 11.396.589l16.684 16.684c2.145 2.146 5.372 2.787 8.173 1.625 2.803-1.16 4.63-3.896 4.63-6.929v-71.284c0-16.503 13.427-29.93 29.93-29.93h63.719v16.088h-63.708zm78.708 44.382v-102.453c0-20.992 17.078-38.07 38.07-38.07h102.452c20.992 0 38.07 17.078 38.07 38.07v102.453c0 19.043-14.056 34.864-32.338 37.637v-48.345c0-16.678-13.185-30.332-29.678-31.093 3.228-5.035 5.109-11.013 5.109-17.426v-10.211c0-17.859-14.529-32.389-32.389-32.389-17.859 0-32.389 14.529-32.389 32.389v10.211c0 6.412 1.881 12.39 5.108 17.426-16.494.761-29.678 14.415-29.678 31.093v48.345c-18.281-2.772-32.337-18.593-32.337-37.637zm71.908-59.226v-10.211c0-9.588 7.8-17.389 17.389-17.389s17.389 7.801 17.389 17.389v10.211c0 9.588-7.801 17.389-17.389 17.389s-17.389-7.801-17.389-17.389zm-24.57 48.518c0-8.894 7.236-16.13 16.13-16.13h18.329v17.303c0 4.143 3.358 7.5 7.5 7.5s7.5-3.357 7.5-7.5v-17.303h18.329c8.894 0 16.13 7.236 16.13 16.13v48.777h-83.917v-48.777zm-4.971 240.507v-15.339h24.787c7.981 0 14.474-6.493 14.474-14.474v-146.916h15.339v146.917c0 7.98 6.493 14.474 14.474 14.474h24.787v15.339h-93.861zm156.198 81.26v-48.778c0-8.895 7.235-16.13 16.13-16.13h18.328v17.304c0 4.143 3.357 7.5 7.5 7.5s7.5-3.357 7.5-7.5v-17.304h18.329c8.895 0 16.13 7.235 16.13 16.13v48.778zm24.569-97.297v-10.211c0-9.588 7.801-17.389 17.39-17.389 9.588 0 17.389 7.801 17.389 17.389v10.211c0 9.588-7.801 17.389-17.389 17.389h-.001c-9.588 0-17.389-7.801-17.389-17.389zm106.686 59.227c0 19.044-14.056 34.865-32.338 37.638v-48.346c0-16.678-13.185-30.332-29.678-31.093 3.228-5.035 5.109-11.013 5.109-17.426v-10.211c0-17.859-14.53-32.389-32.39-32.389s-32.389 14.529-32.389 32.389v10.211c0 6.412 1.881 12.39 5.109 17.426-16.493.761-29.678 14.415-29.678 31.093v48.346c-18.282-2.773-32.338-18.594-32.338-37.638v-102.453c0-20.992 17.078-38.07 38.07-38.07h102.453c20.992 0 38.07 17.078 38.07 38.07z"/></g></svg>