<svg id="Layer_1" enable-background="new 0 0 468 468" viewBox="0 0 468 468" xmlns="http://www.w3.org/2000/svg" xmlns:xlink="http://www.w3.org/1999/xlink"><defs><path id="SVGID_1_" d="m375.311 425.334c35.35-23.106 61.6-57.744 74.204-98.015 32.274-103.115 26.872-197.742-20.635-255.61-12.179-14.835-45.032-54.854-101.972-65.656-13.647-2.589-70.648-11.462-112.41 21.358-36.844 28.956-23.577 60.305-58.614 83.85-38.407 25.81-68.002-2.684-104.381 18.194-49.306 28.298-60.056 118.016-40.145 182.731.337 1.096.683 2.185 1.037 3.265 12.537 38.243 38.044 70.924 71.555 93.27l23.071 15.384c81.099 54.076 186.698 54.561 268.29 1.229z"/><clipPath id="SVGID_2_"><use xlink:href="#SVGID_1_"/></clipPath></defs><g><g><use fill="#e7e6ff" xlink:href="#SVGID_1_"/><g clip-path="url(#SVGID_2_)"><g><path d="m467.898 59.03h-463.966c-1.086 0-1.966-.88-1.966-1.966s.88-1.966 1.966-1.966h463.966c1.086 0 1.966.88 1.966 1.966s-.88 1.966-1.966 1.966z" fill="#fff"/></g><g><path d="m467.898 29.54h-463.966c-1.086 0-1.966-.88-1.966-1.966s.88-1.966 1.966-1.966h463.966c1.086 0 1.966.88 1.966 1.966s-.88 1.966-1.966 1.966z" fill="#fff"/></g><g><path d="m467.898 88.519h-463.966c-1.086 0-1.966-.88-1.966-1.966s.88-1.966 1.966-1.966h463.966c1.086 0 1.966.88 1.966 1.966s-.88 1.966-1.966 1.966z" fill="#fff"/></g><g><path d="m467.898 118.009h-463.966c-1.086 0-1.966-.88-1.966-1.966s.88-1.966 1.966-1.966h463.966c1.086 0 1.966.88 1.966 1.966 0 1.085-.88 1.966-1.966 1.966z" fill="#fff"/></g><g><path d="m467.898 147.498h-463.966c-1.086 0-1.966-.88-1.966-1.966s.88-1.966 1.966-1.966h463.966c1.086 0 1.966.88 1.966 1.966s-.88 1.966-1.966 1.966z" fill="#fff"/></g><g><path d="m467.898 176.987h-463.966c-1.086 0-1.966-.88-1.966-1.966s.88-1.966 1.966-1.966h463.966c1.086 0 1.966.88 1.966 1.966s-.88 1.966-1.966 1.966z" fill="#fff"/></g><g><path d="m469.847 206.477h-468.817c-1.991-1.733-.778-3.932.952-3.932h468.818c1.99 1.733.778 3.932-.953 3.932z" fill="#fff"/></g><g><path d="m469.847 235.966h-467.865c-1.094 0-1.982-.88-1.982-1.966s.888-1.966 1.982-1.966h467.865c1.095 0 1.982.88 1.982 1.966s-.887 1.966-1.982 1.966z" fill="#fff"/></g><g><path d="m469.847 265.455h-467.865c-1.095 0-1.982-.88-1.982-1.966s.888-1.966 1.982-1.966h467.865c1.095 0 1.982.88 1.982 1.966s-.887 1.966-1.982 1.966z" fill="#fff"/></g><g><path d="m467.898 294.945h-463.966c-1.086 0-1.966-.88-1.966-1.966s.88-1.966 1.966-1.966h463.966c1.086 0 1.966.88 1.966 1.966s-.88 1.966-1.966 1.966z" fill="#fff"/></g><g><path d="m467.898 324.434h-463.966c-1.086 0-1.966-.88-1.966-1.966s.88-1.966 1.966-1.966h463.966c1.086 0 1.966.88 1.966 1.966s-.88 1.966-1.966 1.966z" fill="#fff"/></g><g><path d="m467.898 353.923h-463.966c-1.086 0-1.966-.88-1.966-1.966s.88-1.966 1.966-1.966h463.966c1.086 0 1.966.88 1.966 1.966s-.88 1.966-1.966 1.966z" fill="#fff"/></g><g><path d="m467.898 383.413h-463.966c-1.086 0-1.966-.88-1.966-1.966s.88-1.966 1.966-1.966h463.966c1.086 0 1.966.88 1.966 1.966s-.88 1.966-1.966 1.966z" fill="#fff"/></g><g><path d="m467.898 412.902h-463.966c-1.086 0-1.966-.88-1.966-1.966s.88-1.966 1.966-1.966h463.966c1.086 0 1.966.88 1.966 1.966s-.88 1.966-1.966 1.966z" fill="#fff"/></g><g><path d="m467.898 442.391h-463.966c-1.086 0-1.966-.88-1.966-1.966s.88-1.966 1.966-1.966h463.966c1.086 0 1.966.88 1.966 1.966s-.88 1.966-1.966 1.966z" fill="#fff"/></g></g></g><g><g><g><g><g><path d="m31.676 407.654h31.61v89.082h-31.61z" fill="#fc6" transform="matrix(0 -1 1 0 -404.714 499.676)"/></g><g><path d="m35.807 444.472h60.042v15.446h-60.042z" fill="#fff"/></g><g><circle cx="19.284" cy="452.195" fill="#fff" r="7.543"/></g><g><circle cx="19.284" cy="452.195" fill="#fc6" r="4.849"/></g></g><g><g><path d="m53.229 376.044h31.61v89.082h-31.61z" fill="#35c9ad" transform="matrix(0 -1 1 0 -351.552 489.619)"/></g><g><path d="m57.359 412.862h50.288v15.446h-50.288z" fill="#fff"/></g><g><circle cx="40.836" cy="420.585" fill="#fff" r="7.543"/></g><g><circle cx="40.836" cy="420.585" fill="#35c9ad" r="4.849"/></g></g><g><g><path d="m31.676 344.434h31.61v89.082h-31.61z" fill="#7b3eff" transform="matrix(0 -1 1 0 -341.494 436.457)"/></g><g><path d="m35.807 381.253h56.45v15.446h-56.45z" fill="#fff"/></g><g><circle cx="19.284" cy="388.975" fill="#fff" r="7.543"/></g><g><circle cx="19.284" cy="388.975" fill="#7b3eff" r="4.849"/></g></g><g><g><path d="m53.182 312.824h31.61v89.082h-31.61z" fill="#fc6" transform="matrix(0 -1 1 0 -288.379 426.352)"/></g><g><path d="m57.312 349.643h50.288v15.446h-50.288z" fill="#fff"/></g><g><circle cx="40.789" cy="357.366" fill="#fff" r="7.543"/></g><g><circle cx="40.789" cy="357.366" fill="#fc6" r="4.849"/></g></g><g><g><path d="m41.43 154.057h31.61v89.082h-31.61z" fill="#7b3eff" transform="matrix(0 -1 1 0 -141.363 255.833)"/></g><g><path d="m45.561 190.875h50.288v15.446h-50.288z" fill="#fff"/></g><g><circle cx="29.038" cy="198.598" fill="#fff" r="7.543"/></g><g><circle cx="29.038" cy="198.598" fill="#7b3eff" r="4.849"/></g></g><g><g><path d="m62.982 122.447h31.61v89.082h-31.61z" fill="#35c9ad" transform="matrix(0 -1 1 0 -88.201 245.775)"/></g><g><path d="m67.113 159.265h50.288v15.446h-50.288z" fill="#fff"/></g><g><circle cx="50.59" cy="166.988" fill="#fff" r="7.543"/></g><g><circle cx="50.59" cy="166.988" fill="#35c9ad" r="4.849"/></g></g><g><g><path d="m41.43 90.837h31.61v89.082h-31.61z" fill="#fc6" transform="matrix(0 -1 1 0 -78.143 192.613)"/></g><g><path d="m45.561 127.655h50.288v15.446h-50.288z" fill="#fff"/></g><g><circle cx="29.038" cy="135.378" fill="#fff" r="7.543"/></g><g><circle cx="29.038" cy="135.378" fill="#fc6" r="4.849"/></g></g><g><g><path d="m31.676 280.855h31.61v89.082h-31.61z" fill="#35c9ad" transform="matrix(0 -1 1 0 -277.915 372.878)"/></g><g><path d="m35.807 317.674h50.288v15.446h-50.288z" fill="#fff"/></g><g><circle cx="19.284" cy="325.397" fill="#fff" r="7.543"/></g><g><circle cx="19.284" cy="325.397" fill="#35c9ad" r="4.849"/></g></g><g><g><path d="m53.229 249.246h31.61v89.082h-31.61z" fill="#7b3eff" transform="matrix(0 -1 1 0 -224.753 362.82)"/></g><g><path d="m57.359 286.064h50.288v15.446h-50.288z" fill="#fff"/></g><g><circle cx="40.836" cy="293.787" fill="#fff" r="7.543"/></g><g><circle cx="40.836" cy="293.787" fill="#7b3eff" r="4.849"/></g></g><g><g><path d="m33.897 215.415h31.61v93.523h-31.61z" fill="#fc6" transform="matrix(0 -1 1 0 -212.475 311.878)"/></g><g><path d="m35.807 254.454h50.288v15.446h-50.288z" fill="#fff"/></g><g><circle cx="19.284" cy="262.177" fill="#fff" r="7.543"/></g><g><circle cx="19.284" cy="262.177" fill="#fc6" r="4.849"/></g></g><g><g><path d="m53.182 186.026h31.61v89.082h-31.61z" fill="#35c9ad" transform="matrix(0 -1 1 0 -161.581 299.553)"/></g><g><path d="m57.312 222.844h50.288v15.446h-50.288z" fill="#fff"/></g><g><circle cx="40.789" cy="230.567" fill="#fff" r="7.543"/></g><g><circle cx="40.789" cy="230.567" fill="#35c9ad" r="4.849"/></g></g></g><g><g><path d="m88.494 334.423h359.908v133.577h-359.908z" fill="#cc7a52"/></g><g><path d="m68.986 276.831h399.903v78.03h-399.903z" fill="#d18961"/></g></g><g><g><g><path d="m222.648 297.228v10.446l35.206 28.42 32.305-38.866z" fill="#50728c"/></g><g><path d="m236.176 306.578h34.053l-13.674 16.452z" fill="#3a5366"/></g><g><path d="m248.134 236.513c-.377-4.009-3.742-7.073-7.769-7.073h-141.481c-4.636 0-8.25 4.018-7.759 8.628l9.686 91.049c.422 3.968 3.769 6.978 7.759 6.978h148.918" fill="#567999"/></g><g><circle cx="169.753" cy="281.533" fill="#fff" r="14.631"/></g></g><g><g><path d="m288.286 202.091c8.424 10.778 16.07 20.534 59.221 18.451 0 0 36.009 1.488 51.799 2.083 3.158.119 6.778-.667 10.549-2 32.129-11.359 44.834-50.132 26.5-78.858-6.116-9.583-12.367-15.413-12.367-15.413 1.819-39.334-28.869-39.796-29.739-39.712-.171-6.009-3.463-28.207-43.171-23.824 0 0-34.791-.528-40.009 42.517-.979 8.075-3.879 15.852-8.788 22.337-1.607 2.123-3.494 4.22-5.702 6.144-8.059 7.021-13.749 16.409-15.485 26.955-2.136 12.968-2.137 29.382 7.192 41.32z" fill="#333"/></g><path d="m282.991 234.816-4.609 2.588c-11.144 6.257-18.114 18.224-17.412 30.985.046.836.125 1.656.243 2.45 1.418 9.603 9.648 16.845 19.143 16.845.812 0 12.571 2.44 21.106-13.775 3.498-6.645 6.934-13.322 10.591-19.88l19.15-34.337z" fill="#6739e5"/><path d="m431.284 237.404-4.609-2.588-48.213-15.124 19.15 34.337c3.657 6.558 7.094 13.235 10.591 19.88 8.536 16.214 20.294 13.775 21.106 13.775 9.496 0 17.726-7.242 19.144-16.845.117-.794.197-1.613.242-2.45.703-12.761-6.267-24.728-17.411-30.985z" fill="#6739e5"/><g><path d="m394.556 276.831h-79.446v-9.988c0-9.71-3.303-19.131-9.365-26.716-11.183-13.991-12.469-33.466-3.223-48.805l2.098-3.48h100.426l2.098 3.48c9.246 15.34 7.96 34.815-3.223 48.805-6.063 7.585-9.365 17.006-9.365 26.716z" fill="#7b3eff"/></g><g><g id="Path_17_1_"><path d="m368.898 182.171v-17.255h-28.122v17.255c0 3.147-2.551 5.697-5.698 5.697h-9.872v2.684c.004 21.077 10.973 40.634 28.959 51.627l.309-.172c18.57-10.849 29.985-30.739 29.985-52.245v-1.9h-9.858c-3.147 0-5.698-2.551-5.698-5.697z" fill="#ffc1b0"/></g><g id="Rectangle_1-2-2_1_"><path d="m318.307 98.973h73.059v43.419c.001 20.172-16.353 36.525-36.526 36.527h-.01c-20.173.002-36.527-16.349-36.529-36.52 0-.002 0-.004 0-.006z" fill="#ffd0c7"/></g><path d="m321.362 80.925-8.783 52.691c11.413-1.284 18.16-10.456 20.92-15.194 2.687-4.612 6.228-8.694 10.555-11.819 13.409-9.682 26.958-6.251 26.958-6.251s11.093 20.402 21.392 24.166l3.419-34.625z" fill="#333"/><g><g><path d="m411.143 269.859c-2.155-4.413-3.939-10.185-5.102-17.691 0 0-1.753-54.07-14.072-71.44-4.38-6.911-5.247-15.481-2.339-23.129l1.958-5.15c2.062-5.423 2.248-11.38.529-16.921l-3.549-11.443c-.213-.687-.184-1.445.152-2.081 1.05-1.984 3.274-.115 3.274-.115l-.055-.255c-.161-.72-.187-1.34-.132-1.868.014-.137.038-.271.071-.4.574-2.24 3.761-2.358 4.689-.24.151.345.275.627.275.627s1.389-2.245 3.4-.183c0 0 5.876 5.721 7.422 17.628.346 2.818.29 5.669-.179 8.469-.598 3.566-1.395 9.091-2.074 13.951-.901 6.453.343 13.017 3.553 18.687 9.392 16.593 29.281 53.296 33.499 73.642 0 0 1.154 3.273 1.732 7.983 2.41 19.651-24.366 27.72-33.052 9.929z" fill="#ffc1b0"/></g></g><g><path d="m400.276 129.822c-.014 0-.027 0-.041-.001-.275-.022-.48-.264-.458-.539.394-4.858-3.275-9.158-3.313-9.201-.181-.208-.158-.524.051-.705.209-.18.524-.159.705.051.163.188 3.98 4.664 3.553 9.937-.02.26-.239.458-.497.458z" fill="#ffb19f"/></g><g><path d="m395.323 131.777c-.276 0-.5-.224-.5-.5 0-5.475-3.165-9.015-3.197-9.05-.186-.204-.172-.52.032-.706s.521-.171.706.032c.141.154 3.459 3.846 3.459 9.724 0 .276-.224.5-.5.5z" fill="#ffb19f"/></g><g><path d="m298.568 269.859c2.155-4.413 3.939-10.185 5.102-17.691 0 0 1.753-54.07 14.072-71.44 4.38-6.911 5.247-15.481 2.339-23.129l-1.958-5.15c-2.062-5.423-2.248-11.38-.529-16.921l3.549-11.443c.213-.687.184-1.445-.152-2.081-1.05-1.984-3.274-.115-3.274-.115l.055-.255c.161-.72.187-1.34.132-1.868-.014-.137-.038-.271-.071-.4-.574-2.24-3.761-2.358-4.689-.24-.151.345-.275.627-.275.627s-1.389-2.245-3.399-.183c0 0-5.876 5.721-7.422 17.628-.346 2.818-.29 5.669.179 8.469.598 3.566 1.396 9.091 2.074 13.951.901 6.453-.343 13.017-3.553 18.687-9.392 16.593-29.281 53.296-33.499 73.642 0 0-1.154 3.273-1.732 7.983-2.411 19.651 24.364 27.72 33.051 9.929z" fill="#ffc1b0"/></g><g><path d="m309.448 129.901c-.258 0-.477-.198-.497-.459-.428-5.272 3.389-9.749 3.552-9.937.181-.21.496-.231.705-.051s.231.496.051.705c-.037.043-3.704 4.354-3.312 9.201.025.29-.208.543-.499.541z" fill="#ffb19f"/></g><g><path d="m314.401 131.856c-.276 0-.5-.224-.5-.5 0-5.877 3.317-9.57 3.458-9.724.187-.203.502-.217.706-.032.204.186.218.502.032.706-.032.035-3.196 3.575-3.196 9.05 0 .276-.223.5-.5.5z" fill="#ffb19f"/></g></g><g><path d="m354.165 242.179.309-.172c10.318-6.028 18.423-14.85 23.593-25.187h-46.857c4.976 10.32 12.86 19.189 22.955 25.359z" fill="#fff"/></g></g></g></g><g><g><path d="m403.272 61.031 28.782-35.586-23.972-9.929z" fill="#ff5294"/></g><g><path d="m428.943 79.413 33.122-3.501-7.225-17.445z" fill="#ff5294"/></g><g><path d="m312.259 61.363-28.783-35.585 23.972-9.93z" fill="#ff5294"/></g><g><path d="m286.587 79.745-33.122-3.501 7.226-17.445z" fill="#ff5294"/></g></g><g><g><path d="m196.531 107.291c24.381 0 44.146 19.651 44.146 43.892 0 8.513-2.44 16.459-6.66 23.187l5.185 19.238-19.35-5.155c-6.768 4.195-14.759 6.621-23.322 6.621-24.381 0-44.146-19.651-44.146-43.892s19.765-43.891 44.147-43.891z" fill="#fff"/></g><g><g><path d="m172.973 138.171h45.517v29.251h-45.517z" fill="#7b3eff"/></g><g><path d="m195.732 156.164 22.759-18.003h-45.518z" fill="#9595fc"/></g></g><g><g><circle cx="216.154" cy="137.409" fill="#e1e1e1" r="9.754"/></g><g><g><path d="m215.281 134.473h-2.901l-.292 1.954c.175-.024.339-.047.62-.047.585 0 1.17.129 1.638.41.596.339 1.088.994 1.088 1.954 0 1.485-1.182 2.597-2.831 2.597-.831 0-1.533-.234-1.895-.468l.257-.784c.316.188.936.421 1.626.421.971 0 1.802-.632 1.802-1.65-.012-.982-.667-1.684-2.187-1.684-.433 0-.772.047-1.053.082l.491-3.65h3.638v.865z" fill="#7b3eff"/></g><g><path d="m216.746 141.211v-.632l.807-.784c1.942-1.848 2.819-2.831 2.831-3.978 0-.772-.374-1.485-1.509-1.485-.691 0-1.264.351-1.615.643l-.328-.725c.527-.445 1.275-.772 2.153-.772 1.638 0 2.328 1.123 2.328 2.211 0 1.404-1.018 2.538-2.62 4.082l-.609.562v.023h3.416v.854h-4.854z" fill="#7b3eff"/></g></g></g></g><g><g><path d="m383.122 243.508c-2.878-.919-8.77-1.564-14.417 5.38-1.768 2.174-2.654 5.587-2.122 8.988.597 2.315.039 5.103-1.489 6.333-3.36 2.844-4.499 5.488-4.769 7.482-.216 1.602.301 3.235 1.196 4.325 1.46 1.817.668 4.25-1 5.111-2.957 1.306-5.117 4.237-6.372 6.374-1.408 2.396-1.961 5.729-1.23 8.836 1.013 4.304 3.849 6.223 3.849 6.223l4.63.274c-.737-.817-1.414-2.152-1.916-3.312-1.093-2.526-.939-5.784.507-7.694 2.239-2.958 6.294-3.831 6.294-3.831s5.777-1.599 4.089-7.459c-.844-2.93-.554-4.938-.052-6.214.387-.985 1.026-1.694 1.756-2.115.896-.516 2.893-1.772 5.918-4.258 3.004-2.468 1.745-5.963.755-7.791-.664-1.227-1.104-2.686-1.153-4.205-.18-5.642 3.555-6.415 5.874-7.613.028-.014.055-.029.082-.043 1.58-.856 1.265-4.25-.43-4.791z" fill="#fff"/></g><path d="m337.503 287.836v2.892h-4.043c-4.687 0-8.5 3.813-8.5 8.5v10.618c0 4.687 3.813 8.5 8.5 8.5h4.043v1.005c0 6.627 5.373 12 12 12h12.263c6.627 0 12-5.373 12-12v-31.516h-36.263zm-4.043 27.51c-3.032 0-5.5-2.467-5.5-5.5v-10.618c0-3.033 2.468-5.5 5.5-5.5h4.043v21.618z" fill="#fc6"/></g><g><g><g><path d="m113.516 97.537c-26.891 0-48.769-21.877-48.769-48.769s21.878-48.768 48.769-48.768 48.769 21.877 48.769 48.769-21.878 48.768-48.769 48.768z" fill="#567999"/></g></g><g><circle cx="113.516" cy="48.769" fill="#fff" r="37.77"/></g><g><g><path d="m113.515 22.019c-.828 0-1.5-.671-1.5-1.5v-3.528c0-.829.672-1.5 1.5-1.5s1.5.671 1.5 1.5v3.528c0 .829-.671 1.5-1.5 1.5z" fill="#075466"/></g><g><path d="m93.541 30.293c-.384 0-.768-.146-1.061-.439l-2.495-2.495c-.586-.585-.586-1.535 0-2.121s1.535-.586 2.121 0l2.495 2.495c.957.891.223 2.606-1.06 2.56z" fill="#075466"/></g><g><path d="m85.266 50.269h-3.528c-.828 0-1.5-.671-1.5-1.5s.672-1.5 1.5-1.5h3.528c.828 0 1.5.671 1.5 1.5s-.671 1.5-1.5 1.5z" fill="#075466"/></g><g><path d="m91.046 72.739c-1.283.045-2.017-1.67-1.061-2.561l2.495-2.495c.586-.586 1.535-.586 2.121 0s.586 1.536 0 2.121l-2.495 2.495c-.293.293-.676.44-1.06.44z" fill="#075466"/></g><g><path d="m113.515 82.046c-.828 0-1.5-.671-1.5-1.5v-3.528c0-.829.672-1.5 1.5-1.5s1.5.671 1.5 1.5v3.528c0 .829-.671 1.5-1.5 1.5z" fill="#075466"/></g><g><path d="m135.986 72.739c-.384 0-.768-.146-1.061-.439l-2.495-2.495c-.586-.585-.586-1.535 0-2.121s1.535-.586 2.121 0l2.495 2.495c.958.89.223 2.605-1.06 2.56z" fill="#075466"/></g><g><path d="m145.294 50.269h-3.528c-.828 0-1.5-.671-1.5-1.5s.672-1.5 1.5-1.5h3.528c.828 0 1.5.671 1.5 1.5s-.672 1.5-1.5 1.5z" fill="#075466"/></g><g><path d="m133.491 30.293c-1.283.045-2.017-1.67-1.061-2.561l2.495-2.495c.586-.586 1.535-.586 2.121 0s.586 1.536 0 2.121l-2.495 2.495c-.292.294-.676.44-1.06.44z" fill="#075466"/></g></g><path d="m127.833 60.273-9.328-9.312c.294-.672.459-1.413.459-2.193 0-2.309-1.428-4.281-3.448-5.091v-13.197c0-1.104-.896-2-2-2s-2 .896-2 2v13.17c-2.06.79-3.525 2.781-3.525 5.119 0 3.03 2.456 5.487 5.487 5.487.783 0 1.527-.167 2.201-.463l9.329 9.312c.781.78 2.048.779 2.828-.002.78-.783.778-2.049-.003-2.83z" fill="#075466"/></g></g></g><g/><g/><g/><g/><g/><g/><g/><g/><g/><g/><g/><g/><g/><g/><g/></svg>