<svg id="_x30_3" enable-background="new 0 0 128 128" height="512" viewBox="0 0 128 128" width="512" xmlns="http://www.w3.org/2000/svg"><g><g><path d="m33.999 64c-.222 0-.446-.074-.631-.225-.428-.349-.492-.979-.144-1.407l4.05-4.97c.349-.427.98-.491 1.407-.144.428.349.492.979.144 1.407l-4.05 4.97c-.197.243-.485.369-.776.369z" fill="#5989ad"/></g><g><path d="m46.839 48.24c-.223 0-.447-.074-.632-.226-.428-.35-.491-.979-.141-1.407l1.93-2.36c.349-.428.979-.492 1.407-.141.428.35.491.979.141 1.407l-1.93 2.36c-.198.242-.485.367-.775.367z" fill="#5989ad"/></g><g><path d="m51.269 42.8c-.222 0-.446-.074-.631-.225-.428-.349-.492-.979-.143-1.407l4.73-5.8c.35-.429.979-.491 1.407-.143.428.349.492.979.143 1.407l-4.73 5.8c-.198.242-.485.368-.776.368z" fill="#5989ad"/></g><g><path d="m41.229 55.12c-.223 0-.446-.074-.632-.225-.428-.35-.492-.979-.143-1.407l2-2.45c.35-.428.98-.492 1.407-.143.428.35.492.979.143 1.407l-2 2.45c-.197.243-.485.368-.775.368z" fill="#5989ad"/></g><g><path d="m56.97 89.66c-.1 0-.208-.015-.303-.044l-3.88-1.19c-.528-.162-.825-.721-.663-1.249s.723-.822 1.249-.663l3.855 1.182c.423.117.737.504.737.964 0 .552-.443 1-.995 1z" fill="#5989ad"/></g><g><path d="m74.63 95.05c-.096 0-.193-.014-.291-.043l-2.83-.86c-.528-.161-.826-.719-.666-1.248.16-.528.713-.826 1.248-.666l2.83.86c.528.161.826.719.666 1.248-.131.431-.528.709-.957.709z" fill="#5989ad"/></g><g><path d="m67.62 92.911c-.097 0-.195-.015-.293-.044l-7.29-2.23c-.528-.161-.825-.72-.664-1.248s.721-.823 1.249-.664l7.29 2.23c.527.161.825.72.663 1.249-.131.429-.526.707-.955.707z" fill="#5989ad"/></g><g><path d="m90.35 62.55c-.403 0-.783-.246-.935-.646l-1.529-4.03c-.196-.517.063-1.094.58-1.29.515-.194 1.094.064 1.289.58l1.529 4.03c.196.517-.063 1.094-.58 1.29-.116.045-.236.066-.354.066z" fill="#5989ad"/></g><g><path d="m94.35 73.03c-.402 0-.782-.245-.935-.644l-1.51-3.95c-.196-.516.062-1.094.577-1.291.518-.196 1.095.06 1.292.577l1.51 3.95c.196.516-.062 1.094-.577 1.291-.118.046-.238.067-.357.067z" fill="#5989ad"/></g><g><path d="m83.79 45.331c-.403 0-.782-.246-.935-.645l-2.79-7.33c-.196-.517.062-1.094.579-1.291.518-.196 1.093.062 1.29.579l2.79 7.33c.196.517-.062 1.094-.579 1.291-.117.044-.237.066-.355.066z" fill="#5989ad"/></g><g><path d="m87.32 54.581c-.402 0-.782-.245-.935-.644l-2.301-6.03c-.196-.516.062-1.094.578-1.291.513-.196 1.094.061 1.291.578l2.301 6.03c.196.516-.062 1.094-.578 1.291-.116.044-.237.066-.356.066z" fill="#5989ad"/></g><g><path d="m53 80c0 3.39-.8 6.6-2.24 9.43-.24.47-.49.93-.77 1.38-.89 1.5-1.97 2.86-3.2 4.08-1.93 1.92-4.23 3.47-6.79 4.52-2.47 1.03-5.17 1.59-8 1.59-.33 0-.66-.01-.98-.03-2.47-.11-4.84-.65-7.02-1.56-.69-.28-1.36-.6-2-.96-2.19-1.18-4.15-2.74-5.78-4.6-3.25-3.7-5.22-8.55-5.22-13.85 0-6.83 3.28-12.91 8.34-16.74.6-.46 1.23-.89 1.89-1.28 2.18-1.31 4.63-2.24 7.23-2.68 1.15-.2 2.33-.3 3.54-.3 3.54 0 6.88.88 9.8 2.44 6.66 3.52 11.2 10.52 11.2 18.56z" fill="#e1e0f0"/></g><g><path d="m35.85 79.88c0 2.75-2.17 4.99-4.89 5.11-.08.01-.16.01-.24.01h-1.44c-.34 0-.68-.03-1.01-.1-1.01-.2-1.92-.7-2.62-1.4-.93-.92-1.5-2.2-1.5-3.62 0-2.7 2.19-4.88 4.88-4.88h1.94c.23 0 .45.02.66.05.87.11 1.66.45 2.32.97.17.12.32.26.47.41.88.88 1.43 2.1 1.43 3.45z" fill="#9597c8"/></g><g><path d="m38 91.08v8.33c-2.06.86-4.27 1.39-6.59 1.54-.13.01-.26.02-.39.02-2.47-.11-4.84-.65-7.02-1.56-.69-.28-1.36-.6-2-.96v-7.37c0-2.8 2.28-5.08 5.08-5.08h5.84c.94 0 1.82.26 2.57.7 1.5.89 2.51 2.52 2.51 4.38z" fill="#9597c8"/></g><g><path d="m88 30c0 3.69-1.06 7.14-2.9 10.06-.34.54-.7 1.07-1.09 1.57-.8 1.03-1.71 1.98-2.7 2.82-1.3 1.11-2.75 2.04-4.31 2.77-2.43 1.15-5.14 1.78-8 1.78-.31 0-.61-.01-.92-.03-.05 0-.1.01-.15 0-2.46-.14-4.8-.74-6.93-1.75-.69-.32-1.36-.68-2-1.08-1.29-.8-2.48-1.75-3.54-2.82-3.37-3.43-5.46-8.14-5.46-13.32 0-6.63 3.41-12.48 8.57-15.88.6-.39 1.23-.75 1.88-1.08 1.9-.97 3.98-1.62 6.18-1.89.78-.1 1.57-.15 2.37-.15 2.74 0 5.36.58 7.71 1.65 6.65 2.95 11.29 9.61 11.29 17.35z" fill="#ffcd5f"/></g><g><path d="m72.85 27.88c0 2.83-2.3 5.12-5.13 5.12h-1.44c-.34 0-.68-.03-1.01-.1-1.01-.2-1.92-.7-2.62-1.4-.93-.92-1.5-2.2-1.5-3.62 0-2.7 2.19-4.88 4.88-4.88h1.94c.23 0 .45.02.66.05.76.1 1.45.37 2.05.78.27.17.52.37.74.6.88.88 1.43 2.1 1.43 3.45z" fill="#ffa015"/></g><g><path d="m75 39.08v8.14c-2.12 1-4.46 1.61-6.92 1.75-.05 0-.1.01-.15 0-2.46-.14-4.8-.74-6.93-1.75-.69-.32-1.36-.68-2-1.08v-7.06c0-2.8 2.28-5.08 5.08-5.08h5.84c.83 0 1.61.2 2.3.55 1.65.84 2.78 2.56 2.78 4.53z" fill="#ffa015"/></g><g><path d="m118 95c0 3.39-.8 6.6-2.24 9.43-.27.53-.55 1.04-.86 1.54-.82 1.34-1.79 2.58-2.89 3.69-1.97 2.03-4.35 3.66-7.01 4.75-2.47 1.03-5.17 1.59-8 1.59-.31 0-.61-.01-.92-.03h-.13c-2.45-.12-4.79-.66-6.95-1.56-.69-.28-1.36-.6-2-.96-2.19-1.18-4.15-2.74-5.78-4.6-3.25-3.7-5.22-8.55-5.22-13.85 0-6.83 3.28-12.91 8.34-16.74.54-.41 1.1-.79 1.68-1.15 2.38-1.47 5.08-2.48 7.97-2.89.98-.15 1.99-.22 3.01-.22 3.54 0 6.88.88 9.8 2.44 6.66 3.52 11.2 10.52 11.2 18.56z" fill="#48c7ff"/></g><g><path d="m100.85 94.88c0 2.83-2.3 5.12-5.13 5.12h-1.44c-.34 0-.68-.03-1.01-.1-1.01-.2-1.92-.7-2.62-1.4-.93-.92-1.5-2.2-1.5-3.62 0-2.7 2.19-4.88 4.88-4.88h1.94c.23 0 .45.02.66.05.76.1 1.45.37 2.05.78.27.17.52.37.74.6.88.88 1.43 2.1 1.43 3.45z" fill="#2671f7"/></g><g><path d="m103 106.08v8.33c-2.15.9-4.48 1.44-6.92 1.56h-.13c-2.45-.12-4.79-.66-6.95-1.56-.69-.28-1.36-.6-2-.96v-7.37c0-2.8 2.28-5.08 5.08-5.08h5.84c.83 0 1.61.2 2.3.55 1.65.84 2.78 2.56 2.78 4.53z" fill="#2671f7"/></g><g><path d="m40 91.08v8.33c-2.06.86-4.27 1.39-6.59 1.54-.46.03-.93.05-1.41.05-1.54 0-3.05-.17-4.5-.49-1.21-.26-2.38-.63-3.5-1.1v-8.33c0-2.8 2.28-5.08 5.08-5.08h5.84c.94 0 1.82.26 2.57.7 1.5.89 2.51 2.52 2.51 4.38z" fill="#ff85dd"/></g><g><path d="m37.85 79.88c0 2.75-2.17 4.99-4.89 5.11-.08.01-.16.01-.24.01h-1.44c-.34 0-.68-.03-1.01-.1-1.01-.2-1.92-.7-2.62-1.4-.93-.92-1.5-2.2-1.5-3.62 0-2.7 2.19-4.88 4.88-4.88h1.94c.23 0 .45.02.66.05.87.11 1.66.45 2.32.97.17.12.32.26.47.41.88.88 1.43 2.1 1.43 3.45z" fill="#ffcdbe"/></g><g><path d="m77 39.08v8.14c-2.12 1-4.46 1.61-6.92 1.75-.36.02-.72.03-1.08.03-1.55 0-3.05-.18-4.49-.54-1.22-.3-2.4-.71-3.51-1.24v-8.14c0-2.8 2.28-5.08 5.08-5.08h5.84c.83 0 1.61.2 2.3.55 1.65.84 2.78 2.56 2.78 4.53z" fill="#05983d"/></g><g><path d="m17.015 93.167-.795.683c-3.25-3.7-5.22-8.55-5.22-13.85 0-6.83 3.28-12.91 8.34-16.74l.783 1.103c1.291 1.818 1.219 4.313-.266 5.976-2.706 3.032-5.868 8.798-1.713 16.921 1.025 2.002.576 4.442-1.129 5.907z" fill="#9597c8"/></g><g><path d="m56.151 42.728-.691.592c-3.37-3.43-5.46-8.14-5.46-13.32 0-6.63 3.41-12.48 8.57-15.88l.586.823c1.099 1.542.976 3.65-.328 5.023-2.833 2.985-6.562 9.101-1.74 17.89.893 1.627.471 3.665-.937 4.872z" fill="#ffa015"/></g><g><path d="m27.61 64.73-1.85.71c-1.03.4-2.2.03-2.81-.89l-1.72-2.57c2.18-1.31 4.63-2.24 7.23-2.68l.6 2.72c.25 1.14-.36 2.29-1.45 2.71z" fill="#9597c8"/></g><g><path d="m74.85 27.88c0 2.83-2.3 5.12-5.13 5.12h-1.44c-.34 0-.68-.03-1.01-.1-1.01-.2-1.92-.7-2.62-1.4-.93-.92-1.5-2.2-1.5-3.62 0-2.7 2.19-4.88 4.88-4.88h1.94c.23 0 .45.02.66.05.76.1 1.45.37 2.05.78.27.17.52.37.74.6.88.88 1.43 2.1 1.43 3.45z" fill="#ffcdbe"/></g><g><path d="m105 106.08v8.33c-2.15.9-4.48 1.44-6.92 1.56-.35.02-.72.03-1.08.03-1.54 0-3.05-.17-4.5-.49-1.21-.26-2.38-.63-3.5-1.1v-8.33c0-2.8 2.28-5.08 5.08-5.08h5.84c.83 0 1.61.2 2.3.55 1.65.84 2.78 2.56 2.78 4.53z" fill="#f73323"/></g><g><path d="m102.85 94.88c0 2.83-2.3 5.12-5.13 5.12h-1.44c-.34 0-.68-.03-1.01-.1-1.01-.2-1.92-.7-2.62-1.4-.93-.92-1.5-2.2-1.5-3.62 0-2.7 2.19-4.88 4.88-4.88h1.94c.23 0 .45.02.66.05.76.1 1.45.37 2.05.78.27.17.52.37.74.6.88.88 1.43 2.1 1.43 3.45z" fill="#ffcdbe"/></g><g><path d="m37 25c-.552 0-1-.448-1-1v-6c0-.552.448-1 1-1s1 .448 1 1v6c0 .552-.448 1-1 1z" fill="#5989ad"/></g><g><path d="m40 22h-6c-.552 0-1-.448-1-1s.448-1 1-1h6c.552 0 1 .448 1 1s-.448 1-1 1z" fill="#5989ad"/></g><g><path d="m16 116c-.552 0-1-.448-1-1v-6c0-.552.448-1 1-1s1 .448 1 1v6c0 .552-.448 1-1 1z" fill="#5989ad"/></g><g><path d="m19 113h-6c-.552 0-1-.448-1-1s.448-1 1-1h6c.552 0 1 .448 1 1s-.448 1-1 1z" fill="#5989ad"/></g><g><path d="m66.87 13.85c.07.89-.47 1.72-1.32 2l-1.37.44c-.84.27-1.76-.07-2.22-.82l-1.51-2.43c1.9-.97 3.98-1.62 6.18-1.89z" fill="#ffa015"/></g><g><path d="m36.279 104.95c-.524 0-.964-.408-.997-.938-.034-.551.385-1.026.937-1.06 5.536-.34 10.632-3.093 13.982-7.553.332-.442.958-.53 1.4-.199.441.332.531.959.199 1.4-3.702 4.929-9.337 7.971-15.458 8.348-.022.002-.043.002-.063.002z" fill="#5989ad"/></g><g><path d="m11.239 67.82c-.154 0-.31-.035-.456-.11-.491-.253-.685-.856-.433-1.347 2.372-4.617 6.355-8.171 11.216-10.008.514-.195 1.094.065 1.289.582s-.065 1.094-.582 1.289c-4.396 1.662-7.999 4.876-10.143 9.051-.177.345-.528.543-.891.543z" fill="#5989ad"/></g><g><path d="m82.052 108.135-.832.715c-3.25-3.7-5.22-8.55-5.22-13.85 0-6.83 3.28-12.91 8.34-16.74l.783 1.103c1.291 1.818 1.219 4.313-.266 5.976-2.711 3.037-5.879 8.819-1.69 16.965 1.015 1.974.569 4.385-1.115 5.831z" fill="#2671f7"/></g><g><path d="m92.111 79.526c-.354.12-.697.252-1.022.389-1.544.649-3.329.099-4.19-1.338l-.879-1.467c2.38-1.47 5.08-2.48 7.97-2.89l.285 1.533c.302 1.618-.605 3.245-2.164 3.773z" fill="#2671f7"/></g><g><path d="m87.999 44c-.224 0-.45-.075-.637-.229-.425-.352-.485-.982-.133-1.408 2.573-3.111 3.771-6.404 3.771-10.363 0-.696-.043-1.385-.132-2.108-.067-.548.322-1.047.87-1.115.551-.067 1.047.323 1.114.871.1.804.148 1.574.148 2.352 0 4.389-1.384 8.196-4.23 11.637-.197.239-.483.363-.771.363z" fill="#5989ad"/></g><g><path d="m52.319 15.32c-.227 0-.456-.077-.644-.236-.422-.356-.476-.987-.119-1.409 1.891-2.242 4.321-4.028 7.027-5.167.508-.214 1.095.025 1.31.534.214.509-.025 1.095-.534 1.31-2.416 1.016-4.585 2.611-6.274 4.613-.199.234-.481.355-.766.355z" fill="#5989ad"/></g><g><path d="m76.989 81.49c-.179 0-.36-.048-.523-.148-.471-.29-.616-.906-.327-1.376 2.021-3.279 4.897-5.931 8.318-7.667.494-.252 1.094-.054 1.345.439.25.493.054 1.094-.438 1.344-3.094 1.57-5.694 3.968-7.521 6.933-.191.306-.518.475-.854.475z" fill="#5989ad"/></g><g><path d="m107.92 118.771c-.407 0-.789-.251-.938-.654-.19-.518.074-1.093.593-1.284 4.786-1.766 8.716-5.446 10.781-10.098.225-.503.81-.733 1.32-.508.504.224.731.815.508 1.32-2.283 5.143-6.627 9.211-11.918 11.162-.114.042-.231.062-.346.062z" fill="#5989ad"/></g><g><path d="m35.999 49c-.233 0-.468-.082-.658-.247l-11.93-10.43c-.416-.364-.458-.995-.095-1.411.364-.415.997-.457 1.411-.095l11.93 10.43c.416.364.458.995.095 1.411-.197.226-.474.342-.753.342z" fill="#5989ad"/></g><g><path d="m22.109 36.85c-.234 0-.469-.082-.659-.248l-2.11-1.85c-.415-.364-.457-.996-.093-1.411.363-.416.996-.458 1.411-.093l2.11 1.85c.416.364.457.996.093 1.411-.197.226-.473.341-.752.341z" fill="#5989ad"/></g><g><path d="m39 45c-.383 0-.748-.222-.914-.594l-4-9c-.225-.505.003-1.096.507-1.32.504-.227 1.095.003 1.32.507l4 9c.225.505-.003 1.096-.507 1.32-.132.06-.27.087-.406.087z" fill="#5989ad"/></g><g><path d="m32.001 53c-.06 0-.12-.005-.181-.016l-3.56-.65c-.543-.099-.903-.62-.804-1.164.1-.543.619-.899 1.163-.804l3.56.65c.543.099.903.62.804 1.164-.088.482-.508.82-.982.82z" fill="#5989ad"/></g><g><path d="m25.871 51.89c-.06 0-.12-.005-.181-.016l-4.87-.89c-.543-.1-.903-.621-.804-1.164.1-.543.624-.899 1.164-.804l4.87.89c.544.1.903.621.804 1.164-.088.482-.509.82-.983.82z" fill="#5989ad"/></g><g><path d="m96.15 22.59c-.42 0-.811-.266-.949-.686-.174-.524.11-1.09.635-1.264l6.31-2.09c.523-.174 1.091.11 1.264.635.174.524-.11 1.09-.635 1.264l-6.31 2.09c-.105.035-.21.051-.315.051z" fill="#5989ad"/></g><g><path d="m105.57 19.471c-.419 0-.81-.266-.949-.685-.174-.524.11-1.09.634-1.264l4.43-1.47c.524-.173 1.09.11 1.265.634.174.524-.11 1.09-.634 1.264l-4.43 1.47c-.105.034-.211.051-.316.051z" fill="#5989ad"/></g><g><path d="m92.329 17.45c-.217 0-.436-.07-.619-.215-.434-.343-.507-.971-.164-1.405l1.85-2.34c.343-.431.971-.506 1.404-.165.434.343.507.971.164 1.405l-1.85 2.34c-.197.25-.489.38-.785.38z" fill="#5989ad"/></g><g><path d="m96.059 12.73c-.217 0-.435-.07-.618-.215-.434-.342-.508-.971-.166-1.404l2.94-3.73c.342-.433.972-.507 1.404-.166.434.342.508.971.166 1.404l-2.94 3.73c-.198.25-.491.381-.786.381z" fill="#5989ad"/></g><g><path d="m109.87 32.184c-.085 0-.17-.011-.256-.034l-13.538-3.565c-.534-.141-.853-.688-.712-1.222.142-.534.689-.854 1.222-.712l13.538 3.565c.534.141.853.688.712 1.222-.118.449-.524.746-.966.746z" fill="#5989ad"/></g><g><path d="m68.349 108.625c0 .43-.27.81-.68.95-1.08.37-1.94.88-2.62 1.47-.43.36-.8.76-1.09 1.16-1.57 2.07-1.61 4.41-1.61 4.57 0 .55-.45.99-1 .99s-.99-.43-1-.98c0-.01 0-.01 0-.01s0 0 0-.01c0-.21-.1-5.42-5.32-7.19-.41-.14-.68-.52-.68-.95s.27-.81.68-.95c1.12-.38 2.01-.92 2.7-1.53.51-.45.92-.93 1.24-1.41 1.34-1.99 1.38-4.11 1.38-4.26 0-.55.45-.99 1-.99s.99.43 1 .98v.01s0 0 0 .01c0 .21.1 5.42 5.32 7.19.41.14.68.52.68.95z" fill="#38f9e2"/></g><g><path d="m112 52.625c0 .43-.27.81-.68.95-1.08.37-1.94.88-2.62 1.47-.43.36-.8.76-1.09 1.16-1.57 2.07-1.61 4.41-1.61 4.57 0 .55-.45.99-1 .99s-.99-.43-1-.98c0-.01 0-.01 0-.01s0 0 0-.01c0-.21-.1-5.42-5.32-7.19-.41-.14-.68-.52-.68-.95s.27-.81.68-.95c1.12-.38 2.01-.92 2.7-1.53.51-.45.92-.93 1.24-1.41 1.34-1.99 1.38-4.11 1.38-4.26 0-.55.45-.99 1-.99s.99.43 1 .98v.01s0 0 0 .01c0 .21.1 5.42 5.32 7.19.41.14.68.52.68.95z" fill="#38f9e2"/></g><g><path d="m23 17c0 .95-.26 1.83-.72 2.58-.41.68-.97 1.25-1.65 1.66-.66.42-1.43.68-2.25.74-.12.02-.25.02-.38.02-2.76 0-5-2.24-5-5 0-.9.24-1.75.66-2.48.45-.79 1.11-1.45 1.91-1.89.72-.4 1.55-.63 2.43-.63.13 0 .26 0 .38.02 2.58.19 4.62 2.35 4.62 4.98z" fill="#e237c2"/></g><g><path d="m32.26 86-4.789 14.51c-1.2-.26-2.36-.63-3.47-1.1v-8.33c0-2.8 2.261-5.08 5.037-5.08z" fill="#e237c2"/></g><g><path d="m33.549 75.05-3.332 9.85c-1.002-.2-1.904-.7-2.598-1.4-.922-.92-1.487-2.2-1.487-3.62 0-2.7 2.172-4.88 4.839-4.88h1.924c.227 0 .445.02.654.05z" fill="#faa68e"/></g><g><path d="m68.947 34-4.779 14.46c-1.21-.3-2.38-.71-3.48-1.24v-8.14c0-2.8 2.261-5.08 5.037-5.08z" fill="#046e18"/></g><g><path d="m70.236 23.05-3.332 9.85c-1.001-.2-1.904-.7-2.598-1.4-.922-.92-1.487-2.2-1.487-3.62 0-2.7 2.172-4.88 4.839-4.88h1.924c.228 0 .446.02.654.05z" fill="#faa68e"/></g><g><path d="m96.711 101-4.789 14.51c-1.2-.26-2.36-.63-3.47-1.1v-8.33c0-2.8 2.261-5.08 5.037-5.08z" fill="#be1204"/></g><g><path d="m98 90.05-3.332 9.85c-1.002-.2-1.904-.7-2.598-1.4-.922-.92-1.487-2.2-1.487-3.62 0-2.7 2.172-4.88 4.839-4.88h1.924c.228 0 .446.02.654.05z" fill="#faa68e"/></g></g></svg>