<svg enable-background="new 0 0 64 64" height="512" viewBox="0 0 64 64" width="512" xmlns="http://www.w3.org/2000/svg" xmlns:xlink="http://www.w3.org/1999/xlink"><linearGradient id="SVGID_1_" gradientUnits="userSpaceOnUse" x1="4.417" x2="59.583" y1="32" y2="32"><stop offset="0" stop-color="#fff33b"/><stop offset=".1333" stop-color="#ffd319"/><stop offset=".2056" stop-color="#fdc70c"/><stop offset=".5503" stop-color="#f3903f"/><stop offset=".8285" stop-color="#ed683c"/><stop offset=".8812" stop-color="#ed653c"/><stop offset=".9307" stop-color="#ec5c3c"/><stop offset=".9789" stop-color="#ea493a"/><stop offset="1" stop-color="#e93e3a"/></linearGradient><g id="Layer_24"><path d="m59.583 47.583c0 6.628-5.372 12-12 12h-31.166c-6.628 0-12-5.372-12-12v-31.166c0-6.628 5.372-12 12-12h31.166c6.628 0 12 5.372 12 12z" fill="url(#SVGID_1_)"/><path d="m54.238 51.135-13.05-19.76 11.901-18.52c.198-.308.212-.699.037-1.02-.176-.321-.512-.521-.878-.521h-13.266c-.361 0-.695.196-.873.512l-5.92 10.574-6.089-10.584c-.179-.311-.51-.502-.867-.502h-13.4c-.367 0-.705.201-.881.525-.174.322-.157.716.044 1.023l11.984 18.301-13.218 19.97c-.203.307-.221.701-.047 1.025.175.324.514.527.881.527h13.59c.348 0 .67-.182.852-.477l6.922-11.264 6.924 11.264c.182.295.504.477.852.477h13.67c.367 0 .706-.203.881-.527.172-.324.154-.717-.049-1.023z" fill="#fff"/></g></svg>