<svg width="518" height="164" viewBox="0 0 518 164" fill="none" xmlns="http://www.w3.org/2000/svg">
<path d="M474.996 26.24H43.9811C32.106 26.24 22.4792 35.4706 22.4792 46.8571V118.08C22.4792 129.467 32.106 138.697 43.9811 138.697H474.996C486.871 138.697 496.498 129.467 496.498 118.08V46.8571C496.498 35.4706 486.871 26.24 474.996 26.24Z" stroke="url(#paint0_linear_8_3)" stroke-width="4"/>
<path d="M41.0491 25.3029C43.2082 25.3029 44.9585 23.6246 44.9585 21.5543C44.9585 19.484 43.2082 17.8057 41.0491 17.8057C38.8899 17.8057 37.1396 19.484 37.1396 21.5543C37.1396 23.6246 38.8899 25.3029 41.0491 25.3029Z" fill="#83F8A2"/>
<path d="M44.9585 14.0571C44.9585 11.9869 43.2082 10.3086 41.0491 10.3086C38.8899 10.3086 37.1396 11.9869 37.1396 14.0571V20.6171C37.1396 22.6874 38.8899 24.3657 41.0491 24.3657C43.2082 24.3657 44.9585 22.6874 44.9585 20.6171V14.0571Z" fill="#83F8A2"/>
<path d="M480.86 25.3029C483.019 25.3029 484.77 23.6246 484.77 21.5543C484.77 19.484 483.019 17.8057 480.86 17.8057C478.701 17.8057 476.951 19.484 476.951 21.5543C476.951 23.6246 478.701 25.3029 480.86 25.3029Z" fill="#FFD166"/>
<path d="M484.77 14.0571C484.77 11.9869 483.019 10.3086 480.86 10.3086C478.701 10.3086 476.951 11.9869 476.951 14.0571V20.6171C476.951 22.6874 478.701 24.3657 480.86 24.3657C483.019 24.3657 484.77 22.6874 484.77 20.6171V14.0571Z" fill="#FFD166"/>
<path d="M41.0491 145.257C43.2082 145.257 44.9585 143.579 44.9585 141.509C44.9585 139.438 43.2082 137.76 41.0491 137.76C38.8899 137.76 37.1396 139.438 37.1396 141.509C37.1396 143.579 38.8899 145.257 41.0491 145.257Z" fill="#83F8A2"/>
<path d="M44.9585 144.32C44.9585 142.25 43.2082 140.571 41.0491 140.571C38.8899 140.571 37.1396 142.25 37.1396 144.32V149.943C37.1396 152.013 38.8899 153.691 41.0491 153.691C43.2082 153.691 44.9585 152.013 44.9585 149.943V144.32Z" fill="#83F8A2"/>
<path d="M480.86 145.257C483.019 145.257 484.77 143.579 484.77 141.509C484.77 139.438 483.019 137.76 480.86 137.76C478.701 137.76 476.951 139.438 476.951 141.509C476.951 143.579 478.701 145.257 480.86 145.257Z" fill="#FFD166"/>
<path d="M484.77 144.32C484.77 142.25 483.019 140.571 480.86 140.571C478.701 140.571 476.951 142.25 476.951 144.32V149.943C476.951 152.013 478.701 153.691 480.86 153.691C483.019 153.691 484.77 152.013 484.77 149.943V144.32Z" fill="#FFD166"/>
<path d="M59.34 115.486V59.4857H70.06L93.9 99.0057H88.22L111.66 59.4857H122.3L122.46 115.486H110.3L110.22 78.1257H112.46L93.74 109.566H87.9L68.78 78.1257H71.5V115.486H59.34Z" fill="black"/>
<path d="M59.34 115.486H58.79V116.036H59.34V115.486ZM59.34 59.4857V58.9357H58.79V59.4857H59.34ZM70.06 59.4857L70.531 59.2016L70.3706 58.9357H70.06V59.4857ZM93.9 99.0057V99.5557H94.8741L94.371 98.7216L93.9 99.0057ZM88.22 99.0057L87.747 98.7251L87.2543 99.5557H88.22V99.0057ZM111.66 59.4857V58.9357H111.347L111.187 59.2051L111.66 59.4857ZM122.3 59.4857L122.85 59.4841L122.848 58.9357H122.3V59.4857ZM122.46 115.486V116.036H123.012L123.01 115.484L122.46 115.486ZM110.3 115.486L109.75 115.487L109.751 116.036H110.3V115.486ZM110.22 78.1257V77.5757H109.669L109.67 78.1269L110.22 78.1257ZM112.46 78.1257L112.933 78.4071L113.428 77.5757H112.46V78.1257ZM93.74 109.566V110.116H94.0526L94.2126 109.847L93.74 109.566ZM87.9 109.566L87.4301 109.851L87.5908 110.116H87.9V109.566ZM68.78 78.1257V77.5757H67.8018L68.3101 78.4115L68.78 78.1257ZM71.5 78.1257H72.05V77.5757H71.5V78.1257ZM71.5 115.486V116.036H72.05V115.486H71.5ZM59.34 115.486H59.89V59.4857H59.34H58.79V115.486H59.34ZM59.34 59.4857V60.0357H70.06V59.4857V58.9357H59.34V59.4857ZM70.06 59.4857L69.5891 59.7698L93.4291 99.2898L93.9 99.0057L94.371 98.7216L70.531 59.2016L70.06 59.4857ZM93.9 99.0057V98.4557H88.22V99.0057V99.5557H93.9V99.0057ZM88.22 99.0057L88.6931 99.2863L112.133 59.7663L111.66 59.4857L111.187 59.2051L87.747 98.7251L88.22 99.0057ZM111.66 59.4857V60.0357H122.3V59.4857V58.9357H111.66V59.4857ZM122.3 59.4857L121.75 59.4873L121.91 115.487L122.46 115.486L123.01 115.484L122.85 59.4841L122.3 59.4857ZM122.46 115.486V114.936H110.3V115.486V116.036H122.46V115.486ZM110.3 115.486L110.85 115.485L110.77 78.1245L110.22 78.1257L109.67 78.1269L109.75 115.487L110.3 115.486ZM110.22 78.1257V78.6757H112.46V78.1257V77.5757H110.22V78.1257ZM112.46 78.1257L111.987 77.8443L93.2674 109.284L93.74 109.566L94.2126 109.847L112.933 78.4071L112.46 78.1257ZM93.74 109.566V109.016H87.9V109.566V110.116H93.74V109.566ZM87.9 109.566L88.3699 109.28L69.2499 77.8399L68.78 78.1257L68.3101 78.4115L87.4301 109.851L87.9 109.566ZM68.78 78.1257V78.6757H71.5V78.1257V77.5757H68.78V78.1257ZM71.5 78.1257H70.95V115.486H71.5H72.05V78.1257H71.5ZM71.5 115.486V114.936H59.34V115.486V116.036H71.5V115.486Z" fill="white"/>
<path d="M171.797 116.446C167.37 116.446 163.263 115.726 159.477 114.286C155.743 112.846 152.49 110.819 149.717 108.206C146.997 105.592 144.863 102.526 143.317 99.0057C141.823 95.4857 141.077 91.6457 141.077 87.4857C141.077 83.3257 141.823 79.4857 143.317 75.9657C144.863 72.4457 147.023 69.3791 149.797 66.7657C152.57 64.1524 155.823 62.1257 159.557 60.6857C163.29 59.2457 167.343 58.5257 171.717 58.5257C176.143 58.5257 180.197 59.2457 183.877 60.6857C187.61 62.1257 190.837 64.1524 193.557 66.7657C196.33 69.3791 198.49 72.4457 200.037 75.9657C201.583 79.4324 202.357 83.2724 202.357 87.4857C202.357 91.6457 201.583 95.5124 200.037 99.0857C198.49 102.606 196.33 105.672 193.557 108.286C190.837 110.846 187.61 112.846 183.877 114.286C180.197 115.726 176.17 116.446 171.797 116.446ZM171.717 105.406C174.223 105.406 176.517 104.979 178.597 104.126C180.73 103.272 182.597 102.046 184.197 100.446C185.797 98.8457 187.023 96.9524 187.877 94.7657C188.783 92.5791 189.237 90.1524 189.237 87.4857C189.237 84.8191 188.783 82.3924 187.877 80.2057C187.023 78.019 185.797 76.1257 184.197 74.5257C182.65 72.9257 180.81 71.699 178.677 70.8457C176.543 69.9924 174.223 69.5657 171.717 69.5657C169.21 69.5657 166.89 69.9924 164.757 70.8457C162.677 71.699 160.837 72.9257 159.237 74.5257C157.637 76.1257 156.383 78.019 155.477 80.2057C154.623 82.3924 154.197 84.8191 154.197 87.4857C154.197 90.099 154.623 92.5257 155.477 94.7657C156.383 96.9524 157.61 98.8457 159.157 100.446C160.757 102.046 162.623 103.272 164.757 104.126C166.89 104.979 169.21 105.406 171.717 105.406Z" fill="black"/>
<path d="M159.477 114.286L159.279 114.799L159.281 114.8L159.477 114.286ZM149.717 108.206L149.336 108.602L149.339 108.606L149.717 108.206ZM143.317 99.0057L142.81 99.2205L142.813 99.227L143.317 99.0057ZM143.317 75.9657L142.813 75.7444L142.81 75.7509L143.317 75.9657ZM159.557 60.6857L159.359 60.1726L159.359 60.1726L159.557 60.6857ZM183.877 60.6857L183.676 61.1979L183.679 61.1989L183.877 60.6857ZM193.557 66.7657L193.176 67.1623L193.179 67.166L193.557 66.7657ZM200.037 75.9657L199.533 76.187L199.534 76.1898L200.037 75.9657ZM200.037 99.0857L200.54 99.307L200.541 99.3042L200.037 99.0857ZM193.557 108.286L193.934 108.686L193.934 108.686L193.557 108.286ZM183.877 114.286L183.679 113.773L183.676 113.774L183.877 114.286ZM178.597 104.126L178.392 103.615L178.388 103.617L178.597 104.126ZM184.197 100.446L183.808 100.057L183.808 100.057L184.197 100.446ZM187.877 94.7657L187.368 94.555L187.364 94.5658L187.877 94.7657ZM187.877 80.2057L187.364 80.4057L187.369 80.4164L187.877 80.2057ZM184.197 74.5257L183.801 74.908L183.808 74.9146L184.197 74.5257ZM178.677 70.8457L178.472 71.3564L178.472 71.3564L178.677 70.8457ZM164.757 70.8457L164.552 70.335L164.548 70.3369L164.757 70.8457ZM159.237 74.5257L159.626 74.9146L159.626 74.9146L159.237 74.5257ZM155.477 80.2057L154.968 79.995L154.964 80.0058L155.477 80.2057ZM155.477 94.7657L154.963 94.9615L154.965 94.969L154.969 94.9764L155.477 94.7657ZM159.157 100.446L158.761 100.828L158.768 100.835L159.157 100.446ZM164.757 104.126L164.552 104.636L164.552 104.636L164.757 104.126ZM171.797 116.446V115.896C167.431 115.896 163.391 115.186 159.672 113.772L159.477 114.286L159.281 114.8C163.136 116.266 167.309 116.996 171.797 116.996V116.446ZM159.477 114.286L159.675 113.773C156.004 112.357 152.813 110.367 150.094 107.805L149.717 108.206L149.339 108.606C152.167 111.271 155.482 113.335 159.279 114.799L159.477 114.286ZM149.717 108.206L150.098 107.809C147.431 105.247 145.338 102.24 143.82 98.7845L143.317 99.0057L142.813 99.227C144.388 102.812 146.563 105.938 149.336 108.602L149.717 108.206ZM143.317 99.0057L143.823 98.7909C142.361 95.3446 141.627 91.5785 141.627 87.4857H141.077H140.527C140.527 91.713 141.286 95.6268 142.81 99.2205L143.317 99.0057ZM141.077 87.4857H141.627C141.627 83.393 142.361 79.6268 143.823 76.1805L143.317 75.9657L142.81 75.7509C141.286 79.3446 140.527 83.2585 140.527 87.4857H141.077ZM143.317 75.9657L143.82 76.187C145.337 72.7339 147.455 69.7283 150.174 67.166L149.797 66.7657L149.419 66.3654C146.592 69.0298 144.389 72.1575 142.813 75.7445L143.317 75.9657ZM149.797 66.7657L150.174 67.166C152.893 64.604 156.084 62.6145 159.755 61.1989L159.557 60.6857L159.359 60.1726C155.562 61.6369 152.247 63.7008 149.419 66.3654L149.797 66.7657ZM159.557 60.6857L159.755 61.1989C163.419 59.7854 167.405 59.0757 171.717 59.0757V58.5257V57.9757C167.282 57.9757 163.161 58.706 159.359 60.1726L159.557 60.6857ZM171.717 58.5257V59.0757C176.083 59.0757 180.067 59.7857 183.676 61.1979L183.877 60.6857L184.077 60.1735C180.326 58.7057 176.204 57.9757 171.717 57.9757V58.5257ZM183.877 60.6857L183.679 61.1989C187.348 62.6142 190.511 64.6026 193.176 67.1623L193.557 66.7657L193.938 66.3691C191.162 63.7021 187.872 61.6372 184.075 60.1726L183.877 60.6857ZM193.557 66.7657L193.179 67.166C195.899 69.7283 198.016 72.7339 199.533 76.187L200.037 75.9657L200.54 75.7445C198.964 72.1575 196.761 69.0298 193.934 66.3654L193.557 66.7657ZM200.037 75.9657L199.534 76.1898C201.046 79.5786 201.807 83.3411 201.807 87.4857H202.357H202.907C202.907 83.2037 202.12 79.2862 200.539 75.7416L200.037 75.9657ZM202.357 87.4857H201.807C201.807 91.5758 201.047 95.3675 199.532 98.8672L200.037 99.0857L200.541 99.3042C202.12 95.6573 202.907 91.7157 202.907 87.4857H202.357ZM200.037 99.0857L199.533 98.8645C198.016 102.318 195.899 105.323 193.179 107.885L193.557 108.286L193.934 108.686C196.761 106.022 198.964 102.894 200.54 99.307L200.037 99.0857ZM193.557 108.286L193.18 107.885C190.515 110.393 187.35 112.356 183.679 113.773L183.877 114.286L184.075 114.799C187.869 113.335 191.158 111.298 193.934 108.686L193.557 108.286ZM183.877 114.286L183.676 113.774C180.067 115.186 176.109 115.896 171.797 115.896V116.446V116.996C176.231 116.996 180.327 116.265 184.077 114.798L183.877 114.286ZM171.717 105.406V105.956C174.287 105.956 176.652 105.518 178.805 104.635L178.597 104.126L178.388 103.617C176.381 104.44 174.16 104.856 171.717 104.856V105.406ZM178.597 104.126L178.801 104.636C181.002 103.756 182.932 102.488 184.586 100.835L184.197 100.446L183.808 100.057C182.261 101.603 180.458 102.789 178.392 103.615L178.597 104.126ZM184.197 100.446L184.586 100.835C186.241 99.1788 187.509 97.2205 188.389 94.9657L187.877 94.7657L187.364 94.5658C186.537 96.6843 185.352 98.5126 183.808 100.057L184.197 100.446ZM187.877 94.7657L188.385 94.9764C189.322 92.715 189.787 90.2156 189.787 87.4857H189.237H188.687C188.687 90.0892 188.244 92.4431 187.369 94.5551L187.877 94.7657ZM189.237 87.4857H189.787C189.787 84.7559 189.322 82.2564 188.385 79.9951L187.877 80.2057L187.369 80.4164C188.244 82.5283 188.687 84.8822 188.687 87.4857H189.237ZM187.877 80.2057L188.389 80.0058C187.509 77.751 186.241 75.7926 184.586 74.1368L184.197 74.5257L183.808 74.9146C185.352 76.4588 186.537 78.2871 187.364 80.4057L187.877 80.2057ZM184.197 74.5257L184.592 74.1435C182.99 72.4858 181.084 71.2163 178.881 70.3351L178.677 70.8457L178.472 71.3564C180.536 72.1818 182.31 73.3656 183.801 74.908L184.197 74.5257ZM178.677 70.8457L178.881 70.3351C176.677 69.4535 174.287 69.0157 171.717 69.0157V69.5657V70.1157C174.16 70.1157 176.41 70.5313 178.472 71.3564L178.677 70.8457ZM171.717 69.5657V69.0157C169.146 69.0157 166.756 69.4535 164.552 70.3351L164.757 70.8457L164.961 71.3564C167.024 70.5313 169.274 70.1157 171.717 70.1157V69.5657ZM164.757 70.8457L164.548 70.3369C162.4 71.218 160.499 72.4856 158.848 74.1368L159.237 74.5257L159.626 74.9146C161.174 73.3658 162.953 72.1801 164.965 71.3546L164.757 70.8457ZM159.237 74.5257L158.848 74.1368C157.194 75.7902 155.902 77.7449 154.969 79.9951L155.477 80.2057L155.985 80.4164C156.865 78.2932 158.079 76.4613 159.626 74.9146L159.237 74.5257ZM155.477 80.2057L154.964 80.0058C154.083 82.2642 153.647 84.7599 153.647 87.4857H154.197H154.747C154.747 84.8782 155.164 82.5205 155.989 80.4057L155.477 80.2057ZM154.197 87.4857H153.647C153.647 90.1599 154.083 92.6536 154.963 94.9615L155.477 94.7657L155.991 94.5699C155.163 92.3979 154.747 90.0382 154.747 87.4857H154.197ZM155.477 94.7657L154.969 94.9764C155.9 97.2227 157.164 99.1753 158.761 100.828L159.157 100.446L159.552 100.063C158.056 98.5162 156.867 96.6821 155.985 94.5551L155.477 94.7657ZM159.157 100.446L158.768 100.835C160.421 102.488 162.351 103.756 164.552 104.636L164.757 104.126L164.961 103.615C162.896 102.789 161.092 101.603 159.546 100.057L159.157 100.446ZM164.757 104.126L164.552 104.636C166.756 105.518 169.146 105.956 171.717 105.956V105.406V104.856C169.274 104.856 167.024 104.44 164.961 103.615L164.757 104.126Z" fill="white"/>
<path d="M221.057 115.486V59.4857H231.777L264.817 99.8057H259.617V59.4857H272.417V115.486H261.777L228.657 75.1657H233.857V115.486H221.057Z" fill="black"/>
<path d="M221.057 115.486H220.507V116.036H221.057V115.486ZM221.057 59.4857V58.9357H220.507V59.4857H221.057ZM231.777 59.4857L232.202 59.1371L232.037 58.9357H231.777V59.4857ZM264.817 99.8057V100.356H265.979L265.242 99.4571L264.817 99.8057ZM259.617 99.8057H259.067V100.356H259.617V99.8057ZM259.617 59.4857V58.9357H259.067V59.4857H259.617ZM272.417 59.4857H272.967V58.9357H272.417V59.4857ZM272.417 115.486V116.036H272.967V115.486H272.417ZM261.777 115.486L261.352 115.835L261.517 116.036H261.777V115.486ZM228.657 75.1657V74.6157H227.493L228.232 75.5148L228.657 75.1657ZM233.857 75.1657H234.407V74.6157H233.857V75.1657ZM233.857 115.486V116.036H234.407V115.486H233.857ZM221.057 115.486H221.607V59.4857H221.057H220.507V115.486H221.057ZM221.057 59.4857V60.0357H231.777V59.4857V58.9357H221.057V59.4857ZM231.777 59.4857L231.352 59.8343L264.392 100.154L264.817 99.8057L265.242 99.4571L232.202 59.1371L231.777 59.4857ZM264.817 99.8057V99.2557H259.617V99.8057V100.356H264.817V99.8057ZM259.617 99.8057H260.167V59.4857H259.617H259.067V99.8057H259.617ZM259.617 59.4857V60.0357H272.417V59.4857V58.9357H259.617V59.4857ZM272.417 59.4857H271.867V115.486H272.417H272.967V59.4857H272.417ZM272.417 115.486V114.936H261.777V115.486V116.036H272.417V115.486ZM261.777 115.486L262.202 115.137L229.082 74.8166L228.657 75.1657L228.232 75.5148L261.352 115.835L261.777 115.486ZM228.657 75.1657V75.7157H233.857V75.1657V74.6157H228.657V75.1657ZM233.857 75.1657H233.307V115.486H233.857H234.407V75.1657H233.857ZM233.857 115.486V114.936H221.057V115.486V116.036H233.857V115.486Z" fill="white"/>
<path d="M304.905 116.446C301.119 116.446 297.625 115.752 294.425 114.366C291.279 112.926 288.692 110.899 286.665 108.286L293.865 99.6457C295.412 101.672 297.039 103.219 298.745 104.286C300.452 105.299 302.292 105.806 304.265 105.806C309.545 105.806 312.185 102.712 312.185 96.5257V69.8857H292.505V59.4857H325.065V95.8057C325.065 102.739 323.359 107.912 319.945 111.326C316.532 114.739 311.519 116.446 304.905 116.446Z" fill="black"/>
<path d="M294.425 114.366L294.196 114.866L294.207 114.87L294.425 114.366ZM286.665 108.286L286.243 107.934L285.96 108.273L286.231 108.623L286.665 108.286ZM293.865 99.6457L294.303 99.312L293.884 98.7639L293.443 99.2936L293.865 99.6457ZM298.745 104.286L298.454 104.752L298.465 104.759L298.745 104.286ZM312.185 69.8857H312.735V69.3357H312.185V69.8857ZM292.505 69.8857H291.955V70.4357H292.505V69.8857ZM292.505 59.4857V58.9357H291.955V59.4857H292.505ZM325.065 59.4857H325.615V58.9357H325.065V59.4857ZM319.945 111.326L319.556 110.937L319.556 110.937L319.945 111.326ZM304.905 116.446V115.896C301.187 115.896 297.769 115.215 294.644 113.861L294.425 114.366L294.207 114.87C297.481 116.289 301.05 116.996 304.905 116.996V116.446ZM294.425 114.366L294.654 113.866C291.584 112.461 289.07 110.489 287.1 107.949L286.665 108.286L286.231 108.623C288.314 111.31 290.973 113.391 294.196 114.866L294.425 114.366ZM286.665 108.286L287.088 108.638L294.288 99.9978L293.865 99.6457L293.443 99.2936L286.243 107.934L286.665 108.286ZM293.865 99.6457L293.428 99.9794C295.005 102.045 296.678 103.642 298.454 104.752L298.745 104.286L299.037 103.819C297.399 102.796 295.819 101.3 294.303 99.312L293.865 99.6457ZM298.745 104.286L298.465 104.759C300.256 105.822 302.193 106.356 304.265 106.356V105.806V105.256C302.391 105.256 300.648 104.776 299.026 103.813L298.745 104.286ZM304.265 105.806V106.356C307.015 106.356 309.17 105.546 310.624 103.843C312.063 102.156 312.735 99.6844 312.735 96.5257H312.185H311.635C311.635 99.5537 310.987 101.722 309.787 103.129C308.601 104.519 306.796 105.256 304.265 105.256V105.806ZM312.185 96.5257H312.735V69.8857H312.185H311.635V96.5257H312.185ZM312.185 69.8857V69.3357H292.505V69.8857V70.4357H312.185V69.8857ZM292.505 69.8857H293.055V59.4857H292.505H291.955V69.8857H292.505ZM292.505 59.4857V60.0357H325.065V59.4857V58.9357H292.505V59.4857ZM325.065 59.4857H324.515V95.8057H325.065H325.615V59.4857H325.065ZM325.065 95.8057H324.515C324.515 102.657 322.829 107.664 319.556 110.937L319.945 111.326L320.334 111.715C323.889 108.16 325.615 102.821 325.615 95.8057H325.065ZM319.945 111.326L319.556 110.937C316.28 114.214 311.428 115.896 304.905 115.896V116.446V116.996C311.609 116.996 316.784 115.265 320.334 111.715L319.945 111.326Z" fill="white"/>
<path d="M359.509 82.0457H386.469V92.1257H359.509V82.0457ZM360.469 105.086H390.949V115.486H347.589V59.4857H389.909V69.8857H360.469V105.086Z" fill="black"/>
<path d="M359.509 82.0457V81.4957H358.959V82.0457H359.509ZM386.469 82.0457H387.019V81.4957H386.469V82.0457ZM386.469 92.1257V92.6757H387.019V92.1257H386.469ZM359.509 92.1257H358.959V92.6757H359.509V92.1257ZM360.469 105.086H359.919V105.636H360.469V105.086ZM390.949 105.086H391.499V104.536H390.949V105.086ZM390.949 115.486V116.036H391.499V115.486H390.949ZM347.589 115.486H347.039V116.036H347.589V115.486ZM347.589 59.4857V58.9357H347.039V59.4857H347.589ZM389.909 59.4857H390.459V58.9357H389.909V59.4857ZM389.909 69.8857V70.4357H390.459V69.8857H389.909ZM360.469 69.8857V69.3357H359.919V69.8857H360.469ZM359.509 82.0457V82.5957H386.469V82.0457V81.4957H359.509V82.0457ZM386.469 82.0457H385.919V92.1257H386.469H387.019V82.0457H386.469ZM386.469 92.1257V91.5757H359.509V92.1257V92.6757H386.469V92.1257ZM359.509 92.1257H360.059V82.0457H359.509H358.959V92.1257H359.509ZM360.469 105.086V105.636H390.949V105.086V104.536H360.469V105.086ZM390.949 105.086H390.399V115.486H390.949H391.499V105.086H390.949ZM390.949 115.486V114.936H347.589V115.486V116.036H390.949V115.486ZM347.589 115.486H348.139V59.4857H347.589H347.039V115.486H347.589ZM347.589 59.4857V60.0357H389.909V59.4857V58.9357H347.589V59.4857ZM389.909 59.4857H389.359V69.8857H389.909H390.459V59.4857H389.909ZM389.909 69.8857V69.3357H360.469V69.8857V70.4357H389.909V69.8857ZM360.469 69.8857H359.919V105.086H360.469H361.019V69.8857H360.469Z" fill="white"/>
<path d="M406.766 115.486V107.086L441.406 65.3257L443.006 70.0457H407.406V59.4857H454.526V67.8857L419.966 109.646L418.366 104.926H455.726V115.486H406.766Z" fill="black"/>
<path d="M406.766 115.486H406.216V116.036H406.766V115.486ZM406.766 107.086L406.343 106.735L406.216 106.887V107.086H406.766ZM441.406 65.3257L441.927 65.1491L441.611 64.2172L440.983 64.9746L441.406 65.3257ZM443.006 70.0457V70.5957H443.774L443.527 69.8691L443.006 70.0457ZM407.406 70.0457H406.856V70.5957H407.406V70.0457ZM407.406 59.4857V58.9357H406.856V59.4857H407.406ZM454.526 59.4857H455.076V58.9357H454.526V59.4857ZM454.526 67.8857L454.95 68.2364L455.076 68.0838V67.8857H454.526ZM419.966 109.646L419.446 109.822L419.762 110.756L420.39 109.996L419.966 109.646ZM418.366 104.926V104.376H417.599L417.846 105.102L418.366 104.926ZM455.726 104.926H456.276V104.376H455.726V104.926ZM455.726 115.486V116.036H456.276V115.486H455.726ZM406.766 115.486H407.316V107.086H406.766H406.216V115.486H406.766ZM406.766 107.086L407.19 107.437L441.83 65.6769L441.406 65.3257L440.983 64.9746L406.343 106.735L406.766 107.086ZM441.406 65.3257L440.886 65.5023L442.486 70.2223L443.006 70.0457L443.527 69.8691L441.927 65.1491L441.406 65.3257ZM443.006 70.0457V69.4957H407.406V70.0457V70.5957H443.006V70.0457ZM407.406 70.0457H407.956V59.4857H407.406H406.856V70.0457H407.406ZM407.406 59.4857V60.0357H454.526V59.4857V58.9357H407.406V59.4857ZM454.526 59.4857H453.976V67.8857H454.526H455.076V59.4857H454.526ZM454.526 67.8857L454.103 67.5351L419.543 109.295L419.966 109.646L420.39 109.996L454.95 68.2364L454.526 67.8857ZM419.966 109.646L420.487 109.469L418.887 104.749L418.366 104.926L417.846 105.102L419.446 109.822L419.966 109.646ZM418.366 104.926V105.476H455.726V104.926V104.376H418.366V104.926ZM455.726 104.926H455.176V115.486H455.726H456.276V104.926H455.726ZM455.726 115.486V114.936H406.766V115.486V116.036H455.726V115.486Z" fill="white"/>
<path d="M254.113 34.6743C256.812 34.6743 259 32.5764 259 29.9886C259 27.4007 256.812 25.3029 254.113 25.3029C251.414 25.3029 249.226 27.4007 249.226 29.9886C249.226 32.5764 251.414 34.6743 254.113 34.6743Z" fill="#26E9FF"/>
<path d="M259 40.2971C259 37.7093 256.812 35.6114 254.113 35.6114C251.414 35.6114 249.226 37.7093 249.226 40.2971V45.92C249.226 48.5078 251.414 50.6057 254.113 50.6057C256.812 50.6057 259 48.5078 259 45.92V40.2971Z" fill="#26E9FF"/>
<path d="M307.868 149.943C310.567 149.943 312.755 147.845 312.755 145.257C312.755 142.669 310.567 140.571 307.868 140.571C305.169 140.571 302.981 142.669 302.981 145.257C302.981 147.845 305.169 149.943 307.868 149.943Z" fill="#7C4DFF"/>
<path d="M312.755 130.263C312.755 127.675 310.567 125.577 307.868 125.577C305.169 125.577 302.981 127.675 302.981 130.263V135.886C302.981 138.474 305.169 140.571 307.868 140.571C310.567 140.571 312.755 138.474 312.755 135.886V130.263Z" fill="#7C4DFF"/>
<defs>
<linearGradient id="paint0_linear_8_3" x1="22.4792" y1="26.24" x2="47424.4" y2="26.24" gradientUnits="userSpaceOnUse">
<stop stop-color="#83F8A2"/>
<stop offset="1" stop-color="#FFD166"/>
</linearGradient>
</defs>
</svg>
